<svg width="511" height="474" viewBox="0 0 511 474" fill="none" xmlns="http://www.w3.org/2000/svg">
<path d="M343.52 317.2H173.44" stroke="black" stroke-width="2.79999" stroke-miterlimit="10" stroke-linejoin="round"/>
<path d="M173.44 318.96V312.96" stroke="black" stroke-width="2.79999" stroke-miterlimit="10" stroke-linejoin="round"/>
<path d="M230.16 318.96V312.96" stroke="black" stroke-width="2.79999" stroke-miterlimit="10" stroke-linejoin="round"/>
<path d="M286.88 318.96V312.96" stroke="black" stroke-width="2.79999" stroke-miterlimit="10" stroke-linejoin="round"/>
<path d="M343.52 318.96V312.96" stroke="black" stroke-width="2.79999" stroke-miterlimit="10" stroke-linejoin="round"/>
<path d="M230.16 318.96H173.44" stroke="black" stroke-width="3.75999" stroke-miterlimit="10" stroke-linejoin="round"/>
<path d="M286.88 318.96H230.16" stroke="black" stroke-width="3.75999" stroke-miterlimit="10" stroke-linejoin="round"/>
<path d="M343.52 318.96H286.88" stroke="black" stroke-width="3.75999" stroke-miterlimit="10" stroke-linejoin="round"/>
<path d="M400.24 317.2H343.521" stroke="black" stroke-width="2.79999" stroke-miterlimit="10" stroke-linejoin="round"/>
<path d="M400.24 318.96V312.96" stroke="black" stroke-width="2.79999" stroke-miterlimit="10" stroke-linejoin="round"/>
<path d="M400.24 318.96H343.521" stroke="black" stroke-width="3.75999" stroke-miterlimit="10" stroke-linejoin="round"/>
<path d="M476.56 272.88H321.041" stroke="#CC0000" stroke-width="1.92" stroke-miterlimit="10" stroke-linejoin="round"/>
<path d="M476.56 284.24H321.041" stroke="#CC0000" stroke-width="1.92" stroke-miterlimit="10" stroke-linejoin="round"/>
<path d="M321.04 267.2V289.92" stroke="#CC0000" stroke-width="1.92" stroke-miterlimit="10" stroke-linejoin="round"/>
<path d="M398.8 267.2V272.88" stroke="#CC0000" stroke-width="1.92" stroke-miterlimit="10" stroke-linejoin="round"/>
<path fill-rule="evenodd" clip-rule="evenodd" d="M110.08 318.96V316.96L110.96 315.84L112.64 318.96H114.08L111.76 314.72L113.92 311.84H112.32L110.08 314.88V309.04H108.88V318.96" fill="black"/>
<path d="M115.034 318.968H116.234V311.848H115.034V318.968Z" fill="black"/>
<path fill-rule="evenodd" clip-rule="evenodd" d="M115.12 310.48C115.28 310.64 115.44 310.72 115.68 310.72C115.84 310.72 116.08 310.64 116.16 310.48C116.32 310.24 116.4 310.08 116.4 309.76C116.4 309.52 116.32 309.28 116.16 309.12C116.08 308.96 115.84 308.88 115.68 308.88C115.44 308.88 115.28 308.96 115.12 309.12C114.96 309.294 114.874 309.524 114.88 309.76C114.88 310.08 114.96 310.24 115.12 310.48Z" fill="black"/>
<path d="M117.994 318.968H119.114V309.048H117.994V318.968Z" fill="black"/>
<path fill-rule="evenodd" clip-rule="evenodd" d="M125.6 318C126.16 317.28 126.48 316.48 126.48 315.44C126.48 314.4 126.16 313.52 125.6 312.8C125.04 312.08 124.32 311.76 123.52 311.76C122.64 311.76 121.92 312.08 121.36 312.8C120.8 313.52 120.48 314.4 120.48 315.44C120.48 316.48 120.8 317.28 121.36 318C121.92 318.72 122.64 319.12 123.52 319.12C124.32 319.12 125.04 318.72 125.6 318ZM122.24 317.12C121.84 316.64 121.68 316.08 121.68 315.44C121.68 314.72 121.84 314.16 122.24 313.76C122.56 313.28 122.96 313.12 123.52 313.12C124 313.12 124.4 313.28 124.8 313.76C125.12 314.16 125.28 314.72 125.28 315.44C125.28 316.08 125.12 316.64 124.8 317.12C124.4 317.52 124 317.76 123.52 317.76C122.96 317.76 122.56 317.52 122.24 317.12Z" fill="black"/>
<path fill-rule="evenodd" clip-rule="evenodd" d="M129.04 315.12C129.04 314.48 129.12 314 129.44 313.6C129.76 313.28 130.16 313.12 130.56 313.12C130.96 313.12 131.28 313.28 131.44 313.6C131.6 313.92 131.76 314.4 131.76 315.04V318.96H132.96V315.04C132.96 314.4 133.12 313.92 133.36 313.6C133.68 313.28 134.08 313.12 134.48 313.12C135.28 313.12 135.76 313.76 135.76 315.04V318.96H136.96V314.64C136.96 313.68 136.72 312.96 136.32 312.48C135.92 312 135.44 311.76 134.8 311.76C134 311.76 133.28 312.24 132.72 313.12C132.4 312.24 131.76 311.76 130.88 311.76C130.48 311.76 130.16 311.92 129.76 312.16C129.44 312.4 129.2 312.72 129.04 313.2V311.84H127.84V318.96H129.04V315.12Z" fill="black"/>
<path fill-rule="evenodd" clip-rule="evenodd" d="M143.84 316.08V315.04C143.84 314 143.6 313.2 143.04 312.64C142.56 312.08 141.84 311.76 141.12 311.76C140.32 311.76 139.68 312.08 139.12 312.72C138.56 313.44 138.24 314.32 138.24 315.44C138.24 316.56 138.56 317.44 139.12 318.08C139.6 318.72 140.32 319.12 141.12 319.12C142.08 319.12 142.88 318.72 143.52 317.92L142.8 316.96C142.48 317.52 141.92 317.84 141.2 317.84C140.72 317.84 140.32 317.68 140 317.36C139.68 317.04 139.44 316.56 139.44 316.08H143.84ZM139.44 314.88C139.44 314.32 139.6 313.92 139.92 313.52C140.32 313.2 140.72 313.04 141.12 313.04C141.6 313.04 141.92 313.2 142.24 313.52C142.56 313.84 142.72 314.32 142.72 314.88H139.44Z" fill="black"/>
<path fill-rule="evenodd" clip-rule="evenodd" d="M146.64 313.04H148.16V311.84H146.64V309.68H145.44V311.84H144.72V313.04H145.44V316.64C145.44 317.36 145.6 318 146 318.4C146.32 318.88 146.8 319.12 147.28 319.12C147.84 319.12 148.24 318.88 148.72 318.4L148.16 317.36C147.92 317.6 147.68 317.76 147.44 317.76C147.2 317.76 147.04 317.68 146.88 317.52C146.72 317.28 146.64 317.04 146.64 316.64V313.04Z" fill="black"/>
<path fill-rule="evenodd" clip-rule="evenodd" d="M152.56 313.28H152.64V311.76C152.32 311.76 151.92 311.92 151.6 312.24C151.28 312.48 151.04 312.88 150.8 313.28V311.84H149.6V318.96H150.8V315.92C150.8 315.12 150.96 314.48 151.28 314C151.6 313.52 152 313.28 152.56 313.28Z" fill="black"/>
<path fill-rule="evenodd" clip-rule="evenodd" d="M159.12 316.08V315.04C159.12 314 158.88 313.2 158.32 312.64C157.76 312.08 157.12 311.76 156.32 311.76C155.6 311.76 154.88 312.08 154.32 312.72C153.76 313.44 153.52 314.32 153.52 315.44C153.52 316.56 153.76 317.44 154.32 318.08C154.88 318.72 155.52 319.12 156.32 319.12C157.36 319.12 158.16 318.72 158.72 317.92L158.08 316.96C157.68 317.52 157.12 317.84 156.4 317.84C156 317.84 155.6 317.68 155.28 317.36C154.88 317.04 154.72 316.56 154.72 316.08H159.12ZM154.72 314.88C154.72 314.32 154.88 313.92 155.2 313.52C155.52 313.2 155.92 313.04 156.4 313.04C156.8 313.04 157.2 313.2 157.52 313.52C157.76 313.84 157.92 314.32 157.92 314.88H154.72Z" fill="black"/>
<path fill-rule="evenodd" clip-rule="evenodd" d="M164.48 316.88C164.48 316.16 164.24 315.68 163.92 315.36C163.68 315.2 163.52 315.04 163.36 314.96C163.2 314.88 163.04 314.8 162.8 314.72C162.64 314.64 162.48 314.64 162.24 314.56C162 314.48 161.84 314.4 161.68 314.32C161.52 314.16 161.44 314 161.44 313.76C161.44 313.52 161.52 313.36 161.68 313.2C161.84 313.12 162.08 313.04 162.4 313.04C162.88 313.04 163.44 313.2 163.84 313.6L164.32 312.48C163.76 312 163.12 311.76 162.48 311.76C161.84 311.76 161.28 312 160.88 312.32C160.48 312.72 160.24 313.28 160.24 313.92C160.24 314.88 160.88 315.52 162 315.92C162.08 315.92 162.08 316 162.16 316C162.88 316.32 163.28 316.64 163.28 316.96C163.28 317.2 163.2 317.36 163.04 317.52C162.866 317.681 162.637 317.767 162.4 317.76C161.76 317.76 161.12 317.44 160.48 316.88L159.92 318C160.24 318.32 160.64 318.64 161.12 318.8C161.52 318.96 162 319.12 162.4 319.12C162.96 319.12 163.52 318.88 163.84 318.48C164.24 318.08 164.48 317.52 164.48 316.88Z" fill="black"/>
<path fill-rule="evenodd" clip-rule="evenodd" d="M172.16 308.96C172.48 309.6 173.04 309.92 173.68 309.92C174.4 309.92 174.88 309.6 175.2 308.96C175.52 308.4 175.68 307.6 175.68 306.64C175.68 305.68 175.52 304.88 175.2 304.32C174.88 303.68 174.4 303.44 173.68 303.44C173.04 303.44 172.48 303.68 172.16 304.32C171.84 304.88 171.68 305.68 171.68 306.64C171.68 307.6 171.84 308.4 172.16 308.96ZM172.8 304.96C172.96 304.56 173.28 304.32 173.68 304.32C174.08 304.32 174.4 304.48 174.64 304.96C174.8 305.36 174.88 305.92 174.88 306.64C174.88 307.36 174.8 307.92 174.64 308.32C174.4 308.8 174.08 308.96 173.68 308.96C173.28 308.96 172.96 308.8 172.8 308.32C172.56 307.92 172.48 307.36 172.48 306.64C172.48 305.92 172.56 305.36 172.8 304.96Z" fill="black"/>
<path fill-rule="evenodd" clip-rule="evenodd" d="M338.32 303.52V304.48H339.36V309.84H340.16V303.52" fill="black"/>
<path fill-rule="evenodd" clip-rule="evenodd" d="M347.2 303.04L344.56 309.92H345.12L347.76 303.04" fill="black"/>
<path fill-rule="evenodd" clip-rule="evenodd" d="M348 308.161L347.12 309.281V309.841H349.12V309.201H347.76L348.48 308.321C348.64 308.081 348.8 307.841 348.88 307.681C348.96 307.521 349.04 307.361 349.04 307.121C349.04 306.801 348.88 306.561 348.72 306.321C348.56 306.161 348.32 306.081 348.08 306.081C347.68 306.081 347.36 306.321 347.04 306.801L347.44 307.041C347.6 306.801 347.84 306.641 348.08 306.641C348.24 306.641 348.32 306.641 348.4 306.801C348.48 306.881 348.56 307.041 348.56 307.121C348.56 307.281 348.48 307.441 348.4 307.601C348.32 307.761 348.16 307.921 348 308.161Z" fill="black"/>
<path fill-rule="evenodd" clip-rule="evenodd" d="M343.04 303.52V304.08H343.6V307.2H344.08V303.52" fill="black"/>
<path fill-rule="evenodd" clip-rule="evenodd" d="M285.92 303.52V304.48H286.96V309.84H287.76V303.52" fill="black"/>
<path fill-rule="evenodd" clip-rule="evenodd" d="M231.52 303.04L228.88 309.92H229.36L232 303.04" fill="black"/>
<path fill-rule="evenodd" clip-rule="evenodd" d="M232.24 308.161L231.36 309.281V309.841H233.36V309.201H232.08L232.72 308.321C232.96 308.081 233.12 307.841 233.2 307.681C233.28 307.521 233.28 307.361 233.28 307.121C233.28 306.801 233.2 306.561 233.04 306.321C232.8 306.161 232.64 306.081 232.32 306.081C231.92 306.081 231.6 306.321 231.36 306.801L231.76 307.041C231.92 306.801 232.08 306.641 232.32 306.641C232.48 306.641 232.56 306.641 232.72 306.801C232.8 306.881 232.8 307.041 232.8 307.121C232.8 307.281 232.8 307.441 232.72 307.601C232.64 307.761 232.48 307.921 232.24 308.161Z" fill="black"/>
<path fill-rule="evenodd" clip-rule="evenodd" d="M227.36 303.52V304.08H227.92V307.2H228.4V303.52" fill="black"/>
<path fill-rule="evenodd" clip-rule="evenodd" d="M400.32 307.041L398.8 308.881V309.841H402.16V308.801H399.92L401.12 307.281C401.44 306.881 401.68 306.481 401.84 306.161C401.92 305.921 402 305.601 402 305.281C402 304.721 401.84 304.241 401.52 303.921C401.2 303.601 400.88 303.441 400.48 303.441C400.08 303.441 399.68 303.521 399.44 303.681C399.162 303.97 398.921 304.293 398.72 304.641L399.36 305.121C399.68 304.641 400 304.321 400.4 304.321C400.64 304.321 400.8 304.401 400.96 304.641C401.12 304.801 401.2 305.041 401.2 305.281C401.2 305.521 401.12 305.761 401.04 306.001C400.88 306.241 400.64 306.561 400.32 307.041Z" fill="black"/>
<path d="M35.0339 284.408H36.634V272.728H35.0339V284.408Z" fill="black"/>
<path fill-rule="evenodd" clip-rule="evenodd" d="M40.56 279.6C40.56 279.2 40.56 278.8 40.64 278.48C40.8 278.16 40.88 277.92 41.12 277.68C41.44 277.28 41.92 277.04 42.48 277.04C43.52 277.04 44.08 277.92 44.08 279.52V284.4H45.6V278.96C45.6 277.76 45.36 276.88 44.8 276.32C44.32 275.68 43.68 275.36 42.88 275.36C42.4 275.36 41.92 275.52 41.52 275.84C41.12 276.16 40.8 276.56 40.56 277.12V275.52H39.04V284.4H40.56V279.6Z" fill="black"/>
<path fill-rule="evenodd" clip-rule="evenodd" d="M49.5201 277.041H51.3601V275.521H49.5201V272.721H48.0001V275.521H47.1201V277.041H48.0001V281.521C48.0001 282.401 48.2401 283.201 48.7201 283.761C49.1201 284.321 49.6801 284.561 50.3201 284.561C50.9601 284.561 51.5201 284.241 52.0801 283.681L51.4401 282.321C51.2001 282.721 50.8801 282.961 50.5601 282.961C50.2401 282.961 50.0001 282.801 49.7601 282.561C49.6001 282.321 49.5201 282.001 49.5201 281.521V277.041Z" fill="black"/>
<path fill-rule="evenodd" clip-rule="evenodd" d="M59.9203 280.801V279.521C59.9203 278.241 59.5203 277.201 58.8803 276.481C58.2403 275.761 57.3603 275.361 56.4003 275.361C55.4403 275.361 54.5603 275.761 53.9203 276.641C53.2003 277.441 52.8003 278.561 52.8003 279.921C52.8003 281.361 53.2003 282.481 53.8403 283.281C54.5603 284.161 55.4403 284.561 56.4003 284.561C57.6803 284.561 58.6403 284.081 59.4403 283.041L58.5603 281.921C58.0803 282.641 57.4403 282.961 56.5603 282.961C55.9203 282.961 55.4403 282.721 55.0403 282.401C54.5603 282.001 54.3203 281.441 54.3203 280.801H59.9203ZM54.3203 279.281C54.3203 278.561 54.5603 278.001 54.9603 277.601C55.4403 277.201 55.9203 276.961 56.4803 276.961C56.9603 276.961 57.4403 277.201 57.8403 277.601C58.2403 278.001 58.4003 278.561 58.4003 279.281H54.3203Z" fill="black"/>
<path fill-rule="evenodd" clip-rule="evenodd" d="M65.28 277.28H65.36V275.36C64.88 275.36 64.48 275.52 64 275.92C63.6 276.24 63.28 276.72 63.04 277.28V275.52H61.52V284.4H63.04V280.64C63.04 279.6 63.2 278.8 63.6 278.16C64 277.6 64.56 277.28 65.28 277.28Z" fill="black"/>
<path d="M66.7139 280.328H71.1938V278.568H66.7139V280.328Z" fill="black"/>
<path fill-rule="evenodd" clip-rule="evenodd" d="M76.4 284.561C77.52 284.561 78.56 284.001 79.36 282.961L78.48 281.681C77.92 282.481 77.28 282.881 76.64 282.881C76 282.881 75.44 282.561 74.96 282.001C74.48 281.441 74.24 280.721 74.24 279.921C74.24 279.121 74.48 278.401 74.96 277.921C75.44 277.361 76 277.121 76.56 277.121C77.2 277.121 77.84 277.441 78.48 278.081L79.36 276.721C78.56 275.841 77.68 275.361 76.64 275.361C75.52 275.361 74.64 275.761 73.92 276.641C73.12 277.521 72.8 278.641 72.8 280.001C72.8 281.361 73.12 282.481 73.84 283.281C74.56 284.161 75.44 284.561 76.4 284.561Z" fill="black"/>
<path d="M80.9539 284.408H82.4739V275.528H80.9539V284.408Z" fill="black"/>
<path fill-rule="evenodd" clip-rule="evenodd" d="M81.0401 273.681C81.2001 273.921 81.4401 274.081 81.6801 274.081C82.0001 274.081 82.1601 273.921 82.4001 273.681C82.5601 273.441 82.6401 273.201 82.6401 272.881C82.6401 272.561 82.5601 272.241 82.4001 272.001C82.2401 271.761 82.0001 271.681 81.6801 271.681C81.4401 271.681 81.2001 271.761 81.0401 272.001C80.8772 272.265 80.7938 272.57 80.8001 272.881C80.8001 273.201 80.8801 273.441 81.0401 273.681Z" fill="black"/>
<path fill-rule="evenodd" clip-rule="evenodd" d="M86.4801 277.041H88.3201V275.521H86.4801V272.721H84.9601V275.521H84.0801V277.041H84.9601V281.521C84.9601 282.401 85.2001 283.201 85.6801 283.761C86.0801 284.321 86.6401 284.561 87.2801 284.561C87.9201 284.561 88.4801 284.241 89.0401 283.681L88.4001 282.321C88.0801 282.721 87.8401 282.961 87.5201 282.961C87.2001 282.961 86.8801 282.801 86.7201 282.561C86.5601 282.321 86.4801 282.001 86.4801 281.521V277.041Z" fill="black"/>
<path fill-rule="evenodd" clip-rule="evenodd" d="M91.12 288C91.6 288 92 287.84 92.4 287.52C92.8 287.12 93.04 286.72 93.28 286.08L96.72 275.521H95.12L92.96 282.081L90.88 275.521H89.28C91.2 281.441 92.16 284.56 92.16 284.72C92.16 285.04 92 285.36 91.84 285.68C91.6 286 91.36 286.16 91.04 286.16C90.64 286.16 90.32 285.92 90 285.6L89.36 287.12C89.84 287.68 90.48 288 91.12 288Z" fill="black"/>
<path fill-rule="evenodd" clip-rule="evenodd" d="M105.28 277.28H105.36V275.36C104.88 275.36 104.48 275.52 104.08 275.92C103.6 276.24 103.28 276.72 103.04 277.28V275.52H101.6V284.4H103.04V280.64C103.04 279.6 103.28 278.8 103.6 278.16C104 277.6 104.56 277.28 105.28 277.28Z" fill="black"/>
<path fill-rule="evenodd" clip-rule="evenodd" d="M112.88 283.201C113.6 282.321 113.92 281.281 113.92 280.001C113.92 278.641 113.6 277.601 112.88 276.721C112.16 275.841 111.28 275.361 110.16 275.361C109.12 275.361 108.24 275.841 107.52 276.721C106.8 277.601 106.4 278.641 106.4 280.001C106.4 281.281 106.8 282.321 107.52 283.201C108.24 284.161 109.12 284.561 110.16 284.561C111.28 284.561 112.16 284.161 112.88 283.201ZM108.56 282.081C108.16 281.521 107.92 280.801 107.92 280.001C107.92 279.121 108.16 278.401 108.56 277.841C108.96 277.281 109.52 277.041 110.16 277.041C110.8 277.041 111.36 277.281 111.76 277.841C112.24 278.401 112.4 279.121 112.4 280.001C112.4 280.801 112.24 281.521 111.76 282.081C111.36 282.641 110.8 282.881 110.16 282.881C109.52 282.881 108.96 282.641 108.56 282.081Z" fill="black"/>
<path fill-rule="evenodd" clip-rule="evenodd" d="M120.56 280.321C120.56 281.201 120.4 281.761 120 282.241C119.68 282.641 119.2 282.881 118.64 282.881C117.6 282.881 117.04 282.081 117.04 280.401V275.521H115.52V280.961C115.52 282.161 115.76 283.041 116.32 283.681C116.8 284.241 117.44 284.561 118.24 284.561C118.72 284.561 119.2 284.401 119.6 284.081C120 283.761 120.32 283.361 120.56 282.801V284.401H122.08V275.521H120.56V280.321Z" fill="black"/>
<path fill-rule="evenodd" clip-rule="evenodd" d="M126.08 277.041H128V275.521H126.08V272.721H124.64V275.521H123.68V277.041H124.64V281.521C124.64 282.401 124.88 283.201 125.28 283.761C125.76 284.321 126.32 284.561 126.96 284.561C127.6 284.561 128.16 284.241 128.64 283.681L128.08 282.321C127.76 282.721 127.44 282.961 127.12 282.961C126.976 282.961 126.834 282.925 126.708 282.855C126.582 282.785 126.476 282.683 126.4 282.561C126.24 282.321 126.08 282.001 126.08 281.521V277.041Z" fill="black"/>
<path fill-rule="evenodd" clip-rule="evenodd" d="M136.48 280.801V279.521C136.48 278.241 136.16 277.201 135.44 276.481C134.8 275.761 134 275.361 133.04 275.361C132 275.361 131.2 275.761 130.48 276.641C129.76 277.441 129.44 278.561 129.44 279.921C129.44 281.361 129.76 282.481 130.48 283.281C131.2 284.161 132 284.561 133.04 284.561C134.24 284.561 135.28 284.081 136 283.041L135.12 281.921C134.72 282.641 134 282.961 133.12 282.961C132.56 282.961 132.08 282.721 131.6 282.401C131.2 282.001 130.96 281.441 130.88 280.801H136.48ZM130.88 279.281C130.88 278.561 131.12 278.001 131.6 277.601C132 277.201 132.48 276.961 133.04 276.961C133.6 276.961 134.08 277.201 134.4 277.601C134.8 278.001 134.96 278.561 134.96 279.281H130.88Z" fill="black"/>
<path fill-rule="evenodd" clip-rule="evenodd" d="M143.2 281.761C143.2 280.881 142.96 280.321 142.48 279.921C142.24 279.681 142 279.521 141.84 279.441C141.6 279.281 141.36 279.201 141.2 279.121C140.96 279.041 140.72 278.961 140.4 278.801C140.08 278.721 139.84 278.641 139.68 278.561C139.52 278.401 139.36 278.241 139.36 277.921C139.36 277.601 139.52 277.361 139.68 277.201C139.92 277.041 140.24 276.961 140.56 276.961C141.28 276.961 141.92 277.201 142.48 277.681L143.04 276.241C142.32 275.681 141.52 275.361 140.72 275.361C139.84 275.361 139.2 275.601 138.72 276.081C138.16 276.641 137.92 277.281 137.92 278.081C137.92 279.281 138.64 280.081 140.16 280.641C140.16 280.641 140.24 280.641 140.32 280.721C141.28 281.041 141.76 281.441 141.76 281.921C141.757 282.056 141.728 282.189 141.673 282.313C141.618 282.437 141.539 282.548 141.44 282.641C141.338 282.749 141.213 282.833 141.075 282.889C140.937 282.944 140.789 282.968 140.64 282.961C139.84 282.961 139.04 282.561 138.24 281.761L137.52 283.201C137.92 283.681 138.4 284.001 138.96 284.241C139.52 284.481 140.08 284.561 140.56 284.561C141.36 284.561 142 284.321 142.48 283.841C142.96 283.281 143.2 282.641 143.2 281.761Z" fill="black"/>
<path fill-rule="evenodd" clip-rule="evenodd" d="M151.92 284.4L153.6 278.32L155.28 284.4H157.04L159.44 275.52H157.92L156.16 282.24L154.4 275.52H152.8L151.04 282.24L149.28 275.52H147.76L150.24 284.4" fill="black"/>
<path d="M160.794 284.408H162.314V275.528H160.794V284.408Z" fill="black"/>
<path fill-rule="evenodd" clip-rule="evenodd" d="M160.88 273.681C161.04 273.921 161.28 274.081 161.52 274.081C161.84 274.081 162.08 273.921 162.24 273.681C162.4 273.441 162.48 273.201 162.48 272.881C162.48 272.561 162.4 272.241 162.24 272.001C162.08 271.761 161.84 271.681 161.52 271.681C161.28 271.681 161.04 271.761 160.88 272.001C160.717 272.265 160.634 272.57 160.64 272.881C160.64 273.201 160.72 273.441 160.88 273.681Z" fill="black"/>
<path fill-rule="evenodd" clip-rule="evenodd" d="M166.32 277.041H168.16V275.521H166.32V272.721H164.8V275.521H163.92V277.041H164.8V281.521C164.8 282.401 165.04 283.201 165.52 283.761C165.92 284.321 166.48 284.561 167.12 284.561C167.76 284.561 168.32 284.241 168.88 283.681L168.24 282.321C167.92 282.721 167.68 282.961 167.36 282.961C167.04 282.961 166.72 282.801 166.56 282.561C166.4 282.321 166.32 282.001 166.32 281.521V277.041Z" fill="black"/>
<path fill-rule="evenodd" clip-rule="evenodd" d="M171.52 279.6C171.52 279.2 171.6 278.8 171.68 278.48C171.84 278.16 171.92 277.92 172.16 277.68C172.48 277.28 172.96 277.04 173.52 277.04C174.56 277.04 175.12 277.92 175.12 279.52V284.4H176.64V278.96C176.64 277.76 176.4 276.88 175.84 276.32C175.36 275.68 174.72 275.36 173.92 275.36C173.44 275.36 172.96 275.52 172.56 275.84C172.08 276.16 171.76 276.56 171.52 277.12V272H170.08V284.4H171.52V279.6Z" fill="black"/>
<path fill-rule="evenodd" clip-rule="evenodd" d="M184.24 284.4H186L188.88 275.52H187.28L185.12 282.24L182.96 275.52H181.36" fill="black"/>
<path fill-rule="evenodd" clip-rule="evenodd" d="M195.84 284.401V278.641C195.84 277.521 195.52 276.721 195.04 276.161C194.48 275.601 193.76 275.361 192.96 275.361C191.84 275.361 190.88 275.761 190 276.641L190.72 277.841C191.36 277.201 192.08 276.961 192.72 276.961C193.76 276.961 194.32 277.521 194.32 278.721V279.041H192.4C191.52 279.041 190.8 279.281 190.24 279.681C189.76 280.161 189.52 280.801 189.52 281.681C189.52 282.561 189.76 283.281 190.24 283.761C190.72 284.321 191.36 284.561 192.08 284.561C193.04 284.561 193.84 284.161 194.48 283.281V284.401H195.84ZM194.32 281.121C194.32 281.681 194.16 282.161 193.76 282.481C193.44 282.801 193.04 282.961 192.56 282.961C192.08 282.961 191.68 282.881 191.44 282.641C191.12 282.401 191.04 282.081 191.04 281.601C191.04 281.201 191.12 280.881 191.44 280.641C191.68 280.481 192.08 280.321 192.64 280.321H194.32V281.121Z" fill="black"/>
<path fill-rule="evenodd" clip-rule="evenodd" d="M201.6 277.28H201.68V275.36C201.2 275.36 200.8 275.52 200.4 275.92C200 276.24 199.68 276.72 199.36 277.28V275.52H197.92V284.4H199.36V280.64C199.36 279.6 199.6 278.8 200 278.16C200.32 277.6 200.88 277.28 201.6 277.28Z" fill="black"/>
<path d="M203.194 284.408H204.714V275.528H203.194V284.408Z" fill="black"/>
<path fill-rule="evenodd" clip-rule="evenodd" d="M203.28 273.681C203.52 273.921 203.76 274.081 204 274.081C204.24 274.081 204.48 273.921 204.64 273.681C204.8 273.441 204.96 273.201 204.96 272.881C204.96 272.561 204.8 272.241 204.64 272.001C204.48 271.761 204.24 271.681 204 271.681C203.76 271.681 203.52 271.761 203.28 272.001C203.117 272.265 203.034 272.57 203.04 272.881C203.04 273.201 203.12 273.441 203.28 273.681Z" fill="black"/>
<path fill-rule="evenodd" clip-rule="evenodd" d="M213.52 280.801V279.521C213.52 278.241 213.2 277.201 212.48 276.481C211.84 275.761 210.96 275.361 210 275.361C209.04 275.361 208.24 275.761 207.52 276.641C206.8 277.441 206.4 278.561 206.4 279.921C206.4 281.361 206.8 282.481 207.44 283.281C208.16 284.161 209.04 284.561 210 284.561C211.28 284.561 212.24 284.081 213.04 283.041L212.16 281.921C211.68 282.641 211.04 282.961 210.16 282.961C209.6 282.961 209.04 282.721 208.64 282.401C208.24 282.001 208 281.441 207.92 280.801H213.52ZM207.92 279.281C207.92 278.561 208.16 278.001 208.56 277.601C209.04 277.201 209.52 276.961 210.08 276.961C210.64 276.961 211.04 277.201 211.44 277.601C211.84 278.001 212 278.561 212 279.281H207.92Z" fill="black"/>
<path fill-rule="evenodd" clip-rule="evenodd" d="M218.08 284.561C219.12 284.561 219.92 284.081 220.48 283.121V284.401H222V272.001H220.48V276.881C219.92 275.841 219.12 275.361 218.16 275.361C217.28 275.361 216.4 275.761 215.76 276.641C215.04 277.441 214.72 278.561 214.72 279.921C214.72 281.361 215.04 282.481 215.68 283.281C216.4 284.161 217.2 284.561 218.08 284.561ZM216.24 280.001C216.24 279.121 216.4 278.401 216.88 277.841C217.28 277.281 217.76 277.041 218.4 277.041C218.96 277.041 219.52 277.281 219.92 277.841C220.32 278.401 220.48 279.121 220.48 280.001C220.48 280.881 220.32 281.521 219.92 282.081C219.52 282.641 218.96 282.881 218.4 282.881C217.84 282.881 217.28 282.641 216.88 282.081C216.4 281.601 216.24 280.881 216.24 280.001Z" fill="black"/>
<path fill-rule="evenodd" clip-rule="evenodd" d="M230.96 284.561C232.16 284.561 233.12 284.001 234 282.961L233.12 281.681C232.48 282.481 231.92 282.881 231.2 282.881C230.56 282.881 230 282.561 229.52 282.001C229.12 281.441 228.88 280.721 228.88 279.921C228.88 279.121 229.12 278.401 229.52 277.921C230 277.361 230.56 277.121 231.2 277.121C231.84 277.121 232.4 277.441 233.04 278.081L233.92 276.721C233.2 275.841 232.24 275.361 231.2 275.361C230.16 275.361 229.2 275.761 228.48 276.641C227.76 277.521 227.36 278.641 227.36 280.001C227.36 281.361 227.68 282.481 228.4 283.281C229.12 284.161 230 284.561 230.96 284.561Z" fill="black"/>
<path fill-rule="evenodd" clip-rule="evenodd" d="M241.28 284.401V278.641C241.28 277.521 241.04 276.721 240.48 276.161C240 275.601 239.28 275.361 238.48 275.361C237.36 275.361 236.4 275.761 235.52 276.641L236.16 277.841C236.88 277.201 237.6 276.961 238.24 276.961C239.28 276.961 239.84 277.521 239.84 278.721V279.041H237.92C237.04 279.041 236.32 279.281 235.76 279.681C235.28 280.161 235.04 280.801 235.04 281.681C235.04 282.561 235.28 283.281 235.76 283.761C236.24 284.321 236.8 284.561 237.6 284.561C238.56 284.561 239.36 284.161 239.92 283.281V284.401H241.28ZM239.84 281.121C239.84 281.681 239.6 282.161 239.28 282.481C238.96 282.801 238.48 282.961 238 282.961C237.52 282.961 237.2 282.881 236.88 282.641C236.64 282.401 236.48 282.081 236.48 281.601C236.48 281.201 236.64 280.881 236.88 280.641C237.2 280.481 237.6 280.321 238.16 280.321H239.84V281.121Z" fill="black"/>
<path d="M243.434 284.408H244.874V272.008H243.434V284.408ZM247.034 284.408H248.554V272.008H247.034V284.408Z" fill="black"/>
<path fill-rule="evenodd" clip-rule="evenodd" d="M258.24 275.36C257.28 275.36 256.48 275.92 255.92 277.04V275.52H254.4V287.68H255.92V283.12C256.64 284.08 257.44 284.56 258.32 284.56C259.2 284.56 260 284.16 260.72 283.28C261.36 282.4 261.68 281.28 261.68 279.92C261.68 278.56 261.36 277.44 260.64 276.64C260 275.76 259.2 275.36 258.24 275.36ZM255.84 280C255.84 279.12 256.08 278.4 256.48 277.84C256.88 277.28 257.44 277.04 258 277.04C258.64 277.04 259.12 277.28 259.52 277.84C260 278.4 260.16 279.12 260.16 280C260.16 280.88 260 281.52 259.52 282.08C259.12 282.64 258.56 282.88 258 282.88C257.44 282.88 256.88 282.64 256.48 282.08C256.08 281.52 255.84 280.8 255.84 280Z" fill="black"/>
<path fill-rule="evenodd" clip-rule="evenodd" d="M269.2 284.401V278.641C269.2 277.521 268.88 276.721 268.4 276.161C267.84 275.601 267.2 275.361 266.32 275.361C265.2 275.361 264.24 275.761 263.36 276.641L264.08 277.841C264.8 277.201 265.44 276.961 266.08 276.961C267.2 276.961 267.68 277.521 267.68 278.721V279.041H265.76C264.88 279.041 264.16 279.281 263.68 279.681C263.12 280.161 262.88 280.801 262.88 281.681C262.88 282.561 263.12 283.281 263.6 283.761C264.08 284.321 264.72 284.561 265.44 284.561C266.4 284.561 267.2 284.161 267.84 283.281V284.401H269.2ZM267.68 281.121C267.68 281.681 267.52 282.161 267.12 282.481C266.8 282.801 266.4 282.961 265.92 282.961C265.44 282.961 265.04 282.881 264.8 282.641C264.48 282.401 264.4 282.081 264.4 281.601C264.4 281.201 264.48 280.881 264.8 280.641C265.04 280.481 265.44 280.321 266 280.321H267.68V281.121Z" fill="black"/>
<path fill-rule="evenodd" clip-rule="evenodd" d="M273.12 277.041H274.96V275.521H273.12V272.721H271.6V275.521H270.72V277.041H271.6V281.521C271.6 282.401 271.84 283.201 272.32 283.761C272.72 284.321 273.28 284.561 273.92 284.561C274.56 284.561 275.12 284.241 275.68 283.681L275.04 282.321C274.8 282.721 274.48 282.961 274.16 282.961C273.84 282.961 273.6 282.801 273.36 282.561C273.2 282.321 273.12 282.001 273.12 281.521V277.041Z" fill="black"/>
<path fill-rule="evenodd" clip-rule="evenodd" d="M278.72 277.041H280.56V275.521H278.72V272.721H277.2V275.521H276.32V277.041H277.2V281.521C277.2 282.401 277.44 283.201 277.92 283.761C278.32 284.321 278.88 284.561 279.52 284.561C280.16 284.561 280.72 284.241 281.28 283.681L280.64 282.321C280.32 282.721 280.08 282.961 279.76 282.961C279.44 282.961 279.12 282.801 278.96 282.561C278.8 282.321 278.72 282.001 278.72 281.521V277.041Z" fill="black"/>
<path fill-rule="evenodd" clip-rule="evenodd" d="M289.12 280.801V279.521C289.12 278.241 288.72 277.201 288.08 276.481C287.36 275.761 286.56 275.361 285.6 275.361C284.64 275.361 283.76 275.761 283.04 276.641C282.4 277.441 282 278.561 282 279.921C282 281.361 282.32 282.481 283.04 283.281C283.76 284.161 284.64 284.561 285.6 284.561C286.88 284.561 287.84 284.081 288.64 283.041L287.76 281.921C287.28 282.641 286.64 282.961 285.68 282.961C285.12 282.961 284.64 282.721 284.24 282.401C283.76 282.001 283.52 281.441 283.52 280.801H289.12ZM283.52 279.281C283.52 278.561 283.76 278.001 284.16 277.601C284.56 277.201 285.12 276.961 285.68 276.961C286.16 276.961 286.64 277.201 287.04 277.601C287.44 278.001 287.6 278.561 287.6 279.281H283.52Z" fill="black"/>
<path fill-rule="evenodd" clip-rule="evenodd" d="M294.48 277.28H294.56V275.36C294.08 275.36 293.6 275.52 293.2 275.92C292.8 276.24 292.48 276.72 292.24 277.28V275.52H290.72V284.4H292.24V280.64C292.24 279.6 292.4 278.8 292.8 278.16C293.2 277.6 293.76 277.28 294.48 277.28Z" fill="black"/>
<path fill-rule="evenodd" clip-rule="evenodd" d="M297.52 279.6C297.52 279.2 297.6 278.8 297.68 278.48C297.76 278.16 297.92 277.92 298.16 277.68C298.48 277.28 298.96 277.04 299.52 277.04C300.56 277.04 301.12 277.92 301.12 279.52V284.4H302.64V278.96C302.64 277.76 302.4 276.88 301.84 276.32C301.36 275.68 300.72 275.36 299.92 275.36C299.44 275.36 298.96 275.52 298.56 275.84C298.16 276.16 297.76 276.56 297.52 277.12V275.52H296.08V284.4H297.52V279.6Z" fill="black"/>
<path d="M476.56 267.2V289.92" stroke="#CC0000" stroke-width="1.92" stroke-miterlimit="10" stroke-linejoin="round"/>
<path fill-rule="evenodd" clip-rule="evenodd" d="M192.56 21.6003V5.12038L198.4 19.7603H200L205.84 5.12038V21.6003H208.72V0.480394H204.32L199.2 13.7604L194.08 0.480394H189.68V21.6003" fill="black"/>
<path fill-rule="evenodd" clip-rule="evenodd" d="M223.36 21.6003V11.2804C223.36 9.20036 222.88 7.68037 221.92 6.72037C220.96 5.76037 219.76 5.28037 218.24 5.28037C216.24 5.28037 214.48 6.08037 212.96 7.60037L214.16 9.76036C215.44 8.64036 216.64 8.16037 217.84 8.16037C219.76 8.16037 220.72 9.20036 220.72 11.3604V11.9204H217.2C215.6 11.9204 214.32 12.3204 213.44 13.1204C212.48 13.9204 212 15.0403 212 16.6403C212 18.2403 212.48 19.5203 213.36 20.4803C214.24 21.4403 215.28 21.8403 216.64 21.8403C218.4 21.8403 219.84 21.0403 220.88 19.5203V21.6003H223.36ZM220.64 15.6803C220.64 16.6403 220.32 17.5203 219.68 18.0803C219.04 18.7203 218.32 19.0403 217.44 19.0403C216.56 19.0403 215.92 18.8003 215.44 18.4003C214.96 18.0003 214.72 17.3603 214.72 16.5603C214.72 15.8403 214.96 15.2803 215.44 14.8803C215.92 14.4804 216.64 14.3204 217.6 14.3204H220.64V15.6803Z" fill="black"/>
<path fill-rule="evenodd" clip-rule="evenodd" d="M234 5.28032C232.24 5.28032 230.88 6.32032 229.84 8.40031V5.52032H227.12V27.5203H229.84V19.2003C231.12 20.9603 232.56 21.8403 234.16 21.8403C235.76 21.8403 237.2 21.1203 238.4 19.5203C239.6 18.0003 240.24 16.0003 240.24 13.5203C240.24 11.0403 239.6 9.04031 238.4 7.52031C237.2 6.08032 235.68 5.28032 234 5.28032ZM229.76 13.6003C229.76 12.0803 230.16 10.8003 230.88 9.84031C231.6 8.80031 232.56 8.24031 233.6 8.24031C234.64 8.24031 235.6 8.80031 236.4 9.84031C237.12 10.8003 237.52 12.0803 237.52 13.6003C237.52 15.2003 237.12 16.4003 236.32 17.4403C235.6 18.4003 234.64 18.8803 233.6 18.8803C232.48 18.8803 231.6 18.4003 230.88 17.3603C230.16 16.4003 229.76 15.1203 229.76 13.6003Z" fill="black"/>
<path fill-rule="evenodd" clip-rule="evenodd" d="M262.88 0.480394V16.3204L253.12 0.480394H250.32V21.6003H253.12V6.24038L262.64 21.6003H265.76V0.480394" fill="black"/>
<path fill-rule="evenodd" clip-rule="evenodd" d="M280.8 19.4403C282.08 17.8403 282.72 15.9203 282.72 13.6004C282.72 11.2804 282.08 9.28036 280.8 7.68037C279.52 6.08037 277.84 5.28037 275.92 5.28037C274 5.28037 272.4 6.08037 271.12 7.68037C269.84 9.28036 269.2 11.2804 269.2 13.6004C269.2 15.9203 269.84 17.8403 271.12 19.4403C272.4 21.0403 274 21.8403 275.92 21.8403C277.84 21.8403 279.52 21.0403 280.8 19.4403ZM273.04 17.3603C272.32 16.4003 271.92 15.1203 271.92 13.6004C271.92 12.0804 272.32 10.8004 273.04 9.84036C273.84 8.80036 274.8 8.32037 275.92 8.32037C277.12 8.32037 278.08 8.80036 278.88 9.84036C279.6 10.8004 280 12.0804 280 13.6004C280 15.1203 279.6 16.4003 278.88 17.3603C278.08 18.4003 277.12 18.8803 275.92 18.8803C274.8 18.8803 273.84 18.4003 273.04 17.3603Z" fill="black"/>
<path fill-rule="evenodd" clip-rule="evenodd" d="M285.92 21.2003C286.24 21.6803 286.64 21.8403 287.2 21.8403C287.68 21.8403 288.08 21.6803 288.48 21.2003C288.8 20.8003 288.96 20.2403 288.96 19.6003C288.96 18.9603 288.8 18.4803 288.48 18.0003C288.08 17.6003 287.68 17.3603 287.2 17.3603C286.64 17.3603 286.24 17.6003 285.92 18.0003C285.52 18.4803 285.36 18.9603 285.36 19.6003C285.36 20.2403 285.52 20.8003 285.92 21.2003Z" fill="black"/>
<path fill-rule="evenodd" clip-rule="evenodd" d="M297.84 0.480394V3.68039H301.28V21.6003H303.92V0.480394" fill="black"/>
<path fill-rule="evenodd" clip-rule="evenodd" d="M309.44 18.8803C310.56 20.8803 312.32 21.8403 314.56 21.8403C316.88 21.8403 318.64 20.8803 319.76 18.8803C320.88 16.8803 321.44 14.2404 321.44 10.9604C321.44 7.60037 320.88 4.96037 319.76 2.96038C318.64 0.960384 316.88 0.000387173 314.56 0.000387173C312.32 0.000387173 310.56 0.960384 309.44 2.96038C308.32 4.96037 307.76 7.60037 307.76 10.9604C307.76 14.2404 308.32 16.8803 309.44 18.8803ZM311.44 5.20037C312.16 3.76038 313.2 3.04038 314.56 3.04038C316 3.04038 317.04 3.76038 317.68 5.20037C318.32 6.64037 318.64 8.56037 318.64 10.9604C318.64 13.2804 318.32 15.2003 317.68 16.6403C317.04 18.0803 316 18.8003 314.56 18.8003C313.2 18.8003 312.16 18.0803 311.44 16.6403C310.8 15.2003 310.48 13.2804 310.48 10.9604C310.48 8.56037 310.8 6.64037 311.44 5.20037Z" fill="black"/>
<path fill-rule="evenodd" clip-rule="evenodd" d="M115.76 170.16H124.16L125.84 174.96H128.88L121.44 153.841H118.4L111.04 174.96H114L115.76 170.16ZM122.96 166.88H116.88L119.92 158.16L122.96 166.88Z" fill="black"/>
<path fill-rule="evenodd" clip-rule="evenodd" d="M134.08 174.96V158.48L139.92 173.12H141.52L147.36 158.48V174.96H150.24V153.841H145.84L140.72 167.12L135.68 153.841H131.2V174.96" fill="black"/>
<path fill-rule="evenodd" clip-rule="evenodd" d="M160.72 153.84H154.88V174.96H157.76V168.8H160.72C163.2 168.8 165.04 168.16 166.24 167.04C167.44 165.84 168 163.92 168 161.36C168 158.8 167.44 156.96 166.24 155.68C165.12 154.48 163.2 153.84 160.72 153.84ZM161.04 165.52H157.76V157.12H160.64C162.16 157.12 163.28 157.36 164 158C164.72 158.64 165.12 159.6 165.12 161.12C165.12 162.56 164.8 163.68 164.24 164.4C163.68 165.2 162.64 165.52 161.04 165.52Z" fill="black"/>
<path fill-rule="evenodd" clip-rule="evenodd" d="M171.36 174.96H174.24V166.32H182.56V174.96H185.44V153.841H182.56V163.04H174.24V153.841H171.36" fill="black"/>
<path d="M190.074 174.968H192.954V153.848H190.074V174.968Z" fill="black"/>
<path fill-rule="evenodd" clip-rule="evenodd" d="M203.92 157.12H209.04V153.84H196V157.12H201.12V174.96H203.92" fill="black"/>
<path fill-rule="evenodd" clip-rule="evenodd" d="M225.6 160.72C225.6 158.32 225.04 156.56 223.92 155.52C222.8 154.4 220.96 153.84 218.4 153.84H212.16V174.96H214.96V167.92H218.72L222.72 174.96H226.4L221.92 167.28C224.4 166.4 225.6 164.24 225.6 160.72ZM218.56 164.64H214.96V157.12H218.64C220.16 157.12 221.2 157.36 221.76 157.84C222.4 158.4 222.64 159.36 222.64 160.72C222.64 162.08 222.4 163.12 221.84 163.68C221.2 164.32 220.16 164.64 218.56 164.64Z" fill="black"/>
<path fill-rule="evenodd" clip-rule="evenodd" d="M243.76 172.08C245.44 170 246.32 167.36 246.32 164.24C246.32 161.12 245.44 158.56 243.76 156.48C242.08 154.4 240 153.36 237.44 153.36C234.96 153.36 232.88 154.4 231.12 156.48C229.44 158.56 228.64 161.12 228.64 164.24C228.64 167.36 229.44 170 231.12 172.08C232.88 174.16 234.96 175.2 237.44 175.2C240 175.2 242.08 174.16 243.76 172.08ZM241.68 158.88C242.88 160.32 243.44 162.16 243.44 164.24C243.44 166.4 242.88 168.24 241.68 169.68C240.56 171.2 239.12 171.92 237.44 171.92C235.76 171.92 234.4 171.2 233.2 169.68C232.08 168.24 231.52 166.4 231.52 164.24C231.52 162.16 232.08 160.32 233.2 158.88C234.4 157.36 235.76 156.64 237.44 156.64C239.12 156.64 240.56 157.36 241.68 158.88Z" fill="black"/>
<path fill-rule="evenodd" clip-rule="evenodd" d="M255.04 156.64C255.84 156.64 256.64 156.8 257.52 157.2C258.4 157.52 259.04 158 259.52 158.56L261.04 155.92C260.32 155.04 259.36 154.48 258.32 154C257.28 153.6 256.16 153.36 255.12 153.36C253.44 153.36 252.08 153.84 250.88 154.96C249.76 156 249.2 157.52 249.2 159.44C249.2 161.44 249.68 162.88 250.72 163.84C251.2 164.32 251.76 164.72 252.4 165.04C253.04 165.36 254 165.68 255.2 166.08C256.48 166.4 257.36 166.88 257.84 167.28C258.32 167.76 258.64 168.4 258.64 169.2C258.64 170 258.32 170.64 257.84 171.2C257.28 171.68 256.56 171.92 255.6 171.92C253.76 171.92 252 170.96 250.32 169.12L248.56 171.84C249.6 172.96 250.64 173.84 251.84 174.4C252.96 174.96 254.24 175.2 255.52 175.2C257.36 175.2 258.8 174.64 259.92 173.52C261.04 172.32 261.6 170.88 261.6 169.04C261.6 167.2 261.12 165.76 260.24 164.8C259.36 163.92 258.08 163.12 256.32 162.64C254.64 162.08 253.52 161.6 252.96 161.12C252.48 160.72 252.16 160.08 252.16 159.2C252.16 158.32 252.48 157.68 252.96 157.28C253.52 156.88 254.16 156.64 255.04 156.64Z" fill="black"/>
<path fill-rule="evenodd" clip-rule="evenodd" d="M285.12 160.72C285.12 158.32 284.56 156.56 283.44 155.52C282.32 154.4 280.48 153.84 277.92 153.84H271.68V174.96H274.56V167.92H278.24L282.24 174.96H285.92L281.52 167.28C283.92 166.4 285.12 164.24 285.12 160.72ZM278.08 164.64H274.56V157.12H278.16C279.68 157.12 280.72 157.36 281.28 157.84C281.92 158.4 282.24 159.36 282.24 160.72C282.24 162.08 281.92 163.12 281.36 163.68C280.8 164.32 279.68 164.64 278.08 164.64Z" fill="black"/>
<path fill-rule="evenodd" clip-rule="evenodd" d="M291.6 170.16H300L301.68 174.96H304.72L297.36 153.841H294.32L286.88 174.96H289.92L291.6 170.16ZM298.88 166.88H292.72L295.84 158.16L298.88 166.88Z" fill="black"/>
<path d="M307.113 174.968H309.913V153.848H307.113V174.968Z" fill="black"/>
<path fill-rule="evenodd" clip-rule="evenodd" d="M314.64 174.96H325.12V171.6H317.44V153.841H314.64" fill="black"/>
<path fill-rule="evenodd" clip-rule="evenodd" d="M333.52 169.04L329.28 153.84H326.16L332.08 174.96H334.88L338.4 160.48H338.64L342.16 174.96H344.96L350.88 153.84H347.84L343.6 169.04L339.84 153.84H337.28" fill="black"/>
<path fill-rule="evenodd" clip-rule="evenodd" d="M355.84 170.16H364.32L366 174.96H369.04L361.6 153.841H358.56L351.12 174.96H354.16L355.84 170.16ZM363.12 166.88H357.04L360.08 158.16L363.12 166.88Z" fill="black"/>
<path fill-rule="evenodd" clip-rule="evenodd" d="M378 174.96V166.64L384.24 153.841H381.12L376.56 163.44L371.92 153.841H368.88L375.12 166.64V174.96" fill="black"/>
<path fill-rule="evenodd" clip-rule="evenodd" d="M391.52 156.64C392.32 156.64 393.12 156.8 394 157.2C394.88 157.52 395.52 158 396 158.56L397.52 155.92C396.8 155.04 395.84 154.48 394.8 154C393.76 153.6 392.64 153.36 391.6 153.36C389.92 153.36 388.56 153.84 387.36 154.96C386.24 156 385.68 157.52 385.68 159.44C385.68 161.44 386.16 162.88 387.2 163.84C387.68 164.32 388.24 164.72 388.88 165.04C389.52 165.36 390.48 165.68 391.68 166.08C392.96 166.4 393.84 166.88 394.32 167.28C394.8 167.76 395.12 168.4 395.12 169.2C395.12 170 394.8 170.64 394.32 171.2C393.76 171.68 393.04 171.92 392.08 171.92C390.24 171.92 388.48 170.96 386.8 169.12L385.04 171.84C386.08 172.96 387.12 173.84 388.32 174.4C389.44 174.96 390.72 175.2 392 175.2C393.84 175.2 395.28 174.64 396.4 173.52C397.52 172.32 398.08 170.88 398.08 169.04C398.08 167.2 397.6 165.76 396.72 164.8C395.84 163.92 394.56 163.12 392.8 162.64C391.12 162.08 390 161.6 389.44 161.12C388.96 160.72 388.64 160.08 388.64 159.2C388.64 158.32 388.96 157.68 389.44 157.28C390 156.88 390.64 156.64 391.52 156.64Z" fill="black"/>
<path fill-rule="evenodd" clip-rule="evenodd" d="M64.4802 188.8H58.7202V209.92H61.6002V203.68H64.5602C67.0402 203.68 68.8802 203.12 70.0802 201.92C71.2802 200.72 71.8402 198.88 71.8402 196.32C71.8402 193.76 71.2802 191.84 70.0802 190.64C68.9602 189.36 67.0402 188.8 64.4802 188.8ZM64.8802 200.48H61.6002V192H64.4802C66.0002 192 67.1202 192.32 67.8402 192.88C68.5602 193.52 68.9602 194.56 68.9602 196C68.9602 197.44 68.6402 198.56 68.0802 199.36C67.5202 200.08 66.4802 200.48 64.8802 200.48Z" fill="black"/>
<path fill-rule="evenodd" clip-rule="evenodd" d="M88.6402 195.6C88.6402 193.2 88.0802 191.52 86.9602 190.4C85.8402 189.28 84.0002 188.8 81.4402 188.8H75.2002V209.92H78.0802V202.8H81.7602L85.8402 209.92H89.4402L85.0402 202.24C87.4402 201.28 88.6402 199.12 88.6402 195.6ZM81.6002 199.6H78.0802V192H81.6802C83.2002 192 84.2402 192.24 84.8802 192.8C85.4402 193.28 85.7602 194.24 85.7602 195.6C85.7602 197.04 85.4402 198 84.8802 198.64C84.3202 199.28 83.2002 199.6 81.6002 199.6Z" fill="black"/>
<path fill-rule="evenodd" clip-rule="evenodd" d="M106.8 206.96C108.56 204.88 109.36 202.32 109.36 199.2C109.36 196.08 108.56 193.44 106.8 191.36C105.12 189.28 103.04 188.24 100.56 188.24C98.0002 188.24 95.9202 189.28 94.2402 191.36C92.4802 193.44 91.6802 196.08 91.6802 199.2C91.6802 202.32 92.4802 204.88 94.2402 206.96C95.9202 209.04 98.0002 210.08 100.56 210.08C103.04 210.08 105.12 209.04 106.8 206.96ZM104.72 193.76C105.92 195.28 106.48 197.04 106.48 199.2C106.48 201.28 105.92 203.12 104.72 204.64C103.6 206.08 102.16 206.88 100.56 206.88C98.8802 206.88 97.4402 206.08 96.3202 204.64C95.1202 203.12 94.5602 201.28 94.5602 199.2C94.5602 197.04 95.1202 195.28 96.3202 193.76C97.4402 192.24 98.8802 191.52 100.56 191.52C102.16 191.52 103.6 192.24 104.72 193.76Z" fill="black"/>
<path fill-rule="evenodd" clip-rule="evenodd" d="M118.72 188.8H112.96V209.92H115.84V203.68H118.8C121.28 203.68 123.12 203.12 124.32 201.92C125.52 200.72 126.08 198.88 126.08 196.32C126.08 193.76 125.52 191.84 124.32 190.64C123.2 189.36 121.28 188.8 118.72 188.8ZM119.12 200.48H115.84V192H118.72C120.24 192 121.36 192.32 122.08 192.88C122.8 193.52 123.2 194.56 123.2 196C123.2 197.44 122.88 198.56 122.32 199.36C121.76 200.08 120.72 200.48 119.12 200.48Z" fill="black"/>
<path fill-rule="evenodd" clip-rule="evenodd" d="M143.52 206.96C145.2 204.88 146.08 202.32 146.08 199.2C146.08 196.08 145.2 193.44 143.52 191.36C141.84 189.28 139.76 188.24 137.2 188.24C134.72 188.24 132.64 189.28 130.88 191.36C129.2 193.44 128.4 196.08 128.4 199.2C128.4 202.32 129.2 204.88 130.88 206.96C132.64 209.04 134.72 210.08 137.2 210.08C139.76 210.08 141.84 209.04 143.52 206.96ZM141.44 193.76C142.64 195.28 143.2 197.04 143.2 199.2C143.2 201.28 142.64 203.12 141.44 204.64C140.32 206.08 138.88 206.88 137.2 206.88C135.52 206.88 134.16 206.08 132.96 204.64C131.84 203.12 131.28 201.28 131.28 199.2C131.28 197.04 131.84 195.28 132.96 193.76C134.16 192.24 135.52 191.52 137.2 191.52C138.88 191.52 140.32 192.24 141.44 193.76Z" fill="black"/>
<path fill-rule="evenodd" clip-rule="evenodd" d="M154.8 191.52C155.6 191.52 156.4 191.76 157.28 192.08C158.16 192.48 158.8 192.96 159.28 193.52L160.8 190.8C160.08 190 159.12 189.36 158.08 188.96C157.04 188.48 155.92 188.24 154.88 188.24C153.2 188.24 151.84 188.8 150.64 189.84C149.52 190.88 148.96 192.4 148.96 194.4C148.96 196.32 149.44 197.76 150.48 198.72C150.96 199.2 151.52 199.6 152.16 199.92C152.8 200.24 153.76 200.56 154.96 200.96C156.24 201.36 157.12 201.76 157.6 202.24C158.08 202.64 158.4 203.28 158.4 204.08C158.4 204.96 158.08 205.6 157.6 206.08C157.04 206.56 156.32 206.8 155.36 206.8C153.52 206.8 151.76 205.92 150.08 204L148.32 206.72C149.36 207.84 150.4 208.72 151.6 209.28C152.72 209.84 154 210.16 155.28 210.16C157.12 210.16 158.56 209.6 159.68 208.4C160.8 207.28 161.36 205.76 161.36 203.92C161.36 202.08 160.88 200.72 160 199.76C159.12 198.8 157.84 198.08 156.08 197.52C154.4 197.04 153.28 196.56 152.72 196.08C152.24 195.6 151.92 194.96 151.92 194.08C151.92 193.28 152.24 192.64 152.72 192.16C153.28 191.76 153.92 191.52 154.8 191.52Z" fill="black"/>
<path fill-rule="evenodd" clip-rule="evenodd" d="M176.64 188.8H164.88V209.92H176.96V206.56H167.68V200.88H175.76V197.76H167.68V192.16H176.64" fill="black"/>
<path fill-rule="evenodd" clip-rule="evenodd" d="M186.4 188.8H180.64V209.92H186.16C189.44 209.92 191.84 208.96 193.44 207.04C194.96 205.12 195.76 202.48 195.76 199.2C195.76 195.92 194.96 193.36 193.36 191.52C191.76 189.68 189.44 188.8 186.4 188.8ZM192.88 199.36C192.88 201.68 192.4 203.52 191.28 204.72C190.24 205.92 188.64 206.56 186.64 206.56H183.44V192.08H186.32C188.48 192.08 190.16 192.64 191.28 193.92C192.32 195.12 192.88 196.88 192.88 199.36Z" fill="black"/>
<path d="M205.994 209.928H208.874V188.808H205.994V209.928Z" fill="black"/>
<path fill-rule="evenodd" clip-rule="evenodd" d="M226.16 188.8V204.56L216.4 188.8H213.52V209.92H216.4V194.48L225.92 209.92H229.04V188.8" fill="black"/>
<path fill-rule="evenodd" clip-rule="evenodd" d="M240.08 192H245.12V188.8H232.08V192H237.2V209.92H240.08" fill="black"/>
<path fill-rule="evenodd" clip-rule="evenodd" d="M260.08 188.8H248.24V209.92H260.4V206.56H251.12V200.88H259.12V197.76H251.12V192.16H260.08" fill="black"/>
<path fill-rule="evenodd" clip-rule="evenodd" d="M277.44 195.6C277.44 193.2 276.88 191.52 275.76 190.4C274.64 189.28 272.8 188.8 270.24 188.8H264V209.92H266.88V202.8H270.56L274.64 209.92H278.24L273.84 202.24C276.24 201.28 277.44 199.12 277.44 195.6ZM270.4 199.6H266.88V192H270.48C272 192 273.04 192.24 273.6 192.8C274.24 193.28 274.56 194.24 274.56 195.6C274.56 197.04 274.24 198 273.68 198.64C273.12 199.28 272 199.6 270.4 199.6Z" fill="black"/>
<path d="M280.954 202.488H288.954V199.288H280.954V202.488Z" fill="black"/>
<path fill-rule="evenodd" clip-rule="evenodd" d="M300.72 206.64C299.12 206.64 297.76 205.92 296.64 204.48C295.44 203.04 294.88 201.28 294.88 199.12C294.88 196.96 295.44 195.2 296.64 193.84C297.76 192.48 299.2 191.76 300.88 191.76C301.84 191.76 302.72 191.92 303.44 192.32C304.16 192.72 304.88 193.36 305.68 194.4L307.52 191.92C306.64 190.64 305.68 189.76 304.56 189.2C303.44 188.56 302.24 188.24 300.96 188.24C298.32 188.24 296.16 189.28 294.48 191.44C292.8 193.52 291.92 196.08 291.92 199.28C291.92 202.4 292.8 205.04 294.48 207.04C296.08 209.12 298.24 210.16 300.8 210.16C303.36 210.16 305.52 208.88 307.28 206.4L305.44 204.08C304.64 204.96 303.92 205.6 303.2 206.08C302.48 206.48 301.68 206.64 300.72 206.64Z" fill="black"/>
<path d="M310.713 209.928H313.593V188.808H310.713V209.928Z" fill="black"/>
<path fill-rule="evenodd" clip-rule="evenodd" d="M324.64 192H329.76V188.8H316.64V192H321.76V209.92H324.64" fill="black"/>
<path fill-rule="evenodd" clip-rule="evenodd" d="M339.44 209.92V201.52L345.68 188.8H342.56L338 198.4L333.36 188.8H330.24L336.56 201.52V209.92" fill="black"/>
<path fill-rule="evenodd" clip-rule="evenodd" d="M367.84 195.6C367.84 193.2 367.28 191.52 366.24 190.4C365.12 189.28 363.28 188.8 360.72 188.8H354.4V209.92H357.28V202.8H361.04L365.04 209.92H368.64L364.24 202.24C366.64 201.28 367.84 199.12 367.84 195.6ZM360.8 199.6H357.28V192H360.88C362.4 192 363.44 192.24 364.08 192.8C364.64 193.28 364.96 194.24 364.96 195.6C364.96 197.04 364.64 198 364.08 198.64C363.52 199.28 362.4 199.6 360.8 199.6Z" fill="black"/>
<path fill-rule="evenodd" clip-rule="evenodd" d="M386.08 206.96C387.76 204.88 388.64 202.32 388.64 199.2C388.64 196.08 387.76 193.44 386.08 191.36C384.32 189.28 382.24 188.24 379.76 188.24C377.2 188.24 375.12 189.28 373.44 191.36C371.76 193.44 370.88 196.08 370.88 199.2C370.88 202.32 371.76 204.88 373.44 206.96C375.12 209.04 377.28 210.08 379.76 210.08C382.24 210.08 384.32 209.04 386.08 206.96ZM384 193.76C385.12 195.28 385.68 197.04 385.68 199.2C385.68 201.28 385.12 203.12 384 204.64C382.8 206.08 381.44 206.88 379.76 206.88C378.08 206.88 376.64 206.08 375.52 204.64C374.4 203.12 373.76 201.28 373.76 199.2C373.76 197.04 374.4 195.28 375.52 193.76C376.64 192.24 378.08 191.52 379.76 191.52C381.44 191.52 382.8 192.24 384 193.76Z" fill="black"/>
<path fill-rule="evenodd" clip-rule="evenodd" d="M396 205.04C395.2 203.92 394.8 202.4 394.8 200.48V188.8H392V200.64C392 203.68 392.64 206 394 207.68C395.28 209.28 397.04 210.08 399.12 210.08C401.2 210.08 402.88 209.28 404.24 207.68C405.6 206 406.24 203.68 406.24 200.64V188.8H403.36V200.48C403.36 202.4 403.04 203.92 402.24 205.04C401.44 206.16 400.4 206.72 399.12 206.72C397.76 206.72 396.72 206.16 396 205.04Z" fill="black"/>
<path fill-rule="evenodd" clip-rule="evenodd" d="M417.04 192H422.16V188.8H409.12V192H414.24V209.92H417.04" fill="black"/>
<path fill-rule="evenodd" clip-rule="evenodd" d="M437.04 188.8H425.28V209.92H437.36V206.56H428.08V200.88H436.16V197.76H428.08V192.16H437.04" fill="black"/>
<path fill-rule="evenodd" clip-rule="evenodd" d="M446.08 191.52C446.96 191.52 447.76 191.76 448.64 192.08C449.44 192.48 450.16 192.96 450.64 193.52L452.16 190.8C451.36 190 450.48 189.36 449.44 188.96C448.32 188.48 447.28 188.24 446.24 188.24C444.56 188.24 443.12 188.8 442 189.84C440.88 190.88 440.32 192.4 440.32 194.4C440.32 196.32 440.8 197.76 441.76 198.72C442.32 199.2 442.88 199.6 443.52 199.92C444.16 200.24 445.12 200.56 446.32 200.96C447.52 201.36 448.4 201.76 448.96 202.24C449.44 202.64 449.68 203.28 449.68 204.08C449.68 204.96 449.44 205.6 448.88 206.08C448.32 206.56 447.6 206.8 446.72 206.8C444.88 206.8 443.12 205.92 441.44 204L439.6 206.72C440.64 207.84 441.76 208.72 442.88 209.28C444.08 209.84 445.28 210.16 446.64 210.16C448.4 210.16 449.92 209.6 450.96 208.4C452.08 207.28 452.64 205.76 452.64 203.92C452.64 202.08 452.24 200.72 451.36 199.76C450.48 198.8 449.2 198.08 447.44 197.52C445.68 197.04 444.56 196.56 444.08 196.08C443.52 195.6 443.28 194.96 443.28 194.08C443.28 193.28 443.52 192.64 444.08 192.16C444.56 191.76 445.28 191.52 446.08 191.52Z" fill="black"/>
</svg>
