<svg width="511" height="474" viewBox="0 0 511 474" fill="none" xmlns="http://www.w3.org/2000/svg">
<path d="M406.4 283.76H311.44" stroke="black" stroke-width="4.71999" stroke-miterlimit="10" stroke-linejoin="round"/>
<path d="M406.4 323.76H323.68" stroke="black" stroke-width="12.32" stroke-miterlimit="10" stroke-linejoin="round"/>
<path fill-rule="evenodd" clip-rule="evenodd" d="M110.08 364.16V362.16L110.96 361.04L112.64 364.16H114.08L111.76 359.92L113.92 357.04H112.32L110.08 360.08V354.24H108.88V364.16" fill="black"/>
<path d="M115.034 364.168H116.234V357.048H115.034V364.168Z" fill="black"/>
<path fill-rule="evenodd" clip-rule="evenodd" d="M115.12 355.68C115.28 355.84 115.44 355.92 115.68 355.92C115.84 355.92 116.08 355.84 116.16 355.68C116.32 355.44 116.4 355.28 116.4 354.96C116.4 354.72 116.32 354.48 116.16 354.32C116.08 354.16 115.84 354.08 115.68 354.08C115.44 354.08 115.28 354.16 115.12 354.32C114.96 354.494 114.874 354.724 114.88 354.96C114.88 355.28 114.96 355.44 115.12 355.68Z" fill="black"/>
<path d="M117.994 364.168H119.114V354.248H117.994V364.168Z" fill="black"/>
<path fill-rule="evenodd" clip-rule="evenodd" d="M125.6 363.2C126.16 362.48 126.48 361.68 126.48 360.64C126.48 359.6 126.16 358.72 125.6 358C125.04 357.36 124.32 356.96 123.52 356.96C122.64 356.96 121.92 357.36 121.36 358C120.8 358.72 120.48 359.6 120.48 360.64C120.48 361.68 120.8 362.48 121.36 363.2C121.92 363.92 122.64 364.32 123.52 364.32C124.32 364.32 125.04 363.92 125.6 363.2ZM122.24 362.32C121.84 361.84 121.68 361.28 121.68 360.64C121.68 359.92 121.84 359.36 122.24 358.96C122.56 358.48 122.96 358.32 123.52 358.32C124 358.32 124.4 358.48 124.8 358.96C125.12 359.36 125.28 359.92 125.28 360.64C125.28 361.28 125.12 361.84 124.8 362.32C124.4 362.72 124 362.96 123.52 362.96C122.96 362.96 122.56 362.72 122.24 362.32Z" fill="black"/>
<path fill-rule="evenodd" clip-rule="evenodd" d="M129.04 360.32C129.04 359.68 129.12 359.2 129.44 358.8C129.76 358.48 130.16 358.32 130.56 358.32C130.96 358.32 131.28 358.48 131.44 358.8C131.6 359.12 131.76 359.6 131.76 360.24V364.16H132.96V360.24C132.96 359.6 133.12 359.12 133.36 358.8C133.68 358.48 134.08 358.32 134.48 358.32C135.28 358.32 135.76 358.96 135.76 360.24V364.16H136.96V359.84C136.96 358.88 136.72 358.16 136.32 357.68C135.92 357.2 135.44 356.96 134.8 356.96C134 356.96 133.28 357.44 132.72 358.32C132.4 357.44 131.76 356.96 130.88 356.96C130.48 356.96 130.16 357.12 129.76 357.36C129.44 357.6 129.2 357.92 129.04 358.4V357.04H127.84V364.16H129.04V360.32Z" fill="black"/>
<path fill-rule="evenodd" clip-rule="evenodd" d="M143.84 361.28V360.24C143.84 359.2 143.6 358.4 143.04 357.84C142.56 357.28 141.84 356.96 141.12 356.96C140.32 356.96 139.68 357.28 139.12 357.92C138.56 358.64 138.24 359.52 138.24 360.64C138.24 361.76 138.56 362.64 139.12 363.28C139.6 363.92 140.32 364.32 141.12 364.32C142.08 364.32 142.88 363.92 143.52 363.12L142.8 362.16C142.48 362.72 141.92 363.04 141.2 363.04C140.72 363.04 140.32 362.88 140 362.56C139.68 362.24 139.44 361.76 139.44 361.28H143.84ZM139.44 360.08C139.44 359.52 139.6 359.12 139.92 358.72C140.32 358.4 140.72 358.24 141.12 358.24C141.6 358.24 141.92 358.4 142.24 358.72C142.56 359.04 142.72 359.52 142.72 360.08H139.44Z" fill="black"/>
<path fill-rule="evenodd" clip-rule="evenodd" d="M146.64 358.24H148.16V357.04H146.64V354.88H145.44V357.04H144.72V358.24H145.44V361.84C145.44 362.56 145.6 363.2 146 363.6C146.32 364.08 146.8 364.32 147.28 364.32C147.84 364.32 148.24 364.08 148.72 363.6L148.16 362.56C147.92 362.8 147.68 362.96 147.44 362.96C147.2 362.96 147.04 362.88 146.88 362.72C146.72 362.48 146.64 362.24 146.64 361.92V358.24Z" fill="black"/>
<path fill-rule="evenodd" clip-rule="evenodd" d="M152.56 358.48H152.64V356.96C152.32 356.96 151.92 357.12 151.6 357.44C151.28 357.68 151.04 358.08 150.8 358.48V357.04H149.6V364.16H150.8V361.12C150.8 360.32 150.96 359.68 151.28 359.2C151.6 358.72 152 358.48 152.56 358.48Z" fill="black"/>
<path fill-rule="evenodd" clip-rule="evenodd" d="M159.12 361.28V360.24C159.12 359.2 158.88 358.4 158.32 357.84C157.76 357.28 157.12 356.96 156.32 356.96C155.6 356.96 154.88 357.28 154.32 357.92C153.76 358.64 153.52 359.52 153.52 360.64C153.52 361.76 153.76 362.64 154.32 363.28C154.88 363.92 155.52 364.32 156.32 364.32C157.36 364.32 158.16 363.92 158.72 363.12L158.08 362.16C157.68 362.72 157.12 363.04 156.4 363.04C156 363.04 155.6 362.88 155.28 362.56C154.88 362.24 154.72 361.76 154.72 361.28H159.12ZM154.72 360.08C154.72 359.52 154.88 359.12 155.2 358.72C155.52 358.4 155.92 358.24 156.4 358.24C156.8 358.24 157.2 358.4 157.52 358.72C157.76 359.04 157.92 359.52 157.92 360.08H154.72Z" fill="black"/>
<path fill-rule="evenodd" clip-rule="evenodd" d="M164.48 362.08C164.48 361.36 164.24 360.88 163.92 360.56C163.68 360.4 163.52 360.24 163.36 360.16C163.2 360.08 163.04 360 162.8 359.92C162.64 359.84 162.48 359.84 162.24 359.76C162 359.68 161.84 359.6 161.68 359.52C161.52 359.36 161.44 359.2 161.44 358.96C161.44 358.72 161.52 358.56 161.68 358.4C161.84 358.32 162.08 358.24 162.4 358.24C162.88 358.24 163.44 358.4 163.84 358.8L164.32 357.68C163.76 357.2 163.12 356.96 162.48 356.96C161.84 356.96 161.28 357.2 160.88 357.6C160.48 357.92 160.24 358.48 160.24 359.12C160.24 360.08 160.88 360.72 162 361.12C162.08 361.12 162.08 361.2 162.16 361.2C162.88 361.52 163.28 361.84 163.28 362.16C163.28 362.4 163.2 362.56 163.04 362.72C162.866 362.881 162.637 362.967 162.4 362.96C161.76 362.96 161.12 362.64 160.48 362.08L159.92 363.2C160.24 363.52 160.64 363.84 161.12 364C161.52 364.16 162 364.32 162.4 364.32C162.96 364.32 163.52 364.08 163.84 363.68C164.24 363.28 164.48 362.72 164.48 362.08Z" fill="black"/>
<path fill-rule="evenodd" clip-rule="evenodd" d="M172.16 354.24C172.48 354.8 173.04 355.12 173.68 355.12C174.4 355.12 174.88 354.8 175.2 354.24C175.52 353.6 175.68 352.8 175.68 351.84C175.68 350.88 175.52 350.08 175.2 349.52C174.88 348.88 174.4 348.64 173.68 348.64C173.04 348.64 172.48 348.88 172.16 349.52C171.84 350.08 171.68 350.88 171.68 351.84C171.68 352.8 171.84 353.6 172.16 354.24ZM172.8 350.16C172.96 349.76 173.28 349.52 173.68 349.52C174.08 349.52 174.4 349.68 174.64 350.16C174.8 350.56 174.88 351.12 174.88 351.84C174.88 352.56 174.8 353.12 174.64 353.52C174.4 354 174.08 354.16 173.68 354.16C173.28 354.16 172.96 354 172.8 353.52C172.56 353.12 172.48 352.56 172.48 351.84C172.48 351.12 172.56 350.56 172.8 350.16Z" fill="black"/>
<path fill-rule="evenodd" clip-rule="evenodd" d="M338.32 348.72V349.68H339.36V355.04H340.16V348.72" fill="black"/>
<path fill-rule="evenodd" clip-rule="evenodd" d="M347.2 348.24L344.56 355.12H345.12L347.76 348.24" fill="black"/>
<path fill-rule="evenodd" clip-rule="evenodd" d="M348 353.36L347.12 354.48V355.04H349.12V354.4H347.76L348.48 353.52C348.64 353.28 348.8 353.04 348.88 352.88C348.96 352.72 349.04 352.56 349.04 352.32C349.04 352 348.88 351.76 348.72 351.52C348.56 351.36 348.32 351.28 348.08 351.28C347.68 351.28 347.36 351.52 347.04 352L347.44 352.32C347.6 352 347.84 351.84 348.08 351.84C348.24 351.84 348.32 351.84 348.4 352C348.48 352.08 348.56 352.24 348.56 352.32C348.56 352.48 348.48 352.64 348.4 352.8C348.32 352.96 348.16 353.12 348 353.36Z" fill="black"/>
<path fill-rule="evenodd" clip-rule="evenodd" d="M343.04 348.72V349.28H343.6V352.4H344.08V348.72" fill="black"/>
<path fill-rule="evenodd" clip-rule="evenodd" d="M285.92 348.72V349.68H286.96V355.04H287.76V348.72" fill="black"/>
<path fill-rule="evenodd" clip-rule="evenodd" d="M231.52 348.24L228.88 355.12H229.36L232 348.24" fill="black"/>
<path fill-rule="evenodd" clip-rule="evenodd" d="M232.24 353.36L231.36 354.48V355.04H233.36V354.4H232.08L232.72 353.52C232.96 353.28 233.12 353.04 233.2 352.88C233.28 352.72 233.28 352.56 233.28 352.32C233.28 352 233.2 351.76 233.04 351.52C232.8 351.36 232.64 351.28 232.32 351.28C231.92 351.28 231.6 351.52 231.36 352L231.76 352.32C231.92 352 232.08 351.84 232.32 351.84C232.48 351.84 232.56 351.84 232.72 352C232.8 352.08 232.8 352.24 232.8 352.32C232.8 352.48 232.8 352.64 232.72 352.8C232.64 352.96 232.48 353.12 232.24 353.36Z" fill="black"/>
<path fill-rule="evenodd" clip-rule="evenodd" d="M227.36 348.72V349.28H227.92V352.4H228.4V348.72" fill="black"/>
<path fill-rule="evenodd" clip-rule="evenodd" d="M400.32 352.24L398.8 354.08V355.04H402.16V354H399.92L401.12 352.48C401.44 352.08 401.68 351.68 401.84 351.36C401.92 351.12 402 350.8 402 350.48C402 349.92 401.84 349.44 401.52 349.12C401.2 348.8 400.88 348.64 400.48 348.64C400.08 348.64 399.68 348.72 399.44 348.88C399.162 349.17 398.921 349.493 398.72 349.84L399.36 350.32C399.68 349.84 400 349.52 400.4 349.52C400.64 349.52 400.8 349.6 400.96 349.84C401.12 350 401.2 350.24 401.2 350.48C401.2 350.72 401.12 350.96 401.04 351.2C400.88 351.44 400.64 351.76 400.32 352.24Z" fill="black"/>
<path d="M343.52 362.4H173.44" stroke="black" stroke-width="2.79999" stroke-miterlimit="10" stroke-linejoin="round"/>
<path d="M173.44 364.16V358.16" stroke="black" stroke-width="2.79999" stroke-miterlimit="10" stroke-linejoin="round"/>
<path d="M230.16 364.16V358.16" stroke="black" stroke-width="2.79999" stroke-miterlimit="10" stroke-linejoin="round"/>
<path d="M286.88 364.16V358.16" stroke="black" stroke-width="2.79999" stroke-miterlimit="10" stroke-linejoin="round"/>
<path d="M343.52 364.16V358.16" stroke="black" stroke-width="2.79999" stroke-miterlimit="10" stroke-linejoin="round"/>
<path d="M230.16 364.16H173.44" stroke="black" stroke-width="3.75999" stroke-miterlimit="10" stroke-linejoin="round"/>
<path d="M286.88 364.16H230.16" stroke="black" stroke-width="3.75999" stroke-miterlimit="10" stroke-linejoin="round"/>
<path d="M343.52 364.16H286.88" stroke="black" stroke-width="3.75999" stroke-miterlimit="10" stroke-linejoin="round"/>
<path d="M400.24 362.4H343.52" stroke="black" stroke-width="2.79999" stroke-miterlimit="10" stroke-linejoin="round"/>
<path d="M400.24 364.16V358.16" stroke="black" stroke-width="2.79999" stroke-miterlimit="10" stroke-linejoin="round"/>
<path d="M400.24 364.16H343.52" stroke="black" stroke-width="3.75999" stroke-miterlimit="10" stroke-linejoin="round"/>
<path fill-rule="evenodd" clip-rule="evenodd" d="M115.76 170.16H124.16L125.84 174.96H128.88L121.44 153.84H118.4L111.04 174.96H114L115.76 170.16ZM122.96 166.88H116.88L119.92 158.16L122.96 166.88Z" fill="black"/>
<path fill-rule="evenodd" clip-rule="evenodd" d="M134.08 174.96V158.48L139.92 173.12H141.52L147.36 158.48V174.96H150.24V153.84H145.84L140.72 167.12L135.68 153.84H131.2V174.96" fill="black"/>
<path fill-rule="evenodd" clip-rule="evenodd" d="M160.72 153.84H154.88V174.96H157.76V168.8H160.72C163.2 168.8 165.04 168.16 166.24 167.04C167.44 165.84 168 163.92 168 161.36C168 158.8 167.44 156.96 166.24 155.68C165.12 154.48 163.2 153.84 160.72 153.84ZM161.04 165.52H157.76V157.12H160.64C162.16 157.12 163.28 157.36 164 158C164.72 158.64 165.12 159.6 165.12 161.12C165.12 162.56 164.8 163.68 164.24 164.4C163.68 165.2 162.64 165.52 161.04 165.52Z" fill="black"/>
<path fill-rule="evenodd" clip-rule="evenodd" d="M171.36 174.96H174.24V166.32H182.56V174.96H185.44V153.84H182.56V163.04H174.24V153.84H171.36" fill="black"/>
<path d="M190.073 174.968H192.954V153.848H190.073V174.968Z" fill="black"/>
<path fill-rule="evenodd" clip-rule="evenodd" d="M203.92 157.12H209.04V153.84H196V157.12H201.12V174.96H203.92" fill="black"/>
<path fill-rule="evenodd" clip-rule="evenodd" d="M225.6 160.72C225.6 158.32 225.04 156.56 223.92 155.52C222.8 154.4 220.96 153.84 218.4 153.84H212.16V174.96H214.96V167.92H218.72L222.72 174.96H226.4L221.92 167.28C224.4 166.4 225.6 164.24 225.6 160.72ZM218.56 164.64H214.96V157.12H218.64C220.16 157.12 221.2 157.36 221.76 157.84C222.4 158.4 222.64 159.36 222.64 160.72C222.64 162.08 222.4 163.12 221.84 163.68C221.2 164.32 220.16 164.64 218.56 164.64Z" fill="black"/>
<path fill-rule="evenodd" clip-rule="evenodd" d="M243.76 172.08C245.44 170 246.32 167.36 246.32 164.24C246.32 161.12 245.44 158.56 243.76 156.48C242.08 154.4 240 153.36 237.44 153.36C234.96 153.36 232.88 154.4 231.12 156.48C229.44 158.56 228.64 161.12 228.64 164.24C228.64 167.36 229.44 170 231.12 172.08C232.88 174.16 234.96 175.2 237.44 175.2C240 175.2 242.08 174.16 243.76 172.08ZM241.68 158.88C242.88 160.32 243.44 162.16 243.44 164.24C243.44 166.4 242.88 168.24 241.68 169.68C240.56 171.2 239.12 171.92 237.44 171.92C235.76 171.92 234.4 171.2 233.2 169.68C232.08 168.24 231.52 166.4 231.52 164.24C231.52 162.16 232.08 160.32 233.2 158.88C234.4 157.36 235.76 156.64 237.44 156.64C239.12 156.64 240.56 157.36 241.68 158.88Z" fill="black"/>
<path fill-rule="evenodd" clip-rule="evenodd" d="M255.04 156.64C255.84 156.64 256.64 156.8 257.52 157.2C258.4 157.52 259.04 158 259.52 158.56L261.04 155.92C260.32 155.04 259.36 154.48 258.32 154C257.28 153.6 256.16 153.36 255.12 153.36C253.44 153.36 252.08 153.84 250.88 154.96C249.76 156 249.2 157.52 249.2 159.44C249.2 161.44 249.68 162.88 250.72 163.84C251.2 164.32 251.76 164.72 252.4 165.04C253.04 165.36 254 165.68 255.2 166.08C256.48 166.4 257.36 166.88 257.84 167.28C258.32 167.76 258.64 168.4 258.64 169.2C258.64 170 258.32 170.64 257.84 171.2C257.28 171.68 256.56 171.92 255.6 171.92C253.76 171.92 252 170.96 250.32 169.12L248.56 171.84C249.6 172.96 250.64 173.84 251.84 174.4C252.96 174.96 254.24 175.2 255.52 175.2C257.36 175.2 258.8 174.64 259.92 173.52C261.04 172.32 261.6 170.88 261.6 169.04C261.6 167.2 261.12 165.76 260.24 164.8C259.36 163.92 258.08 163.12 256.32 162.64C254.64 162.08 253.52 161.6 252.96 161.12C252.48 160.72 252.16 160.08 252.16 159.2C252.16 158.32 252.48 157.68 252.96 157.28C253.52 156.88 254.16 156.64 255.04 156.64Z" fill="black"/>
<path fill-rule="evenodd" clip-rule="evenodd" d="M285.12 160.72C285.12 158.32 284.56 156.56 283.44 155.52C282.32 154.4 280.48 153.84 277.92 153.84H271.68V174.96H274.56V167.92H278.24L282.24 174.96H285.92L281.52 167.28C283.92 166.4 285.12 164.24 285.12 160.72ZM278.08 164.64H274.56V157.12H278.16C279.68 157.12 280.72 157.36 281.28 157.84C281.92 158.4 282.24 159.36 282.24 160.72C282.24 162.08 281.92 163.12 281.36 163.68C280.8 164.32 279.68 164.64 278.08 164.64Z" fill="black"/>
<path fill-rule="evenodd" clip-rule="evenodd" d="M291.6 170.16H300L301.68 174.96H304.72L297.36 153.84H294.32L286.88 174.96H289.92L291.6 170.16ZM298.88 166.88H292.72L295.84 158.16L298.88 166.88Z" fill="black"/>
<path d="M307.113 174.968H309.913V153.848H307.113V174.968Z" fill="black"/>
<path fill-rule="evenodd" clip-rule="evenodd" d="M314.64 174.96H325.12V171.6H317.44V153.84H314.64" fill="black"/>
<path fill-rule="evenodd" clip-rule="evenodd" d="M333.52 169.04L329.28 153.84H326.16L332.08 174.96H334.88L338.4 160.48H338.64L342.16 174.96H344.96L350.88 153.84H347.84L343.6 169.04L339.84 153.84H337.28" fill="black"/>
<path fill-rule="evenodd" clip-rule="evenodd" d="M355.84 170.16H364.32L366 174.96H369.04L361.6 153.84H358.56L351.12 174.96H354.16L355.84 170.16ZM363.12 166.88H357.04L360.08 158.16L363.12 166.88Z" fill="black"/>
<path fill-rule="evenodd" clip-rule="evenodd" d="M378 174.96V166.64L384.24 153.84H381.12L376.56 163.44L371.92 153.84H368.88L375.12 166.64V174.96" fill="black"/>
<path fill-rule="evenodd" clip-rule="evenodd" d="M391.52 156.64C392.32 156.64 393.12 156.8 394 157.2C394.88 157.52 395.52 158 396 158.56L397.52 155.92C396.8 155.04 395.84 154.48 394.8 154C393.76 153.6 392.64 153.36 391.6 153.36C389.92 153.36 388.56 153.84 387.36 154.96C386.24 156 385.68 157.52 385.68 159.44C385.68 161.44 386.16 162.88 387.2 163.84C387.68 164.32 388.24 164.72 388.88 165.04C389.52 165.36 390.48 165.68 391.68 166.08C392.96 166.4 393.84 166.88 394.32 167.28C394.8 167.76 395.12 168.4 395.12 169.2C395.12 170 394.8 170.64 394.32 171.2C393.76 171.68 393.04 171.92 392.08 171.92C390.24 171.92 388.48 170.96 386.8 169.12L385.04 171.84C386.08 172.96 387.12 173.84 388.32 174.4C389.44 174.96 390.72 175.2 392 175.2C393.84 175.2 395.28 174.64 396.4 173.52C397.52 172.32 398.08 170.88 398.08 169.04C398.08 167.2 397.6 165.76 396.72 164.8C395.84 163.92 394.56 163.12 392.8 162.64C391.12 162.08 390 161.6 389.44 161.12C388.96 160.72 388.64 160.08 388.64 159.2C388.64 158.32 388.96 157.68 389.44 157.28C390 156.88 390.64 156.64 391.52 156.64Z" fill="black"/>
<path fill-rule="evenodd" clip-rule="evenodd" d="M83.9201 188.8H78.1602V209.92H83.7601C86.9601 209.92 89.3601 208.96 90.9601 207.04C92.5601 205.12 93.3601 202.48 93.3601 199.2C93.3601 195.92 92.4801 193.36 90.8801 191.52C89.2801 189.68 86.9601 188.8 83.9201 188.8ZM90.4801 199.36C90.4801 201.68 89.9201 203.52 88.8001 204.72C87.7601 205.92 86.1601 206.56 84.1601 206.56H80.9601V192.08H83.8401C86.0801 192.08 87.6801 192.64 88.8001 193.92C89.9201 195.12 90.4801 196.88 90.4801 199.36Z" fill="black"/>
<path fill-rule="evenodd" clip-rule="evenodd" d="M108.8 188.8H96.9602V209.92H109.12V206.56H99.8402V200.88H107.92V197.76H99.8402V192.16H108.8" fill="black"/>
<path fill-rule="evenodd" clip-rule="evenodd" d="M125.36 188.8V204.56L115.6 188.8H112.72V209.92H115.6V194.48L125.12 209.92H128.24V188.8" fill="black"/>
<path fill-rule="evenodd" clip-rule="evenodd" d="M138 191.52C138.8 191.52 139.68 191.76 140.48 192.08C141.36 192.48 142 192.96 142.56 193.52L144.08 190.8C143.28 190 142.4 189.36 141.28 188.96C140.24 188.48 139.2 188.24 138.08 188.24C136.4 188.24 135.04 188.8 133.92 189.84C132.8 190.88 132.16 192.4 132.16 194.4C132.16 196.32 132.72 197.76 133.68 198.72C134.16 199.2 134.72 199.6 135.36 199.92C136 200.24 136.96 200.56 138.24 200.96C139.44 201.36 140.32 201.76 140.8 202.24C141.36 202.64 141.6 203.28 141.6 204.08C141.6 204.96 141.36 205.6 140.8 206.08C140.24 206.56 139.52 206.8 138.64 206.8C136.8 206.8 135.04 205.92 133.28 204L131.52 206.72C132.56 207.84 133.6 208.72 134.8 209.28C136 209.84 137.2 210.16 138.56 210.16C140.32 210.16 141.76 209.6 142.88 208.4C144 207.28 144.56 205.76 144.56 203.92C144.56 202.08 144.08 200.72 143.2 199.76C142.4 198.8 141.04 198.08 139.36 197.52C137.6 197.04 136.48 196.56 135.92 196.08C135.44 195.6 135.12 194.96 135.12 194.08C135.12 193.28 135.44 192.64 135.92 192.16C136.48 191.76 137.2 191.52 138 191.52Z" fill="black"/>
<path d="M148.074 209.928H150.874V188.808H148.074V209.928Z" fill="black"/>
<path fill-rule="evenodd" clip-rule="evenodd" d="M161.92 192H167.04V188.8H154V192H159.12V209.92H161.92" fill="black"/>
<path fill-rule="evenodd" clip-rule="evenodd" d="M176.72 209.92V201.52L183.04 188.8H179.92L175.28 198.4L170.72 188.8H167.6L173.84 201.52V209.92" fill="black"/>
<path fill-rule="evenodd" clip-rule="evenodd" d="M205.84 206.96C207.52 204.88 208.4 202.32 208.4 199.2C208.4 196.08 207.52 193.44 205.84 191.36C204.16 189.28 202 188.24 199.52 188.24C197.04 188.24 194.96 189.28 193.2 191.36C191.52 193.44 190.64 196.08 190.64 199.2C190.64 202.32 191.52 204.88 193.2 206.96C194.96 209.04 197.04 210.08 199.52 210.08C202 210.08 204.16 209.04 205.84 206.96ZM203.76 193.76C204.88 195.28 205.44 197.04 205.44 199.2C205.44 201.28 204.88 203.12 203.76 204.64C202.64 206.08 201.2 206.88 199.52 206.88C197.84 206.88 196.48 206.08 195.28 204.64C194.16 203.12 193.6 201.28 193.6 199.2C193.6 197.04 194.16 195.28 195.28 193.76C196.48 192.24 197.84 191.52 199.52 191.52C201.2 191.52 202.64 192.24 203.76 193.76Z" fill="black"/>
<path fill-rule="evenodd" clip-rule="evenodd" d="M214.8 192.08H223.2V188.8H212V209.92H214.8V201.2H222.32V197.92H214.8" fill="black"/>
<path fill-rule="evenodd" clip-rule="evenodd" d="M244.8 199.6V205.44C243.68 206.32 242.4 206.72 240.8 206.72C239.2 206.72 237.84 206.08 236.72 204.72C235.6 203.36 235.04 201.52 235.04 199.28C235.04 197.04 235.6 195.2 236.72 193.84C237.92 192.48 239.36 191.76 241.04 191.76C241.92 191.76 242.72 191.92 243.36 192.16C244 192.48 244.72 192.96 245.36 193.68L246.88 190.96C245.28 189.12 243.2 188.24 240.8 188.24C238.4 188.24 236.32 189.28 234.64 191.44C232.88 193.52 232.08 196.08 232.08 199.28C232.08 202.4 232.88 205.04 234.56 207.04C236.24 209.12 238.32 210.16 240.8 210.16C243.76 210.16 246 209.04 247.6 206.88V199.6H244.8Z" fill="black"/>
<path fill-rule="evenodd" clip-rule="evenodd" d="M265.44 206.96C267.12 204.88 268 202.32 268 199.2C268 196.08 267.12 193.44 265.44 191.36C263.76 189.28 261.68 188.24 259.12 188.24C256.64 188.24 254.56 189.28 252.8 191.36C251.12 193.44 250.32 196.08 250.32 199.2C250.32 202.32 251.12 204.88 252.8 206.96C254.56 209.04 256.64 210.08 259.12 210.08C261.68 210.08 263.76 209.04 265.44 206.96ZM263.36 193.76C264.56 195.28 265.12 197.04 265.12 199.2C265.12 201.28 264.56 203.12 263.36 204.64C262.24 206.08 260.8 206.88 259.12 206.88C257.44 206.88 256.08 206.08 254.88 204.64C253.76 203.12 253.2 201.28 253.2 199.2C253.2 197.04 253.76 195.28 254.88 193.76C256.08 192.24 257.44 191.52 259.12 191.52C260.8 191.52 262.24 192.24 263.36 193.76Z" fill="black"/>
<path fill-rule="evenodd" clip-rule="evenodd" d="M285.68 206.96C287.36 204.88 288.24 202.32 288.24 199.2C288.24 196.08 287.36 193.44 285.68 191.36C284 189.28 281.84 188.24 279.36 188.24C276.88 188.24 274.8 189.28 273.04 191.36C271.36 193.44 270.48 196.08 270.48 199.2C270.48 202.32 271.36 204.88 273.04 206.96C274.8 209.04 276.88 210.08 279.36 210.08C281.92 210.08 284 209.04 285.68 206.96ZM283.6 193.76C284.72 195.28 285.36 197.04 285.36 199.2C285.36 201.28 284.72 203.12 283.6 204.64C282.48 206.08 281.04 206.88 279.36 206.88C277.68 206.88 276.32 206.08 275.12 204.64C274 203.12 273.44 201.28 273.44 199.2C273.44 197.04 274 195.28 275.12 193.76C276.32 192.24 277.68 191.52 279.36 191.52C281.04 191.52 282.48 192.24 283.6 193.76Z" fill="black"/>
<path fill-rule="evenodd" clip-rule="evenodd" d="M297.6 188.8H291.84V209.92H297.44C300.64 209.92 303.04 208.96 304.64 207.04C306.24 205.12 307.04 202.48 307.04 199.2C307.04 195.92 306.16 193.36 304.56 191.52C302.96 189.68 300.64 188.8 297.6 188.8ZM304.16 199.36C304.16 201.68 303.6 203.52 302.48 204.72C301.44 205.92 299.84 206.56 297.84 206.56H294.64V192.08H297.52C299.68 192.08 301.36 192.64 302.48 193.92C303.6 195.12 304.16 196.88 304.16 199.36Z" fill="black"/>
<path fill-rule="evenodd" clip-rule="evenodd" d="M315.76 191.52C316.56 191.52 317.44 191.76 318.24 192.08C319.12 192.48 319.84 192.96 320.32 193.52L321.84 190.8C321.04 190 320.16 189.36 319.04 188.96C318 188.48 316.96 188.24 315.84 188.24C314.16 188.24 312.8 188.8 311.68 189.84C310.56 190.88 310 192.4 310 194.4C310 196.32 310.48 197.76 311.44 198.72C311.92 199.2 312.56 199.6 313.2 199.92C313.84 200.24 314.72 200.56 316 200.96C317.2 201.36 318.08 201.76 318.64 202.24C319.12 202.64 319.36 203.28 319.36 204.08C319.36 204.96 319.12 205.6 318.56 206.08C318 206.56 317.28 206.8 316.4 206.8C314.56 206.8 312.8 205.92 311.04 204L309.28 206.72C310.32 207.84 311.44 208.72 312.56 209.28C313.76 209.84 314.96 210.16 316.32 210.16C318.08 210.16 319.52 209.6 320.64 208.4C321.76 207.28 322.32 205.76 322.32 203.92C322.32 202.08 321.92 200.72 321.04 199.76C320.16 198.8 318.8 198.08 317.12 197.52C315.36 197.04 314.24 196.56 313.76 196.08C313.2 195.6 312.96 194.96 312.96 194.08C312.96 193.28 313.2 192.64 313.76 192.16C314.24 191.76 314.96 191.52 315.76 191.52Z" fill="black"/>
<path fill-rule="evenodd" clip-rule="evenodd" d="M338.8 192H343.92V188.8H330.8V192H335.92V209.92H338.8" fill="black"/>
<path fill-rule="evenodd" clip-rule="evenodd" d="M360.4 195.6C360.4 193.2 359.84 191.52 358.72 190.4C357.68 189.28 355.84 188.8 353.28 188.8H346.96V209.92H349.84V202.8H353.52L357.6 209.92H361.2L356.8 202.24C359.2 201.28 360.4 199.12 360.4 195.6ZM353.36 199.6H349.84V192H353.44C354.96 192 356 192.24 356.64 192.8C357.2 193.28 357.52 194.24 357.52 195.6C357.52 197.04 357.2 198 356.64 198.64C356.08 199.28 354.96 199.6 353.36 199.6Z" fill="black"/>
<path fill-rule="evenodd" clip-rule="evenodd" d="M366.88 205.12H375.36L377.04 209.92H380.08L372.64 188.8H369.6L362.16 209.92H365.2L366.88 205.12ZM374.16 201.84H368.08L371.12 193.12L374.16 201.84Z" fill="black"/>
<path fill-rule="evenodd" clip-rule="evenodd" d="M385.2 192.08H393.6V188.8H382.4V209.92H385.2V201.2H392.72V197.92H385.2" fill="black"/>
<path fill-rule="evenodd" clip-rule="evenodd" d="M399.76 192.08H408.16V188.8H396.96V209.92H399.76V201.2H407.28V197.92H399.76" fill="black"/>
<path d="M411.513 209.928H414.313V188.808H411.513V209.928Z" fill="black"/>
<path fill-rule="evenodd" clip-rule="evenodd" d="M426.72 206.64C425.12 206.64 423.76 205.92 422.64 204.48C421.44 203.04 420.88 201.28 420.88 199.12C420.88 196.96 421.44 195.2 422.64 193.84C423.76 192.48 425.2 191.76 426.88 191.76C427.84 191.76 428.72 191.92 429.44 192.32C430.16 192.72 430.88 193.36 431.68 194.4L433.52 191.92C432.64 190.64 431.68 189.76 430.56 189.2C429.44 188.56 428.24 188.24 426.96 188.24C424.4 188.24 422.24 189.28 420.48 191.44C418.8 193.52 417.92 196.08 417.92 199.28C417.92 202.4 418.8 205.04 420.48 207.04C422.16 209.12 424.24 210.16 426.8 210.16C429.36 210.16 431.52 208.88 433.28 206.4L431.44 204.08C430.64 204.96 429.92 205.6 429.2 206.08C428.48 206.48 427.68 206.64 426.72 206.64Z" fill="black"/>
<path fill-rule="evenodd" clip-rule="evenodd" d="M104.24 297.92V299.68H106.16V309.6H107.68V297.92" fill="black"/>
<path fill-rule="evenodd" clip-rule="evenodd" d="M109.84 308.56C109.84 309.04 110.08 309.44 110.4 309.68L109.92 311.36H110.72L111.52 309.76C111.76 309.28 111.84 308.88 111.84 308.48C111.84 308.16 111.76 307.92 111.6 307.68C111.36 307.36 111.12 307.28 110.88 307.28C110.56 307.28 110.4 307.36 110.16 307.68C110 307.92 109.84 308.16 109.84 308.56Z" fill="black"/>
<path fill-rule="evenodd" clip-rule="evenodd" d="M114.48 308.08C115.12 309.2 116.08 309.76 117.36 309.76C118.64 309.76 119.6 309.2 120.24 308.08C120.88 307.04 121.2 305.52 121.2 303.68C121.2 301.84 120.88 300.32 120.24 299.28C119.6 298.16 118.64 297.6 117.36 297.6C116.08 297.6 115.12 298.16 114.48 299.28C113.84 300.32 113.52 301.84 113.52 303.68C113.52 305.52 113.84 307.04 114.48 308.08ZM115.6 300.48C116 299.68 116.56 299.28 117.36 299.28C118.16 299.28 118.72 299.68 119.12 300.48C119.44 301.28 119.6 302.32 119.6 303.68C119.6 305.04 119.44 306.08 119.12 306.88C118.72 307.68 118.16 308.08 117.36 308.08C116.56 308.08 116 307.68 115.6 306.88C115.28 306.08 115.04 304.96 115.04 303.68C115.04 302.4 115.28 301.28 115.6 300.48Z" fill="black"/>
<path fill-rule="evenodd" clip-rule="evenodd" d="M123.68 308.08C124.32 309.2 125.28 309.76 126.56 309.76C127.84 309.76 128.8 309.2 129.44 308.08C130.08 307.04 130.4 305.52 130.4 303.68C130.4 301.84 130.08 300.32 129.44 299.28C128.8 298.16 127.84 297.6 126.56 297.6C125.28 297.6 124.32 298.16 123.68 299.28C123.04 300.32 122.8 301.84 122.8 303.68C122.8 305.52 123.04 307.04 123.68 308.08ZM124.88 300.48C125.2 299.68 125.76 299.28 126.56 299.28C127.36 299.28 127.92 299.68 128.32 300.48C128.64 301.28 128.88 302.4 128.88 303.68C128.88 305.04 128.64 306.08 128.32 306.88C127.92 307.68 127.36 308.08 126.56 308.08C125.76 308.08 125.2 307.68 124.88 306.88C124.48 306.08 124.32 304.96 124.32 303.68C124.32 302.4 124.48 301.28 124.88 300.48Z" fill="black"/>
<path fill-rule="evenodd" clip-rule="evenodd" d="M132.96 308.08C133.6 309.2 134.48 309.76 135.76 309.76C137.04 309.76 138 309.2 138.64 308.08C139.28 307.04 139.6 305.52 139.6 303.68C139.6 301.84 139.28 300.32 138.64 299.28C138 298.16 137.04 297.6 135.76 297.6C134.48 297.6 133.6 298.16 132.96 299.28C132.32 300.32 132 301.84 132 303.68C132 305.52 132.32 307.04 132.96 308.08ZM134.08 300.48C134.4 299.68 135.04 299.28 135.76 299.28C136.56 299.28 137.12 299.68 137.52 300.48C137.84 301.28 138.08 302.4 138.08 303.68C138.08 305.04 137.84 306.08 137.52 306.88C137.12 307.68 136.56 308.08 135.76 308.08C135.04 308.08 134.4 307.68 134.08 306.88C133.68 306.08 133.52 304.96 133.52 303.68C133.52 302.4 133.68 301.28 134.08 300.48Z" fill="black"/>
<path fill-rule="evenodd" clip-rule="evenodd" d="M147.04 302.24H148.88V300.72H147.04V297.92H145.52V300.72H144.64V302.24H145.52V306.72C145.52 307.6 145.76 308.4 146.16 308.96C146.64 309.52 147.2 309.76 147.84 309.76C148.48 309.76 149.04 309.44 149.6 308.88L148.96 307.52C148.64 307.92 148.32 308.16 148 308.16C147.856 308.161 147.714 308.125 147.588 308.055C147.462 307.985 147.356 307.883 147.28 307.76C147.12 307.52 147.04 307.2 147.04 306.72V302.24Z" fill="black"/>
<path fill-rule="evenodd" clip-rule="evenodd" d="M156.72 308.4C157.44 307.52 157.76 306.48 157.76 305.2C157.76 303.84 157.44 302.8 156.72 301.92C156 301.04 155.12 300.56 154 300.56C152.96 300.56 152.08 301.04 151.36 301.92C150.64 302.8 150.32 303.84 150.32 305.2C150.32 306.48 150.64 307.52 151.36 308.4C152.08 309.36 152.96 309.76 154 309.76C155.12 309.76 156 309.36 156.72 308.4ZM152.4 307.28C152 306.72 151.76 306 151.76 305.2C151.76 304.32 152 303.6 152.4 303.04C152.88 302.48 153.36 302.24 154 302.24C154.72 302.24 155.2 302.48 155.68 303.04C156.08 303.6 156.32 304.32 156.32 305.2C156.32 306 156.08 306.72 155.68 307.28C155.2 307.84 154.72 308.08 154 308.08C153.36 308.08 152.88 307.84 152.4 307.28Z" fill="black"/>
<path fill-rule="evenodd" clip-rule="evenodd" d="M165.68 304.4L162.88 307.92V309.6H169.28V307.76H164.96L167.2 304.96C167.84 304.08 168.32 303.36 168.56 302.8C168.8 302.24 168.96 301.68 168.96 301.04C168.96 300 168.64 299.12 168.08 298.56C167.44 297.92 166.8 297.6 166 297.6C165.2 297.6 164.56 297.76 164.08 298.16C163.6 298.56 163.12 299.2 162.72 299.92L164 300.88C164.48 299.84 165.12 299.36 165.92 299.36C166.32 299.36 166.72 299.52 167.04 299.84C167.28 300.24 167.44 300.64 167.44 301.04C167.44 301.52 167.28 302 167.04 302.48C166.8 302.96 166.32 303.6 165.68 304.4Z" fill="black"/>
<path fill-rule="evenodd" clip-rule="evenodd" d="M170.88 308.56C170.88 309.04 171.04 309.44 171.36 309.68L170.88 311.36H171.68L172.48 309.76C172.72 309.28 172.8 308.88 172.8 308.48C172.8 308.16 172.72 307.92 172.56 307.68C172.32 307.36 172.08 307.28 171.84 307.28C171.6 307.28 171.36 307.36 171.12 307.68C170.96 307.92 170.88 308.16 170.88 308.56Z" fill="black"/>
<path fill-rule="evenodd" clip-rule="evenodd" d="M175.44 308.08C176.08 309.2 177.04 309.76 178.32 309.76C179.6 309.76 180.56 309.2 181.2 308.08C181.84 307.04 182.16 305.52 182.16 303.68C182.16 301.84 181.84 300.32 181.2 299.28C180.56 298.16 179.6 297.6 178.32 297.6C177.04 297.6 176.08 298.16 175.44 299.28C174.8 300.32 174.48 301.84 174.48 303.68C174.48 305.52 174.8 307.04 175.44 308.08ZM176.56 300.48C176.96 299.68 177.52 299.28 178.32 299.28C179.12 299.28 179.68 299.68 180.08 300.48C180.4 301.28 180.56 302.32 180.56 303.68C180.56 305.04 180.4 306.08 180.08 306.88C179.68 307.68 179.12 308.08 178.32 308.08C177.52 308.08 176.96 307.68 176.56 306.88C176.24 306.08 176 304.96 176 303.68C176 302.4 176.24 301.28 176.56 300.48Z" fill="black"/>
<path fill-rule="evenodd" clip-rule="evenodd" d="M184.64 308.08C185.28 309.2 186.24 309.76 187.52 309.76C188.8 309.76 189.76 309.2 190.4 308.08C191.04 307.04 191.36 305.52 191.36 303.68C191.36 301.84 191.04 300.32 190.4 299.28C189.76 298.16 188.8 297.6 187.52 297.6C186.24 297.6 185.28 298.16 184.64 299.28C184.08 300.32 183.76 301.84 183.76 303.68C183.76 305.52 184.08 307.04 184.64 308.08ZM185.84 300.48C186.16 299.68 186.72 299.28 187.52 299.28C188.32 299.28 188.88 299.68 189.28 300.48C189.6 301.28 189.84 302.4 189.84 303.68C189.84 305.04 189.6 306.08 189.28 306.88C188.88 307.68 188.32 308.08 187.52 308.08C186.72 308.08 186.16 307.68 185.84 306.88C185.44 306.08 185.28 304.96 185.28 303.68C185.28 302.4 185.44 301.28 185.84 300.48Z" fill="black"/>
<path fill-rule="evenodd" clip-rule="evenodd" d="M193.92 308.08C194.56 309.2 195.52 309.76 196.72 309.76C198 309.76 198.96 309.2 199.6 308.08C200.24 307.04 200.56 305.52 200.56 303.68C200.56 301.84 200.24 300.32 199.6 299.28C198.96 298.16 198 297.6 196.72 297.6C195.52 297.6 194.56 298.16 193.92 299.28C193.28 300.32 192.96 301.84 192.96 303.68C192.96 305.52 193.28 307.04 193.92 308.08ZM195.04 300.48C195.36 299.68 196 299.28 196.72 299.28C197.52 299.28 198.08 299.68 198.48 300.48C198.88 301.28 199.04 302.4 199.04 303.68C199.04 305.04 198.88 306.08 198.48 306.88C198.08 307.68 197.52 308.08 196.72 308.08C196 308.08 195.36 307.68 195.04 306.88C194.64 306.08 194.48 304.96 194.48 303.68C194.48 302.4 194.64 301.28 195.04 300.48Z" fill="black"/>
<path fill-rule="evenodd" clip-rule="evenodd" d="M208 302.24H209.84V300.72H208V297.92H206.48V300.72H205.6V302.24H206.48V306.72C206.48 307.6 206.72 308.4 207.12 308.96C207.6 309.52 208.16 309.76 208.8 309.76C209.44 309.76 210 309.44 210.56 308.88L209.92 307.52C209.6 307.92 209.28 308.16 208.96 308.16C208.816 308.161 208.674 308.125 208.548 308.055C208.422 307.985 208.316 307.883 208.24 307.76C208.08 307.52 208 307.2 208 306.72V302.24Z" fill="black"/>
<path fill-rule="evenodd" clip-rule="evenodd" d="M217.68 308.4C218.4 307.52 218.72 306.48 218.72 305.2C218.72 303.84 218.4 302.8 217.68 301.92C216.96 301.04 216.08 300.56 214.96 300.56C213.92 300.56 213.04 301.04 212.32 301.92C211.6 302.8 211.28 303.84 211.28 305.2C211.28 306.48 211.6 307.52 212.32 308.4C213.04 309.36 213.92 309.76 214.96 309.76C216.08 309.76 216.96 309.36 217.68 308.4ZM213.36 307.28C212.96 306.72 212.72 306 212.72 305.2C212.72 304.32 212.96 303.6 213.36 303.04C213.84 302.48 214.32 302.24 214.96 302.24C215.68 302.24 216.16 302.48 216.64 303.04C217.04 303.6 217.28 304.32 217.28 305.2C217.28 306 217.04 306.72 216.64 307.28C216.16 307.84 215.68 308.08 214.96 308.08C214.32 308.08 213.84 307.84 213.36 307.28Z" fill="black"/>
<path fill-rule="evenodd" clip-rule="evenodd" d="M221.92 304.8C221.92 304.4 222 304 222.08 303.68C222.16 303.36 222.32 303.12 222.56 302.88C222.88 302.48 223.36 302.24 223.84 302.24C224.96 302.24 225.52 303.04 225.52 304.72V309.6H227.04V304.16C227.04 302.96 226.72 302.08 226.24 301.44C225.76 300.88 225.12 300.56 224.32 300.56C223.84 300.56 223.36 300.72 222.96 301.04C222.48 301.36 222.16 301.76 221.92 302.32V300.72H220.48V309.6H221.92V304.8Z" fill="black"/>
<path fill-rule="evenodd" clip-rule="evenodd" d="M230.56 304.8C230.56 304.4 230.64 304 230.72 303.68C230.8 303.36 230.96 303.12 231.2 302.88C231.52 302.48 232 302.24 232.56 302.24C233.6 302.24 234.16 303.04 234.16 304.72V309.6H235.68V304.16C235.68 302.96 235.44 302.08 234.88 301.44C234.4 300.88 233.76 300.56 232.96 300.56C232.48 300.56 232 300.72 231.6 301.04C231.2 301.36 230.8 301.76 230.56 302.32V300.72H229.12V309.6H230.56V304.8Z" fill="black"/>
<path fill-rule="evenodd" clip-rule="evenodd" d="M244.4 306V304.72C244.4 303.44 244 302.4 243.36 301.68C242.64 300.96 241.84 300.56 240.88 300.56C239.92 300.56 239.04 300.96 238.4 301.76C237.68 302.64 237.28 303.76 237.28 305.12C237.28 306.56 237.6 307.68 238.32 308.48C239.04 309.36 239.92 309.76 240.88 309.76C242.16 309.76 243.12 309.28 243.92 308.24L243.04 307.12C242.56 307.76 241.92 308.16 240.96 308.16C240.4 308.16 239.92 307.92 239.52 307.52C239.04 307.12 238.8 306.64 238.8 306H244.4ZM238.8 304.48C238.8 303.76 239.04 303.2 239.44 302.8C239.92 302.4 240.4 302.16 240.96 302.16C241.44 302.16 241.92 302.4 242.32 302.8C242.72 303.2 242.88 303.76 242.88 304.48H238.8Z" fill="black"/>
<path fill-rule="evenodd" clip-rule="evenodd" d="M251.12 306.96C251.12 306.08 250.88 305.44 250.4 305.04C250.16 304.88 249.92 304.72 249.68 304.64C249.52 304.48 249.28 304.4 249.04 304.32C248.8 304.24 248.56 304.16 248.24 304C248 303.92 247.76 303.84 247.6 303.76C247.36 303.6 247.28 303.44 247.28 303.12C247.28 302.8 247.36 302.56 247.6 302.4C247.84 302.24 248.08 302.16 248.48 302.16C249.12 302.16 249.76 302.4 250.32 302.88L250.88 301.44C250.16 300.88 249.36 300.56 248.56 300.56C247.76 300.56 247.12 300.8 246.56 301.28C246.08 301.84 245.84 302.48 245.84 303.28C245.84 304.48 246.56 305.28 248 305.84C248.08 305.84 248.08 305.84 248.16 305.92C249.12 306.24 249.6 306.64 249.6 307.12C249.6 307.36 249.52 307.68 249.28 307.84C249.176 307.946 249.052 308.03 248.914 308.085C248.776 308.14 248.628 308.166 248.48 308.16C247.76 308.16 246.96 307.76 246.08 306.96L245.36 308.4C245.84 308.88 246.32 309.2 246.88 309.44C247.44 309.68 247.92 309.76 248.48 309.76C249.2 309.76 249.84 309.52 250.32 309.04C250.88 308.48 251.12 307.84 251.12 306.96Z" fill="black"/>
<path fill-rule="evenodd" clip-rule="evenodd" d="M260.32 300.56C259.36 300.56 258.56 301.12 258 302.24V300.72H256.48V312.88H258V308.32C258.64 309.28 259.52 309.76 260.4 309.76C261.28 309.76 262.08 309.36 262.72 308.48C263.44 307.6 263.76 306.48 263.76 305.12C263.76 303.76 263.44 302.64 262.72 301.76C262.08 300.96 261.2 300.56 260.32 300.56ZM257.92 305.2C257.92 304.32 258.16 303.6 258.56 303.04C258.96 302.48 259.44 302.24 260.08 302.24C260.64 302.24 261.2 302.48 261.6 303.04C262 303.6 262.24 304.32 262.24 305.2C262.24 306.08 262 306.72 261.6 307.28C261.12 307.84 260.64 308.08 260.08 308.08C259.44 308.08 258.96 307.84 258.56 307.28C258.16 306.72 257.92 306 257.92 305.2Z" fill="black"/>
<path fill-rule="evenodd" clip-rule="evenodd" d="M272.08 306V304.72C272.08 303.44 271.76 302.4 271.04 301.68C270.4 300.96 269.6 300.56 268.64 300.56C267.6 300.56 266.8 300.96 266.08 301.76C265.36 302.64 265.04 303.76 265.04 305.12C265.04 306.56 265.36 307.68 266.08 308.48C266.8 309.36 267.6 309.76 268.64 309.76C269.84 309.76 270.88 309.28 271.6 308.24L270.72 307.12C270.32 307.76 269.6 308.16 268.72 308.16C268.16 308.16 267.68 307.92 267.2 307.52C266.8 307.12 266.56 306.64 266.48 306H272.08ZM266.48 304.48C266.48 303.76 266.72 303.2 267.2 302.8C267.6 302.4 268.08 302.16 268.64 302.16C269.2 302.16 269.68 302.4 270 302.8C270.4 303.2 270.56 303.76 270.56 304.48H266.48Z" fill="black"/>
<path fill-rule="evenodd" clip-rule="evenodd" d="M277.44 302.48H277.52V300.56C277.04 300.56 276.64 300.72 276.24 301.12C275.84 301.44 275.52 301.92 275.2 302.48V300.72H273.76V309.6H275.2V305.76C275.2 304.8 275.44 304 275.84 303.36C276.16 302.72 276.72 302.48 277.44 302.48Z" fill="black"/>
<path fill-rule="evenodd" clip-rule="evenodd" d="M285.6 309.76C286.72 309.76 287.52 309.28 288.08 308.32V309.6H289.52V297.2H288.08V302.08C287.44 301.04 286.72 300.56 285.76 300.56C284.8 300.56 284 300.96 283.28 301.76C282.64 302.64 282.24 303.76 282.24 305.12C282.24 306.48 282.64 307.6 283.28 308.48C283.92 309.36 284.72 309.76 285.6 309.76ZM283.76 305.2C283.76 304.32 284 303.6 284.4 303.04C284.88 302.48 285.36 302.24 285.92 302.24C286.56 302.24 287.04 302.48 287.44 303.04C287.84 303.6 288.08 304.32 288.08 305.2C288.08 306.08 287.84 306.72 287.44 307.28C287.04 307.84 286.56 308.08 286 308.08C285.36 308.08 284.88 307.84 284.4 307.28C284 306.72 283.76 306.08 283.76 305.2Z" fill="black"/>
<path fill-rule="evenodd" clip-rule="evenodd" d="M297.52 309.6V303.84C297.52 302.72 297.2 301.92 296.72 301.36C296.16 300.8 295.52 300.56 294.64 300.56C293.52 300.56 292.56 300.96 291.68 301.84L292.4 303.04C293.12 302.4 293.76 302.08 294.4 302.08C295.52 302.08 296 302.72 296 303.92V304.24H294.08C293.2 304.24 292.48 304.48 292 304.88C291.44 305.36 291.2 306 291.2 306.88C291.2 307.76 291.44 308.48 291.92 308.96C292.4 309.52 293.04 309.76 293.76 309.76C294.72 309.76 295.52 309.36 296.16 308.4V309.6H297.52ZM296 306.32C296 306.88 295.84 307.36 295.44 307.68C295.12 308 294.72 308.16 294.24 308.16C293.76 308.16 293.36 308.08 293.12 307.84C292.8 307.6 292.72 307.28 292.72 306.8C292.72 306.4 292.8 306.08 293.12 305.84C293.36 305.68 293.76 305.52 294.32 305.52H296V306.32Z" fill="black"/>
<path fill-rule="evenodd" clip-rule="evenodd" d="M300.48 313.2C300.96 313.2 301.36 313.04 301.76 312.72C302.16 312.32 302.4 311.92 302.64 311.28L306.08 300.72H304.48L302.32 307.28L300.24 300.72H298.64C300.56 306.64 301.52 309.76 301.52 309.92C301.52 310.24 301.36 310.56 301.2 310.88C300.96 311.2 300.72 311.36 300.4 311.36C300 311.36 299.68 311.12 299.36 310.8L298.72 312.32C299.28 312.88 299.84 313.2 300.48 313.2Z" fill="black"/>
<path fill-rule="evenodd" clip-rule="evenodd" d="M110.4 277.84H105.04V283.44L105.68 284.4C106.24 284 106.8 283.84 107.36 283.84C108 283.84 108.48 284 108.88 284.32C109.28 284.72 109.44 285.2 109.44 285.84C109.44 286.48 109.28 286.96 108.88 287.36C108.48 287.68 108.08 287.84 107.68 287.84C107.2 287.84 106.8 287.76 106.4 287.52C106.08 287.28 105.84 287.12 105.68 287.04C105.6 286.88 105.44 286.8 105.44 286.72L104.56 288.16C105.28 289.2 106.32 289.76 107.6 289.76C108.56 289.76 109.36 289.36 110 288.64C110.64 287.84 111.04 286.96 111.04 285.76C111.04 284.64 110.72 283.76 110.08 283.12C109.44 282.48 108.64 282.08 107.76 282.08C107.28 282.08 106.88 282.24 106.48 282.48V279.6H110.4V277.84Z" fill="black"/>
<path fill-rule="evenodd" clip-rule="evenodd" d="M113.36 288.08C114 289.2 114.96 289.76 116.24 289.76C117.52 289.76 118.48 289.2 119.12 288.08C119.76 286.96 120.08 285.52 120.08 283.68C120.08 281.76 119.76 280.32 119.12 279.2C118.48 278.08 117.52 277.6 116.24 277.6C114.96 277.6 114 278.08 113.36 279.2C112.72 280.32 112.4 281.76 112.4 283.68C112.4 285.52 112.72 286.96 113.36 288.08ZM114.56 280.48C114.88 279.68 115.44 279.28 116.24 279.28C117.04 279.28 117.6 279.68 118 280.48C118.32 281.28 118.48 282.32 118.48 283.68C118.48 284.96 118.32 286 118 286.8C117.6 287.6 117.04 288 116.24 288C115.44 288 114.88 287.6 114.56 286.8C114.16 286 114 284.96 114 283.68C114 282.32 114.16 281.28 114.56 280.48Z" fill="black"/>
<path fill-rule="evenodd" clip-rule="evenodd" d="M122.64 288.08C123.2 289.2 124.16 289.76 125.44 289.76C126.72 289.76 127.68 289.2 128.32 288.08C128.96 286.96 129.28 285.52 129.28 283.68C129.28 281.76 128.96 280.32 128.32 279.2C127.68 278.08 126.72 277.6 125.44 277.6C124.16 277.6 123.2 278.08 122.64 279.2C122 280.32 121.68 281.76 121.68 283.68C121.68 285.52 122 286.96 122.64 288.08ZM123.76 280.48C124.08 279.68 124.72 279.28 125.44 279.28C126.24 279.28 126.8 279.68 127.2 280.48C127.52 281.28 127.76 282.32 127.76 283.68C127.76 284.96 127.52 286 127.2 286.8C126.8 287.6 126.24 288 125.44 288C124.72 288 124.08 287.6 123.76 286.8C123.36 286 123.2 284.96 123.2 283.68C123.2 282.32 123.36 281.28 123.76 280.48Z" fill="black"/>
<path fill-rule="evenodd" clip-rule="evenodd" d="M136.64 282.16H138.56V280.64H136.64V277.84H135.2V280.64H134.32V282.16H135.2V286.64C135.2 287.6 135.44 288.32 135.84 288.88C136.32 289.44 136.88 289.76 137.52 289.76C138.16 289.76 138.72 289.44 139.2 288.8L138.64 287.52C138.32 287.92 138 288.08 137.68 288.08C137.36 288.08 137.12 288 136.96 287.76C136.8 287.44 136.64 287.12 136.64 286.72V282.16Z" fill="black"/>
<path fill-rule="evenodd" clip-rule="evenodd" d="M146.4 288.4C147.12 287.52 147.44 286.4 147.44 285.12C147.44 283.84 147.12 282.72 146.4 281.84C145.68 280.96 144.8 280.48 143.68 280.48C142.64 280.48 141.76 280.96 141.04 281.84C140.32 282.72 139.92 283.84 139.92 285.12C139.92 286.4 140.32 287.52 141.04 288.4C141.76 289.28 142.64 289.76 143.68 289.76C144.8 289.76 145.68 289.28 146.4 288.4ZM142.08 287.2C141.68 286.72 141.44 286 141.44 285.12C141.44 284.24 141.68 283.52 142.08 283.04C142.48 282.48 143.04 282.16 143.68 282.16C144.4 282.16 144.88 282.48 145.36 283.04C145.76 283.52 145.92 284.24 145.92 285.12C145.92 286 145.76 286.72 145.36 287.2C144.88 287.76 144.4 288.08 143.68 288.08C143.04 288.08 142.48 287.76 142.08 287.2Z" fill="black"/>
<path fill-rule="evenodd" clip-rule="evenodd" d="M152.16 277.84V279.6H154V289.6H155.52V277.84" fill="black"/>
<path fill-rule="evenodd" clip-rule="evenodd" d="M157.76 288.48C157.76 289.04 157.92 289.36 158.24 289.6L157.76 291.36H158.56L159.36 289.68C159.6 289.2 159.76 288.8 159.76 288.48C159.76 288.16 159.6 287.84 159.44 287.6C159.2 287.36 158.96 287.28 158.72 287.28C158.48 287.28 158.24 287.36 158 287.6C157.837 287.864 157.754 288.17 157.76 288.48Z" fill="black"/>
<path fill-rule="evenodd" clip-rule="evenodd" d="M162.32 288.08C162.96 289.2 163.92 289.76 165.2 289.76C166.48 289.76 167.44 289.2 168.08 288.08C168.72 286.96 169.04 285.52 169.04 283.68C169.04 281.76 168.72 280.32 168.08 279.2C167.44 278.08 166.48 277.6 165.2 277.6C163.92 277.6 162.96 278.08 162.32 279.2C161.68 280.32 161.36 281.76 161.36 283.68C161.36 285.52 161.68 286.96 162.32 288.08ZM163.44 280.48C163.84 279.68 164.4 279.28 165.2 279.28C166 279.28 166.56 279.68 166.96 280.48C167.28 281.28 167.44 282.32 167.44 283.68C167.44 284.96 167.28 286 166.96 286.8C166.56 287.6 166 288 165.2 288C164.4 288 163.84 287.6 163.44 286.8C163.12 286 162.96 284.96 162.96 283.68C162.96 282.32 163.12 281.28 163.44 280.48Z" fill="black"/>
<path fill-rule="evenodd" clip-rule="evenodd" d="M171.6 288.08C172.16 289.2 173.12 289.76 174.4 289.76C175.68 289.76 176.64 289.2 177.28 288.08C177.92 286.96 178.24 285.52 178.24 283.68C178.24 281.76 177.92 280.32 177.28 279.2C176.64 278.08 175.68 277.6 174.4 277.6C173.12 277.6 172.16 278.08 171.6 279.2C170.96 280.32 170.64 281.76 170.64 283.68C170.64 285.52 170.96 286.96 171.6 288.08ZM172.72 280.48C173.04 279.68 173.68 279.28 174.4 279.28C175.2 279.28 175.76 279.68 176.16 280.48C176.48 281.28 176.72 282.32 176.72 283.68C176.72 284.96 176.48 286 176.16 286.8C175.76 287.6 175.2 288 174.4 288C173.68 288 173.04 287.6 172.72 286.8C172.32 286 172.16 284.96 172.16 283.68C172.16 282.32 172.32 281.28 172.72 280.48Z" fill="black"/>
<path fill-rule="evenodd" clip-rule="evenodd" d="M180.8 288.08C181.44 289.2 182.4 289.76 183.68 289.76C184.96 289.76 185.84 289.2 186.48 288.08C187.12 286.96 187.44 285.52 187.44 283.68C187.44 281.76 187.12 280.32 186.48 279.2C185.84 278.08 184.96 277.6 183.68 277.6C182.4 277.6 181.44 278.08 180.8 279.2C180.16 280.32 179.84 281.76 179.84 283.68C179.84 285.52 180.16 286.96 180.8 288.08ZM181.92 280.48C182.24 279.68 182.88 279.28 183.68 279.28C184.4 279.28 185.04 279.68 185.36 280.48C185.76 281.28 185.92 282.32 185.92 283.68C185.92 284.96 185.76 286 185.36 286.8C185.04 287.6 184.4 288 183.68 288C182.88 288 182.24 287.6 181.92 286.8C181.52 286 181.36 284.96 181.36 283.68C181.36 282.32 181.52 281.28 181.92 280.48Z" fill="black"/>
<path fill-rule="evenodd" clip-rule="evenodd" d="M194.88 282.16H196.72V280.64H194.88V277.84H193.36V280.64H192.48V282.16H193.36V286.64C193.36 287.6 193.6 288.32 194 288.88C194.48 289.44 195.04 289.76 195.68 289.76C196.32 289.76 196.88 289.44 197.44 288.8L196.8 287.52C196.48 287.92 196.16 288.08 195.84 288.08C195.52 288.08 195.28 288 195.12 287.76C194.96 287.44 194.88 287.12 194.88 286.72V282.16Z" fill="black"/>
<path fill-rule="evenodd" clip-rule="evenodd" d="M204.56 288.4C205.28 287.52 205.6 286.4 205.6 285.12C205.6 283.84 205.28 282.72 204.56 281.84C203.84 280.96 202.96 280.48 201.92 280.48C200.8 280.48 199.92 280.96 199.2 281.84C198.48 282.72 198.16 283.84 198.16 285.12C198.16 286.4 198.48 287.52 199.2 288.4C199.92 289.28 200.8 289.76 201.92 289.76C202.96 289.76 203.84 289.28 204.56 288.4ZM200.24 287.2C199.84 286.72 199.6 286 199.6 285.12C199.6 284.24 199.84 283.52 200.24 283.04C200.72 282.48 201.2 282.16 201.92 282.16C202.56 282.16 203.04 282.48 203.52 283.04C203.92 283.52 204.16 284.24 204.16 285.12C204.16 286 203.92 286.72 203.52 287.2C203.04 287.76 202.56 288.08 201.92 288.08C201.2 288.08 200.72 287.76 200.24 287.2Z" fill="black"/>
<path fill-rule="evenodd" clip-rule="evenodd" d="M208.8 284.72C208.8 284.32 208.88 284 208.96 283.68C209.04 283.36 209.2 283.04 209.44 282.88C209.76 282.4 210.24 282.24 210.72 282.24C211.84 282.24 212.4 283.04 212.4 284.72V289.6H213.92V284.08C213.92 282.96 213.68 282.08 213.12 281.44C212.64 280.8 212 280.48 211.2 280.48C210.72 280.48 210.24 280.64 209.84 280.96C209.44 281.28 209.04 281.76 208.8 282.32V280.64H207.36V289.6H208.8V284.72Z" fill="black"/>
<path fill-rule="evenodd" clip-rule="evenodd" d="M217.52 284.72C217.52 284.32 217.52 284 217.6 283.68C217.76 283.36 217.84 283.04 218.08 282.88C218.48 282.4 218.88 282.24 219.44 282.24C220.48 282.24 221.04 283.04 221.04 284.72V289.6H222.56V284.08C222.56 282.96 222.32 282.08 221.76 281.44C221.28 280.8 220.64 280.48 219.84 280.48C219.36 280.48 218.88 280.64 218.48 280.96C218.08 281.28 217.76 281.76 217.52 282.32V280.64H216V289.6H217.52V284.72Z" fill="black"/>
<path fill-rule="evenodd" clip-rule="evenodd" d="M231.28 285.92V284.64C231.28 283.36 230.96 282.32 230.24 281.6C229.6 280.88 228.72 280.48 227.76 280.48C226.8 280.48 226 280.96 225.28 281.76C224.56 282.56 224.16 283.68 224.16 285.12C224.16 286.56 224.56 287.68 225.2 288.48C225.92 289.28 226.8 289.76 227.76 289.76C229.04 289.76 230 289.2 230.8 288.24L229.92 287.04C229.44 287.76 228.8 288.08 227.92 288.08C227.36 288.08 226.8 287.92 226.4 287.52C225.92 287.12 225.68 286.56 225.68 285.92H231.28ZM225.68 284.48C225.68 283.76 225.92 283.2 226.32 282.8C226.8 282.32 227.28 282.16 227.84 282.16C228.4 282.16 228.8 282.32 229.2 282.72C229.6 283.12 229.76 283.68 229.76 284.48H225.68Z" fill="black"/>
<path fill-rule="evenodd" clip-rule="evenodd" d="M238 286.96C238 286.08 237.76 285.44 237.28 285.04C237.04 284.8 236.8 284.72 236.56 284.56C236.4 284.48 236.16 284.32 235.92 284.24L235.2 284C234.88 283.92 234.64 283.84 234.48 283.68C234.24 283.6 234.16 283.36 234.16 283.04C234.16 282.72 234.24 282.48 234.48 282.32C234.72 282.16 234.96 282.08 235.36 282.08C236 282.08 236.64 282.32 237.2 282.8L237.76 281.44C237.04 280.8 236.32 280.48 235.44 280.48C234.64 280.48 234 280.8 233.44 281.28C232.96 281.76 232.72 282.4 232.72 283.28C232.72 284.4 233.44 285.28 234.88 285.76C234.96 285.76 235.04 285.84 235.04 285.84C236 286.24 236.48 286.64 236.48 287.04C236.48 287.36 236.4 287.6 236.24 287.84C236 288 235.76 288.08 235.36 288.08C234.64 288.08 233.84 287.68 232.96 286.96L232.24 288.4C232.72 288.8 233.2 289.12 233.76 289.36C234.32 289.6 234.8 289.76 235.36 289.76C236.16 289.76 236.72 289.44 237.28 288.96C237.76 288.48 238 287.76 238 286.96Z" fill="black"/>
<path fill-rule="evenodd" clip-rule="evenodd" d="M247.2 280.48C246.24 280.48 245.44 281.12 244.88 282.24V280.64H243.36V292.88H244.88V288.24C245.6 289.2 246.4 289.76 247.28 289.76C248.16 289.76 248.96 289.28 249.6 288.4C250.32 287.6 250.64 286.48 250.64 285.04C250.64 283.68 250.32 282.56 249.6 281.76C248.96 280.96 248.16 280.48 247.2 280.48ZM244.8 285.12C244.8 284.32 245.04 283.6 245.44 283.04C245.84 282.48 246.32 282.16 246.96 282.16C247.52 282.16 248.08 282.48 248.48 283.04C248.96 283.6 249.12 284.32 249.12 285.12C249.12 286 248.88 286.72 248.48 287.28C248.08 287.76 247.52 288.08 246.96 288.08C246.32 288.08 245.84 287.76 245.44 287.2C245.04 286.72 244.8 286 244.8 285.12Z" fill="black"/>
<path fill-rule="evenodd" clip-rule="evenodd" d="M258.96 285.92V284.64C258.96 283.36 258.64 282.32 258 281.6C257.28 280.88 256.48 280.48 255.52 280.48C254.56 280.48 253.68 280.96 252.96 281.76C252.24 282.56 251.92 283.68 251.92 285.12C251.92 286.56 252.24 287.68 252.96 288.48C253.68 289.28 254.48 289.76 255.52 289.76C256.72 289.76 257.76 289.2 258.48 288.24L257.68 287.04C257.2 287.76 256.48 288.08 255.6 288.08C255.04 288.08 254.56 287.92 254.08 287.52C253.68 287.12 253.44 286.56 253.36 285.92H258.96ZM253.36 284.48C253.36 283.76 253.6 283.2 254.08 282.8C254.48 282.32 254.96 282.16 255.52 282.16C256.08 282.16 256.56 282.32 256.88 282.72C257.28 283.12 257.44 283.68 257.44 284.48H253.36Z" fill="black"/>
<path fill-rule="evenodd" clip-rule="evenodd" d="M264.4 282.4H264.48L264.4 280.48C264 280.56 263.52 280.72 263.12 281.04C262.72 281.44 262.4 281.92 262.16 282.48V280.64H260.64V289.6H262.16V285.76C262.16 284.72 262.32 283.92 262.72 283.36C263.04 282.72 263.6 282.4 264.4 282.4Z" fill="black"/>
<path fill-rule="evenodd" clip-rule="evenodd" d="M272.48 289.76C273.6 289.76 274.4 289.2 274.96 288.24V289.6H276.48V277.12H274.96V282C274.4 281.04 273.6 280.48 272.64 280.48C271.68 280.48 270.88 280.96 270.16 281.76C269.52 282.56 269.12 283.68 269.12 285.12C269.12 286.48 269.52 287.6 270.16 288.48C270.8 289.28 271.6 289.76 272.48 289.76ZM270.64 285.2C270.64 284.32 270.88 283.6 271.28 283.04C271.76 282.48 272.24 282.16 272.8 282.16C273.44 282.16 273.92 282.48 274.32 283.04C274.8 283.6 274.96 284.32 274.96 285.12C274.96 286 274.8 286.72 274.32 287.28C273.92 287.76 273.44 288.08 272.88 288.08C272.24 288.08 271.76 287.76 271.28 287.28C270.88 286.72 270.64 286 270.64 285.2Z" fill="black"/>
<path fill-rule="evenodd" clip-rule="evenodd" d="M284.4 289.6V283.84C284.4 282.72 284.08 281.84 283.6 281.28C283.04 280.8 282.4 280.48 281.52 280.48C280.4 280.48 279.44 280.96 278.56 281.84L279.28 282.96C280 282.4 280.64 282.08 281.28 282.08C282.4 282.08 282.88 282.64 282.88 283.84V284.16H280.96C280.08 284.16 279.36 284.4 278.88 284.88C278.32 285.28 278.08 285.92 278.08 286.8C278.08 287.68 278.32 288.4 278.8 288.96C279.28 289.44 279.92 289.76 280.64 289.76C281.6 289.76 282.4 289.28 283.04 288.4V289.6H284.4ZM282.88 286.24C282.88 286.8 282.72 287.28 282.32 287.6C282 288 281.6 288.16 281.12 288.16C280.64 288.16 280.24 288 280 287.76C279.68 287.52 279.6 287.2 279.6 286.8C279.6 286.4 279.68 286.08 280 285.84C280.24 285.6 280.64 285.52 281.2 285.52H282.88V286.24Z" fill="black"/>
<path fill-rule="evenodd" clip-rule="evenodd" d="M287.36 293.12C287.84 293.12 288.24 292.96 288.64 292.64C289.04 292.32 289.28 291.84 289.52 291.28L292.96 280.64H291.36L289.28 287.28L287.12 280.64H285.52C287.44 286.64 288.4 289.68 288.4 289.84C288.4 290.24 288.32 290.56 288.08 290.8C287.84 291.12 287.6 291.28 287.28 291.28C286.88 291.28 286.56 291.12 286.32 290.72L285.6 292.24C286.16 292.88 286.72 293.12 287.36 293.12Z" fill="black"/>
<path fill-rule="evenodd" clip-rule="evenodd" d="M104.24 257.84V259.6H106.16V269.52H107.68V257.84" fill="black"/>
<path fill-rule="evenodd" clip-rule="evenodd" d="M110.72 268C111.36 269.12 112.32 269.68 113.6 269.68C114.88 269.68 115.84 269.12 116.48 268C117.12 266.96 117.44 265.44 117.44 263.6C117.44 261.76 117.12 260.32 116.48 259.2C115.84 258.08 114.88 257.52 113.6 257.52C112.32 257.52 111.36 258.08 110.72 259.2C110.08 260.32 109.76 261.76 109.76 263.6C109.76 265.44 110.08 266.96 110.72 268ZM111.84 260.4C112.24 259.6 112.8 259.2 113.6 259.2C114.4 259.2 114.96 259.6 115.36 260.4C115.68 261.2 115.84 262.32 115.84 263.6C115.84 264.96 115.68 266 115.36 266.8C114.96 267.6 114.4 268 113.6 268C112.8 268 112.24 267.6 111.84 266.8C111.52 266 111.28 264.88 111.28 263.6C111.28 262.32 111.52 261.2 111.84 260.4Z" fill="black"/>
<path fill-rule="evenodd" clip-rule="evenodd" d="M119.92 268C120.56 269.12 121.52 269.68 122.8 269.68C124.08 269.68 125.04 269.12 125.68 268C126.32 266.96 126.64 265.44 126.64 263.6C126.64 261.76 126.32 260.32 125.68 259.2C125.04 258.08 124.08 257.52 122.8 257.52C121.52 257.52 120.56 258.08 119.92 259.2C119.28 260.32 118.96 261.76 118.96 263.6C118.96 265.44 119.28 266.96 119.92 268ZM121.12 260.4C121.44 259.6 122 259.2 122.8 259.2C123.6 259.2 124.16 259.6 124.56 260.4C124.88 261.2 125.04 262.32 125.04 263.6C125.04 264.96 124.88 266 124.56 266.8C124.16 267.6 123.6 268 122.8 268C122 268 121.44 267.6 121.12 266.8C120.72 266 120.56 264.88 120.56 263.6C120.56 262.32 120.72 261.2 121.12 260.4Z" fill="black"/>
<path fill-rule="evenodd" clip-rule="evenodd" d="M134 262.16H135.92V260.64H134V257.84H132.56V260.64H131.6V262.16H132.56V266.64C132.56 267.52 132.72 268.32 133.2 268.88C133.68 269.44 134.16 269.68 134.8 269.68C135.44 269.68 136.08 269.36 136.56 268.8L136 267.44C135.68 267.84 135.36 268.08 135.04 268.08C134.896 268.081 134.754 268.045 134.628 267.975C134.502 267.905 134.396 267.803 134.32 267.68C134.08 267.44 134 267.12 134 266.64V262.16Z" fill="black"/>
<path fill-rule="evenodd" clip-rule="evenodd" d="M143.76 268.32C144.48 267.44 144.8 266.4 144.8 265.12C144.8 263.76 144.48 262.72 143.76 261.84C143.04 260.96 142.16 260.48 141.04 260.48C140 260.48 139.12 260.96 138.4 261.84C137.68 262.72 137.28 263.76 137.28 265.12C137.28 266.4 137.68 267.44 138.4 268.32C139.12 269.28 140 269.68 141.04 269.68C142.16 269.68 143.04 269.28 143.76 268.32ZM139.44 267.2C139.04 266.64 138.8 265.92 138.8 265.12C138.8 264.24 139.04 263.52 139.44 262.96C139.84 262.4 140.4 262.16 141.04 262.16C141.68 262.16 142.24 262.4 142.64 262.96C143.12 263.52 143.28 264.24 143.28 265.12C143.28 265.92 143.12 266.64 142.64 267.2C142.24 267.76 141.68 268 141.04 268C140.4 268 139.84 267.76 139.44 267.2Z" fill="black"/>
<path fill-rule="evenodd" clip-rule="evenodd" d="M155.6 257.76H150.24V263.44L150.88 264.32C151.44 264 152 263.76 152.56 263.76C153.2 263.76 153.68 264 154.08 264.32C154.4 264.64 154.64 265.2 154.64 265.84C154.64 266.48 154.48 266.96 154.08 267.28C153.68 267.6 153.28 267.76 152.88 267.76C152.4 267.76 152 267.68 151.6 267.52C151.28 267.28 151.04 267.12 150.88 266.96L150.56 266.64L149.76 268.08C150.48 269.2 151.52 269.68 152.8 269.68C153.76 269.68 154.56 269.28 155.2 268.56C155.84 267.84 156.16 266.88 156.16 265.76C156.16 264.64 155.84 263.76 155.28 263.04C154.64 262.4 153.84 262.08 152.96 262.08C152.48 262.08 152 262.24 151.68 262.48V259.6H155.6V257.76Z" fill="black"/>
<path fill-rule="evenodd" clip-rule="evenodd" d="M158.56 268C159.2 269.12 160.16 269.68 161.44 269.68C162.72 269.68 163.68 269.12 164.32 268C164.96 266.96 165.28 265.44 165.28 263.6C165.28 261.76 164.96 260.32 164.32 259.2C163.68 258.08 162.72 257.52 161.44 257.52C160.16 257.52 159.2 258.08 158.56 259.2C157.92 260.32 157.6 261.76 157.6 263.6C157.6 265.44 157.92 266.96 158.56 268ZM159.68 260.4C160.08 259.6 160.64 259.2 161.44 259.2C162.24 259.2 162.8 259.6 163.2 260.4C163.52 261.2 163.68 262.32 163.68 263.6C163.68 264.96 163.52 266 163.2 266.8C162.8 267.6 162.24 268 161.44 268C160.64 268 160.08 267.6 159.68 266.8C159.36 266 159.12 264.96 159.12 263.6C159.12 262.32 159.36 261.2 159.68 260.4Z" fill="black"/>
<path fill-rule="evenodd" clip-rule="evenodd" d="M167.76 268C168.4 269.12 169.36 269.68 170.64 269.68C171.92 269.68 172.88 269.12 173.52 268C174.16 266.96 174.48 265.44 174.48 263.6C174.48 261.76 174.16 260.32 173.52 259.2C172.88 258.08 171.92 257.52 170.64 257.52C169.36 257.52 168.4 258.08 167.76 259.2C167.2 260.32 166.88 261.76 166.88 263.6C166.88 265.44 167.2 266.96 167.76 268ZM168.96 260.4C169.28 259.6 169.84 259.2 170.64 259.2C171.44 259.2 172 259.6 172.4 260.4C172.72 261.2 172.96 262.32 172.96 263.6C172.96 264.96 172.72 266 172.4 266.8C172 267.6 171.44 268 170.64 268C169.84 268 169.28 267.6 168.96 266.8C168.56 266 168.4 264.88 168.4 263.6C168.4 262.32 168.56 261.2 168.96 260.4Z" fill="black"/>
<path fill-rule="evenodd" clip-rule="evenodd" d="M181.84 262.16H183.76V260.64H181.84V257.84H180.4V260.64H179.44V262.16H180.4V266.64C180.4 267.52 180.56 268.32 181.04 268.88C181.52 269.44 182.08 269.68 182.72 269.68C183.36 269.68 183.92 269.36 184.4 268.8L183.84 267.44C183.52 267.84 183.2 268.08 182.88 268.08C182.736 268.081 182.594 268.045 182.468 267.975C182.342 267.905 182.236 267.803 182.16 267.68C182 267.44 181.84 267.12 181.84 266.64V262.16Z" fill="black"/>
<path fill-rule="evenodd" clip-rule="evenodd" d="M191.6 268.32C192.32 267.44 192.64 266.4 192.64 265.12C192.64 263.76 192.32 262.72 191.6 261.84C190.88 260.96 190 260.48 188.88 260.48C187.84 260.48 186.96 260.96 186.24 261.84C185.52 262.72 185.12 263.76 185.12 265.12C185.12 266.4 185.52 267.44 186.24 268.32C186.96 269.28 187.84 269.68 188.88 269.68C190 269.68 190.88 269.28 191.6 268.32ZM187.28 267.2C186.88 266.64 186.64 265.92 186.64 265.12C186.64 264.24 186.88 263.52 187.28 262.96C187.68 262.4 188.24 262.16 188.88 262.16C189.52 262.16 190.08 262.4 190.48 262.96C190.96 263.52 191.12 264.24 191.12 265.12C191.12 265.92 190.96 266.64 190.48 267.2C190.08 267.76 189.52 268 188.88 268C188.24 268 187.68 267.76 187.28 267.2Z" fill="black"/>
<path fill-rule="evenodd" clip-rule="evenodd" d="M195.84 264.72C195.84 264.32 195.92 263.92 196 263.6C196.08 263.28 196.24 263.04 196.4 262.8C196.8 262.4 197.28 262.16 197.76 262.16C198.88 262.16 199.44 263.04 199.44 264.64V269.52H200.88V264.08C200.88 262.88 200.64 262 200.16 261.44C199.68 260.8 199.04 260.48 198.24 260.48C197.76 260.48 197.28 260.64 196.88 260.96C196.4 261.28 196.08 261.68 195.84 262.24V260.64H194.32V269.52H195.84V264.72Z" fill="black"/>
<path fill-rule="evenodd" clip-rule="evenodd" d="M204.48 264.72C204.48 264.32 204.56 263.92 204.64 263.6C204.72 263.28 204.88 263.04 205.04 262.8C205.44 262.4 205.92 262.16 206.4 262.16C207.52 262.16 208.08 263.04 208.08 264.64V269.52H209.6V264.08C209.6 262.88 209.28 262 208.8 261.44C208.32 260.8 207.68 260.48 206.88 260.48C206.4 260.48 205.92 260.64 205.52 260.96C205.04 261.28 204.72 261.68 204.48 262.24V260.64H203.04V269.52H204.48V264.72Z" fill="black"/>
<path fill-rule="evenodd" clip-rule="evenodd" d="M218.32 265.92V264.64C218.32 263.36 217.92 262.32 217.28 261.6C216.56 260.88 215.76 260.48 214.8 260.48C213.84 260.48 212.96 260.88 212.24 261.76C211.52 262.56 211.2 263.68 211.2 265.04C211.2 266.48 211.52 267.6 212.24 268.48C212.96 269.28 213.76 269.68 214.8 269.68C216 269.68 217.04 269.2 217.76 268.16L216.96 267.04C216.48 267.76 215.76 268.08 214.88 268.08C214.32 268.08 213.84 267.84 213.44 267.52C212.96 267.12 212.72 266.56 212.72 265.92H218.32ZM212.72 264.4C212.72 263.68 212.88 263.12 213.36 262.72C213.76 262.32 214.32 262.08 214.8 262.08C215.36 262.08 215.84 262.32 216.24 262.72C216.56 263.12 216.8 263.68 216.8 264.4H212.72Z" fill="black"/>
<path fill-rule="evenodd" clip-rule="evenodd" d="M225.04 266.88C225.04 266 224.8 265.44 224.24 265.04C224 264.8 223.84 264.64 223.6 264.56C223.36 264.4 223.2 264.32 222.96 264.24C222.72 264.16 222.48 264.08 222.16 264C221.92 263.84 221.68 263.76 221.52 263.68C221.28 263.52 221.12 263.36 221.12 263.04C221.12 262.72 221.28 262.48 221.52 262.32C221.68 262.16 222 262.08 222.4 262.08C223.04 262.08 223.68 262.32 224.24 262.8L224.8 261.36C224.08 260.8 223.28 260.48 222.48 260.48C221.68 260.48 220.96 260.72 220.48 261.2C220 261.76 219.68 262.4 219.68 263.2C219.68 264.4 220.48 265.2 221.92 265.76C222 265.76 222 265.76 222.08 265.84C223.04 266.16 223.52 266.56 223.52 267.04C223.52 267.36 223.44 267.6 223.2 267.76C223.04 268 222.72 268.08 222.4 268.08C221.68 268.08 220.8 267.68 220 266.88L219.28 268.32C219.68 268.8 220.24 269.12 220.8 269.36C221.36 269.6 221.84 269.68 222.4 269.68C223.12 269.68 223.76 269.44 224.24 268.96C224.72 268.4 225.04 267.76 225.04 266.88Z" fill="black"/>
<path fill-rule="evenodd" clip-rule="evenodd" d="M234.16 260.48C233.2 260.48 232.48 261.04 231.84 262.16V260.64H230.4V272.8H231.84V268.24C232.56 269.2 233.36 269.68 234.32 269.68C235.2 269.68 236 269.28 236.64 268.4C237.28 267.52 237.68 266.4 237.68 265.04C237.68 263.68 237.28 262.56 236.64 261.76C236 260.88 235.12 260.48 234.16 260.48ZM231.84 265.12C231.84 264.24 232.08 263.52 232.48 262.96C232.88 262.4 233.36 262.16 234 262.16C234.56 262.16 235.12 262.4 235.52 262.96C235.92 263.52 236.16 264.24 236.16 265.12C236.16 266 235.92 266.64 235.52 267.2C235.04 267.76 234.56 268 233.92 268C233.36 268 232.88 267.76 232.48 267.2C232.08 266.64 231.84 265.92 231.84 265.12Z" fill="black"/>
<path fill-rule="evenodd" clip-rule="evenodd" d="M246 265.92V264.64C246 263.36 245.68 262.32 244.96 261.6C244.32 260.88 243.52 260.48 242.48 260.48C241.52 260.48 240.72 260.88 240 261.76C239.28 262.56 238.88 263.68 238.88 265.04C238.88 266.48 239.28 267.6 240 268.48C240.64 269.28 241.52 269.68 242.48 269.68C243.76 269.68 244.72 269.2 245.52 268.16L244.64 267.04C244.16 267.76 243.52 268.08 242.64 268.08C242.08 268.08 241.6 267.84 241.12 267.52C240.72 267.12 240.48 266.56 240.4 265.92H246ZM240.4 264.4C240.4 263.68 240.64 263.12 241.04 262.72C241.52 262.32 242 262.08 242.56 262.08C243.12 262.08 243.6 262.32 243.92 262.72C244.32 263.12 244.48 263.68 244.48 264.4H240.4Z" fill="black"/>
<path fill-rule="evenodd" clip-rule="evenodd" d="M251.36 262.4H251.44V260.48C250.96 260.48 250.56 260.64 250.16 261.04C249.68 261.36 249.36 261.84 249.12 262.4V260.64H247.68V269.52H249.12V265.76C249.12 264.72 249.36 263.92 249.68 263.28C250.08 262.72 250.64 262.4 251.36 262.4Z" fill="black"/>
<path fill-rule="evenodd" clip-rule="evenodd" d="M259.52 269.68C260.64 269.68 261.44 269.2 262 268.24V269.52H263.44V257.12H262V262C261.36 260.96 260.64 260.48 259.68 260.48C258.72 260.48 257.92 260.88 257.2 261.76C256.48 262.56 256.16 263.68 256.16 265.04C256.16 266.48 256.48 267.6 257.2 268.4C257.84 269.28 258.64 269.68 259.52 269.68ZM257.68 265.12C257.68 264.24 257.92 263.52 258.32 262.96C258.72 262.4 259.28 262.16 259.84 262.16C260.48 262.16 260.96 262.4 261.36 262.96C261.76 263.52 262 264.24 262 265.12C262 266 261.76 266.64 261.36 267.2C260.96 267.76 260.48 268 259.84 268C259.28 268 258.8 267.76 258.32 267.2C257.92 266.72 257.68 266 257.68 265.12Z" fill="black"/>
<path fill-rule="evenodd" clip-rule="evenodd" d="M271.44 269.52V263.76C271.44 262.64 271.12 261.84 270.64 261.28C270.08 260.72 269.36 260.48 268.56 260.48C267.44 260.48 266.48 260.88 265.6 261.76L266.24 262.96C266.96 262.32 267.68 262.08 268.32 262.08C269.36 262.08 269.92 262.64 269.92 263.84V264.16H268C267.12 264.16 266.4 264.4 265.84 264.8C265.36 265.28 265.12 265.92 265.12 266.8C265.12 267.68 265.36 268.4 265.84 268.88C266.32 269.44 266.96 269.68 267.68 269.68C268.64 269.68 269.44 269.28 270 268.4V269.52H271.44ZM269.92 266.24C269.92 266.8 269.76 267.28 269.36 267.6C269.04 267.92 268.56 268.08 268.08 268.08C267.6 268.08 267.28 268 266.96 267.76C266.72 267.52 266.56 267.2 266.56 266.72C266.56 266.32 266.72 266 267.04 265.76C267.28 265.6 267.68 265.44 268.24 265.44H269.92V266.24Z" fill="black"/>
<path fill-rule="evenodd" clip-rule="evenodd" d="M274.4 273.12C274.88 273.12 275.28 272.96 275.68 272.64C276.08 272.24 276.32 271.84 276.56 271.2L280 260.64H278.4L276.24 267.2L274.16 260.64H272.56C274.48 266.56 275.44 269.68 275.44 269.84C275.44 270.16 275.28 270.48 275.12 270.8C274.88 271.12 274.64 271.28 274.24 271.28C273.92 271.28 273.6 271.04 273.28 270.72L272.64 272.24C273.12 272.8 273.76 273.12 274.4 273.12Z" fill="black"/>
<path fill-rule="evenodd" clip-rule="evenodd" d="M105.6 248C106.24 249.12 107.2 249.68 108.48 249.68C109.76 249.68 110.72 249.12 111.36 248C112 246.88 112.32 245.44 112.32 243.6C112.32 241.76 112 240.24 111.36 239.12C110.72 238 109.76 237.52 108.48 237.52C107.2 237.52 106.24 238 105.6 239.12C104.96 240.24 104.72 241.76 104.72 243.6C104.72 245.44 104.96 246.88 105.6 248ZM106.8 240.4C107.12 239.6 107.68 239.2 108.48 239.2C109.28 239.2 109.84 239.6 110.24 240.4C110.56 241.2 110.8 242.24 110.8 243.6C110.8 244.88 110.56 245.92 110.24 246.72C109.84 247.52 109.28 247.92 108.48 247.92C107.68 247.92 107.12 247.52 106.8 246.72C106.4 245.92 106.24 244.88 106.24 243.6C106.24 242.24 106.4 241.2 106.8 240.4Z" fill="black"/>
<path fill-rule="evenodd" clip-rule="evenodd" d="M119.68 242.08H121.6V240.56H119.68V237.76H118.24V240.56H117.28V242.08H118.24V246.56C118.24 247.52 118.4 248.24 118.88 248.8C119.36 249.36 119.84 249.68 120.48 249.68C121.12 249.68 121.76 249.36 122.24 248.8L121.68 247.44C121.36 247.84 121.04 248 120.72 248C120.4 248 120.16 247.92 120 247.68C119.76 247.36 119.68 247.04 119.68 246.64V242.08Z" fill="black"/>
<path fill-rule="evenodd" clip-rule="evenodd" d="M129.44 248.32C130.16 247.44 130.48 246.32 130.48 245.04C130.48 243.76 130.16 242.64 129.44 241.76C128.72 240.88 127.84 240.48 126.72 240.48C125.68 240.48 124.8 240.88 124.08 241.76C123.36 242.64 122.96 243.76 122.96 245.04C122.96 246.32 123.36 247.44 124.08 248.32C124.8 249.2 125.68 249.68 126.72 249.68C127.84 249.68 128.72 249.2 129.44 248.32ZM125.12 247.12C124.72 246.64 124.48 245.92 124.48 245.04C124.48 244.16 124.72 243.52 125.12 242.96C125.52 242.4 126.08 242.16 126.72 242.16C127.36 242.16 127.92 242.4 128.32 242.96C128.8 243.52 128.96 244.16 128.96 245.04C128.96 245.92 128.8 246.64 128.32 247.12C127.92 247.68 127.36 248 126.72 248C126.08 248 125.52 247.68 125.12 247.12Z" fill="black"/>
<path fill-rule="evenodd" clip-rule="evenodd" d="M135.12 237.76V239.52H137.04V249.52H138.56V237.76" fill="black"/>
<path fill-rule="evenodd" clip-rule="evenodd" d="M141.6 248C142.24 249.12 143.2 249.68 144.48 249.68C145.76 249.68 146.72 249.12 147.36 248C148 246.88 148.32 245.44 148.32 243.6C148.32 241.76 148 240.24 147.36 239.12C146.72 238 145.76 237.52 144.48 237.52C143.2 237.52 142.24 238 141.6 239.12C140.96 240.24 140.64 241.76 140.64 243.6C140.64 245.44 140.96 246.88 141.6 248ZM142.72 240.4C143.12 239.6 143.68 239.2 144.48 239.2C145.28 239.2 145.84 239.6 146.16 240.4C146.56 241.2 146.72 242.24 146.72 243.6C146.72 244.88 146.56 245.92 146.16 246.72C145.84 247.52 145.28 247.92 144.48 247.92C143.68 247.92 143.12 247.52 142.72 246.72C142.4 245.92 142.16 244.88 142.16 243.6C142.16 242.24 142.4 241.2 142.72 240.4Z" fill="black"/>
<path fill-rule="evenodd" clip-rule="evenodd" d="M150.8 248C151.44 249.12 152.4 249.68 153.68 249.68C154.96 249.68 155.92 249.12 156.56 248C157.2 246.88 157.52 245.44 157.52 243.6C157.52 241.76 157.2 240.24 156.56 239.12C155.92 238 154.96 237.52 153.68 237.52C152.4 237.52 151.44 238 150.8 239.12C150.16 240.24 149.84 241.76 149.84 243.6C149.84 245.44 150.16 246.88 150.8 248ZM151.92 240.4C152.32 239.6 152.88 239.2 153.68 239.2C154.48 239.2 155.04 239.6 155.44 240.4C155.76 241.2 155.92 242.24 155.92 243.6C155.92 244.88 155.76 245.92 155.44 246.72C155.04 247.52 154.48 247.92 153.68 247.92C152.88 247.92 152.32 247.52 151.92 246.72C151.6 245.92 151.44 244.88 151.44 243.6C151.44 242.24 151.6 241.2 151.92 240.4Z" fill="black"/>
<path fill-rule="evenodd" clip-rule="evenodd" d="M164.88 242.08H166.8V240.56H164.88V237.76H163.44V240.56H162.48V242.08H163.44V246.56C163.44 247.52 163.6 248.24 164.08 248.8C164.56 249.36 165.04 249.68 165.68 249.68C166.32 249.68 166.96 249.36 167.44 248.8L166.88 247.44C166.56 247.84 166.24 248 165.92 248C165.6 248 165.36 247.92 165.2 247.68C164.96 247.36 164.88 247.04 164.88 246.64V242.08Z" fill="black"/>
<path fill-rule="evenodd" clip-rule="evenodd" d="M174.64 248.32C175.36 247.44 175.68 246.32 175.68 245.04C175.68 243.76 175.36 242.64 174.64 241.76C173.92 240.88 173.04 240.48 171.92 240.48C170.88 240.48 170 240.88 169.28 241.76C168.56 242.64 168.16 243.76 168.16 245.04C168.16 246.32 168.56 247.44 169.28 248.32C170 249.2 170.88 249.68 171.92 249.68C173.04 249.68 173.92 249.2 174.64 248.32ZM170.32 247.12C169.92 246.64 169.68 245.92 169.68 245.04C169.68 244.16 169.92 243.52 170.32 242.96C170.72 242.4 171.28 242.16 171.92 242.16C172.56 242.16 173.12 242.4 173.52 242.96C174 243.52 174.16 244.16 174.16 245.04C174.16 245.92 174 246.64 173.52 247.12C173.12 247.68 172.56 248 171.92 248C171.28 248 170.72 247.68 170.32 247.12Z" fill="black"/>
<path fill-rule="evenodd" clip-rule="evenodd" d="M178.88 244.72C178.88 244.24 178.96 243.92 179.04 243.6C179.12 243.28 179.28 243.04 179.44 242.8C179.84 242.32 180.32 242.16 180.8 242.16C181.92 242.16 182.48 242.96 182.48 244.64V249.52H183.92V244.08C183.92 242.88 183.68 242 183.2 241.36C182.72 240.72 182.08 240.48 181.28 240.48C180.72 240.48 180.32 240.64 179.84 240.88C179.44 241.2 179.12 241.68 178.88 242.24V240.56H177.36V249.52H178.88V244.72Z" fill="black"/>
<path fill-rule="evenodd" clip-rule="evenodd" d="M187.52 244.72C187.52 244.24 187.6 243.92 187.68 243.6C187.76 243.28 187.92 243.04 188.08 242.8C188.48 242.32 188.96 242.16 189.44 242.16C190.56 242.16 191.12 242.96 191.12 244.64V249.52H192.56V244.08C192.56 242.88 192.32 242 191.84 241.36C191.36 240.72 190.72 240.48 189.92 240.48C189.44 240.48 188.96 240.64 188.56 240.88C188.08 241.2 187.76 241.68 187.52 242.24V240.56H186V249.52H187.52V244.72Z" fill="black"/>
<path fill-rule="evenodd" clip-rule="evenodd" d="M201.28 245.84V244.56C201.28 243.28 200.96 242.24 200.32 241.52C199.6 240.8 198.8 240.48 197.84 240.48C196.88 240.48 196 240.88 195.28 241.68C194.56 242.48 194.24 243.6 194.24 245.04C194.24 246.48 194.56 247.6 195.28 248.4C196 249.2 196.8 249.68 197.84 249.68C199.04 249.68 200.08 249.12 200.8 248.16L200 246.96C199.52 247.68 198.8 248.08 197.92 248.08C197.36 248.08 196.88 247.84 196.4 247.44C196 247.04 195.76 246.56 195.76 245.84H201.28ZM195.76 244.4C195.76 243.68 195.92 243.12 196.4 242.72C196.8 242.24 197.28 242.08 197.84 242.08C198.4 242.08 198.88 242.24 199.28 242.64C199.6 243.04 199.84 243.68 199.84 244.4H195.76Z" fill="black"/>
<path fill-rule="evenodd" clip-rule="evenodd" d="M208 246.88C208 246 207.76 245.36 207.28 244.96C207.04 244.8 206.8 244.64 206.64 244.48C206.4 244.4 206.24 244.32 206 244.16C205.76 244.08 205.52 244 205.2 243.92C204.88 243.84 204.72 243.76 204.56 243.6C204.32 243.52 204.16 243.28 204.16 243.04C204.16 242.64 204.32 242.4 204.56 242.24C204.72 242.08 205.04 242 205.36 242C206.08 242 206.72 242.24 207.28 242.72L207.84 241.36C207.12 240.72 206.32 240.48 205.52 240.48C204.72 240.48 204 240.72 203.52 241.2C202.96 241.68 202.72 242.32 202.72 243.2C202.72 244.4 203.52 245.2 204.96 245.68C204.96 245.68 205.04 245.76 205.12 245.76C206.08 246.16 206.56 246.56 206.56 246.96C206.568 247.109 206.543 247.257 206.488 247.396C206.433 247.534 206.348 247.658 206.24 247.76C206.08 247.92 205.76 248 205.44 248C204.64 248 203.84 247.6 203.04 246.88L202.32 248.32C202.72 248.72 203.2 249.04 203.76 249.28C204.32 249.52 204.88 249.68 205.44 249.68C206.16 249.68 206.8 249.44 207.28 248.88C207.76 248.4 208 247.68 208 246.88Z" fill="black"/>
<path fill-rule="evenodd" clip-rule="evenodd" d="M217.2 240.48C216.24 240.48 215.52 241.04 214.88 242.16V240.56H213.36V252.8H214.88V248.16C215.6 249.2 216.4 249.68 217.28 249.68C218.24 249.68 218.96 249.2 219.68 248.4C220.32 247.52 220.72 246.4 220.72 244.96C220.72 243.6 220.32 242.48 219.68 241.68C218.96 240.88 218.16 240.48 217.2 240.48ZM214.88 245.04C214.88 244.24 215.04 243.52 215.52 242.96C215.92 242.4 216.4 242.08 217.04 242.08C217.6 242.08 218.08 242.4 218.56 242.96C218.96 243.52 219.2 244.24 219.2 245.04C219.2 245.92 218.96 246.64 218.56 247.2C218.08 247.68 217.6 248 216.96 248C216.4 248 215.92 247.68 215.52 247.12C215.04 246.64 214.88 245.92 214.88 245.04Z" fill="black"/>
<path fill-rule="evenodd" clip-rule="evenodd" d="M229.04 245.84V244.56C229.04 243.28 228.72 242.32 228 241.52C227.36 240.8 226.48 240.48 225.52 240.48C224.56 240.48 223.76 240.88 223.04 241.68C222.32 242.48 221.92 243.6 221.92 245.04C221.92 246.48 222.32 247.6 222.96 248.4C223.68 249.2 224.56 249.68 225.52 249.68C226.8 249.68 227.76 249.12 228.56 248.16L227.68 246.96C227.2 247.68 226.56 248.08 225.68 248.08C225.12 248.08 224.56 247.84 224.16 247.44C223.68 247.04 223.44 246.56 223.44 245.84H229.04ZM223.44 244.4C223.44 243.68 223.68 243.12 224.08 242.72C224.56 242.24 225.04 242.08 225.6 242.08C226.16 242.08 226.56 242.24 226.96 242.64C227.36 243.04 227.52 243.68 227.52 244.4H223.44Z" fill="black"/>
<path fill-rule="evenodd" clip-rule="evenodd" d="M234.4 242.32H234.48V240.48C234 240.48 233.6 240.64 233.12 240.96C232.72 241.36 232.4 241.84 232.16 242.4V240.56H230.64V249.52H232.16V245.68C232.16 244.64 232.4 243.84 232.72 243.28C233.12 242.64 233.68 242.32 234.4 242.32Z" fill="black"/>
<path fill-rule="evenodd" clip-rule="evenodd" d="M242.56 249.68C243.6 249.68 244.4 249.2 244.96 248.16V249.52H246.48V237.04H244.96V241.92C244.4 240.96 243.68 240.48 242.72 240.48C241.76 240.48 240.96 240.88 240.24 241.68C239.52 242.48 239.2 243.6 239.2 245.04C239.2 246.4 239.52 247.52 240.24 248.4C240.88 249.2 241.68 249.68 242.56 249.68ZM240.72 245.12C240.72 244.24 240.88 243.52 241.36 242.96C241.76 242.4 242.32 242.08 242.88 242.08C243.52 242.08 244 242.4 244.4 242.96C244.8 243.52 245.04 244.24 245.04 245.12C245.04 245.92 244.8 246.64 244.4 247.2C244 247.68 243.52 248 242.88 248C242.32 248 241.76 247.76 241.36 247.2C240.96 246.64 240.72 245.92 240.72 245.12Z" fill="black"/>
<path fill-rule="evenodd" clip-rule="evenodd" d="M254.4 249.52V243.76C254.4 242.64 254.16 241.76 253.6 241.28C253.12 240.72 252.4 240.48 251.6 240.48C250.48 240.48 249.52 240.88 248.64 241.76L249.28 242.88C250 242.32 250.72 242 251.36 242C252.4 242 252.96 242.64 252.96 243.76V244.16H251.04C250.08 244.16 249.44 244.32 248.88 244.8C248.4 245.2 248.16 245.84 248.16 246.72C248.16 247.6 248.4 248.32 248.88 248.88C249.36 249.36 249.92 249.68 250.72 249.68C251.68 249.68 252.48 249.2 253.04 248.32V249.52H254.4ZM252.96 246.16C252.96 246.8 252.72 247.2 252.4 247.52C252 247.92 251.6 248.08 251.12 248.08C250.64 248.08 250.32 247.92 250 247.68C249.76 247.52 249.6 247.12 249.6 246.72C249.6 246.32 249.76 246 250 245.76C250.32 245.52 250.72 245.44 251.28 245.44H252.96V246.16Z" fill="black"/>
<path fill-rule="evenodd" clip-rule="evenodd" d="M257.44 253.12C257.92 253.12 258.32 252.88 258.72 252.56C259.04 252.24 259.36 251.76 259.6 251.2L263.04 240.56H261.44L259.28 247.2L257.2 240.56H255.52C257.44 246.56 258.4 249.6 258.4 249.76C258.4 250.16 258.32 250.48 258.08 250.8C257.988 250.925 257.867 251.027 257.728 251.097C257.589 251.166 257.435 251.202 257.28 251.2C256.96 251.2 256.64 251.04 256.32 250.64L255.68 252.16C256.16 252.8 256.8 253.12 257.44 253.12Z" fill="black"/>
<path fill-rule="evenodd" clip-rule="evenodd" d="M107.52 324.4L104.64 328V329.68H111.04V327.76H106.8L109.04 324.96C109.68 324.08 110.16 323.36 110.4 322.88C110.64 322.32 110.8 321.68 110.8 321.12C110.8 320 110.48 319.2 109.92 318.56C109.28 317.92 108.64 317.6 107.84 317.6C107.04 317.6 106.4 317.84 105.92 318.24C105.44 318.64 104.96 319.2 104.56 320L105.84 320.88C106.32 319.92 106.96 319.44 107.76 319.44C108.16 319.44 108.56 319.6 108.8 319.92C109.12 320.24 109.28 320.64 109.28 321.12C109.28 321.6 109.12 322.08 108.88 322.48C108.56 322.96 108.16 323.6 107.52 324.4Z" fill="black"/>
<path fill-rule="evenodd" clip-rule="evenodd" d="M112.64 328.56C112.64 329.12 112.88 329.44 113.2 329.68L112.72 331.44H113.52L114.32 329.76C114.56 329.28 114.64 328.88 114.64 328.56C114.64 328.24 114.56 327.92 114.4 327.68C114.16 327.44 113.92 327.28 113.68 327.28C113.536 327.28 113.394 327.316 113.268 327.386C113.142 327.456 113.036 327.557 112.96 327.68C112.8 327.92 112.64 328.24 112.64 328.56Z" fill="black"/>
<path fill-rule="evenodd" clip-rule="evenodd" d="M117.28 328.16C117.92 329.28 118.88 329.84 120.16 329.84C121.44 329.84 122.4 329.28 123.04 328.16C123.68 327.04 124 325.6 124 323.68C124 321.84 123.68 320.4 123.04 319.28C122.4 318.16 121.44 317.6 120.16 317.6C118.88 317.6 117.92 318.16 117.28 319.28C116.64 320.4 116.32 321.84 116.32 323.68C116.32 325.6 116.64 327.04 117.28 328.16ZM118.4 320.56C118.8 319.76 119.36 319.36 120.16 319.36C120.96 319.36 121.52 319.76 121.84 320.56C122.24 321.36 122.4 322.4 122.4 323.68C122.4 325.04 122.24 326.08 121.84 326.88C121.52 327.68 120.96 328.08 120.16 328.08C119.36 328.08 118.8 327.68 118.4 326.88C118.08 326.08 117.84 325.04 117.84 323.68C117.84 322.4 118.08 321.36 118.4 320.56Z" fill="black"/>
<path fill-rule="evenodd" clip-rule="evenodd" d="M126.48 328.16C127.12 329.28 128.08 329.84 129.36 329.84C130.64 329.84 131.6 329.28 132.24 328.16C132.88 327.04 133.2 325.6 133.2 323.68C133.2 321.84 132.88 320.4 132.24 319.28C131.6 318.16 130.64 317.6 129.36 317.6C128.08 317.6 127.12 318.16 126.48 319.28C125.84 320.4 125.52 321.84 125.52 323.68C125.52 325.6 125.84 327.04 126.48 328.16ZM127.6 320.56C128 319.76 128.56 319.36 129.36 319.36C130.16 319.36 130.72 319.76 131.12 320.56C131.44 321.36 131.6 322.4 131.6 323.68C131.6 325.04 131.44 326.08 131.12 326.88C130.72 327.68 130.16 328.08 129.36 328.08C128.56 328.08 128 327.68 127.6 326.88C127.28 326.08 127.04 325.04 127.04 323.68C127.04 322.4 127.28 321.36 127.6 320.56Z" fill="black"/>
<path fill-rule="evenodd" clip-rule="evenodd" d="M135.68 328.16C136.32 329.28 137.28 329.84 138.56 329.84C139.84 329.84 140.8 329.28 141.44 328.16C142.08 327.04 142.4 325.6 142.4 323.68C142.4 321.84 142.08 320.4 141.44 319.28C140.8 318.16 139.84 317.6 138.56 317.6C137.28 317.6 136.32 318.16 135.68 319.28C135.12 320.4 134.8 321.84 134.8 323.68C134.8 325.6 135.12 327.04 135.68 328.16ZM136.88 320.56C137.2 319.76 137.76 319.36 138.56 319.36C139.36 319.36 139.92 319.76 140.32 320.56C140.64 321.36 140.88 322.4 140.88 323.68C140.88 325.04 140.64 326.08 140.32 326.88C139.92 327.68 139.36 328.08 138.56 328.08C137.76 328.08 137.2 327.68 136.88 326.88C136.48 326.08 136.32 325.04 136.32 323.68C136.32 322.4 136.48 321.36 136.88 320.56Z" fill="black"/>
<path fill-rule="evenodd" clip-rule="evenodd" d="M153.92 328.48C154.64 327.6 154.96 326.48 154.96 325.2C154.96 323.92 154.64 322.8 153.92 321.92C153.2 321.04 152.32 320.56 151.2 320.56C150.16 320.56 149.28 321.04 148.56 321.92C147.84 322.8 147.44 323.92 147.44 325.2C147.44 326.48 147.84 327.6 148.56 328.48C149.28 329.36 150.16 329.84 151.2 329.84C152.32 329.84 153.2 329.36 153.92 328.48ZM149.6 327.28C149.2 326.8 148.96 326.08 148.96 325.2C148.96 324.32 149.2 323.6 149.6 323.12C150 322.56 150.56 322.24 151.2 322.24C151.84 322.24 152.4 322.56 152.88 323.12C153.28 323.6 153.44 324.32 153.44 325.2C153.44 326.08 153.28 326.8 152.88 327.28C152.4 327.84 151.84 328.16 151.2 328.16C150.56 328.16 150 327.84 149.6 327.28Z" fill="black"/>
<path fill-rule="evenodd" clip-rule="evenodd" d="M160.4 322.48H160.48V320.56C160 320.64 159.6 320.8 159.12 321.12C158.72 321.52 158.4 322 158.16 322.56V320.72H156.64V329.68H158.16V325.84C158.16 324.8 158.4 324 158.72 323.36C159.12 322.8 159.68 322.48 160.4 322.48Z" fill="black"/>
<path fill-rule="evenodd" clip-rule="evenodd" d="M167.12 324.8C167.12 324 167.36 323.36 167.76 322.96C168.08 322.48 168.56 322.32 169.12 322.32C169.6 322.32 170 322.48 170.24 322.88C170.48 323.28 170.56 323.92 170.56 324.8V329.68H172.08V324.72C172.08 323.92 172.32 323.28 172.72 322.88C173.04 322.48 173.52 322.32 174 322.32C175.12 322.32 175.68 323.12 175.68 324.8V329.68H177.12V324.16C177.12 323.04 176.88 322.16 176.4 321.52C175.92 320.88 175.28 320.56 174.48 320.56C173.44 320.56 172.56 321.2 171.84 322.32C171.44 321.2 170.64 320.56 169.52 320.56C169.04 320.56 168.56 320.72 168.16 321.04C167.68 321.36 167.36 321.84 167.12 322.32V320.72H165.68V329.68H167.12V324.8Z" fill="black"/>
<path fill-rule="evenodd" clip-rule="evenodd" d="M185.2 328.48C185.92 327.6 186.24 326.48 186.24 325.2C186.24 323.92 185.92 322.8 185.2 321.92C184.48 321.04 183.6 320.56 182.56 320.56C181.44 320.56 180.56 321.04 179.84 321.92C179.12 322.8 178.8 323.92 178.8 325.2C178.8 326.48 179.12 327.6 179.84 328.48C180.56 329.36 181.44 329.84 182.56 329.84C183.6 329.84 184.48 329.36 185.2 328.48ZM180.88 327.28C180.48 326.8 180.24 326.08 180.24 325.2C180.24 324.32 180.48 323.6 180.88 323.12C181.36 322.56 181.84 322.24 182.56 322.24C183.2 322.24 183.68 322.56 184.16 323.12C184.56 323.6 184.8 324.32 184.8 325.2C184.8 326.08 184.56 326.8 184.16 327.28C183.68 327.84 183.2 328.16 182.56 328.16C181.84 328.16 181.36 327.84 180.88 327.28Z" fill="black"/>
<path fill-rule="evenodd" clip-rule="evenodd" d="M191.68 322.48H191.76V320.56C191.28 320.64 190.88 320.8 190.48 321.12C190.08 321.52 189.68 322 189.44 322.56V320.72H188V329.68H189.44V325.84C189.44 324.8 189.68 324 190 323.36C190.4 322.8 190.96 322.48 191.68 322.48Z" fill="black"/>
<path fill-rule="evenodd" clip-rule="evenodd" d="M199.92 326V324.72C199.92 323.44 199.6 322.4 198.88 321.68C198.24 320.96 197.44 320.56 196.4 320.56C195.44 320.56 194.64 321.04 193.92 321.84C193.2 322.64 192.8 323.76 192.8 325.2C192.8 326.56 193.2 327.68 193.92 328.56C194.56 329.36 195.44 329.84 196.4 329.84C197.68 329.84 198.64 329.28 199.44 328.32L198.56 327.12C198.08 327.84 197.44 328.16 196.56 328.16C196 328.16 195.52 328 195.04 327.6C194.64 327.2 194.4 326.64 194.32 326H199.92ZM194.32 324.56C194.32 323.84 194.56 323.28 194.96 322.8C195.44 322.4 195.92 322.24 196.48 322.24C197.04 322.24 197.52 322.4 197.84 322.8C198.24 323.2 198.4 323.76 198.4 324.56H194.32Z" fill="black"/>
<path fill-rule="evenodd" clip-rule="evenodd" d="M207.12 322.24H208.96V320.72H207.12V317.92H205.6V320.72H204.72V322.24H205.6V326.72C205.6 327.68 205.84 328.4 206.24 328.96C206.72 329.52 207.28 329.84 207.92 329.84C208.56 329.84 209.12 329.52 209.68 328.88L209.04 327.6C208.72 328 208.4 328.16 208.08 328.16C207.76 328.16 207.52 328.08 207.36 327.76C207.2 327.52 207.12 327.2 207.12 326.8V322.24Z" fill="black"/>
<path fill-rule="evenodd" clip-rule="evenodd" d="M216.8 328.48C217.52 327.6 217.84 326.48 217.84 325.2C217.84 323.92 217.52 322.8 216.8 321.92C216.08 321.04 215.2 320.56 214.08 320.56C213.04 320.56 212.16 321.04 211.44 321.92C210.72 322.8 210.4 323.92 210.4 325.2C210.4 326.48 210.72 327.6 211.44 328.48C212.16 329.36 213.04 329.84 214.08 329.84C215.2 329.84 216.08 329.36 216.8 328.48ZM212.48 327.28C212.08 326.8 211.84 326.08 211.84 325.2C211.84 324.32 212.08 323.6 212.48 323.12C212.96 322.56 213.44 322.24 214.08 322.24C214.8 322.24 215.28 322.56 215.76 323.12C216.16 323.6 216.4 324.32 216.4 325.2C216.4 326.08 216.16 326.8 215.76 327.28C215.28 327.84 214.8 328.16 214.08 328.16C213.44 328.16 212.96 327.84 212.48 327.28Z" fill="black"/>
<path fill-rule="evenodd" clip-rule="evenodd" d="M221.04 324.8C221.04 324.4 221.12 324.08 221.2 323.76C221.28 323.44 221.44 323.12 221.6 322.96C222 322.48 222.48 322.32 222.96 322.32C224.08 322.32 224.64 323.12 224.64 324.8V329.68H226.16V324.16C226.16 323.04 225.84 322.16 225.36 321.52C224.88 320.88 224.24 320.56 223.44 320.56C222.96 320.56 222.48 320.72 222.08 321.04C221.6 321.36 221.28 321.84 221.04 322.32V320.72H219.52V329.68H221.04V324.8Z" fill="black"/>
<path fill-rule="evenodd" clip-rule="evenodd" d="M229.68 324.8C229.68 324.4 229.76 324.08 229.84 323.76C229.92 323.44 230.08 323.12 230.32 322.96C230.64 322.48 231.12 322.32 231.6 322.32C232.72 322.32 233.28 323.12 233.28 324.8V329.68H234.8V324.16C234.8 323.04 234.56 322.16 234 321.52C233.52 320.88 232.88 320.56 232.08 320.56C231.6 320.56 231.12 320.72 230.72 321.04C230.32 321.36 229.92 321.84 229.68 322.32V320.72H228.24V329.68H229.68V324.8Z" fill="black"/>
<path fill-rule="evenodd" clip-rule="evenodd" d="M243.52 326V324.72C243.52 323.44 243.12 322.4 242.48 321.68C241.76 320.96 240.96 320.56 240 320.56C239.04 320.56 238.16 321.04 237.44 321.84C236.8 322.64 236.4 323.76 236.4 325.2C236.4 326.56 236.72 327.68 237.44 328.56C238.16 329.36 239.04 329.84 240 329.84C241.2 329.84 242.24 329.28 243.04 328.32L242.16 327.12C241.68 327.84 241.04 328.16 240.08 328.16C239.52 328.16 239.04 328 238.64 327.6C238.16 327.2 237.92 326.64 237.92 326H243.52ZM237.92 324.56C237.92 323.84 238.16 323.28 238.56 322.8C238.96 322.4 239.52 322.24 240.08 322.24C240.56 322.24 241.04 322.4 241.44 322.8C241.84 323.2 242 323.76 242 324.56H237.92Z" fill="black"/>
<path fill-rule="evenodd" clip-rule="evenodd" d="M250.24 326.96C250.24 326.16 250 325.52 249.52 325.12C249.28 324.88 249.04 324.72 248.8 324.64C248.64 324.56 248.4 324.4 248.16 324.32C247.92 324.24 247.68 324.16 247.36 324.08C247.12 324 246.88 323.92 246.72 323.76C246.48 323.68 246.4 323.44 246.4 323.12C246.4 322.8 246.48 322.56 246.72 322.4C246.96 322.24 247.2 322.16 247.6 322.16C248.24 322.16 248.88 322.4 249.44 322.88L250 321.52C249.28 320.88 248.48 320.56 247.68 320.56C246.88 320.56 246.24 320.88 245.68 321.36C245.2 321.84 244.96 322.48 244.96 323.36C244.96 324.48 245.68 325.36 247.12 325.84C247.2 325.84 247.2 325.92 247.28 325.92C248.24 326.24 248.72 326.72 248.72 327.12C248.72 327.44 248.64 327.68 248.4 327.84C248.24 328.08 248 328.16 247.6 328.16C246.88 328.16 246.08 327.76 245.2 326.96L244.48 328.48C244.96 328.88 245.44 329.2 246 329.44C246.56 329.68 247.04 329.84 247.6 329.84C248.32 329.84 248.96 329.52 249.44 329.04C250 328.56 250.24 327.84 250.24 326.96Z" fill="black"/>
<path fill-rule="evenodd" clip-rule="evenodd" d="M259.36 320.56C258.48 320.56 257.68 321.12 257.04 322.32V320.72H255.6V332.96H257.04V328.32C257.76 329.28 258.56 329.84 259.52 329.84C260.4 329.84 261.2 329.36 261.84 328.48C262.56 327.68 262.88 326.56 262.88 325.12C262.88 323.76 262.56 322.64 261.84 321.84C261.2 321.04 260.32 320.56 259.36 320.56ZM257.04 325.2C257.04 324.4 257.28 323.68 257.68 323.12C258.08 322.56 258.56 322.24 259.2 322.24C259.76 322.24 260.32 322.56 260.72 323.12C261.12 323.68 261.36 324.4 261.36 325.2C261.36 326.08 261.12 326.8 260.72 327.28C260.24 327.84 259.76 328.16 259.2 328.16C258.56 328.16 258.08 327.84 257.68 327.28C257.28 326.8 257.04 326.08 257.04 325.2Z" fill="black"/>
<path fill-rule="evenodd" clip-rule="evenodd" d="M271.2 326V324.72C271.2 323.44 270.88 322.4 270.16 321.68C269.52 320.96 268.72 320.56 267.76 320.56C266.72 320.56 265.92 321.04 265.2 321.84C264.48 322.64 264.16 323.76 264.16 325.2C264.16 326.56 264.48 327.68 265.2 328.56C265.84 329.36 266.72 329.84 267.76 329.84C268.96 329.84 269.92 329.28 270.72 328.32L269.84 327.12C269.44 327.84 268.72 328.16 267.84 328.16C267.28 328.16 266.8 328 266.32 327.6C265.92 327.2 265.68 326.64 265.6 326H271.2ZM265.6 324.56C265.6 323.84 265.84 323.28 266.32 322.8C266.72 322.4 267.2 322.24 267.76 322.24C268.32 322.24 268.8 322.4 269.12 322.8C269.52 323.2 269.68 323.76 269.68 324.56H265.6Z" fill="black"/>
<path fill-rule="evenodd" clip-rule="evenodd" d="M276.56 322.48H276.64V320.56C276.16 320.64 275.76 320.8 275.36 321.12C274.96 321.52 274.56 322 274.32 322.56V320.72H272.88V329.68H274.32V325.84C274.32 324.8 274.56 324 274.88 323.36C275.28 322.8 275.84 322.48 276.56 322.48Z" fill="black"/>
<path fill-rule="evenodd" clip-rule="evenodd" d="M284.72 329.84C285.84 329.84 286.64 329.28 287.2 328.32V329.68H288.64V317.2H287.2V322.08C286.56 321.12 285.84 320.56 284.88 320.56C283.92 320.56 283.12 321.04 282.4 321.84C281.76 322.64 281.36 323.76 281.36 325.2C281.36 326.56 281.68 327.68 282.4 328.56C283.04 329.36 283.84 329.84 284.72 329.84ZM282.88 325.2C282.88 324.4 283.12 323.68 283.52 323.12C283.92 322.56 284.48 322.24 285.04 322.24C285.68 322.24 286.16 322.56 286.56 323.12C286.96 323.68 287.2 324.4 287.2 325.2C287.2 326.08 286.96 326.8 286.56 327.36C286.16 327.84 285.68 328.16 285.12 328.16C284.48 328.16 284 327.84 283.52 327.36C283.12 326.8 282.88 326.08 282.88 325.2Z" fill="black"/>
<path fill-rule="evenodd" clip-rule="evenodd" d="M296.64 329.68V323.92C296.64 322.8 296.32 321.92 295.84 321.36C295.28 320.88 294.56 320.56 293.76 320.56C292.64 320.56 291.68 321.04 290.8 321.92L291.52 323.04C292.16 322.48 292.88 322.16 293.52 322.16C294.56 322.16 295.12 322.72 295.12 323.92V324.24H293.2C292.32 324.24 291.6 324.48 291.12 324.96C290.56 325.36 290.32 326 290.32 326.88C290.32 327.76 290.56 328.48 291.04 329.04C291.52 329.52 292.16 329.84 292.88 329.84C293.84 329.84 294.64 329.36 295.28 328.48V329.68H296.64ZM295.12 326.32C295.12 326.88 294.96 327.36 294.56 327.68C294.24 328 293.84 328.24 293.36 328.24C292.88 328.24 292.48 328.08 292.24 327.84C291.92 327.6 291.84 327.28 291.84 326.88C291.84 326.4 291.92 326.08 292.24 325.92C292.48 325.68 292.88 325.6 293.44 325.6H295.12V326.32Z" fill="black"/>
<path fill-rule="evenodd" clip-rule="evenodd" d="M299.6 333.2C300.08 333.2 300.48 333.04 300.88 332.72C301.28 332.4 301.52 331.92 301.76 331.36L305.2 320.72H303.6L301.44 327.28L299.36 320.72H297.76C299.68 326.72 300.64 329.76 300.64 329.92C300.64 330.24 300.48 330.64 300.32 330.88C300.08 331.2 299.84 331.36 299.52 331.36C299.12 331.36 298.8 331.2 298.48 330.8L297.84 332.32C298.32 332.96 298.96 333.2 299.6 333.2Z" fill="black"/>
<path fill-rule="evenodd" clip-rule="evenodd" d="M198.48 21.6003V5.12038L204.4 19.7603H205.92L211.84 5.12038V21.6003H214.64V0.480394H210.24L205.2 13.7604L200.08 0.480394H195.68V21.6003" fill="black"/>
<path fill-rule="evenodd" clip-rule="evenodd" d="M229.36 21.6003V11.2804C229.36 9.20036 228.88 7.68037 227.92 6.72037C226.96 5.76037 225.76 5.28037 224.24 5.28037C222.24 5.28037 220.48 6.08037 218.96 7.60037L220.16 9.76036C221.44 8.64036 222.64 8.16037 223.84 8.16037C225.76 8.16037 226.64 9.20036 226.64 11.3604V11.9204H223.2C221.6 11.9204 220.32 12.3204 219.44 13.1204C218.48 13.9204 218 15.0403 218 16.6403C218 18.2403 218.48 19.5203 219.36 20.4803C220.16 21.4403 221.28 21.8403 222.64 21.8403C224.4 21.8403 225.84 21.0403 226.88 19.5203V21.6003H229.36ZM226.64 15.6803C226.64 16.6403 226.32 17.5203 225.68 18.0803C225.04 18.7203 224.32 19.0403 223.44 19.0403C222.56 19.0403 221.92 18.8003 221.44 18.4003C220.96 18.0003 220.72 17.3603 220.72 16.5603C220.72 15.8403 220.96 15.2803 221.44 14.8803C221.92 14.4804 222.64 14.3204 223.6 14.3204H226.64V15.6803Z" fill="black"/>
<path fill-rule="evenodd" clip-rule="evenodd" d="M240 5.28032C238.24 5.28032 236.88 6.32032 235.84 8.40031V5.52032H233.12V27.5203H235.84V19.2003C237.12 20.9603 238.56 21.8403 240.16 21.8403C241.76 21.8403 243.2 21.1203 244.4 19.5203C245.6 18.0003 246.24 16.0003 246.24 13.5203C246.24 11.0403 245.6 9.04031 244.4 7.52031C243.2 6.08032 241.68 5.28032 240 5.28032ZM235.76 13.6003C235.76 12.0803 236.16 10.8003 236.88 9.84031C237.6 8.80031 238.48 8.24031 239.6 8.24031C240.64 8.24031 241.6 8.80031 242.32 9.84031C243.12 10.8003 243.52 12.0803 243.52 13.6003C243.52 15.2003 243.12 16.4003 242.32 17.4403C241.52 18.4003 240.64 18.8803 239.6 18.8803C238.48 18.8803 237.6 18.4003 236.88 17.3603C236.16 16.4003 235.76 15.1203 235.76 13.6003Z" fill="black"/>
<path fill-rule="evenodd" clip-rule="evenodd" d="M268.88 0.480333V16.3203L259.12 0.480333H256.24V21.6003H259.12V6.24032L268.64 21.6003H271.76V0.480333" fill="black"/>
<path fill-rule="evenodd" clip-rule="evenodd" d="M286.72 19.4403C288 17.8403 288.64 15.9203 288.64 13.6004C288.64 11.2804 288 9.28036 286.72 7.68037C285.44 6.08037 283.84 5.28037 281.92 5.28037C280 5.28037 278.4 6.08037 277.12 7.68037C275.84 9.28036 275.2 11.2804 275.2 13.6004C275.2 15.9203 275.84 17.8403 277.12 19.4403C278.4 21.0403 280 21.8403 281.92 21.8403C283.84 21.8403 285.44 21.0403 286.72 19.4403ZM279.04 17.3603C278.24 16.4003 277.92 15.1203 277.92 13.6004C277.92 12.0804 278.24 10.8004 279.04 9.84036C279.76 8.80036 280.8 8.32037 281.92 8.32037C283.12 8.32037 284.08 8.80036 284.8 9.84036C285.6 10.8004 286 12.0804 286 13.6004C286 15.1203 285.6 16.4003 284.8 17.3603C284.08 18.4003 283.12 18.8803 281.92 18.8803C280.8 18.8803 279.76 18.4003 279.04 17.3603Z" fill="black"/>
<path fill-rule="evenodd" clip-rule="evenodd" d="M291.92 21.2003C292.24 21.6803 292.64 21.8403 293.12 21.8403C293.68 21.8403 294.08 21.6803 294.4 21.2003C294.8 20.8003 294.96 20.2403 294.96 19.6003C294.96 18.9603 294.8 18.4803 294.4 18.0003C294.08 17.6003 293.68 17.3603 293.12 17.3603C292.64 17.3603 292.24 17.6003 291.92 18.0003C291.52 18.4803 291.36 18.9603 291.36 19.6003C291.36 20.2403 291.52 20.8003 291.92 21.2003Z" fill="black"/>
<path fill-rule="evenodd" clip-rule="evenodd" d="M311.2 13.0404H307.2L313.28 0.480394H310.16L304 13.2004V16.3204H311.2V21.6003H313.92V16.3204H315.92V13.0404H313.92V9.20037H311.2" fill="black"/>
<path d="M406.393 263.688H298.473" stroke="black" stroke-width="4.71999" stroke-miterlimit="10" stroke-linejoin="round" stroke-dasharray="15.84 5.28"/>
<path d="M406.393 243.688H281.433" stroke="black" stroke-width="4.71999" stroke-miterlimit="10" stroke-linejoin="round" stroke-dasharray="1.36 4"/>
<path d="M406.4 303.76H324.56" stroke="black" stroke-width="8.47998" stroke-miterlimit="10" stroke-linejoin="round"/>
</svg>
