<svg width="511" height="474" viewBox="0 0 511 474" fill="none" xmlns="http://www.w3.org/2000/svg">
<path d="M479.44 278.56H285.36" stroke="#CC0000" stroke-width="4.71999" stroke-miterlimit="10" stroke-linejoin="round"/>
<path d="M479.44 318.64H175.521" stroke="#C8C8C8" stroke-width="1.92" stroke-miterlimit="10" stroke-linejoin="round"/>
<path d="M343.52 357.28H173.44" stroke="black" stroke-width="2.79999" stroke-miterlimit="10" stroke-linejoin="round"/>
<path d="M173.44 359.04V353.04" stroke="black" stroke-width="2.79999" stroke-miterlimit="10" stroke-linejoin="round"/>
<path d="M230.16 359.04V353.04" stroke="black" stroke-width="2.79999" stroke-miterlimit="10" stroke-linejoin="round"/>
<path d="M286.88 359.04V353.04" stroke="black" stroke-width="2.79999" stroke-miterlimit="10" stroke-linejoin="round"/>
<path d="M343.52 359.04V353.04" stroke="black" stroke-width="2.79999" stroke-miterlimit="10" stroke-linejoin="round"/>
<path d="M230.16 359.04H173.44" stroke="black" stroke-width="3.75999" stroke-miterlimit="10" stroke-linejoin="round"/>
<path d="M286.88 359.04H230.16" stroke="black" stroke-width="3.75999" stroke-miterlimit="10" stroke-linejoin="round"/>
<path d="M343.52 359.04H286.88" stroke="black" stroke-width="3.75999" stroke-miterlimit="10" stroke-linejoin="round"/>
<path d="M400.24 357.28H343.52" stroke="black" stroke-width="2.79999" stroke-miterlimit="10" stroke-linejoin="round"/>
<path d="M400.24 359.04V353.04" stroke="black" stroke-width="2.79999" stroke-miterlimit="10" stroke-linejoin="round"/>
<path d="M400.24 359.04H343.52" stroke="black" stroke-width="3.75999" stroke-miterlimit="10" stroke-linejoin="round"/>
<path fill-rule="evenodd" clip-rule="evenodd" d="M115.76 170.16H124.16L125.84 174.96H128.88L121.44 153.84H118.4L111.04 174.96H114L115.76 170.16ZM122.96 166.88H116.88L119.92 158.16L122.96 166.88Z" fill="black"/>
<path fill-rule="evenodd" clip-rule="evenodd" d="M134.08 174.96V158.48L139.92 173.12H141.52L147.36 158.48V174.96H150.24V153.84H145.84L140.72 167.12L135.68 153.84H131.2V174.96" fill="black"/>
<path fill-rule="evenodd" clip-rule="evenodd" d="M160.72 153.84H154.88V174.96H157.76V168.8H160.72C163.2 168.8 165.04 168.16 166.24 167.04C167.44 165.84 168 163.92 168 161.36C168 158.8 167.44 156.96 166.24 155.68C165.12 154.48 163.2 153.84 160.72 153.84ZM161.04 165.52H157.76V157.12H160.64C162.16 157.12 163.28 157.36 164 158C164.72 158.64 165.12 159.6 165.12 161.12C165.12 162.56 164.8 163.68 164.24 164.4C163.68 165.2 162.64 165.52 161.04 165.52Z" fill="black"/>
<path fill-rule="evenodd" clip-rule="evenodd" d="M171.36 174.96H174.24V166.32H182.56V174.96H185.44V153.84H182.56V163.04H174.24V153.84H171.36" fill="black"/>
<path d="M190.073 174.968H192.953V153.848H190.073V174.968Z" fill="black"/>
<path fill-rule="evenodd" clip-rule="evenodd" d="M203.92 157.12H209.04V153.84H196V157.12H201.12V174.96H203.92" fill="black"/>
<path fill-rule="evenodd" clip-rule="evenodd" d="M225.6 160.72C225.6 158.32 225.04 156.56 223.92 155.52C222.8 154.4 220.96 153.84 218.4 153.84H212.16V174.96H214.96V167.92H218.72L222.72 174.96H226.4L221.92 167.28C224.4 166.4 225.6 164.24 225.6 160.72ZM218.56 164.64H214.96V157.12H218.64C220.16 157.12 221.2 157.36 221.76 157.84C222.4 158.4 222.64 159.36 222.64 160.72C222.64 162.08 222.4 163.12 221.84 163.68C221.2 164.32 220.16 164.64 218.56 164.64Z" fill="black"/>
<path fill-rule="evenodd" clip-rule="evenodd" d="M243.76 172.08C245.44 170 246.32 167.36 246.32 164.24C246.32 161.12 245.44 158.56 243.76 156.48C242.08 154.4 240 153.36 237.44 153.36C234.96 153.36 232.88 154.4 231.12 156.48C229.44 158.56 228.64 161.12 228.64 164.24C228.64 167.36 229.44 170 231.12 172.08C232.88 174.16 234.96 175.2 237.44 175.2C240 175.2 242.08 174.16 243.76 172.08ZM241.68 158.88C242.88 160.32 243.44 162.16 243.44 164.24C243.44 166.4 242.88 168.24 241.68 169.68C240.56 171.2 239.12 171.92 237.44 171.92C235.76 171.92 234.4 171.2 233.2 169.68C232.08 168.24 231.52 166.4 231.52 164.24C231.52 162.16 232.08 160.32 233.2 158.88C234.4 157.36 235.76 156.64 237.44 156.64C239.12 156.64 240.56 157.36 241.68 158.88Z" fill="black"/>
<path fill-rule="evenodd" clip-rule="evenodd" d="M255.04 156.64C255.84 156.64 256.64 156.8 257.52 157.2C258.4 157.52 259.04 158 259.52 158.56L261.04 155.92C260.32 155.04 259.36 154.48 258.32 154C257.28 153.6 256.16 153.36 255.12 153.36C253.44 153.36 252.08 153.84 250.88 154.96C249.76 156 249.2 157.52 249.2 159.44C249.2 161.44 249.68 162.88 250.72 163.84C251.2 164.32 251.76 164.72 252.4 165.04C253.04 165.36 254 165.68 255.2 166.08C256.48 166.4 257.36 166.88 257.84 167.28C258.32 167.76 258.64 168.4 258.64 169.2C258.64 170 258.32 170.64 257.84 171.2C257.28 171.68 256.56 171.92 255.6 171.92C253.76 171.92 252 170.96 250.32 169.12L248.56 171.84C249.6 172.96 250.64 173.84 251.84 174.4C252.96 174.96 254.24 175.2 255.52 175.2C257.36 175.2 258.8 174.64 259.92 173.52C261.04 172.32 261.6 170.88 261.6 169.04C261.6 167.2 261.12 165.76 260.24 164.8C259.36 163.92 258.08 163.12 256.32 162.64C254.64 162.08 253.52 161.6 252.96 161.12C252.48 160.72 252.16 160.08 252.16 159.2C252.16 158.32 252.48 157.68 252.96 157.28C253.52 156.88 254.16 156.64 255.04 156.64Z" fill="black"/>
<path fill-rule="evenodd" clip-rule="evenodd" d="M285.12 160.72C285.12 158.32 284.56 156.56 283.44 155.52C282.32 154.4 280.48 153.84 277.92 153.84H271.68V174.96H274.56V167.92H278.24L282.24 174.96H285.92L281.52 167.28C283.92 166.4 285.12 164.24 285.12 160.72ZM278.08 164.64H274.56V157.12H278.16C279.68 157.12 280.72 157.36 281.28 157.84C281.92 158.4 282.24 159.36 282.24 160.72C282.24 162.08 281.92 163.12 281.36 163.68C280.8 164.32 279.68 164.64 278.08 164.64Z" fill="black"/>
<path fill-rule="evenodd" clip-rule="evenodd" d="M291.6 170.16H300L301.68 174.96H304.72L297.36 153.84H294.32L286.88 174.96H289.92L291.6 170.16ZM298.88 166.88H292.72L295.84 158.16L298.88 166.88Z" fill="black"/>
<path d="M307.113 174.968H309.913V153.848H307.113V174.968Z" fill="black"/>
<path fill-rule="evenodd" clip-rule="evenodd" d="M314.64 174.96H325.12V171.6H317.44V153.84H314.64" fill="black"/>
<path fill-rule="evenodd" clip-rule="evenodd" d="M333.52 169.04L329.28 153.84H326.16L332.08 174.96H334.88L338.4 160.48H338.64L342.16 174.96H344.96L350.88 153.84H347.84L343.6 169.04L339.84 153.84H337.28" fill="black"/>
<path fill-rule="evenodd" clip-rule="evenodd" d="M355.84 170.16H364.32L366 174.96H369.04L361.6 153.84H358.56L351.12 174.96H354.16L355.84 170.16ZM363.12 166.88H357.04L360.08 158.16L363.12 166.88Z" fill="black"/>
<path fill-rule="evenodd" clip-rule="evenodd" d="M378 174.96V166.64L384.24 153.84H381.12L376.56 163.44L371.92 153.84H368.88L375.12 166.64V174.96" fill="black"/>
<path fill-rule="evenodd" clip-rule="evenodd" d="M391.52 156.64C392.32 156.64 393.12 156.8 394 157.2C394.88 157.52 395.52 158 396 158.56L397.52 155.92C396.8 155.04 395.84 154.48 394.8 154C393.76 153.6 392.64 153.36 391.6 153.36C389.92 153.36 388.56 153.84 387.36 154.96C386.24 156 385.68 157.52 385.68 159.44C385.68 161.44 386.16 162.88 387.2 163.84C387.68 164.32 388.24 164.72 388.88 165.04C389.52 165.36 390.48 165.68 391.68 166.08C392.96 166.4 393.84 166.88 394.32 167.28C394.8 167.76 395.12 168.4 395.12 169.2C395.12 170 394.8 170.64 394.32 171.2C393.76 171.68 393.04 171.92 392.08 171.92C390.24 171.92 388.48 170.96 386.8 169.12L385.04 171.84C386.08 172.96 387.12 173.84 388.32 174.4C389.44 174.96 390.72 175.2 392 175.2C393.84 175.2 395.28 174.64 396.4 173.52C397.52 172.32 398.08 170.88 398.08 169.04C398.08 167.2 397.6 165.76 396.72 164.8C395.84 163.92 394.56 163.12 392.8 162.64C391.12 162.08 390 161.6 389.44 161.12C388.96 160.72 388.64 160.08 388.64 159.2C388.64 158.32 388.96 157.68 389.44 157.28C390 156.88 390.64 156.64 391.52 156.64Z" fill="black"/>
<path fill-rule="evenodd" clip-rule="evenodd" d="M196.24 21.6003V5.12038L202.08 19.7603H203.68L209.52 5.12038V21.6003H212.4V0.480394H208L202.88 13.7604L197.84 0.480394H193.36V21.6003" fill="black"/>
<path fill-rule="evenodd" clip-rule="evenodd" d="M227.04 21.6003V11.2804C227.04 9.20036 226.56 7.68037 225.6 6.72037C224.64 5.76037 223.44 5.28037 221.92 5.28037C220 5.28037 218.16 6.08037 216.64 7.60037L217.84 9.76036C219.12 8.64036 220.4 8.16037 221.52 8.16037C223.44 8.16037 224.4 9.20036 224.4 11.3604V11.9204H220.88C219.28 11.9204 218.08 12.3204 217.12 13.1204C216.16 13.9204 215.76 15.0403 215.76 16.6403C215.76 18.2403 216.16 19.5203 217.04 20.4803C217.92 21.4403 219.04 21.8403 220.32 21.8403C222.16 21.8403 223.52 21.0403 224.64 19.5203V21.6003H227.04ZM224.4 15.6803C224.4 16.6403 224.08 17.5203 223.44 18.0803C222.8 18.7203 222 19.0403 221.12 19.0403C220.32 19.0403 219.6 18.8003 219.12 18.4003C218.64 18.0003 218.4 17.3603 218.4 16.5603C218.4 15.8403 218.64 15.2803 219.12 14.8803C219.6 14.4804 220.4 14.3204 221.36 14.3204H224.4V15.6803Z" fill="black"/>
<path fill-rule="evenodd" clip-rule="evenodd" d="M237.68 5.28032C236 5.28032 234.56 6.32032 233.52 8.40031V5.52032H230.8V27.5203H233.52V19.2003C234.8 20.9603 236.24 21.8403 237.84 21.8403C239.52 21.8403 240.88 21.1203 242.08 19.5203C243.28 18.0003 243.92 16.0003 243.92 13.5203C243.92 11.0403 243.28 9.04031 242.08 7.52031C240.88 6.08032 239.44 5.28032 237.68 5.28032ZM233.44 13.6003C233.44 12.0803 233.84 10.8003 234.56 9.84031C235.28 8.80031 236.24 8.24031 237.28 8.24031C238.4 8.24031 239.28 8.80031 240.08 9.84031C240.88 10.8003 241.2 12.0803 241.2 13.6003C241.2 15.2003 240.8 16.4003 240.08 17.4403C239.28 18.4003 238.32 18.8803 237.28 18.8803C236.24 18.8803 235.28 18.4003 234.56 17.3603C233.84 16.4003 233.44 15.1203 233.44 13.6003Z" fill="black"/>
<path fill-rule="evenodd" clip-rule="evenodd" d="M266.64 0.480394V16.3204L256.8 0.480394H254V21.6003H256.8V6.24038L266.4 21.6003H269.44V0.480394" fill="black"/>
<path fill-rule="evenodd" clip-rule="evenodd" d="M284.48 19.4403C285.76 17.8403 286.4 15.9203 286.4 13.6004C286.4 11.2804 285.76 9.28036 284.48 7.68037C283.2 6.08037 281.6 5.28037 279.68 5.28037C277.76 5.28037 276.08 6.08037 274.8 7.68037C273.52 9.28036 272.88 11.2804 272.88 13.6004C272.88 15.9203 273.52 17.8403 274.8 19.4403C276.08 21.0403 277.76 21.8403 279.68 21.8403C281.6 21.8403 283.2 21.0403 284.48 19.4403ZM276.72 17.3603C276 16.4003 275.6 15.1203 275.6 13.6004C275.6 12.0804 276 10.8004 276.72 9.84036C277.52 8.80036 278.48 8.32037 279.68 8.32037C280.8 8.32037 281.76 8.80036 282.56 9.84036C283.28 10.8004 283.68 12.0804 283.68 13.6004C283.68 15.1203 283.28 16.4003 282.56 17.3603C281.76 18.4003 280.8 18.8803 279.68 18.8803C278.48 18.8803 277.52 18.4003 276.72 17.3603Z" fill="black"/>
<path fill-rule="evenodd" clip-rule="evenodd" d="M289.6 21.2003C289.92 21.6803 290.4 21.8403 290.88 21.8403C291.36 21.8403 291.76 21.6803 292.16 21.2003C292.48 20.8003 292.64 20.2403 292.64 19.6003C292.64 18.9603 292.48 18.4803 292.16 18.0003C291.76 17.6003 291.36 17.3603 290.88 17.3603C290.4 17.3603 289.92 17.6003 289.6 18.0003C289.28 18.4803 289.12 18.9603 289.12 19.6003C289.12 20.2403 289.28 20.8003 289.6 21.2003Z" fill="black"/>
<path fill-rule="evenodd" clip-rule="evenodd" d="M301.52 0.480394V3.68039H304.96V21.6003H307.68V0.480394" fill="black"/>
<path fill-rule="evenodd" clip-rule="evenodd" d="M310.72 0.480394V3.68039H314.16V21.6003H316.8V0.480394" fill="black"/>
<path fill-rule="evenodd" clip-rule="evenodd" d="M124.96 235.68C126.72 233.6 127.52 231.04 127.52 227.92C127.52 224.8 126.72 222.16 124.96 220.08C123.28 218 121.2 216.96 118.64 216.96C116.16 216.96 114.08 218 112.4 220.08C110.64 222.16 109.84 224.8 109.84 227.92C109.84 231.04 110.64 233.6 112.4 235.68C114.08 237.76 116.16 238.8 118.64 238.8C121.2 238.8 123.28 237.76 124.96 235.68ZM122.88 222.48C124.08 224 124.64 225.76 124.64 227.92C124.64 230 124.08 231.84 122.88 233.36C121.76 234.8 120.32 235.6 118.64 235.6C117.04 235.6 115.6 234.8 114.48 233.36C113.28 231.84 112.72 230 112.72 227.92C112.72 225.76 113.28 224 114.48 222.48C115.6 220.96 117.04 220.24 118.64 220.24C120.32 220.24 121.76 220.96 122.88 222.48Z" fill="black"/>
<path fill-rule="evenodd" clip-rule="evenodd" d="M134 220.8H142.32V217.52H131.12V238.64H134V229.92H141.44V226.64H134" fill="black"/>
<path fill-rule="evenodd" clip-rule="evenodd" d="M165.68 224.32C165.68 221.92 165.12 220.24 164.08 219.12C162.96 218 161.12 217.52 158.56 217.52H152.24V238.64H155.12V231.52H158.88L162.88 238.64H166.48L162.08 230.96C164.48 230 165.68 227.84 165.68 224.32ZM158.64 228.24H155.12V220.72H158.72C160.24 220.72 161.28 220.96 161.92 221.52C162.48 222 162.8 222.96 162.8 224.32C162.8 225.68 162.48 226.72 161.92 227.36C161.36 228 160.24 228.24 158.64 228.24Z" fill="black"/>
<path fill-rule="evenodd" clip-rule="evenodd" d="M172.16 233.84H180.64L182.32 238.64H185.36L177.92 217.52H174.88L167.44 238.64H170.48L172.16 233.84ZM179.44 230.48H173.36L176.4 221.84L179.44 230.48Z" fill="black"/>
<path d="M187.673 238.648H190.553V217.528H187.673V238.648Z" fill="black"/>
<path fill-rule="evenodd" clip-rule="evenodd" d="M195.2 238.64H205.76V235.2H198.08V217.52H195.2" fill="black"/>
<path fill-rule="evenodd" clip-rule="evenodd" d="M214.08 232.72L209.84 217.52H206.8L212.64 238.64H215.52L219.04 224.16H219.2L222.72 238.64H225.6L231.44 217.52H228.4L224.16 232.72L220.4 217.52H217.84" fill="black"/>
<path fill-rule="evenodd" clip-rule="evenodd" d="M236.48 233.84H244.88L246.56 238.64H249.6L242.16 217.52H239.2L231.76 238.64H234.8L236.48 233.84ZM243.76 230.48H237.6L240.72 221.84L243.76 230.48Z" fill="black"/>
<path fill-rule="evenodd" clip-rule="evenodd" d="M258.56 238.64V230.24L264.88 217.52H261.76L257.12 227.12L252.56 217.52H249.44L255.68 230.24V238.64" fill="black"/>
<path fill-rule="evenodd" clip-rule="evenodd" d="M286.24 217.52V233.28L276.4 217.52H273.6V238.64H276.4V223.2L286 238.64H289.04V217.52" fill="black"/>
<path fill-rule="evenodd" clip-rule="evenodd" d="M305.52 217.52H293.76V238.64H305.84V235.28H296.56V229.6H304.64V226.4H296.56V220.88H305.52" fill="black"/>
<path fill-rule="evenodd" clip-rule="evenodd" d="M315.84 220.72H320.96V217.52H307.92V220.72H312.96V238.64H315.84" fill="black"/>
<path fill-rule="evenodd" clip-rule="evenodd" d="M329.28 232.72L325.04 217.52H322L327.84 238.64H330.72L334.24 224.16H334.4L337.92 238.64H340.8L346.64 217.52H343.6L339.36 232.72L335.6 217.52H333.04" fill="black"/>
<path fill-rule="evenodd" clip-rule="evenodd" d="M363.36 235.68C365.04 233.6 365.92 231.04 365.92 227.92C365.92 224.8 365.04 222.16 363.36 220.08C361.68 218 359.6 216.96 357.04 216.96C354.56 216.96 352.48 218 350.72 220.08C349.04 222.16 348.16 224.8 348.16 227.92C348.16 231.04 349.04 233.6 350.72 235.68C352.48 237.76 354.56 238.8 357.04 238.8C359.6 238.8 361.68 237.76 363.36 235.68ZM361.28 222.48C362.4 224 363.04 225.76 363.04 227.92C363.04 230 362.4 231.84 361.28 233.36C360.16 234.8 358.72 235.6 357.04 235.6C355.36 235.6 354 234.8 352.8 233.36C351.68 231.84 351.12 230 351.12 227.92C351.12 225.76 351.68 224 352.8 222.48C354 220.96 355.36 220.24 357.04 220.24C358.72 220.24 360.16 220.96 361.28 222.48Z" fill="black"/>
<path fill-rule="evenodd" clip-rule="evenodd" d="M382.96 224.32C382.96 221.92 382.4 220.24 381.28 219.12C380.16 218 378.32 217.52 375.76 217.52H369.52V238.64H372.32V231.52H376.08L380.08 238.64H383.76L379.28 230.96C381.76 230 382.96 227.84 382.96 224.32ZM375.92 228.24H372.32V220.72H376C377.52 220.72 378.56 220.96 379.12 221.52C379.76 222 380 222.96 380 224.32C380 225.68 379.76 226.72 379.2 227.36C378.56 228 377.52 228.24 375.92 228.24Z" fill="black"/>
<path fill-rule="evenodd" clip-rule="evenodd" d="M387.04 217.52V238.64H389.92V232.72L392.32 229.36L397.92 238.64H401.28L394.48 226.72L401.2 217.52H397.6L389.92 227.76V217.52" fill="black"/>
<path fill-rule="evenodd" clip-rule="evenodd" d="M73.3601 188.8H67.6001V209.92H70.4801V203.68H73.4401C75.9201 203.68 77.7601 203.12 78.9601 201.92C80.1601 200.72 80.7201 198.88 80.7201 196.32C80.7201 193.76 80.1601 191.84 78.9601 190.64C77.8401 189.36 75.9201 188.8 73.3601 188.8ZM73.7601 200.48H70.4801V192H73.3601C74.8801 192 76.0001 192.32 76.7201 192.88C77.4401 193.52 77.8401 194.56 77.8401 196C77.8401 197.44 77.5201 198.56 76.9601 199.36C76.4001 200.08 75.3601 200.48 73.7601 200.48Z" fill="black"/>
<path fill-rule="evenodd" clip-rule="evenodd" d="M97.52 195.6C97.52 193.2 96.96 191.52 95.84 190.4C94.8001 189.28 92.9601 188.8 90.3201 188.8H84.0801V209.92H86.9601V202.8H90.6401L94.7201 209.92H98.32L93.9201 202.24C96.32 201.28 97.52 199.12 97.52 195.6ZM90.4801 199.6H86.9601V192H90.5601C92.0801 192 93.1201 192.24 93.7601 192.8C94.3201 193.28 94.6401 194.24 94.6401 195.6C94.6401 197.04 94.3201 198 93.7601 198.64C93.2001 199.28 92.0801 199.6 90.4801 199.6Z" fill="black"/>
<path fill-rule="evenodd" clip-rule="evenodd" d="M115.68 206.96C117.44 204.88 118.24 202.32 118.24 199.2C118.24 196.08 117.44 193.44 115.68 191.36C114 189.28 111.92 188.24 109.44 188.24C106.88 188.24 104.8 189.28 103.12 191.36C101.36 193.44 100.56 196.08 100.56 199.2C100.56 202.32 101.36 204.88 103.12 206.96C104.8 209.04 106.88 210.08 109.44 210.08C111.92 210.08 114 209.04 115.68 206.96ZM113.6 193.76C114.8 195.28 115.36 197.04 115.36 199.2C115.36 201.28 114.8 203.12 113.6 204.64C112.48 206.08 111.04 206.88 109.44 206.88C107.76 206.88 106.32 206.08 105.2 204.64C104 203.12 103.44 201.28 103.44 199.2C103.44 197.04 104 195.28 105.2 193.76C106.32 192.24 107.76 191.52 109.44 191.52C111.04 191.52 112.48 192.24 113.6 193.76Z" fill="black"/>
<path fill-rule="evenodd" clip-rule="evenodd" d="M127.6 188.8H121.84V209.92H124.72V203.68H127.68C130.16 203.68 132 203.12 133.2 201.92C134.4 200.72 134.96 198.88 134.96 196.32C134.96 193.76 134.4 191.84 133.2 190.64C132.08 189.36 130.16 188.8 127.6 188.8ZM128 200.48H124.72V192H127.6C129.12 192 130.24 192.32 130.96 192.88C131.68 193.52 132.08 194.56 132.08 196C132.08 197.44 131.76 198.56 131.2 199.36C130.64 200.08 129.6 200.48 128 200.48Z" fill="black"/>
<path fill-rule="evenodd" clip-rule="evenodd" d="M152.4 206.96C154.16 204.88 154.96 202.32 154.96 199.2C154.96 196.08 154.16 193.44 152.4 191.36C150.72 189.28 148.64 188.24 146.08 188.24C143.6 188.24 141.52 189.28 139.76 191.36C138.08 193.44 137.28 196.08 137.28 199.2C137.28 202.32 138.08 204.88 139.76 206.96C141.52 209.04 143.6 210.08 146.08 210.08C148.64 210.08 150.72 209.04 152.4 206.96ZM150.32 193.76C151.52 195.28 152.08 197.04 152.08 199.2C152.08 201.28 151.52 203.12 150.32 204.64C149.2 206.08 147.76 206.88 146.08 206.88C144.4 206.88 143.04 206.08 141.92 204.64C140.72 203.12 140.16 201.28 140.16 199.2C140.16 197.04 140.72 195.28 141.92 193.76C143.04 192.24 144.4 191.52 146.08 191.52C147.76 191.52 149.2 192.24 150.32 193.76Z" fill="black"/>
<path fill-rule="evenodd" clip-rule="evenodd" d="M163.68 191.52C164.48 191.52 165.28 191.76 166.16 192.08C167.04 192.48 167.68 192.96 168.16 193.52L169.68 190.8C168.96 190 168 189.36 166.96 188.96C165.92 188.48 164.8 188.24 163.76 188.24C162.08 188.24 160.72 188.8 159.52 189.84C158.4 190.88 157.84 192.4 157.84 194.4C157.84 196.32 158.32 197.76 159.36 198.72C159.84 199.2 160.4 199.6 161.04 199.92C161.68 200.24 162.64 200.56 163.92 200.96C165.12 201.36 166 201.76 166.48 202.24C167.04 202.64 167.28 203.28 167.28 204.08C167.28 204.96 166.96 205.6 166.48 206.08C165.92 206.56 165.2 206.8 164.24 206.8C162.4 206.8 160.64 205.92 158.96 204L157.2 206.72C158.24 207.84 159.28 208.72 160.48 209.28C161.6 209.84 162.88 210.16 164.16 210.16C166 210.16 167.44 209.6 168.56 208.4C169.68 207.28 170.24 205.76 170.24 203.92C170.24 202.08 169.76 200.72 168.88 199.76C168 198.8 166.72 198.08 165.04 197.52C163.28 197.04 162.16 196.56 161.6 196.08C161.12 195.6 160.8 194.96 160.8 194.08C160.8 193.28 161.12 192.64 161.6 192.16C162.16 191.76 162.8 191.52 163.68 191.52Z" fill="black"/>
<path fill-rule="evenodd" clip-rule="evenodd" d="M185.52 188.8H173.76V209.92H185.84V206.56H176.56V200.88H184.64V197.76H176.56V192.16H185.52" fill="black"/>
<path fill-rule="evenodd" clip-rule="evenodd" d="M195.28 188.8H189.52V209.92H195.04C198.32 209.92 200.72 208.96 202.32 207.04C203.84 205.12 204.64 202.48 204.64 199.2C204.64 195.92 203.84 193.36 202.24 191.52C200.64 189.68 198.32 188.8 195.28 188.8ZM201.76 199.36C201.76 201.68 201.28 203.52 200.16 204.72C199.12 205.92 197.52 206.56 195.52 206.56H192.32V192.08H195.2C197.36 192.08 199.04 192.64 200.16 193.92C201.28 195.12 201.76 196.88 201.76 199.36Z" fill="black"/>
<path fill-rule="evenodd" clip-rule="evenodd" d="M228.32 195.6C228.32 193.2 227.84 191.52 226.72 190.4C225.6 189.28 223.76 188.8 221.2 188.8H214.88V209.92H217.76V202.8H221.52L225.52 209.92H229.12L224.72 202.24C227.12 201.28 228.32 199.12 228.32 195.6ZM221.28 199.6H217.76V192H221.36C222.88 192 223.92 192.24 224.56 192.8C225.12 193.28 225.44 194.24 225.44 195.6C225.44 197.04 225.12 198 224.56 198.64C224 199.28 222.88 199.6 221.28 199.6Z" fill="black"/>
<path fill-rule="evenodd" clip-rule="evenodd" d="M234.8 205.12H243.28L244.96 209.92H248L240.56 188.8H237.52L230.08 209.92H233.12L234.8 205.12ZM242.08 201.84H236L239.04 193.12L242.08 201.84Z" fill="black"/>
<path fill-rule="evenodd" clip-rule="evenodd" d="M256.72 192H261.76V188.8H248.72V192H253.84V209.92H256.72" fill="black"/>
<path d="M264.873 209.928H267.753V188.808H264.873V209.928Z" fill="black"/>
<path fill-rule="evenodd" clip-rule="evenodd" d="M286.48 206.96C288.16 204.88 289.04 202.32 289.04 199.2C289.04 196.08 288.16 193.44 286.48 191.36C284.8 189.28 282.72 188.24 280.16 188.24C277.68 188.24 275.6 189.28 273.84 191.36C272.16 193.44 271.28 196.08 271.28 199.2C271.28 202.32 272.16 204.88 273.84 206.96C275.6 209.04 277.68 210.08 280.16 210.08C282.72 210.08 284.8 209.04 286.48 206.96ZM284.4 193.76C285.52 195.28 286.16 197.04 286.16 199.2C286.16 201.28 285.52 203.12 284.4 204.64C283.28 206.08 281.84 206.88 280.16 206.88C278.48 206.88 277.12 206.08 275.92 204.64C274.8 203.12 274.24 201.28 274.24 199.2C274.24 197.04 274.8 195.28 275.92 193.76C277.12 192.24 278.48 191.52 280.16 191.52C281.84 191.52 283.28 192.24 284.4 193.76Z" fill="black"/>
<path fill-rule="evenodd" clip-rule="evenodd" d="M305.28 188.8V204.56L295.44 188.8H292.64V209.92H295.44V194.48L305.04 209.92H308.08V188.8" fill="black"/>
<path fill-rule="evenodd" clip-rule="evenodd" d="M315.12 205.12H323.6L325.28 209.92H328.32L320.88 188.8H317.84L310.4 209.92H313.44L315.12 205.12ZM322.4 201.84H316.32L319.36 193.12L322.4 201.84Z" fill="black"/>
<path fill-rule="evenodd" clip-rule="evenodd" d="M330.64 209.92H341.2V206.48H333.52V188.8H330.64" fill="black"/>
<path d="M344.313 209.928H347.113V188.808H344.313V209.928Z" fill="black"/>
<path fill-rule="evenodd" clip-rule="evenodd" d="M356.88 191.52C357.76 191.52 358.56 191.76 359.44 192.08C360.24 192.48 360.96 192.96 361.44 193.52L362.96 190.8C362.16 190 361.28 189.36 360.24 188.96C359.12 188.48 358.08 188.24 357.04 188.24C355.36 188.24 353.92 188.8 352.8 189.84C351.68 190.88 351.12 192.4 351.12 194.4C351.12 196.32 351.6 197.76 352.56 198.72C353.12 199.2 353.68 199.6 354.32 199.92C354.96 200.24 355.92 200.56 357.12 200.96C358.32 201.36 359.2 201.76 359.76 202.24C360.24 202.64 360.48 203.28 360.48 204.08C360.48 204.96 360.24 205.6 359.68 206.08C359.12 206.56 358.4 206.8 357.52 206.8C355.68 206.8 353.92 205.92 352.24 204L350.4 206.72C351.44 207.84 352.56 208.72 353.68 209.28C354.88 209.84 356.08 210.16 357.44 210.16C359.2 210.16 360.72 209.6 361.76 208.4C362.88 207.28 363.44 205.76 363.44 203.92C363.44 202.08 363.04 200.72 362.16 199.76C361.28 198.8 360 198.08 358.24 197.52C356.48 197.04 355.36 196.56 354.88 196.08C354.32 195.6 354.08 194.96 354.08 194.08C354.08 193.28 354.32 192.64 354.88 192.16C355.36 191.76 356.08 191.52 356.88 191.52Z" fill="black"/>
<path fill-rule="evenodd" clip-rule="evenodd" d="M369.36 205.12H377.76L379.44 209.92H382.48L375.12 188.8H372.08L364.64 209.92H367.68L369.36 205.12ZM376.64 201.84H370.48L373.6 193.12L376.64 201.84Z" fill="black"/>
<path fill-rule="evenodd" clip-rule="evenodd" d="M391.2 192H396.32V188.8H383.28V192H388.4V209.92H391.2" fill="black"/>
<path d="M399.353 209.928H402.233V188.808H399.353V209.928Z" fill="black"/>
<path fill-rule="evenodd" clip-rule="evenodd" d="M421.04 206.96C422.72 204.88 423.52 202.32 423.52 199.2C423.52 196.08 422.72 193.44 421.04 191.36C419.28 189.28 417.2 188.24 414.72 188.24C412.16 188.24 410.08 189.28 408.4 191.36C406.64 193.44 405.84 196.08 405.84 199.2C405.84 202.32 406.64 204.88 408.4 206.96C410.08 209.04 412.16 210.08 414.72 210.08C417.2 210.08 419.28 209.04 421.04 206.96ZM418.88 193.76C420.08 195.28 420.64 197.04 420.64 199.2C420.64 201.28 420.08 203.12 418.88 204.64C417.76 206.08 416.4 206.88 414.72 206.88C413.04 206.88 411.6 206.08 410.48 204.64C409.28 203.12 408.72 201.28 408.72 199.2C408.72 197.04 409.28 195.28 410.48 193.76C411.6 192.24 413.04 191.52 414.72 191.52C416.4 191.52 417.76 192.24 418.88 193.76Z" fill="black"/>
<path fill-rule="evenodd" clip-rule="evenodd" d="M439.76 188.8V204.56L430 188.8H427.12V209.92H430V194.48L439.52 209.92H442.64V188.8" fill="black"/>
<path fill-rule="evenodd" clip-rule="evenodd" d="M110.08 359.04V357.04L110.96 355.92L112.64 359.04H114.08L111.76 354.8L113.92 351.92H112.32L110.08 354.96V349.12H108.88V359.04" fill="black"/>
<path d="M115.034 359.048H116.234V351.928H115.034V359.048Z" fill="black"/>
<path fill-rule="evenodd" clip-rule="evenodd" d="M115.12 350.56C115.28 350.72 115.44 350.8 115.68 350.8C115.84 350.8 116.08 350.72 116.16 350.56C116.32 350.32 116.4 350.16 116.4 349.84C116.4 349.6 116.32 349.36 116.16 349.2C116.08 349.04 115.84 348.88 115.68 348.88C115.44 348.88 115.28 349.04 115.12 349.2C114.96 349.374 114.874 349.604 114.88 349.84C114.88 350.16 114.96 350.32 115.12 350.56Z" fill="black"/>
<path d="M117.994 359.048H119.114V349.128H117.994V359.048Z" fill="black"/>
<path fill-rule="evenodd" clip-rule="evenodd" d="M125.6 358.08C126.16 357.36 126.48 356.56 126.48 355.52C126.48 354.48 126.16 353.6 125.6 352.88C125.04 352.16 124.32 351.84 123.52 351.84C122.64 351.84 121.92 352.16 121.36 352.88C120.8 353.6 120.48 354.48 120.48 355.52C120.48 356.56 120.8 357.36 121.36 358.08C121.92 358.8 122.64 359.12 123.52 359.12C124.32 359.12 125.04 358.8 125.6 358.08ZM122.24 357.2C121.84 356.72 121.68 356.16 121.68 355.52C121.68 354.8 121.84 354.24 122.24 353.84C122.56 353.36 122.96 353.2 123.52 353.2C124 353.2 124.4 353.36 124.8 353.84C125.12 354.24 125.28 354.8 125.28 355.52C125.28 356.16 125.12 356.72 124.8 357.2C124.4 357.6 124 357.84 123.52 357.84C122.96 357.84 122.56 357.6 122.24 357.2Z" fill="black"/>
<path fill-rule="evenodd" clip-rule="evenodd" d="M129.04 355.2C129.04 354.56 129.12 354.08 129.44 353.68C129.76 353.36 130.16 353.2 130.56 353.2C130.96 353.2 131.28 353.36 131.44 353.68C131.6 354 131.76 354.48 131.76 355.12V359.04H132.96V355.12C132.96 354.48 133.12 354 133.36 353.68C133.68 353.36 134.08 353.2 134.48 353.2C135.28 353.2 135.76 353.84 135.76 355.12V359.04H136.96V354.72C136.96 353.76 136.72 353.04 136.32 352.56C135.92 352.08 135.44 351.84 134.8 351.84C134 351.84 133.28 352.32 132.72 353.2C132.4 352.32 131.76 351.84 130.88 351.84C130.48 351.84 130.16 352 129.76 352.24C129.44 352.48 129.2 352.8 129.04 353.28V351.92H127.84V359.04H129.04V355.2Z" fill="black"/>
<path fill-rule="evenodd" clip-rule="evenodd" d="M143.84 356.16V355.12C143.84 354.08 143.6 353.28 143.04 352.72C142.56 352.16 141.84 351.84 141.12 351.84C140.32 351.84 139.68 352.16 139.12 352.8C138.56 353.52 138.24 354.4 138.24 355.52C138.24 356.64 138.56 357.52 139.12 358.16C139.6 358.8 140.32 359.12 141.12 359.12C142.08 359.12 142.88 358.8 143.52 358L142.8 357.04C142.48 357.6 141.92 357.84 141.2 357.84C140.72 357.84 140.32 357.68 140 357.44C139.68 357.12 139.44 356.64 139.44 356.16H143.84ZM139.44 354.96C139.44 354.4 139.6 353.92 139.92 353.6C140.32 353.28 140.72 353.12 141.12 353.12C141.6 353.12 141.92 353.28 142.24 353.6C142.56 353.92 142.72 354.4 142.72 354.96H139.44Z" fill="black"/>
<path fill-rule="evenodd" clip-rule="evenodd" d="M146.64 353.12H148.16V351.92H146.64V349.68H145.44V351.92H144.72V353.12H145.44V356.72C145.44 357.44 145.6 358.08 146 358.48C146.32 358.96 146.8 359.12 147.28 359.12C147.84 359.12 148.24 358.96 148.72 358.48L148.16 357.36C147.92 357.68 147.68 357.84 147.44 357.84C147.2 357.84 147.04 357.76 146.88 357.6C146.72 357.36 146.64 357.12 146.64 356.72V353.12Z" fill="black"/>
<path fill-rule="evenodd" clip-rule="evenodd" d="M152.56 353.36H152.64V351.84C152.32 351.84 151.92 352 151.6 352.24C151.28 352.56 151.04 352.96 150.8 353.36V351.92H149.6V359.04H150.8V356C150.8 355.2 150.96 354.56 151.28 354.08C151.6 353.6 152 353.36 152.56 353.36Z" fill="black"/>
<path fill-rule="evenodd" clip-rule="evenodd" d="M159.12 356.16V355.12C159.12 354.08 158.88 353.28 158.32 352.72C157.76 352.16 157.12 351.84 156.32 351.84C155.6 351.84 154.88 352.16 154.32 352.8C153.76 353.52 153.52 354.4 153.52 355.52C153.52 356.64 153.76 357.52 154.32 358.16C154.88 358.8 155.52 359.12 156.32 359.12C157.36 359.12 158.16 358.8 158.72 358L158.08 357.04C157.68 357.6 157.12 357.84 156.4 357.84C156 357.84 155.6 357.68 155.28 357.44C154.88 357.12 154.72 356.64 154.72 356.16H159.12ZM154.72 354.96C154.72 354.4 154.88 353.92 155.2 353.6C155.52 353.28 155.92 353.12 156.4 353.12C156.8 353.12 157.2 353.28 157.52 353.6C157.76 353.92 157.92 354.4 157.92 354.96H154.72Z" fill="black"/>
<path fill-rule="evenodd" clip-rule="evenodd" d="M164.48 356.96C164.48 356.24 164.24 355.76 163.92 355.44C163.68 355.28 163.52 355.12 163.36 355.04C163.2 354.96 163.04 354.88 162.8 354.8C162.64 354.72 162.48 354.64 162.24 354.64C162 354.56 161.84 354.48 161.68 354.4C161.52 354.24 161.44 354.08 161.44 353.84C161.44 353.6 161.52 353.44 161.68 353.28C161.84 353.12 162.08 353.12 162.4 353.12C162.88 353.12 163.44 353.28 163.84 353.68L164.32 352.56C163.76 352.08 163.12 351.84 162.48 351.84C161.84 351.84 161.28 352 160.88 352.4C160.48 352.8 160.24 353.36 160.24 354C160.24 354.96 160.88 355.6 162 356C162.08 356 162.08 356.08 162.16 356.08C162.88 356.32 163.28 356.64 163.28 357.04C163.28 357.28 163.2 357.44 163.04 357.6C162.866 357.761 162.636 357.847 162.4 357.84C161.76 357.84 161.12 357.52 160.48 356.96L159.92 358.08C160.24 358.4 160.64 358.72 161.12 358.88C161.52 359.04 162 359.12 162.4 359.12C162.96 359.12 163.52 358.96 163.84 358.56C164.24 358.16 164.48 357.6 164.48 356.96Z" fill="black"/>
<path fill-rule="evenodd" clip-rule="evenodd" d="M172.16 349.04C172.48 349.68 173.04 349.92 173.68 349.92C174.4 349.92 174.88 349.68 175.2 349.04C175.52 348.48 175.68 347.68 175.68 346.72C175.68 345.76 175.52 344.96 175.2 344.32C174.88 343.76 174.4 343.44 173.68 343.44C173.04 343.44 172.48 343.76 172.16 344.32C171.84 344.96 171.68 345.76 171.68 346.72C171.68 347.68 171.84 348.48 172.16 349.04ZM172.8 345.04C172.96 344.56 173.28 344.4 173.68 344.4C174.08 344.4 174.4 344.56 174.64 345.04C174.8 345.44 174.88 346 174.88 346.72C174.88 347.44 174.8 348 174.64 348.4C174.4 348.8 174.08 349.04 173.68 349.04C173.28 349.04 172.96 348.8 172.8 348.4C172.56 348 172.48 347.44 172.48 346.72C172.48 346 172.56 345.44 172.8 345.04Z" fill="black"/>
<path fill-rule="evenodd" clip-rule="evenodd" d="M338.32 343.6V344.56H339.36V349.92H340.16V343.6" fill="black"/>
<path fill-rule="evenodd" clip-rule="evenodd" d="M347.2 343.12L344.56 349.92H345.12L347.76 343.12" fill="black"/>
<path fill-rule="evenodd" clip-rule="evenodd" d="M348 348.24L347.12 349.36V349.92H349.12V349.28H347.76L348.48 348.4C348.64 348.16 348.8 347.92 348.88 347.76C348.96 347.6 349.04 347.44 349.04 347.2C349.04 346.88 348.88 346.64 348.72 346.4C348.56 346.24 348.32 346.16 348.08 346.16C347.68 346.16 347.36 346.4 347.04 346.88L347.44 347.12C347.6 346.88 347.84 346.72 348.08 346.72C348.24 346.72 348.32 346.72 348.4 346.88C348.48 346.96 348.56 347.04 348.56 347.2C348.56 347.36 348.48 347.52 348.4 347.68C348.32 347.76 348.16 348 348 348.24Z" fill="black"/>
<path fill-rule="evenodd" clip-rule="evenodd" d="M343.04 343.6V344.16H343.6V347.28H344.08V343.6" fill="black"/>
<path fill-rule="evenodd" clip-rule="evenodd" d="M285.92 343.6V344.56H286.96V349.92H287.76V343.6" fill="black"/>
<path fill-rule="evenodd" clip-rule="evenodd" d="M231.52 343.12L228.88 349.92H229.36L232 343.12" fill="black"/>
<path fill-rule="evenodd" clip-rule="evenodd" d="M232.24 348.24L231.36 349.36V349.92H233.36V349.28H232.08L232.72 348.4C232.96 348.16 233.12 347.92 233.2 347.76C233.28 347.6 233.28 347.44 233.28 347.2C233.28 346.88 233.2 346.64 233.04 346.4C232.8 346.24 232.64 346.16 232.32 346.16C231.92 346.16 231.6 346.4 231.36 346.88L231.76 347.12C231.92 346.88 232.08 346.72 232.32 346.72C232.48 346.72 232.56 346.72 232.72 346.88C232.8 346.96 232.8 347.04 232.8 347.2C232.8 347.36 232.8 347.52 232.72 347.68C232.64 347.76 232.48 348 232.24 348.24Z" fill="black"/>
<path fill-rule="evenodd" clip-rule="evenodd" d="M227.36 343.6V344.16H227.92V347.28H228.4V343.6" fill="black"/>
<path fill-rule="evenodd" clip-rule="evenodd" d="M400.32 347.12L398.8 348.96V349.92H402.16V348.88H399.92L401.12 347.36C401.44 346.88 401.68 346.56 401.84 346.24C401.92 345.92 402 345.68 402 345.36C402 344.72 401.84 344.32 401.52 344C401.2 343.68 400.88 343.44 400.48 343.44C400.08 343.44 399.68 343.6 399.44 343.76C399.162 344.05 398.921 344.372 398.72 344.72L399.36 345.2C399.68 344.72 400 344.4 400.4 344.4C400.64 344.4 400.8 344.48 400.96 344.72C401.12 344.88 401.2 345.04 401.2 345.36C401.2 345.6 401.12 345.84 401.04 346.08C400.88 346.32 400.64 346.64 400.32 347.12Z" fill="black"/>
<path fill-rule="evenodd" clip-rule="evenodd" d="M32 324.48H37.84V322.64H33.6V312.8H32" fill="black"/>
<path d="M39.3538 324.488H40.8738V315.608H39.3538V324.488Z" fill="black"/>
<path fill-rule="evenodd" clip-rule="evenodd" d="M39.52 313.76C39.6799 314 39.9199 314.16 40.1599 314.16C40.3999 314.16 40.6399 314 40.7999 313.76C41.0399 313.52 41.1199 313.28 41.1199 312.96C41.1199 312.64 41.0399 312.32 40.7999 312.08C40.6399 311.84 40.3999 311.76 40.1599 311.76C39.9199 311.76 39.6799 311.84 39.52 312.08C39.28 312.32 39.2 312.64 39.2 312.96C39.2 313.28 39.28 313.52 39.52 313.76Z" fill="black"/>
<path fill-rule="evenodd" clip-rule="evenodd" d="M44.56 319.68C44.56 319.28 44.64 318.88 44.72 318.56C44.8 318.24 44.96 318 45.12 317.76C45.52 317.36 46 317.12 46.48 317.12C47.6 317.12 48.16 317.92 48.16 319.6V324.48H49.6V319.04C49.6 317.84 49.36 316.96 48.88 316.32C48.4 315.76 47.76 315.44 46.96 315.44C46.48 315.44 46 315.6 45.52 315.92C45.12 316.24 44.8 316.64 44.56 317.2V315.6H43.04V324.48H44.56V319.68Z" fill="black"/>
<path fill-rule="evenodd" clip-rule="evenodd" d="M58.32 320.88V319.6C58.32 318.24 58 317.28 57.36 316.56C56.64 315.84 55.84 315.44 54.88 315.44C53.92 315.44 53.04 315.84 52.32 316.64C51.6 317.52 51.28 318.64 51.28 320C51.28 321.44 51.6 322.56 52.32 323.36C53.04 324.24 53.84 324.64 54.88 324.64C56.08 324.64 57.12 324.16 57.84 323.12L57.04 322C56.56 322.64 55.84 323.04 54.96 323.04C54.4 323.04 53.92 322.8 53.44 322.4C53.04 322 52.8 321.52 52.72 320.88H58.32ZM52.72 319.36C52.72 318.64 52.96 318.08 53.44 317.68C53.84 317.28 54.32 317.04 54.88 317.04C55.44 317.04 55.92 317.28 56.24 317.68C56.64 318.08 56.88 318.64 56.88 319.36H52.72Z" fill="black"/>
<path fill-rule="evenodd" clip-rule="evenodd" d="M65.5201 317.12H67.3601V315.6H65.5201V312.8H64.0001V315.6H63.1201V317.12H64.0001V321.6C64.0001 322.48 64.2401 323.28 64.6401 323.84C65.1201 324.4 65.6801 324.64 66.3201 324.64C66.9601 324.64 67.5201 324.32 68.0801 323.76L67.4401 322.4C67.1201 322.8 66.8801 323.04 66.4801 323.04C66.3358 323.041 66.1938 323.005 66.0677 322.935C65.9416 322.865 65.8357 322.763 65.7601 322.64C65.6001 322.4 65.5201 322.08 65.5201 321.6V317.12Z" fill="black"/>
<path fill-rule="evenodd" clip-rule="evenodd" d="M75.2 323.28C75.92 322.4 76.32 321.36 76.32 320C76.32 318.72 75.92 317.68 75.2 316.8C74.48 315.84 73.6 315.44 72.56 315.44C71.44 315.44 70.56 315.84 69.84 316.8C69.12 317.68 68.8 318.72 68.8 320C68.8 321.36 69.12 322.4 69.84 323.28C70.56 324.16 71.44 324.64 72.56 324.64C73.6 324.64 74.48 324.16 75.2 323.28ZM70.88 322.16C70.48 321.6 70.32 320.88 70.32 320C70.32 319.2 70.48 318.48 70.88 317.92C71.36 317.36 71.84 317.12 72.56 317.12C73.2 317.12 73.76 317.36 74.16 317.92C74.56 318.48 74.8 319.2 74.8 320C74.8 320.88 74.56 321.6 74.16 322.16C73.76 322.72 73.2 322.96 72.56 322.96C71.84 322.96 71.36 322.72 70.88 322.16Z" fill="black"/>
<path fill-rule="evenodd" clip-rule="evenodd" d="M85.4399 315.44C84.4799 315.44 83.7599 316 83.1199 317.12V312H81.6799V324.48H83.1199V323.2C83.8399 324.16 84.6399 324.64 85.5999 324.64C86.4799 324.64 87.2799 324.24 87.9199 323.36C88.5599 322.48 88.9599 321.36 88.9599 320C88.9599 318.64 88.5599 317.52 87.9199 316.64C87.1999 315.84 86.3999 315.44 85.4399 315.44ZM83.1199 320.08C83.1199 319.2 83.3599 318.48 83.7599 317.92C84.1599 317.36 84.6399 317.12 85.2799 317.12C85.8399 317.12 86.3999 317.36 86.7999 317.92C87.1999 318.48 87.4399 319.2 87.4399 320.08C87.4399 320.96 87.1999 321.6 86.7999 322.16C86.3199 322.72 85.8399 322.96 85.1999 322.96C84.6399 322.96 84.1599 322.72 83.7599 322.16C83.3599 321.6 83.1199 320.88 83.1199 320.08Z" fill="black"/>
<path fill-rule="evenodd" clip-rule="evenodd" d="M97.2801 320.88V319.6C97.2801 318.24 96.9601 317.28 96.2401 316.56C95.6001 315.84 94.7201 315.44 93.7601 315.44C92.8001 315.44 92.0002 315.84 91.2802 316.64C90.5602 317.52 90.1602 318.64 90.1602 320C90.1602 321.44 90.5602 322.56 91.2802 323.36C91.9202 324.24 92.8001 324.64 93.7601 324.64C95.0401 324.64 96.0001 324.16 96.8001 323.12L95.9201 322C95.4401 322.64 94.8001 323.04 93.9201 323.04C93.3601 323.04 92.8001 322.8 92.4002 322.4C92.0002 322 91.7602 321.52 91.6802 320.88H97.2801ZM91.6802 319.36C91.6802 318.64 91.9202 318.08 92.3202 317.68C92.8001 317.28 93.2801 317.04 93.8401 317.04C94.4001 317.04 94.8001 317.28 95.2001 317.68C95.6001 318.08 95.7601 318.64 95.7601 319.36H91.6802Z" fill="black"/>
<path fill-rule="evenodd" clip-rule="evenodd" d="M106.32 317.36H106.4V315.44C105.92 315.44 105.52 315.6 105.04 316C104.64 316.32 104.32 316.8 104.08 317.36V315.6H102.56V324.48H104.08V320.64C104.08 319.68 104.24 318.88 104.64 318.24C105.04 317.6 105.6 317.36 106.32 317.36Z" fill="black"/>
<path fill-rule="evenodd" clip-rule="evenodd" d="M114.56 320.88V319.6C114.56 318.24 114.16 317.28 113.52 316.56C112.88 315.84 112 315.44 111.04 315.44C110.08 315.44 109.2 315.84 108.56 316.64C107.84 317.52 107.44 318.64 107.44 320C107.44 321.44 107.84 322.56 108.48 323.36C109.2 324.24 110.08 324.64 111.04 324.64C112.32 324.64 113.28 324.16 114.08 323.12L113.2 322C112.72 322.64 112.08 323.04 111.2 323.04C110.56 323.04 110.08 322.8 109.68 322.4C109.2 322 108.96 321.52 108.96 320.88H114.56ZM108.96 319.36C108.96 318.64 109.2 318.08 109.6 317.68C110.08 317.28 110.56 317.04 111.12 317.04C111.6 317.04 112.08 317.28 112.48 317.68C112.88 318.08 113.04 318.64 113.04 319.36H108.96Z" fill="black"/>
<path fill-rule="evenodd" clip-rule="evenodd" d="M118 317.12H119.92V315.6H118V312.8H116.56V315.6H115.6V317.12H116.56V321.6C116.56 322.48 116.72 323.28 117.2 323.84C117.68 324.4 118.24 324.64 118.88 324.64C119.44 324.64 120.08 324.32 120.56 323.76L120 322.4C119.68 322.8 119.36 323.04 119.04 323.04C118.896 323.041 118.754 323.005 118.628 322.935C118.502 322.865 118.396 322.763 118.32 322.64C118.16 322.4 118 322.08 118 321.6V317.12Z" fill="black"/>
<path fill-rule="evenodd" clip-rule="evenodd" d="M127.52 324.48V318.72C127.52 317.6 127.28 316.8 126.72 316.24C126.24 315.68 125.52 315.44 124.72 315.44C123.6 315.44 122.64 315.84 121.76 316.72L122.4 317.92C123.12 317.28 123.84 316.96 124.48 316.96C125.52 316.96 126.08 317.6 126.08 318.8V319.12H124.16C123.2 319.12 122.56 319.36 122 319.76C121.52 320.24 121.28 320.88 121.28 321.76C121.28 322.64 121.52 323.36 122 323.84C122.48 324.4 123.04 324.64 123.84 324.64C124.8 324.64 125.6 324.24 126.16 323.28V324.48H127.52ZM126.08 321.2C126.08 321.76 125.84 322.24 125.52 322.56C125.12 322.88 124.72 323.04 124.24 323.04C123.76 323.04 123.44 322.96 123.12 322.72C122.88 322.48 122.72 322.16 122.72 321.68C122.72 321.28 122.88 320.96 123.12 320.72C123.44 320.56 123.84 320.4 124.4 320.4H126.08V321.2Z" fill="black"/>
<path d="M129.594 324.488H131.114V315.608H129.594V324.488Z" fill="black"/>
<path fill-rule="evenodd" clip-rule="evenodd" d="M129.76 313.76C129.92 314 130.16 314.16 130.4 314.16C130.64 314.16 130.88 314 131.04 313.76C131.28 313.52 131.36 313.28 131.36 312.96C131.36 312.64 131.28 312.32 131.04 312.08C130.88 311.84 130.64 311.76 130.4 311.76C130.16 311.76 129.92 311.84 129.76 312.08C129.52 312.32 129.44 312.64 129.44 312.96C129.44 313.28 129.52 313.52 129.76 313.76Z" fill="black"/>
<path fill-rule="evenodd" clip-rule="evenodd" d="M134.8 319.68C134.8 319.28 134.88 318.88 134.96 318.56C135.04 318.24 135.2 318 135.36 317.76C135.76 317.36 136.24 317.12 136.72 317.12C137.84 317.12 138.4 317.92 138.4 319.6V324.48H139.84V319.04C139.84 317.84 139.6 316.96 139.12 316.32C138.64 315.76 138 315.44 137.2 315.44C136.72 315.44 136.24 315.6 135.84 315.92C135.36 316.24 135.04 316.64 134.8 317.2V315.6H133.28V324.48H134.8V319.68Z" fill="black"/>
<path fill-rule="evenodd" clip-rule="evenodd" d="M148.56 320.88V319.6C148.56 318.24 148.24 317.28 147.6 316.56C146.88 315.84 146.08 315.44 145.12 315.44C144.16 315.44 143.28 315.84 142.56 316.64C141.84 317.52 141.52 318.64 141.52 320C141.52 321.44 141.84 322.56 142.56 323.36C143.28 324.24 144.08 324.64 145.12 324.64C146.32 324.64 147.36 324.16 148.08 323.12L147.28 322C146.8 322.64 146.08 323.04 145.2 323.04C144.64 323.04 144.16 322.8 143.68 322.4C143.28 322 143.04 321.52 143.04 320.88H148.56ZM143.04 319.36C143.04 318.64 143.2 318.08 143.68 317.68C144.08 317.28 144.56 317.04 145.12 317.04C145.68 317.04 146.16 317.28 146.56 317.68C146.88 318.08 147.12 318.64 147.12 319.36H143.04Z" fill="black"/>
<path fill-rule="evenodd" clip-rule="evenodd" d="M153.12 324.64C154.24 324.64 155.04 324.16 155.6 323.2V324.48H157.04V312H155.6V316.96C154.96 315.92 154.24 315.44 153.28 315.44C152.32 315.44 151.52 315.84 150.8 316.64C150.08 317.52 149.76 318.64 149.76 320C149.76 321.36 150.08 322.48 150.8 323.36C151.44 324.24 152.24 324.64 153.12 324.64ZM151.28 320.08C151.28 319.2 151.52 318.48 151.92 317.92C152.32 317.36 152.88 317.12 153.44 317.12C154.08 317.12 154.56 317.36 154.96 317.92C155.36 318.48 155.6 319.2 155.6 320.08C155.6 320.96 155.36 321.6 154.96 322.16C154.56 322.72 154.08 322.96 153.44 322.96C152.88 322.96 152.4 322.72 151.92 322.16C151.52 321.6 151.28 320.96 151.28 320.08Z" fill="black"/>
<path fill-rule="evenodd" clip-rule="evenodd" d="M32 284.4H37.84V282.56H33.6V272.72H32" fill="black"/>
<path d="M39.3538 284.408H40.8738V275.528H39.3538V284.408Z" fill="black"/>
<path fill-rule="evenodd" clip-rule="evenodd" d="M39.52 273.68C39.6799 273.92 39.9199 274.08 40.1599 274.08C40.3999 274.08 40.6399 273.92 40.7999 273.68C41.0399 273.44 41.1199 273.2 41.1199 272.88C41.1199 272.56 41.0399 272.24 40.7999 272C40.6399 271.76 40.3999 271.68 40.1599 271.68C39.9199 271.68 39.6799 271.76 39.52 272C39.28 272.24 39.2 272.56 39.2 272.88C39.2 273.2 39.28 273.44 39.52 273.68Z" fill="black"/>
<path fill-rule="evenodd" clip-rule="evenodd" d="M44.56 279.6C44.56 279.2 44.64 278.8 44.72 278.48C44.8 278.16 44.96 277.92 45.12 277.68C45.52 277.28 46 277.04 46.48 277.04C47.6 277.04 48.16 277.92 48.16 279.52V284.4H49.6V278.96C49.6 277.76 49.36 276.88 48.88 276.32C48.4 275.68 47.76 275.36 46.96 275.36C46.48 275.36 46 275.52 45.52 275.84C45.12 276.16 44.8 276.56 44.56 277.12V275.52H43.04V284.4H44.56V279.6Z" fill="black"/>
<path fill-rule="evenodd" clip-rule="evenodd" d="M58.32 280.8V279.52C58.32 278.24 58 277.2 57.36 276.48C56.64 275.76 55.84 275.36 54.88 275.36C53.92 275.36 53.04 275.76 52.32 276.64C51.6 277.44 51.28 278.56 51.28 279.92C51.28 281.36 51.6 282.48 52.32 283.28C53.04 284.16 53.84 284.56 54.88 284.56C56.08 284.56 57.12 284.08 57.84 283.04L57.04 281.92C56.56 282.64 55.84 282.96 54.96 282.96C54.4 282.96 53.92 282.72 53.44 282.4C53.04 282 52.8 281.44 52.72 280.8H58.32ZM52.72 279.28C52.72 278.56 52.96 278 53.44 277.6C53.84 277.2 54.32 276.96 54.88 276.96C55.44 276.96 55.92 277.2 56.24 277.6C56.64 278 56.88 278.56 56.88 279.28H52.72Z" fill="black"/>
<path fill-rule="evenodd" clip-rule="evenodd" d="M65.5201 277.04H67.3601V275.52H65.5201V272.72H64.0001V275.52H63.1201V277.04H64.0001V281.52C64.0001 282.4 64.2401 283.2 64.6401 283.76C65.1201 284.32 65.6801 284.56 66.3201 284.56C66.9601 284.56 67.5201 284.24 68.0801 283.68L67.4401 282.32C67.1201 282.72 66.8801 282.96 66.4801 282.96C66.3358 282.961 66.1938 282.925 66.0677 282.855C65.9416 282.785 65.8357 282.683 65.7601 282.56C65.6001 282.32 65.5201 282 65.5201 281.52V277.04Z" fill="black"/>
<path fill-rule="evenodd" clip-rule="evenodd" d="M75.2 283.2C75.92 282.32 76.32 281.28 76.32 280C76.32 278.64 75.92 277.6 75.2 276.72C74.48 275.84 73.6 275.36 72.56 275.36C71.44 275.36 70.56 275.84 69.84 276.72C69.12 277.6 68.8 278.64 68.8 280C68.8 281.28 69.12 282.32 69.84 283.2C70.56 284.16 71.44 284.56 72.56 284.56C73.6 284.56 74.48 284.16 75.2 283.2ZM70.88 282.08C70.48 281.52 70.32 280.8 70.32 280C70.32 279.12 70.48 278.4 70.88 277.84C71.36 277.28 71.84 277.04 72.56 277.04C73.2 277.04 73.76 277.28 74.16 277.84C74.56 278.4 74.8 279.12 74.8 280C74.8 280.8 74.56 281.52 74.16 282.08C73.76 282.64 73.2 282.88 72.56 282.88C71.84 282.88 71.36 282.64 70.88 282.08Z" fill="black"/>
<path fill-rule="evenodd" clip-rule="evenodd" d="M85.4399 275.36C84.4799 275.36 83.7599 275.92 83.1199 277.04V272H81.6799V284.4H83.1199V283.12C83.8399 284.08 84.6399 284.56 85.5999 284.56C86.4799 284.56 87.2799 284.16 87.9199 283.28C88.5599 282.4 88.9599 281.28 88.9599 279.92C88.9599 278.56 88.5599 277.44 87.9199 276.64C87.1999 275.76 86.3999 275.36 85.4399 275.36ZM83.1199 280C83.1199 279.12 83.3599 278.4 83.7599 277.84C84.1599 277.28 84.6399 277.04 85.2799 277.04C85.8399 277.04 86.3999 277.28 86.7999 277.84C87.1999 278.4 87.4399 279.12 87.4399 280C87.4399 280.88 87.1999 281.52 86.7999 282.08C86.3199 282.64 85.8399 282.88 85.1999 282.88C84.6399 282.88 84.1599 282.64 83.7599 282.08C83.3599 281.52 83.1199 280.8 83.1199 280Z" fill="black"/>
<path fill-rule="evenodd" clip-rule="evenodd" d="M97.2801 280.8V279.52C97.2801 278.24 96.9601 277.2 96.2401 276.48C95.6001 275.76 94.7201 275.36 93.7601 275.36C92.8001 275.36 92.0002 275.76 91.2802 276.64C90.5602 277.44 90.1602 278.56 90.1602 279.92C90.1602 281.36 90.5602 282.48 91.2802 283.28C91.9202 284.16 92.8001 284.56 93.7601 284.56C95.0401 284.56 96.0001 284.08 96.8001 283.04L95.9201 281.92C95.4401 282.64 94.8001 282.96 93.9201 282.96C93.3601 282.96 92.8001 282.72 92.4002 282.4C92.0002 282 91.7602 281.44 91.6802 280.8H97.2801ZM91.6802 279.28C91.6802 278.56 91.9202 278 92.3202 277.6C92.8001 277.2 93.2801 276.96 93.8401 276.96C94.4001 276.96 94.8001 277.2 95.2001 277.6C95.6001 278 95.7601 278.56 95.7601 279.28H91.6802Z" fill="black"/>
<path fill-rule="evenodd" clip-rule="evenodd" d="M105.76 284.56C106.88 284.56 107.92 284 108.72 282.96L107.84 281.68C107.28 282.48 106.64 282.88 106 282.88C105.28 282.88 104.72 282.56 104.32 282C103.84 281.44 103.6 280.72 103.6 279.92C103.6 279.12 103.84 278.4 104.32 277.92C104.8 277.36 105.28 277.12 105.92 277.12C106.56 277.12 107.2 277.44 107.76 278.08L108.72 276.72C107.92 275.84 107.04 275.36 106 275.36C104.88 275.36 104 275.76 103.2 276.64C102.48 277.52 102.16 278.64 102.16 280C102.16 281.36 102.48 282.48 103.2 283.28C103.92 284.16 104.72 284.56 105.76 284.56Z" fill="black"/>
<path d="M110.314 284.408H111.834V272.008H110.314V284.408Z" fill="black"/>
<path fill-rule="evenodd" clip-rule="evenodd" d="M119.92 283.2C120.64 282.32 121.04 281.28 121.04 280C121.04 278.64 120.64 277.6 119.92 276.72C119.2 275.84 118.32 275.36 117.28 275.36C116.16 275.36 115.28 275.84 114.56 276.72C113.84 277.6 113.52 278.64 113.52 280C113.52 281.28 113.84 282.32 114.56 283.2C115.28 284.16 116.16 284.56 117.28 284.56C118.32 284.56 119.2 284.16 119.92 283.2ZM115.68 282.08C115.2 281.52 115.04 280.8 115.04 280C115.04 279.12 115.2 278.4 115.68 277.84C116.08 277.28 116.64 277.04 117.28 277.04C117.92 277.04 118.48 277.28 118.88 277.84C119.28 278.4 119.52 279.12 119.52 280C119.52 280.8 119.28 281.52 118.88 282.08C118.48 282.64 117.92 282.88 117.28 282.88C116.64 282.88 116.08 282.64 115.68 282.08Z" fill="black"/>
<path fill-rule="evenodd" clip-rule="evenodd" d="M127.76 281.76C127.76 280.88 127.52 280.32 127.04 279.92C126.8 279.68 126.56 279.52 126.4 279.44C126.16 279.28 125.92 279.2 125.76 279.12C125.52 279.04 125.28 278.96 124.96 278.8C124.64 278.72 124.48 278.64 124.32 278.56C124.08 278.4 123.92 278.24 123.92 277.92C123.92 277.6 124.08 277.36 124.24 277.2C124.48 277.04 124.8 276.96 125.12 276.96C125.84 276.96 126.48 277.2 127.04 277.68L127.6 276.24C126.88 275.68 126.08 275.36 125.28 275.36C124.48 275.36 123.76 275.6 123.28 276.08C122.72 276.64 122.48 277.28 122.48 278.08C122.48 279.28 123.2 280.08 124.72 280.64C124.72 280.64 124.8 280.64 124.88 280.72C125.84 281.04 126.32 281.44 126.32 281.92C126.318 282.056 126.288 282.189 126.233 282.313C126.178 282.436 126.099 282.548 126 282.64C125.84 282.88 125.52 282.96 125.2 282.96C124.4 282.96 123.6 282.56 122.8 281.76L122.08 283.2C122.48 283.68 122.96 284 123.52 284.24C124.08 284.48 124.64 284.56 125.12 284.56C125.92 284.56 126.56 284.32 127.04 283.84C127.52 283.28 127.76 282.64 127.76 281.76Z" fill="black"/>
<path fill-rule="evenodd" clip-rule="evenodd" d="M136.08 280.8V279.52C136.08 278.24 135.76 277.2 135.12 276.48C134.4 275.76 133.6 275.36 132.64 275.36C131.68 275.36 130.8 275.76 130.08 276.64C129.36 277.44 129.04 278.56 129.04 279.92C129.04 281.36 129.36 282.48 130.08 283.28C130.8 284.16 131.6 284.56 132.64 284.56C133.84 284.56 134.88 284.08 135.6 283.04L134.8 281.92C134.32 282.64 133.6 282.96 132.72 282.96C132.16 282.96 131.68 282.72 131.2 282.4C130.8 282 130.56 281.44 130.56 280.8H136.08ZM130.56 279.28C130.56 278.56 130.72 278 131.2 277.6C131.6 277.2 132.08 276.96 132.64 276.96C133.2 276.96 133.68 277.2 134.08 277.6C134.4 278 134.64 278.56 134.64 279.28H130.56Z" fill="black"/>
<path fill-rule="evenodd" clip-rule="evenodd" d="M140.64 284.56C141.76 284.56 142.56 284.08 143.12 283.12V284.4H144.56V272H143.12V276.88C142.48 275.84 141.76 275.36 140.8 275.36C139.84 275.36 139.04 275.76 138.32 276.64C137.68 277.44 137.28 278.56 137.28 279.92C137.28 281.36 137.6 282.48 138.32 283.28C138.96 284.16 139.76 284.56 140.64 284.56ZM138.8 280C138.8 279.12 139.04 278.4 139.44 277.84C139.84 277.28 140.4 277.04 140.96 277.04C141.6 277.04 142.08 277.28 142.48 277.84C142.88 278.4 143.12 279.12 143.12 280C143.12 280.88 142.88 281.52 142.48 282.08C142.08 282.64 141.6 282.88 140.96 282.88C140.4 282.88 139.92 282.64 139.44 282.08C139.04 281.6 138.8 280.88 138.8 280Z" fill="black"/>
<path fill-rule="evenodd" clip-rule="evenodd" d="M146.56 283.36C146.56 283.84 146.72 284.24 147.12 284.48L146.64 286.24H147.36L148.16 284.56C148.4 284.08 148.56 283.68 148.56 283.28C148.56 282.96 148.48 282.72 148.24 282.48C148.08 282.24 147.84 282.08 147.52 282.08C147.28 282.08 147.04 282.24 146.88 282.48C146.64 282.72 146.56 282.96 146.56 283.36Z" fill="black"/>
<path fill-rule="evenodd" clip-rule="evenodd" d="M159.28 281.76C159.28 280.88 159.04 280.32 158.56 279.92C158.32 279.68 158.08 279.52 157.84 279.44C157.68 279.28 157.44 279.2 157.2 279.12C156.96 279.04 156.72 278.96 156.48 278.8C156.16 278.72 155.92 278.64 155.76 278.56C155.52 278.4 155.44 278.24 155.44 277.92C155.44 277.6 155.52 277.36 155.76 277.2C156 277.04 156.24 276.96 156.64 276.96C157.28 276.96 157.92 277.2 158.48 277.68L159.04 276.24C158.32 275.68 157.6 275.36 156.72 275.36C155.92 275.36 155.28 275.6 154.72 276.08C154.24 276.64 154 277.28 154 278.08C154 279.28 154.72 280.08 156.16 280.64C156.24 280.64 156.32 280.64 156.32 280.72C157.28 281.04 157.76 281.44 157.76 281.92C157.76 282.24 157.68 282.48 157.52 282.64C157.28 282.88 157.04 282.96 156.64 282.96C155.92 282.96 155.12 282.56 154.24 281.76L153.52 283.2C154 283.68 154.48 284 155.04 284.24C155.6 284.48 156.08 284.56 156.64 284.56C157.44 284.56 158 284.32 158.56 283.84C159.04 283.28 159.28 282.64 159.28 281.76Z" fill="black"/>
<path fill-rule="evenodd" clip-rule="evenodd" d="M167.6 280.8V279.52C167.6 278.24 167.28 277.2 166.56 276.48C165.92 275.76 165.04 275.36 164.08 275.36C163.12 275.36 162.32 275.76 161.6 276.64C160.88 277.44 160.48 278.56 160.48 279.92C160.48 281.36 160.88 282.48 161.52 283.28C162.24 284.16 163.12 284.56 164.08 284.56C165.36 284.56 166.32 284.08 167.12 283.04L166.24 281.92C165.76 282.64 165.12 282.96 164.24 282.96C163.68 282.96 163.12 282.72 162.72 282.4C162.24 282 162.08 281.44 162 280.8H167.6ZM162 279.28C162 278.56 162.24 278 162.64 277.6C163.12 277.2 163.6 276.96 164.16 276.96C164.72 276.96 165.12 277.2 165.52 277.6C165.92 278 166.08 278.56 166.08 279.28H162Z" fill="black"/>
<path fill-rule="evenodd" clip-rule="evenodd" d="M172.96 277.28H173.04V275.36C172.56 275.36 172.16 275.52 171.76 275.92C171.28 276.24 170.96 276.72 170.72 277.28V275.52H169.2V284.4H170.72V280.64C170.72 279.6 170.96 278.8 171.28 278.16C171.68 277.6 172.24 277.28 172.96 277.28Z" fill="black"/>
<path fill-rule="evenodd" clip-rule="evenodd" d="M176.48 284.4H178.16L181.04 275.52H179.44L177.28 282.24L175.12 275.52H173.6" fill="black"/>
<path d="M182.233 284.408H183.673V275.528H182.233V284.408Z" fill="black"/>
<path fill-rule="evenodd" clip-rule="evenodd" d="M182.32 273.68C182.48 273.92 182.72 274.08 182.96 274.08C183.2 274.08 183.44 273.92 183.68 273.68C183.84 273.44 183.92 273.2 183.92 272.88C183.92 272.56 183.84 272.24 183.68 272C183.44 271.76 183.2 271.68 182.96 271.68C182.72 271.68 182.48 271.76 182.32 272C182.16 272.24 182 272.56 182 272.88C182 273.2 182.16 273.44 182.32 273.68Z" fill="black"/>
<path fill-rule="evenodd" clip-rule="evenodd" d="M189.04 284.56C190.16 284.56 191.2 284 192.08 282.96L191.2 281.68C190.56 282.48 189.92 282.88 189.28 282.88C188.64 282.88 188.08 282.56 187.6 282C187.12 281.44 186.88 280.72 186.88 279.92C186.88 279.12 187.12 278.4 187.6 277.92C188.08 277.36 188.64 277.12 189.2 277.12C189.84 277.12 190.48 277.44 191.12 278.08L192 276.72C191.2 275.84 190.32 275.36 189.28 275.36C188.16 275.36 187.28 275.76 186.56 276.64C185.76 277.52 185.44 278.64 185.44 280C185.44 281.36 185.76 282.48 186.48 283.28C187.2 284.16 188.08 284.56 189.04 284.56Z" fill="black"/>
<path fill-rule="evenodd" clip-rule="evenodd" d="M200.24 280.8V279.52C200.24 278.24 199.92 277.2 199.2 276.48C198.56 275.76 197.68 275.36 196.72 275.36C195.76 275.36 194.96 275.76 194.24 276.64C193.52 277.44 193.12 278.56 193.12 279.92C193.12 281.36 193.52 282.48 194.16 283.28C194.88 284.16 195.76 284.56 196.72 284.56C198 284.56 198.96 284.08 199.76 283.04L198.88 281.92C198.4 282.64 197.76 282.96 196.88 282.96C196.32 282.96 195.76 282.72 195.36 282.4C194.88 282 194.72 281.44 194.64 280.8H200.24ZM194.64 279.28C194.64 278.56 194.88 278 195.28 277.6C195.76 277.2 196.24 276.96 196.8 276.96C197.36 276.96 197.76 277.2 198.16 277.6C198.56 278 198.72 278.56 198.72 279.28H194.64Z" fill="black"/>
<path fill-rule="evenodd" clip-rule="evenodd" d="M206.96 281.76C206.96 280.88 206.72 280.32 206.24 279.92C206 279.68 205.76 279.52 205.52 279.44C205.36 279.28 205.12 279.2 204.88 279.12C204.64 279.04 204.4 278.96 204.16 278.8C203.84 278.72 203.6 278.64 203.44 278.56C203.2 278.4 203.12 278.24 203.12 277.92C203.12 277.6 203.2 277.36 203.44 277.2C203.68 277.04 203.92 276.96 204.32 276.96C204.96 276.96 205.6 277.2 206.24 277.68L206.8 276.24C206 275.68 205.28 275.36 204.4 275.36C203.6 275.36 202.96 275.6 202.4 276.08C201.92 276.64 201.68 277.28 201.68 278.08C201.68 279.28 202.4 280.08 203.92 280.64C203.92 280.64 204 280.64 204.08 280.72C204.96 281.04 205.44 281.44 205.44 281.92C205.44 282.24 205.36 282.48 205.2 282.64C205.098 282.748 204.974 282.833 204.835 282.888C204.697 282.944 204.549 282.968 204.4 282.96C203.6 282.96 202.8 282.56 201.92 281.76L201.2 283.2C201.68 283.68 202.16 284 202.72 284.24C203.28 284.48 203.84 284.56 204.32 284.56C205.12 284.56 205.76 284.32 206.24 283.84C206.72 283.28 206.96 282.64 206.96 281.76Z" fill="black"/>
<path fill-rule="evenodd" clip-rule="evenodd" d="M215.2 284.56C216.32 284.56 217.12 284.08 217.68 283.12V284.4H219.12V272H217.68V276.88C217.04 275.84 216.32 275.36 215.36 275.36C214.4 275.36 213.6 275.76 212.88 276.64C212.24 277.44 211.84 278.56 211.84 279.92C211.84 281.36 212.16 282.48 212.88 283.28C213.52 284.16 214.32 284.56 215.2 284.56ZM213.36 280C213.36 279.12 213.6 278.4 214 277.84C214.4 277.28 214.96 277.04 215.52 277.04C216.16 277.04 216.64 277.28 217.04 277.84C217.44 278.4 217.68 279.12 217.68 280C217.68 280.88 217.44 281.52 217.04 282.08C216.64 282.64 216.16 282.88 215.6 282.88C214.96 282.88 214.48 282.64 214 282.08C213.6 281.6 213.36 280.88 213.36 280Z" fill="black"/>
<path d="M221.354 284.408H222.794V275.528H221.354V284.408Z" fill="black"/>
<path fill-rule="evenodd" clip-rule="evenodd" d="M221.44 273.68C221.6 273.92 221.84 274.08 222.08 274.08C222.32 274.08 222.56 273.92 222.72 273.68C222.96 273.44 223.04 273.2 223.04 272.88C223.04 272.56 222.96 272.24 222.72 272C222.56 271.76 222.32 271.68 222.08 271.68C221.84 271.68 221.6 271.76 221.44 272C221.2 272.24 221.12 272.56 221.12 272.88C221.12 273.2 221.2 273.44 221.44 273.68Z" fill="black"/>
<path fill-rule="evenodd" clip-rule="evenodd" d="M226.88 284.4H228.56L231.44 275.52H229.92L227.76 282.24L225.6 275.52H224" fill="black"/>
<path fill-rule="evenodd" clip-rule="evenodd" d="M239.28 280.8V279.52C239.28 278.24 238.96 277.2 238.24 276.48C237.6 275.76 236.72 275.36 235.76 275.36C234.8 275.36 234 275.76 233.28 276.64C232.56 277.44 232.16 278.56 232.16 279.92C232.16 281.36 232.56 282.48 233.28 283.28C233.92 284.16 234.8 284.56 235.76 284.56C237.04 284.56 238 284.08 238.8 283.04L237.92 281.92C237.44 282.64 236.8 282.96 235.92 282.96C235.36 282.96 234.88 282.72 234.4 282.4C234 282 233.76 281.44 233.68 280.8H239.28ZM233.68 279.28C233.68 278.56 233.92 278 234.32 277.6C234.8 277.2 235.28 276.96 235.84 276.96C236.4 276.96 236.88 277.2 237.2 277.6C237.6 278 237.76 278.56 237.76 279.28H233.68Z" fill="black"/>
<path fill-rule="evenodd" clip-rule="evenodd" d="M244.64 277.28H244.72V275.36C244.24 275.36 243.84 275.52 243.44 275.92C242.96 276.24 242.64 276.72 242.4 277.28V275.52H240.96V284.4H242.4V280.64C242.4 279.6 242.64 278.8 242.96 278.16C243.36 277.6 243.92 277.28 244.64 277.28Z" fill="black"/>
<path fill-rule="evenodd" clip-rule="evenodd" d="M248.08 277.04H250V275.52H248.08V272.72H246.56V275.52H245.68V277.04H246.56V281.52C246.56 282.4 246.8 283.2 247.28 283.76C247.68 284.32 248.24 284.56 248.88 284.56C249.52 284.56 250.16 284.24 250.64 283.68L250 282.32C249.76 282.72 249.44 282.96 249.12 282.96C248.8 282.96 248.56 282.8 248.32 282.56C248.16 282.32 248.08 282 248.08 281.52V277.04Z" fill="black"/>
<path fill-rule="evenodd" clip-rule="evenodd" d="M258.48 280.8V279.52C258.48 278.24 258.16 277.2 257.44 276.48C256.8 275.76 255.92 275.36 254.96 275.36C254 275.36 253.2 275.76 252.48 276.64C251.76 277.44 251.36 278.56 251.36 279.92C251.36 281.36 251.76 282.48 252.4 283.28C253.12 284.16 254 284.56 254.96 284.56C256.24 284.56 257.2 284.08 258 283.04L257.12 281.92C256.64 282.64 256 282.96 255.12 282.96C254.56 282.96 254 282.72 253.6 282.4C253.12 282 252.88 281.44 252.88 280.8H258.48ZM252.88 279.28C252.88 278.56 253.12 278 253.52 277.6C254 277.2 254.48 276.96 255.04 276.96C255.6 276.96 256 277.2 256.4 277.6C256.8 278 256.96 278.56 256.96 279.28H252.88Z" fill="black"/>
<path fill-rule="evenodd" clip-rule="evenodd" d="M263.04 284.56C264.08 284.56 264.88 284.08 265.44 283.12V284.4H266.96V272H265.44V276.88C264.88 275.84 264.08 275.36 263.12 275.36C262.16 275.36 261.36 275.76 260.72 276.64C260 277.44 259.68 278.56 259.68 279.92C259.68 281.36 260 282.48 260.64 283.28C261.36 284.16 262.08 284.56 263.04 284.56ZM261.12 280C261.12 279.12 261.36 278.4 261.84 277.84C262.24 277.28 262.72 277.04 263.36 277.04C263.92 277.04 264.48 277.28 264.88 277.84C265.28 278.4 265.44 279.12 265.44 280C265.44 280.88 265.28 281.52 264.88 282.08C264.48 282.64 263.92 282.88 263.36 282.88C262.8 282.88 262.24 282.64 261.84 282.08C261.36 281.6 261.12 280.88 261.12 280Z" fill="black"/>
<path fill-rule="evenodd" clip-rule="evenodd" d="M32 304.48H37.84V302.56H33.6V292.72H32" fill="black"/>
<path d="M39.3538 304.488H40.8738V295.528H39.3538V304.488Z" fill="black"/>
<path fill-rule="evenodd" clip-rule="evenodd" d="M39.5201 293.76C39.6801 294 39.9201 294.08 40.1601 294.08C40.4001 294.08 40.6401 294 40.8001 293.76C41.0401 293.52 41.1201 293.2 41.1201 292.88C41.1201 292.56 41.0401 292.32 40.8001 292.08C40.6401 291.84 40.4001 291.68 40.1601 291.68C39.9201 291.68 39.6801 291.84 39.5201 292.08C39.412 292.183 39.3274 292.307 39.2722 292.445C39.2169 292.583 39.1923 292.732 39.2001 292.88C39.2001 293.2 39.2801 293.52 39.5201 293.76Z" fill="black"/>
<path fill-rule="evenodd" clip-rule="evenodd" d="M44.56 299.6C44.56 299.2 44.64 298.88 44.72 298.56C44.8 298.24 44.96 297.92 45.12 297.76C45.52 297.28 46 297.12 46.48 297.12C47.6 297.12 48.16 297.92 48.16 299.6V304.48H49.6V298.96C49.6 297.84 49.36 296.96 48.88 296.32C48.4 295.68 47.76 295.36 46.96 295.36C46.4 295.36 46 295.52 45.52 295.84C45.12 296.16 44.8 296.64 44.56 297.2V295.52H43.04V304.48H44.56V299.6Z" fill="black"/>
<path fill-rule="evenodd" clip-rule="evenodd" d="M58.32 300.8V299.52C58.32 298.24 58 297.2 57.36 296.48C56.64 295.76 55.84 295.36 54.88 295.36C53.92 295.36 53.04 295.84 52.32 296.64C51.6 297.44 51.28 298.56 51.28 300C51.28 301.36 51.6 302.56 52.32 303.36C53.04 304.16 53.84 304.64 54.88 304.64C56.08 304.64 57.12 304.08 57.84 303.12L57.04 301.92C56.56 302.64 55.84 302.96 54.96 302.96C54.4 302.96 53.92 302.8 53.44 302.4C53.04 302 52.8 301.44 52.72 300.8H58.32ZM52.72 299.36C52.72 298.64 52.96 298.08 53.44 297.68C53.84 297.2 54.32 297.04 54.88 297.04C55.44 297.04 55.92 297.2 56.24 297.6C56.64 298 56.88 298.56 56.88 299.36H52.72Z" fill="black"/>
<path fill-rule="evenodd" clip-rule="evenodd" d="M65.5201 297.04H67.3601V295.52H65.5201V292.72H64.0001V295.52H63.1201V297.04H64.0001V301.52C64.0001 302.48 64.2401 303.2 64.6401 303.76C65.1201 304.32 65.6801 304.64 66.3201 304.64C66.9601 304.64 67.5201 304.32 68.0801 303.68L67.4401 302.4C67.1201 302.8 66.8801 302.96 66.4801 302.96C66.1601 302.96 65.9201 302.88 65.7601 302.56C65.6001 302.32 65.5201 302 65.5201 301.6V297.04Z" fill="black"/>
<path fill-rule="evenodd" clip-rule="evenodd" d="M75.2 303.28C75.92 302.4 76.32 301.28 76.32 300C76.32 298.72 75.92 297.6 75.2 296.72C74.48 295.84 73.6 295.36 72.56 295.36C71.44 295.36 70.56 295.84 69.84 296.72C69.12 297.6 68.8 298.72 68.8 300C68.8 301.28 69.12 302.4 69.84 303.28C70.56 304.16 71.44 304.64 72.56 304.64C73.6 304.64 74.48 304.16 75.2 303.28ZM70.88 302.08C70.48 301.6 70.32 300.88 70.32 300C70.32 299.12 70.48 298.4 70.88 297.92C71.36 297.36 71.84 297.04 72.56 297.04C73.2 297.04 73.76 297.36 74.16 297.92C74.56 298.4 74.8 299.12 74.8 300C74.8 300.88 74.56 301.6 74.16 302.08C73.76 302.64 73.2 302.96 72.56 302.96C71.84 302.96 71.36 302.64 70.88 302.08Z" fill="black"/>
<path fill-rule="evenodd" clip-rule="evenodd" d="M85.4399 295.36C84.4799 295.36 83.7599 296 83.1199 297.12V292H81.6799V304.48H83.1199V303.12C83.8399 304.08 84.6399 304.64 85.5999 304.64C86.4799 304.64 87.2799 304.16 87.9199 303.28C88.5599 302.48 88.9599 301.36 88.9599 299.92C88.9599 298.56 88.5599 297.44 87.9199 296.64C87.1999 295.84 86.3999 295.36 85.4399 295.36ZM83.1199 300C83.1199 299.2 83.3599 298.48 83.7599 297.92C84.1599 297.36 84.6399 297.04 85.2799 297.04C85.8399 297.04 86.3999 297.36 86.7999 297.92C87.1999 298.48 87.4399 299.2 87.4399 300C87.4399 300.88 87.1999 301.6 86.7999 302.08C86.3199 302.64 85.8399 302.96 85.1999 302.96C84.6399 302.96 84.1599 302.64 83.7599 302.08C83.3599 301.6 83.1199 300.88 83.1199 300Z" fill="black"/>
<path fill-rule="evenodd" clip-rule="evenodd" d="M97.2801 300.8V299.52C97.2801 298.24 96.9601 297.2 96.2401 296.48C95.6001 295.76 94.7201 295.36 93.7601 295.36C92.8001 295.36 92.0002 295.84 91.2802 296.64C90.5602 297.44 90.1602 298.56 90.1602 300C90.1602 301.44 90.5602 302.56 91.2802 303.36C91.9202 304.16 92.8001 304.64 93.7601 304.64C95.0401 304.64 96.0001 304.08 96.8001 303.12L95.9201 301.92C95.4401 302.64 94.8001 302.96 93.9201 302.96C93.3601 302.96 92.8001 302.8 92.4002 302.4C92.0002 302 91.7602 301.44 91.6802 300.8H97.2801ZM91.6802 299.36C91.6802 298.64 91.9202 298.08 92.3202 297.68C92.8001 297.2 93.2801 297.04 93.8401 297.04C94.4001 297.04 94.8001 297.2 95.2001 297.6C95.6001 298 95.7601 298.56 95.7601 299.36H91.6802Z" fill="black"/>
<path fill-rule="evenodd" clip-rule="evenodd" d="M106.32 297.28H106.4V295.36C105.92 295.44 105.52 295.6 105.04 295.92C104.64 296.32 104.32 296.8 104.08 297.36V295.52H102.56V304.48H104.08V300.64C104.08 299.6 104.24 298.8 104.64 298.24C105.04 297.6 105.6 297.28 106.32 297.28Z" fill="black"/>
<path fill-rule="evenodd" clip-rule="evenodd" d="M114.56 300.8V299.52C114.56 298.24 114.16 297.2 113.52 296.48C112.88 295.76 112 295.36 111.04 295.36C110.08 295.36 109.2 295.84 108.56 296.64C107.84 297.44 107.44 298.56 107.44 300C107.44 301.44 107.84 302.56 108.48 303.36C109.2 304.16 110.08 304.64 111.04 304.64C112.32 304.64 113.28 304.08 114.08 303.12L113.2 301.92C112.72 302.64 112.08 302.96 111.2 302.96C110.56 302.96 110.08 302.8 109.68 302.4C109.2 302 108.96 301.44 108.96 300.8H114.56ZM108.96 299.36C108.96 298.64 109.2 298.08 109.6 297.68C110.08 297.2 110.56 297.04 111.12 297.04C111.6 297.04 112.08 297.2 112.48 297.6C112.88 298 113.04 298.56 113.04 299.36H108.96Z" fill="black"/>
<path fill-rule="evenodd" clip-rule="evenodd" d="M118 297.04H119.92V295.52H118V292.72H116.56V295.52H115.6V297.04H116.56V301.52C116.56 302.48 116.72 303.2 117.2 303.76C117.68 304.32 118.24 304.64 118.88 304.64C119.44 304.64 120.08 304.32 120.56 303.68L120 302.4C119.68 302.8 119.36 302.96 119.04 302.96C118.72 302.96 118.48 302.88 118.32 302.56C118.16 302.32 118 302 118 301.6V297.04Z" fill="black"/>
<path fill-rule="evenodd" clip-rule="evenodd" d="M127.52 304.48V298.72C127.52 297.6 127.28 296.72 126.72 296.16C126.24 295.68 125.52 295.36 124.72 295.36C123.6 295.36 122.64 295.84 121.76 296.72L122.4 297.84C123.12 297.28 123.84 296.96 124.48 296.96C125.52 296.96 126.08 297.52 126.08 298.72V299.04H124.16C123.2 299.04 122.56 299.28 122 299.76C121.52 300.16 121.28 300.8 121.28 301.68C121.28 302.56 121.52 303.28 122 303.84C122.48 304.32 123.04 304.64 123.84 304.64C124.8 304.64 125.6 304.16 126.16 303.28V304.48H127.52ZM126.08 301.12C126.08 301.68 125.84 302.16 125.52 302.48C125.12 302.88 124.72 303.04 124.24 303.04C123.76 303.04 123.44 302.88 123.12 302.64C122.88 302.4 122.72 302.08 122.72 301.68C122.72 301.28 122.88 300.96 123.12 300.72C123.44 300.48 123.84 300.4 124.4 300.4H126.08V301.12Z" fill="black"/>
<path d="M129.594 304.488H131.114V295.528H129.594V304.488Z" fill="black"/>
<path fill-rule="evenodd" clip-rule="evenodd" d="M129.76 293.76C129.92 294 130.16 294.08 130.4 294.08C130.64 294.08 130.88 294 131.04 293.76C131.28 293.52 131.36 293.2 131.36 292.88C131.36 292.56 131.28 292.32 131.04 292.08C130.88 291.84 130.64 291.68 130.4 291.68C130.16 291.68 129.92 291.84 129.76 292.08C129.652 292.183 129.567 292.307 129.512 292.445C129.457 292.583 129.432 292.732 129.44 292.88C129.44 293.2 129.52 293.52 129.76 293.76Z" fill="black"/>
<path fill-rule="evenodd" clip-rule="evenodd" d="M134.8 299.6C134.8 299.2 134.88 298.88 134.96 298.56C135.04 298.24 135.2 297.92 135.36 297.76C135.76 297.28 136.24 297.12 136.72 297.12C137.84 297.12 138.4 297.92 138.4 299.6V304.48H139.84V298.96C139.84 297.84 139.6 296.96 139.12 296.32C138.64 295.68 138 295.36 137.2 295.36C136.72 295.36 136.24 295.52 135.84 295.84C135.36 296.16 135.04 296.64 134.8 297.2V295.52H133.28V304.48H134.8V299.6Z" fill="black"/>
<path fill-rule="evenodd" clip-rule="evenodd" d="M148.56 300.8V299.52C148.56 298.24 148.24 297.2 147.6 296.48C146.88 295.76 146.08 295.36 145.12 295.36C144.16 295.36 143.28 295.84 142.56 296.64C141.84 297.44 141.52 298.56 141.52 300C141.52 301.44 141.84 302.56 142.56 303.36C143.28 304.16 144.08 304.64 145.12 304.64C146.32 304.64 147.36 304.08 148.08 303.12L147.28 301.92C146.8 302.64 146.08 302.96 145.2 302.96C144.64 302.96 144.16 302.8 143.68 302.4C143.28 302 143.04 301.44 143.04 300.8H148.56ZM143.04 299.36C143.04 298.64 143.2 298.08 143.68 297.68C144.08 297.2 144.56 297.04 145.12 297.04C145.68 297.04 146.16 297.2 146.56 297.6C146.88 298 147.12 298.56 147.12 299.36H143.04Z" fill="black"/>
<path fill-rule="evenodd" clip-rule="evenodd" d="M153.12 304.64C154.24 304.64 155.04 304.08 155.6 303.12V304.48H157.04V292H155.6V296.88C154.96 295.92 154.24 295.36 153.28 295.36C152.32 295.36 151.52 295.84 150.8 296.64C150.08 297.44 149.76 298.56 149.76 300C149.76 301.36 150.08 302.48 150.8 303.36C151.44 304.16 152.24 304.64 153.12 304.64ZM151.28 300.08C151.28 299.2 151.52 298.48 151.92 297.92C152.32 297.36 152.88 297.04 153.44 297.04C154.08 297.04 154.56 297.36 154.96 297.92C155.36 298.48 155.6 299.2 155.6 300C155.6 300.88 155.36 301.6 154.96 302.16C154.56 302.64 154.08 302.96 153.44 302.96C152.88 302.96 152.4 302.64 151.92 302.16C151.52 301.6 151.28 300.88 151.28 300.08Z" fill="black"/>
<path fill-rule="evenodd" clip-rule="evenodd" d="M159.04 303.36C159.04 303.92 159.2 304.24 159.6 304.48L159.12 306.24H159.84L160.64 304.56C160.88 304.08 161.04 303.68 161.04 303.36C161.04 303.04 160.96 302.72 160.72 302.48C160.56 302.24 160.32 302.08 160 302.08C159.76 302.08 159.52 302.24 159.36 302.48C159.12 302.72 159.04 303.04 159.04 303.36Z" fill="black"/>
<path fill-rule="evenodd" clip-rule="evenodd" d="M171.76 301.84C171.76 300.96 171.52 300.32 171.04 299.92C170.8 299.68 170.56 299.52 170.32 299.44C170.16 299.36 169.92 299.2 169.68 299.12C169.44 299.04 169.2 298.96 168.88 298.88C168.64 298.8 168.4 298.72 168.24 298.56C168 298.48 167.92 298.24 167.92 297.92C167.92 297.6 168 297.36 168.24 297.2C168.48 297.04 168.72 296.96 169.12 296.96C169.76 296.96 170.4 297.2 170.96 297.68L171.52 296.32C170.8 295.68 170.08 295.36 169.2 295.36C168.4 295.36 167.76 295.68 167.2 296.16C166.72 296.64 166.48 297.28 166.48 298.16C166.48 299.28 167.2 300.16 168.64 300.64C168.72 300.64 168.8 300.72 168.8 300.72C169.76 301.12 170.24 301.52 170.24 301.92C170.248 302.069 170.223 302.217 170.168 302.356C170.113 302.494 170.028 302.618 169.92 302.72C169.76 302.88 169.52 302.96 169.12 302.96C168.4 302.96 167.6 302.56 166.72 301.84L166 303.28C166.48 303.68 166.96 304 167.52 304.24C168.08 304.48 168.56 304.64 169.12 304.64C169.92 304.64 170.48 304.32 171.04 303.84C171.52 303.36 171.76 302.64 171.76 301.84Z" fill="black"/>
<path fill-rule="evenodd" clip-rule="evenodd" d="M180.08 300.8V299.52C180.08 298.24 179.76 297.2 179.04 296.48C178.4 295.76 177.52 295.36 176.56 295.36C175.6 295.36 174.8 295.84 174.08 296.64C173.36 297.44 172.96 298.56 172.96 300C172.96 301.44 173.36 302.56 174 303.36C174.72 304.16 175.6 304.64 176.56 304.64C177.84 304.64 178.8 304.08 179.6 303.12L178.72 301.92C178.24 302.64 177.6 302.96 176.72 302.96C176.16 302.96 175.6 302.8 175.2 302.4C174.72 302 174.48 301.44 174.48 300.8H180.08ZM174.48 299.36C174.48 298.64 174.72 298.08 175.12 297.68C175.6 297.2 176.08 297.04 176.64 297.04C177.2 297.04 177.6 297.2 178 297.6C178.4 298 178.56 298.56 178.56 299.36H174.48Z" fill="black"/>
<path fill-rule="evenodd" clip-rule="evenodd" d="M185.44 297.28H185.52V295.36C185.04 295.44 184.64 295.6 184.16 295.92C183.76 296.32 183.44 296.8 183.2 297.36V295.52H181.68V304.48H183.2V300.64C183.2 299.6 183.44 298.8 183.76 298.24C184.16 297.6 184.72 297.28 185.44 297.28Z" fill="black"/>
<path fill-rule="evenodd" clip-rule="evenodd" d="M188.96 304.48H190.64L193.52 295.52H191.92L189.76 302.32L187.6 295.52H186.08" fill="black"/>
<path d="M194.713 304.488H196.153V295.528H194.713V304.488Z" fill="black"/>
<path fill-rule="evenodd" clip-rule="evenodd" d="M194.8 293.76C194.96 294 195.2 294.08 195.44 294.08C195.68 294.08 195.92 294 196.16 293.76C196.32 293.52 196.4 293.2 196.4 292.88C196.4 292.56 196.32 292.32 196.16 292.08C195.92 291.84 195.68 291.68 195.44 291.68C195.2 291.68 194.96 291.84 194.8 292.08C194.692 292.183 194.607 292.307 194.552 292.445C194.497 292.583 194.472 292.732 194.48 292.88C194.48 293.2 194.56 293.52 194.8 293.76Z" fill="black"/>
<path fill-rule="evenodd" clip-rule="evenodd" d="M201.52 304.64C202.64 304.64 203.68 304.08 204.56 302.96L203.6 301.76C203.04 302.48 202.4 302.88 201.76 302.88C201.12 302.88 200.56 302.64 200.08 302C199.6 301.44 199.36 300.8 199.36 299.92C199.36 299.12 199.6 298.48 200.08 297.92C200.56 297.44 201.12 297.12 201.68 297.12C202.32 297.12 202.96 297.52 203.6 298.16L204.48 296.8C203.68 295.84 202.8 295.36 201.76 295.36C200.64 295.36 199.76 295.84 199.04 296.72C198.24 297.52 197.92 298.64 197.92 300C197.92 301.36 198.24 302.48 198.96 303.36C199.68 304.16 200.56 304.64 201.52 304.64Z" fill="black"/>
<path fill-rule="evenodd" clip-rule="evenodd" d="M212.72 300.8V299.52C212.72 298.24 212.4 297.2 211.68 296.48C211.04 295.76 210.16 295.36 209.2 295.36C208.24 295.36 207.44 295.84 206.72 296.64C206 297.44 205.6 298.56 205.6 300C205.6 301.44 206 302.56 206.64 303.36C207.36 304.16 208.24 304.64 209.2 304.64C210.48 304.64 211.44 304.08 212.24 303.12L211.36 301.92C210.88 302.64 210.24 302.96 209.36 302.96C208.8 302.96 208.24 302.8 207.84 302.4C207.36 302 207.12 301.44 207.12 300.8H212.72ZM207.12 299.36C207.12 298.64 207.36 298.08 207.76 297.68C208.24 297.2 208.72 297.04 209.28 297.04C209.84 297.04 210.24 297.2 210.64 297.6C211.04 298 211.2 298.56 211.2 299.36H207.12Z" fill="black"/>
<path fill-rule="evenodd" clip-rule="evenodd" d="M224 303.28C224.72 302.4 225.04 301.28 225.04 300C225.04 298.72 224.72 297.6 224 296.72C223.28 295.84 222.4 295.36 221.28 295.36C220.24 295.36 219.36 295.84 218.64 296.72C217.92 297.6 217.52 298.72 217.52 300C217.52 301.28 217.92 302.4 218.64 303.28C219.36 304.16 220.24 304.64 221.28 304.64C222.4 304.64 223.28 304.16 224 303.28ZM219.68 302.08C219.28 301.6 219.04 300.88 219.04 300C219.04 299.12 219.28 298.4 219.68 297.92C220.08 297.36 220.64 297.04 221.28 297.04C221.92 297.04 222.48 297.36 222.88 297.92C223.36 298.4 223.52 299.12 223.52 300C223.52 300.88 223.36 301.6 222.88 302.08C222.48 302.64 221.92 302.96 221.28 302.96C220.64 302.96 220.08 302.64 219.68 302.08Z" fill="black"/>
<path fill-rule="evenodd" clip-rule="evenodd" d="M230.48 297.28H230.56V295.36C230.08 295.44 229.68 295.6 229.2 295.92C228.8 296.32 228.48 296.8 228.24 297.36V295.52H226.72V304.48H228.24V300.64C228.24 299.6 228.4 298.8 228.8 298.24C229.2 297.6 229.76 297.28 230.48 297.28Z" fill="black"/>
<path d="M235.753 304.488H237.193V295.528H235.753V304.488Z" fill="black"/>
<path fill-rule="evenodd" clip-rule="evenodd" d="M235.84 293.76C236 294 236.24 294.08 236.48 294.08C236.72 294.08 236.96 294 237.2 293.76C237.36 293.52 237.44 293.2 237.44 292.88C237.44 292.56 237.36 292.32 237.2 292.08C236.96 291.84 236.72 291.68 236.48 291.68C236.24 291.68 236 291.84 235.84 292.08C235.68 292.32 235.52 292.56 235.52 292.88C235.52 293.2 235.68 293.52 235.84 293.76Z" fill="black"/>
<path fill-rule="evenodd" clip-rule="evenodd" d="M240.88 299.6C240.88 299.2 240.96 298.88 241.04 298.56C241.12 298.24 241.28 297.92 241.44 297.76C241.84 297.28 242.32 297.12 242.8 297.12C243.92 297.12 244.48 297.92 244.48 299.6V304.48H246V298.96C246 297.84 245.68 296.96 245.2 296.32C244.72 295.68 244.08 295.36 243.28 295.36C242.8 295.36 242.32 295.52 241.92 295.84C241.44 296.16 241.12 296.64 240.88 297.2V295.52H239.44V304.48H240.88V299.6Z" fill="black"/>
<path fill-rule="evenodd" clip-rule="evenodd" d="M249.92 294.8C249.92 294.4 250 294 250.16 293.76C250.32 293.52 250.56 293.36 250.88 293.36C251.2 293.36 251.52 293.6 251.84 294L252.48 292.64C251.92 292.08 251.36 291.76 250.72 291.76C250.08 291.76 249.52 292.08 249.04 292.56C248.64 293.12 248.4 293.92 248.4 294.88V295.52H247.52V297.04H248.4V304.48H249.92V297.04H251.76V295.52H249.92V294.8Z" fill="black"/>
<path fill-rule="evenodd" clip-rule="evenodd" d="M256.96 297.28H257.04V295.36C256.56 295.44 256.16 295.6 255.68 295.92C255.28 296.32 254.96 296.8 254.72 297.36V295.52H253.2V304.48H254.72V300.64C254.72 299.6 254.88 298.8 255.28 298.24C255.68 297.6 256.24 297.28 256.96 297.28Z" fill="black"/>
<path fill-rule="evenodd" clip-rule="evenodd" d="M264.32 304.48V298.72C264.32 297.6 264.08 296.72 263.52 296.16C262.96 295.68 262.32 295.36 261.44 295.36C260.4 295.36 259.36 295.84 258.48 296.72L259.2 297.84C259.92 297.28 260.56 296.96 261.28 296.96C262.32 296.96 262.8 297.52 262.8 298.72V299.04H260.88C260 299.04 259.28 299.28 258.8 299.76C258.24 300.16 258 300.8 258 301.68C258 302.56 258.24 303.28 258.72 303.84C259.2 304.32 259.84 304.64 260.56 304.64C261.6 304.64 262.4 304.16 262.96 303.28V304.48H264.32ZM262.8 301.12C262.8 301.68 262.64 302.16 262.24 302.48C261.92 302.88 261.52 303.04 261.04 303.04C260.56 303.04 260.16 302.88 259.92 302.64C259.68 302.4 259.52 302.08 259.52 301.68C259.52 301.28 259.68 300.96 259.92 300.72C260.16 300.48 260.56 300.4 261.12 300.4H262.8V301.12Z" fill="black"/>
<path fill-rule="evenodd" clip-rule="evenodd" d="M271.44 301.84C271.44 300.96 271.2 300.32 270.72 299.92C270.48 299.68 270.32 299.52 270.08 299.44C269.84 299.36 269.68 299.2 269.44 299.12C269.2 299.04 268.96 298.96 268.64 298.88C268.4 298.8 268.16 298.72 268 298.56C267.76 298.48 267.6 298.24 267.6 297.92C267.6 297.6 267.76 297.36 268 297.2C268.16 297.04 268.48 296.96 268.88 296.96C269.52 296.96 270.16 297.2 270.72 297.68L271.28 296.32C270.56 295.68 269.76 295.36 268.96 295.36C268.16 295.36 267.44 295.68 266.96 296.16C266.48 296.64 266.16 297.28 266.16 298.16C266.16 299.28 266.96 300.16 268.4 300.64C268.48 300.64 268.48 300.72 268.56 300.72C269.52 301.12 270 301.52 270 301.92C270.008 302.069 269.983 302.217 269.928 302.356C269.872 302.494 269.788 302.618 269.68 302.72C269.52 302.88 269.2 302.96 268.88 302.96C268.08 302.96 267.28 302.56 266.48 301.84L265.76 303.28C266.16 303.68 266.72 304 267.28 304.24C267.76 304.48 268.32 304.64 268.88 304.64C269.6 304.64 270.24 304.32 270.72 303.84C271.2 303.36 271.44 302.64 271.44 301.84Z" fill="black"/>
<path fill-rule="evenodd" clip-rule="evenodd" d="M275.04 297.04H276.88V295.52H275.04V292.72H273.52V295.52H272.64V297.04H273.52V301.52C273.52 302.48 273.76 303.2 274.24 303.76C274.64 304.32 275.2 304.64 275.84 304.64C276.48 304.64 277.04 304.32 277.6 303.68L276.96 302.4C276.64 302.8 276.4 302.96 276.08 302.96C275.76 302.96 275.44 302.88 275.28 302.56C275.12 302.32 275.04 302 275.04 301.6V297.04Z" fill="black"/>
<path fill-rule="evenodd" clip-rule="evenodd" d="M282.48 297.28H282.56V295.36C282.08 295.44 281.68 295.6 281.28 295.92C280.88 296.32 280.48 296.8 280.24 297.36V295.52H278.8V304.48H280.24V300.64C280.24 299.6 280.48 298.8 280.8 298.24C281.2 297.6 281.76 297.28 282.48 297.28Z" fill="black"/>
<path fill-rule="evenodd" clip-rule="evenodd" d="M289.04 300.4C289.04 301.2 288.88 301.84 288.48 302.24C288.08 302.72 287.68 302.88 287.12 302.88C286.08 302.88 285.52 302.08 285.52 300.4V295.52H284V301.04C284 302.16 284.24 303.04 284.72 303.68C285.28 304.32 285.92 304.64 286.72 304.64C287.2 304.64 287.68 304.48 288.08 304.16C288.48 303.84 288.8 303.36 289.04 302.88V304.48H290.56V295.52H289.04V300.4Z" fill="black"/>
<path fill-rule="evenodd" clip-rule="evenodd" d="M295.92 304.64C297.04 304.64 298 304.08 298.88 302.96L298 301.76C297.44 302.48 296.8 302.88 296.16 302.88C295.44 302.88 294.88 302.64 294.48 302C294 301.44 293.76 300.8 293.76 299.92C293.76 299.12 294 298.48 294.48 297.92C294.96 297.44 295.44 297.12 296.08 297.12C296.72 297.12 297.36 297.52 297.92 298.16L298.8 296.8C298.08 295.84 297.2 295.36 296.08 295.36C295.04 295.36 294.16 295.84 293.36 296.72C292.64 297.52 292.24 298.64 292.24 300C292.24 301.36 292.64 302.48 293.36 303.36C294.08 304.16 294.88 304.64 295.92 304.64Z" fill="black"/>
<path fill-rule="evenodd" clip-rule="evenodd" d="M302.32 297.04H304.16V295.52H302.32V292.72H300.8V295.52H299.92V297.04H300.8V301.52C300.8 302.48 301.04 303.2 301.52 303.76C301.92 304.32 302.48 304.64 303.12 304.64C303.76 304.64 304.32 304.32 304.88 303.68L304.24 302.4C303.92 302.8 303.68 302.96 303.36 302.96C303.04 302.96 302.72 302.88 302.56 302.56C302.4 302.32 302.32 302 302.32 301.6V297.04Z" fill="black"/>
<path fill-rule="evenodd" clip-rule="evenodd" d="M311.04 300.4C311.04 301.2 310.88 301.84 310.48 302.24C310.08 302.72 309.6 302.88 309.12 302.88C308 302.88 307.44 302.08 307.44 300.4V295.52H306V301.04C306 302.16 306.24 303.04 306.72 303.68C307.2 304.32 307.84 304.64 308.64 304.64C309.12 304.64 309.6 304.48 310.08 304.16C310.48 303.84 310.8 303.36 311.04 302.88V304.48H312.56V295.52H311.04V300.4Z" fill="black"/>
<path fill-rule="evenodd" clip-rule="evenodd" d="M318.48 297.28H318.56L318.48 295.36C318.08 295.44 317.6 295.6 317.2 295.92C316.8 296.32 316.48 296.8 316.24 297.36V295.52H314.72V304.48H316.24V300.64C316.24 299.6 316.4 298.8 316.8 298.24C317.12 297.6 317.68 297.28 318.48 297.28Z" fill="black"/>
<path fill-rule="evenodd" clip-rule="evenodd" d="M326.64 300.8V299.52C326.64 298.24 326.32 297.2 325.6 296.48C324.96 295.76 324.16 295.36 323.2 295.36C322.16 295.36 321.36 295.84 320.64 296.64C319.92 297.44 319.6 298.56 319.6 300C319.6 301.44 319.92 302.56 320.64 303.36C321.36 304.16 322.16 304.64 323.2 304.64C324.4 304.64 325.44 304.08 326.16 303.12L325.28 301.92C324.88 302.64 324.16 302.96 323.28 302.96C322.72 302.96 322.24 302.8 321.76 302.4C321.36 302 321.12 301.44 321.04 300.8H326.64ZM321.04 299.36C321.04 298.64 321.28 298.08 321.76 297.68C322.16 297.2 322.64 297.04 323.2 297.04C323.76 297.04 324.24 297.2 324.56 297.6C324.96 298 325.12 298.56 325.12 299.36H321.04Z" fill="black"/>
<path fill-rule="evenodd" clip-rule="evenodd" d="M335.68 297.28H335.76V295.36C335.28 295.44 334.88 295.6 334.48 295.92C334 296.32 333.68 296.8 333.44 297.36V295.52H332V304.48H333.44V300.64C333.44 299.6 333.68 298.8 334 298.24C334.4 297.6 334.96 297.28 335.68 297.28Z" fill="black"/>
<path fill-rule="evenodd" clip-rule="evenodd" d="M343.04 304.48V298.72C343.04 297.6 342.8 296.72 342.24 296.16C341.76 295.68 341.04 295.36 340.24 295.36C339.12 295.36 338.16 295.84 337.28 296.72L337.92 297.84C338.64 297.28 339.36 296.96 340 296.96C341.04 296.96 341.6 297.52 341.6 298.72V299.04H339.6C338.72 299.04 338.08 299.28 337.52 299.76C337.04 300.16 336.72 300.8 336.72 301.68C336.72 302.56 336.96 303.28 337.44 303.84C338 304.32 338.56 304.64 339.36 304.64C340.32 304.64 341.12 304.16 341.68 303.28V304.48H343.04ZM341.52 301.12C341.52 301.68 341.36 302.16 341.04 302.48C340.64 302.88 340.24 303.04 339.76 303.04C339.28 303.04 338.88 302.88 338.64 302.64C338.4 302.4 338.24 302.08 338.24 301.68C338.24 301.28 338.4 300.96 338.64 300.72C338.96 300.48 339.36 300.4 339.84 300.4H341.52V301.12Z" fill="black"/>
<path fill-rule="evenodd" clip-rule="evenodd" d="M346.96 297.04H348.88V295.52H346.96V292.72H345.52V295.52H344.56V297.04H345.52V301.52C345.52 302.48 345.68 303.2 346.16 303.76C346.64 304.32 347.2 304.64 347.84 304.64C348.48 304.64 349.04 304.32 349.52 303.68L348.96 302.4C348.64 302.8 348.32 302.96 348 302.96C347.68 302.96 347.44 302.88 347.28 302.56C347.12 302.32 346.96 302 346.96 301.6V297.04Z" fill="black"/>
<path d="M350.713 304.488H352.233V295.528H350.713V304.488Z" fill="black"/>
<path fill-rule="evenodd" clip-rule="evenodd" d="M350.8 293.76C351.04 294 351.28 294.08 351.52 294.08C351.76 294.08 352 294 352.16 293.76C352.4 293.52 352.48 293.2 352.48 292.88C352.48 292.56 352.4 292.32 352.16 292.08C352 291.84 351.76 291.68 351.52 291.68C351.28 291.68 351.04 291.84 350.8 292.08C350.64 292.32 350.56 292.56 350.56 292.88C350.56 293.2 350.64 293.52 350.8 293.76Z" fill="black"/>
<path fill-rule="evenodd" clip-rule="evenodd" d="M360.4 303.28C361.12 302.4 361.44 301.28 361.44 300C361.44 298.72 361.12 297.6 360.4 296.72C359.68 295.84 358.8 295.36 357.68 295.36C356.64 295.36 355.76 295.84 355.04 296.72C354.32 297.6 353.92 298.72 353.92 300C353.92 301.28 354.32 302.4 355.04 303.28C355.76 304.16 356.64 304.64 357.68 304.64C358.8 304.64 359.68 304.16 360.4 303.28ZM356.08 302.08C355.68 301.6 355.44 300.88 355.44 300C355.44 299.12 355.68 298.4 356.08 297.92C356.48 297.36 357.04 297.04 357.68 297.04C358.32 297.04 358.88 297.36 359.28 297.92C359.76 298.4 359.92 299.12 359.92 300C359.92 300.88 359.76 301.6 359.28 302.08C358.88 302.64 358.32 302.96 357.68 302.96C357.04 302.96 356.48 302.64 356.08 302.08Z" fill="black"/>
<path fill-rule="evenodd" clip-rule="evenodd" d="M364.64 299.6C364.64 299.2 364.72 298.88 364.8 298.56C364.88 298.24 365.04 297.92 365.2 297.76C365.6 297.28 366.08 297.12 366.56 297.12C367.68 297.12 368.24 297.92 368.24 299.6V304.48H369.68V298.96C369.68 297.84 369.44 296.96 368.96 296.32C368.48 295.68 367.84 295.36 367.04 295.36C366.48 295.36 366.08 295.52 365.6 295.84C365.2 296.16 364.88 296.64 364.64 297.2V295.52H363.12V304.48H364.64V299.6Z" fill="black"/>
<path fill-rule="evenodd" clip-rule="evenodd" d="M377.6 304.48V298.72C377.6 297.6 377.28 296.72 376.8 296.16C376.24 295.68 375.52 295.36 374.72 295.36C373.6 295.36 372.64 295.84 371.76 296.72L372.4 297.84C373.12 297.28 373.84 296.96 374.48 296.96C375.52 296.96 376.08 297.52 376.08 298.72V299.04H374.16C373.28 299.04 372.56 299.28 372 299.76C371.52 300.16 371.28 300.8 371.28 301.68C371.28 302.56 371.52 303.28 372 303.84C372.48 304.32 373.12 304.64 373.84 304.64C374.8 304.64 375.6 304.16 376.16 303.28V304.48H377.6ZM376.08 301.12C376.08 301.68 375.92 302.16 375.52 302.48C375.2 302.88 374.72 303.04 374.24 303.04C373.76 303.04 373.44 302.88 373.12 302.64C372.88 302.4 372.72 302.08 372.72 301.68C372.72 301.28 372.88 300.96 373.12 300.72C373.44 300.48 373.84 300.4 374.4 300.4H376.08V301.12Z" fill="black"/>
<path d="M379.673 304.488H381.113V292.008H379.673V304.488ZM383.273 304.488H384.793V295.528H383.273V304.488Z" fill="black"/>
<path fill-rule="evenodd" clip-rule="evenodd" d="M383.44 293.76C383.6 294 383.84 294.08 384.08 294.08C384.32 294.08 384.56 294 384.72 293.76C384.96 293.52 385.04 293.2 385.04 292.88C385.04 292.56 384.96 292.32 384.72 292.08C384.56 291.84 384.32 291.68 384.08 291.68C383.84 291.68 383.6 291.84 383.44 292.08C383.332 292.183 383.247 292.307 383.192 292.445C383.137 292.583 383.112 292.732 383.12 292.88C383.12 293.2 383.2 293.52 383.44 293.76Z" fill="black"/>
<path fill-rule="evenodd" clip-rule="evenodd" d="M392.08 301.84C392.08 300.96 391.84 300.32 391.36 299.92C391.12 299.68 390.88 299.52 390.64 299.44C390.48 299.36 390.24 299.2 390 299.12L389.28 298.88C388.96 298.8 388.72 298.72 388.56 298.56C388.32 298.48 388.24 298.24 388.24 297.92C388.24 297.6 388.32 297.36 388.56 297.2C388.8 297.04 389.04 296.96 389.44 296.96C390.08 296.96 390.72 297.2 391.28 297.68L391.84 296.32C391.12 295.68 390.4 295.36 389.52 295.36C388.72 295.36 388.08 295.68 387.52 296.16C387.04 296.64 386.8 297.28 386.8 298.16C386.8 299.28 387.52 300.16 388.96 300.64C389.04 300.64 389.12 300.72 389.12 300.72C390.08 301.12 390.56 301.52 390.56 301.92C390.568 302.069 390.543 302.217 390.488 302.356C390.433 302.494 390.348 302.618 390.24 302.72C390.08 302.88 389.84 302.96 389.44 302.96C388.72 302.96 387.92 302.56 387.04 301.84L386.32 303.28C386.8 303.68 387.28 304 387.84 304.24C388.4 304.48 388.88 304.64 389.44 304.64C390.24 304.64 390.8 304.32 391.36 303.84C391.84 303.36 392.08 302.64 392.08 301.84Z" fill="black"/>
<path fill-rule="evenodd" clip-rule="evenodd" d="M400.4 300.8V299.52C400.4 298.24 400.08 297.2 399.36 296.48C398.72 295.76 397.84 295.36 396.88 295.36C395.92 295.36 395.12 295.84 394.4 296.64C393.68 297.44 393.28 298.56 393.28 300C393.28 301.44 393.68 302.56 394.32 303.36C395.04 304.16 395.92 304.64 396.88 304.64C398.16 304.64 399.12 304.08 399.92 303.12L399.04 301.92C398.56 302.64 397.92 302.96 397.04 302.96C396.48 302.96 395.92 302.8 395.52 302.4C395.04 302 394.88 301.44 394.8 300.8H400.4ZM394.8 299.36C394.8 298.64 395.04 298.08 395.44 297.68C395.92 297.2 396.4 297.04 396.96 297.04C397.52 297.04 397.92 297.2 398.32 297.6C398.72 298 398.88 298.56 398.88 299.36H394.8Z" fill="black"/>
<path fill-rule="evenodd" clip-rule="evenodd" d="M404.96 304.64C406 304.64 406.8 304.08 407.36 303.12V304.48H408.88V292H407.36V296.88C406.8 295.92 406 295.36 405.04 295.36C404.08 295.36 403.28 295.84 402.64 296.64C401.92 297.44 401.6 298.56 401.6 300C401.6 301.36 401.92 302.48 402.56 303.36C403.28 304.16 404 304.64 404.96 304.64ZM403.04 300.08C403.04 299.2 403.28 298.48 403.76 297.92C404.16 297.36 404.64 297.04 405.28 297.04C405.84 297.04 406.4 297.36 406.8 297.92C407.2 298.48 407.36 299.2 407.36 300C407.36 300.88 407.2 301.6 406.8 302.16C406.4 302.64 405.84 302.96 405.28 302.96C404.72 302.96 404.16 302.64 403.76 302.16C403.28 301.6 403.04 300.88 403.04 300.08Z" fill="black"/>
<path d="M479.433 298.648H427.273" stroke="#CC0000" stroke-width="2.79999" stroke-miterlimit="10" stroke-linejoin="round" stroke-dasharray="15.84 5.28"/>
</svg>
