<svg width="511" height="474" viewBox="0 0 511 474" fill="none" xmlns="http://www.w3.org/2000/svg">
<path fill-rule="evenodd" clip-rule="evenodd" d="M198.48 21.6001V5.12014L204.32 19.7601H205.92L211.76 5.12014V21.6001H214.64V0.48015H210.16L205.12 13.7601L200 0.48015H195.6V21.6001" fill="black"/>
<path fill-rule="evenodd" clip-rule="evenodd" d="M229.28 21.6003V11.2804C229.28 9.20036 228.8 7.68037 227.84 6.72037C226.88 5.76037 225.68 5.28037 224.16 5.28037C222.16 5.28037 220.4 6.08037 218.88 7.60037L220.08 9.76036C221.36 8.64036 222.56 8.16037 223.76 8.16037C225.68 8.16037 226.64 9.20036 226.64 11.3604V11.9204H223.12C221.52 11.9204 220.24 12.3204 219.36 13.1204C218.4 13.9204 217.92 15.0403 217.92 16.6403C217.92 18.2403 218.4 19.5203 219.28 20.4803C220.16 21.4403 221.2 21.8403 222.56 21.8403C224.32 21.8403 225.76 21.0403 226.8 19.5203V21.6003H229.28ZM226.56 15.6803C226.56 16.6403 226.24 17.5203 225.6 18.0803C224.96 18.7203 224.24 19.0403 223.36 19.0403C222.48 19.0403 221.84 18.8003 221.36 18.4003C220.88 18.0003 220.64 17.3603 220.64 16.5603C220.64 15.8403 220.88 15.2803 221.36 14.8803C221.84 14.4804 222.56 14.3204 223.52 14.3204H226.56V15.6803Z" fill="black"/>
<path fill-rule="evenodd" clip-rule="evenodd" d="M239.92 5.28032C238.16 5.28032 236.8 6.32032 235.76 8.40031V5.52032H233.04V27.5203H235.76V19.2003C237.04 20.9603 238.48 21.8403 240.08 21.8403C241.68 21.8403 243.12 21.1203 244.32 19.5203C245.52 18.0003 246.16 16.0003 246.16 13.5203C246.16 11.0403 245.52 9.04031 244.32 7.52031C243.12 6.08032 241.6 5.28032 239.92 5.28032ZM235.68 13.6003C235.68 12.0803 236.08 10.8003 236.8 9.84031C237.52 8.80031 238.4 8.24031 239.52 8.24031C240.56 8.24031 241.52 8.80031 242.32 9.84031C243.04 10.8003 243.44 12.0803 243.44 13.6003C243.44 15.2003 243.04 16.4003 242.24 17.4403C241.44 18.4003 240.56 18.8803 239.52 18.8803C238.4 18.8803 237.52 18.4003 236.8 17.3603C236.08 16.4003 235.68 15.1203 235.68 13.6003Z" fill="black"/>
<path fill-rule="evenodd" clip-rule="evenodd" d="M268.8 0.48015V16.3201L259.04 0.48015H256.24V21.6001H259.04V6.24014L268.56 21.6001H271.68V0.48015" fill="black"/>
<path fill-rule="evenodd" clip-rule="evenodd" d="M286.72 19.4401C288 17.8401 288.64 15.9201 288.64 13.6001C288.64 11.2801 288 9.28012 286.72 7.68012C285.36 6.08013 283.76 5.28013 281.84 5.28013C279.92 5.28013 278.32 6.08013 277.04 7.68012C275.76 9.28012 275.12 11.2801 275.12 13.6001C275.12 15.9201 275.76 17.8401 277.04 19.4401C278.32 21.0401 279.92 21.8401 281.84 21.8401C283.76 21.8401 285.36 21.0401 286.72 19.4401ZM278.96 17.3601C278.16 16.4001 277.84 15.1201 277.84 13.6001C277.84 12.0801 278.16 10.8001 278.96 9.84012C279.76 8.80012 280.72 8.32012 281.84 8.32012C283.04 8.32012 284 8.80012 284.8 9.84012C285.52 10.8001 285.92 12.0801 285.92 13.6001C285.92 15.1201 285.52 16.4001 284.8 17.3601C284 18.4001 283.04 18.8801 281.84 18.8801C280.72 18.8801 279.76 18.4001 278.96 17.3601Z" fill="black"/>
<path fill-rule="evenodd" clip-rule="evenodd" d="M291.84 21.2003C292.16 21.6803 292.56 21.8403 293.12 21.8403C293.6 21.8403 294 21.6803 294.4 21.2003C294.72 20.8003 294.88 20.2403 294.88 19.6003C294.88 18.9603 294.72 18.4803 294.4 18.0003C294 17.6003 293.6 17.3603 293.12 17.3603C292.56 17.3603 292.16 17.6003 291.84 18.0003C291.44 18.4803 291.28 18.9603 291.28 19.6003C291.28 20.2403 291.44 20.8003 291.84 21.2003Z" fill="black"/>
<path fill-rule="evenodd" clip-rule="evenodd" d="M304.88 3.68021H310.96L307.12 9.3602V12.0802C307.68 11.8402 308.24 11.7602 308.88 11.7602C310.16 11.7602 311.12 12.0802 311.84 12.7202C312.56 13.3602 312.88 14.2402 312.88 15.2802C312.88 16.4002 312.56 17.2002 311.92 17.7602C311.28 18.3202 310.48 18.6402 309.52 18.6402C308 18.6402 306.56 18.0002 305.2 16.8002L304 19.6802C305.76 21.2002 307.52 21.9202 309.36 21.9202C311.2 21.9202 312.72 21.2802 313.84 20.0802C315.04 18.8002 315.6 17.1202 315.6 14.9602C315.6 13.3602 315.2 12.0002 314.32 10.8002C313.44 9.6802 312.24 9.0402 310.72 8.9602L314.72 3.28021V0.480219H304.88V3.68021Z" fill="black"/>
<path fill-rule="evenodd" clip-rule="evenodd" d="M79.1202 174.96C81.4402 174.96 83.0402 174.32 84.0002 173.04C84.8002 171.92 85.2002 170.56 85.2002 169.12C85.2002 167.76 84.8802 166.72 84.3202 165.76C83.6802 164.88 82.8002 164.32 81.7602 164C82.0802 163.84 82.3202 163.76 82.4002 163.68C82.4802 163.6 82.7202 163.44 83.0402 163.12C83.8402 162.32 84.2402 161.12 84.2402 159.44C84.2402 158.08 83.9202 156.88 83.1202 155.76C82.7202 155.2 82.0802 154.72 81.2802 154.4C80.4802 154 79.4402 153.84 78.3202 153.84H71.7603V174.96H79.1202ZM74.6402 162.64V157.12H78.2402C79.2802 157.12 80.0802 157.36 80.5602 157.84C81.0402 158.24 81.2802 158.96 81.2802 160C81.2802 161.76 80.3202 162.64 78.2402 162.64H74.6402ZM74.6402 171.68V165.92H78.7202C79.9202 165.92 80.8002 166.16 81.4402 166.64C82.0002 167.12 82.3202 167.76 82.3202 168.72C82.3202 169.84 82.0002 170.64 81.4402 171.04C80.8802 171.52 80.0802 171.68 79.0402 171.68H74.6402Z" fill="black"/>
<path fill-rule="evenodd" clip-rule="evenodd" d="M92.56 170.16C91.7601 169.04 91.4401 167.52 91.4401 165.52V153.84H88.5601V165.68C88.5601 168.72 89.2001 171.12 90.5601 172.72C91.92 174.4 93.6 175.2 95.68 175.2C97.76 175.2 99.52 174.4 100.8 172.72C102.16 171.12 102.8 168.72 102.8 165.68V153.84H100V165.52C100 167.52 99.6 169.04 98.8 170.16C98.08 171.28 97.04 171.84 95.68 171.84C94.4 171.84 93.36 171.28 92.56 170.16Z" fill="black"/>
<path fill-rule="evenodd" clip-rule="evenodd" d="M112.4 156.64C113.2 156.64 114 156.8 114.88 157.2C115.76 157.52 116.4 158 116.88 158.56L118.4 155.92C117.68 155.04 116.72 154.48 115.68 154C114.64 153.6 113.52 153.36 112.48 153.36C110.8 153.36 109.44 153.84 108.24 154.96C107.12 156 106.56 157.52 106.56 159.44C106.56 161.44 107.04 162.88 108.08 163.84C108.56 164.32 109.12 164.72 109.76 165.04C110.4 165.36 111.36 165.68 112.56 166.08C113.84 166.4 114.72 166.88 115.2 167.28C115.68 167.76 116 168.4 116 169.2C116 170 115.68 170.64 115.2 171.2C114.64 171.68 113.92 171.92 112.96 171.92C111.12 171.92 109.36 170.96 107.68 169.12L105.92 171.84C106.96 172.96 108 173.84 109.2 174.4C110.32 174.96 111.6 175.2 112.88 175.2C114.72 175.2 116.16 174.64 117.28 173.52C118.4 172.32 118.96 170.88 118.96 169.04C118.96 167.2 118.48 165.76 117.6 164.8C116.72 163.92 115.44 163.12 113.68 162.64C112 162.08 110.88 161.6 110.32 161.12C109.84 160.72 109.52 160.08 109.52 159.2C109.52 158.32 109.84 157.68 110.32 157.28C110.88 156.88 111.52 156.64 112.4 156.64Z" fill="black"/>
<path fill-rule="evenodd" clip-rule="evenodd" d="M134.16 156.64C134.96 156.64 135.76 156.8 136.64 157.2C137.52 157.52 138.16 158 138.64 158.56L140.16 155.92C139.44 155.04 138.48 154.48 137.44 154C136.4 153.6 135.28 153.36 134.24 153.36C132.56 153.36 131.2 153.84 130 154.96C128.88 156 128.32 157.52 128.32 159.44C128.32 161.44 128.8 162.88 129.84 163.84C130.32 164.32 130.88 164.72 131.52 165.04C132.16 165.36 133.12 165.68 134.4 166.08C135.6 166.4 136.48 166.88 136.96 167.28C137.52 167.76 137.76 168.4 137.76 169.2C137.76 170 137.44 170.64 136.96 171.2C136.4 171.68 135.68 171.92 134.72 171.92C132.88 171.92 131.12 170.96 129.44 169.12L127.68 171.84C128.72 172.96 129.76 173.84 130.96 174.4C132.08 174.96 133.36 175.2 134.64 175.2C136.48 175.2 137.92 174.64 139.04 173.52C140.16 172.32 140.72 170.88 140.72 169.04C140.72 167.2 140.24 165.76 139.36 164.8C138.48 163.92 137.2 163.12 135.52 162.64C133.76 162.08 132.64 161.6 132.08 161.12C131.6 160.72 131.28 160.08 131.28 159.2C131.28 158.32 131.6 157.68 132.08 157.28C132.64 156.88 133.28 156.64 134.16 156.64Z" fill="black"/>
<path fill-rule="evenodd" clip-rule="evenodd" d="M156 153.84H144.24V174.96H156.32V171.6H147.04V166H155.12V162.8H147.04V157.2H156" fill="black"/>
<path fill-rule="evenodd" clip-rule="evenodd" d="M173.44 160.72C173.44 158.32 172.88 156.56 171.76 155.52C170.64 154.4 168.8 153.84 166.24 153.84H160V174.96H162.8V167.92H166.56L170.56 174.96H174.16L169.76 167.28C172.16 166.4 173.44 164.24 173.44 160.72ZM166.32 164.64H162.8V157.12H166.4C167.92 157.12 169.04 157.36 169.6 157.84C170.16 158.4 170.48 159.36 170.48 160.72C170.48 162.08 170.24 163.12 169.6 163.68C169.04 164.32 167.92 164.64 166.32 164.64Z" fill="black"/>
<path fill-rule="evenodd" clip-rule="evenodd" d="M185.2 174.96L191.92 153.84H188.8L183.6 169.6L178.4 153.84H175.2L182 174.96" fill="black"/>
<path d="M194.314 174.968H197.194V153.848H194.314V174.968Z" fill="black"/>
<path fill-rule="evenodd" clip-rule="evenodd" d="M209.52 171.76C208 171.76 206.64 171.04 205.44 169.6C204.32 168.16 203.76 166.32 203.76 164.24C203.76 162.08 204.32 160.32 205.52 158.96C206.64 157.52 208.08 156.88 209.76 156.88C210.72 156.88 211.6 157.04 212.32 157.44C213.04 157.84 213.76 158.48 214.56 159.44L216.4 156.96C215.52 155.76 214.48 154.88 213.44 154.24C212.32 153.68 211.12 153.36 209.84 153.36C207.2 153.36 205.04 154.4 203.36 156.48C201.68 158.56 200.8 161.2 200.8 164.32C200.8 167.52 201.6 170.08 203.28 172.16C204.96 174.24 207.12 175.2 209.68 175.2C212.16 175.2 214.32 174 216.16 171.52L214.32 169.12C213.52 170.08 212.8 170.72 212.08 171.12C211.36 171.52 210.56 171.76 209.52 171.76Z" fill="black"/>
<path fill-rule="evenodd" clip-rule="evenodd" d="M231.44 153.84H219.6V174.96H231.76V171.6H222.48V166H230.48V162.8H222.48V157.2H231.44" fill="black"/>
<path fill-rule="evenodd" clip-rule="evenodd" d="M240.48 156.64C241.28 156.64 242.16 156.8 242.96 157.2C243.84 157.52 244.48 158 244.96 158.56L246.48 155.92C245.76 155.04 244.8 154.48 243.76 154C242.72 153.6 241.68 153.36 240.56 153.36C238.88 153.36 237.52 153.84 236.4 154.96C235.2 156 234.64 157.52 234.64 159.44C234.64 161.44 235.2 162.88 236.16 163.84C236.64 164.32 237.2 164.72 237.84 165.04C238.48 165.36 239.44 165.68 240.72 166.08C241.92 166.4 242.8 166.88 243.28 167.28C243.84 167.76 244.08 168.4 244.08 169.2C244.08 170 243.76 170.64 243.28 171.2C242.72 171.68 242 171.92 241.04 171.92C239.28 171.92 237.44 170.96 235.76 169.12L234 171.84C235.04 172.96 236.08 173.84 237.28 174.4C238.48 174.96 239.68 175.2 241.04 175.2C242.8 175.2 244.24 174.64 245.36 173.52C246.48 172.32 247.04 170.88 247.04 169.04C247.04 167.2 246.56 165.76 245.68 164.8C244.8 163.92 243.52 163.12 241.84 162.64C240.08 162.08 238.96 161.6 238.4 161.12C237.92 160.72 237.6 160.08 237.6 159.2C237.6 158.32 237.92 157.68 238.4 157.28C238.96 156.88 239.6 156.64 240.48 156.64Z" fill="black"/>
<path d="M257.114 174.968H259.994V153.848H257.114V174.968Z" fill="black"/>
<path fill-rule="evenodd" clip-rule="evenodd" d="M277.28 153.84V169.6L267.52 153.84H264.64V174.96H267.52V159.6L277.04 174.96H280.08V153.84" fill="black"/>
<path fill-rule="evenodd" clip-rule="evenodd" d="M293.76 170.16H302.16L303.92 174.96H306.88L299.52 153.84H296.48L289.04 174.96H292.08L293.76 170.16ZM301.04 166.88H294.96L298 158.16L301.04 166.88Z" fill="black"/>
<path fill-rule="evenodd" clip-rule="evenodd" d="M312.08 174.96V158.48L317.92 173.12H319.52L325.44 158.48V174.96H328.24V153.84H323.84L318.8 167.12L313.68 153.84H309.28V174.96" fill="black"/>
<path fill-rule="evenodd" clip-rule="evenodd" d="M338.72 153.84H332.96V174.96H335.76V168.8H338.8C341.28 168.8 343.12 168.16 344.24 167.04C345.44 165.84 346.08 163.92 346.08 161.36C346.08 158.8 345.52 156.96 344.32 155.68C343.12 154.48 341.28 153.84 338.72 153.84ZM339.12 165.52H335.76V157.12H338.64C340.24 157.12 341.36 157.36 342.08 158C342.8 158.64 343.12 159.6 343.12 161.12C343.12 162.56 342.88 163.68 342.32 164.4C341.76 165.2 340.64 165.52 339.12 165.52Z" fill="black"/>
<path fill-rule="evenodd" clip-rule="evenodd" d="M349.44 174.96H352.24V166.32H360.64V174.96H363.44V153.84H360.64V163.04H352.24V153.84H349.44" fill="black"/>
<path d="M368.153 174.968H370.953V153.848H368.153V174.968Z" fill="black"/>
<path fill-rule="evenodd" clip-rule="evenodd" d="M382 157.12H387.12V153.84H374.08V157.12H379.12V174.96H382" fill="black"/>
<path fill-rule="evenodd" clip-rule="evenodd" d="M403.6 160.72C403.6 158.32 403.12 156.56 402 155.52C400.88 154.4 399.04 153.84 396.48 153.84H390.16V174.96H393.04V167.92H396.8L400.8 174.96H404.4L400 167.28C402.4 166.4 403.6 164.24 403.6 160.72ZM396.56 164.64H393.04V157.12H396.64C398.16 157.12 399.2 157.36 399.84 157.84C400.4 158.4 400.72 159.36 400.72 160.72C400.72 162.08 400.4 163.12 399.84 163.68C399.28 164.32 398.16 164.64 396.56 164.64Z" fill="black"/>
<path fill-rule="evenodd" clip-rule="evenodd" d="M421.84 172.08C423.52 170 424.4 167.36 424.4 164.24C424.4 161.12 423.52 158.56 421.84 156.48C420.08 154.4 418 153.36 415.52 153.36C413.04 153.36 410.88 154.4 409.2 156.48C407.52 158.56 406.64 161.12 406.64 164.24C406.64 167.36 407.52 170 409.2 172.08C410.88 174.16 413.04 175.2 415.52 175.2C418 175.2 420.08 174.16 421.84 172.08ZM419.76 158.88C420.88 160.32 421.44 162.16 421.44 164.24C421.44 166.4 420.88 168.24 419.76 169.68C418.56 171.2 417.2 171.92 415.52 171.92C413.84 171.92 412.4 171.2 411.28 169.68C410.16 168.24 409.52 166.4 409.52 164.24C409.52 162.16 410.16 160.32 411.28 158.88C412.4 157.36 413.84 156.64 415.52 156.64C417.2 156.64 418.56 157.36 419.76 158.88Z" fill="black"/>
<path fill-rule="evenodd" clip-rule="evenodd" d="M433.04 156.64C433.92 156.64 434.72 156.8 435.6 157.2C436.4 157.52 437.12 158 437.6 158.56L439.12 155.92C438.32 155.04 437.44 154.48 436.4 154C435.28 153.6 434.24 153.36 433.2 153.36C431.52 153.36 430.08 153.84 428.96 154.96C427.84 156 427.28 157.52 427.28 159.44C427.28 161.44 427.76 162.88 428.72 163.84C429.28 164.32 429.84 164.72 430.48 165.04C431.12 165.36 432.08 165.68 433.28 166.08C434.48 166.4 435.36 166.88 435.92 167.28C436.4 167.76 436.64 168.4 436.64 169.2C436.64 170 436.4 170.64 435.84 171.2C435.28 171.68 434.56 171.92 433.68 171.92C431.84 171.92 430.08 170.96 428.4 169.12L426.56 171.84C427.6 172.96 428.72 173.84 429.84 174.4C431.04 174.96 432.24 175.2 433.6 175.2C435.36 175.2 436.88 174.64 437.92 173.52C439.04 172.32 439.6 170.88 439.6 169.04C439.6 167.2 439.2 165.76 438.32 164.8C437.44 163.92 436.16 163.12 434.4 162.64C432.64 162.08 431.52 161.6 431.04 161.12C430.48 160.72 430.24 160.08 430.24 159.2C430.24 158.32 430.48 157.68 431.04 157.28C431.52 156.88 432.24 156.64 433.04 156.64Z" fill="black"/>
<path fill-rule="evenodd" clip-rule="evenodd" d="M199.6 228C199.6 227.68 199.6 227.36 199.68 227.12C199.76 226.88 199.92 226.72 200.08 226.48C200.32 226.16 200.72 226 201.12 226C202 226 202.4 226.64 202.4 228V231.84H203.6V227.52C203.6 226.56 203.44 225.84 203.04 225.36C202.64 224.88 202.08 224.64 201.44 224.64C201.04 224.64 200.72 224.8 200.4 225.04C200.08 225.28 199.76 225.6 199.6 226.08V224.8H198.4V231.84H199.6V228Z" fill="black"/>
<path fill-rule="evenodd" clip-rule="evenodd" d="M210 230.88C210.56 230.24 210.88 229.36 210.88 228.32C210.88 227.28 210.56 226.4 210 225.68C209.44 225.04 208.72 224.64 207.84 224.64C207.04 224.64 206.32 225.04 205.76 225.68C205.2 226.4 204.88 227.28 204.88 228.32C204.88 229.36 205.2 230.24 205.76 230.88C206.32 231.6 207.04 232 207.84 232C208.72 232 209.44 231.6 210 230.88ZM206.56 230C206.24 229.52 206.08 228.96 206.08 228.32C206.08 227.6 206.24 227.04 206.56 226.64C206.96 226.24 207.36 226 207.84 226C208.4 226 208.8 226.24 209.12 226.64C209.52 227.04 209.68 227.6 209.68 228.32C209.68 228.96 209.52 229.52 209.12 230C208.8 230.4 208.4 230.64 207.84 230.64C207.36 230.64 206.96 230.4 206.56 230Z" fill="black"/>
<path fill-rule="evenodd" clip-rule="evenodd" d="M213.68 226H215.12V224.8H213.68V222.56H212.48V224.8H211.76V226H212.48V229.52C212.48 230.24 212.64 230.88 213.04 231.28C213.36 231.76 213.84 232 214.32 232C214.8 232 215.28 231.76 215.68 231.28L215.2 230.24C214.96 230.56 214.72 230.64 214.48 230.64C214.24 230.64 214 230.56 213.92 230.4C213.76 230.16 213.68 229.92 213.68 229.6V226Z" fill="black"/>
<path fill-rule="evenodd" clip-rule="evenodd" d="M223.6 229.76C223.6 229.04 223.44 228.56 223.04 228.24C222.8 228.08 222.64 228 222.48 227.84L222 227.6C221.76 227.6 221.6 227.52 221.36 227.44C221.12 227.36 220.96 227.28 220.8 227.2C220.64 227.12 220.56 226.88 220.56 226.72C220.56 226.4 220.64 226.24 220.8 226.08C220.96 226 221.2 225.92 221.52 225.92C222 225.92 222.56 226.08 222.96 226.48L223.44 225.36C222.88 224.88 222.24 224.64 221.6 224.64C220.96 224.64 220.4 224.88 220 225.28C219.6 225.68 219.36 226.16 219.36 226.8C219.36 227.76 220 228.4 221.12 228.8C221.2 228.88 221.2 228.88 221.28 228.88C222 229.2 222.4 229.52 222.4 229.84C222.4 230.08 222.32 230.32 222.16 230.48C222 230.56 221.84 230.64 221.52 230.64C220.96 230.64 220.32 230.4 219.6 229.76L219.04 230.88C219.36 231.28 219.76 231.52 220.24 231.68C220.64 231.84 221.12 232 221.52 232C222.08 232 222.64 231.76 223.04 231.36C223.36 230.96 223.6 230.4 223.6 229.76Z" fill="black"/>
<path fill-rule="evenodd" clip-rule="evenodd" d="M226.16 228C226.16 227.68 226.16 227.36 226.24 227.12C226.32 226.88 226.48 226.72 226.56 226.48C226.88 226.16 227.28 226 227.68 226C228.56 226 228.96 226.64 228.96 228V231.84H230.16V227.52C230.16 226.56 230 225.84 229.6 225.36C229.2 224.88 228.64 224.64 228 224.64C227.6 224.64 227.28 224.8 226.88 225.04C226.56 225.28 226.32 225.6 226.16 226.08V222H224.96V231.84H226.16V228Z" fill="black"/>
<path fill-rule="evenodd" clip-rule="evenodd" d="M236.56 230.88C237.12 230.24 237.44 229.36 237.44 228.32C237.44 227.28 237.12 226.4 236.56 225.68C236 225.04 235.28 224.64 234.4 224.64C233.6 224.64 232.88 225.04 232.32 225.68C231.76 226.4 231.44 227.28 231.44 228.32C231.44 229.36 231.76 230.24 232.32 230.88C232.88 231.6 233.6 232 234.4 232C235.28 232 236 231.6 236.56 230.88ZM233.12 230C232.8 229.52 232.64 228.96 232.64 228.32C232.64 227.6 232.8 227.04 233.12 226.64C233.44 226.24 233.92 226 234.4 226C234.96 226 235.36 226.24 235.68 226.64C236.08 227.04 236.24 227.6 236.24 228.32C236.24 228.96 236.08 229.52 235.68 230C235.36 230.4 234.96 230.64 234.4 230.64C233.92 230.64 233.44 230.4 233.12 230Z" fill="black"/>
<path fill-rule="evenodd" clip-rule="evenodd" d="M241.44 231.84L242.72 227.04L244.08 231.84H245.44L247.44 224.8H246.16L244.8 230.16L243.36 224.8H242.16L240.72 230.16L239.28 224.8H238.08L240.08 231.84" fill="black"/>
<path fill-rule="evenodd" clip-rule="evenodd" d="M249.68 228C249.68 227.68 249.68 227.36 249.76 227.12C249.84 226.88 249.92 226.72 250.08 226.48C250.4 226.16 250.8 226 251.2 226C252.08 226 252.48 226.64 252.48 228V231.84H253.68V227.52C253.68 226.56 253.44 225.84 253.12 225.36C252.72 224.88 252.16 224.64 251.52 224.64C251.12 224.64 250.8 224.8 250.48 225.04C250.08 225.28 249.84 225.6 249.68 226.08V224.8H248.48V231.84H249.68V228Z" fill="black"/>
<path fill-rule="evenodd" clip-rule="evenodd" d="M259.68 224.16C259.68 223.84 259.76 223.6 259.92 223.36C260.08 223.2 260.24 223.04 260.48 223.04C260.8 223.04 261.04 223.2 261.28 223.52L261.76 222.48C261.36 222 260.88 221.76 260.32 221.76C259.84 221.76 259.44 222 259.04 222.4C258.72 222.88 258.48 223.44 258.48 224.24V224.8H257.84V226H258.48V231.84H259.68V226H261.2V224.8H259.68V224.16Z" fill="black"/>
<path fill-rule="evenodd" clip-rule="evenodd" d="M267.12 230.88C267.68 230.24 267.92 229.36 267.92 228.32C267.92 227.28 267.68 226.4 267.12 225.68C266.56 225.04 265.84 224.64 264.96 224.64C264.08 224.64 263.36 225.04 262.8 225.68C262.24 226.4 262 227.28 262 228.32C262 229.36 262.24 230.24 262.8 230.88C263.36 231.6 264.08 232 264.96 232C265.84 232 266.56 231.6 267.12 230.88ZM263.68 230C263.36 229.52 263.2 228.96 263.2 228.32C263.2 227.6 263.36 227.04 263.68 226.64C264 226.24 264.48 226 264.96 226C265.44 226 265.92 226.24 266.24 226.64C266.56 227.04 266.72 227.6 266.72 228.32C266.72 228.96 266.56 229.52 266.24 230C265.92 230.4 265.44 230.64 264.96 230.64C264.48 230.64 264 230.4 263.68 230Z" fill="black"/>
<path fill-rule="evenodd" clip-rule="evenodd" d="M272.24 226.16H272.32V224.64C271.92 224.64 271.6 224.8 271.28 225.12C270.929 225.393 270.654 225.751 270.48 226.16V224.8H269.28V231.84H270.48V228.8C270.48 228 270.64 227.36 270.96 226.88C271.2 226.4 271.68 226.16 272.24 226.16Z" fill="black"/>
<path fill-rule="evenodd" clip-rule="evenodd" d="M278.96 232C279.84 232 280.64 231.52 281.36 230.64L280.64 229.68C280.16 230.32 279.68 230.64 279.12 230.64C278.56 230.64 278.16 230.4 277.76 229.92C277.44 229.44 277.28 228.96 277.28 228.24C277.28 227.6 277.44 227.04 277.76 226.64C278.16 226.24 278.56 226.08 279.12 226.08C279.6 226.08 280.08 226.32 280.56 226.88L281.28 225.76C280.72 225.04 280 224.64 279.12 224.64C278.24 224.64 277.52 224.96 276.96 225.68C276.32 226.32 276.08 227.28 276.08 228.32C276.08 229.44 276.32 230.32 276.88 230.96C277.44 231.6 278.16 232 278.96 232Z" fill="black"/>
<path d="M282.553 231.848H283.753V221.928H282.553V231.848Z" fill="black"/>
<path fill-rule="evenodd" clip-rule="evenodd" d="M290.08 231.84V227.28C290.08 226.4 289.84 225.68 289.44 225.28C289.04 224.88 288.48 224.64 287.76 224.64C286.88 224.64 286.16 224.96 285.44 225.68L286 226.64C286.56 226.16 287.12 225.92 287.6 225.92C288.48 225.92 288.88 226.4 288.88 227.28V227.6H287.36C286.64 227.6 286.08 227.76 285.68 228.08C285.28 228.48 285.04 228.96 285.04 229.68C285.04 230.4 285.2 230.96 285.6 231.36C286 231.76 286.48 232 287.12 232C287.84 232 288.48 231.6 288.96 230.88V231.84H290.08ZM288.88 229.2C288.88 229.68 288.72 230 288.48 230.32C288.16 230.56 287.84 230.72 287.44 230.72C287.04 230.72 286.8 230.64 286.56 230.4C286.32 230.24 286.24 230 286.24 229.6C286.24 229.28 286.32 229.04 286.56 228.88C286.8 228.72 287.12 228.64 287.52 228.64H288.88V229.2Z" fill="black"/>
<path fill-rule="evenodd" clip-rule="evenodd" d="M294.721 226.16V224.64C294.401 224.64 294.001 224.8 293.681 225.12C293.361 225.36 293.121 225.76 292.881 226.16V224.8H291.681V231.84H292.881V228.8C292.881 228 293.041 227.36 293.361 226.88C293.681 226.4 294.081 226.16 294.721 226.16Z" fill="black"/>
<path d="M295.914 231.848H297.114V224.808H295.914V231.848Z" fill="black"/>
<path fill-rule="evenodd" clip-rule="evenodd" d="M296 223.36C296.16 223.52 296.32 223.6 296.56 223.6C296.72 223.6 296.96 223.52 297.12 223.36C297.2 223.12 297.28 222.96 297.28 222.64C297.28 222.4 297.2 222.16 297.12 222C296.96 221.84 296.72 221.76 296.56 221.76C296.32 221.76 296.16 221.84 296 222C295.84 222.174 295.754 222.404 295.76 222.64C295.76 222.96 295.84 223.12 296 223.36Z" fill="black"/>
<path fill-rule="evenodd" clip-rule="evenodd" d="M300.32 226H301.84V224.8H300.32V222.56H299.12V224.8H298.4V226H299.12V229.52C299.12 230.24 299.28 230.88 299.68 231.28C300 231.76 300.48 232 300.96 232C301.44 232 301.92 231.76 302.32 231.28L301.84 230.24C301.6 230.56 301.36 230.64 301.12 230.64C300.88 230.64 300.64 230.56 300.56 230.4C300.4 230.16 300.32 229.92 300.32 229.6V226Z" fill="black"/>
<path fill-rule="evenodd" clip-rule="evenodd" d="M304.001 234.72C304.401 234.72 304.721 234.56 305.041 234.32C305.361 234 305.601 233.68 305.761 233.2L308.481 224.8H307.201L305.521 230L303.841 224.8H302.561C304.081 229.52 304.801 231.92 304.801 232.08C304.801 232.32 304.721 232.64 304.561 232.88C304.49 232.984 304.395 233.068 304.283 233.124C304.17 233.18 304.046 233.206 303.921 233.2C303.681 233.2 303.441 233.04 303.121 232.8L302.641 234C303.041 234.48 303.521 234.72 304.001 234.72Z" fill="black"/>
<path fill-rule="evenodd" clip-rule="evenodd" d="M309.44 231.68C309.6 231.84 309.84 232 310 232C310.24 232 310.48 231.84 310.56 231.68C310.72 231.52 310.8 231.28 310.8 230.96C310.8 230.72 310.72 230.48 310.56 230.24C310.48 230.08 310.24 230 310 230C309.84 230 309.6 230.08 309.44 230.24C309.36 230.48 309.28 230.72 309.28 230.96C309.28 231.28 309.36 231.52 309.44 231.68Z" fill="black"/>
<path fill-rule="evenodd" clip-rule="evenodd" d="M116.56 211.52C116.56 211.12 116.64 210.88 116.8 210.72C116.96 210.48 117.12 210.4 117.36 210.4C117.68 210.4 117.92 210.56 118.16 210.88L118.64 209.76C118.16 209.36 117.76 209.12 117.2 209.12C116.72 209.12 116.32 209.28 115.92 209.76C115.6 210.16 115.36 210.8 115.36 211.52V212.08H114.64V213.28H115.36V219.2H116.56V213.28H118.08V212.08H116.56V211.52Z" fill="black"/>
<path fill-rule="evenodd" clip-rule="evenodd" d="M122.16 213.44H122.24V212C121.84 212 121.52 212.16 121.2 212.4C120.88 212.72 120.64 213.04 120.4 213.52V212.08H119.2V219.2H120.4V216.16C120.4 215.36 120.56 214.64 120.88 214.16C121.2 213.68 121.6 213.44 122.16 213.44Z" fill="black"/>
<path fill-rule="evenodd" clip-rule="evenodd" d="M128.16 218.24C128.72 217.52 129.04 216.64 129.04 215.6C129.042 214.672 128.732 213.771 128.16 213.04C127.6 212.32 126.88 212 126.08 212C125.2 212 124.48 212.32 123.92 213.04C123.348 213.771 123.038 214.672 123.04 215.6C123.04 216.64 123.36 217.52 123.92 218.24C124.48 218.96 125.2 219.28 126.08 219.28C126.88 219.28 127.6 218.96 128.16 218.24ZM124.8 217.28C124.4 216.88 124.24 216.32 124.24 215.6C124.24 214.96 124.4 214.4 124.8 213.92C125.12 213.52 125.52 213.28 126.08 213.28C126.56 213.28 127.04 213.52 127.36 213.92C127.68 214.4 127.84 214.96 127.84 215.6C127.84 216.32 127.68 216.88 127.36 217.28C127.04 217.76 126.56 217.92 126.08 217.92C125.52 217.92 125.12 217.76 124.8 217.28Z" fill="black"/>
<path fill-rule="evenodd" clip-rule="evenodd" d="M131.6 215.36C131.6 214.64 131.76 214.16 132 213.84C132.32 213.52 132.72 213.28 133.12 213.28C133.52 213.28 133.84 213.44 134 213.76C134.24 214.08 134.32 214.64 134.32 215.28V219.2H135.52V215.2C135.52 214.64 135.68 214.16 136 213.84C136.24 213.44 136.64 213.28 137.04 213.28C137.92 213.28 138.32 214 138.32 215.28V219.2H139.52V214.8C139.52 213.92 139.28 213.2 138.96 212.72C138.56 212.24 138 212 137.36 212C136.56 212 135.84 212.4 135.28 213.36C134.96 212.4 134.32 212 133.44 212C133.04 212 132.72 212.08 132.32 212.32C132 212.56 131.76 212.96 131.6 213.36V212.08H130.4V219.2H131.6V215.36Z" fill="black"/>
<path fill-rule="evenodd" clip-rule="evenodd" d="M147.12 212C146.4 212 145.76 212.4 145.28 213.28V209.28H144.08V219.2H145.28V218.08C145.84 218.88 146.48 219.28 147.2 219.28C147.92 219.28 148.56 218.96 149.04 218.24C149.6 217.6 149.92 216.72 149.92 215.6C149.92 214.48 149.6 213.6 149.04 212.96C148.56 212.32 147.92 212 147.12 212ZM145.28 215.68C145.28 214.96 145.44 214.4 145.76 213.92C146.08 213.52 146.48 213.28 146.96 213.28C147.44 213.28 147.84 213.52 148.16 213.92C148.48 214.4 148.72 214.96 148.72 215.68C148.72 216.32 148.48 216.88 148.16 217.28C147.84 217.76 147.44 217.92 146.96 217.92C146.48 217.92 146.08 217.76 145.76 217.28C145.44 216.88 145.28 216.32 145.28 215.68Z" fill="black"/>
<path fill-rule="evenodd" clip-rule="evenodd" d="M155.2 215.92C155.2 216.56 155.04 217.12 154.72 217.44C154.4 217.76 154.08 217.92 153.68 217.92C152.8 217.92 152.4 217.28 152.4 216V212.08H151.2V216.4C151.2 217.36 151.36 218.08 151.76 218.56C152.16 219.04 152.72 219.28 153.28 219.28C153.68 219.28 154.08 219.2 154.4 218.88C154.72 218.64 155.04 218.32 155.2 217.92V219.2H156.4V212.08H155.2V215.92Z" fill="black"/>
<path fill-rule="evenodd" clip-rule="evenodd" d="M162.16 217.04C162.16 216.4 161.92 215.92 161.6 215.6C161.36 215.36 161.2 215.28 161.04 215.2L160.56 214.96C160.32 214.88 160.16 214.8 159.92 214.72C159.68 214.64 159.52 214.56 159.36 214.48C159.2 214.4 159.12 214.24 159.12 214C159.12 213.76 159.2 213.52 159.36 213.44C159.52 213.28 159.76 213.2 160.08 213.2C160.56 213.2 161.12 213.44 161.52 213.76L162 212.72C161.44 212.24 160.8 212 160.16 212C159.52 212 158.96 212.16 158.56 212.56C158.16 212.96 157.92 213.52 157.92 214.16C157.92 215.04 158.56 215.76 159.68 216.16C159.76 216.16 159.76 216.16 159.84 216.24C160.56 216.48 160.96 216.8 160.96 217.2C160.96 217.44 160.88 217.6 160.72 217.76C160.56 217.92 160.4 218 160.08 218C159.44 218 158.8 217.68 158.16 217.04L157.6 218.24C157.92 218.56 158.32 218.8 158.8 219.04C159.2 219.2 159.68 219.28 160.08 219.28C160.64 219.28 161.2 219.12 161.6 218.64C161.92 218.24 162.16 217.76 162.16 217.04Z" fill="black"/>
<path fill-rule="evenodd" clip-rule="evenodd" d="M168.96 219.28C169.84 219.28 170.64 218.88 171.28 218L170.64 217.04C170.16 217.6 169.6 217.92 169.12 217.92C168.56 217.92 168.16 217.68 167.76 217.28C167.44 216.8 167.2 216.24 167.2 215.6C167.2 214.96 167.44 214.4 167.76 214C168.16 213.6 168.56 213.36 169.04 213.36C169.6 213.36 170.08 213.6 170.56 214.16L171.28 213.04C170.64 212.32 169.92 212 169.12 212C168.24 212 167.52 212.32 166.96 212.96C166.32 213.68 166.08 214.56 166.08 215.68C166.08 216.72 166.32 217.6 166.88 218.24C167.44 218.96 168.16 219.28 168.96 219.28Z" fill="black"/>
<path fill-rule="evenodd" clip-rule="evenodd" d="M177.28 218.24C177.84 217.52 178.16 216.64 178.16 215.6C178.162 214.672 177.853 213.771 177.28 213.04C176.72 212.32 176 212 175.12 212C174.32 212 173.6 212.32 173.04 213.04C172.468 213.771 172.158 214.672 172.16 215.6C172.16 216.64 172.48 217.52 173.04 218.24C173.6 218.96 174.32 219.28 175.12 219.28C176 219.28 176.72 218.96 177.28 218.24ZM173.84 217.28C173.52 216.88 173.36 216.32 173.36 215.6C173.36 214.96 173.52 214.4 173.84 213.92C174.24 213.52 174.64 213.28 175.12 213.28C175.68 213.28 176.08 213.52 176.4 213.92C176.8 214.4 176.96 214.96 176.96 215.6C176.96 216.32 176.8 216.88 176.4 217.28C176.08 217.76 175.68 217.92 175.12 217.92C174.64 217.92 174.24 217.76 173.84 217.28Z" fill="black"/>
<path fill-rule="evenodd" clip-rule="evenodd" d="M180.64 215.36C180.64 214.64 180.8 214.16 181.12 213.84C181.44 213.52 181.76 213.28 182.24 213.28C182.64 213.28 182.88 213.44 183.12 213.76C183.28 214.08 183.36 214.64 183.36 215.28V219.2H184.56V215.2C184.64 214.64 184.72 214.16 185.04 213.84C185.36 213.44 185.68 213.28 186.16 213.28C186.96 213.28 187.44 214 187.44 215.28V219.2H188.64V214.8C188.64 213.92 188.4 213.2 188 212.72C187.6 212.24 187.12 212 186.48 212C185.6 212 184.96 212.4 184.4 213.36C184.08 212.4 183.44 212 182.56 212C182.16 212 181.76 212.08 181.44 212.32C181.12 212.56 180.88 212.96 180.64 213.36V212.08H179.52V219.2H180.64V215.36Z" fill="black"/>
<path fill-rule="evenodd" clip-rule="evenodd" d="M193.28 212C192.56 212 191.92 212.4 191.44 213.28V212.08H190.24V221.76H191.44V218.08C192 218.88 192.64 219.28 193.36 219.28C194.08 219.28 194.72 218.96 195.28 218.24C195.76 217.6 196.08 216.72 196.08 215.6C196.08 214.48 195.76 213.6 195.28 212.96C194.72 212.32 194.08 212 193.28 212ZM191.44 215.68C191.44 214.96 191.6 214.4 191.92 213.92C192.24 213.52 192.64 213.28 193.12 213.28C193.6 213.28 194 213.52 194.32 213.92C194.72 214.4 194.88 214.96 194.88 215.68C194.88 216.32 194.72 216.88 194.32 217.28C194 217.76 193.6 217.92 193.12 217.92C192.64 217.92 192.24 217.76 191.92 217.28C191.6 216.88 191.44 216.32 191.44 215.68Z" fill="black"/>
<path fill-rule="evenodd" clip-rule="evenodd" d="M202 219.2V214.56C202 213.68 201.76 213.04 201.36 212.64C200.96 212.16 200.4 212 199.76 212C198.88 212 198.08 212.32 197.44 212.96L197.92 213.92C198.48 213.44 199.04 213.2 199.6 213.2C200.4 213.2 200.8 213.68 200.8 214.64V214.88H199.28C198.56 214.88 198 215.04 197.6 215.44C197.2 215.76 196.96 216.32 196.96 216.96C196.96 217.68 197.2 218.24 197.6 218.64C198 219.04 198.48 219.28 199.04 219.28C199.84 219.28 200.48 218.96 200.96 218.24V219.2H202ZM200.8 216.56C200.8 216.96 200.64 217.36 200.4 217.6C200.08 217.92 199.76 218 199.36 218C199.04 218 198.72 217.92 198.48 217.76C198.32 217.6 198.16 217.28 198.16 216.96C198.16 216.64 198.32 216.32 198.48 216.16C198.72 216 199.04 215.92 199.44 215.92H200.8V216.56Z" fill="black"/>
<path fill-rule="evenodd" clip-rule="evenodd" d="M204.88 215.36C204.88 215.04 204.88 214.72 204.96 214.48C205.04 214.24 205.2 214 205.28 213.84C205.6 213.52 206 213.28 206.4 213.28C207.28 213.28 207.68 214 207.68 215.28V219.2H208.88V214.8C208.88 213.92 208.72 213.2 208.32 212.72C207.92 212.24 207.36 212 206.72 212C206.32 212 206 212.08 205.68 212.32C205.28 212.56 205.04 212.96 204.88 213.36V212.08H203.68V219.2H204.88V215.36Z" fill="black"/>
<path d="M210.553 219.208H211.753V212.088H210.553V219.208Z" fill="black"/>
<path fill-rule="evenodd" clip-rule="evenodd" d="M210.64 210.64C210.8 210.88 210.96 210.96 211.12 210.96C211.36 210.96 211.52 210.88 211.68 210.64C211.84 210.48 211.92 210.24 211.92 210C211.92 209.76 211.84 209.52 211.68 209.36C211.52 209.12 211.36 209.04 211.12 209.04C210.96 209.04 210.8 209.12 210.64 209.36C210.48 209.534 210.394 209.764 210.4 210C210.4 210.24 210.48 210.48 210.64 210.64Z" fill="black"/>
<path fill-rule="evenodd" clip-rule="evenodd" d="M218.72 216.32V215.28C218.72 214.24 218.48 213.44 217.92 212.88C217.36 212.24 216.72 212 215.92 212C215.2 212 214.48 212.32 213.92 212.96C213.36 213.6 213.12 214.48 213.12 215.6C213.12 216.72 213.36 217.6 213.92 218.32C214.48 218.96 215.2 219.28 215.92 219.28C216.96 219.28 217.76 218.88 218.32 218.08L217.68 217.2C217.28 217.76 216.72 218 216.08 218C215.6 218 215.2 217.84 214.88 217.52C214.48 217.2 214.32 216.8 214.32 216.32H218.72ZM214.32 215.12C214.32 214.56 214.48 214.08 214.8 213.76C215.12 213.44 215.52 213.28 216 213.28C216.4 213.28 216.8 213.44 217.12 213.76C217.36 214.08 217.52 214.48 217.52 215.12H214.32Z" fill="black"/>
<path fill-rule="evenodd" clip-rule="evenodd" d="M224.08 217.04C224.08 216.4 223.84 215.92 223.52 215.6C223.28 215.36 223.12 215.28 222.96 215.2C222.8 215.12 222.64 215.04 222.4 214.96C222.24 214.88 222.08 214.8 221.84 214.72C221.6 214.64 221.44 214.56 221.28 214.48C221.12 214.4 221.04 214.24 221.04 214C221.04 213.76 221.12 213.52 221.28 213.44C221.44 213.28 221.68 213.2 222 213.2C222.48 213.2 223.04 213.44 223.44 213.76L223.92 212.72C223.36 212.24 222.72 212 222.08 212C221.44 212 220.88 212.16 220.48 212.56C220.08 212.96 219.84 213.52 219.84 214.16C219.84 215.04 220.48 215.76 221.6 216.16C221.68 216.16 221.68 216.16 221.76 216.24C222.48 216.48 222.88 216.8 222.88 217.2C222.88 217.44 222.8 217.6 222.64 217.76C222.466 217.92 222.236 218.007 222 218C221.36 218 220.72 217.68 220.08 217.04L219.52 218.24C219.84 218.56 220.24 218.8 220.72 219.04C221.12 219.2 221.6 219.28 222 219.28C222.56 219.28 223.12 219.12 223.44 218.64C223.84 218.24 224.08 217.76 224.08 217.04Z" fill="black"/>
<path fill-rule="evenodd" clip-rule="evenodd" d="M225.52 218.96C225.6 219.2 225.84 219.28 226.08 219.28C226.24 219.28 226.48 219.2 226.64 218.96C226.8 218.8 226.8 218.56 226.8 218.32C226.8 218 226.8 217.76 226.64 217.6C226.58 217.505 226.497 217.427 226.4 217.371C226.302 217.315 226.192 217.284 226.08 217.28C225.84 217.28 225.6 217.36 225.52 217.6C225.36 217.76 225.28 218 225.28 218.32C225.28 218.56 225.36 218.8 225.52 218.96Z" fill="black"/>
<path fill-rule="evenodd" clip-rule="evenodd" d="M234.72 219.2C235.76 219.2 236.48 218.88 236.88 218.32C237.2 217.84 237.44 217.2 237.44 216.56C237.44 216 237.28 215.52 237.04 215.12C236.72 214.72 236.4 214.48 235.92 214.32C236 214.24 236.08 214.24 236.16 214.16C236.24 214.16 236.32 214.08 236.48 213.92C236.8 213.6 236.96 213.04 236.96 212.32C236.96 211.68 236.8 211.2 236.48 210.72C236.32 210.4 236 210.24 235.68 210.08C235.28 209.92 234.88 209.84 234.4 209.84H231.44V219.2H234.72ZM232.72 213.68V211.28H234.32C234.8 211.28 235.12 211.36 235.36 211.6C235.6 211.76 235.68 212.08 235.68 212.56C235.68 213.36 235.2 213.68 234.32 213.68H232.72ZM232.72 217.76V215.2H234.56C235.04 215.2 235.44 215.28 235.76 215.52C236 215.68 236.16 216 236.16 216.4C236.16 216.96 236 217.28 235.76 217.44C235.52 217.6 235.2 217.76 234.72 217.76H232.72Z" fill="black"/>
<path fill-rule="evenodd" clip-rule="evenodd" d="M241.76 213.44H241.84V212C241.44 212 241.12 212.16 240.8 212.4C240.48 212.72 240.16 213.04 240 213.52V212.08H238.8V219.2H240V216.16C240 215.36 240.16 214.64 240.48 214.16C240.72 213.68 241.2 213.44 241.76 213.44Z" fill="black"/>
<path fill-rule="evenodd" clip-rule="evenodd" d="M247.6 219.2V214.56C247.6 213.68 247.44 213.04 246.96 212.64C246.56 212.16 246 212 245.36 212C244.48 212 243.68 212.32 243.04 212.96L243.52 213.92C244.16 213.44 244.64 213.2 245.2 213.2C246 213.2 246.48 213.68 246.48 214.64V214.88H244.88C244.24 214.88 243.68 215.04 243.2 215.44C242.8 215.76 242.64 216.32 242.64 216.96C242.64 217.68 242.8 218.24 243.2 218.64C243.6 219.04 244.08 219.28 244.64 219.28C245.44 219.28 246.08 218.96 246.56 218.24V219.2H247.6ZM246.4 216.56C246.4 216.96 246.32 217.36 246 217.6C245.76 217.92 245.36 218 245.04 218C244.64 218 244.32 217.92 244.16 217.76C243.92 217.6 243.84 217.28 243.84 216.96C243.84 216.64 243.92 216.32 244.16 216.16C244.32 216 244.64 215.92 245.12 215.92H246.4V216.56Z" fill="black"/>
<path fill-rule="evenodd" clip-rule="evenodd" d="M251.6 219.28C252.4 219.28 253.12 218.88 253.52 218.08V219.2H254.72V209.28H253.52V213.2C253.04 212.4 252.48 212 251.68 212C250.96 212 250.32 212.32 249.76 212.96C249.2 213.6 248.96 214.48 248.96 215.6C248.96 216.72 249.2 217.6 249.76 218.24C250.24 218.96 250.88 219.28 251.6 219.28ZM250.08 215.68C250.08 214.96 250.32 214.4 250.64 213.92C250.96 213.52 251.36 213.28 251.84 213.28C252.32 213.28 252.72 213.52 253.04 213.92C253.36 214.4 253.52 214.96 253.52 215.68C253.52 216.32 253.36 216.88 253.04 217.28C252.72 217.76 252.32 218 251.84 218C251.36 218 250.96 217.76 250.64 217.36C250.32 216.88 250.08 216.32 250.08 215.68Z" fill="black"/>
<path fill-rule="evenodd" clip-rule="evenodd" d="M260.48 217.04C260.48 216.4 260.24 215.92 259.92 215.6C259.68 215.36 259.52 215.28 259.36 215.2L258.88 214.96C258.64 214.88 258.48 214.8 258.24 214.72C258 214.64 257.84 214.56 257.68 214.48C257.52 214.4 257.44 214.24 257.44 214C257.44 213.76 257.52 213.52 257.68 213.44C257.84 213.28 258.08 213.2 258.4 213.2C258.88 213.2 259.44 213.44 259.84 213.76L260.32 212.72C259.76 212.24 259.12 212 258.48 212C257.84 212 257.28 212.16 256.88 212.56C256.48 212.96 256.24 213.52 256.24 214.16C256.24 215.04 256.88 215.76 258 216.16C258.08 216.16 258.08 216.16 258.16 216.24C258.88 216.48 259.28 216.8 259.28 217.2C259.28 217.44 259.2 217.6 259.04 217.76C258.88 217.92 258.72 218 258.4 218C257.76 218 257.2 217.68 256.48 217.04L255.92 218.24C256.24 218.56 256.64 218.8 257.12 219.04C257.52 219.2 258 219.28 258.4 219.28C258.96 219.28 259.52 219.12 259.92 218.64C260.24 218.24 260.48 217.76 260.48 217.04Z" fill="black"/>
<path fill-rule="evenodd" clip-rule="evenodd" d="M263.04 215.36C263.04 215.04 263.04 214.72 263.12 214.48C263.2 214.24 263.28 214 263.44 213.84C263.76 213.52 264.16 213.28 264.56 213.28C265.44 213.28 265.84 214 265.84 215.28V219.2H267.04V214.8C267.04 213.92 266.8 213.2 266.48 212.72C266.08 212.24 265.52 212 264.88 212C264.48 212 264.16 212.08 263.76 212.32C263.44 212.56 263.2 212.96 263.04 213.36V209.28H261.84V219.2H263.04V215.36Z" fill="black"/>
<path fill-rule="evenodd" clip-rule="evenodd" d="M273.28 219.2V214.56C273.28 213.68 273.04 213.04 272.64 212.64C272.24 212.16 271.68 212 271.04 212C270.16 212 269.36 212.32 268.64 212.96L269.2 213.92C269.76 213.44 270.32 213.2 270.88 213.2C271.68 213.2 272.08 213.68 272.08 214.64V214.88H270.56C269.84 214.88 269.28 215.04 268.88 215.44C268.48 215.76 268.24 216.32 268.24 216.96C268.24 217.68 268.48 218.24 268.88 218.64C269.2 219.04 269.76 219.28 270.32 219.28C271.12 219.28 271.76 218.96 272.16 218.24V219.2H273.28ZM272.08 216.56C272.08 216.96 271.92 217.36 271.68 217.6C271.36 217.92 271.04 218 270.64 218C270.32 218 270 217.92 269.76 217.76C269.6 217.6 269.44 217.28 269.44 216.96C269.44 216.64 269.6 216.32 269.76 216.16C270 216 270.32 215.92 270.72 215.92H272.08V216.56Z" fill="black"/>
<path fill-rule="evenodd" clip-rule="evenodd" d="M277.6 219.2L278.96 214.32L280.24 219.2H281.6L283.6 212.08H282.32L280.96 217.44L279.52 212.08H278.32L276.88 217.44L275.52 212.08H274.24L276.24 219.2" fill="black"/>
<path fill-rule="evenodd" clip-rule="evenodd" d="M290.56 211.28H292.8V209.84H287.04V211.28H289.28V219.2H290.56" fill="black"/>
<path fill-rule="evenodd" clip-rule="evenodd" d="M296.96 213.44H297.04V212C296.64 212 296.32 212.16 295.92 212.4C295.6 212.72 295.36 213.04 295.2 213.52V212.08H294V219.2H295.2V216.16C295.2 215.36 295.36 214.64 295.6 214.16C295.92 213.68 296.4 213.44 296.96 213.44Z" fill="black"/>
<path fill-rule="evenodd" clip-rule="evenodd" d="M302.8 219.2V214.56C302.8 213.68 302.56 213.04 302.16 212.64C301.76 212.16 301.2 212 300.56 212C299.68 212 298.88 212.32 298.16 212.96L298.72 213.92C299.28 213.44 299.84 213.2 300.32 213.2C301.2 213.2 301.6 213.68 301.6 214.64V214.88H300.08C299.36 214.88 298.8 215.04 298.4 215.44C298 215.76 297.76 216.32 297.76 216.96C297.76 217.68 298 218.24 298.4 218.64C298.72 219.04 299.2 219.28 299.84 219.28C300.64 219.28 301.28 218.96 301.68 218.24V219.2H302.8ZM301.6 216.56C301.6 216.96 301.44 217.36 301.2 217.6C300.88 217.92 300.56 218 300.16 218C299.84 218 299.52 217.92 299.28 217.76C299.12 217.6 298.96 217.28 298.96 216.96C298.96 216.64 299.12 216.32 299.28 216.16C299.52 216 299.84 215.92 300.24 215.92H301.6V216.56Z" fill="black"/>
<path fill-rule="evenodd" clip-rule="evenodd" d="M305.68 215.36C305.68 215.04 305.68 214.72 305.76 214.48C305.84 214.24 305.92 214 306.08 213.84C306.4 213.52 306.8 213.28 307.2 213.28C308.08 213.28 308.48 214 308.48 215.28V219.2H309.68V214.8C309.68 213.92 309.44 213.2 309.04 212.72C308.72 212.24 308.16 212 307.52 212C307.12 212 306.8 212.08 306.4 212.32C306.08 212.56 305.84 212.96 305.68 213.36V212.08H304.48V219.2H305.68V215.36Z" fill="black"/>
<path fill-rule="evenodd" clip-rule="evenodd" d="M315.36 217.04C315.36 216.4 315.2 215.92 314.8 215.6C314.56 215.36 314.4 215.28 314.24 215.2L313.76 214.96C313.52 214.88 313.36 214.8 313.12 214.72C312.88 214.64 312.72 214.56 312.56 214.48C312.4 214.4 312.32 214.24 312.32 214C312.32 213.76 312.4 213.52 312.56 213.44C312.72 213.28 312.96 213.2 313.28 213.2C313.84 213.2 314.32 213.44 314.8 213.76L315.2 212.72C314.64 212.24 314 212 313.36 212C312.72 212 312.16 212.16 311.76 212.56C311.36 212.96 311.12 213.52 311.12 214.16C311.12 215.04 311.76 215.76 312.96 216.16L313.04 216.24C313.84 216.48 314.16 216.8 314.16 217.2C314.16 217.44 314.08 217.6 313.92 217.76C313.76 217.92 313.6 218 313.28 218C312.72 218 312.08 217.68 311.36 217.04L310.8 218.24C311.12 218.56 311.52 218.8 312 219.04C312.4 219.2 312.88 219.28 313.28 219.28C313.92 219.28 314.4 219.12 314.8 218.64C315.2 218.24 315.36 217.76 315.36 217.04Z" fill="black"/>
<path fill-rule="evenodd" clip-rule="evenodd" d="M319.76 212C318.96 212 318.4 212.4 317.92 213.28V212.08H316.72V221.76H317.92V218.08C318.48 218.88 319.12 219.28 319.84 219.28C320.56 219.28 321.2 218.96 321.68 218.24C322.24 217.6 322.48 216.72 322.48 215.6C322.48 214.48 322.24 213.6 321.68 212.96C321.12 212.32 320.48 212 319.76 212ZM317.92 215.68C317.92 214.96 318.08 214.4 318.4 213.92C318.72 213.52 319.12 213.28 319.6 213.28C320.08 213.28 320.48 213.52 320.8 213.92C321.12 214.4 321.28 214.96 321.28 215.68C321.28 216.32 321.12 216.88 320.8 217.28C320.4 217.76 320 217.92 319.6 217.92C319.12 217.92 318.72 217.76 318.4 217.28C318.08 216.88 317.92 216.32 317.92 215.68Z" fill="black"/>
<path fill-rule="evenodd" clip-rule="evenodd" d="M328.56 218.24C329.2 217.52 329.44 216.64 329.44 215.6C329.44 214.64 329.2 213.76 328.56 213.04C328 212.32 327.36 212 326.48 212C325.6 212 324.88 212.32 324.32 213.04C323.76 213.76 323.52 214.64 323.52 215.6C323.52 216.64 323.76 217.52 324.32 218.24C324.88 218.96 325.6 219.28 326.48 219.28C327.36 219.28 328 218.96 328.56 218.24ZM325.2 217.28C324.88 216.88 324.72 216.32 324.72 215.6C324.72 214.96 324.88 214.4 325.2 213.92C325.52 213.52 325.92 213.28 326.48 213.28C326.96 213.28 327.44 213.52 327.76 213.92C328.08 214.4 328.24 214.96 328.24 215.6C328.24 216.32 328.08 216.88 327.76 217.28C327.44 217.76 326.96 217.92 326.48 217.92C325.92 217.92 325.52 217.76 325.2 217.28Z" fill="black"/>
<path fill-rule="evenodd" clip-rule="evenodd" d="M333.76 213.44H333.84V212C333.44 212 333.12 212.16 332.8 212.4C332.48 212.72 332.16 213.04 332 213.52V212.08H330.8V219.2H332V216.16C332 215.36 332.16 214.64 332.4 214.16C332.72 213.68 333.2 213.44 333.76 213.44Z" fill="black"/>
<path fill-rule="evenodd" clip-rule="evenodd" d="M336.48 213.28H338V212.08H336.48V209.84H335.28V212.08H334.56V213.28H335.28V216.88C335.28 217.6 335.44 218.16 335.84 218.64C336.16 219.04 336.64 219.28 337.12 219.28C337.68 219.28 338.08 219.04 338.56 218.56L338 217.52C337.76 217.84 337.52 218 337.28 218C337.04 218 336.88 217.92 336.72 217.68C336.56 217.52 336.48 217.2 336.48 216.88V213.28Z" fill="black"/>
<path fill-rule="evenodd" clip-rule="evenodd" d="M343.84 213.28H345.36V212.08H343.84V209.84H342.64V212.08H341.92V213.28H342.64V216.88C342.64 217.6 342.8 218.16 343.2 218.64C343.52 219.04 344 219.28 344.48 219.28C345.04 219.28 345.44 219.04 345.92 218.56L345.36 217.52C345.12 217.84 344.88 218 344.64 218C344.4 218 344.24 217.92 344.08 217.68C343.92 217.52 343.84 217.2 343.84 216.88V213.28Z" fill="black"/>
<path fill-rule="evenodd" clip-rule="evenodd" d="M349.76 213.44H349.84V212C349.52 212 349.12 212.16 348.8 212.4C348.48 212.72 348.24 213.04 348 213.52V212.08H346.8V219.2H348V216.16C348 215.36 348.16 214.64 348.48 214.16C348.8 213.68 349.2 213.44 349.76 213.44Z" fill="black"/>
<path fill-rule="evenodd" clip-rule="evenodd" d="M355.6 219.2V214.56C355.6 213.68 355.44 213.04 355.04 212.64C354.56 212.16 354 212 353.36 212C352.48 212 351.76 212.32 351.04 212.96L351.6 213.92C352.16 213.44 352.64 213.2 353.2 213.2C354.08 213.2 354.48 213.68 354.48 214.64V214.88H352.88C352.24 214.88 351.68 215.04 351.28 215.44C350.8 215.76 350.64 216.32 350.64 216.96C350.64 217.68 350.8 218.24 351.2 218.64C351.6 219.04 352.08 219.28 352.64 219.28C353.44 219.28 354.08 218.96 354.56 218.24V219.2H355.6ZM354.48 216.56C354.48 216.96 354.32 217.36 354 217.6C353.76 217.92 353.44 218 353.04 218C352.64 218 352.32 217.92 352.16 217.76C351.92 217.6 351.84 217.28 351.84 216.96C351.84 216.64 351.92 216.32 352.16 216.16C352.32 216 352.64 215.92 353.12 215.92H354.48V216.56Z" fill="black"/>
<path fill-rule="evenodd" clip-rule="evenodd" d="M358.48 215.36C358.48 214.64 358.64 214.16 358.96 213.84C359.28 213.52 359.6 213.28 360 213.28C360.4 213.28 360.72 213.44 360.96 213.76C361.12 214.08 361.2 214.64 361.2 215.28V219.2H362.4V215.2C362.4 214.64 362.56 214.16 362.88 213.84C363.2 213.44 363.52 213.28 363.92 213.28C364.8 213.28 365.2 214 365.2 215.28V219.2H366.4V214.8C366.4 213.92 366.24 213.2 365.84 212.72C365.44 212.24 364.96 212 364.32 212C363.44 212 362.72 212.4 362.16 213.36C361.84 212.4 361.28 212 360.4 212C360 212 359.6 212.08 359.28 212.32C358.88 212.56 358.64 212.96 358.48 213.36V212.08H357.28V219.2H358.48V215.36Z" fill="black"/>
<path d="M371.033 219.208H372.153V209.288H371.033V219.208ZM373.913 219.208H375.113V212.088H373.913V219.208Z" fill="black"/>
<path fill-rule="evenodd" clip-rule="evenodd" d="M374 210.64C374.16 210.88 374.32 210.96 374.56 210.96C374.72 210.96 374.88 210.88 375.04 210.64C375.2 210.48 375.28 210.24 375.28 210C375.28 209.76 375.2 209.52 375.04 209.36C374.88 209.12 374.72 209.04 374.56 209.04C374.32 209.04 374.16 209.12 374 209.36C373.84 209.534 373.754 209.764 373.76 210C373.76 210.24 373.84 210.48 374 210.64Z" fill="black"/>
<path fill-rule="evenodd" clip-rule="evenodd" d="M378 215.36C378 215.04 378.08 214.72 378.16 214.48C378.24 214.24 378.32 214 378.48 213.84C378.8 213.52 379.12 213.28 379.52 213.28C380.4 213.28 380.88 214 380.88 215.28V219.2H382.08V214.8C382.08 213.92 381.84 213.2 381.44 212.72C381.04 212.24 380.56 212 379.92 212C379.52 212 379.12 212.08 378.8 212.32C378.48 212.56 378.24 212.96 378 213.36V212.08H376.8V219.2H378V215.36Z" fill="black"/>
<path fill-rule="evenodd" clip-rule="evenodd" d="M388.96 216.32V215.28C388.96 214.24 388.72 213.44 388.16 212.88C387.6 212.24 386.96 212 386.16 212C385.44 212 384.8 212.32 384.16 212.96C383.6 213.6 383.36 214.48 383.36 215.6C383.36 216.72 383.6 217.6 384.16 218.32C384.72 218.96 385.44 219.28 386.24 219.28C387.2 219.28 388 218.88 388.56 218.08L387.92 217.2C387.52 217.76 386.96 218 386.32 218C385.84 218 385.44 217.84 385.12 217.52C384.72 217.2 384.56 216.8 384.56 216.32H388.96ZM384.56 215.12C384.56 214.56 384.72 214.08 385.04 213.76C385.44 213.44 385.76 213.28 386.24 213.28C386.64 213.28 387.04 213.44 387.36 213.76C387.6 214.08 387.76 214.48 387.76 215.12H384.56Z" fill="black"/>
<path fill-rule="evenodd" clip-rule="evenodd" d="M394.32 217.04C394.32 216.4 394.16 215.92 393.76 215.6C393.52 215.36 393.36 215.28 393.2 215.2L392.72 214.96C392.48 214.88 392.32 214.8 392.08 214.72C391.84 214.64 391.68 214.56 391.52 214.48C391.36 214.4 391.28 214.24 391.28 214C391.28 213.76 391.36 213.52 391.52 213.44C391.68 213.28 391.92 213.2 392.24 213.2C392.72 213.2 393.28 213.44 393.68 213.76L394.16 212.72C393.6 212.24 392.96 212 392.32 212C391.68 212 391.12 212.16 390.72 212.56C390.32 212.96 390.08 213.52 390.08 214.16C390.08 215.04 390.72 215.76 391.84 216.16C391.92 216.16 391.92 216.16 392 216.24C392.72 216.48 393.12 216.8 393.12 217.2C393.12 217.44 393.04 217.6 392.88 217.76C392.72 217.92 392.56 218 392.24 218C391.68 218 391.04 217.68 390.32 217.04L389.76 218.24C390.08 218.56 390.48 218.8 390.96 219.04C391.36 219.2 391.84 219.28 392.24 219.28C392.8 219.28 393.36 219.12 393.76 218.64C394.08 218.24 394.32 217.76 394.32 217.04Z" fill="black"/>
<path fill-rule="evenodd" clip-rule="evenodd" d="M114.88 206.48C115.92 206.48 116.64 206.24 117.04 205.6C117.36 205.12 117.6 204.56 117.6 203.92C117.6 203.28 117.44 202.8 117.2 202.4C116.88 202 116.56 201.76 116.08 201.68C116.16 201.6 116.24 201.52 116.32 201.52C116.4 201.44 116.48 201.36 116.64 201.28C116.96 200.88 117.12 200.4 117.12 199.6C117.12 199.04 116.96 198.48 116.64 198C116.48 197.76 116.16 197.52 115.84 197.36C115.44 197.2 115.04 197.2 114.56 197.2H111.6V206.48H114.88ZM112.88 201.04V198.64H114.48C114.96 198.64 115.28 198.72 115.52 198.88C115.76 199.12 115.84 199.44 115.84 199.84C115.84 200.64 115.36 201.04 114.48 201.04H112.88ZM112.88 205.04V202.48H114.72C115.2 202.48 115.6 202.56 115.92 202.8C116.16 203.04 116.32 203.28 116.32 203.76C116.32 204.24 116.16 204.56 115.92 204.8C115.68 204.96 115.36 205.04 114.88 205.04H112.88Z" fill="black"/>
<path fill-rule="evenodd" clip-rule="evenodd" d="M122.96 203.2C122.96 203.92 122.8 204.4 122.48 204.72C122.16 205.12 121.84 205.28 121.44 205.28C120.56 205.28 120.08 204.56 120.08 203.28V199.36H118.88V203.76C118.88 204.64 119.12 205.36 119.52 205.84C119.92 206.32 120.4 206.64 121.04 206.64C121.44 206.64 121.84 206.48 122.16 206.24C122.48 206 122.72 205.6 122.96 205.2V206.48H124.16V199.36H122.96V203.2Z" fill="black"/>
<path fill-rule="evenodd" clip-rule="evenodd" d="M129.92 204.4C129.92 203.68 129.68 203.2 129.28 202.88C129.12 202.72 128.96 202.56 128.8 202.48C128.64 202.4 128.4 202.32 128.24 202.24C128.08 202.16 127.84 202.08 127.68 202.08C127.44 202 127.2 201.92 127.12 201.84C126.96 201.68 126.8 201.52 126.8 201.28C126.8 201.04 126.88 200.88 127.12 200.72C127.28 200.64 127.52 200.56 127.76 200.56C128.32 200.56 128.8 200.72 129.28 201.12L129.76 200C129.12 199.52 128.56 199.28 127.92 199.28C127.2 199.28 126.72 199.52 126.32 199.84C125.92 200.24 125.68 200.8 125.68 201.44C125.68 202.4 126.24 203.04 127.44 203.44C127.44 203.44 127.52 203.52 127.6 203.52C128.32 203.84 128.72 204.16 128.72 204.48C128.72 204.72 128.64 204.88 128.48 205.04C128.306 205.2 128.077 205.287 127.84 205.28C127.2 205.28 126.56 204.96 125.92 204.4L125.36 205.52C125.68 205.84 126.08 206.16 126.48 206.32C126.96 206.48 127.36 206.64 127.76 206.64C128.4 206.64 128.88 206.4 129.28 206C129.68 205.6 129.92 205.04 129.92 204.4Z" fill="black"/>
<path fill-rule="evenodd" clip-rule="evenodd" d="M138.16 204.4C138.16 203.68 138 203.2 137.6 202.88C137.44 202.72 137.2 202.56 137.04 202.48L136.56 202.24C136.4 202.16 136.16 202.08 135.92 202.08C135.68 202 135.52 201.92 135.44 201.84C135.2 201.68 135.12 201.52 135.12 201.28C135.12 201.04 135.2 200.88 135.36 200.72C135.6 200.64 135.84 200.56 136.08 200.56C136.64 200.56 137.12 200.72 137.6 201.12L138 200C137.44 199.52 136.8 199.28 136.16 199.28C135.52 199.28 134.96 199.52 134.56 199.84C134.16 200.24 134 200.8 134 201.44C134 202.4 134.56 203.04 135.76 203.44L135.84 203.52C136.64 203.84 136.96 204.16 136.96 204.48C136.96 204.72 136.96 204.88 136.8 205.04C136.626 205.2 136.397 205.287 136.16 205.28C135.52 205.28 134.88 204.96 134.24 204.4L133.6 205.52C134 205.84 134.4 206.16 134.8 206.32C135.28 206.48 135.68 206.64 136.08 206.64C136.72 206.64 137.2 206.4 137.6 206C138 205.6 138.16 205.04 138.16 204.4Z" fill="black"/>
<path fill-rule="evenodd" clip-rule="evenodd" d="M144.8 203.6V202.56C144.8 201.52 144.56 200.72 144 200.16C143.44 199.6 142.8 199.28 142 199.28C141.28 199.28 140.56 199.6 140 200.24C139.44 200.96 139.2 201.84 139.2 202.96C139.2 204.08 139.44 204.96 140 205.6C140.56 206.24 141.2 206.64 142 206.64C143.04 206.64 143.84 206.24 144.4 205.44L143.76 204.48C143.36 205.04 142.8 205.28 142.08 205.28C141.68 205.28 141.28 205.2 140.96 204.88C140.56 204.56 140.4 204.08 140.4 203.6H144.8ZM140.4 202.4C140.4 201.84 140.56 201.36 140.88 201.04C141.2 200.72 141.6 200.56 142.08 200.56C142.48 200.56 142.88 200.72 143.2 201.04C143.44 201.36 143.6 201.84 143.6 202.4H140.4Z" fill="black"/>
<path fill-rule="evenodd" clip-rule="evenodd" d="M149.04 200.8H149.12V199.28C148.8 199.28 148.4 199.44 148.08 199.76C147.76 200 147.52 200.4 147.28 200.8V199.36H146.08V206.48H147.28V203.44C147.28 202.64 147.44 202 147.76 201.52C148.08 201.04 148.48 200.8 149.04 200.8Z" fill="black"/>
<path fill-rule="evenodd" clip-rule="evenodd" d="M151.84 206.48H153.2L155.44 199.36H154.24L152.48 204.72L150.8 199.36H149.52" fill="black"/>
<path d="M156.394 206.488H157.594V199.368H156.394V206.488Z" fill="black"/>
<path fill-rule="evenodd" clip-rule="evenodd" d="M156.48 198C156.64 198.16 156.8 198.24 157.04 198.24C157.2 198.24 157.44 198.16 157.52 198C157.68 197.76 157.76 197.6 157.76 197.28C157.76 197.04 157.68 196.8 157.52 196.64C157.44 196.48 157.2 196.32 157.04 196.32C156.8 196.32 156.64 196.48 156.48 196.64C156.32 196.814 156.234 197.044 156.24 197.28C156.24 197.6 156.32 197.76 156.48 198Z" fill="black"/>
<path fill-rule="evenodd" clip-rule="evenodd" d="M161.84 206.64C162.72 206.64 163.52 206.16 164.24 205.28L163.52 204.32C163.04 204.96 162.56 205.2 162 205.2C161.52 205.2 161.04 205.04 160.72 204.56C160.32 204.08 160.16 203.52 160.16 202.88C160.16 202.24 160.32 201.68 160.72 201.28C161.04 200.88 161.52 200.64 162 200.64C162.48 200.64 162.96 200.96 163.44 201.44L164.16 200.4C163.6 199.68 162.88 199.28 162 199.28C161.2 199.28 160.48 199.6 159.84 200.32C159.28 200.96 158.96 201.84 158.96 202.96C158.96 204.08 159.28 204.96 159.84 205.6C160.4 206.24 161.04 206.64 161.84 206.64Z" fill="black"/>
<path fill-rule="evenodd" clip-rule="evenodd" d="M170.72 203.6V202.56C170.72 201.52 170.48 200.72 169.92 200.16C169.36 199.6 168.72 199.28 167.92 199.28C167.2 199.28 166.56 199.6 165.92 200.24C165.36 200.96 165.12 201.84 165.12 202.96C165.12 204.08 165.36 204.96 165.92 205.6C166.48 206.24 167.2 206.64 168 206.64C168.96 206.64 169.76 206.24 170.32 205.44L169.68 204.48C169.28 205.04 168.72 205.28 168.08 205.28C167.6 205.28 167.2 205.2 166.88 204.88C166.48 204.56 166.32 204.08 166.32 203.6H170.72ZM166.32 202.4C166.32 201.84 166.48 201.44 166.8 201.04C167.2 200.72 167.52 200.56 168 200.56C168.4 200.56 168.8 200.72 169.12 201.04C169.36 201.36 169.52 201.84 169.52 202.4H166.32Z" fill="black"/>
<path fill-rule="evenodd" clip-rule="evenodd" d="M177.92 200.8H178V199.28C177.6 199.28 177.28 199.44 176.96 199.76C176.56 200 176.32 200.4 176.16 200.8V199.36H174.96V206.48H176.16V203.44C176.16 202.64 176.32 202 176.56 201.52C176.88 201.04 177.36 200.8 177.92 200.8Z" fill="black"/>
<path fill-rule="evenodd" clip-rule="evenodd" d="M183.92 205.52C184.48 204.8 184.8 204 184.8 202.96C184.8 201.92 184.48 201.04 183.92 200.32C183.36 199.6 182.64 199.28 181.76 199.28C180.96 199.28 180.24 199.6 179.68 200.32C179.12 201.04 178.8 201.92 178.8 202.96C178.8 204 179.12 204.8 179.68 205.52C180.24 206.24 180.96 206.64 181.76 206.64C182.64 206.64 183.36 206.24 183.92 205.52ZM180.48 204.64C180.16 204.16 180 203.6 180 202.96C180 202.24 180.16 201.68 180.48 201.28C180.8 200.8 181.28 200.64 181.76 200.64C182.32 200.64 182.72 200.8 183.04 201.28C183.44 201.68 183.6 202.24 183.6 202.96C183.6 203.6 183.44 204.16 183.04 204.64C182.72 205.04 182.32 205.28 181.76 205.28C181.28 205.28 180.8 205.04 180.48 204.64Z" fill="black"/>
<path fill-rule="evenodd" clip-rule="evenodd" d="M190.08 203.2C190.08 203.92 189.92 204.4 189.6 204.72C189.28 205.12 188.96 205.28 188.56 205.28C187.68 205.28 187.2 204.56 187.2 203.28V199.36H186.08V203.76C186.08 204.64 186.24 205.36 186.64 205.84C187.04 206.32 187.52 206.64 188.16 206.64C188.56 206.64 188.96 206.48 189.28 206.24C189.6 206 189.84 205.6 190.08 205.2V206.48H191.28V199.36H190.08V203.2Z" fill="black"/>
<path fill-rule="evenodd" clip-rule="evenodd" d="M194.48 200.56H195.92V199.36H194.48V197.2H193.28V199.36H192.56V200.56H193.28V204.16C193.28 204.88 193.44 205.52 193.76 205.92C194.16 206.4 194.56 206.64 195.12 206.64C195.6 206.64 196.08 206.4 196.48 205.92L196 204.8C195.76 205.12 195.52 205.28 195.28 205.28C195.04 205.28 194.8 205.2 194.64 205.04C194.56 204.8 194.48 204.56 194.48 204.16V200.56Z" fill="black"/>
<path fill-rule="evenodd" clip-rule="evenodd" d="M202.72 203.6V202.56C202.72 201.52 202.4 200.72 201.92 200.16C201.36 199.6 200.72 199.28 199.92 199.28C199.12 199.28 198.48 199.6 197.92 200.24C197.36 200.96 197.04 201.84 197.04 202.96C197.04 204.08 197.36 204.96 197.92 205.6C198.48 206.24 199.12 206.64 199.92 206.64C200.88 206.64 201.68 206.24 202.32 205.44L201.6 204.48C201.28 205.04 200.72 205.28 200 205.28C199.6 205.28 199.2 205.2 198.8 204.88C198.48 204.56 198.32 204.08 198.24 203.6H202.72ZM198.24 202.4C198.24 201.84 198.4 201.36 198.8 201.04C199.12 200.72 199.52 200.56 199.92 200.56C200.4 200.56 200.8 200.72 201.04 201.04C201.36 201.36 201.52 201.84 201.52 202.4H198.24Z" fill="black"/>
<path fill-rule="evenodd" clip-rule="evenodd" d="M208 204.4C208 203.68 207.84 203.2 207.44 202.88C207.28 202.72 207.12 202.56 206.96 202.48C206.72 202.4 206.56 202.32 206.4 202.24C206.24 202.16 206 202.08 205.76 202.08C205.6 202 205.36 201.92 205.28 201.84C205.04 201.68 204.96 201.52 204.96 201.28C204.96 201.04 205.04 200.88 205.28 200.72C205.44 200.64 205.68 200.56 205.92 200.56C206.48 200.56 206.96 200.72 207.44 201.12L207.92 200C207.28 199.52 206.72 199.28 206 199.28C205.36 199.28 204.88 199.52 204.48 199.84C204 200.24 203.84 200.8 203.84 201.44C203.84 202.4 204.4 203.04 205.6 203.44C205.6 203.44 205.68 203.52 205.76 203.52C206.48 203.84 206.88 204.16 206.88 204.48C206.88 204.72 206.8 204.88 206.64 205.04C206.466 205.2 206.236 205.287 206 205.28C205.36 205.28 204.72 204.96 204.08 204.4L203.52 205.52C203.84 205.84 204.24 206.16 204.64 206.32C205.12 206.48 205.52 206.64 205.92 206.64C206.56 206.64 207.04 206.4 207.44 206C207.84 205.6 208 205.04 208 204.4Z" fill="black"/>
<path fill-rule="evenodd" clip-rule="evenodd" d="M216.32 204.4C216.32 203.68 216.16 203.2 215.76 202.88C215.6 202.72 215.36 202.56 215.2 202.48L214.72 202.24C214.56 202.16 214.32 202.08 214.08 202.08C213.84 202 213.68 201.92 213.52 201.84C213.36 201.68 213.28 201.52 213.28 201.28C213.28 201.04 213.36 200.88 213.52 200.72C213.76 200.64 213.92 200.56 214.24 200.56C214.8 200.56 215.28 200.72 215.76 201.12L216.16 200C215.6 199.52 214.96 199.28 214.32 199.28C213.68 199.28 213.12 199.52 212.72 199.84C212.32 200.24 212.16 200.8 212.16 201.44C212.16 202.4 212.72 203.04 213.92 203.44L214 203.52C214.8 203.84 215.12 204.16 215.12 204.48C215.12 204.72 215.04 204.88 214.96 205.04C214.786 205.2 214.556 205.287 214.32 205.28C213.68 205.28 213.04 204.96 212.4 204.4L211.76 205.52C212.16 205.84 212.56 206.16 212.96 206.32C213.44 206.48 213.84 206.64 214.24 206.64C214.88 206.64 215.36 206.4 215.76 206C216.16 205.6 216.32 205.04 216.32 204.4Z" fill="black"/>
<path fill-rule="evenodd" clip-rule="evenodd" d="M218.88 202.64C218.88 202.32 218.88 202 218.96 201.76C219.04 201.52 219.2 201.28 219.36 201.12C219.68 200.8 220 200.64 220.4 200.64C221.28 200.64 221.68 201.28 221.68 202.56V206.48H222.88V202.16C222.88 201.2 222.72 200.48 222.32 200C221.92 199.52 221.36 199.28 220.8 199.28C220.4 199.28 220 199.44 219.68 199.68C219.28 199.92 219.04 200.24 218.88 200.72V196.56H217.68V206.48H218.88V202.64Z" fill="black"/>
<path fill-rule="evenodd" clip-rule="evenodd" d="M229.28 205.52C229.84 204.8 230.16 204 230.16 202.96C230.16 201.92 229.84 201.04 229.28 200.32C228.72 199.6 228 199.28 227.2 199.28C226.32 199.28 225.6 199.6 225.04 200.32C224.48 201.04 224.16 201.92 224.16 202.96C224.16 204 224.48 204.8 225.04 205.52C225.6 206.24 226.32 206.64 227.2 206.64C228 206.64 228.72 206.24 229.28 205.52ZM225.92 204.64C225.52 204.16 225.36 203.6 225.36 202.96C225.36 202.24 225.52 201.68 225.92 201.28C226.24 200.8 226.64 200.64 227.2 200.64C227.68 200.64 228.08 200.8 228.48 201.28C228.8 201.68 228.96 202.24 228.96 202.96C228.96 203.6 228.8 204.16 228.48 204.64C228.08 205.04 227.68 205.28 227.2 205.28C226.64 205.28 226.24 205.04 225.92 204.64Z" fill="black"/>
<path fill-rule="evenodd" clip-rule="evenodd" d="M234.16 206.48L235.52 201.6L236.8 206.48H238.16L240.16 199.36H238.88L237.52 204.72L236.08 199.36H234.88L233.44 204.72L232.08 199.36H230.8L232.8 206.48" fill="black"/>
<path fill-rule="evenodd" clip-rule="evenodd" d="M242.4 202.64C242.4 202.32 242.4 202 242.48 201.76C242.56 201.52 242.72 201.28 242.88 201.12C243.12 200.8 243.52 200.64 243.92 200.64C244.8 200.64 245.2 201.28 245.2 202.56V206.48H246.4V202.16C246.4 201.2 246.24 200.48 245.84 200C245.44 199.52 244.88 199.28 244.24 199.28C243.92 199.28 243.52 199.44 243.2 199.68C242.88 199.92 242.56 200.24 242.4 200.72V199.36H241.2V206.48H242.4V202.64Z" fill="black"/>
<path fill-rule="evenodd" clip-rule="evenodd" d="M254 199.28C253.28 199.28 252.64 199.76 252.16 200.64V196.56H250.96V206.48H252.16V205.44C252.72 206.24 253.36 206.64 254.08 206.64C254.8 206.64 255.44 206.24 256 205.6C256.48 204.88 256.8 204 256.8 202.88C256.8 201.84 256.48 200.96 256 200.24C255.44 199.6 254.8 199.28 254 199.28ZM252.16 202.96C252.16 202.24 252.32 201.68 252.64 201.28C252.96 200.8 253.36 200.56 253.84 200.56C254.32 200.56 254.72 200.8 255.04 201.28C255.44 201.68 255.6 202.32 255.6 202.96C255.6 203.68 255.44 204.16 255.04 204.64C254.72 205.04 254.32 205.28 253.84 205.28C253.36 205.28 252.96 205.04 252.64 204.64C252.32 204.16 252.16 203.6 252.16 202.96Z" fill="black"/>
<path fill-rule="evenodd" clip-rule="evenodd" d="M262.72 206.48V201.92C262.72 201.04 262.48 200.32 262.08 199.92C261.68 199.52 261.12 199.28 260.48 199.28C259.6 199.28 258.8 199.6 258.08 200.32L258.64 201.28C259.2 200.8 259.76 200.56 260.32 200.56C261.12 200.56 261.52 200.96 261.52 201.92V202.24H260C259.28 202.24 258.72 202.4 258.32 202.72C257.92 203.04 257.68 203.6 257.68 204.32C257.68 204.96 257.92 205.52 258.32 206C258.64 206.4 259.2 206.64 259.76 206.64C260.56 206.64 261.2 206.24 261.6 205.52V206.48H262.72ZM261.52 203.84C261.52 204.32 261.36 204.64 261.12 204.96C260.8 205.2 260.48 205.36 260.08 205.36C259.76 205.36 259.44 205.28 259.2 205.04C259.094 204.936 259.011 204.812 258.956 204.674C258.901 204.536 258.875 204.388 258.88 204.24C258.88 203.92 259.04 203.68 259.2 203.52C259.44 203.36 259.76 203.28 260.16 203.28H261.52V203.84Z" fill="black"/>
<path fill-rule="evenodd" clip-rule="evenodd" d="M268.4 204.4C268.4 203.68 268.24 203.2 267.84 202.88C267.68 202.72 267.44 202.56 267.28 202.48L266.8 202.24C266.64 202.16 266.4 202.08 266.16 202.08C265.92 202 265.76 201.92 265.6 201.84C265.44 201.68 265.36 201.52 265.36 201.28C265.36 201.04 265.44 200.88 265.6 200.72C265.84 200.64 266 200.56 266.32 200.56C266.88 200.56 267.36 200.72 267.84 201.12L268.24 200C267.68 199.52 267.04 199.28 266.4 199.28C265.76 199.28 265.2 199.52 264.8 199.84C264.4 200.24 264.24 200.8 264.24 201.44C264.24 202.4 264.8 203.04 266 203.44L266.08 203.52C266.88 203.84 267.2 204.16 267.2 204.48C267.2 204.72 267.12 204.88 266.96 205.04C266.88 205.2 266.64 205.28 266.32 205.28C265.76 205.28 265.12 204.96 264.48 204.4L263.84 205.52C264.24 205.84 264.64 206.16 265.04 206.32C265.52 206.48 265.92 206.64 266.32 206.64C266.96 206.64 267.44 206.4 267.84 206C268.24 205.6 268.4 205.04 268.4 204.4Z" fill="black"/>
<path fill-rule="evenodd" clip-rule="evenodd" d="M275.04 203.6V202.56C275.04 201.52 274.8 200.72 274.24 200.16C273.68 199.6 273.04 199.28 272.24 199.28C271.52 199.28 270.8 199.6 270.24 200.24C269.68 200.96 269.44 201.84 269.44 202.96C269.44 204.08 269.68 204.96 270.24 205.6C270.8 206.24 271.44 206.64 272.24 206.64C273.28 206.64 274 206.24 274.64 205.44L274 204.48C273.6 205.04 273.04 205.28 272.32 205.28C271.92 205.28 271.52 205.2 271.12 204.88C270.8 204.56 270.64 204.08 270.56 203.6H275.04ZM270.56 202.4C270.56 201.84 270.8 201.44 271.12 201.04C271.44 200.72 271.84 200.56 272.32 200.56C272.72 200.56 273.12 200.72 273.36 201.04C273.68 201.36 273.84 201.84 273.84 202.4H270.56Z" fill="black"/>
<path fill-rule="evenodd" clip-rule="evenodd" d="M278.64 206.64C279.52 206.64 280.16 206.24 280.56 205.44V206.48H281.76V196.56H280.56V200.48C280.08 199.68 279.52 199.28 278.72 199.28C278 199.28 277.36 199.6 276.8 200.24C276.24 200.96 276 201.84 276 202.88C276 204 276.24 204.88 276.8 205.6C277.28 206.24 277.92 206.64 278.64 206.64ZM277.2 202.96C277.2 202.32 277.36 201.76 277.68 201.28C278 200.8 278.4 200.56 278.88 200.56C279.36 200.56 279.76 200.8 280.08 201.28C280.4 201.76 280.56 202.32 280.56 202.96C280.56 203.68 280.4 204.24 280.08 204.64C279.76 205.04 279.36 205.28 278.88 205.28C278.48 205.28 278 205.04 277.68 204.64C277.36 204.24 277.2 203.68 277.2 202.96Z" fill="black"/>
<path fill-rule="evenodd" clip-rule="evenodd" d="M291.12 205.52C291.68 204.8 292 204 292 202.96C292 201.92 291.68 201.04 291.12 200.32C290.56 199.6 289.84 199.28 289.04 199.28C288.16 199.28 287.44 199.6 286.88 200.32C286.32 201.04 286 201.92 286 202.96C286 204 286.32 204.8 286.88 205.52C287.44 206.24 288.16 206.64 289.04 206.64C289.84 206.64 290.56 206.24 291.12 205.52ZM287.76 204.64C287.36 204.16 287.2 203.6 287.2 202.96C287.2 202.24 287.36 201.68 287.76 201.28C288.08 200.8 288.48 200.64 289.04 200.64C289.52 200.64 289.92 200.8 290.32 201.28C290.64 201.68 290.8 202.24 290.8 202.96C290.8 203.6 290.64 204.16 290.32 204.64C289.92 205.04 289.52 205.28 289.04 205.28C288.48 205.28 288.08 205.04 287.76 204.64Z" fill="black"/>
<path fill-rule="evenodd" clip-rule="evenodd" d="M294.56 202.64C294.56 202.32 294.56 202 294.64 201.76C294.72 201.52 294.8 201.28 294.96 201.12C295.28 200.8 295.68 200.64 296.08 200.64C296.96 200.64 297.36 201.28 297.36 202.56V206.48H298.56V202.16C298.56 201.2 298.32 200.48 298 200C297.6 199.52 297.04 199.28 296.4 199.28C296 199.28 295.68 199.44 295.36 199.68C294.96 199.92 294.72 200.24 294.56 200.72V199.36H293.36V206.48H294.56V202.64Z" fill="black"/>
<path d="M303.113 206.488H304.313V196.568H303.113V206.488Z" fill="black"/>
<path fill-rule="evenodd" clip-rule="evenodd" d="M310.64 206.48V201.92C310.64 201.04 310.4 200.32 310 199.92C309.6 199.52 309.04 199.28 308.32 199.28C307.52 199.28 306.72 199.6 306 200.32L306.56 201.28C307.12 200.8 307.68 200.56 308.16 200.56C309.04 200.56 309.44 200.96 309.44 201.92V202.24H307.92C307.2 202.24 306.64 202.4 306.24 202.72C305.84 203.04 305.6 203.6 305.6 204.32C305.6 204.96 305.84 205.52 306.16 206C306.56 206.4 307.04 206.64 307.68 206.64C308.48 206.64 309.04 206.24 309.52 205.52V206.48H310.64ZM309.44 203.84C309.44 204.32 309.28 204.64 309.04 204.96C308.72 205.2 308.4 205.36 308 205.36C307.6 205.36 307.36 205.28 307.12 205.04C306.88 204.88 306.8 204.64 306.8 204.24C306.8 203.92 306.88 203.68 307.12 203.52C307.36 203.36 307.68 203.28 308.08 203.28H309.44V203.84Z" fill="black"/>
<path fill-rule="evenodd" clip-rule="evenodd" d="M313.76 200.56H315.28V199.36H313.76V197.2H312.56V199.36H311.84V200.56H312.56V204.16C312.56 204.88 312.72 205.52 313.12 205.92C313.44 206.4 313.92 206.64 314.4 206.64C314.88 206.64 315.36 206.4 315.76 205.92L315.28 204.8C315.04 205.12 314.8 205.28 314.56 205.28C314.32 205.28 314.08 205.2 314 205.04C313.84 204.8 313.76 204.56 313.76 204.16V200.56Z" fill="black"/>
<path fill-rule="evenodd" clip-rule="evenodd" d="M322 203.6V202.56C322 201.52 321.76 200.72 321.2 200.16C320.64 199.6 320 199.28 319.2 199.28C318.48 199.28 317.76 199.6 317.2 200.24C316.64 200.96 316.4 201.84 316.4 202.96C316.4 204.08 316.64 204.96 317.2 205.6C317.76 206.24 318.4 206.64 319.2 206.64C320.24 206.64 321.04 206.24 321.6 205.44L320.96 204.48C320.56 205.04 320 205.28 319.28 205.28C318.88 205.28 318.48 205.2 318.16 204.88C317.76 204.56 317.6 204.08 317.52 203.6H322ZM317.52 202.4C317.52 201.84 317.76 201.44 318.08 201.04C318.4 200.72 318.8 200.56 319.28 200.56C319.68 200.56 320.08 200.72 320.32 201.04C320.64 201.36 320.8 201.84 320.8 202.4H317.52Z" fill="black"/>
<path fill-rule="evenodd" clip-rule="evenodd" d="M327.36 204.4C327.36 203.68 327.12 203.2 326.8 202.88C326.56 202.72 326.4 202.56 326.24 202.48C326.08 202.4 325.92 202.32 325.68 202.24C325.52 202.16 325.36 202.08 325.12 202.08C324.88 202 324.72 201.92 324.56 201.84C324.4 201.68 324.32 201.52 324.32 201.28C324.32 201.04 324.4 200.88 324.56 200.72C324.72 200.64 324.96 200.56 325.28 200.56C325.76 200.56 326.24 200.72 326.72 201.12L327.2 200C326.64 199.52 326 199.28 325.36 199.28C324.72 199.28 324.16 199.52 323.76 199.84C323.36 200.24 323.12 200.8 323.12 201.44C323.12 202.4 323.76 203.04 324.88 203.44C324.96 203.44 324.96 203.52 325.04 203.52C325.76 203.84 326.16 204.16 326.16 204.48C326.16 204.72 326.08 204.88 325.92 205.04C325.746 205.2 325.516 205.287 325.28 205.28C324.64 205.28 324 204.96 323.36 204.4L322.8 205.52C323.12 205.84 323.52 206.16 324 206.32C324.4 206.48 324.8 206.64 325.28 206.64C325.84 206.64 326.4 206.4 326.72 206C327.12 205.6 327.36 205.04 327.36 204.4Z" fill="black"/>
<path fill-rule="evenodd" clip-rule="evenodd" d="M330.16 200.56H331.68V199.36H330.16V197.2H328.96V199.36H328.24V200.56H328.96V204.16C328.96 204.88 329.12 205.52 329.52 205.92C329.84 206.4 330.32 206.64 330.8 206.64C331.28 206.64 331.76 206.4 332.16 205.92L331.68 204.8C331.44 205.12 331.2 205.28 330.96 205.28C330.72 205.28 330.48 205.2 330.4 205.04C330.24 204.8 330.16 204.56 330.16 204.16V200.56Z" fill="black"/>
<path d="M336.073 206.488H337.273V199.368H336.073V206.488Z" fill="black"/>
<path fill-rule="evenodd" clip-rule="evenodd" d="M336.16 198C336.24 198.16 336.48 198.24 336.64 198.24C336.88 198.24 337.04 198.16 337.2 198C337.36 197.76 337.44 197.6 337.44 197.28C337.44 197.04 337.36 196.8 337.2 196.64C337.04 196.48 336.88 196.32 336.64 196.32C336.48 196.32 336.24 196.48 336.16 196.64C336 196.814 335.914 197.044 335.92 197.28C335.92 197.6 336 197.76 336.16 198Z" fill="black"/>
<path fill-rule="evenodd" clip-rule="evenodd" d="M340.16 202.64C340.16 202.32 340.16 202 340.24 201.76C340.32 201.52 340.48 201.28 340.64 201.12C340.88 200.8 341.28 200.64 341.68 200.64C342.56 200.64 342.96 201.28 342.96 202.56V206.48H344.16V202.16C344.16 201.2 344 200.48 343.6 200C343.2 199.52 342.64 199.28 342 199.28C341.68 199.28 341.28 199.44 340.96 199.68C340.64 199.92 340.32 200.24 340.16 200.72V199.36H338.96V206.48H340.16V202.64Z" fill="black"/>
<path fill-rule="evenodd" clip-rule="evenodd" d="M347.28 198.8C347.28 198.48 347.36 198.16 347.52 198C347.68 197.76 347.84 197.68 348.08 197.68C348.4 197.68 348.64 197.84 348.88 198.16L349.36 197.12C348.88 196.64 348.48 196.4 347.92 196.4C347.44 196.4 347.04 196.64 346.64 197.04C346.32 197.52 346.08 198.08 346.08 198.88V199.36H345.36V200.56H346.08V206.48H347.28V200.56H348.8V199.36H347.28V198.8Z" fill="black"/>
<path fill-rule="evenodd" clip-rule="evenodd" d="M354.72 205.52C355.28 204.8 355.52 204 355.52 202.96C355.52 201.92 355.28 201.04 354.72 200.32C354.08 199.6 353.44 199.28 352.56 199.28C351.68 199.28 350.96 199.6 350.4 200.32C349.84 201.04 349.6 201.92 349.6 202.96C349.6 204 349.84 204.8 350.4 205.52C350.96 206.24 351.68 206.64 352.56 206.64C353.44 206.64 354.08 206.24 354.72 205.52ZM351.28 204.64C350.96 204.16 350.8 203.6 350.8 202.96C350.8 202.24 350.96 201.68 351.28 201.28C351.6 200.8 352 200.64 352.56 200.64C353.04 200.64 353.52 200.8 353.84 201.28C354.16 201.68 354.32 202.24 354.32 202.96C354.32 203.6 354.16 204.16 353.84 204.64C353.52 205.04 353.04 205.28 352.56 205.28C352 205.28 351.6 205.04 351.28 204.64Z" fill="black"/>
<path fill-rule="evenodd" clip-rule="evenodd" d="M359.84 200.8H359.92V199.28C359.52 199.28 359.2 199.44 358.88 199.76C358.529 200.033 358.253 200.391 358.08 200.8V199.36H356.88V206.48H358.08V203.44C358.08 202.64 358.24 202 358.48 201.52C358.8 201.04 359.28 200.8 359.84 200.8Z" fill="black"/>
<path fill-rule="evenodd" clip-rule="evenodd" d="M362.32 202.64C362.32 202 362.48 201.52 362.72 201.12C363.04 200.8 363.44 200.64 363.84 200.64C364.24 200.64 364.56 200.8 364.72 201.12C364.96 201.44 365.04 201.92 365.04 202.56V206.48H366.24V202.56C366.24 201.92 366.4 201.44 366.72 201.12C366.96 200.8 367.36 200.64 367.76 200.64C368.64 200.64 369.04 201.28 369.04 202.56V206.48H370.24V202.16C370.24 201.2 370 200.48 369.68 200C369.28 199.52 368.72 199.28 368.08 199.28C367.28 199.28 366.56 199.76 366 200.64C365.68 199.76 365.04 199.28 364.16 199.28C363.76 199.28 363.44 199.44 363.04 199.68C362.72 199.92 362.48 200.24 362.32 200.72V199.36H361.12V206.48H362.32V202.64Z" fill="black"/>
<path fill-rule="evenodd" clip-rule="evenodd" d="M376.48 206.48V201.92C376.48 201.04 376.24 200.32 375.84 199.92C375.44 199.52 374.88 199.28 374.24 199.28C373.36 199.28 372.56 199.6 371.84 200.32L372.4 201.28C372.96 200.8 373.52 200.56 374.08 200.56C374.88 200.56 375.28 200.96 375.28 201.92V202.24H373.76C373.04 202.24 372.48 202.4 372.08 202.72C371.68 203.04 371.44 203.6 371.44 204.32C371.44 204.96 371.68 205.52 372.08 206C372.4 206.4 372.96 206.64 373.52 206.64C374.32 206.64 374.96 206.24 375.36 205.52V206.48H376.48ZM375.28 203.84C375.28 204.32 375.12 204.64 374.88 204.96C374.56 205.2 374.24 205.36 373.84 205.36C373.52 205.36 373.2 205.28 372.96 205.04C372.854 204.936 372.771 204.812 372.716 204.674C372.661 204.536 372.635 204.388 372.64 204.24C372.64 203.92 372.8 203.68 372.96 203.52C373.2 203.36 373.52 203.28 373.92 203.28H375.28V203.84Z" fill="black"/>
<path fill-rule="evenodd" clip-rule="evenodd" d="M379.6 200.56H381.12V199.36H379.6V197.2H378.4V199.36H377.68V200.56H378.4V204.16C378.4 204.88 378.56 205.52 378.96 205.92C379.28 206.4 379.76 206.64 380.24 206.64C380.8 206.64 381.2 206.4 381.68 205.92L381.12 204.8C381.054 204.937 380.952 205.053 380.825 205.138C380.699 205.222 380.552 205.271 380.4 205.28C380.16 205.28 380 205.2 379.84 205.04C379.68 204.8 379.6 204.56 379.6 204.16V200.56Z" fill="black"/>
<path d="M382.553 206.488H383.753V199.368H382.553V206.488Z" fill="black"/>
<path fill-rule="evenodd" clip-rule="evenodd" d="M382.64 198C382.8 198.16 382.96 198.24 383.2 198.24C383.44 198.24 383.6 198.16 383.76 198C383.84 197.76 383.92 197.6 383.92 197.28C383.92 197.04 383.84 196.8 383.76 196.64C383.6 196.48 383.44 196.32 383.2 196.32C382.96 196.32 382.8 196.48 382.64 196.64C382.48 196.8 382.48 197.04 382.48 197.28C382.48 197.6 382.48 197.76 382.64 198Z" fill="black"/>
<path fill-rule="evenodd" clip-rule="evenodd" d="M390.24 205.52C390.8 204.8 391.12 204 391.12 202.96C391.12 201.92 390.8 201.04 390.24 200.32C389.68 199.6 388.96 199.28 388.08 199.28C387.28 199.28 386.56 199.6 386 200.32C385.44 201.04 385.12 201.92 385.12 202.96C385.12 204 385.44 204.8 386 205.52C386.56 206.24 387.28 206.64 388.08 206.64C388.96 206.64 389.68 206.24 390.24 205.52ZM386.8 204.64C386.48 204.16 386.32 203.6 386.32 202.96C386.32 202.24 386.48 201.68 386.8 201.28C387.2 200.8 387.6 200.64 388.08 200.64C388.64 200.64 389.04 200.8 389.36 201.28C389.76 201.68 389.92 202.24 389.92 202.96C389.92 203.6 389.76 204.16 389.36 204.64C389.04 205.04 388.64 205.28 388.08 205.28C387.6 205.28 387.2 205.04 386.8 204.64Z" fill="black"/>
<path fill-rule="evenodd" clip-rule="evenodd" d="M393.6 202.64C393.6 202.32 393.68 202 393.76 201.76C393.84 201.52 393.92 201.28 394.08 201.12C394.4 200.8 394.72 200.64 395.2 200.64C396 200.64 396.48 201.28 396.48 202.56V206.48H397.68V202.16C397.68 201.2 397.44 200.48 397.04 200C396.64 199.52 396.16 199.28 395.52 199.28C395.12 199.28 394.8 199.44 394.4 199.68C394.08 199.92 393.84 200.24 393.6 200.72V199.36H392.4V206.48H393.6V202.64Z" fill="black"/>
<path fill-rule="evenodd" clip-rule="evenodd" d="M108.32 266.4V264.4L109.12 263.28L110.8 266.4H112.32L110 262.08L112.16 259.28H110.56L108.32 262.32V256.48H107.12V266.4" fill="black"/>
<path d="M113.274 266.408H114.474V259.288H113.274V266.408Z" fill="black"/>
<path fill-rule="evenodd" clip-rule="evenodd" d="M113.36 257.92C113.52 258.08 113.68 258.16 113.92 258.16C114.08 258.16 114.24 258.08 114.4 257.92C114.56 257.68 114.64 257.44 114.64 257.2C114.64 256.96 114.56 256.72 114.4 256.56C114.24 256.4 114.08 256.24 113.92 256.24C113.68 256.24 113.52 256.4 113.36 256.56C113.2 256.734 113.114 256.964 113.12 257.2C113.12 257.44 113.2 257.68 113.36 257.92Z" fill="black"/>
<path d="M116.154 266.408H117.354V256.488H116.154V266.408Z" fill="black"/>
<path fill-rule="evenodd" clip-rule="evenodd" d="M123.84 265.44C124.4 264.72 124.72 263.84 124.72 262.88C124.72 261.84 124.4 260.96 123.84 260.24C123.28 259.52 122.56 259.2 121.68 259.2C120.88 259.2 120.16 259.52 119.6 260.24C119.04 260.96 118.72 261.84 118.72 262.88C118.72 263.84 119.04 264.72 119.6 265.44C120.16 266.16 120.88 266.48 121.68 266.48C122.56 266.48 123.28 266.16 123.84 265.44ZM120.4 264.56C120.08 264.08 119.92 263.52 119.92 262.88C119.92 262.16 120.08 261.6 120.4 261.2C120.8 260.72 121.2 260.56 121.68 260.56C122.24 260.56 122.64 260.72 122.96 261.2C123.36 261.6 123.52 262.16 123.52 262.88C123.52 263.52 123.36 264.08 122.96 264.56C122.64 264.96 122.24 265.2 121.68 265.2C121.2 265.2 120.8 264.96 120.4 264.56Z" fill="black"/>
<path fill-rule="evenodd" clip-rule="evenodd" d="M127.2 262.56C127.2 261.92 127.36 261.36 127.68 261.04C128 260.72 128.32 260.56 128.8 260.56C129.2 260.56 129.52 260.72 129.68 261.04C129.84 261.36 129.92 261.84 129.92 262.48V266.4H131.12V262.48C131.2 261.84 131.36 261.36 131.6 261.04C131.92 260.72 132.24 260.56 132.72 260.56C133.52 260.56 134 261.2 134 262.48V266.4H135.2V262.08C135.2 261.12 134.96 260.4 134.56 259.92C134.16 259.44 133.68 259.2 133.04 259.2C132.16 259.2 131.52 259.68 130.96 260.56C130.64 259.68 130 259.2 129.12 259.2C128.72 259.2 128.32 259.28 128 259.6C127.68 259.84 127.44 260.16 127.2 260.56V259.28H126.08V266.4H127.2V262.56Z" fill="black"/>
<path fill-rule="evenodd" clip-rule="evenodd" d="M142.08 263.52V262.48C142.08 261.44 141.84 260.64 141.28 260.08C140.72 259.52 140.08 259.2 139.36 259.2C138.56 259.2 137.92 259.52 137.36 260.16C136.72 260.88 136.48 261.76 136.48 262.88C136.48 264 136.72 264.88 137.28 265.52C137.84 266.16 138.56 266.48 139.36 266.48C140.32 266.48 141.12 266.08 141.76 265.36L141.04 264.4C140.64 264.96 140.16 265.2 139.44 265.2C138.96 265.2 138.56 265.04 138.24 264.72C137.92 264.4 137.68 264 137.68 263.52H142.08ZM137.68 262.32C137.68 261.76 137.84 261.28 138.16 260.96C138.56 260.64 138.96 260.48 139.36 260.48C139.76 260.48 140.16 260.64 140.48 260.96C140.8 261.28 140.88 261.76 140.88 262.32H137.68Z" fill="black"/>
<path fill-rule="evenodd" clip-rule="evenodd" d="M144.88 260.48H146.4V259.28H144.88V257.04H143.68V259.28H142.96V260.48H143.68V264.08C143.68 264.8 143.84 265.44 144.24 265.84C144.56 266.32 145.04 266.48 145.52 266.48C146 266.48 146.48 266.24 146.88 265.84L146.4 264.72C146.16 265.04 145.92 265.2 145.68 265.2C145.44 265.2 145.2 265.12 145.12 264.88C144.96 264.72 144.88 264.48 144.88 264.08V260.48Z" fill="black"/>
<path fill-rule="evenodd" clip-rule="evenodd" d="M150.8 260.72H150.88V259.2C150.48 259.2 150.16 259.36 149.84 259.6C149.52 259.92 149.28 260.32 149.04 260.72V259.28H147.84V266.4H149.04V263.36C149.04 262.56 149.2 261.92 149.52 261.44C149.76 260.96 150.24 260.72 150.8 260.72Z" fill="black"/>
<path fill-rule="evenodd" clip-rule="evenodd" d="M157.36 263.52V262.48C157.36 261.44 157.12 260.64 156.56 260.08C156 259.52 155.36 259.2 154.56 259.2C153.84 259.2 153.12 259.52 152.56 260.16C152 260.88 151.76 261.76 151.76 262.88C151.76 264 152 264.88 152.56 265.52C153.12 266.16 153.76 266.48 154.56 266.48C155.6 266.48 156.32 266.08 156.96 265.36L156.32 264.4C155.92 264.96 155.36 265.2 154.64 265.2C154.24 265.2 153.84 265.04 153.44 264.72C153.12 264.4 152.96 264 152.88 263.52H157.36ZM152.88 262.32C152.88 261.76 153.12 261.28 153.44 260.96C153.76 260.64 154.16 260.48 154.64 260.48C155.04 260.48 155.44 260.64 155.68 260.96C156 261.28 156.16 261.76 156.16 262.32H152.88Z" fill="black"/>
<path fill-rule="evenodd" clip-rule="evenodd" d="M162.72 264.32C162.72 263.6 162.48 263.12 162.08 262.8C161.92 262.64 161.76 262.48 161.6 262.4C161.44 262.32 161.28 262.24 161.04 262.16C160.88 262.08 160.64 262 160.48 261.92C160.24 261.92 160 261.84 159.92 261.76C159.76 261.6 159.6 261.44 159.6 261.2C159.6 260.96 159.76 260.8 159.92 260.64C160.08 260.48 160.32 260.48 160.56 260.48C161.12 260.48 161.6 260.64 162.08 261.04L162.56 259.92C161.92 259.44 161.36 259.2 160.72 259.2C160 259.2 159.52 259.36 159.12 259.76C158.72 260.16 158.48 260.72 158.48 261.36C158.48 262.32 159.04 262.96 160.24 263.36C160.32 263.36 160.32 263.36 160.4 263.44C161.12 263.68 161.52 264 161.52 264.4C161.52 264.64 161.44 264.8 161.28 264.96C161.106 265.121 160.877 265.207 160.64 265.2C160 265.2 159.36 264.88 158.72 264.32L158.16 265.44C158.48 265.76 158.88 266.08 159.36 266.24C159.76 266.4 160.16 266.48 160.64 266.48C161.2 266.48 161.68 266.32 162.08 265.92C162.48 265.52 162.72 264.96 162.72 264.32Z" fill="black"/>
<path fill-rule="evenodd" clip-rule="evenodd" d="M170.4 256.4C170.72 257.04 171.2 257.28 171.92 257.28C172.56 257.28 173.12 257.04 173.44 256.4C173.76 255.84 173.92 255.04 173.92 254.08C173.92 253.12 173.76 252.32 173.44 251.68C173.12 251.12 172.56 250.8 171.92 250.8C171.2 250.8 170.72 251.12 170.4 251.68C170.08 252.32 169.92 253.12 169.92 254.08C169.92 255.04 170.08 255.84 170.4 256.4ZM170.96 252.4C171.2 251.92 171.52 251.76 171.92 251.76C172.32 251.76 172.64 251.92 172.8 252.4C173.04 252.8 173.12 253.36 173.12 254.08C173.12 254.8 173.04 255.36 172.8 255.76C172.64 256.16 172.32 256.4 171.92 256.4C171.52 256.4 171.2 256.16 170.96 255.76C170.8 255.36 170.72 254.8 170.72 254.08C170.72 253.36 170.8 252.8 170.96 252.4Z" fill="black"/>
<path fill-rule="evenodd" clip-rule="evenodd" d="M336.56 250.96V251.92H337.6V257.2H338.4V250.96" fill="black"/>
<path fill-rule="evenodd" clip-rule="evenodd" d="M345.44 250.48L342.8 257.28H343.28L346 250.48" fill="black"/>
<path fill-rule="evenodd" clip-rule="evenodd" d="M346.24 255.6L345.36 256.72V257.2H347.36V256.64H346L346.72 255.76C346.88 255.52 347.04 255.28 347.12 255.12C347.2 254.96 347.28 254.8 347.28 254.56C347.28 254.24 347.12 254 346.96 253.76C346.8 253.6 346.56 253.52 346.32 253.52C345.92 253.52 345.52 253.76 345.28 254.24L345.68 254.48C345.84 254.24 346.08 254.08 346.32 254.08C346.4 254.08 346.56 254.08 346.64 254.24C346.72 254.32 346.8 254.4 346.8 254.56C346.8 254.72 346.72 254.88 346.64 255.04C346.56 255.12 346.4 255.36 346.24 255.6Z" fill="black"/>
<path fill-rule="evenodd" clip-rule="evenodd" d="M341.28 250.96V251.52H341.84V254.64H342.32V250.96" fill="black"/>
<path fill-rule="evenodd" clip-rule="evenodd" d="M284.16 250.96V251.92H285.2V257.2H286V250.96" fill="black"/>
<path fill-rule="evenodd" clip-rule="evenodd" d="M229.76 250.48L227.12 257.28H227.6L230.24 250.48" fill="black"/>
<path fill-rule="evenodd" clip-rule="evenodd" d="M230.48 255.6L229.6 256.72V257.2H231.6V256.64H230.32L230.96 255.76C231.2 255.52 231.36 255.28 231.44 255.12C231.52 254.96 231.52 254.8 231.52 254.56C231.52 254.24 231.44 254 231.28 253.76C231.04 253.6 230.8 253.52 230.56 253.52C230.16 253.52 229.84 253.76 229.6 254.24L230 254.48C230.16 254.24 230.32 254.08 230.56 254.08C230.72 254.08 230.8 254.08 230.88 254.24C230.96 254.32 231.04 254.4 231.04 254.56C231.04 254.72 231.04 254.88 230.88 255.04C230.8 255.12 230.72 255.36 230.48 255.6Z" fill="black"/>
<path fill-rule="evenodd" clip-rule="evenodd" d="M225.52 250.96V251.52H226.16V254.64H226.64V250.96" fill="black"/>
<path fill-rule="evenodd" clip-rule="evenodd" d="M398.48 254.4L397.04 256.32V257.2H400.4V256.24H398.16L399.28 254.72C399.68 254.24 399.92 253.92 400.08 253.6C400.16 253.28 400.24 253.04 400.24 252.72C400.24 252.08 400.08 251.68 399.76 251.36C399.44 250.96 399.12 250.8 398.72 250.8C398.24 250.8 397.92 250.96 397.68 251.12C397.402 251.41 397.16 251.732 396.96 252.08L397.6 252.56C397.92 252.08 398.24 251.76 398.64 251.76C398.88 251.76 399.04 251.84 399.2 252.08C399.36 252.24 399.44 252.4 399.44 252.72C399.44 252.96 399.36 253.2 399.2 253.44C399.12 253.68 398.88 254 398.48 254.4Z" fill="black"/>
<path d="M341.76 264.64H171.681" stroke="black" stroke-width="2.79999" stroke-miterlimit="10" stroke-linejoin="round"/>
<path d="M171.68 266.4V260.4" stroke="black" stroke-width="2.79999" stroke-miterlimit="10" stroke-linejoin="round"/>
<path d="M228.4 266.4V260.4" stroke="black" stroke-width="2.79999" stroke-miterlimit="10" stroke-linejoin="round"/>
<path d="M285.12 266.4V260.4" stroke="black" stroke-width="2.79999" stroke-miterlimit="10" stroke-linejoin="round"/>
<path d="M341.76 266.4V260.4" stroke="black" stroke-width="2.79999" stroke-miterlimit="10" stroke-linejoin="round"/>
<path d="M228.4 266.4H171.68" stroke="black" stroke-width="3.75999" stroke-miterlimit="10" stroke-linejoin="round"/>
<path d="M285.12 266.4H228.4" stroke="black" stroke-width="3.75999" stroke-miterlimit="10" stroke-linejoin="round"/>
<path d="M341.76 266.4H285.121" stroke="black" stroke-width="3.75999" stroke-miterlimit="10" stroke-linejoin="round"/>
<path d="M398.48 264.64H341.76" stroke="black" stroke-width="2.79999" stroke-miterlimit="10" stroke-linejoin="round"/>
<path d="M398.48 266.4V260.4" stroke="black" stroke-width="2.79999" stroke-miterlimit="10" stroke-linejoin="round"/>
<path d="M398.48 266.4H341.76" stroke="black" stroke-width="3.75999" stroke-miterlimit="10" stroke-linejoin="round"/>
</svg>
