<svg width="511" height="474" viewBox="0 0 511 474" fill="none" xmlns="http://www.w3.org/2000/svg">
<path fill-rule="evenodd" clip-rule="evenodd" d="M109.52 394.08V392L110.32 390.96L112 394.08H113.44L111.2 389.76L113.28 386.96H111.76L109.52 389.92V384.16H108.32V394.08" fill="black"/>
<path d="M114.48 394.08H115.68V386.96H114.48V394.08Z" fill="black"/>
<path fill-rule="evenodd" clip-rule="evenodd" d="M198.4 21.6V5.11998L204.32 19.76H205.84L211.76 5.11998V21.6H214.56V0.479977H210.16L205.12 13.76L200 0.479977H195.6V21.6" fill="black"/>
<path fill-rule="evenodd" clip-rule="evenodd" d="M229.28 21.6V11.28C229.28 9.19997 228.8 7.67997 227.84 6.71997C226.88 5.75997 225.68 5.27997 224.16 5.27997C222.16 5.27997 220.4 6.07997 218.8 7.59997L220.08 9.75997C221.36 8.63997 222.56 8.15997 223.76 8.15997C225.68 8.15997 226.56 9.19997 226.56 11.36V11.92H223.12C221.52 11.92 220.24 12.32 219.28 13.12C218.4 13.92 217.92 15.04 217.92 16.64C217.92 18.24 218.32 19.52 219.2 20.48C220.08 21.44 221.2 21.84 222.56 21.84C224.32 21.84 225.76 21.04 226.8 19.52V21.6H229.28ZM226.56 15.68C226.56 16.64 226.24 17.52 225.6 18.08C224.96 18.72 224.24 19.04 223.36 19.04C222.48 19.04 221.84 18.8 221.36 18.4C220.88 18 220.64 17.36 220.64 16.56C220.64 15.84 220.88 15.28 221.36 14.88C221.84 14.48 222.56 14.32 223.52 14.32H226.56V15.68Z" fill="black"/>
<path fill-rule="evenodd" clip-rule="evenodd" d="M239.92 5.2799C238.16 5.2799 236.8 6.3199 235.68 8.3999V5.5199H233.04V27.5199H235.68V19.1999C237.04 20.9599 238.48 21.8399 240.08 21.8399C241.68 21.8399 243.12 21.1199 244.32 19.5199C245.52 17.9999 246.16 15.9999 246.16 13.5199C246.16 11.0399 245.52 9.0399 244.32 7.5199C243.04 6.0799 241.6 5.2799 239.92 5.2799ZM235.68 13.5999C235.68 12.0799 236.08 10.7999 236.8 9.8399C237.52 8.7999 238.4 8.2399 239.52 8.2399C240.56 8.2399 241.52 8.7999 242.24 9.8399C243.04 10.7999 243.44 12.0799 243.44 13.5999C243.44 15.1999 243.04 16.3999 242.24 17.4399C241.44 18.3999 240.56 18.8799 239.44 18.8799C238.4 18.8799 237.52 18.3999 236.8 17.3599C236.08 16.3999 235.68 15.1199 235.68 13.5999Z" fill="black"/>
<path fill-rule="evenodd" clip-rule="evenodd" d="M268.8 0.479977V16.32L259.04 0.479977H256.16V21.6H259.04V6.23998L268.56 21.6H271.68V0.479977" fill="black"/>
<path fill-rule="evenodd" clip-rule="evenodd" d="M286.64 19.44C287.92 17.84 288.56 15.92 288.56 13.6C288.56 11.28 287.92 9.27997 286.64 7.67997C285.36 6.07997 283.76 5.27997 281.84 5.27997C279.92 5.27997 278.32 6.07997 277.04 7.67997C275.76 9.27997 275.12 11.28 275.12 13.6C275.12 15.92 275.76 17.84 277.04 19.44C278.32 21.04 279.92 21.84 281.84 21.84C283.76 21.84 285.36 21.04 286.64 19.44ZM278.96 17.36C278.16 16.4 277.84 15.12 277.84 13.6C277.84 12.08 278.16 10.8 278.96 9.83997C279.68 8.79997 280.64 8.31997 281.84 8.31997C283.04 8.31997 284 8.79997 284.72 9.83997C285.52 10.8 285.92 12.08 285.92 13.6C285.92 15.12 285.52 16.4 284.72 17.36C284 18.4 283.04 18.88 281.84 18.88C280.64 18.88 279.68 18.4 278.96 17.36Z" fill="black"/>
<path fill-rule="evenodd" clip-rule="evenodd" d="M291.84 21.2C292.16 21.68 292.56 21.84 293.04 21.84C293.6 21.84 294 21.68 294.32 21.2C294.72 20.8 294.88 20.24 294.88 19.6C294.88 18.96 294.72 18.48 294.32 18C294 17.6 293.6 17.36 293.04 17.36C292.56 17.36 292.16 17.6 291.84 18C291.44 18.48 291.28 18.96 291.28 19.6C291.28 20.24 291.44 20.8 291.84 21.2Z" fill="black"/>
<path fill-rule="evenodd" clip-rule="evenodd" d="M314.72 0.479965H305.04V10.64L306.24 12.24C307.2 11.6 308.24 11.28 309.28 11.28C310.4 11.28 311.28 11.6 311.92 12.24C312.64 12.88 313.04 13.76 313.04 14.88C313.04 16.08 312.64 16.96 312 17.52C311.36 18.16 310.64 18.48 309.84 18.48C309.04 18.48 308.32 18.24 307.6 17.92C306.96 17.52 306.48 17.2 306.24 17.04C306.08 16.8 305.92 16.56 305.76 16.4L304.24 19.04C305.6 20.96 307.36 21.84 309.68 21.84C311.36 21.84 312.88 21.2 314 19.84C315.2 18.56 315.84 16.8 315.84 14.8C315.84 12.8 315.28 11.12 314.08 9.99996C312.96 8.79996 311.6 8.15997 310 8.15997C309.12 8.15997 308.32 8.39997 307.6 8.87997V3.67996H314.72V0.479965Z" fill="black"/>
<path fill-rule="evenodd" clip-rule="evenodd" d="M115.12 170.16H123.6L125.28 174.96H128.32L120.88 153.84H117.84L110.4 174.96H113.44L115.12 170.16ZM122.4 166.88H116.32L119.36 158.16L122.4 166.88Z" fill="black"/>
<path fill-rule="evenodd" clip-rule="evenodd" d="M133.44 174.96V158.48L139.36 173.12H140.96L146.8 158.48V174.96H149.68V153.84H145.2L140.16 167.12L135.04 153.84H130.64V174.96" fill="black"/>
<path fill-rule="evenodd" clip-rule="evenodd" d="M160.08 153.84H154.32V174.96H157.2V168.8H160.16C162.64 168.8 164.48 168.16 165.68 167.04C166.88 165.84 167.44 163.92 167.44 161.36C167.44 158.8 166.88 156.96 165.68 155.68C164.48 154.48 162.64 153.84 160.08 153.84ZM160.48 165.52H157.2V157.12H160.08C161.6 157.12 162.72 157.36 163.44 158C164.16 158.64 164.56 159.6 164.56 161.12C164.56 162.56 164.24 163.68 163.68 164.4C163.12 165.2 162 165.52 160.48 165.52Z" fill="black"/>
<path fill-rule="evenodd" clip-rule="evenodd" d="M170.8 174.96H173.6V166.32H182V174.96H184.8V153.84H182V163.04H173.6V153.84H170.8" fill="black"/>
<path d="M189.52 174.96H192.32V153.84H189.52V174.96Z" fill="black"/>
<path fill-rule="evenodd" clip-rule="evenodd" d="M203.36 157.12H208.48V153.84H195.44V157.12H200.56V174.96H203.36" fill="black"/>
<path fill-rule="evenodd" clip-rule="evenodd" d="M225.04 160.72C225.04 158.32 224.48 156.56 223.36 155.52C222.24 154.4 220.4 153.84 217.84 153.84H211.6V174.96H214.4V167.92H218.16L222.16 174.96H225.76L221.36 167.28C223.76 166.4 225.04 164.24 225.04 160.72ZM217.92 164.64H214.4V157.12H218C219.52 157.12 220.64 157.36 221.2 157.84C221.84 158.4 222.08 159.36 222.08 160.72C222.08 162.08 221.84 163.12 221.2 163.68C220.64 164.32 219.52 164.64 217.92 164.64Z" fill="black"/>
<path fill-rule="evenodd" clip-rule="evenodd" d="M243.2 172.08C244.88 170 245.76 167.36 245.76 164.24C245.76 161.12 244.88 158.56 243.2 156.48C241.52 154.4 239.36 153.36 236.88 153.36C234.4 153.36 232.24 154.4 230.56 156.48C228.88 158.56 228 161.12 228 164.24C228 167.36 228.88 170 230.56 172.08C232.24 174.16 234.4 175.2 236.88 175.2C239.36 175.2 241.52 174.16 243.2 172.08ZM241.12 158.88C242.24 160.32 242.8 162.16 242.8 164.24C242.8 166.4 242.24 168.24 241.12 169.68C240 171.2 238.56 171.92 236.88 171.92C235.2 171.92 233.84 171.2 232.64 169.68C231.52 168.24 230.96 166.4 230.96 164.24C230.96 162.16 231.52 160.32 232.64 158.88C233.84 157.36 235.2 156.64 236.88 156.64C238.56 156.64 240 157.36 241.12 158.88Z" fill="black"/>
<path fill-rule="evenodd" clip-rule="evenodd" d="M254.4 156.64C255.28 156.64 256.08 156.8 256.96 157.2C257.76 157.52 258.48 158 258.96 158.56L260.48 155.92C259.68 155.04 258.8 154.48 257.76 154C256.72 153.6 255.6 153.36 254.56 153.36C252.88 153.36 251.44 153.84 250.32 154.96C249.2 156 248.64 157.52 248.64 159.44C248.64 161.44 249.12 162.88 250.16 163.84C250.64 164.32 251.2 164.72 251.84 165.04C252.48 165.36 253.44 165.68 254.64 166.08C255.92 166.4 256.8 166.88 257.28 167.28C257.76 167.76 258 168.4 258 169.2C258 170 257.76 170.64 257.2 171.2C256.72 171.68 255.92 171.92 255.04 171.92C253.2 171.92 251.44 170.96 249.76 169.12L248 171.84C248.96 172.96 250.08 173.84 251.28 174.4C252.4 174.96 253.68 175.2 254.96 175.2C256.8 175.2 258.24 174.64 259.36 173.52C260.48 172.32 260.96 170.88 260.96 169.04C260.96 167.2 260.56 165.76 259.68 164.8C258.8 163.92 257.52 163.12 255.76 162.64C254.08 162.08 252.96 161.6 252.4 161.12C251.84 160.72 251.6 160.08 251.6 159.2C251.6 158.32 251.84 157.68 252.4 157.28C252.96 156.88 253.6 156.64 254.4 156.64Z" fill="black"/>
<path fill-rule="evenodd" clip-rule="evenodd" d="M284.56 160.72C284.56 158.32 284 156.56 282.88 155.52C281.76 154.4 279.92 153.84 277.36 153.84H271.12V174.96H273.92V167.92H277.68L281.68 174.96H285.28L280.88 167.28C283.36 166.4 284.56 164.24 284.56 160.72ZM277.52 164.64H273.92V157.12H277.52C279.12 157.12 280.16 157.36 280.72 157.84C281.36 158.4 281.6 159.36 281.6 160.72C281.6 162.08 281.36 163.12 280.72 163.68C280.16 164.32 279.12 164.64 277.52 164.64Z" fill="black"/>
<path fill-rule="evenodd" clip-rule="evenodd" d="M291.04 170.16H299.44L301.12 174.96H304.16L296.72 153.84H293.68L286.32 174.96H289.36L291.04 170.16ZM298.32 166.88H292.16L295.2 158.16L298.32 166.88Z" fill="black"/>
<path d="M306.48 174.96H309.36V153.84H306.48V174.96Z" fill="black"/>
<path fill-rule="evenodd" clip-rule="evenodd" d="M314 174.96H324.56V171.6H316.88V153.84H314" fill="black"/>
<path fill-rule="evenodd" clip-rule="evenodd" d="M332.88 169.04L328.64 153.84H325.6L331.52 174.96H334.32L337.84 160.48H338.08L341.6 174.96H344.4L350.24 153.84H347.2L342.96 169.04L339.2 153.84H336.64" fill="black"/>
<path fill-rule="evenodd" clip-rule="evenodd" d="M355.28 170.16H363.76L365.44 174.96H368.48L361.04 153.84H358L350.56 174.96H353.6L355.28 170.16ZM362.56 166.88H356.48L359.52 158.16L362.56 166.88Z" fill="black"/>
<path fill-rule="evenodd" clip-rule="evenodd" d="M377.44 174.96V166.64L383.68 153.84H380.56L376 163.44L371.36 153.84H368.24L374.56 166.64V174.96" fill="black"/>
<path fill-rule="evenodd" clip-rule="evenodd" d="M390.88 156.64C391.76 156.64 392.56 156.8 393.44 157.2C394.24 157.52 394.96 158 395.44 158.56L396.96 155.92C396.16 155.04 395.28 154.48 394.24 154C393.2 153.6 392.08 153.36 391.04 153.36C389.36 153.36 387.92 153.84 386.8 154.96C385.68 156 385.12 157.52 385.12 159.44C385.12 161.44 385.6 162.88 386.64 163.84C387.12 164.32 387.68 164.72 388.32 165.04C388.96 165.36 389.92 165.68 391.12 166.08C392.4 166.4 393.28 166.88 393.76 167.28C394.24 167.76 394.48 168.4 394.48 169.2C394.48 170 394.24 170.64 393.68 171.2C393.2 171.68 392.4 171.92 391.52 171.92C389.68 171.92 387.92 170.96 386.24 169.12L384.48 171.84C385.44 172.96 386.56 173.84 387.76 174.4C388.88 174.96 390.16 175.2 391.44 175.2C393.28 175.2 394.72 174.64 395.84 173.52C396.88 172.32 397.44 170.88 397.44 169.04C397.44 167.2 397.04 165.76 396.16 164.8C395.28 163.92 394 163.12 392.24 162.64C390.56 162.08 389.44 161.6 388.88 161.12C388.32 160.72 388.08 160.08 388.08 159.2C388.08 158.32 388.32 157.68 388.88 157.28C389.44 156.88 390.08 156.64 390.88 156.64Z" fill="black"/>
<path fill-rule="evenodd" clip-rule="evenodd" d="M152.96 228.32V234.16C151.92 235.04 150.56 235.44 148.96 235.44C147.36 235.44 146 234.8 144.88 233.44C143.76 232.08 143.2 230.24 143.2 228C143.2 225.76 143.76 223.92 144.96 222.56C146.08 221.2 147.52 220.48 149.2 220.48C150.08 220.48 150.88 220.64 151.52 220.88C152.24 221.2 152.88 221.68 153.52 222.32L155.04 219.6C153.44 217.84 151.44 216.96 148.96 216.96C146.56 216.96 144.48 218 142.8 220.08C141.12 222.24 140.24 224.8 140.24 228C140.24 231.12 141.04 233.68 142.72 235.76C144.4 237.84 146.48 238.88 148.96 238.88C151.92 238.88 154.24 237.76 155.84 235.6V228.32H152.96Z" fill="black"/>
<path fill-rule="evenodd" clip-rule="evenodd" d="M173.6 235.68C175.36 233.6 176.16 231.04 176.16 227.92C176.16 224.8 175.36 222.16 173.6 220.08C171.92 218 169.84 216.96 167.36 216.96C164.8 216.96 162.72 218 161.04 220.08C159.28 222.16 158.48 224.8 158.48 227.92C158.48 231.04 159.28 233.6 161.04 235.68C162.72 237.76 164.8 238.8 167.36 238.8C169.84 238.8 171.92 237.76 173.6 235.68ZM171.52 222.48C172.72 224 173.28 225.76 173.28 227.92C173.28 230 172.72 231.84 171.52 233.36C170.4 234.8 168.96 235.6 167.36 235.6C165.68 235.6 164.24 234.8 163.12 233.36C161.92 231.84 161.36 230 161.36 227.92C161.36 225.76 161.92 224 163.12 222.48C164.24 220.96 165.68 220.24 167.36 220.24C168.96 220.24 170.4 220.96 171.52 222.48Z" fill="black"/>
<path fill-rule="evenodd" clip-rule="evenodd" d="M193.84 235.68C195.6 233.6 196.4 231.04 196.4 227.92C196.4 224.8 195.6 222.16 193.84 220.08C192.16 218 190.08 216.96 187.52 216.96C185.04 216.96 182.96 218 181.28 220.08C179.52 222.16 178.72 224.8 178.72 227.92C178.72 231.04 179.52 233.6 181.28 235.68C182.96 237.76 185.04 238.8 187.52 238.8C190.08 238.8 192.16 237.76 193.84 235.68ZM191.76 222.48C192.96 224 193.52 225.76 193.52 227.92C193.52 230 192.96 231.84 191.76 233.36C190.64 234.8 189.2 235.6 187.52 235.6C185.92 235.6 184.48 234.8 183.36 233.36C182.16 231.84 181.6 230 181.6 227.92C181.6 225.76 182.16 224 183.36 222.48C184.48 220.96 185.92 220.24 187.52 220.24C189.2 220.24 190.64 220.96 191.76 222.48Z" fill="black"/>
<path fill-rule="evenodd" clip-rule="evenodd" d="M205.76 217.52H200V238.64H205.6C208.88 238.64 211.28 237.68 212.8 235.76C214.4 233.84 215.2 231.2 215.2 227.92C215.2 224.64 214.4 222.08 212.72 220.24C211.12 218.4 208.8 217.52 205.76 217.52ZM212.32 228C212.32 230.4 211.76 232.24 210.72 233.44C209.6 234.64 208.08 235.28 206 235.28H202.88V220.8H205.68C207.92 220.8 209.52 221.36 210.64 222.56C211.76 223.84 212.32 225.6 212.32 228Z" fill="black"/>
<path fill-rule="evenodd" clip-rule="evenodd" d="M223.92 220.24C224.8 220.24 225.6 220.48 226.48 220.8C227.28 221.2 228 221.6 228.48 222.24L230 219.52C229.2 218.72 228.32 218.08 227.28 217.6C226.16 217.2 225.12 216.96 224.08 216.96C222.4 216.96 220.96 217.52 219.84 218.56C218.72 219.6 218.16 221.12 218.16 223.12C218.16 225.04 218.64 226.48 219.68 227.44C220.16 227.92 220.72 228.32 221.36 228.64C222 228.96 222.96 229.28 224.16 229.68C225.44 230.08 226.24 230.48 226.8 230.96C227.28 231.36 227.52 232 227.52 232.8C227.52 233.68 227.28 234.32 226.72 234.8C226.16 235.28 225.44 235.52 224.56 235.52C222.72 235.52 220.96 234.64 219.28 232.72L217.44 235.44C218.48 236.56 219.6 237.44 220.72 238C221.92 238.56 223.2 238.88 224.48 238.88C226.32 238.88 227.76 238.32 228.88 237.12C229.92 236 230.48 234.48 230.48 232.64C230.48 230.8 230.08 229.44 229.2 228.48C228.32 227.52 227.04 226.8 225.28 226.24C223.6 225.76 222.4 225.28 221.92 224.8C221.36 224.32 221.12 223.68 221.12 222.8C221.12 222 221.36 221.36 221.92 220.88C222.4 220.48 223.12 220.24 223.92 220.24Z" fill="black"/>
<path fill-rule="evenodd" clip-rule="evenodd" d="M243.44 220.8H251.84V217.52H240.64V238.64H243.44V229.92H250.96V226.64H243.44" fill="black"/>
<path fill-rule="evenodd" clip-rule="evenodd" d="M257.52 233.84H266L267.68 238.64H270.72L263.28 217.52H260.24L252.8 238.64H255.84L257.52 233.84ZM264.8 230.48H258.72L261.76 221.84L264.8 230.48Z" fill="black"/>
<path fill-rule="evenodd" clip-rule="evenodd" d="M280.72 235.36C279.12 235.36 277.76 234.64 276.64 233.2C275.52 231.76 274.96 230 274.96 227.84C274.96 225.68 275.52 223.92 276.64 222.56C277.84 221.2 279.28 220.48 280.96 220.48C281.92 220.48 282.72 220.64 283.44 221.04C284.16 221.44 284.96 222.08 285.76 223.12L287.52 220.64C286.64 219.36 285.68 218.48 284.56 217.92C283.52 217.28 282.32 216.96 281.04 216.96C278.4 216.96 276.24 218 274.56 220.08C272.8 222.24 271.92 224.8 271.92 228C271.92 231.12 272.8 233.76 274.48 235.76C276.16 237.84 278.24 238.88 280.8 238.88C283.36 238.88 285.52 237.6 287.28 235.12L285.44 232.8C284.72 233.68 284 234.32 283.28 234.8C282.56 235.2 281.68 235.36 280.72 235.36Z" fill="black"/>
<path d="M290.8 238.64H293.6V217.52H290.8V238.64Z" fill="black"/>
<path fill-rule="evenodd" clip-rule="evenodd" d="M298.32 238.64H308.8V235.2H301.12V217.52H298.32" fill="black"/>
<path d="M311.92 238.64H314.8V217.52H311.92V238.64Z" fill="black"/>
<path fill-rule="evenodd" clip-rule="evenodd" d="M325.76 220.72H330.88V217.52H317.84V220.72H322.96V238.64H325.76" fill="black"/>
<path d="M334 238.64H336.8V217.52H334V238.64Z" fill="black"/>
<path fill-rule="evenodd" clip-rule="evenodd" d="M353.36 217.52H341.52V238.64H353.6V235.28H344.32V229.6H352.4V226.4H344.32V220.88H353.36" fill="black"/>
<path fill-rule="evenodd" clip-rule="evenodd" d="M362.32 220.24C363.2 220.24 364 220.48 364.88 220.8C365.76 221.2 366.4 221.6 366.88 222.24L368.4 219.52C367.68 218.72 366.72 218.08 365.68 217.6C364.64 217.2 363.52 216.96 362.48 216.96C360.8 216.96 359.36 217.52 358.24 218.56C357.12 219.6 356.56 221.12 356.56 223.12C356.56 225.04 357.04 226.48 358.08 227.44C358.56 227.92 359.12 228.32 359.76 228.64C360.4 228.96 361.36 229.28 362.56 229.68C363.84 230.08 364.72 230.48 365.2 230.96C365.68 231.36 365.92 232 365.92 232.8C365.92 233.68 365.68 234.32 365.12 234.8C364.64 235.28 363.92 235.52 362.96 235.52C361.12 235.52 359.36 234.64 357.68 232.72L355.92 235.44C356.88 236.56 358 237.44 359.2 238C360.32 238.56 361.6 238.88 362.88 238.88C364.72 238.88 366.16 238.32 367.28 237.12C368.4 236 368.88 234.48 368.88 232.64C368.88 230.8 368.48 229.44 367.6 228.48C366.72 227.52 365.44 226.8 363.68 226.24C362 225.76 360.88 225.28 360.32 224.8C359.76 224.32 359.52 223.68 359.52 222.8C359.52 222 359.76 221.36 360.32 220.88C360.88 220.48 361.52 220.24 362.32 220.24Z" fill="black"/>
<path fill-rule="evenodd" clip-rule="evenodd" d="M104.8 188.8H99.04V209.92H104.64C107.84 209.92 110.24 208.96 111.84 207.04C113.44 205.12 114.24 202.48 114.24 199.2C114.24 195.92 113.36 193.36 111.76 191.52C110.16 189.68 107.84 188.8 104.8 188.8ZM111.36 199.36C111.36 201.68 110.8 203.52 109.68 204.72C108.64 205.92 107.04 206.56 105.04 206.56H101.84V192.08H104.72C106.96 192.08 108.56 192.64 109.68 193.92C110.8 195.12 111.36 196.88 111.36 199.36Z" fill="black"/>
<path d="M117.84 209.92H120.72V188.8H117.84V209.92Z" fill="black"/>
<path fill-rule="evenodd" clip-rule="evenodd" d="M130.48 191.52C131.28 191.52 132.16 191.76 132.96 192.08C133.84 192.48 134.48 192.96 135.04 193.52L136.56 190.8C135.76 190 134.88 189.36 133.76 188.96C132.72 188.48 131.68 188.24 130.56 188.24C128.88 188.24 127.52 188.8 126.4 189.84C125.28 190.88 124.72 192.4 124.72 194.4C124.72 196.32 125.2 197.76 126.16 198.72C126.64 199.2 127.28 199.6 127.92 199.92C128.56 200.24 129.44 200.56 130.72 200.96C131.92 201.36 132.8 201.76 133.28 202.24C133.84 202.64 134.08 203.28 134.08 204.08C134.08 204.96 133.84 205.6 133.28 206.08C132.72 206.56 132 206.8 131.12 206.8C129.28 206.8 127.52 205.92 125.76 204L124 206.72C125.04 207.84 126.16 208.72 127.28 209.28C128.48 209.84 129.68 210.16 131.04 210.16C132.8 210.16 134.24 209.6 135.36 208.4C136.48 207.28 137.04 205.76 137.04 203.92C137.04 202.08 136.64 200.72 135.76 199.76C134.88 198.8 133.52 198.08 131.84 197.52C130.08 197.04 128.96 196.56 128.48 196.08C127.92 195.6 127.68 194.96 127.68 194.08C127.68 193.28 127.92 192.64 128.48 192.16C128.96 191.76 129.68 191.52 130.48 191.52Z" fill="black"/>
<path fill-rule="evenodd" clip-rule="evenodd" d="M146.88 192H152V188.8H138.96V192H144.08V209.92H146.88" fill="black"/>
<path fill-rule="evenodd" clip-rule="evenodd" d="M168.56 195.6C168.56 193.2 168 191.52 166.88 190.4C165.76 189.28 163.92 188.8 161.36 188.8H155.12V209.92H157.92V202.8H161.68L165.68 209.92H169.28L164.88 202.24C167.36 201.28 168.56 199.12 168.56 195.6ZM161.52 199.6H157.92V192H161.52C163.12 192 164.16 192.24 164.72 192.8C165.36 193.28 165.6 194.24 165.6 195.6C165.6 197.04 165.36 198 164.8 198.64C164.16 199.28 163.12 199.6 161.52 199.6Z" fill="black"/>
<path d="M172.64 209.92H175.52V188.8H172.64V209.92Z" fill="black"/>
<path fill-rule="evenodd" clip-rule="evenodd" d="M187.52 209.92C189.84 209.92 191.44 209.28 192.4 207.92C193.2 206.8 193.6 205.52 193.6 204C193.6 202.72 193.28 201.6 192.64 200.72C192.08 199.84 191.2 199.2 190.16 198.96C190.48 198.8 190.64 198.64 190.8 198.56C190.88 198.48 191.12 198.32 191.36 198.08C192.24 197.28 192.64 196 192.64 194.4C192.64 192.96 192.24 191.76 191.52 190.64C191.12 190.08 190.48 189.6 189.68 189.28C188.8 188.96 187.84 188.8 186.72 188.8H180.16V209.92H187.52ZM182.96 197.52V192.08H186.64C187.68 192.08 188.48 192.32 188.96 192.72C189.44 193.2 189.68 193.92 189.68 194.88C189.68 196.64 188.64 197.52 186.64 197.52H182.96ZM182.96 206.64V200.8H187.12C188.32 200.8 189.2 201.04 189.76 201.52C190.4 202 190.64 202.72 190.64 203.68C190.64 204.8 190.4 205.6 189.84 206C189.28 206.4 188.48 206.64 187.44 206.64H182.96Z" fill="black"/>
<path fill-rule="evenodd" clip-rule="evenodd" d="M200.96 205.04C200.16 203.92 199.76 202.4 199.76 200.48V188.8H196.96V200.64C196.96 203.68 197.6 206 198.96 207.68C200.24 209.28 202 210.08 204.08 210.08C206.16 210.08 207.84 209.28 209.2 207.68C210.56 206 211.2 203.68 211.2 200.64V188.8H208.32V200.48C208.32 202.4 208 203.92 207.2 205.04C206.4 206.16 205.36 206.72 204.08 206.72C202.72 206.72 201.68 206.16 200.96 205.04Z" fill="black"/>
<path fill-rule="evenodd" clip-rule="evenodd" d="M222 192H227.12V188.8H214.08V192H219.2V209.92H222" fill="black"/>
<path d="M230.24 209.92H233.04V188.8H230.24V209.92Z" fill="black"/>
<path fill-rule="evenodd" clip-rule="evenodd" d="M251.84 206.96C253.52 204.88 254.4 202.32 254.4 199.2C254.4 196.08 253.52 193.44 251.84 191.36C250.08 189.28 248 188.24 245.52 188.24C242.96 188.24 240.88 189.28 239.2 191.36C237.52 193.44 236.64 196.08 236.64 199.2C236.64 202.32 237.52 204.88 239.2 206.96C240.88 209.04 242.96 210.08 245.52 210.08C248 210.08 250.08 209.04 251.84 206.96ZM249.76 193.76C250.88 195.28 251.44 197.04 251.44 199.2C251.44 201.28 250.88 203.12 249.76 204.64C248.56 206.08 247.2 206.88 245.52 206.88C243.84 206.88 242.4 206.08 241.28 204.64C240.16 203.12 239.52 201.28 239.52 199.2C239.52 197.04 240.16 195.28 241.28 193.76C242.4 192.24 243.84 191.52 245.52 191.52C247.2 191.52 248.56 192.24 249.76 193.76Z" fill="black"/>
<path fill-rule="evenodd" clip-rule="evenodd" d="M270.56 188.8V204.56L260.8 188.8H257.92V209.92H260.8V194.48L270.32 209.92H273.44V188.8" fill="black"/>
<path fill-rule="evenodd" clip-rule="evenodd" d="M298.8 206.96C300.48 204.88 301.36 202.32 301.36 199.2C301.36 196.08 300.48 193.44 298.8 191.36C297.04 189.28 294.96 188.24 292.48 188.24C289.92 188.24 287.84 189.28 286.16 191.36C284.48 193.44 283.6 196.08 283.6 199.2C283.6 202.32 284.48 204.88 286.16 206.96C287.84 209.04 290 210.08 292.48 210.08C294.96 210.08 297.04 209.04 298.8 206.96ZM296.72 193.76C297.84 195.28 298.4 197.04 298.4 199.2C298.4 201.28 297.84 203.12 296.72 204.64C295.52 206.08 294.16 206.88 292.48 206.88C290.8 206.88 289.36 206.08 288.24 204.64C287.12 203.12 286.48 201.28 286.48 199.2C286.48 197.04 287.12 195.28 288.24 193.76C289.36 192.24 290.8 191.52 292.48 191.52C294.16 191.52 295.52 192.24 296.72 193.76Z" fill="black"/>
<path fill-rule="evenodd" clip-rule="evenodd" d="M307.76 192.08H316.08L316.16 188.8H304.88V209.92H307.76V201.2H315.2V197.92H307.76" fill="black"/>
<path fill-rule="evenodd" clip-rule="evenodd" d="M333.76 209.92L340.48 188.8H337.36L332.16 204.56L326.96 188.8H323.76L330.56 209.92" fill="black"/>
<path d="M342.96 209.92H345.76V188.8H342.96V209.92Z" fill="black"/>
<path fill-rule="evenodd" clip-rule="evenodd" d="M352.8 205.12H361.28L362.96 209.92H366L358.56 188.8H355.52L348.08 209.92H351.12L352.8 205.12ZM360.08 201.84H354L357.04 193.12L360.08 201.84Z" fill="black"/>
<path fill-rule="evenodd" clip-rule="evenodd" d="M375.68 209.92C378 209.92 379.6 209.28 380.56 207.92C381.36 206.8 381.76 205.52 381.76 204C381.76 202.72 381.44 201.6 380.8 200.72C380.24 199.84 379.36 199.2 378.32 198.96C378.64 198.8 378.8 198.64 378.96 198.56C379.04 198.48 379.28 198.32 379.6 198.08C380.4 197.28 380.8 196 380.8 194.4C380.8 192.96 380.4 191.76 379.68 190.64C379.28 190.08 378.64 189.6 377.84 189.28C376.96 188.96 376 188.8 374.88 188.8H368.32V209.92H375.68ZM371.12 197.52V192.08H374.8C375.84 192.08 376.64 192.32 377.12 192.72C377.6 193.2 377.84 193.92 377.84 194.88C377.84 196.64 376.8 197.52 374.8 197.52H371.12ZM371.12 206.64V200.8H375.28C376.48 200.8 377.36 201.04 377.92 201.52C378.56 202 378.88 202.72 378.88 203.68C378.88 204.8 378.56 205.6 378 206C377.44 206.4 376.64 206.64 375.6 206.64H371.12Z" fill="black"/>
<path fill-rule="evenodd" clip-rule="evenodd" d="M385.28 209.92H395.84V206.48H388.16V188.8H385.28" fill="black"/>
<path fill-rule="evenodd" clip-rule="evenodd" d="M410.8 188.8H398.96V209.92H411.04V206.56H401.76V200.88H409.84V197.76H401.76V192.16H410.8" fill="black"/>
<path fill-rule="evenodd" clip-rule="evenodd" d="M187.12 334.64H191.76V332.8H185.52V344.56H187.12V339.68H191.2V337.84H187.12" fill="black"/>
<path fill-rule="evenodd" clip-rule="evenodd" d="M199.12 344.56V338.8C199.12 337.6 198.88 336.8 198.32 336.24C197.84 335.76 197.12 335.44 196.32 335.44C195.2 335.44 194.24 335.92 193.36 336.8L194 337.92C194.72 337.36 195.44 337.04 196.08 337.04C197.12 337.04 197.68 337.6 197.68 338.8V339.12H195.76C194.8 339.12 194.16 339.36 193.6 339.84C193.12 340.24 192.88 340.88 192.88 341.76C192.88 342.64 193.12 343.36 193.6 343.92C194.08 344.4 194.64 344.72 195.44 344.72C196.4 344.72 197.2 344.24 197.76 343.36V344.56H199.12ZM197.68 341.2C197.68 341.76 197.44 342.24 197.12 342.56C196.72 342.88 196.32 343.12 195.84 343.12C195.36 343.12 195.04 342.96 194.72 342.72C194.48 342.48 194.32 342.16 194.32 341.76C194.32 341.28 194.48 340.96 194.72 340.8C195.04 340.56 195.44 340.48 196 340.48H197.68V341.2Z" fill="black"/>
<path fill-rule="evenodd" clip-rule="evenodd" d="M204.4 344.72C205.52 344.72 206.56 344.16 207.36 343.04L206.48 341.84C205.92 342.56 205.28 342.96 204.64 342.96C204 342.96 203.44 342.72 202.96 342.08C202.48 341.52 202.24 340.88 202.24 340C202.24 339.2 202.48 338.56 202.96 338C203.44 337.44 204 337.2 204.56 337.2C205.2 337.2 205.84 337.52 206.48 338.24L207.36 336.88C206.56 335.92 205.68 335.44 204.64 335.44C203.52 335.44 202.64 335.92 201.92 336.72C201.12 337.6 200.8 338.72 200.8 340.08C200.8 341.44 201.12 342.56 201.84 343.44C202.56 344.24 203.44 344.72 204.4 344.72Z" fill="black"/>
<path d="M208.96 344.56H210.48V335.6H208.96V344.56Z" fill="black"/>
<path fill-rule="evenodd" clip-rule="evenodd" d="M209.04 333.84C209.2 334.08 209.44 334.16 209.68 334.16C210 334.16 210.24 334.08 210.4 333.84C210.56 333.6 210.64 333.28 210.64 332.96C210.64 332.64 210.56 332.4 210.4 332.16C210.24 331.92 210 331.76 209.68 331.76C209.44 331.76 209.2 331.92 209.04 332.16C208.88 332.4 208.8 332.64 208.8 332.96C208.8 333.28 208.88 333.6 209.04 333.84Z" fill="black"/>
<path d="M212.64 344.56H214.16V332.08H212.64V344.56Z" fill="black"/>
<path d="M216.32 344.56H217.76V335.6H216.32V344.56Z" fill="black"/>
<path fill-rule="evenodd" clip-rule="evenodd" d="M216.4 333.84C216.56 334.08 216.8 334.16 217.04 334.16C217.28 334.16 217.52 334.08 217.76 333.84C217.92 333.6 218 333.28 218 332.96C218 332.64 217.92 332.4 217.76 332.16C217.52 331.92 217.28 331.76 217.04 331.76C216.8 331.76 216.56 331.92 216.4 332.16C216.16 332.4 216.08 332.64 216.08 332.96C216.08 333.28 216.16 333.6 216.4 333.84Z" fill="black"/>
<path fill-rule="evenodd" clip-rule="evenodd" d="M221.84 337.12H223.68V335.6H221.84V332.8H220.32V335.6H219.44V337.12H220.32V341.6C220.32 342.56 220.56 343.28 220.96 343.84C221.44 344.4 222 344.72 222.64 344.72C223.28 344.72 223.84 344.4 224.4 343.76L223.76 342.48C223.44 342.88 223.12 343.04 222.8 343.04C222.48 343.04 222.24 342.96 222.08 342.64C221.92 342.4 221.84 342.08 221.84 341.68V337.12Z" fill="black"/>
<path fill-rule="evenodd" clip-rule="evenodd" d="M226.48 348.08C226.88 348.08 227.36 347.92 227.76 347.6C228.08 347.28 228.4 346.8 228.64 346.24L232.08 335.6H230.48L228.32 342.16L226.16 335.6H224.56C226.48 341.6 227.44 344.64 227.44 344.8C227.44 345.12 227.36 345.52 227.12 345.76C226.96 346.08 226.64 346.24 226.32 346.24C226 346.24 225.68 346.08 225.36 345.68L224.72 347.2C225.2 347.84 225.76 348.08 226.48 348.08Z" fill="black"/>
<path fill-rule="evenodd" clip-rule="evenodd" d="M240.72 335.44C239.76 335.44 238.96 336 238.4 337.2V335.6H236.88V347.84H238.4V343.2C239.12 344.16 239.92 344.72 240.8 344.72C241.76 344.72 242.48 344.24 243.2 343.36C243.84 342.56 244.16 341.44 244.16 340C244.16 338.64 243.84 337.52 243.2 336.72C242.48 335.92 241.68 335.44 240.72 335.44ZM238.4 340.08C238.4 339.28 238.56 338.56 238.96 338C239.44 337.44 239.92 337.12 240.48 337.12C241.12 337.12 241.6 337.44 242.08 338C242.48 338.56 242.72 339.28 242.72 340.08C242.72 340.96 242.48 341.68 242 342.16C241.6 342.72 241.12 343.04 240.48 343.04C239.92 343.04 239.44 342.72 238.96 342.16C238.56 341.68 238.4 340.96 238.4 340.08Z" fill="black"/>
<path fill-rule="evenodd" clip-rule="evenodd" d="M252.56 340.88V339.6C252.56 338.32 252.16 337.28 251.52 336.56C250.88 335.84 250 335.44 249.04 335.44C248.08 335.44 247.2 335.92 246.56 336.72C245.84 337.52 245.44 338.64 245.44 340.08C245.44 341.44 245.84 342.56 246.48 343.44C247.2 344.24 248.08 344.72 249.04 344.72C250.32 344.72 251.28 344.16 252.08 343.2L251.2 342C250.72 342.72 250.08 343.04 249.2 343.04C248.56 343.04 248.08 342.88 247.68 342.48C247.2 342.08 246.96 341.52 246.96 340.88H252.56ZM246.96 339.44C246.96 338.72 247.2 338.16 247.6 337.68C248.08 337.28 248.56 337.12 249.12 337.12C249.6 337.12 250.08 337.28 250.48 337.68C250.88 338.08 251.04 338.64 251.04 339.44H246.96Z" fill="black"/>
<path fill-rule="evenodd" clip-rule="evenodd" d="M257.92 337.36H258V335.44C257.52 335.52 257.12 335.68 256.64 336C256.24 336.4 255.92 336.88 255.68 337.44V335.6H254.16V344.56H255.68V340.72C255.68 339.68 255.84 338.88 256.24 338.24C256.64 337.68 257.2 337.36 257.92 337.36Z" fill="black"/>
<path fill-rule="evenodd" clip-rule="evenodd" d="M261.36 334.88C261.36 334.4 261.44 334.08 261.6 333.84C261.76 333.6 262.08 333.44 262.4 333.44C262.72 333.44 262.96 333.68 263.28 334.08L263.92 332.72C263.36 332.16 262.8 331.84 262.16 331.84C261.52 331.84 260.96 332.08 260.56 332.64C260.08 333.2 259.84 334 259.84 334.88V335.6H258.96V337.12H259.84V344.56H261.36V337.12H263.2V335.6H261.36V334.88Z" fill="black"/>
<path fill-rule="evenodd" clip-rule="evenodd" d="M270.64 343.36C271.36 342.48 271.68 341.36 271.68 340.08C271.68 338.8 271.36 337.68 270.64 336.8C269.92 335.92 269.04 335.44 267.92 335.44C266.88 335.44 266 335.92 265.28 336.8C264.56 337.68 264.24 338.8 264.24 340.08C264.24 341.36 264.56 342.48 265.28 343.36C266 344.24 266.88 344.72 267.92 344.72C269.04 344.72 269.92 344.24 270.64 343.36ZM266.32 342.16C265.92 341.68 265.68 340.96 265.68 340.08C265.68 339.2 265.92 338.48 266.32 338C266.8 337.44 267.28 337.12 267.92 337.12C268.64 337.12 269.12 337.44 269.6 338C270 338.48 270.24 339.2 270.24 340.08C270.24 340.96 270 341.68 269.6 342.16C269.12 342.72 268.64 343.04 267.92 343.04C267.28 343.04 266.8 342.72 266.32 342.16Z" fill="black"/>
<path fill-rule="evenodd" clip-rule="evenodd" d="M277.12 337.36H277.2V335.44C276.72 335.52 276.32 335.68 275.92 336C275.44 336.4 275.12 336.88 274.88 337.44V335.6H273.44V344.56H274.88V340.72C274.88 339.68 275.12 338.88 275.44 338.24C275.84 337.68 276.4 337.36 277.12 337.36Z" fill="black"/>
<path fill-rule="evenodd" clip-rule="evenodd" d="M280.24 339.68C280.24 338.88 280.4 338.24 280.8 337.84C281.2 337.36 281.6 337.2 282.16 337.2C282.64 337.2 283.04 337.36 283.28 337.76C283.52 338.16 283.68 338.8 283.68 339.6V344.56H285.12V339.6C285.2 338.8 285.36 338.16 285.76 337.76C286.16 337.36 286.56 337.2 287.04 337.2C288.16 337.2 288.72 338 288.72 339.6V344.56H290.24V339.04C290.24 337.92 290 337.04 289.44 336.4C288.96 335.76 288.32 335.44 287.52 335.44C286.48 335.44 285.6 336.08 284.88 337.2C284.48 336.08 283.68 335.44 282.56 335.44C282.08 335.44 281.6 335.6 281.2 335.92C280.72 336.24 280.4 336.72 280.24 337.2V335.6H278.72V344.56H280.24V339.68Z" fill="black"/>
<path d="M292.32 344.56H293.84V335.6H292.32V344.56Z" fill="black"/>
<path fill-rule="evenodd" clip-rule="evenodd" d="M292.4 333.84C292.56 334.08 292.8 334.16 293.04 334.16C293.36 334.16 293.52 334.08 293.76 333.84C293.92 333.6 294 333.28 294 332.96C294 332.64 293.92 332.4 293.76 332.16C293.52 331.92 293.36 331.76 293.04 331.76C292.8 331.76 292.56 331.92 292.4 332.16C292.24 332.4 292.08 332.64 292.08 332.96C292.08 333.28 292.24 333.6 292.4 333.84Z" fill="black"/>
<path fill-rule="evenodd" clip-rule="evenodd" d="M297.44 339.68C297.44 339.28 297.52 338.96 297.6 338.64C297.68 338.32 297.84 338 298.08 337.84C298.4 337.36 298.88 337.2 299.44 337.2C300.48 337.2 301.04 338 301.04 339.6V344.56H302.56V339.04C302.56 337.92 302.32 337.04 301.76 336.4C301.28 335.76 300.64 335.44 299.84 335.44C299.36 335.44 298.88 335.6 298.48 335.92C298.08 336.24 297.68 336.72 297.44 337.2V335.6H296V344.56H297.44V339.68Z" fill="black"/>
<path fill-rule="evenodd" clip-rule="evenodd" d="M311.2 335.6H309.68V336.96C309.12 335.92 308.32 335.44 307.44 335.44C306.48 335.44 305.68 335.92 305.12 336.72C304.48 337.52 304.16 338.56 304.16 339.84C304.16 341.04 304.48 342.08 305.12 342.88C305.68 343.76 306.48 344.16 307.44 344.16C307.92 344.16 308.4 344 308.8 343.68C309.2 343.36 309.52 342.96 309.76 342.4V343.52C309.76 344.56 309.6 345.28 309.12 345.76C308.72 346.24 308.16 346.48 307.44 346.48C306.72 346.48 306.08 346.08 305.36 345.44L304.64 346.88C305.52 347.76 306.48 348.16 307.52 348.16C308.64 348.16 309.52 347.76 310.16 346.96C310.88 346.16 311.2 344.96 311.2 343.44V335.6ZM305.68 339.76C305.68 338.96 305.84 338.32 306.16 337.84C306.56 337.28 307.04 336.96 307.68 336.96C308.24 336.96 308.72 337.28 309.12 337.76C309.52 338.32 309.68 338.96 309.68 339.76C309.68 340.48 309.52 341.12 309.12 341.68C308.8 342.16 308.24 342.4 307.68 342.4C307.04 342.4 306.56 342.16 306.16 341.6C305.84 341.12 305.68 340.48 305.68 339.76Z" fill="black"/>
<path fill-rule="evenodd" clip-rule="evenodd" d="M320.4 344.56L322.08 338.4L323.76 344.56H325.44L327.92 335.6H326.4L324.64 342.4L322.88 335.6H321.28L319.52 342.4L317.76 335.6H316.24L318.64 344.56" fill="black"/>
<path fill-rule="evenodd" clip-rule="evenodd" d="M335.92 340.88V339.6C335.92 338.32 335.52 337.28 334.88 336.56C334.16 335.84 333.36 335.44 332.4 335.44C331.44 335.44 330.56 335.92 329.92 336.72C329.2 337.52 328.8 338.64 328.8 340.08C328.8 341.44 329.12 342.56 329.84 343.44C330.56 344.24 331.44 344.72 332.4 344.72C333.68 344.72 334.64 344.16 335.44 343.2L334.56 342C334.08 342.72 333.44 343.04 332.48 343.04C331.92 343.04 331.44 342.88 331.04 342.48C330.56 342.08 330.32 341.52 330.32 340.88H335.92ZM330.32 339.44C330.32 338.72 330.56 338.16 330.96 337.68C331.44 337.28 331.92 337.12 332.48 337.12C332.96 337.12 333.44 337.28 333.84 337.68C334.24 338.08 334.4 338.64 334.4 339.44H330.32Z" fill="black"/>
<path d="M337.52 344.56H339.04V332.08H337.52V344.56Z" fill="black"/>
<path d="M341.2 344.56H342.72V332.08H341.2V344.56Z" fill="black"/>
<path fill-rule="evenodd" clip-rule="evenodd" d="M187.12 274.56H191.76V272.72H185.52V284.4H187.12V279.6H191.2V277.76H187.12" fill="black"/>
<path fill-rule="evenodd" clip-rule="evenodd" d="M199.12 284.4V278.64C199.12 277.52 198.88 276.72 198.32 276.16C197.84 275.6 197.12 275.36 196.32 275.36C195.2 275.36 194.24 275.76 193.36 276.64L194 277.84C194.72 277.2 195.44 276.96 196.08 276.96C197.12 276.96 197.68 277.52 197.68 278.72V279.04H195.76C194.8 279.04 194.16 279.28 193.6 279.68C193.12 280.16 192.88 280.8 192.88 281.68C192.88 282.56 193.12 283.28 193.6 283.76C194.08 284.32 194.64 284.56 195.44 284.56C196.4 284.56 197.2 284.16 197.76 283.28V284.4H199.12ZM197.68 281.12C197.68 281.68 197.44 282.16 197.12 282.48C196.72 282.8 196.32 282.96 195.84 282.96C195.36 282.96 195.04 282.88 194.72 282.64C194.48 282.4 194.32 282.08 194.32 281.6C194.32 281.2 194.48 280.88 194.72 280.64C195.04 280.48 195.44 280.32 196 280.32H197.68V281.12Z" fill="black"/>
<path fill-rule="evenodd" clip-rule="evenodd" d="M204.4 284.56C205.52 284.56 206.56 284 207.36 282.96L206.48 281.68C205.92 282.48 205.28 282.88 204.64 282.88C204 282.88 203.44 282.56 202.96 282C202.48 281.44 202.24 280.72 202.24 279.92C202.24 279.12 202.48 278.4 202.96 277.92C203.44 277.36 204 277.12 204.56 277.12C205.2 277.12 205.84 277.44 206.48 278.08L207.36 276.72C206.56 275.84 205.68 275.36 204.64 275.36C203.52 275.36 202.64 275.76 201.92 276.64C201.12 277.52 200.8 278.64 200.8 280C200.8 281.36 201.12 282.48 201.84 283.28C202.56 284.16 203.44 284.56 204.4 284.56Z" fill="black"/>
<path d="M208.96 284.4H210.48V275.52H208.96V284.4Z" fill="black"/>
<path fill-rule="evenodd" clip-rule="evenodd" d="M209.04 273.68C209.2 273.92 209.44 274.08 209.68 274.08C210 274.08 210.24 273.92 210.4 273.68C210.56 273.44 210.64 273.2 210.64 272.88C210.64 272.56 210.56 272.24 210.4 272C210.24 271.76 210 271.68 209.68 271.68C209.44 271.68 209.2 271.76 209.04 272C208.88 272.24 208.8 272.56 208.8 272.88C208.8 273.2 208.88 273.44 209.04 273.68Z" fill="black"/>
<path d="M212.64 284.4H214.16V272H212.64V284.4Z" fill="black"/>
<path d="M216.32 284.4H217.76V275.52H216.32V284.4Z" fill="black"/>
<path fill-rule="evenodd" clip-rule="evenodd" d="M216.4 273.68C216.56 273.92 216.8 274.08 217.04 274.08C217.28 274.08 217.52 273.92 217.76 273.68C217.92 273.44 218 273.2 218 272.88C218 272.56 217.92 272.24 217.76 272C217.52 271.76 217.28 271.68 217.04 271.68C216.8 271.68 216.56 271.76 216.4 272C216.16 272.24 216.08 272.56 216.08 272.88C216.08 273.2 216.16 273.44 216.4 273.68Z" fill="black"/>
<path fill-rule="evenodd" clip-rule="evenodd" d="M221.84 277.04H223.68V275.52H221.84V272.72H220.32V275.52H219.44V277.04H220.32V281.52C220.32 282.4 220.56 283.2 220.96 283.76C221.44 284.32 222 284.56 222.64 284.56C223.28 284.56 223.84 284.24 224.4 283.68L223.76 282.32C223.44 282.72 223.12 282.96 222.8 282.96C222.48 282.96 222.24 282.8 222.08 282.56C221.92 282.32 221.84 282 221.84 281.52V277.04Z" fill="black"/>
<path fill-rule="evenodd" clip-rule="evenodd" d="M226.48 288C226.88 288 227.36 287.84 227.76 287.52C228.08 287.12 228.4 286.72 228.64 286.08L232.08 275.52H230.48L228.32 282.08L226.16 275.52H224.56C226.48 281.44 227.44 284.56 227.44 284.72C227.44 285.04 227.36 285.36 227.12 285.68C226.96 286 226.64 286.16 226.32 286.16C226 286.16 225.68 285.92 225.36 285.6L224.72 287.12C225.2 287.68 225.76 288 226.48 288Z" fill="black"/>
<path fill-rule="evenodd" clip-rule="evenodd" d="M242.88 283.2C243.6 282.32 243.92 281.28 243.92 280C243.92 278.64 243.6 277.6 242.88 276.72C242.16 275.84 241.28 275.36 240.16 275.36C239.12 275.36 238.24 275.84 237.52 276.72C236.8 277.6 236.4 278.64 236.4 280C236.4 281.28 236.8 282.32 237.52 283.2C238.24 284.16 239.12 284.56 240.16 284.56C241.28 284.56 242.16 284.16 242.88 283.2ZM238.56 282.08C238.16 281.52 237.92 280.8 237.92 280C237.92 279.12 238.16 278.4 238.56 277.84C238.96 277.28 239.52 277.04 240.16 277.04C240.8 277.04 241.36 277.28 241.84 277.84C242.24 278.4 242.4 279.12 242.4 280C242.4 280.8 242.24 281.52 241.84 282.08C241.36 282.64 240.8 282.88 240.16 282.88C239.52 282.88 238.96 282.64 238.56 282.08Z" fill="black"/>
<path fill-rule="evenodd" clip-rule="evenodd" d="M250.64 280.32C250.64 281.2 250.4 281.76 250.08 282.24C249.68 282.64 249.2 282.88 248.72 282.88C247.6 282.88 247.04 282.08 247.04 280.4V275.52H245.52V280.96C245.52 282.16 245.84 283.04 246.32 283.68C246.8 284.24 247.44 284.56 248.24 284.56C248.72 284.56 249.2 284.4 249.6 284.08C250.08 283.76 250.4 283.36 250.64 282.8V284.4H252.08V275.52H250.64V280.32Z" fill="black"/>
<path fill-rule="evenodd" clip-rule="evenodd" d="M256.16 277.04H258V275.52H256.16V272.72H254.64V275.52H253.76V277.04H254.64V281.52C254.64 282.4 254.88 283.2 255.28 283.76C255.76 284.32 256.32 284.56 256.96 284.56C257.6 284.56 258.16 284.24 258.72 283.68L258.08 282.32C257.76 282.72 257.44 282.96 257.12 282.96C256.8 282.96 256.56 282.8 256.4 282.56C256.24 282.32 256.16 282 256.16 281.52V277.04Z" fill="black"/>
<path fill-rule="evenodd" clip-rule="evenodd" d="M269.52 283.2C270.24 282.32 270.56 281.28 270.56 280C270.56 278.64 270.24 277.6 269.52 276.72C268.8 275.84 267.92 275.36 266.8 275.36C265.76 275.36 264.88 275.84 264.16 276.72C263.44 277.6 263.12 278.64 263.12 280C263.12 281.28 263.44 282.32 264.16 283.2C264.88 284.16 265.76 284.56 266.8 284.56C267.92 284.56 268.8 284.16 269.52 283.2ZM265.2 282.08C264.8 281.52 264.56 280.8 264.56 280C264.56 279.12 264.8 278.4 265.2 277.84C265.68 277.28 266.16 277.04 266.8 277.04C267.52 277.04 268 277.28 268.48 277.84C268.88 278.4 269.12 279.12 269.12 280C269.12 280.8 268.88 281.52 268.48 282.08C268 282.64 267.52 282.88 266.8 282.88C266.16 282.88 265.68 282.64 265.2 282.08Z" fill="black"/>
<path fill-rule="evenodd" clip-rule="evenodd" d="M274.16 274.72C274.16 274.32 274.24 274 274.4 273.76C274.56 273.52 274.8 273.36 275.12 273.36C275.44 273.36 275.76 273.52 276.08 273.92L276.72 272.64C276.16 272 275.6 271.76 274.96 271.76C274.32 271.76 273.76 272 273.28 272.56C272.88 273.12 272.64 273.84 272.64 274.8V275.52H271.76V277.04H272.64V284.4H274.16V277.04H276V275.52H274.16V274.72Z" fill="black"/>
<path fill-rule="evenodd" clip-rule="evenodd" d="M286.08 280.32C286.08 281.2 285.92 281.76 285.52 282.24C285.12 282.64 284.72 282.88 284.16 282.88C283.12 282.88 282.56 282.08 282.56 280.4V275.52H281.04V280.96C281.04 282.16 281.28 283.04 281.76 283.68C282.24 284.24 282.96 284.56 283.76 284.56C284.24 284.56 284.64 284.4 285.12 284.08C285.52 283.76 285.84 283.36 286.08 282.8V284.4H287.6V275.52H286.08V280.32Z" fill="black"/>
<path fill-rule="evenodd" clip-rule="evenodd" d="M294.88 281.76C294.88 280.88 294.64 280.32 294.16 279.92C293.92 279.68 293.68 279.52 293.44 279.44C293.2 279.28 293.04 279.2 292.8 279.12C292.56 279.04 292.32 278.96 292 278.8C291.76 278.72 291.52 278.64 291.36 278.56C291.12 278.4 291.04 278.24 291.04 277.92C291.04 277.6 291.12 277.36 291.36 277.2C291.52 277.04 291.84 276.96 292.24 276.96C292.88 276.96 293.52 277.2 294.08 277.68L294.64 276.24C293.92 275.68 293.12 275.36 292.32 275.36C291.52 275.36 290.8 275.6 290.32 276.08C289.84 276.64 289.52 277.28 289.52 278.08C289.52 279.28 290.32 280.08 291.76 280.64C291.84 280.64 291.84 280.64 291.92 280.72C292.88 281.04 293.36 281.44 293.36 281.92C293.36 282.24 293.28 282.48 293.04 282.64C292.88 282.88 292.64 282.96 292.24 282.96C291.52 282.96 290.72 282.56 289.84 281.76L289.12 283.2C289.52 283.68 290.08 284 290.64 284.24C291.2 284.48 291.68 284.56 292.24 284.56C292.96 284.56 293.6 284.32 294.08 283.84C294.64 283.28 294.88 282.64 294.88 281.76Z" fill="black"/>
<path fill-rule="evenodd" clip-rule="evenodd" d="M303.2 280.8V279.52C303.2 278.24 302.8 277.2 302.16 276.48C301.44 275.76 300.64 275.36 299.68 275.36C298.72 275.36 297.84 275.76 297.2 276.64C296.48 277.44 296.08 278.56 296.08 279.92C296.08 281.36 296.48 282.48 297.12 283.28C297.84 284.16 298.72 284.56 299.68 284.56C300.96 284.56 301.92 284.08 302.72 283.04L301.84 281.92C301.36 282.64 300.72 282.96 299.84 282.96C299.2 282.96 298.72 282.72 298.32 282.4C297.84 282 297.6 281.44 297.6 280.8H303.2ZM297.6 279.28C297.6 278.56 297.84 278 298.24 277.6C298.72 277.2 299.2 276.96 299.76 276.96C300.24 276.96 300.72 277.2 301.12 277.6C301.52 278 301.68 278.56 301.68 279.28H297.6Z" fill="black"/>
<path fill-rule="evenodd" clip-rule="evenodd" d="M187.12 314.64H191.76V312.8H185.52V324.48H187.12V319.68H191.2V317.84H187.12" fill="black"/>
<path fill-rule="evenodd" clip-rule="evenodd" d="M199.12 324.48V318.72C199.12 317.6 198.88 316.8 198.32 316.24C197.84 315.68 197.12 315.44 196.32 315.44C195.2 315.44 194.24 315.84 193.36 316.72L194 317.92C194.72 317.28 195.44 316.96 196.08 316.96C197.12 316.96 197.68 317.6 197.68 318.8V319.12H195.76C194.8 319.12 194.16 319.36 193.6 319.76C193.12 320.24 192.88 320.88 192.88 321.76C192.88 322.64 193.12 323.36 193.6 323.84C194.08 324.4 194.64 324.64 195.44 324.64C196.4 324.64 197.2 324.24 197.76 323.28V324.48H199.12ZM197.68 321.2C197.68 321.76 197.44 322.24 197.12 322.56C196.72 322.88 196.32 323.04 195.84 323.04C195.36 323.04 195.04 322.96 194.72 322.72C194.48 322.48 194.32 322.16 194.32 321.68C194.32 321.28 194.48 320.96 194.72 320.72C195.04 320.56 195.44 320.4 196 320.4H197.68V321.2Z" fill="black"/>
<path fill-rule="evenodd" clip-rule="evenodd" d="M204.4 324.64C205.52 324.64 206.56 324.08 207.36 322.96L206.48 321.76C205.92 322.56 205.28 322.96 204.64 322.96C204 322.96 203.44 322.64 202.96 322.08C202.48 321.52 202.24 320.8 202.24 320C202.24 319.12 202.48 318.48 202.96 318C203.44 317.44 204 317.2 204.56 317.2C205.2 317.2 205.84 317.52 206.48 318.16L207.36 316.8C206.56 315.92 205.68 315.44 204.64 315.44C203.52 315.44 202.64 315.84 201.92 316.72C201.12 317.6 200.8 318.72 200.8 320.08C200.8 321.44 201.12 322.56 201.84 323.36C202.56 324.24 203.44 324.64 204.4 324.64Z" fill="black"/>
<path d="M208.96 324.48H210.48V315.6H208.96V324.48Z" fill="black"/>
<path fill-rule="evenodd" clip-rule="evenodd" d="M209.04 313.76C209.2 314 209.44 314.16 209.68 314.16C210 314.16 210.24 314 210.4 313.76C210.56 313.52 210.64 313.28 210.64 312.96C210.64 312.64 210.56 312.32 210.4 312.08C210.24 311.84 210 311.76 209.68 311.76C209.44 311.76 209.2 311.84 209.04 312.08C208.88 312.32 208.8 312.64 208.8 312.96C208.8 313.28 208.88 313.52 209.04 313.76Z" fill="black"/>
<path d="M212.64 324.48H214.16V312H212.64V324.48Z" fill="black"/>
<path d="M216.32 324.48H217.76V315.6H216.32V324.48Z" fill="black"/>
<path fill-rule="evenodd" clip-rule="evenodd" d="M216.4 313.76C216.56 314 216.8 314.16 217.04 314.16C217.28 314.16 217.52 314 217.76 313.76C217.92 313.52 218 313.28 218 312.96C218 312.64 217.92 312.32 217.76 312.08C217.52 311.84 217.28 311.76 217.04 311.76C216.8 311.76 216.56 311.84 216.4 312.08C216.16 312.32 216.08 312.64 216.08 312.96C216.08 313.28 216.16 313.52 216.4 313.76Z" fill="black"/>
<path fill-rule="evenodd" clip-rule="evenodd" d="M221.84 317.12H223.68V315.6H221.84V312.8H220.32V315.6H219.44V317.12H220.32V321.6C220.32 322.48 220.56 323.28 220.96 323.84C221.44 324.4 222 324.64 222.64 324.64C223.28 324.64 223.84 324.32 224.4 323.76L223.76 322.4C223.44 322.8 223.12 323.04 222.8 323.04C222.48 323.04 222.24 322.88 222.08 322.64C221.92 322.4 221.84 322.08 221.84 321.6V317.12Z" fill="black"/>
<path fill-rule="evenodd" clip-rule="evenodd" d="M226.48 328.08C226.88 328.08 227.36 327.92 227.76 327.6C228.08 327.2 228.4 326.8 228.64 326.16L232.08 315.6H230.48L228.32 322.16L226.16 315.6H224.56C226.48 321.52 227.44 324.64 227.44 324.8C227.44 325.12 227.36 325.44 227.12 325.76C226.96 326.08 226.64 326.24 226.32 326.24C226 326.24 225.68 326 225.36 325.68L224.72 327.2C225.2 327.76 225.76 328.08 226.48 328.08Z" fill="black"/>
<path fill-rule="evenodd" clip-rule="evenodd" d="M242.88 323.28C243.6 322.4 243.92 321.36 243.92 320C243.92 318.72 243.6 317.68 242.88 316.8C242.16 315.84 241.28 315.44 240.16 315.44C239.12 315.44 238.24 315.84 237.52 316.8C236.8 317.68 236.4 318.72 236.4 320C236.4 321.36 236.8 322.4 237.52 323.28C238.24 324.16 239.12 324.64 240.16 324.64C241.28 324.64 242.16 324.16 242.88 323.28ZM238.56 322.16C238.16 321.6 237.92 320.88 237.92 320C237.92 319.2 238.16 318.48 238.56 317.92C238.96 317.36 239.52 317.12 240.16 317.12C240.8 317.12 241.36 317.36 241.84 317.92C242.24 318.48 242.4 319.2 242.4 320C242.4 320.88 242.24 321.6 241.84 322.16C241.36 322.72 240.8 322.96 240.16 322.96C239.52 322.96 238.96 322.72 238.56 322.16Z" fill="black"/>
<path fill-rule="evenodd" clip-rule="evenodd" d="M247.52 324.48H249.2L252.08 315.6H250.56L248.4 322.32L246.24 315.6H244.64" fill="black"/>
<path fill-rule="evenodd" clip-rule="evenodd" d="M259.92 320.88V319.6C259.92 318.24 259.6 317.28 258.88 316.56C258.24 315.84 257.44 315.44 256.4 315.44C255.44 315.44 254.64 315.84 253.92 316.64C253.2 317.52 252.88 318.64 252.88 320C252.88 321.44 253.2 322.56 253.92 323.36C254.56 324.24 255.44 324.64 256.48 324.64C257.68 324.64 258.64 324.16 259.44 323.12L258.56 322C258.16 322.64 257.44 323.04 256.56 323.04C256 323.04 255.52 322.8 255.04 322.4C254.64 322 254.4 321.52 254.32 320.88H259.92ZM254.32 319.36C254.32 318.64 254.56 318.08 254.96 317.68C255.44 317.28 255.92 317.04 256.48 317.04C257.04 317.04 257.52 317.28 257.84 317.68C258.24 318.08 258.4 318.64 258.4 319.36H254.32Z" fill="black"/>
<path fill-rule="evenodd" clip-rule="evenodd" d="M265.28 317.36H265.36V315.44C264.88 315.44 264.48 315.6 264.08 316C263.68 316.32 263.28 316.8 263.04 317.36V315.6H261.6V324.48H263.04V320.64C263.04 319.68 263.28 318.88 263.6 318.24C264 317.6 264.56 317.36 265.28 317.36Z" fill="black"/>
<path fill-rule="evenodd" clip-rule="evenodd" d="M271.84 320.4C271.84 321.2 271.68 321.84 271.28 322.32C270.88 322.72 270.48 322.96 269.92 322.96C268.88 322.96 268.32 322.16 268.32 320.48V315.6H266.8V321.04C266.8 322.24 267.04 323.12 267.52 323.68C268.08 324.32 268.72 324.64 269.52 324.64C270 324.64 270.48 324.48 270.88 324.16C271.28 323.84 271.6 323.44 271.84 322.88V324.48H273.36V315.6H271.84V320.4Z" fill="black"/>
<path fill-rule="evenodd" clip-rule="evenodd" d="M277.36 317.12H279.28V315.6H277.36V312.8H275.92V315.6H274.96V317.12H275.92V321.6C275.92 322.48 276.08 323.28 276.56 323.84C277.04 324.4 277.52 324.64 278.16 324.64C278.8 324.64 279.44 324.32 279.92 323.76L279.36 322.4C279.04 322.8 278.72 323.04 278.4 323.04C278.08 323.04 277.84 322.88 277.68 322.64C277.44 322.4 277.36 322.08 277.36 321.6V317.12Z" fill="black"/>
<path d="M281.12 324.48H282.64V315.6H281.12V324.48Z" fill="black"/>
<path fill-rule="evenodd" clip-rule="evenodd" d="M281.2 313.76C281.44 314 281.6 314.16 281.92 314.16C282.16 314.16 282.4 314 282.56 313.76C282.72 313.52 282.88 313.28 282.88 312.96C282.88 312.64 282.72 312.32 282.56 312.08C282.4 311.84 282.16 311.76 281.92 311.76C281.6 311.76 281.44 311.84 281.2 312.08C281.04 312.32 280.96 312.64 280.96 312.96C280.96 313.28 281.04 313.52 281.2 313.76Z" fill="black"/>
<path d="M284.8 324.48H286.32V312H284.8V324.48Z" fill="black"/>
<path d="M288.48 324.48H290V315.6H288.48V324.48Z" fill="black"/>
<path fill-rule="evenodd" clip-rule="evenodd" d="M288.56 313.76C288.72 314 288.96 314.16 289.2 314.16C289.52 314.16 289.68 314 289.92 313.76C290.08 313.52 290.16 313.28 290.16 312.96C290.16 312.64 290.08 312.32 289.92 312.08C289.68 311.84 289.52 311.76 289.2 311.76C288.96 311.76 288.72 311.84 288.56 312.08C288.4 312.32 288.32 312.64 288.32 312.96C288.32 313.28 288.4 313.52 288.56 313.76Z" fill="black"/>
<path fill-rule="evenodd" clip-rule="evenodd" d="M297.2 321.84C297.2 320.96 296.96 320.32 296.48 319.92C296.24 319.76 296 319.6 295.84 319.52C295.6 319.36 295.36 319.28 295.2 319.2C294.96 319.12 294.72 319.04 294.4 318.88C294.08 318.8 293.84 318.72 293.68 318.64C293.52 318.48 293.36 318.24 293.36 318C293.36 317.68 293.52 317.44 293.68 317.28C293.92 317.12 294.24 317.04 294.56 317.04C295.28 317.04 295.92 317.28 296.48 317.76L297.04 316.32C296.32 315.76 295.52 315.44 294.72 315.44C293.84 315.44 293.2 315.68 292.72 316.16C292.16 316.72 291.92 317.36 291.92 318.16C291.92 319.36 292.64 320.16 294.16 320.72C294.16 320.72 294.24 320.72 294.32 320.8C295.28 321.12 295.76 321.52 295.76 322C295.76 322.24 295.6 322.56 295.44 322.72C295.2 322.88 294.96 323.04 294.64 323.04C293.84 323.04 293.04 322.64 292.24 321.84L291.52 323.28C291.92 323.76 292.4 324.08 292.96 324.32C293.52 324.56 294.08 324.64 294.56 324.64C295.36 324.64 296 324.4 296.48 323.84C296.96 323.36 297.2 322.72 297.2 321.84Z" fill="black"/>
<path fill-rule="evenodd" clip-rule="evenodd" d="M305.52 320.88V319.6C305.52 318.24 305.2 317.28 304.56 316.56C303.84 315.84 303.04 315.44 302.08 315.44C301.12 315.44 300.24 315.84 299.52 316.64C298.8 317.52 298.48 318.64 298.48 320C298.48 321.44 298.8 322.56 299.52 323.36C300.24 324.24 301.04 324.64 302.08 324.64C303.28 324.64 304.32 324.16 305.04 323.12L304.24 322C303.76 322.64 303.04 323.04 302.16 323.04C301.6 323.04 301.12 322.8 300.64 322.4C300.24 322 300 321.52 299.92 320.88H305.52ZM299.92 319.36C299.92 318.64 300.16 318.08 300.64 317.68C301.04 317.28 301.52 317.04 302.08 317.04C302.64 317.04 303.12 317.28 303.52 317.68C303.84 318.08 304.08 318.64 304.08 319.36H299.92Z" fill="black"/>
<path fill-rule="evenodd" clip-rule="evenodd" d="M310.08 324.64C311.12 324.64 312 324.16 312.48 323.2V324.48H314V312H312.48V316.96C311.92 315.92 311.2 315.44 310.24 315.44C309.28 315.44 308.48 315.84 307.76 316.64C307.04 317.52 306.72 318.64 306.72 320C306.72 321.36 307.04 322.48 307.76 323.36C308.4 324.24 309.2 324.64 310.08 324.64ZM308.24 320.08C308.24 319.2 308.48 318.48 308.88 317.92C309.28 317.36 309.84 317.12 310.4 317.12C311.04 317.12 311.52 317.36 311.92 317.92C312.32 318.48 312.56 319.2 312.56 320.08C312.56 320.96 312.32 321.6 311.92 322.16C311.52 322.72 311.04 322.96 310.4 322.96C309.84 322.96 309.36 322.72 308.88 322.16C308.48 321.6 308.24 320.96 308.24 320.08Z" fill="black"/>
<path fill-rule="evenodd" clip-rule="evenodd" d="M187.12 294.56H191.76V292.72H185.52V304.48H187.12V299.6H191.2V297.84H187.12" fill="black"/>
<path fill-rule="evenodd" clip-rule="evenodd" d="M199.12 304.48V298.72C199.12 297.6 198.88 296.72 198.32 296.16C197.84 295.68 197.12 295.36 196.32 295.36C195.2 295.36 194.24 295.84 193.36 296.72L194 297.84C194.72 297.28 195.44 296.96 196.08 296.96C197.12 296.96 197.68 297.52 197.68 298.72V299.04H195.76C194.8 299.04 194.16 299.28 193.6 299.76C193.12 300.16 192.88 300.8 192.88 301.68C192.88 302.56 193.12 303.28 193.6 303.84C194.08 304.32 194.64 304.64 195.44 304.64C196.4 304.64 197.2 304.16 197.76 303.28V304.48H199.12ZM197.68 301.12C197.68 301.68 197.44 302.16 197.12 302.48C196.72 302.88 196.32 303.04 195.84 303.04C195.36 303.04 195.04 302.88 194.72 302.64C194.48 302.4 194.32 302.08 194.32 301.68C194.32 301.28 194.48 300.96 194.72 300.72C195.04 300.48 195.44 300.4 196 300.4H197.68V301.12Z" fill="black"/>
<path fill-rule="evenodd" clip-rule="evenodd" d="M204.4 304.64C205.52 304.64 206.56 304.08 207.36 302.96L206.48 301.76C205.92 302.48 205.28 302.88 204.64 302.88C204 302.88 203.44 302.64 202.96 302C202.48 301.44 202.24 300.8 202.24 299.92C202.24 299.12 202.48 298.48 202.96 297.92C203.44 297.44 204 297.12 204.56 297.12C205.2 297.12 205.84 297.52 206.48 298.16L207.36 296.8C206.56 295.84 205.68 295.36 204.64 295.36C203.52 295.36 202.64 295.84 201.92 296.72C201.12 297.52 200.8 298.64 200.8 300C200.8 301.36 201.12 302.48 201.84 303.36C202.56 304.16 203.44 304.64 204.4 304.64Z" fill="black"/>
<path d="M208.96 304.48H210.48V295.52H208.96V304.48Z" fill="black"/>
<path fill-rule="evenodd" clip-rule="evenodd" d="M209.04 293.76C209.2 294 209.44 294.08 209.68 294.08C210 294.08 210.24 294 210.4 293.76C210.56 293.52 210.64 293.2 210.64 292.88C210.64 292.56 210.56 292.32 210.4 292.08C210.24 291.84 210 291.68 209.68 291.68C209.44 291.68 209.2 291.84 209.04 292.08C208.88 292.32 208.8 292.56 208.8 292.88C208.8 293.2 208.88 293.52 209.04 293.76Z" fill="black"/>
<path d="M212.64 304.48H214.16V292H212.64V304.48Z" fill="black"/>
<path d="M216.32 304.48H217.76V295.52H216.32V304.48Z" fill="black"/>
<path fill-rule="evenodd" clip-rule="evenodd" d="M216.4 293.76C216.56 294 216.8 294.08 217.04 294.08C217.28 294.08 217.52 294 217.76 293.76C217.92 293.52 218 293.2 218 292.88C218 292.56 217.92 292.32 217.76 292.08C217.52 291.84 217.28 291.68 217.04 291.68C216.8 291.68 216.56 291.84 216.4 292.08C216.16 292.32 216.08 292.56 216.08 292.88C216.08 293.2 216.16 293.52 216.4 293.76Z" fill="black"/>
<path fill-rule="evenodd" clip-rule="evenodd" d="M221.84 297.04H223.68V295.52H221.84V292.72H220.32V295.52H219.44V297.04H220.32V301.52C220.32 302.48 220.56 303.2 220.96 303.76C221.44 304.32 222 304.64 222.64 304.64C223.28 304.64 223.84 304.32 224.4 303.68L223.76 302.4C223.44 302.8 223.12 302.96 222.8 302.96C222.48 302.96 222.24 302.88 222.08 302.56C221.92 302.32 221.84 302 221.84 301.6V297.04Z" fill="black"/>
<path fill-rule="evenodd" clip-rule="evenodd" d="M226.48 308C226.88 308 227.36 307.84 227.76 307.52C228.08 307.2 228.4 306.72 228.64 306.16L232.08 295.52H230.48L228.32 302.08L226.16 295.52H224.56C226.48 301.52 227.44 304.56 227.44 304.72C227.44 305.12 227.36 305.44 227.12 305.68C226.96 306 226.64 306.16 226.32 306.16C226 306.16 225.68 306 225.36 305.6L224.72 307.12C225.2 307.76 225.76 308 226.48 308Z" fill="black"/>
<path fill-rule="evenodd" clip-rule="evenodd" d="M241.92 300.4C241.92 301.2 241.68 301.84 241.28 302.24C240.96 302.72 240.48 302.88 239.92 302.88C238.88 302.88 238.32 302.08 238.32 300.4V295.52H236.8V301.04C236.8 302.16 237.04 303.04 237.6 303.68C238.08 304.32 238.72 304.64 239.52 304.64C240 304.64 240.48 304.48 240.88 304.16C241.28 303.84 241.68 303.36 241.92 302.88V304.48H243.36V295.52H241.92V300.4Z" fill="black"/>
<path fill-rule="evenodd" clip-rule="evenodd" d="M247.04 299.6C247.04 299.2 247.12 298.88 247.2 298.56C247.28 298.24 247.44 297.92 247.6 297.76C248 297.28 248.48 297.12 248.96 297.12C250.08 297.12 250.64 297.92 250.64 299.6V304.48H252.08V298.96C252.08 297.84 251.84 296.96 251.36 296.32C250.88 295.68 250.24 295.36 249.44 295.36C248.96 295.36 248.48 295.52 248.08 295.84C247.6 296.16 247.28 296.64 247.04 297.2V295.52H245.52V304.48H247.04V299.6Z" fill="black"/>
<path fill-rule="evenodd" clip-rule="evenodd" d="M257.12 304.64C258.16 304.64 258.96 304.08 259.52 303.12V304.48H261.04V292H259.52V296.88C258.96 295.92 258.16 295.36 257.2 295.36C256.32 295.36 255.44 295.84 254.8 296.64C254.08 297.44 253.76 298.56 253.76 300C253.76 301.36 254.08 302.48 254.72 303.36C255.44 304.16 256.24 304.64 257.12 304.64ZM255.28 300.08C255.28 299.2 255.44 298.48 255.92 297.92C256.32 297.36 256.8 297.04 257.44 297.04C258 297.04 258.56 297.36 258.96 297.92C259.36 298.48 259.6 299.2 259.6 300C259.6 300.88 259.36 301.6 258.96 302.16C258.56 302.64 258 302.96 257.44 302.96C256.88 302.96 256.32 302.64 255.92 302.16C255.44 301.6 255.28 300.88 255.28 300.08Z" fill="black"/>
<path fill-rule="evenodd" clip-rule="evenodd" d="M269.84 300.8V299.52C269.84 298.24 269.52 297.2 268.8 296.48C268.16 295.76 267.28 295.36 266.32 295.36C265.36 295.36 264.56 295.84 263.84 296.64C263.12 297.44 262.72 298.56 262.72 300C262.72 301.44 263.12 302.56 263.84 303.36C264.48 304.16 265.36 304.64 266.32 304.64C267.6 304.64 268.56 304.08 269.36 303.12L268.48 301.92C268 302.64 267.36 302.96 266.48 302.96C265.92 302.96 265.36 302.8 264.96 302.4C264.56 302 264.32 301.44 264.24 300.8H269.84ZM264.24 299.36C264.24 298.64 264.48 298.08 264.88 297.68C265.36 297.2 265.84 297.04 266.4 297.04C266.96 297.04 267.36 297.2 267.76 297.6C268.16 298 268.32 298.56 268.32 299.36H264.24Z" fill="black"/>
<path fill-rule="evenodd" clip-rule="evenodd" d="M275.2 297.28H275.28V295.36C274.8 295.44 274.4 295.6 274 295.92C273.52 296.32 273.2 296.8 272.96 297.36V295.52H271.52V304.48H272.96V300.64C272.96 299.6 273.2 298.8 273.52 298.24C273.92 297.6 274.48 297.28 275.2 297.28Z" fill="black"/>
<path fill-rule="evenodd" clip-rule="evenodd" d="M281.76 300.4C281.76 301.2 281.6 301.84 281.2 302.24C280.8 302.72 280.4 302.88 279.84 302.88C278.8 302.88 278.24 302.08 278.24 300.4V295.52H276.72V301.04C276.72 302.16 276.96 303.04 277.44 303.68C277.92 304.32 278.64 304.64 279.44 304.64C279.92 304.64 280.32 304.48 280.8 304.16C281.2 303.84 281.52 303.36 281.76 302.88V304.48H283.28V295.52H281.76V300.4Z" fill="black"/>
<path fill-rule="evenodd" clip-rule="evenodd" d="M287.28 297.04H289.2V295.52H287.28V292.72H285.76V295.52H284.88V297.04H285.76V301.52C285.76 302.48 286 303.2 286.48 303.76C286.96 304.32 287.44 304.64 288.08 304.64C288.72 304.64 289.36 304.32 289.84 303.68L289.2 302.4C288.96 302.8 288.64 302.96 288.32 302.96C288 302.96 287.76 302.88 287.6 302.56C287.36 302.32 287.28 302 287.28 301.6V297.04Z" fill="black"/>
<path d="M291.04 304.48H292.56V295.52H291.04V304.48Z" fill="black"/>
<path fill-rule="evenodd" clip-rule="evenodd" d="M291.12 293.76C291.36 294 291.52 294.08 291.84 294.08C292.08 294.08 292.32 294 292.48 293.76C292.64 293.52 292.72 293.2 292.72 292.88C292.72 292.56 292.64 292.32 292.48 292.08C292.32 291.84 292.08 291.68 291.84 291.68C291.52 291.68 291.36 291.84 291.12 292.08C290.96 292.32 290.88 292.56 290.88 292.88C290.88 293.2 290.96 293.52 291.12 293.76Z" fill="black"/>
<path d="M294.72 304.48H296.24V292H294.72V304.48Z" fill="black"/>
<path d="M298.4 304.48H299.84V295.52H298.4V304.48Z" fill="black"/>
<path fill-rule="evenodd" clip-rule="evenodd" d="M298.48 293.76C298.64 294 298.88 294.08 299.12 294.08C299.44 294.08 299.6 294 299.84 293.76C300 293.52 300.08 293.2 300.08 292.88C300.08 292.56 300 292.32 299.84 292.08C299.6 291.84 299.44 291.68 299.12 291.68C298.88 291.68 298.64 291.84 298.48 292.08C298.32 292.32 298.16 292.56 298.16 292.88C298.16 293.2 298.32 293.52 298.48 293.76Z" fill="black"/>
<path fill-rule="evenodd" clip-rule="evenodd" d="M307.12 301.84C307.12 300.96 306.88 300.32 306.4 299.92C306.16 299.68 305.92 299.52 305.76 299.44C305.52 299.36 305.28 299.2 305.04 299.12C304.88 299.04 304.56 298.96 304.32 298.88C304 298.8 303.76 298.72 303.6 298.56C303.36 298.48 303.28 298.24 303.28 297.92C303.28 297.6 303.36 297.36 303.6 297.2C303.84 297.04 304.16 296.96 304.48 296.96C305.2 296.96 305.76 297.2 306.4 297.68L306.96 296.32C306.24 295.68 305.44 295.36 304.64 295.36C303.76 295.36 303.12 295.68 302.64 296.16C302.08 296.64 301.84 297.28 301.84 298.16C301.84 299.28 302.56 300.16 304.08 300.64C304.08 300.64 304.16 300.72 304.24 300.72C305.2 301.12 305.6 301.52 305.6 301.92C305.6 302.24 305.52 302.48 305.36 302.72C305.12 302.88 304.88 302.96 304.56 302.96C303.76 302.96 302.96 302.56 302.16 301.84L301.44 303.28C301.84 303.68 302.32 304 302.88 304.24C303.44 304.48 304 304.64 304.48 304.64C305.28 304.64 305.92 304.32 306.4 303.84C306.88 303.36 307.12 302.64 307.12 301.84Z" fill="black"/>
<path fill-rule="evenodd" clip-rule="evenodd" d="M315.44 300.8V299.52C315.44 298.24 315.12 297.2 314.4 296.48C313.76 295.76 312.96 295.36 312 295.36C310.96 295.36 310.16 295.84 309.44 296.64C308.72 297.44 308.4 298.56 308.4 300C308.4 301.44 308.72 302.56 309.44 303.36C310.16 304.16 310.96 304.64 312 304.64C313.2 304.64 314.24 304.08 314.96 303.12L314.08 301.92C313.68 302.64 312.96 302.96 312.08 302.96C311.52 302.96 311.04 302.8 310.56 302.4C310.16 302 309.92 301.44 309.84 300.8H315.44ZM309.84 299.36C309.84 298.64 310.08 298.08 310.56 297.68C310.96 297.2 311.44 297.04 312 297.04C312.56 297.04 313.04 297.2 313.36 297.6C313.76 298 313.92 298.56 313.92 299.36H309.84Z" fill="black"/>
<path fill-rule="evenodd" clip-rule="evenodd" d="M320 304.64C321.04 304.64 321.84 304.08 322.4 303.12V304.48H323.92V292H322.4V296.88C321.84 295.92 321.12 295.36 320.16 295.36C319.2 295.36 318.4 295.84 317.68 296.64C316.96 297.44 316.64 298.56 316.64 300C316.64 301.36 316.96 302.48 317.68 303.36C318.32 304.16 319.12 304.64 320 304.64ZM318.16 300.08C318.16 299.2 318.32 298.48 318.8 297.92C319.2 297.36 319.76 297.04 320.32 297.04C320.96 297.04 321.44 297.36 321.84 297.92C322.24 298.48 322.48 299.2 322.48 300C322.48 300.88 322.24 301.6 321.84 302.16C321.44 302.64 320.96 302.96 320.32 302.96C319.76 302.96 319.2 302.64 318.8 302.16C318.4 301.6 318.16 300.88 318.16 300.08Z" fill="black"/>
<path fill-rule="evenodd" clip-rule="evenodd" d="M114.56 385.52C114.72 385.68 114.88 385.84 115.04 385.84C115.28 385.84 115.44 385.68 115.6 385.52C115.76 385.36 115.84 385.12 115.84 384.88C115.84 384.56 115.76 384.4 115.6 384.16C115.44 384 115.28 383.92 115.04 383.92C114.88 383.92 114.72 384 114.56 384.16C114.4 384.4 114.32 384.56 114.32 384.88C114.32 385.12 114.4 385.36 114.56 385.52Z" fill="black"/>
<path d="M117.36 394.08H118.56V384.16H117.36V394.08Z" fill="black"/>
<path fill-rule="evenodd" clip-rule="evenodd" d="M125.04 393.12C125.6 392.4 125.92 391.52 125.92 390.48C125.92 389.44 125.6 388.64 125.04 387.92C124.48 387.2 123.76 386.8 122.88 386.8C122.08 386.8 121.36 387.2 120.8 387.92C120.24 388.64 119.92 389.44 119.92 390.48C119.92 391.52 120.24 392.4 120.8 393.12C121.36 393.76 122.08 394.16 122.88 394.16C123.76 394.16 124.48 393.76 125.04 393.12ZM121.6 392.16C121.28 391.76 121.12 391.2 121.12 390.48C121.12 389.84 121.28 389.28 121.6 388.8C121.92 388.4 122.4 388.16 122.88 388.16C123.44 388.16 123.84 388.4 124.16 388.8C124.56 389.28 124.72 389.84 124.72 390.48C124.72 391.2 124.56 391.76 124.16 392.16C123.84 392.56 123.44 392.8 122.88 392.8C122.4 392.8 121.92 392.56 121.6 392.16Z" fill="black"/>
<path fill-rule="evenodd" clip-rule="evenodd" d="M128.4 390.16C128.4 389.52 128.56 389.04 128.88 388.72C129.2 388.32 129.52 388.16 129.92 388.16C130.4 388.16 130.64 388.32 130.88 388.64C131.04 388.96 131.12 389.44 131.12 390.16V394.08H132.32V390.08C132.32 389.44 132.48 388.96 132.8 388.64C133.12 388.32 133.44 388.16 133.84 388.16C134.72 388.16 135.2 388.8 135.2 390.16V394.08H136.4V389.68C136.4 388.8 136.16 388.08 135.76 387.6C135.36 387.04 134.88 386.8 134.24 386.8C133.36 386.8 132.72 387.28 132.16 388.24C131.84 387.28 131.2 386.8 130.32 386.8C129.92 386.8 129.52 386.96 129.2 387.2C128.88 387.44 128.56 387.76 128.4 388.24V386.96H127.2V394.08H128.4V390.16Z" fill="black"/>
<path fill-rule="evenodd" clip-rule="evenodd" d="M143.28 391.12V390.08C143.28 389.12 143.04 388.32 142.48 387.68C141.92 387.12 141.28 386.8 140.56 386.8C139.76 386.8 139.12 387.2 138.48 387.84C137.92 388.48 137.68 389.36 137.68 390.48C137.68 391.6 137.92 392.48 138.48 393.12C139.04 393.84 139.76 394.16 140.56 394.16C141.52 394.16 142.32 393.76 142.88 392.96L142.24 392C141.84 392.56 141.36 392.88 140.64 392.88C140.16 392.88 139.76 392.72 139.44 392.4C139.04 392.08 138.88 391.68 138.88 391.12H143.28ZM138.88 390C138.88 389.44 139.04 388.96 139.36 388.64C139.76 388.32 140.08 388.08 140.56 388.08C140.96 388.08 141.36 388.24 141.68 388.56C141.92 388.88 142.08 389.36 142.08 390H138.88Z" fill="black"/>
<path fill-rule="evenodd" clip-rule="evenodd" d="M146.08 388.16H147.52V386.96H146.08V384.72H144.88V386.96H144.16V388.16H144.88V391.68C144.88 392.48 145.04 393.04 145.44 393.52C145.76 393.92 146.24 394.16 146.72 394.16C147.2 394.16 147.68 393.92 148.08 393.44L147.6 392.4C147.36 392.72 147.12 392.88 146.88 392.88C146.64 392.88 146.4 392.72 146.32 392.56C146.16 392.32 146.08 392.08 146.08 391.76V388.16Z" fill="black"/>
<path fill-rule="evenodd" clip-rule="evenodd" d="M152 388.32H152.08V386.8C151.68 386.88 151.36 386.96 151.04 387.28C150.72 387.52 150.4 387.92 150.24 388.4V386.96H149.04V394.08H150.24V390.96C150.24 390.16 150.4 389.52 150.72 389.04C150.96 388.56 151.44 388.32 152 388.32Z" fill="black"/>
<path fill-rule="evenodd" clip-rule="evenodd" d="M158.56 391.12V390.08C158.56 389.12 158.24 388.32 157.76 387.68C157.2 387.12 156.56 386.8 155.76 386.8C154.96 386.8 154.32 387.2 153.76 387.84C153.2 388.48 152.88 389.36 152.88 390.48C152.88 391.6 153.2 392.48 153.76 393.12C154.32 393.84 154.96 394.16 155.76 394.16C156.72 394.16 157.52 393.76 158.16 392.96L157.44 392C157.12 392.56 156.56 392.88 155.84 392.88C155.44 392.88 155.04 392.72 154.64 392.4C154.32 392.08 154.16 391.68 154.08 391.12H158.56ZM154.08 390C154.08 389.44 154.24 388.96 154.64 388.64C154.96 388.32 155.36 388.08 155.76 388.08C156.24 388.08 156.64 388.24 156.88 388.56C157.2 388.88 157.36 389.36 157.36 390H154.08Z" fill="black"/>
<path fill-rule="evenodd" clip-rule="evenodd" d="M163.84 391.92C163.84 391.28 163.68 390.72 163.28 390.4C163.12 390.24 162.96 390.16 162.8 390.08C162.64 390 162.4 389.92 162.24 389.84C162.08 389.76 161.84 389.68 161.6 389.6C161.44 389.52 161.2 389.44 161.12 389.36C160.88 389.28 160.8 389.12 160.8 388.88C160.8 388.64 160.88 388.4 161.12 388.32C161.28 388.16 161.52 388.08 161.76 388.08C162.32 388.08 162.8 388.24 163.28 388.64L163.76 387.52C163.12 387.04 162.56 386.8 161.84 386.8C161.2 386.8 160.72 387.04 160.32 387.44C159.92 387.84 159.68 388.32 159.68 389.04C159.68 389.92 160.24 390.64 161.44 391.04C161.44 391.04 161.52 391.04 161.6 391.04C162.32 391.36 162.72 391.68 162.72 392C162.72 392.24 162.64 392.48 162.48 392.64C162.32 392.8 162.08 392.88 161.84 392.88C161.2 392.88 160.56 392.56 159.92 391.92L159.36 393.12C159.68 393.44 160.08 393.68 160.48 393.84C160.96 394.08 161.36 394.16 161.76 394.16C162.4 394.16 162.88 393.92 163.28 393.52C163.68 393.12 163.84 392.56 163.84 391.92Z" fill="black"/>
<path fill-rule="evenodd" clip-rule="evenodd" d="M171.6 384.08C171.92 384.64 172.4 384.96 173.12 384.96C173.76 384.96 174.32 384.64 174.64 384.08C174.96 383.44 175.12 382.72 175.12 381.68C175.12 380.72 174.96 379.92 174.64 379.36C174.32 378.8 173.76 378.48 173.12 378.48C172.4 378.48 171.92 378.8 171.6 379.36C171.28 379.92 171.04 380.72 171.04 381.68C171.04 382.72 171.28 383.44 171.6 384.08ZM172.16 380C172.4 379.6 172.72 379.36 173.12 379.36C173.52 379.36 173.84 379.6 174 380C174.24 380.4 174.32 381.04 174.32 381.68C174.32 382.4 174.24 382.96 174 383.44C173.84 383.84 173.52 384.08 173.12 384.08C172.72 384.08 172.4 383.84 172.16 383.36C172 382.96 171.92 382.4 171.92 381.68C171.92 381.04 172 380.48 172.16 380Z" fill="black"/>
<path fill-rule="evenodd" clip-rule="evenodd" d="M337.76 378.64V379.52H338.8V384.88H339.6V378.64" fill="black"/>
<path fill-rule="evenodd" clip-rule="evenodd" d="M346.64 378.08L344 384.96H344.48L347.2 378.08" fill="black"/>
<path fill-rule="evenodd" clip-rule="evenodd" d="M347.44 383.2L346.56 384.32V384.88H348.48V384.32H347.2L347.92 383.44C348.08 383.12 348.24 382.96 348.32 382.72C348.4 382.56 348.4 382.4 348.4 382.24C348.4 381.92 348.32 381.6 348.16 381.44C348 381.2 347.76 381.12 347.52 381.12C347.12 381.12 346.72 381.36 346.48 381.84L346.88 382.16C347.04 381.84 347.28 381.68 347.52 381.68C347.6 381.68 347.76 381.76 347.84 381.84C347.92 381.92 347.92 382.08 347.92 382.24C347.92 382.32 347.92 382.48 347.84 382.64C347.76 382.8 347.6 382.96 347.44 383.2Z" fill="black"/>
<path fill-rule="evenodd" clip-rule="evenodd" d="M342.48 378.64V379.2H343.04V382.24H343.52V378.64" fill="black"/>
<path fill-rule="evenodd" clip-rule="evenodd" d="M285.36 378.64V379.52H286.32V384.88H287.12V378.64" fill="black"/>
<path fill-rule="evenodd" clip-rule="evenodd" d="M230.96 378.08L228.24 384.96H228.8L231.44 378.08" fill="black"/>
<path fill-rule="evenodd" clip-rule="evenodd" d="M231.68 383.2L230.8 384.32V384.88H232.8V384.32H231.44L232.16 383.44C232.4 383.12 232.48 382.96 232.56 382.72C232.64 382.56 232.72 382.4 232.72 382.24C232.72 381.92 232.64 381.6 232.4 381.44C232.24 381.2 232 381.12 231.76 381.12C231.36 381.12 231.04 381.36 230.8 381.84L231.2 382.16C231.36 381.84 231.52 381.68 231.76 381.68C231.92 381.68 232 381.76 232.08 381.84C232.16 381.92 232.24 382.08 232.24 382.24C232.24 382.32 232.16 382.48 232.08 382.64C232 382.8 231.92 382.96 231.68 383.2Z" fill="black"/>
<path fill-rule="evenodd" clip-rule="evenodd" d="M226.72 378.64V379.2H227.36V382.24H227.76V378.64" fill="black"/>
<path fill-rule="evenodd" clip-rule="evenodd" d="M399.68 382.08L398.16 384V384.88H401.6V383.84H399.36L400.48 382.4C400.88 381.92 401.12 381.52 401.28 381.28C401.36 380.96 401.44 380.64 401.44 380.32C401.44 379.76 401.28 379.28 400.96 378.96C400.64 378.64 400.32 378.48 399.84 378.48C399.44 378.48 399.12 378.56 398.88 378.8C398.56 378.96 398.32 379.28 398.16 379.68L398.8 380.24C399.12 379.68 399.44 379.44 399.84 379.44C400.08 379.44 400.24 379.52 400.4 379.68C400.56 379.84 400.64 380.08 400.64 380.32C400.64 380.56 400.56 380.8 400.4 381.04C400.32 381.28 400.08 381.68 399.68 382.08Z" fill="black"/>
<path fill-rule="evenodd" clip-rule="evenodd" d="M129.04 276.48C129.04 275.2 128.72 274.24 128.16 273.6C127.52 272.96 126.48 272.72 125.04 272.72H121.6V284.4H123.2V280.48H125.28L127.52 284.4H129.52L127.04 280.16C128.4 279.68 129.04 278.48 129.04 276.48ZM125.12 278.72H123.2V274.48H125.2C126 274.48 126.64 274.64 126.96 274.88C127.28 275.2 127.44 275.76 127.44 276.48C127.44 277.28 127.28 277.84 126.96 278.16C126.64 278.48 126 278.72 125.12 278.72Z" fill="black"/>
<path fill-rule="evenodd" clip-rule="evenodd" d="M137.76 280.8V279.52C137.76 278.24 137.44 277.2 136.72 276.48C136.08 275.76 135.2 275.36 134.24 275.36C133.28 275.36 132.48 275.76 131.76 276.64C131.04 277.44 130.64 278.56 130.64 279.92C130.64 281.36 131.04 282.48 131.76 283.28C132.4 284.16 133.28 284.56 134.24 284.56C135.52 284.56 136.48 284.08 137.28 283.04L136.4 281.92C135.92 282.64 135.28 282.96 134.4 282.96C133.84 282.96 133.28 282.72 132.88 282.4C132.48 282 132.24 281.44 132.16 280.8H137.76ZM132.16 279.28C132.16 278.56 132.4 278 132.8 277.6C133.28 277.2 133.76 276.96 134.32 276.96C134.88 276.96 135.28 277.2 135.68 277.6C136.08 278 136.24 278.56 136.24 279.28H132.16Z" fill="black"/>
<path fill-rule="evenodd" clip-rule="evenodd" d="M142.32 284.56C143.36 284.56 144.16 284.08 144.72 283.12V284.4H146.24V272H144.72V276.88C144.16 275.84 143.36 275.36 142.4 275.36C141.52 275.36 140.64 275.76 140 276.64C139.28 277.44 138.96 278.56 138.96 279.92C138.96 281.36 139.28 282.48 139.92 283.28C140.64 284.16 141.44 284.56 142.32 284.56ZM140.48 280C140.48 279.12 140.64 278.4 141.12 277.84C141.52 277.28 142 277.04 142.64 277.04C143.2 277.04 143.76 277.28 144.16 277.84C144.56 278.4 144.72 279.12 144.72 280C144.72 280.88 144.56 281.52 144.16 282.08C143.76 282.64 143.2 282.88 142.64 282.88C142.08 282.88 141.52 282.64 141.12 282.08C140.64 281.6 140.48 280.88 140.48 280Z" fill="black"/>
<path fill-rule="evenodd" clip-rule="evenodd" d="M107.36 304.48V299.84L110.88 292.72H109.12L106.56 298.08L104 292.72H102.32L105.76 299.84V304.48" fill="black"/>
<path fill-rule="evenodd" clip-rule="evenodd" d="M118.48 300.8V299.52C118.48 298.24 118.16 297.2 117.44 296.48C116.8 295.76 115.92 295.36 114.96 295.36C114 295.36 113.2 295.84 112.48 296.64C111.76 297.44 111.36 298.56 111.36 300C111.36 301.44 111.76 302.56 112.48 303.36C113.12 304.16 114 304.64 114.96 304.64C116.24 304.64 117.2 304.08 118 303.12L117.12 301.92C116.64 302.64 116 302.96 115.12 302.96C114.56 302.96 114.08 302.8 113.6 302.4C113.2 302 112.96 301.44 112.88 300.8H118.48ZM112.88 299.36C112.88 298.64 113.12 298.08 113.52 297.68C114 297.2 114.48 297.04 115.04 297.04C115.6 297.04 116.08 297.2 116.4 297.6C116.8 298 116.96 298.56 116.96 299.36H112.88Z" fill="black"/>
<path d="M120.16 304.48H121.6V292H120.16V304.48Z" fill="black"/>
<path d="M123.76 304.48H125.28V292H123.76V304.48Z" fill="black"/>
<path fill-rule="evenodd" clip-rule="evenodd" d="M133.44 303.28C134.16 302.4 134.48 301.28 134.48 300C134.48 298.72 134.16 297.6 133.44 296.72C132.72 295.84 131.84 295.36 130.72 295.36C129.68 295.36 128.8 295.84 128.08 296.72C127.36 297.6 126.96 298.72 126.96 300C126.96 301.28 127.36 302.4 128.08 303.28C128.8 304.16 129.68 304.64 130.72 304.64C131.84 304.64 132.72 304.16 133.44 303.28ZM129.12 302.08C128.72 301.6 128.48 300.88 128.48 300C128.48 299.12 128.72 298.4 129.12 297.92C129.52 297.36 130.08 297.04 130.72 297.04C131.36 297.04 131.92 297.36 132.32 297.92C132.8 298.4 132.96 299.12 132.96 300C132.96 300.88 132.8 301.6 132.32 302.08C131.92 302.64 131.36 302.96 130.72 302.96C130.08 302.96 129.52 302.64 129.12 302.08Z" fill="black"/>
<path fill-rule="evenodd" clip-rule="evenodd" d="M139.52 304.48L141.2 298.32L142.88 304.48H144.64L147.04 295.52H145.52L143.76 302.32L142 295.52H140.4L138.64 302.32L136.88 295.52H135.36L137.84 304.48" fill="black"/>
<path fill-rule="evenodd" clip-rule="evenodd" d="M122.64 324.48C123.92 324.48 124.88 324.16 125.36 323.44C125.84 322.8 126.08 322.08 126.08 321.28C126.08 320.48 125.84 319.92 125.52 319.36C125.2 318.88 124.72 318.56 124.16 318.4C124.32 318.32 124.4 318.24 124.48 318.24C124.56 318.16 124.64 318.08 124.8 317.92C125.28 317.44 125.52 316.8 125.52 315.84C125.52 315.12 125.28 314.4 124.88 313.84C124.64 313.52 124.32 313.2 123.84 313.04C123.36 312.88 122.88 312.8 122.24 312.8H118.56V324.48H122.64ZM120.16 317.6V314.56H122.16C122.72 314.56 123.2 314.72 123.44 314.96C123.76 315.2 123.84 315.6 123.84 316.16C123.84 317.12 123.28 317.6 122.16 317.6H120.16ZM120.16 322.64V319.44H122.4C123.12 319.44 123.6 319.6 123.92 319.84C124.24 320.08 124.4 320.48 124.4 321.04C124.4 321.68 124.24 322.08 123.92 322.32C123.68 322.56 123.2 322.64 122.64 322.64H120.16Z" fill="black"/>
<path d="M127.84 324.48H129.28V312H127.84V324.48Z" fill="black"/>
<path fill-rule="evenodd" clip-rule="evenodd" d="M136.48 320.4C136.48 321.2 136.24 321.84 135.92 322.32C135.52 322.72 135.04 322.96 134.56 322.96C133.44 322.96 132.88 322.16 132.88 320.48V315.6H131.36V321.04C131.36 322.24 131.68 323.12 132.16 323.68C132.64 324.32 133.28 324.64 134.08 324.64C134.56 324.64 135.04 324.48 135.44 324.16C135.92 323.84 136.24 323.44 136.48 322.88V324.48H137.92V315.6H136.48V320.4Z" fill="black"/>
<path fill-rule="evenodd" clip-rule="evenodd" d="M146.72 320.88V319.6C146.72 318.24 146.4 317.28 145.76 316.56C145.04 315.84 144.24 315.44 143.28 315.44C142.32 315.44 141.44 315.84 140.72 316.64C140 317.52 139.68 318.64 139.68 320C139.68 321.44 140 322.56 140.72 323.36C141.44 324.24 142.24 324.64 143.28 324.64C144.48 324.64 145.52 324.16 146.24 323.12L145.44 322C144.96 322.64 144.24 323.04 143.36 323.04C142.8 323.04 142.32 322.8 141.92 322.4C141.44 322 141.2 321.52 141.2 320.88H146.72ZM141.2 319.36C141.2 318.64 141.36 318.08 141.84 317.68C142.24 317.28 142.72 317.04 143.28 317.04C143.84 317.04 144.32 317.28 144.72 317.68C145.04 318.08 145.28 318.64 145.28 319.36H141.2Z" fill="black"/>
<path fill-rule="evenodd" clip-rule="evenodd" d="M114.48 338.8V342.08C113.84 342.56 113.12 342.8 112.24 342.8C111.36 342.8 110.56 342.4 109.92 341.68C109.28 340.88 109.04 339.92 109.04 338.64C109.04 337.36 109.36 336.4 110 335.6C110.64 334.88 111.44 334.48 112.32 334.48C112.88 334.48 113.28 334.56 113.68 334.72C114 334.88 114.4 335.12 114.72 335.52L115.6 334C114.72 333.04 113.6 332.48 112.24 332.48C110.88 332.48 109.76 333.12 108.8 334.24C107.84 335.44 107.36 336.88 107.36 338.64C107.36 340.4 107.84 341.84 108.72 342.96C109.68 344.08 110.88 344.72 112.24 344.72C113.84 344.72 115.12 344.08 116 342.88V338.8H114.48Z" fill="black"/>
<path fill-rule="evenodd" clip-rule="evenodd" d="M121.6 337.36H121.68V335.44C121.2 335.52 120.8 335.68 120.4 336C119.92 336.4 119.6 336.88 119.36 337.44V335.6H117.92V344.56H119.36V340.72C119.36 339.68 119.6 338.88 119.92 338.24C120.32 337.68 120.88 337.36 121.6 337.36Z" fill="black"/>
<path fill-rule="evenodd" clip-rule="evenodd" d="M129.84 340.88V339.6C129.84 338.32 129.52 337.28 128.8 336.56C128.16 335.84 127.28 335.44 126.32 335.44C125.36 335.44 124.56 335.92 123.84 336.72C123.12 337.52 122.72 338.64 122.72 340.08C122.72 341.44 123.12 342.56 123.76 343.44C124.48 344.24 125.36 344.72 126.32 344.72C127.6 344.72 128.56 344.16 129.36 343.2L128.48 342C128 342.72 127.36 343.04 126.48 343.04C125.92 343.04 125.36 342.88 124.96 342.48C124.48 342.08 124.32 341.52 124.24 340.88H129.84ZM124.24 339.44C124.24 338.72 124.48 338.16 124.88 337.68C125.36 337.28 125.84 337.12 126.4 337.12C126.96 337.12 127.36 337.28 127.76 337.68C128.16 338.08 128.32 338.64 128.32 339.44H124.24Z" fill="black"/>
<path fill-rule="evenodd" clip-rule="evenodd" d="M138.08 340.88V339.6C138.08 338.32 137.76 337.28 137.12 336.56C136.4 335.84 135.6 335.44 134.64 335.44C133.68 335.44 132.8 335.92 132.08 336.72C131.36 337.52 131.04 338.64 131.04 340.08C131.04 341.44 131.36 342.56 132.08 343.44C132.8 344.24 133.6 344.72 134.64 344.72C135.84 344.72 136.88 344.16 137.6 343.2L136.8 342C136.32 342.72 135.6 343.04 134.72 343.04C134.16 343.04 133.68 342.88 133.2 342.48C132.8 342.08 132.56 341.52 132.56 340.88H138.08ZM132.56 339.44C132.56 338.72 132.72 338.16 133.2 337.68C133.6 337.28 134.08 337.12 134.64 337.12C135.2 337.12 135.68 337.28 136.08 337.68C136.4 338.08 136.64 338.64 136.64 339.44H132.56Z" fill="black"/>
<path fill-rule="evenodd" clip-rule="evenodd" d="M141.28 339.68C141.28 339.28 141.28 338.96 141.36 338.64C141.52 338.32 141.6 338 141.84 337.84C142.24 337.36 142.64 337.2 143.2 337.2C144.24 337.2 144.8 338 144.8 339.6V344.56H146.32V339.04C146.32 337.92 146.08 337.04 145.6 336.4C145.04 335.76 144.4 335.44 143.6 335.44C143.12 335.44 142.64 335.6 142.24 335.92C141.84 336.24 141.52 336.72 141.28 337.2V335.6H139.76V344.56H141.28V339.68Z" fill="black"/>
<path d="M342.96 392.32H286.32H229.6H172.88" stroke="black" stroke-width="2.8" stroke-miterlimit="10" stroke-linejoin="round"/>
<path d="M172.88 394.08V388" stroke="black" stroke-width="2.8" stroke-miterlimit="10" stroke-linejoin="round"/>
<path d="M229.6 394.08V388" stroke="black" stroke-width="2.8" stroke-miterlimit="10" stroke-linejoin="round"/>
<path d="M286.32 394.08V388" stroke="black" stroke-width="2.8" stroke-miterlimit="10" stroke-linejoin="round"/>
<path d="M342.96 394.08V388" stroke="black" stroke-width="2.8" stroke-miterlimit="10" stroke-linejoin="round"/>
<path d="M229.6 394.08H172.88" stroke="black" stroke-width="3.76" stroke-miterlimit="10" stroke-linejoin="round"/>
<path d="M286.32 394.08H229.6" stroke="black" stroke-width="3.76" stroke-miterlimit="10" stroke-linejoin="round"/>
<path d="M342.96 394.08H286.32" stroke="black" stroke-width="3.76" stroke-miterlimit="10" stroke-linejoin="round"/>
<path d="M399.68 392.32H342.96" stroke="black" stroke-width="2.8" stroke-miterlimit="10" stroke-linejoin="round"/>
<path d="M399.68 394.08V388" stroke="black" stroke-width="2.8" stroke-miterlimit="10" stroke-linejoin="round"/>
<path d="M399.68 394.08H342.96" stroke="black" stroke-width="3.76" stroke-miterlimit="10" stroke-linejoin="round"/>
<path fill-rule="evenodd" clip-rule="evenodd" d="M174.8 338.64C174.8 336.24 173.84 334 172.16 332.24C170.48 330.56 168.16 329.6 165.76 329.6C163.36 329.6 161.04 330.56 159.36 332.24C157.68 334 156.72 336.24 156.72 338.64C156.72 341.12 157.68 343.36 159.36 345.12C161.04 346.8 163.36 347.76 165.76 347.76C168.16 347.76 170.48 346.8 172.16 345.12C173.84 343.36 174.8 341.04 174.8 338.64Z" fill="#009A4C"/>
<path fill-rule="evenodd" clip-rule="evenodd" d="M174.8 298.64C174.8 296.16 173.84 293.92 172.16 292.16C170.48 290.48 168.16 289.52 165.76 289.52C163.36 289.52 161.04 290.48 159.36 292.16C157.68 293.92 156.72 296.16 156.72 298.64C156.72 301.04 157.68 303.28 159.36 305.04C161.04 306.72 163.36 307.68 165.76 307.68C168.16 307.68 170.48 306.72 172.16 305.04C173.84 303.28 174.8 301.04 174.8 298.64Z" fill="#CCB265"/>
<path fill-rule="evenodd" clip-rule="evenodd" d="M174.8 278.56C174.8 276.16 173.84 273.84 172.16 272.16C170.48 270.48 168.16 269.52 165.76 269.52C163.36 269.52 161.04 270.48 159.36 272.16C157.68 273.84 156.72 276.16 156.72 278.56C156.72 280.96 157.68 283.28 159.36 284.96C161.04 286.72 163.36 287.6 165.76 287.6C168.16 287.6 170.48 286.64 172.16 284.96C173.84 283.28 174.8 280.96 174.8 278.56Z" fill="#CC0000"/>
<path fill-rule="evenodd" clip-rule="evenodd" d="M174.8 318.64C174.8 316.24 173.84 313.92 172.16 312.24C170.48 310.56 168.16 309.6 165.76 309.6C163.36 309.6 161.04 310.56 159.36 312.24C157.68 313.92 156.72 316.24 156.72 318.64C156.72 321.04 157.68 323.36 159.36 325.04C161.04 326.72 163.36 327.68 165.76 327.68C168.16 327.68 170.48 326.72 172.16 325.04C173.84 323.36 174.8 321.04 174.8 318.64Z" fill="#4C719A"/>
</svg>
