<svg width="2515" height="2520" viewBox="0 0 2515 2520" fill="none" xmlns="http://www.w3.org/2000/svg">
<path d="M1179.84 804.887L1176.48 805.927L1173.44 806.567L1169.84 806.727L1166.8 806.647L1162.08 805.767" stroke="#C8C8C8" stroke-width="1.92" stroke-miterlimit="10" stroke-linejoin="round"/>
<path d="M493.28 1063.93L491.92 1066.09L471.6 1104.25L470.4 1107.85" stroke="#C8C8C8" stroke-width="1.92" stroke-miterlimit="10" stroke-linejoin="round"/>
<path d="M458.96 1088.09L464.32 1088.41L468 1088.57L470.88 1088.09L473.28 1087.21L475.6 1085.53L477.12 1083.93L479.92 1079.53L484.24 1072.49L485.76 1070.49L489.28 1066.65L491.36 1065.13L493.28 1063.93" stroke="#C8C8C8" stroke-width="1.92" stroke-miterlimit="10" stroke-linejoin="round"/>
<path d="M469.76 1113.21L469.84 1116.65C470.196 1119.72 472.929 1121.7 475.44 1123.05L478.64 1123.53" stroke="#C8C8C8" stroke-width="1.92" stroke-miterlimit="10" stroke-linejoin="round"/>
<path d="M279.76 949.287L262.8 941.527L260.96 940.247L259.36 938.487L257.84 936.087L256.4 934.087L254.4 932.647L251.28 931.127L222.16 919.927L219.28 918.247L217.84 916.807L216.64 914.967" stroke="#C8C8C8" stroke-width="1.92" stroke-miterlimit="10" stroke-linejoin="round"/>
<path d="M394.88 1201.13L421.52 1202.49L420 1201.69L418.56 1200.73L417.36 1199.53L416.4 1197.93L415.92 1196.57L415.6 1194.65" stroke="#C8C8C8" stroke-width="1.92" stroke-miterlimit="10" stroke-linejoin="round"/>
<path d="M415.2 1206.41L416.8 1204.49L417.84 1203.77L418.96 1203.21L420 1202.73L421.28 1202.49" stroke="#C8C8C8" stroke-width="1.92" stroke-miterlimit="10" stroke-linejoin="round"/>
<path d="M1541.92 1168.97L1513.2 1143.13" stroke="#C8C8C8" stroke-width="1.92" stroke-miterlimit="10" stroke-linejoin="round"/>
<path d="M1579.84 1459.85L1581.28 1463.53L1583.04 1466.17L1585.92 1469.69L1594.48 1478.73L1604.72 1489.69L1608.24 1493.13" stroke="#C8C8C8" stroke-width="1.92" stroke-miterlimit="10" stroke-linejoin="round"/>
<path d="M1195.52 1517.93L1194.24 1510.57L1192.96 1506.81L1191.6 1504.81L1190.4 1503.61L1189.2 1502.89" stroke="#C8C8C8" stroke-width="1.92" stroke-miterlimit="10" stroke-linejoin="round"/>
<path d="M1543.6 1616.25L1539.6 1614.89L1537.76 1613.37C1535.27 1611.13 1534.22 1607.06 1535.6 1603.93L1536.56 1601.85" stroke="#C8C8C8" stroke-width="1.92" stroke-miterlimit="10" stroke-linejoin="round"/>
<path d="M1571.52 1570.65L1572.4 1574.41L1573.36 1576.41L1574.8 1578.17L1576.64 1579.45L1578.96 1580.25L1580.48 1580.57" stroke="#C8C8C8" stroke-width="1.92" stroke-miterlimit="10" stroke-linejoin="round"/>
<path d="M2151.04 1774.81L2138.88 1767.13L2134.88 1765.45L2132.4 1764.97L2128.08 1765.05" stroke="#C8C8C8" stroke-width="1.92" stroke-miterlimit="10" stroke-linejoin="round"/>
<path d="M601.2 1778.65L636.08 1805.69L638.64 1807.61" stroke="#C8C8C8" stroke-width="1.92" stroke-miterlimit="10" stroke-linejoin="round"/>
<path d="M473.2 277.847L494.16 301.687L497.36 305.367L498.72 306.487L500.08 307.287L501.92 308.007L503.44 308.167L505.52 308.087L522.8 306.647C525.43 306.643 526.353 306.616 528.64 308.087L532.08 311.527" stroke="#C8C8C8" stroke-width="1.92" stroke-miterlimit="10" stroke-linejoin="round"/>
<path d="M752.08 997.927L754.64 996.647C758.409 993.254 758.288 992.398 758 987.607L757.04 982.247" stroke="#C8C8C8" stroke-width="1.92" stroke-miterlimit="10" stroke-linejoin="round"/>
<path d="M677.6 1941.61L657.68 1939.85L655.12 1938.89L652.8 1937.69L648.16 1934.17" stroke="#C8C8C8" stroke-width="1.92" stroke-miterlimit="10" stroke-linejoin="round"/>
<path d="M1924.8 1864.73L1931.84 1867.29L1935.6 1870.01L1937.28 1872.41L1937.84 1875.21L1938 1880.65" stroke="#C8C8C8" stroke-width="1.92" stroke-miterlimit="10" stroke-linejoin="round"/>
<path d="M1932.24 1857.77L1939.28 1864.57L1943.76 1867.21L1948.8 1868.65L1959.68 1871.05" stroke="#C8C8C8" stroke-width="1.92" stroke-miterlimit="10" stroke-linejoin="round"/>
<path d="M1312.96 612.407L1304.4 577.847" stroke="#C8C8C8" stroke-width="1.92" stroke-miterlimit="10" stroke-linejoin="round"/>
<path d="M1471.84 1123.29L1472.88 1116.57L1471.28 1111.29L1466.48 1106.49L1461.2 1104.73" stroke="#C8C8C8" stroke-width="1.92" stroke-miterlimit="10" stroke-linejoin="round"/>
<path d="M1561.12 1511.05L1562.4 1517.13L1563.28 1534.89" stroke="#C8C8C8" stroke-width="1.92" stroke-miterlimit="10" stroke-linejoin="round"/>
<path d="M1551.68 1486.97L1549.2 1483.53L1544.96 1480.25L1540.88 1478.81L1534.24 1477.77" stroke="#C8C8C8" stroke-width="1.92" stroke-miterlimit="10" stroke-linejoin="round"/>
<path d="M1427.28 903.127L1432.8 912.007L1442.8 923.207L1460.88 936.727L1476 948.007L1484.56 952.967L1494 961.847L1513.6 975.847L1522.32 978.167L1536.24 975.287L1550 971.767L1558 972.247L1567.68 974.567L1615.68 984.487L1628.48 983.287L1632.8 982.887" stroke="#C8C8C8" stroke-width="1.92" stroke-miterlimit="10" stroke-linejoin="round"/>
<path d="M1460.08 943.607L1466.96 954.487L1475.28 963.927L1478.24 966.247L1481.76 966.807L1484.4 966.087L1486 964.647L1487.84 960.807L1487.52 957.607L1485.92 954.887L1484.56 952.967" stroke="#C8C8C8" stroke-width="1.92" stroke-miterlimit="10" stroke-linejoin="round"/>
<path d="M1753.52 561.527L1726.08 590.807L1724.16 592.327L1720.96 594.087" stroke="#C8C8C8" stroke-width="1.92" stroke-miterlimit="10" stroke-linejoin="round"/>
<path d="M1359.52 417.047L1361.28 416.007L1365.52 415.127L1369.92 415.927L1374 418.167L1375.2 419.127" stroke="#C8C8C8" stroke-width="1.92" stroke-miterlimit="10" stroke-linejoin="round"/>
<path d="M1871.6 888.407L1873.84 883.207L1875.12 876.647L1874.96 869.927L1862.56 840.247L1858.16 836.087L1852.56 833.687" stroke="#C8C8C8" stroke-width="1.92" stroke-miterlimit="10" stroke-linejoin="round"/>
<path d="M1862.56 840.247L1861.68 834.727L1862.88 830.727L1866.16 827.687" stroke="#C8C8C8" stroke-width="1.92" stroke-miterlimit="10" stroke-linejoin="round"/>
<path d="M1337.44 332.647L1331.04 334.087L1329.36 334.647L1327.76 335.687L1326.08 337.287L1324.72 339.527L1324.32 341.367L1324.16 345.447" stroke="#C8C8C8" stroke-width="1.92" stroke-miterlimit="10" stroke-linejoin="round"/>
<path d="M572.72 1735.69L572.16 1746.89L570.96 1783.21L570.88 1786.25L570.64 1794.97L570.8 1797.53L570.48 1809.29V1812.01L571.12 1814.01L572.64 1816.49L574.8 1818.65" stroke="#C8C8C8" stroke-width="1.92" stroke-miterlimit="10" stroke-linejoin="round"/>
<path d="M559.04 1807.21L562.8 1812.65L566.08 1815.53L569.44 1816.97L572.64 1817.69L574.8 1818.65L597.6 1831.21L599.84 1832.09L602 1831.93L603.92 1830.89L606.88 1828.49L608.96 1827.29L636.24 1816.17L647.52 1811.53L651.68 1809.85L654.32 1809.37L658.24 1809.13" stroke="#C8C8C8" stroke-width="1.92" stroke-miterlimit="10" stroke-linejoin="round"/>
<path d="M638.64 1807.61L637.44 1806.57L636.48 1805.21L635.2 1802.41L623.2 1773.77" stroke="#C8C8C8" stroke-width="1.92" stroke-miterlimit="10" stroke-linejoin="round"/>
<path d="M658.24 1809.13L645.04 1809.05H642.72L641.2 1808.89L639.68 1808.33L638.64 1807.61" stroke="#C8C8C8" stroke-width="1.92" stroke-miterlimit="10" stroke-linejoin="round"/>
<path d="M705.36 1809.13H658.24" stroke="#C8C8C8" stroke-width="1.92" stroke-miterlimit="10" stroke-linejoin="round"/>
<path d="M560.56 1756.65L558.72 1759.21L555.2 1763.13L553.04 1765.53L550.96 1767.85L549.44 1770.01L548.16 1772.73L546.64 1777.13L544.64 1785.05C543.248 1790.24 541.643 1790.99 539.68 1795.37L536.56 1807.85L535.52 1812.09" stroke="#C8C8C8" stroke-width="1.92" stroke-miterlimit="10" stroke-linejoin="round"/>
<path d="M503.2 1553.85L510.08 1570.89L510.96 1573.13L512.32 1575.93L513.44 1578.73L534.24 1630.57L536.72 1636.81L537.76 1639.13L538.8 1640.65L539.68 1641.77L540.88 1642.73L542.48 1643.77C545.928 1645.36 548.247 1648.71 549.6 1652.17L549.84 1653.37L550 1655.85" stroke="#C8C8C8" stroke-width="1.92" stroke-miterlimit="10" stroke-linejoin="round"/>
<path d="M490.64 1542.97L507.6 1537.05L510 1536.09L513.12 1534.41L515.44 1532.97L535.04 1516.17L542.56 1509.61L543.92 1508.33L545.76 1506.97C548.213 1504.44 552.283 1504 555.6 1504.49L557.92 1504.97" stroke="#C8C8C8" stroke-width="1.92" stroke-miterlimit="10" stroke-linejoin="round"/>
<path d="M543.92 1508.33L545.28 1506.41C547.684 1501.13 546.915 1500.45 545.68 1495.13L544.72 1491.53" stroke="#C8C8C8" stroke-width="1.92" stroke-miterlimit="10" stroke-linejoin="round"/>
<path d="M542.4 1482.17L541.76 1479.77L540.88 1477.77L539.6 1475.85L537.52 1474.01L534.16 1472.33L526 1468.33L523.12 1466.89L521.68 1465.77L520.64 1464.73L486.48 1427.45L481.52 1419.85L478.88 1411.61L474.8 1392.01L473.52 1387.53L470.88 1383.85L466.32 1379.21L461.12 1373.77L457.84 1368.33L457.12 1362.01L458 1357.45L461.28 1351.53L476.48 1337.85L487.92 1328.25L492.08 1323.61L494.64 1319.61L497.52 1314.33L506.32 1298.25L507.76 1293.77L508 1289.61L507.36 1284.65L507.52 1279.37L508.8 1275.05L510.96 1270.65L513.68 1266.97L529.2 1242.89L531.44 1238.25L532.16 1234.73L532.56 1229.45L531.52 1218.01L530.64 1206.09L529.12 1201.37L526.88 1198.49L523.36 1195.61L507.28 1188.25L503.36 1187.13L489.28 1186.09L485.28 1186.25L481.52 1187.69L478.24 1190.41L471.52 1197.69L469.12 1200.09L466.48 1201.69L462.64 1202.49L459.36 1202.33L456.24 1201.21L452.8 1200.01L450 1199.69L446.48 1200.25L440.32 1202.09L435.92 1203.05H431.44L421.52 1202.49" stroke="#C8C8C8" stroke-width="1.92" stroke-miterlimit="10" stroke-linejoin="round"/>
<path d="M415.2 1206.41L415.28 1204.33L415.6 1197.29V1194.65V1194.17L416.4 1191.93L417.28 1190.65L421.52 1185.13L426.64 1178.89L434.72 1168.89L446.72 1154.57" stroke="#C8C8C8" stroke-width="1.92" stroke-miterlimit="10" stroke-linejoin="round"/>
<path d="M415.2 1206.41L415.12 1208.41L415.04 1209.69L414.56 1211.69L412.8 1214.09L410.4 1216.17L407.28 1217.85L389.2 1224.97L385.44 1226.65L383.28 1228.41C378.061 1233.78 378.052 1243.63 372.24 1248.97L366.72 1253.85L339.36 1276.89" stroke="#C8C8C8" stroke-width="1.92" stroke-miterlimit="10" stroke-linejoin="round"/>
<path d="M466.16 1131.45L467.68 1128.65L468.16 1126.89L468.56 1123.69L469.76 1113.21L470.16 1109.93L470.4 1107.85" stroke="#C8C8C8" stroke-width="1.92" stroke-miterlimit="10" stroke-linejoin="round"/>
<path d="M458.96 1088.09L462.16 1089.05L466.24 1091.45L468.56 1093.85L470.4 1097.21L470.72 1102.01L470.64 1105.21L470.4 1107.85" stroke="#C8C8C8" stroke-width="1.92" stroke-miterlimit="10" stroke-linejoin="round"/>
<path d="M552.64 981.767L562.64 985.687L576.4 990.967" stroke="#C8C8C8" stroke-width="1.92" stroke-miterlimit="10" stroke-linejoin="round"/>
<path d="M493.28 1063.93L494 1062.81L496 1060.49L498.72 1058.33L502 1056.89L504.56 1056.25L519.6 1051.61L521.92 1050.41L523.92 1048.57L525.36 1047.05L526.72 1043.93L527.2 1041.29L526.88 1038.57L518.16 1009.37L518 1006.81L518.32 1003.45L519.44 1001.21L521.84 998.487L538.8 984.967L541.44 982.887L543.76 982.007L546.32 981.527L549.2 981.367L552.64 981.767L549.2 980.167L546.72 978.007L544.64 975.767L542.64 973.367L514.24 931.367L494.08 900.887L492.4 898.407L490.96 896.007L490.08 893.207L489.28 890.407L488.4 885.767L482.64 857.368" stroke="#C8C8C8" stroke-width="1.92" stroke-miterlimit="10" stroke-linejoin="round"/>
<path d="M458.96 1088.09L425.28 1083.85L423.2 1083.69L420.24 1083.85L417.12 1084.41L413.52 1085.53L394.8 1090.33L392.56 1090.97L387.76 1092.33L384.72 1093.29C378.268 1094.87 371.032 1094.05 365.36 1090.41L361.84 1088.01L359.28 1085.29" stroke="#C8C8C8" stroke-width="1.92" stroke-miterlimit="10" stroke-linejoin="round"/>
<path d="M251.28 931.127L281.68 942.887L286.24 944.327L290.4 945.047L294.56 945.287L299.12 945.367L303.52 945.047L307.92 944.327L310.16 943.767L314.16 942.647L346.88 932.087L350.88 930.967L354.4 930.807L358.4 931.207L361.76 932.007L365.2 933.607L400.96 960.567L404.48 962.647L408.08 964.647L411.52 965.767L414.88 966.087H420.32L423.68 965.767L427.28 965.047L430.24 963.847L433.76 962.007L467.04 941.447L469.599 940.167L474.399 938.487L477.919 937.687L550.879 923.127L553.999 922.487L555.839 921.847L557.439 920.727L559.359 919.287L561.199 917.447L562.719 915.047L563.599 913.047L564.239 911.207L564.559 908.967" stroke="#C8C8C8" stroke-width="1.92" stroke-miterlimit="10" stroke-linejoin="round"/>
<path d="M1377.04 314.487L1374.96 296.727L1375.04 293.047L1375.52 290.967L1375.68 289.447L1375.76 287.847L1370.88 247.847L1370.64 247.047L1369.84 245.767L1368.64 244.087L1367.12 243.207L1365.12 242.567L1362.64 242.407L1359.36 242.167L1356.8 241.447L1355.2 239.847L1354.24 238.567L1353.52 236.487V234.007L1357.04 216.647" stroke="#C8C8C8" stroke-width="1.92" stroke-miterlimit="10" stroke-linejoin="round"/>
<path d="M1395.92 459.847L1382.72 444.727L1381.36 441.927L1381.92 438.887L1383.2 436.007L1386.72 427.847L1386.96 424.407L1385.76 421.127L1383.28 417.607L1370.64 398.327L1369.84 396.727L1369.2 395.367L1368.72 393.767L1368.4 392.087L1368.32 389.927L1368.56 387.687L1372.48 368.407L1374.08 360.887L1375.12 356.167C1376.87 345.823 1377.77 333.537 1377.52 323.047L1377.44 321.047L1377.04 314.487L1377.36 315.927L1378 317.447C1379.3 320.654 1382.97 322.983 1386.4 323.127H1388L1431.12 322.487C1434.71 322.465 1437.58 319.67 1438.4 316.407L1438.56 314.727V313.207L1431.52 290.407" stroke="#C8C8C8" stroke-width="1.92" stroke-miterlimit="10" stroke-linejoin="round"/>
<path d="M1433.36 332.487L1438.8 328.807C1442.94 324.738 1440.64 319.81 1439.12 315.207L1438.56 313.207" stroke="#C8C8C8" stroke-width="1.92" stroke-miterlimit="10" stroke-linejoin="round"/>
<path d="M1439.04 390.727L1458.8 400.407L1460.72 401.207L1463.04 401.927L1465.76 402.247L1468.24 402.167L1470.24 401.767L1472.64 401.127L1483.52 397.287L1487.52 395.607L1489.04 394.247L1490.32 392.727L1491.52 390.487L1505.68 361.207L1508.56 355.207L1508.96 354.007L1509.12 352.407V350.807L1508.96 349.447L1508.8 348.327L1507.6 341.047" stroke="#C8C8C8" stroke-width="1.92" stroke-miterlimit="10" stroke-linejoin="round"/>
<path d="M1356.88 334.007L1350.08 333.527L1347.52 332.967L1344.56 331.447L1342.16 329.527L1341.44 328.647L1327.84 309.927L1325.68 307.447L1323.12 305.287L1322.72 305.127C1319.08 302.642 1315.74 301.735 1311.36 302.327L1308.64 303.207L1281.52 315.687" stroke="#C8C8C8" stroke-width="1.92" stroke-miterlimit="10" stroke-linejoin="round"/>
<path d="M1327.84 434.487L1359.52 417.047" stroke="#C8C8C8" stroke-width="1.92" stroke-miterlimit="10" stroke-linejoin="round"/>
<path d="M1088.24 883.527L1095.52 872.327L1098.64 868.407L1102 864.087L1104.32 861.527L1106.88 859.767L1123.52 853.127L1126.32 851.207L1128.56 848.487L1129.2 844.247C1130.91 830.031 1131.49 837.487 1137.2 826.407L1137.92 824.647" stroke="#C8C8C8" stroke-width="1.92" stroke-miterlimit="10" stroke-linejoin="round"/>
<path d="M1088.24 883.527L1090.32 880.727L1092.88 878.887L1095.68 877.527L1098.72 876.807H1101.68L1104.08 876.967L1124.08 877.447L1126.8 877.687L1128.8 878.487L1131.2 879.527L1132.96 880.887L1135.28 883.607L1136.8 886.487L1137.68 889.847L1140.32 903.607L1141.2 906.167L1142.8 908.487L1144.88 910.407L1146.8 911.447L1149.52 912.247L1181.52 920.087" stroke="#C8C8C8" stroke-width="1.92" stroke-miterlimit="10" stroke-linejoin="round"/>
<path d="M929.2 970.087L973.36 972.007L981.92 972.327L986.08 972.167L991.76 970.967L1020.24 963.927L1023.36 962.807L1026.32 961.287L1028.24 959.927L1030.24 958.407L1032.4 956.567L1052.24 938.727L1053.76 937.287L1055.52 935.367L1057.04 933.287L1059.2 930.407L1088.24 883.527" stroke="#C8C8C8" stroke-width="1.92" stroke-miterlimit="10" stroke-linejoin="round"/>
<path d="M848.64 987.687L881.76 976.487L890.08 973.527L896.32 969.687L899.84 966.887L902.96 964.167L912.32 955.767" stroke="#C8C8C8" stroke-width="1.92" stroke-miterlimit="10" stroke-linejoin="round"/>
<path d="M1793.52 1411.13L1783.44 1396.25L1781.92 1394.41L1780.08 1392.89L1777.76 1391.61L1775.28 1390.41L1771.28 1388.73L1768.16 1387.21L1765.2 1385.45L1761.52 1382.57L1757.6 1379.21L1751.44 1374.41L1745.2 1370.41" stroke="#C8C8C8" stroke-width="1.92" stroke-miterlimit="10" stroke-linejoin="round"/>
<path d="M1474.96 1568.01L1497.2 1565.85C1502.82 1565.03 1510.44 1559.64 1513.6 1555.05L1543.04 1517.77L1546.88 1514.57L1551.6 1511.13L1556.56 1508.17L1587.2 1491.45L1589.36 1490.57L1591.44 1490.25L1593.6 1490.33L1595.6 1490.81L1597.28 1491.69L1621.2 1509.21L1639.44 1522.49" stroke="#C8C8C8" stroke-width="1.92" stroke-miterlimit="10" stroke-linejoin="round"/>
<path d="M1658.48 1534.49L1654.96 1533.21C1650.38 1532.07 1648.15 1532.1 1644.4 1535.37L1643.12 1536.97L1641.92 1539.85L1640.8 1541.69L1630.16 1551.85L1604.88 1575.93L1601.44 1578.25L1599.28 1579.29L1596.16 1580.01L1581.92 1580.49L1565.44 1580.97" stroke="#C8C8C8" stroke-width="1.92" stroke-miterlimit="10" stroke-linejoin="round"/>
<path d="M1639.44 1522.49L1640.64 1523.61L1641.6 1524.73L1643.6 1529.21L1643.84 1531.37V1533.37L1643.6 1535.21L1643.12 1536.97" stroke="#C8C8C8" stroke-width="1.92" stroke-miterlimit="10" stroke-linejoin="round"/>
<path d="M1658.48 1534.49L1684.64 1546.73" stroke="#C8C8C8" stroke-width="1.92" stroke-miterlimit="10" stroke-linejoin="round"/>
<path d="M1639.44 1522.49L1642.4 1524.65L1648.8 1529.29L1651.2 1530.89L1654.24 1532.49L1658.48 1534.49" stroke="#C8C8C8" stroke-width="1.92" stroke-miterlimit="10" stroke-linejoin="round"/>
<path d="M1555.44 1818.09L1552.32 1821.21L1551.12 1824.25L1553.68 1833.61L1555.84 1836.81L1559.76 1837.85L1578.64 1837.69" stroke="#C8C8C8" stroke-width="1.92" stroke-miterlimit="10" stroke-linejoin="round"/>
<path d="M1472.16 1869.69L1474.48 1868.65L1477.36 1868.73L1480.08 1869.85L1482 1871.93L1482.48 1874.89L1482.72 1873.53L1483.6 1867.93L1484.72 1865.13L1486.56 1862.81L1489.6 1860.41L1493.04 1858.01" stroke="#C8C8C8" stroke-width="1.92" stroke-miterlimit="10" stroke-linejoin="round"/>
<path d="M1477.52 1906.97L1482.48 1874.89" stroke="#C8C8C8" stroke-width="1.92" stroke-miterlimit="10" stroke-linejoin="round"/>
<path d="M1026.88 1953.05L1052.4 1938.57L1058.64 1933.45L1062.8 1926.57L1075.28 1903.85" stroke="#C8C8C8" stroke-width="1.92" stroke-miterlimit="10" stroke-linejoin="round"/>
<path d="M1075.44 1813.85L1097.84 1830.73L1100.72 1834.49L1102.08 1838.97L1102.56 1846.09" stroke="#C8C8C8" stroke-width="1.92" stroke-miterlimit="10" stroke-linejoin="round"/>
<path d="M1836.56 1703.21L1830 1686.73L1829.6 1684.41L1829.68 1682.49L1830.24 1680.57L1831.2 1679.21L1832.08 1678.41" stroke="#C8C8C8" stroke-width="1.92" stroke-miterlimit="10" stroke-linejoin="round"/>
<path d="M1846.48 1725.77L1840.48 1743.29L1840.16 1744.41L1839.28 1749.05L1838.96 1752.25L1838.88 1755.69V1757.93L1839.2 1759.21L1840.08 1760.97C1842.79 1764.51 1847.85 1764.35 1851.36 1766.81L1852.96 1767.77L1854.96 1769.77" stroke="#C8C8C8" stroke-width="1.92" stroke-miterlimit="10" stroke-linejoin="round"/>
<path d="M1818.08 1827.37L1819.84 1830.33L1822.64 1833.21L1824.56 1834.25L1827.12 1835.37L1830.24 1836.25L1832.96 1836.57L1835.12 1836.09L1837.44 1835.13L1839.2 1834.09L1853.44 1823.21" stroke="#C8C8C8" stroke-width="1.92" stroke-miterlimit="10" stroke-linejoin="round"/>
<path d="M2060.88 1807.29L2062.72 1803.05L2063.04 1799.77L2059.92 1767.05" stroke="#C8C8C8" stroke-width="1.92" stroke-miterlimit="10" stroke-linejoin="round"/>
<path d="M2253.04 1695.21L2231.68 1683.69L2225.6 1681.61L2220.16 1681.69L2213.6 1684.41L2208.24 1689.29L2205.44 1695.85L2187.2 1735.61L2182.72 1742.41L2176.48 1747.53L2168.96 1750.65L2125.44 1765.93" stroke="#C8C8C8" stroke-width="1.92" stroke-miterlimit="10" stroke-linejoin="round"/>
<path d="M1957.76 2022.57L1972.64 2000.25L1973.92 1997.53C1977.25 1988.11 1965.15 1983.72 1970 1976.01L1971.04 1974.33L1971.84 1972.09L1972 1969.93L1971.84 1966.89L1970.88 1964.41L1969.52 1962.33L1964.08 1956.57L1962.32 1954.73L1960.56 1953.21L1958.4 1951.85L1955.6 1950.89L1953.52 1950.57L1949.6 1950.25L1953.36 1950.17L1958.48 1949.93L1963.04 1949.45L1968.16 1949.05L1973.84 1948.81L1976.56 1948.57L1978.24 1948.33L1979.44 1947.93L1981.52 1947.05L1983.04 1945.93L1984 1944.81L1984.56 1943.45L1992.8 1917.93" stroke="#C8C8C8" stroke-width="1.92" stroke-miterlimit="10" stroke-linejoin="round"/>
<path d="M1912.48 1951.53L1919.28 1948.49L1921.2 1948.25L1923.2 1948.33L1925.6 1948.65L1927.52 1949.29L1929.76 1950.33L1931.68 1950.81L1933.68 1951.05H1935.68L1938.64 1950.89L1942.48 1950.41L1945.92 1950.09L1949.6 1950.25" stroke="#C8C8C8" stroke-width="1.92" stroke-miterlimit="10" stroke-linejoin="round"/>
<path d="M1959.92 2262.65L1949.2 2248.65L1948.48 2247.77L1947.84 2246.09L1947.12 2243.21L1947.44 2240.89L1948.16 2238.57L1949.44 2236.65L1961.92 2223.21L1979.68 2204.17L1981.28 2202.41L1982.48 2200.65L1983.36 2198.73L1983.68 2197.13L1983.92 2195.21L1984 2192.09L1984.24 2178.17L1984.08 2174.65L1983.76 2172.57L1982.96 2170.41L1981.84 2168.65L1980.72 2167.05L1979.28 2165.69" stroke="#C8C8C8" stroke-width="1.92" stroke-miterlimit="10" stroke-linejoin="round"/>
<path d="M1730.08 1964.09L1737.92 1952.65L1739.2 1949.45L1739.28 1945.93L1739.12 1939.21L1739.44 1936.73L1740.56 1930.41L1745.84 1898.01L1746.48 1895.85L1747.92 1893.13L1750.08 1890.25L1752.64 1887.61L1756 1885.21L1760 1883.37L1764.4 1882.65L1770.88 1882.17" stroke="#C8C8C8" stroke-width="1.92" stroke-miterlimit="10" stroke-linejoin="round"/>
<path d="M1708.32 1739.53L1706.8 1741.93L1704.88 1743.69L1702 1745.93L1693.04 1751.85L1677.76 1761.77L1674.48 1764.25L1672.88 1767.53L1671.92 1770.73L1669.92 1786.89L1667.84 1800.65L1666.72 1805.93L1665.28 1809.93L1662.48 1812.97L1648 1824.01L1646.56 1825.53L1645.52 1827.45L1645.12 1829.29L1645.44 1831.93L1646.64 1834.25L1648.72 1835.77L1651.92 1836.41L1654.8 1835.85L1657.76 1834.01L1660.4 1831.85L1663.92 1829.93" stroke="#C8C8C8" stroke-width="1.92" stroke-miterlimit="10" stroke-linejoin="round"/>
<path d="M1648 1824.01L1643.6 1826.17H1640.88L1638 1824.89" stroke="#C8C8C8" stroke-width="1.92" stroke-miterlimit="10" stroke-linejoin="round"/>
<path d="M1555.44 1818.09L1563.92 1814.73L1569.2 1813.85L1605.84 1812.25L1611.84 1812.01L1617.84 1812.65L1623.6 1814.49L1628.8 1817.53L1643.76 1829.53L1647.2 1831.45L1650.4 1831.69L1655.28 1831.37" stroke="#C8C8C8" stroke-width="1.92" stroke-miterlimit="10" stroke-linejoin="round"/>
<path d="M798.08 568.647L795.52 569.927L793.84 571.207L792.56 573.047L792 574.407L791.52 576.807L794.8 606.167L799.6 658.807L803.52 709.767L804.08 718.647L803.68 724.727L802.72 730.886L801.44 736.327L799.28 742.646L796.8 747.926L794.16 752.326L791.76 756.166L789.68 758.886L787.04 761.766L784.48 764.646L781.2 767.366L778.88 769.286L776.8 770.806L774 772.566L771.2 774.406L768 777.046L764.32 780.566L760.08 785.126L757.2 788.726L753.52 793.926L705.28 879.126C695.438 894.869 699.21 915.833 710 930.086L717.44 938.406" stroke="#C8C8C8" stroke-width="1.92" stroke-miterlimit="10" stroke-linejoin="round"/>
<path d="M845.12 1460.97L868.24 1429.69L873.52 1422.65L876.56 1416.33L877.28 1410.49L876 1398.25" stroke="#C8C8C8" stroke-width="1.92" stroke-miterlimit="10" stroke-linejoin="round"/>
<path d="M1195.52 1517.93L1195.92 1513.45L1197.28 1510.65L1199.84 1509.05L1202.88 1508.25L1207.92 1509.45" stroke="#C8C8C8" stroke-width="1.92" stroke-miterlimit="10" stroke-linejoin="round"/>
<path d="M1197.76 1530.17L1197.52 1529.21L1195.52 1517.93" stroke="#C8C8C8" stroke-width="1.92" stroke-miterlimit="10" stroke-linejoin="round"/>
<path d="M1864.56 1798.89L1861.36 1797.61C1851.48 1794.14 1839.44 1795.05 1829.28 1795.21H1807.84L1802.8 1794.09" stroke="#C8C8C8" stroke-width="1.92" stroke-miterlimit="10" stroke-linejoin="round"/>
<path d="M1789.2 1790.09L1782.24 1783.13L1762.88 1762.81L1760.32 1759.69L1758.48 1756.73L1740.4 1727.45L1738.08 1724.25L1735.12 1721.69L1731.76 1719.61L1727.76 1718.17L1717.84 1715.29L1690.08 1707.53" stroke="#C8C8C8" stroke-width="1.92" stroke-miterlimit="10" stroke-linejoin="round"/>
<path d="M1715.92 1850.33L1745.12 1868.25L1758 1876.65L1759.68 1877.77L1765.12 1880.33L1770.88 1882.17L1777.6 1883.21L1808.88 1886.81L1811.76 1886.89L1815.84 1886.73L1820.56 1886.09L1876.4 1873.77L1894.72 1869.61L1915.68 1865.13L1918.64 1864.57H1921.76L1924.8 1864.73L1927.84 1865.29L1949.6 1870.09L1952.24 1870.57L1954.72 1870.89C1960.21 1871.41 1965.82 1870.86 1971.04 1869.05L1974.24 1867.77L1979.36 1865.53L1987.28 1861.77L2011.12 1851.61L2015.52 1849.37L2018.48 1847.61L2021.84 1844.97L2062.48 1805.77L2079.68 1789.21L2085.92 1782.97L2091.2 1778.73L2097.2 1775.85L2125.44 1765.93" stroke="#C8C8C8" stroke-width="1.92" stroke-miterlimit="10" stroke-linejoin="round"/>
<path d="M1686.16 1521.69L1660.96 1519.69C1638.95 1518.85 1626.79 1505.2 1609.36 1493.93L1608.24 1493.13L1604.48 1490.49L1600.8 1488.01L1597.36 1486.01L1593.6 1484.01L1590.4 1482.49L1588.8 1481.85L1581.6 1478.73L1579.12 1477.77C1573.91 1475.99 1570.38 1475.65 1564.88 1475.93L1558.8 1476.25L1554.88 1476.49" stroke="#C8C8C8" stroke-width="1.92" stroke-miterlimit="10" stroke-linejoin="round"/>
<path d="M1433.36 332.487L1414.8 338.967C1401.1 344.3 1398.88 342.595 1383.28 340.087L1348.72 334.247" stroke="#C8C8C8" stroke-width="1.92" stroke-miterlimit="10" stroke-linejoin="round"/>
<path d="M1436.32 507.367L1442.8 520.727L1445.44 528.327L1446.4 532.887L1446.72 537.847L1446.88 542.807V548.887L1446.4 552.407L1445.68 555.687L1444.56 560.887L1443.44 564.807L1432.72 594.567L1431.28 598.807L1429.92 604.247L1429.04 611.447L1428.96 623.847L1428.64 645.527L1427.68 718.086L1427.6 725.366L1427.84 732.006L1428.56 738.486L1428.88 744.726L1429.04 750.246L1429.12 756.806" stroke="#C8C8C8" stroke-width="1.92" stroke-miterlimit="10" stroke-linejoin="round"/>
<path d="M1428.08 812.167L1427.36 822.807L1426.48 836.007L1426.24 840.567L1426.08 846.087V860.567" stroke="#C8C8C8" stroke-width="1.92" stroke-miterlimit="10" stroke-linejoin="round"/>
<path d="M1546.16 1024.49L1543.84 1035.77L1500.24 1183.61L1499.36 1189.45V1194.65L1499.92 1199.77L1500.72 1204.25L1501.84 1208.09" stroke="#C8C8C8" stroke-width="1.92" stroke-miterlimit="10" stroke-linejoin="round"/>
<path d="M1814.72 963.927L1832.72 940.087L1851.52 915.047" stroke="#C8C8C8" stroke-width="1.92" stroke-miterlimit="10" stroke-linejoin="round"/>
<path d="M1531.04 1135.05L1530.56 1137.69V1140.17L1532.08 1148.25L1534.08 1156.17L1536.08 1160.65L1538.32 1164.73L1541.92 1168.97" stroke="#C8C8C8" stroke-width="1.92" stroke-miterlimit="10" stroke-linejoin="round"/>
<path d="M1581.28 1010.25L1577.52 1015.93C1570.31 1029.56 1576.53 1027.32 1574.32 1039.05L1573.36 1043.53L1573.68 1048.17L1574.96 1052.89L1577.2 1057.29L1582.4 1064.09L1584.4 1067.13L1585.44 1070.81L1585.28 1075.69L1583.68 1079.69L1580.88 1083.05L1532.96 1132.49L1531.04 1135.05" stroke="#C8C8C8" stroke-width="1.92" stroke-miterlimit="10" stroke-linejoin="round"/>
<path d="M1561.12 1511.05L1558.88 1506.01L1551.68 1486.97" stroke="#C8C8C8" stroke-width="1.92" stroke-miterlimit="10" stroke-linejoin="round"/>
<path d="M1573.68 1528.17L1571.2 1526.97L1568.4 1524.81L1566.16 1521.53L1564.48 1517.93L1563.36 1514.97L1561.12 1511.05" stroke="#C8C8C8" stroke-width="1.92" stroke-miterlimit="10" stroke-linejoin="round"/>
<path d="M1551.68 1486.97L1544.4 1464.81L1543.36 1461.69L1542.72 1458.81L1542.48 1455.85L1542.56 1453.13L1542.88 1449.85" stroke="#C8C8C8" stroke-width="1.92" stroke-miterlimit="10" stroke-linejoin="round"/>
<path d="M1652.64 1268.57L1643.44 1242.57L1642.32 1240.49C1639.89 1233.92 1629.18 1225.65 1622.48 1224.41L1619.36 1223.61L1616.96 1223.21C1605.94 1222.47 1598.55 1219.8 1590.24 1212.25L1572.16 1196.17L1541.92 1168.97" stroke="#C8C8C8" stroke-width="1.92" stroke-miterlimit="10" stroke-linejoin="round"/>
<path d="M1510.16 1140.41L1514.32 1141.77L1518.96 1142.09L1524 1140.49L1528.24 1137.53L1531.04 1135.05" stroke="#C8C8C8" stroke-width="1.92" stroke-miterlimit="10" stroke-linejoin="round"/>
<path d="M1534.32 1312.17L1501.84 1208.09L1501.36 1200.17L1501.92 1192.97L1504.4 1184.09L1509.28 1173.61L1516.32 1160.17L1517.84 1153.61L1516.48 1148.01L1513.2 1143.13" stroke="#C8C8C8" stroke-width="1.92" stroke-miterlimit="10" stroke-linejoin="round"/>
<path d="M1461.2 1104.73L1457.2 1104.01L1449.28 1102.25L1442.4 1097.85L1436.96 1091.77L1412.64 1052.49" stroke="#C8C8C8" stroke-width="1.92" stroke-miterlimit="10" stroke-linejoin="round"/>
<path d="M1490.24 1122.49L1480.4 1113.69L1478.48 1111.93L1475.04 1109.45L1470.32 1106.97L1465.2 1105.37L1461.2 1104.73" stroke="#C8C8C8" stroke-width="1.92" stroke-miterlimit="10" stroke-linejoin="round"/>
<path d="M1510.16 1140.41L1499.28 1130.65L1490.24 1122.49" stroke="#C8C8C8" stroke-width="1.92" stroke-miterlimit="10" stroke-linejoin="round"/>
<path d="M1513.2 1143.13L1510.16 1140.41" stroke="#C8C8C8" stroke-width="1.92" stroke-miterlimit="10" stroke-linejoin="round"/>
<path d="M1428.32 1197.61L1432.88 1195.29L1437.44 1190.89L1449.44 1178.25L1453.52 1171.61" stroke="#C8C8C8" stroke-width="1.92" stroke-miterlimit="10" stroke-linejoin="round"/>
<path d="M1471.84 1123.29L1474.88 1120.41L1479.36 1119.29L1485.04 1120.25L1490.24 1122.49" stroke="#C8C8C8" stroke-width="1.92" stroke-miterlimit="10" stroke-linejoin="round"/>
<path d="M1453.52 1171.61L1471.84 1123.29" stroke="#C8C8C8" stroke-width="1.92" stroke-miterlimit="10" stroke-linejoin="round"/>
<path d="M1452.4 1193.69L1449.76 1186.73L1450.08 1181.85L1453.52 1171.61" stroke="#C8C8C8" stroke-width="1.92" stroke-miterlimit="10" stroke-linejoin="round"/>
<path d="M892.72 523.607L900.64 520.167L909.2 520.807L940.64 529.847L944.8 532.327L947.36 536.407L952.24 564.407" stroke="#C8C8C8" stroke-width="1.92" stroke-miterlimit="10" stroke-linejoin="round"/>
<path d="M1418.08 1496.25L1412.88 1490.01L1410.72 1487.77L1408.48 1486.65L1406.08 1485.93L1403.76 1485.85M1434.72 1890.65L1435.92 1892.33L1437.84 1893.77L1440.08 1894.49L1442.4 1894.41L1444.4 1893.37M1277.92 685.934L1282.24 688.894L1284.08 690.734L1285.28 692.654L1286.32 694.814L1286.48 696.574L1286.72 697.614L1286.56 700.894M1141.28 655.054L1158.48 687.294L1160.72 692.334L1166.4 706.334L1169.6 714.894L1170.64 717.214L1171.84 719.134L1173.44 721.214L1175.2 722.414L1177.6 723.774L1180.8 724.494L1183.2 725.054L1185.36 726.414L1187.44 728.094L1188.88 729.694L1190.64 732.894L1198.96 747.054L1200.56 750.174L1201.44 752.414L1201.92 754.254L1202.16 756.654L1201.92 759.694L1200.64 769.214L1198.96 783.934L1198.32 786.974L1197.36 790.334L1195.68 793.454L1194.24 795.454L1192.72 797.054L1188.24 800.654M862.717 558.574L861.597 557.054L861.037 554.894L860.957 552.974L861.277 550.734L861.917 549.454L863.277 547.774L866.397 544.574M1802.79 1794.09L1808.55 1796.81L1810.71 1800.25L1811.83 1803.85L1816.71 1824.17L1819.83 1831.69L1822.15 1836.17L1825.03 1839.85M951.437 1678.65L951.997 1683.05L950.637 1687.29L948.237 1689.77L945.037 1691.13L941.757 1691.77M1182.32 986.573L1201.52 1014.65L1206 1020.25L1210.64 1023.21L1217.6 1025.93L1267.92 1041.13L1272.8 1043.53L1276.48 1047.45L1279.36 1053.05L1280.72 1059.77L1288.08 1105.77L1290.24 1113.13L1292.56 1117.29L1295.2 1120.25L1299.04 1123.13L1336.72 1150.65L1340.48 1154.17L1342.32 1158.97L1343.6 1164.01L1346.4 1168.25L1350 1171.05L1355.44 1172.73L1361.52 1171.85M1428.32 1197.61L1433.52 1196.17L1439.76 1195.37L1446 1196.09L1451.84 1198.41L1456.24 1201.45L1458.08 1202.81M1555.84 1340.97V1339.45L1556 1337.93L1556.56 1335.21L1557.68 1333.45L1559.2 1332.01L1562.4 1329.93L1576.72 1320.73L1579.91 1317.77L1582.72 1313.69L1610.31 1269.45L1614.72 1262.89L1617.59 1259.93L1621.03 1257.69L1624.4 1256.17L1629.35 1254.25L1649.19 1246.41L1652.95 1244.49L1655.83 1242.41L1658.47 1239.85L1660.95 1236.33L1664.15 1231.13" stroke="black" stroke-width="4.71999" stroke-miterlimit="10" stroke-linejoin="round" stroke-dasharray="1.36 4"/>
<path d="M1637.19 1832.81L1639.43 1833.13H1643.75L1655.27 1831.37L1663.91 1829.93M1614.87 666.494L1610.31 669.054L1607.99 673.774L1608.15 676.814L1609.27 682.014M1801.35 1840.89L1797.75 1842.33L1794.47 1844.33L1791.43 1846.17M1801.35 1840.89L1813.67 1839.05L1815.59 1838.81L1818.79 1838.33L1822.23 1838.57L1825.03 1839.85L1821.83 1837.53L1819.91 1835.37L1818.63 1834.01L1816.07 1832.49L1813.19 1830.09L1810.39 1826.41L1809.11 1823.29L1808.47 1820.33L1808.23 1817.77L1808.07 1814.73M1801.35 1840.89L1794.07 1842.01L1735.11 1850.97L1726.55 1852.17L1718.47 1851.05L1715.91 1850.33M157.039 2099.13L143.599 2086.73L141.919 2084.65L140.479 2082.17L139.679 2079.77L139.759 2077.05V2073.85L140.319 2071.29L141.119 2068.57L147.039 2046.57L150.239 2034.25L151.759 2028.65L153.199 2023.29L154.079 2019.77L154.959 2016.57L155.919 2013.85L157.199 2011.29L161.759 2003.13L169.999 1988.81L175.758 1978.49L177.438 1975.69L178.478 1973.45L179.518 1970.65L180.238 1967.69L180.398 1964.89L180.238 1962.09L179.838 1958.73L179.198 1956.41L178.078 1953.93L175.358 1948.25L174.478 1946.25L173.679 1944.09L173.198 1942.17L172.799 1939.85L172.719 1937.77L172.799 1935.45L173.038 1933.85L175.758 1904.17L176.078 1901.53L176.478 1899.29L177.198 1897.05L178.158 1894.97L179.198 1893.13L180.238 1891.45L181.918 1889.29L195.038 1874.89L197.358 1872.33L199.198 1870.65L201.038 1869.37L202.638 1868.33L204.238 1867.61L206.558 1866.65L214.078 1863.93L216.558 1862.97L219.998 1862.01L222.798 1861.85L226.078 1862.01L228.638 1862.33L230.878 1862.89L233.678 1864.25L235.918 1865.53L237.838 1866.57L239.838 1867.37L241.518 1867.93L243.518 1868.49L245.998 1868.73L257.998 1870.17L260.478 1870.25L263.598 1870.09L265.678 1869.61L267.678 1869.13L269.918 1868.17L271.438 1867.53L298.238 1855.05M551.758 1641.93L555.518 1629.77L556.078 1627.45L556.318 1625.21L556.158 1623.29L555.838 1621.21L555.278 1619.61L550.798 1609.05L549.358 1605.29M586.157 1573.61L587.997 1578.57L589.917 1581.37L591.597 1583.05L594.077 1585.13L609.757 1598.49L625.277 1611.77L627.437 1613.53L629.917 1614.97L633.997 1616.73L636.637 1617.29L640.557 1617.45L645.037 1617.21M653.917 1292.33L652.157 1290.73L650.397 1289.05L649.277 1287.61L647.837 1285.77L646.557 1283.45L645.917 1281.37L645.037 1277.05M563.198 231.535L546.078 237.055L544.158 237.775L541.438 239.135L537.838 241.295L535.038 243.295L530.878 247.295L528.478 250.255L526.158 253.535L523.918 257.135L523.198 258.895L522.398 260.735L521.278 264.015L520.478 267.055L519.838 271.135L519.758 274.815L519.998 278.975L521.038 284.415L522.238 288.255L524.158 292.815L532.078 311.535L556.158 368.895L559.998 378.255L562.078 383.775L563.278 387.455L563.918 390.735L564.238 393.775V396.655L564.078 400.015L563.598 403.295L562.158 408.095L560.398 412.175L558.558 415.135L556.398 417.935L545.918 430.655L543.678 433.535L541.758 436.815L540.318 440.495L539.438 443.695L538.798 448.014V451.775L539.198 455.775L540.158 459.694L541.118 462.495L542.798 465.935L545.358 469.694L546.798 471.295L548.238 472.734L548.798 473.374L552.878 477.374L565.198 489.535L568.397 493.454L570.797 497.774L572.637 503.535L573.358 507.694L573.678 510.335L573.918 512.494L573.998 514.734L574.077 519.935L573.998 523.374L573.758 526.894L572.957 533.374M565.518 584.494L566.078 581.854L567.038 576.814L568.158 571.374L569.038 566.254L569.678 562.014L570.477 553.694M567.678 881.133L567.038 888.494L566.797 894.254L567.358 897.933L568.397 901.054L570.717 904.653L573.198 907.133L576.477 909.054L580.157 910.414L599.517 915.853L642.077 928.253L657.997 932.813L661.597 933.613L666.557 933.933L671.677 933.853L698.477 931.533H702.317L705.437 931.773L707.997 932.413L710.477 933.373L712.557 934.413L714.477 935.773L717.437 938.413L721.037 942.333L757.037 982.333L780.317 1008.17M845.197 557.054L852.717 555.374L856.637 555.454L860.237 556.814L862.717 558.574L864.317 560.574L865.597 562.654L866.237 564.335L866.717 567.054L866.797 569.854L865.997 572.414L865.117 573.694L858.957 580.814L857.997 582.014L856.637 584.094L854.797 587.694L853.597 591.694L852.957 594.814L852.717 598.734L852.797 603.454L853.517 610.494L853.997 615.054L854.077 620.254L853.997 623.374L853.597 626.254L852.877 628.974L851.437 631.774L849.517 634.494L839.677 645.774L837.677 648.094L835.597 650.974L834.157 653.534L832.557 656.894L831.997 659.694L831.917 662.814L831.597 677.774L831.517 681.774L831.117 685.534L829.757 689.614L793.037 758.494L791.437 761.534L789.757 764.094L787.277 766.734L784.797 768.734L782.557 770.094L779.677 772.014L776.477 773.534L774.237 774.814L771.517 776.894L769.277 779.294L765.517 783.934L760.957 789.774L759.197 792.494L757.677 795.454L756.877 798.734L756.317 801.934L754.797 830.894L754.397 836.094L754.477 838.094L754.877 840.254L755.597 842.894L757.117 845.694L759.357 848.094L761.757 849.854L765.037 851.454L767.917 851.934L771.037 852.174L774.637 852.574L777.997 852.974L780.637 853.454L782.877 854.094L784.957 854.974L831.357 878.014L834.877 879.453L838.157 880.254L843.517 880.654L861.357 880.254L870.477 880.014L874.717 880.494L878.797 882.093L888.237 887.374L909.597 899.694L912.317 901.534L913.997 903.293L915.997 906.013L917.357 908.653L925.997 934.173L927.197 935.693L927.917 936.093L930.077 937.213L932.157 937.693L936.397 937.453L939.517 936.333M1373.36 1687.61L1374.8 1691.77L1374.4 1696.89L1374.16 1705.13M1374.16 1705.13L1376.48 1701.77L1379.6 1699.21L1383.36 1697.45L1386.96 1696.41L1392.8 1696.01L1396 1696.33M1374.16 1705.13L1367.36 1724.33L1349.36 1772.97L1348.32 1776.49L1348.16 1780.17L1348.4 1783.85L1352.56 1814.57L1353.6 1820.41L1355.12 1824.01L1357.6 1826.97L1360.8 1829.21L1377.52 1839.29L1381.04 1841.45L1384 1844.33L1386.08 1847.93L1390.48 1860.41L1392.24 1864.49L1394.56 1867.77L1397.44 1870.49L1400.88 1872.57L1430.8 1886.25L1433.12 1888.17L1434.72 1890.65L1435.52 1893.45L1435.04 1896.89L1432.88 1899.61L1430.64 1900.81M1405.92 1936.57L1404.32 1919.45L1404.48 1915.61L1405.44 1911.13L1408.08 1906.33L1412.4 1904.25L1415.52 1903.37M1863.83 1737.53L1845.51 1743.93L1843.83 1744.57L1842.71 1745.21L1841.43 1746.09L1830.79 1755.29L1823.75 1761.45L1815.27 1768.81L1812.63 1771.69L1810.63 1774.57L1808.95 1778.09L1807.59 1781.69L1806.79 1786.65V1791.69L1806.87 1792.49M1802.79 1794.09L1797.67 1793.05L1791.43 1790.97L1789.19 1790.09L1787.99 1789.61L1785.11 1788.33L1781.99 1787.61L1778.07 1787.53L1773.75 1787.21L1770.39 1786.41L1754.87 1781.13L1751.27 1779.85L1748.71 1779.29H1746.15L1743.11 1780.41L1737.27 1782.01L1730.63 1784.09L1727.67 1784.49L1722.79 1784.41L1719.51 1783.77L1716.47 1782.49L1713.51 1780.89L1710.87 1778.81L1708.07 1775.77L1706.15 1772.89L1704.71 1769.85L1703.75 1766.57L1703.43 1764.17L1703.51 1758.57L1703.99 1756.17L1708.31 1739.37L1709.27 1735.77L1709.03 1732.89L1708.23 1729.85L1706.79 1726.73L1702.55 1717.61L1699.27 1713.85L1690.07 1707.53L1683.83 1705.77L1677.91 1704.17L1674.31 1702.65L1670.87 1700.01L1667.83 1696.33L1655.19 1675.45M2346.79 1893.85L2357.19 1901.85L2359.27 1903.69L2360.71 1905.61L2361.35 1908.01L2361.43 1910.81L2360.79 1913.05L2352.39 1930.65M1946.23 1642.49L1949.67 1642.09L1983.19 1637.77M1946.23 1642.49L1943.27 1642.33L1940.95 1641.53L1937.83 1639.37L1935.19 1635.45L1934.55 1632.57L1934.71 1629.05L1935.59 1626.57L1937.11 1624.33L1939.03 1622.49L1968.87 1595.93L1971.19 1593.45L1972.15 1591.69L1972.95 1589.93L1973.27 1588.01L1973.43 1585.61L1973.27 1583.37L1972.79 1581.37L1971.99 1579.69L1971.11 1577.85L1969.91 1575.93L1968.39 1573.61L1957.59 1556.89L1955.43 1553.61L1954.39 1550.97L1953.83 1547.85L1953.67 1544.65L1953.51 1541.53L1953.03 1538.41L1952.31 1531.77L1951.59 1528.89L1950.63 1526.89L1949.19 1524.89L1947.27 1523.05L1945.35 1521.61L1941.27 1519.21L1924.15 1510.57L1921.19 1508.81L1919.51 1507.69L1917.67 1506.25L1916.39 1505.05L1914.55 1503.21L1913.03 1501.05L1911.91 1499.13L1910.79 1497.13L1909.99 1495.93L1908.79 1494.41L1906.63 1492.33L1903.99 1490.25L1900.55 1488.49L1896.95 1487.29L1893.59 1486.73H1891.35L1889.35 1486.81L1886.87 1487.29L1885.03 1487.85L1882.71 1488.73L1880.79 1489.77L1878.95 1490.97L1866.39 1501.21L1864.71 1503.05L1863.27 1505.13L1862.07 1507.05L1860.63 1510.25L1859.75 1512.41L1858.23 1514.81L1856.79 1516.57L1854.55 1518.57L1852.31 1520.09L1849.91 1521.21L1817.59 1531.05L1814.79 1531.45H1811.35L1807.75 1530.65L1805.19 1529.69L1788.47 1519.69M1946.23 1642.49L1939.35 1643.45H1936.23L1933.03 1642.25L1893.27 1616.57L1889.99 1615.21L1887.19 1614.73L1883.51 1615.37L1880.63 1616.65L1878.39 1618.41L1876.39 1620.81L1875.27 1622.89L1874.47 1625.77L1866.55 1653.85L1865.67 1656.81L1864.39 1659.85L1862.87 1661.93L1860.71 1664.25L1858.63 1665.93L1855.75 1667.45L1840.95 1673.29L1832.07 1678.41L1825.11 1682.41M1431.36 1484.17L1422.72 1486.65L1420.4 1488.41L1418.64 1490.65L1418 1494.01L1418.08 1496.25L1420.32 1498.97L1423.2 1502.81L1423.84 1506.89L1423.52 1512.97L1418.08 1561.29L1417.76 1566.01L1418.24 1570.25L1419.12 1573.77L1420.96 1577.37L1430.32 1589.85L1432.8 1593.37L1434.24 1596.57L1435.36 1599.85L1435.76 1603.37L1435.52 1607.37L1434.8 1610.89L1433.68 1614.25L1427.92 1626.57L1426.64 1629.85L1425.76 1633.29L1425.44 1636.81L1428.32 1672.09M1111.92 618.494L1109.36 613.214L1108.16 609.214L1107.6 606.174L1108.72 602.734L1110.88 600.334L1114.24 598.174L1117.68 596.974L1120.96 596.094L1124.96 596.014L1128.64 596.254L1131.68 596.974L1134.56 598.334L1137.12 599.694L1140 601.934L1177.04 636.814" stroke="black" stroke-width="4.71999" stroke-miterlimit="10" stroke-linejoin="round" stroke-dasharray="1.36 4"/>
<path d="M985.996 409.935L986.636 411.135L987.836 412.975L989.676 414.734L991.516 415.855L993.836 416.734L995.756 416.975L997.756 417.054L1001.12 416.734M1277.92 685.934L1283.2 686.334L1286.16 686.014L1288.88 684.974L1291.2 683.294L1292.96 681.854L1294.72 679.614M392.958 1153.61L393.678 1155.37L394.798 1156.97L396.558 1158.89L398.318 1160.09L399.998 1160.73L401.518 1161.13H403.678M1845.03 965.133L1837.51 959.133L1835.51 957.853L1833.03 956.813L1831.11 956.413L1828.71 956.173L1826.15 956.333L1824.23 956.813L1821.83 957.853L1820.07 958.893L1818.39 960.413L1814.71 963.933M1507.91 1479.45L1511.75 1478.01L1514.31 1476.41L1537.91 1458.33L1539.83 1456.33L1541.19 1454.33L1542.47 1451.61L1542.87 1449.85M547.277 1577.69L548.477 1597.13L548.637 1601.29L548.957 1604.01L549.357 1605.29L551.197 1608.73L551.917 1609.53L553.037 1610.57L554.317 1611.53L555.837 1612.33L557.757 1612.97L561.117 1613.85L570.637 1616.33L592.957 1621.85L597.037 1622.57M565.517 1629.05L577.437 1622.97L583.517 1621.45L589.037 1621.61L597.037 1622.57M597.037 1622.57L600.557 1622.89H605.677L609.517 1622.65L613.757 1622.01L645.037 1617.21M687.677 1951.61L670.317 1950.25L664.157 1949.29L658.237 1945.85L652.797 1940.65L648.397 1934.57L648.157 1934.17L625.997 1902.89L612.477 1884.25L600.557 1867.69L598.717 1865.29L597.197 1863.53L595.197 1861.29L592.797 1859.05L590.877 1857.37L588.797 1855.69L583.677 1851.29L581.997 1849.93L577.117 1845.93L571.997 1841.69L569.357 1839.37L566.957 1836.57L565.117 1834.17L563.437 1830.65L561.117 1825.93L560.557 1823.53L560.477 1823.05L560.077 1820.89L559.917 1819.61L559.757 1817.37L559.597 1814.57L559.037 1807.21M1430.64 1900.81L1433.76 1899.69L1436.56 1898.09L1439.76 1896.33L1442.8 1894.49L1444.4 1893.37M1794.71 1777.69L1801.35 1784.81L1804.63 1788.41L1805.75 1789.85L1806.47 1791.29L1806.87 1792.49M1107.52 1805.45L1110.8 1812.01L1111.92 1817.61V1822.97L1110.32 1829.69L1114.64 1823.37L1119.28 1819.13L1123.76 1816.73L1126.56 1815.77M1585.27 1528.89L1579.75 1529.69L1575.99 1532.41L1573.75 1535.61L1572.15 1539.29M1356.88 334.015L1433.36 332.495M1791.91 1493.93L1786.23 1496.73L1782.79 1495.45L1779.99 1492.33M639.997 1296.17L641.517 1294.33L641.837 1293.85L643.277 1292.33L645.517 1290.97L647.917 1290.41L650.077 1290.81L653.917 1292.33L677.677 1312.49L680.317 1314.57L682.797 1316.01L685.037 1317.21L687.517 1318.09L689.837 1319.05L691.597 1320.41L693.837 1322.49L695.917 1326.17L696.797 1329.69L697.997 1343.61L699.277 1347.85L701.757 1351.53L704.157 1353.77L707.037 1355.45L711.677 1356.49L760.877 1364.33L787.357 1368.49L790.797 1369.05L796.397 1369.29L802.797 1367.69L808.397 1364.17L812.717 1359.13L815.757 1353.21L816.397 1347.29L816.637 1331.85L818.237 1324.73L821.997 1317.61L827.917 1310.81L834.237 1306.81L841.277 1304.25L849.677 1303.45L857.517 1304.89L935.356 1336.65L941.916 1338.57L950.876 1340.25L986.156 1346.89L990.316 1348.65L994.396 1351.45L1000.4 1355.93L1004.32 1358.01L1008.56 1359.13L1013.6 1359.37L1018.56 1358.65L1023.84 1356.49L1033.2 1352.97L1037.6 1352.81L1041.2 1353.85L1048.4 1358.25L1053.2 1360.81L1057.2 1361.37L1059.28 1360.97" stroke="black" stroke-width="4.71999" stroke-miterlimit="10" stroke-linejoin="round" stroke-dasharray="15.84 5.28"/>
<path d="M403.678 1161.13L400.718 1162.25L397.438 1164.01L382.238 1173.61L384.798 1171.05L387.438 1167.85L389.278 1165.05L390.478 1163.05L391.518 1160.57L392.318 1157.69L392.958 1154.81V1153.61V1151.93L392.798 1148.09L392.318 1145.69L391.518 1142.81L389.918 1139.29L387.838 1135.93L385.998 1133.85L379.198 1126.49L377.278 1124.33L375.518 1121.53L374.158 1119.05L372.718 1116.17L370.078 1110.17L362.878 1094.17L361.438 1090.01L359.278 1085.29L356.398 1078.81L352.398 1069.69L345.358 1052.97L344.318 1050.57L342.878 1048.25L340.718 1045.93L337.518 1044.25L333.118 1042.09L267.918 1014.49L265.438 1013.37L262.238 1011.69L259.278 1009.61L257.598 1007.53L256.078 1005.37L253.598 1000.49L246.078 982.413L216.638 914.973L216.478 914.493L199.438 875.453M535.998 1119.93L539.758 1120.09L542.797 1120.65L545.677 1121.61L548.237 1122.89L550.477 1124.33L552.637 1126.01L554.717 1128.17L555.917 1129.77L557.197 1131.77L558.797 1135.37M978.076 439.215L984.476 422.575L985.036 421.055L985.436 420.095L986.476 415.615V413.455L985.996 409.935L984.956 407.055M590.717 569.614L588.317 570.174L584.717 570.334L581.917 570.094L579.517 569.454L577.277 568.494L575.197 566.894L573.277 564.894L571.677 562.254L570.797 560.254L570.397 557.614L570.477 553.694L572.157 539.854L572.957 533.374M913.597 1541.29L884.557 1420.81L882.557 1414.33L879.997 1408.09L875.997 1398.25L874.637 1389.29V1380.33L876.637 1363.45L877.517 1356.25L877.997 1349.77L877.277 1343.37L874.637 1330.73L835.917 1148.01L834.957 1145.13L834.237 1142.81L833.037 1139.85L831.757 1136.65L829.837 1132.49L827.517 1128.73L816.237 1110.73L813.837 1106.81L811.677 1103.13L810.077 1099.61L808.637 1096.17L807.597 1092.81L806.637 1089.29L806.157 1086.17L805.597 1081.93L804.957 1075.69L804.157 1067.05L803.517 1060.33L802.637 1051.21L802.077 1047.45L801.357 1043.85L800.477 1039.93L799.197 1036.41L797.117 1031.53L794.957 1027.13L792.637 1023.05L790.397 1019.61L788.397 1017.13L786.237 1014.65L780.317 1008.17M1279.36 1659.29L1265.84 1658.33L1262.56 1657.53L1258.16 1656.17L1254.8 1654.25L1233.12 1637.69L1229.6 1634.49L1227.36 1631.37L1226.24 1628.57L1224.16 1623.29L1221.84 1618.97L1219.68 1616.49L1216 1613.13L1214.08 1609.77L1212.64 1605.45L1211.76 1600.97L1197.76 1530.17L1196.96 1528.57L1196 1525.61L1193.6 1517.77L1191.04 1512.57L1181.44 1498.81L1180.32 1497.37L1178.4 1495.45L1176.4 1494.17L1173.68 1492.97L1169.92 1492.09L1164.96 1491.53L1158.48 1490.57L1145.28 1487.77M1415.52 1903.37L1430.64 1900.81M1444.4 1893.37L1475.6 1866.73L1479.52 1864.41L1521.84 1844.33L1526 1842.33L1531.43 1838.49L1542.95 1828.09L1555.43 1818.09L1562.55 1814.57L1584.07 1805.53L1587.59 1804.49L1591.19 1804.09L1594.87 1804.49L1598.23 1805.93L1601.19 1808.01L1610.87 1819.61L1613.99 1822.49L1617.59 1824.73L1622.47 1826.73L1637.19 1832.81L1642.79 1835.13L1646.31 1836.81L1648.71 1838.33L1650.87 1840.09L1684.63 1874.09L1688.23 1877.45L1691.27 1879.69L1694.95 1881.69L1699.11 1883.37L1712.31 1886.17L1721.67 1888.17L1725.83 1888.89H1728.63L1730.87 1888.49L1740.31 1883.77L1746.87 1881.29L1752.39 1879.53L1757.03 1878.41M1757.03 1878.41L1723.99 1895.21M1757.03 1878.41L1762.15 1875.77L1764.87 1874.09L1767.27 1872.25L1769.35 1870.41L1772.87 1866.57L1791.43 1846.17L1800.31 1836.49L1803.91 1832.01L1805.99 1827.85L1807.11 1824.17L1807.91 1819.61L1808.07 1814.73L1807.27 1799.77L1806.87 1792.49M1830.79 1755.29L1834.23 1754.01H1836.63L1838.31 1754.65L1840.15 1755.61L1841.67 1756.97L1852.55 1767.13L1854.95 1769.77L1856.55 1772.65L1857.51 1775.61L1857.91 1778.65L1858.31 1784.17L1859.03 1790.33L1859.75 1793.29L1861.27 1795.93L1864.55 1798.89M2346.79 1893.85L2335.99 1885.69L2331.91 1882.57L2329.99 1880.57L2328.31 1878.33L2319.35 1865.29L2315.91 1860.33L2313.35 1857.21L2309.51 1854.49L2305.75 1852.65L2302.07 1852.17L2298.71 1852.25L2293.03 1853.69L2232.71 1873.93L2229.43 1875.13L2226.31 1875.85L2222.71 1876.17L2216.95 1875.93L2213.03 1875.05L2209.43 1873.29L2205.75 1870.97L2191.83 1857.29L2186.55 1851.85L2184.07 1848.97L2181.75 1845.61L2180.23 1842.01L2170.47 1816.57L2165.83 1804.57L2156.31 1780.89L2153.99 1777.53L2151.03 1774.81L2147.35 1773.05L2142.87 1772.49L2137.51 1772.89L2131.19 1774.09M1847.75 1853.85L1825.03 1839.85M1839.27 2245.45L1848.63 2241.77L1851.35 2239.69L1852.71 2237.61L1853.75 2235.61L1854.23 2233.29L1855.27 2222.41L1863.67 2143.13L1868.47 2097.21L1868.79 2099.61L1869.27 2101.13L1869.83 2102.81L1870.63 2104.57L1871.75 2106.09L1873.11 2107.69L1874.31 2108.89L1875.67 2109.93L1877.03 2110.73L1878.79 2111.53L1880.71 2112.33L1882.31 2112.97L1927.75 2130.25L1937.75 2134.09L1941.27 2135.53L1944.23 2137.37L1946.95 2139.29L1950.31 2142.01L1979.27 2165.69L1990.79 2175.21L1999.91 2182.57L2002.31 2184.57L2003.99 2186.41L2005.03 2188.49L2005.99 2191.29L2007.19 2196.49L2007.99 2199.45L2009.35 2201.85L2010.63 2203.53L2012.47 2205.61M1177.04 636.814L1183.2 642.654L1201.68 661.934L1203.76 664.094L1205.76 665.534L1208.72 667.134L1210.96 668.334L1212.96 669.134L1216.4 670.174L1277.92 685.934M1671.11 1215.77L1664.15 1231.13L1657.67 1245.45L1654.23 1253.05L1652.95 1257.93L1652.39 1263.05L1652.63 1268.57M2240.55 1116.57L2208.71 1106.33L2204.47 1104.97L2199.67 1104.33H2194.95L2188.71 1104.17L2183.75 1103.21L2178.71 1101.45L2174.07 1099.21L2169.19 1096.09L2164.15 1093.05L2159.43 1090.57L2154.87 1088.89L2150.39 1087.77L2144.47 1087.21H2137.99L2088.15 1091.13H2083.19L2077.75 1090.73L2072.71 1090.09L2067.67 1089.05L2062.55 1087.61L2058.55 1086.25L2034.71 1077.61L2030.15 1076.33L2025.19 1075.29L2020.23 1074.81L2015.43 1074.97L2010.87 1075.37L2005.83 1076.49L2001.03 1078.09L1995.59 1080.49L1989.43 1084.09L1987.03 1085.85L1985.27 1087.13L1981.59 1089.21L1975.03 1092.09L1969.83 1093.93L1964.39 1095.05L1957.91 1095.69L1952.87 1095.85L1947.03 1095.37L1941.43 1094.49L1934.31 1092.09L1928.55 1089.61L1924.95 1087.77L1922.79 1086.49L1919.43 1083.93M1507.59 341.055L1506.4 333.775L1506.08 332.495L1505.12 330.735L1503.84 329.135L1502.4 327.695L1500.56 326.495L1499.04 325.775L1496.72 325.215L1495.28 325.055L1493.76 324.895L1470.88 323.055L1467.52 322.815L1463.76 322.895L1460.48 323.535L1457.36 324.335L1439.68 330.255L1433.36 332.495M1312.4 328.415L1316.72 331.295L1318.96 332.495L1322 333.455L1324.88 333.695L1327.68 333.535L1330.56 333.055L1333.52 332.575H1336.24L1337.44 332.655L1338.64 332.735L1341.36 333.215L1344.72 333.775L1348.72 334.255L1356.88 334.015M1539.91 656.334L1538.79 653.054L1537.83 650.494L1535.52 646.814L1533.36 645.134L1531.84 644.094L1529.68 643.214L1527.04 642.654L1524 642.574L1521.84 642.894L1519.52 643.694L1517.43 644.814L1510.48 649.694L1496.16 659.614L1492.16 662.654L1488.88 665.694L1486.08 669.054L1462.8 704.814L1454.72 717.054L1452.72 720.094L1451.12 722.014L1449.36 723.854L1447.28 725.534L1444.48 727.214L1439.52 730.014L1436.56 731.454L1434.56 733.214L1431.76 735.934L1429.92 738.494L1428.72 740.894L1428 743.534L1427.76 748.974L1429.12 756.814V757.054L1428.64 783.934L1428.56 792.494M1779.67 831.214L1778.07 832.974L1775.67 835.214L1769.99 839.693L1761.35 846.413L1742.31 861.053L1714.07 883.053L1710.87 886.413L1708.15 890.813L1706.07 895.533L1705.43 898.093L1705.11 901.213L1704.47 905.053L1704.07 907.693L1703.35 910.093L1701.59 914.333L1697.67 918.893L1692.31 921.693L1682.71 924.413L1675.51 929.613L1669.03 937.293L1651.83 967.133L1645.51 975.533L1638.23 980.733L1632.79 982.893L1629.99 983.933L1620.31 986.333L1624.31 986.173L1634.71 987.773L1662.71 992.333L1668.55 993.533L1674.23 995.453L1680.63 998.653L1692.95 1006.25L1698.23 1009.21L1703.11 1011.21L1710.07 1013.05L1715.43 1013.77L1720.79 1013.85L1728.23 1013.61L1733.91 1012.49L1761.35 1006.25L1773.91 1003.21L1779.27 1001.13L1784.15 998.653L1787.99 996.013L1791.43 993.373L1794.63 990.333L1797.59 986.813L1800.47 982.973L1801.91 981.053L1814.71 963.933" stroke="black" stroke-width="4.71999" stroke-miterlimit="10" stroke-linejoin="round" stroke-dasharray="15.84 5.28"/>
<path d="M1145.28 1487.77L1151.28 1489.77L1157.92 1492.01L1161.52 1493.45L1164.8 1495.45L1167.44 1497.61L1171.12 1499.61L1173.92 1500.33" stroke="black" stroke-width="4.71999" stroke-miterlimit="10" stroke-linejoin="round"/>
<path d="M1286.56 700.887L1294.72 679.607" stroke="black" stroke-width="4.71999" stroke-miterlimit="10" stroke-linejoin="round"/>
<path d="M478.64 1123.53L475.68 1123.93L472.72 1124.97L470.56 1126.49L468.64 1128.49L446.72 1154.57" stroke="black" stroke-width="4.71999" stroke-miterlimit="10" stroke-linejoin="round"/>
<path d="M913.6 1541.29L911.36 1537.53L908.08 1534.25L903.76 1531.45L899.84 1530.41L894.32 1530.33C885.052 1530.15 875.395 1533.07 867.28 1527.05L864 1524.33L857.36 1516.09L854 1512.49L851.04 1511.13L847.52 1511.21L830.48 1519.37" stroke="black" stroke-width="4.71999" stroke-miterlimit="10" stroke-linejoin="round"/>
<path d="M1435.84 1152.49L1433.76 1148.01L1432.4 1143.69L1432.56 1137.77L1434.16 1133.37L1436.08 1130.25" stroke="black" stroke-width="4.71999" stroke-miterlimit="10" stroke-linejoin="round"/>
<path d="M564.48 1569.61L606.8 1572.41L654.32 1575.69L683.76 1577.69L688.64 1577.93H691.68L694.64 1577.69L697.6 1577.21L699.52 1576.89L701.36 1576.41L703.36 1575.85L707.52 1574.17L714.72 1570.89L748.16 1555.61L812.879 1525.37L864.719 1501.05" stroke="black" stroke-width="4.71999" stroke-miterlimit="10" stroke-linejoin="round"/>
<path d="M600.399 1212.09L596.639 1209.53L594.399 1208.17L591.519 1206.97L588.639 1205.93L585.439 1205.61L581.119 1204.89L576.559 1204.17L573.679 1203.69L571.599 1203.21L568.479 1202.41L564.479 1200.97L535.999 1190.49L530.719 1188.81L526.639 1187.77L522.319 1186.97L517.679 1186.33L474.8 1182.97L471.12 1182.89L466.96 1183.13L461.6 1184.17L457.2 1185.21C435.978 1192.26 416.238 1210.17 394.8 1216.25L390.64 1217.05L386.96 1217.77C370.942 1220.43 367.364 1220.06 353.12 1228.49L342.96 1233.69L332.64 1239.29L325.92 1243.93L328.4 1241.85L330.24 1240.01L332.56 1236.49L333.6 1233.77L334.8 1229.05L337.36 1217.37L338.32 1213.13L339.2 1211.13L340.8 1208.73L342.48 1206.81L345.44 1203.53L356.4 1191.85L359.92 1188.73L362.24 1186.81L366.24 1183.77L382.24 1173.61" stroke="black" stroke-width="4.71999" stroke-miterlimit="10" stroke-linejoin="round"/>
<path d="M403.68 1161.13L408.08 1159.77C421.399 1157.71 432.289 1164.4 444.24 1156.49L446.72 1154.57" stroke="black" stroke-width="4.71999" stroke-miterlimit="10" stroke-linejoin="round"/>
<path d="M558.4 1099.29L555.92 1105.29L553.44 1109.93L548.24 1115.29L544.16 1117.37L538.56 1119.53L536 1119.93L532.88 1120.17L520.24 1120.97L511.6 1121.45L501.12 1122.17L478.64 1123.53" stroke="black" stroke-width="4.71999" stroke-miterlimit="10" stroke-linejoin="round"/>
<path d="M583.92 1066.41L585.36 1065.37L587.92 1063.93L590.24 1062.81L596.32 1060.25L607.44 1056.33L614.4 1053.77L651.12 1040.65L682.4 1029.05L685.28 1027.77L687.92 1026.49L711.44 1012.49L717.44 1008.97L719.36 1007.85L721.12 1007.13L723.52 1006.17L726.8 1005.05L752.079 997.927" stroke="black" stroke-width="4.71999" stroke-miterlimit="10" stroke-linejoin="round"/>
<path d="M590.72 569.607L620.8 559.047L623.44 557.847L625.92 556.567C628.24 555.218 631.029 553.134 632.8 551.047L637.2 546.807L643.2 541.527C646.633 538.458 650.637 535.983 655.04 534.567L655.2 534.487L658.32 533.687L661.84 533.047L666 532.887C674.164 533.539 683.422 534.374 691.36 536.007L694.16 536.807L696.48 537.527C699.429 538.763 702.458 540.223 705.36 541.607L710.8 544.247L728.32 553.047L760.16 568.967L769.6 572.647L778.559 574.167L780.559 573.927L783.519 573.207L787.279 572.007L793.279 569.847L798.079 568.647L814.799 564.407L832.399 560.327L845.199 557.047L851.599 554.727L857.359 551.527L862.319 547.767L866.319 544.567L932.319 492.167L935.999 489.287L938.879 486.807L962.079 465.847L966.239 461.207L970.479 455.207L973.759 450.247L975.679 445.367L978.079 439.207" stroke="black" stroke-width="4.71999" stroke-miterlimit="10" stroke-linejoin="round"/>
<path d="M951.44 1678.65L957.68 1684.57L962.64 1688.33L987.76 1701.93" stroke="black" stroke-width="4.71999" stroke-miterlimit="10" stroke-linejoin="round"/>
<path d="M913.6 1541.29L940.8 1653.77L943.2 1663.69L946.56 1671.53L951.44 1678.65" stroke="black" stroke-width="4.71999" stroke-miterlimit="10" stroke-linejoin="round"/>
<path d="M941.76 1691.77L946.88 1691.53L950.88 1691.77L955.84 1692.81L987.76 1701.93" stroke="black" stroke-width="4.71999" stroke-miterlimit="10" stroke-linejoin="round"/>
<path d="M645.04 1617.21L662.88 1614.41L676.32 1612.41L680.16 1611.93H684.8L689.36 1612.49L695.28 1614.49L700.24 1617.05L705.52 1621.37L802.72 1705.69L808 1709.37L814.96 1712.01L823.6 1713.85L835.84 1716.41L842.08 1716.81L847.76 1716.57L855.52 1714.73L935.999 1693.37L941.759 1691.77" stroke="black" stroke-width="4.71999" stroke-miterlimit="10" stroke-linejoin="round"/>
<path d="M1075.28 1903.85L1072.32 1912.41L1071.52 1918.89L1072.24 1925.37L1074.56 1932.41L1077.92 1938.49L1082.4 1944.57L1091.44 1954.33L1113.92 1970.65" stroke="black" stroke-width="4.71999" stroke-miterlimit="10" stroke-linejoin="round"/>
<path d="M1102.56 1846.09L1075.28 1903.85" stroke="black" stroke-width="4.71999" stroke-miterlimit="10" stroke-linejoin="round"/>
<path d="M1110.32 1829.69L1102.56 1846.09" stroke="black" stroke-width="4.71999" stroke-miterlimit="10" stroke-linejoin="round"/>
<path d="M1912.72 1828.09L1915.28 1829.61L1920.64 1831.05L1926.96 1830.81L1931.84 1829.93L1941.2 1825.53L1943.76 1824.89L1946.48 1824.81L1948.48 1824.97L1950.64 1825.53L1960.72 1829.05L1963.04 1829.53L1965.68 1829.77H1968.8L1971.6 1829.37L1974.4 1828.73L1992.72 1825.29L1996.64 1824.01L2038.96 1808.65L2042.08 1807.69L2045.2 1807.05L2047.84 1806.81H2050.64L2065.12 1806.65L2067.12 1806.49L2068.48 1806.17L2069.92 1805.53L2071.76 1804.49L2073.92 1803.13L2075.6 1801.13L2081.04 1793.37L2087.2 1784.57L2089.76 1781.69L2092.56 1779.45L2095.52 1777.45L2101.2 1775.13L2109.12 1772.49L2113.04 1772.01C2119.72 1770.96 2119.73 1775.72 2126.16 1775.05L2131.2 1774.09" stroke="black" stroke-width="4.71999" stroke-miterlimit="10" stroke-linejoin="round"/>
<path d="M1912.72 1828.09L1915.36 1830.25L1917.12 1832.57L1918.88 1835.61L1932.24 1857.77L1934.32 1861.29L1937.28 1866.65L1938.16 1868.57L1938.88 1870.25L1939.52 1873.45L1938.88 1877.85L1938 1880.65" stroke="black" stroke-width="4.71999" stroke-miterlimit="10" stroke-linejoin="round"/>
<path d="M1912.48 1951.53L1913.52 1949.29L1917.6 1940.81L1919.36 1937.13L1920.24 1934.41V1930.73L1919.92 1926.49L1920.24 1922.65L1921.36 1919.45L1923.44 1916.09L1928.48 1909.37L1930.4 1905.77L1933.84 1894.41L1938 1880.65" stroke="black" stroke-width="4.71999" stroke-miterlimit="10" stroke-linejoin="round"/>
<path d="M1885.36 2009.13L1912.48 1951.53" stroke="black" stroke-width="4.71999" stroke-miterlimit="10" stroke-linejoin="round"/>
<path d="M1868.48 2097.21L1874.88 2035.85C1875.48 2028.52 1878.71 2023.64 1881.68 2017.05L1885.36 2009.13" stroke="black" stroke-width="4.71999" stroke-miterlimit="10" stroke-linejoin="round"/>
<path d="M1543.6 1616.25L1591.28 1619.37L1597.28 1620.49L1602.24 1622.89L1615.44 1632.57" stroke="black" stroke-width="4.71999" stroke-miterlimit="10" stroke-linejoin="round"/>
<path d="M1512.4 1626.33L1520.4 1620.65L1525.36 1617.93L1532.64 1615.85L1540.24 1616.01L1543.6 1616.25" stroke="black" stroke-width="4.71999" stroke-miterlimit="10" stroke-linejoin="round"/>
<path d="M1565.44 1580.97L1563.36 1581.29C1557.14 1582.11 1551.99 1586.27 1547.76 1590.65L1536.56 1601.85" stroke="black" stroke-width="4.71999" stroke-miterlimit="10" stroke-linejoin="round"/>
<path d="M1571.52 1570.65L1571.84 1573.05L1571.6 1575.21L1570.72 1577.21L1569.04 1579.21L1567.36 1580.41L1565.44 1580.97" stroke="black" stroke-width="4.71999" stroke-miterlimit="10" stroke-linejoin="round"/>
<path d="M1573.68 1528.17L1571.28 1527.85C1566.04 1527.51 1561.63 1533.73 1563.84 1538.57L1571.52 1570.65" stroke="black" stroke-width="4.71999" stroke-miterlimit="10" stroke-linejoin="round"/>
<path d="M1536.56 1601.85L1524 1614.25L1512.4 1626.33" stroke="black" stroke-width="4.71999" stroke-miterlimit="10" stroke-linejoin="round"/>
<path d="M1776.64 1710.73L1825.12 1682.41L1828.48 1679.53C1840.55 1669.16 1845.27 1649.83 1838.32 1635.37L1788.48 1519.69" stroke="black" stroke-width="4.71999" stroke-miterlimit="10" stroke-linejoin="round"/>
<path d="M1001.12 416.727L995.12 421.047L987.44 426.647L984.64 429.207L982.4 431.607L981.04 433.447L978.08 439.207" stroke="black" stroke-width="4.71999" stroke-miterlimit="10" stroke-linejoin="round"/>
<path d="M1427.52 494.647L1436.32 507.367L1537.68 653.767L1539.92 656.327" stroke="black" stroke-width="4.71999" stroke-miterlimit="10" stroke-linejoin="round"/>
<path d="M1304.4 577.847L1305.44 578.887L1308.72 582.967L1312.16 589.047L1315.28 594.887L1317.92 602.327L1318.88 608.247L1319.04 614.247L1318.56 617.687L1317.2 622.007L1315.28 627.687L1294.72 679.607" stroke="black" stroke-width="4.71999" stroke-miterlimit="10" stroke-linejoin="round"/>
<path d="M984.96 407.047L974.4 381.847L943.04 308.087" stroke="black" stroke-width="4.71999" stroke-miterlimit="10" stroke-linejoin="round"/>
<path d="M1398.48 827.287L1400.72 828.807C1410.1 833.103 1416.43 829.016 1422.16 821.527L1428.08 812.167" stroke="black" stroke-width="4.71999" stroke-miterlimit="10" stroke-linejoin="round"/>
<path d="M1162.08 805.767L1164.88 806.807L1167.6 808.487L1169.28 810.727L1171.12 813.607L1171.76 816.647" stroke="black" stroke-width="4.71999" stroke-miterlimit="10" stroke-linejoin="round"/>
<path d="M1137.92 824.647L1148.48 810.407C1150.69 806.716 1155.2 804.959 1159.36 805.207L1162.08 805.767" stroke="black" stroke-width="4.71999" stroke-miterlimit="10" stroke-linejoin="round"/>
<path d="M912.32 955.767L922.8 949.767L927.92 946.727L932.96 942.967L935.92 940.327L939.2 936.727L939.52 936.327" stroke="black" stroke-width="4.71999" stroke-miterlimit="10" stroke-linejoin="round"/>
<path d="M1575.52 1523.29L1576.08 1519.05L1576.56 1513.13L1577.12 1505.77V1502.65L1576.64 1498.33L1575.84 1495.29L1574.4 1491.45L1573.12 1488.89C1570.44 1484.67 1567.28 1481.14 1562.72 1478.89L1559.44 1477.53L1554.88 1476.49L1551.52 1476.65L1534.24 1477.77L1507.92 1479.45" stroke="black" stroke-width="4.71999" stroke-miterlimit="10" stroke-linejoin="round"/>
<path d="M1286.56 700.887L1265.12 755.607L1264.56 757.047L1263.44 759.207L1262.4 761.207L1261.28 762.647L1260 764.327L1257.6 766.487L1255.2 768.487L1252.8 770.007L1242.48 774.807L1235.28 778.407L1231.2 780.167L1226.24 782.087L1222.4 783.687" stroke="black" stroke-width="4.71999" stroke-miterlimit="10" stroke-linejoin="round"/>
<path d="M945.84 927.047L950.88 919.527L952.88 916.247L954.64 913.127L957.84 906.167L962.4 896.487L964.48 892.327L966.8 888.327L969.68 885.047L972.72 882.167L977.6 878.807L981.2 876.887L985.68 875.207L996.48 872.087L1012.08 867.527L1110.56 836.967L1125.44 832.327L1130.32 830.647L1133.28 828.887L1135.84 826.807L1137.92 824.647" stroke="black" stroke-width="4.71999" stroke-miterlimit="10" stroke-linejoin="round"/>
<path d="M939.52 936.327L940.88 934.647L945.84 927.047" stroke="black" stroke-width="4.71999" stroke-miterlimit="10" stroke-linejoin="round"/>
<path d="M802.16 985.127L810.4 983.207L840.64 975.927L889.92 964.407L899.6 962.007L903.04 960.647L906.88 958.887L912.32 955.767" stroke="black" stroke-width="4.71999" stroke-miterlimit="10" stroke-linejoin="round"/>
<path d="M752.08 997.927L768.16 993.287L802.16 985.127" stroke="black" stroke-width="4.71999" stroke-miterlimit="10" stroke-linejoin="round"/>
<path d="M1428.56 792.487L1428.4 802.327L1428.16 811.447L1428.08 812.167" stroke="black" stroke-width="4.71999" stroke-miterlimit="10" stroke-linejoin="round"/>
<path d="M1581.28 1010.25L1560.32 1029.37L1552.96 1035.61L1548.48 1038.97L1527.6 1052.41" stroke="black" stroke-width="4.71999" stroke-miterlimit="10" stroke-linejoin="round"/>
<path d="M1589.44 1002.81L1581.28 1010.25" stroke="black" stroke-width="4.71999" stroke-miterlimit="10" stroke-linejoin="round"/>
<path d="M1620.32 986.327L1604.88 990.167L1601.04 992.247L1589.44 1002.81" stroke="black" stroke-width="4.71999" stroke-miterlimit="10" stroke-linejoin="round"/>
<path d="M1871.6 888.407L1888.48 866.007L1891.28 860.807L1894.08 851.767L1900.16 822.167L1902.56 815.447L1907.76 807.047L1914.4 799.767L1927.92 788.087" stroke="black" stroke-width="4.71999" stroke-miterlimit="10" stroke-linejoin="round"/>
<path d="M1851.52 915.047L1871.6 888.407" stroke="black" stroke-width="4.71999" stroke-miterlimit="10" stroke-linejoin="round"/>
<path d="M1919.44 1083.93L1921.6 1086.17L1923.84 1088.97L1926.08 1091.69L1936.72 1107.13L1939.44 1111.05L1941.12 1113.77L1942.4 1116.89L1943.68 1120.33L1944.32 1122.49L1945.2 1126.25L1945.76 1130.17C1946.34 1142.34 1943.83 1151.16 1935.84 1160.57L1932.64 1164.01L1786.4 1320.25C1771.84 1335.77 1764 1356.49 1764.48 1377.77L1765.76 1402.01" stroke="black" stroke-width="4.71999" stroke-miterlimit="10" stroke-linejoin="round"/>
<path d="M1884 1049.69L1884.08 1050.25L1884.96 1052.81L1886.72 1056.33L1889.84 1060.17L1896 1066.09L1914.16 1079.13L1917.36 1081.61L1919.44 1083.93" stroke="black" stroke-width="4.71999" stroke-miterlimit="10" stroke-linejoin="round"/>
<path d="M1851.52 915.047C1840.72 929.447 1838.24 948.487 1845.04 965.127" stroke="black" stroke-width="4.71999" stroke-miterlimit="10" stroke-linejoin="round"/>
<path d="M1882.72 1037.05L1883.76 1048.01L1884 1049.69" stroke="black" stroke-width="4.71999" stroke-miterlimit="10" stroke-linejoin="round"/>
<path d="M1845.04 965.127C1846.4 968.407 1848.08 971.527 1850.08 974.407L1865.84 997.767L1874.96 1011.77L1877.52 1015.77L1879.84 1020.17L1881.12 1023.61L1881.6 1026.09L1882.72 1037.05" stroke="black" stroke-width="4.71999" stroke-miterlimit="10" stroke-linejoin="round"/>
<path d="M1059.28 1360.97L998.4 1393.77L992.8 1397.05L988.64 1399.85L984.64 1402.97L892.4 1482.89L884.24 1489.93L878.8 1493.85L873.28 1497.05L864.72 1501.05" stroke="black" stroke-width="4.71999" stroke-miterlimit="10" stroke-linejoin="round"/>
<path d="M1125.6 1378.41L1124.48 1370.09L1123.68 1365.37L1121.92 1360.89L1119.36 1356.89L1115.44 1353.21L1111.04 1350.65L1105.6 1348.97L1099.2 1347.93L1093.68 1347.77L1078.88 1350.41" stroke="black" stroke-width="4.71999" stroke-miterlimit="10" stroke-linejoin="round"/>
<path d="M1431.36 1484.17L1465.52 1482.17L1507.92 1479.45" stroke="black" stroke-width="4.71999" stroke-miterlimit="10" stroke-linejoin="round"/>
<path d="M1403.76 1485.85L1431.36 1484.17" stroke="black" stroke-width="4.71999" stroke-miterlimit="10" stroke-linejoin="round"/>
<path d="M1207.92 1509.45L1217.12 1512.73L1248.8 1524.41L1252.24 1525.45L1256.16 1526.01L1260.32 1526.09L1263.68 1525.93L1269.36 1524.97L1273.68 1523.53L1277.6 1521.29L1314.24 1497.61L1320.08 1494.09L1325.2 1491.93L1329.52 1490.65L1333.52 1489.93L1403.76 1485.85" stroke="black" stroke-width="4.71999" stroke-miterlimit="10" stroke-linejoin="round"/>
<path d="M1189.2 1502.89L1191.68 1503.61L1199.04 1506.25L1207.92 1509.45" stroke="black" stroke-width="4.71999" stroke-miterlimit="10" stroke-linejoin="round"/>
<path d="M1173.92 1500.33H1177.52L1181.12 1500.57L1184.16 1501.37L1189.2 1502.89" stroke="black" stroke-width="4.71999" stroke-miterlimit="10" stroke-linejoin="round"/>
<path d="M1585.28 1528.89L1592.48 1529.21" stroke="black" stroke-width="4.71999" stroke-miterlimit="10" stroke-linejoin="round"/>
<path d="M1573.68 1528.17L1578.4 1528.65L1585.28 1528.89" stroke="black" stroke-width="4.71999" stroke-miterlimit="10" stroke-linejoin="round"/>
<path d="M1791.92 1493.93L1803.76 1481.05" stroke="black" stroke-width="4.71999" stroke-miterlimit="10" stroke-linejoin="round"/>
<path d="M1780 1492.33L1769.12 1455.93L1768.56 1452.01L1767.76 1447.05L1767.36 1443.45L1766.24 1414.41L1765.76 1402.01" stroke="black" stroke-width="4.71999" stroke-miterlimit="10" stroke-linejoin="round"/>
<path d="M1788.48 1519.69L1786.08 1511.77" stroke="black" stroke-width="4.71999" stroke-miterlimit="10" stroke-linejoin="round"/>
<path d="M1225.28 401.367L1225.12 402.087L1225.04 402.887C1223.81 416.639 1235.53 415.243 1243.84 421.207L1245.36 422.407L1247.68 424.567L1272 446.007L1273.92 447.847L1276 450.167L1277.6 452.567L1279.04 455.687L1280.32 460.007L1280.64 463.767L1280.4 467.367L1279.68 472.487L1278.64 480.247L1276.4 498.007L1273.28 522.487L1273.2 530.807L1273.84 536.647L1275.28 542.967L1277.44 549.047L1280.4 553.927L1285.2 560.327L1294.48 568.487L1300.88 574.647L1304.4 577.847" stroke="black" stroke-width="4.71999" stroke-miterlimit="10" stroke-linejoin="round"/>
<path d="M1511.44 1290.17L1514.24 1293.69L1530.48 1307.53L1532.32 1309.29L1533.36 1310.65L1534.32 1312.17" stroke="black" stroke-width="8.47998" stroke-miterlimit="10" stroke-linejoin="round"/>
<path d="M1373.36 1687.61L1378.32 1691.45L1384.08 1693.77L1388.48 1695.13L1396 1696.33" stroke="black" stroke-width="8.47998" stroke-miterlimit="10" stroke-linejoin="round"/>
<path d="M572.72 1735.69L572.8 1732.81L572.88 1732.33C572.696 1724.65 572.027 1720.68 567.44 1714.09L564.88 1710.81L555.44 1697.45C552.22 1693.58 548.932 1685.31 549.04 1680.41L548.96 1675.21L550 1655.85" stroke="black" stroke-width="8.47998" stroke-miterlimit="10" stroke-linejoin="round"/>
<path d="M572.72 1735.69L572.48 1737.45C570.627 1745.64 567.017 1747.4 562.32 1753.85L560.56 1756.65L558.64 1760.33C554.592 1770.66 556.929 1776.63 557.44 1787.37L559.04 1807.21" stroke="black" stroke-width="8.47998" stroke-miterlimit="10" stroke-linejoin="round"/>
<path d="M551.76 1641.93L553.6 1638.25L555.84 1635.45L558.56 1632.97L562.08 1630.81L565.52 1629.05" stroke="black" stroke-width="8.47998" stroke-miterlimit="10" stroke-linejoin="round"/>
<path d="M550 1655.85L550.4 1649.45L550.72 1645.77L551.76 1641.93" stroke="black" stroke-width="8.47998" stroke-miterlimit="10" stroke-linejoin="round"/>
<path d="M565.52 1629.05L570.88 1626.17L573.36 1624.73L575.2 1622.89L576.8 1620.41L577.52 1618.89L578.08 1617.37L578.56 1615.45L583.92 1595.45L584.48 1593.37L585.68 1588.49L586.08 1584.33L586.16 1573.61" stroke="black" stroke-width="8.47998" stroke-miterlimit="10" stroke-linejoin="round"/>
<path d="M586.16 1573.61L586.64 1534.97L586.16 1525.93L584.72 1519.77L582.96 1516.25L580.24 1513.61L578.32 1512.65L576.16 1511.77L575.12 1511.37L559.76 1505.77L557.92 1504.97L556.64 1504.41C552.292 1502.79 548.017 1498.15 545.92 1494.09L544.72 1491.53L542.4 1482.17" stroke="black" stroke-width="8.47998" stroke-miterlimit="10" stroke-linejoin="round"/>
<path d="M317.76 1249.53L325.92 1243.93" stroke="black" stroke-width="8.47998" stroke-miterlimit="10" stroke-linejoin="round"/>
<path d="M558.4 1099.29L556.32 1106.57L555.76 1112.73L555.92 1118.41L556.32 1122.97L556.8 1127.29L557.68 1131.53L558.8 1135.37" stroke="black" stroke-width="8.47998" stroke-miterlimit="10" stroke-linejoin="round"/>
<path d="M583.92 1066.41L585.6 1063.53L586.8 1059.85L587.12 1055.61L586.88 1052.73L586 1050.17L584.8 1047.37L568.4 1010.81L566.72 1007.05L565.04 1002.97L563.92 1000.09L562.96 997.127L562.4 994.247L562 991.767L561.68 988.247V986.647L564.72 903.047L564.88 897.287L565.44 892.087L566.56 885.607L567.68 881.127L568.72 876.647L569.28 872.727L569.36 867.527C569.103 852.86 568.658 838.197 568.56 823.528L568.32 818.888L568.08 814.408C567.632 805.913 566.362 800.324 564.96 792.168L564.32 788.328L542.96 668.168L541.92 661.848L541.44 657.288C540.719 651.659 541.208 645.94 542.4 640.408L543.44 636.488L544.88 633.208L547.12 628.888L549.76 624.568L551.44 621.208L552.88 618.088L556.8 609.208L560.08 601.768L562.32 595.928L564.48 588.808L565.52 584.488L566.32 581.688L567.36 579.848L568.56 578.408L570 577.288L571.92 576.248L574.56 575.368L579.04 573.768L581.6 572.888L585.44 571.448L590.72 569.608" stroke="black" stroke-width="8.47998" stroke-miterlimit="10" stroke-linejoin="round"/>
<path d="M1288.48 1658.25L1309.04 1655.85L1318.08 1654.57L1328 1653.85L1335.76 1654.17L1342.16 1655.77L1349.52 1659.61L1355.2 1664.89L1369.12 1681.93L1373.36 1687.61" stroke="black" stroke-width="8.47998" stroke-miterlimit="10" stroke-linejoin="round"/>
<path d="M1126.56 1815.77L1132.96 1814.81L1137.04 1813.29L1142.08 1809.53L1146.88 1805.45L1150.88 1802.97L1178.16 1782.25L1182.08 1779.21L1184.64 1776.89L1187.04 1774.33L1188.8 1771.77L1201.28 1752.01L1204.08 1747.45L1205.92 1743.53L1207.04 1740.25L1207.76 1737.05L1209.12 1729.21L1212.88 1711.93L1216.24 1704.33L1220.16 1697.69L1226.32 1690.17L1244.32 1670.97L1248.72 1668.33L1256.16 1665.21L1267.36 1661.29L1274.88 1659.85L1279.36 1659.29" stroke="black" stroke-width="8.47998" stroke-miterlimit="10" stroke-linejoin="round"/>
<path d="M1107.52 1805.45L1111.2 1809.61L1115.92 1813.05L1121.04 1815.13L1126.56 1815.77" stroke="black" stroke-width="8.47998" stroke-miterlimit="10" stroke-linejoin="round"/>
<path d="M1064 1788.09L1095.04 1796.73L1098.56 1798.09L1101.6 1799.77L1104.56 1802.09L1107.52 1805.45" stroke="black" stroke-width="8.47998" stroke-miterlimit="10" stroke-linejoin="round"/>
<path d="M987.76 1701.93L1004.16 1710.81L1010.16 1715.13L1015.04 1720.65L1017.68 1726.09L1019.68 1732.89L1026 1760.57L1027.76 1765.77L1029.84 1769.85L1032.8 1774.17L1036.16 1777.29L1039.84 1780.01L1043.52 1781.85L1050.16 1784.17L1064 1788.09" stroke="black" stroke-width="8.47998" stroke-miterlimit="10" stroke-linejoin="round"/>
<path d="M1279.36 1659.29L1288.48 1658.25" stroke="black" stroke-width="8.47998" stroke-miterlimit="10" stroke-linejoin="round"/>
<path d="M1784.16 1763.13L1750.72 1706.57L1741.68 1691.29" stroke="black" stroke-width="8.47998" stroke-miterlimit="10" stroke-linejoin="round"/>
<path d="M1784.16 1763.13L1786.72 1767.45L1787.68 1769.13L1789.04 1771.61L1791.44 1774.57L1794.72 1777.69L1797.52 1779.69L1800.32 1781.05L1803.6 1782.25L1806.48 1782.81L1821.84 1784.41L1826.72 1785.05L1829.92 1785.61L1833.12 1786.33L1843.84 1789.29L1850.48 1791.37L1855.76 1793.61L1860.72 1796.49L1864.56 1798.89" stroke="black" stroke-width="8.47998" stroke-miterlimit="10" stroke-linejoin="round"/>
<path d="M1894.48 1816.97L1910.24 1826.49L1912.72 1828.09" stroke="black" stroke-width="8.47998" stroke-miterlimit="10" stroke-linejoin="round"/>
<path d="M1864.56 1798.89L1870.64 1802.41L1894.48 1816.97" stroke="black" stroke-width="8.47998" stroke-miterlimit="10" stroke-linejoin="round"/>
<path d="M1438.88 1704.81L1396 1696.33" stroke="black" stroke-width="8.47998" stroke-miterlimit="10" stroke-linejoin="round"/>
<path d="M1512.4 1626.33L1494.64 1642.73L1491.04 1647.13L1488.8 1651.29L1487.28 1655.69L1486.64 1658.65L1485.92 1668.57L1485.2 1678.41L1484.24 1682.97L1482.48 1687.85L1479.76 1692.33L1476.8 1696.01L1473.36 1699.13L1468 1702.73L1461.36 1705.61L1456.8 1706.57L1451.76 1706.97L1448.24 1706.73L1438.88 1704.81" stroke="black" stroke-width="8.47998" stroke-miterlimit="10" stroke-linejoin="round"/>
<path d="M542.4 1482.17L539.76 1466.73L538.96 1464.25L538.24 1462.25C536.121 1456.08 532.219 1451.25 529.76 1445.53L529.2 1443.77L528.64 1441.61C527.561 1438.02 527.643 1432.91 528.56 1429.29L528.88 1428.17L530.4 1425.13L532.56 1420.89L536.08 1415.85L541.04 1409.93L565.44 1380.25L569.28 1375.61L573.36 1370.73L576.08 1368.09L578.96 1365.61L582.96 1362.41L588.08 1359.13L604.16 1349.61C614.399 1344.03 619.123 1339.69 623.76 1328.81L624.72 1326.97L632.32 1310.89L636.4 1303.05" stroke="black" stroke-width="8.47998" stroke-miterlimit="10" stroke-linejoin="round"/>
<path d="M1324.16 345.447L1342.16 371.367" stroke="black" stroke-width="8.47998" stroke-miterlimit="10" stroke-linejoin="round"/>
<path d="M1312.4 328.407L1324.16 345.447" stroke="black" stroke-width="8.47998" stroke-miterlimit="10" stroke-linejoin="round"/>
<path d="M1225.28 401.367L1222 406.087L1219.36 409.367L1216.88 411.607L1213.6 413.447L1209.68 415.287L1204.08 417.367L1200.32 418.327L1196.08 418.887L1175.92 419.447L1148.64 420.647L1142.72 420.167L1137.04 418.647L1118.4 410.967L1115.12 408.247L1102.72 395.927L1098.8 392.007L1093.28 388.487L1088 386.487H1081.92L1062.08 390.967L1031.36 398.727L1026 400.247L1021.36 402.247L1017.68 404.647L1001.12 416.727" stroke="black" stroke-width="8.47998" stroke-miterlimit="10" stroke-linejoin="round"/>
<path d="M1342.16 371.367L1363.28 401.847L1375.2 419.127" stroke="black" stroke-width="8.47998" stroke-miterlimit="10" stroke-linejoin="round"/>
<path d="M1312.4 328.407L1310.24 325.207L1305.68 320.967C1300.44 317.607 1294.39 316.26 1288.4 318.327L1275.68 324.167" stroke="black" stroke-width="8.47998" stroke-miterlimit="10" stroke-linejoin="round"/>
<path d="M1575.52 1523.29L1582.24 1491.77C1584.31 1482.11 1583.98 1474.6 1581.28 1465.13L1579.84 1459.85" stroke="black" stroke-width="8.47998" stroke-miterlimit="10" stroke-linejoin="round"/>
<path d="M1398.48 827.287L1414.72 842.967C1419.42 846.782 1423.2 851.278 1425.36 856.967L1426.08 860.567" stroke="black" stroke-width="8.47998" stroke-miterlimit="10" stroke-linejoin="round"/>
<path d="M1222.4 783.687L1232.88 781.367L1236.96 780.647L1245.12 779.927C1250.54 779.623 1257.09 782.024 1261.76 784.727L1266.16 787.207L1269.92 788.807C1278.74 791.752 1288.87 788.435 1297.12 793.607L1299.6 795.127L1302.08 797.207L1310.56 805.767L1314.48 809.607L1317.2 811.447L1320.64 813.047L1324 813.927L1329.2 815.207L1347.68 817.847L1357.68 819.527H1361.52L1366 818.887L1368.72 817.767C1373.95 815.11 1380.8 810.754 1386.24 815.527L1388 817.127L1397.92 826.647L1398.48 827.287" stroke="black" stroke-width="8.47998" stroke-miterlimit="10" stroke-linejoin="round"/>
<path d="M1426.08 860.567V893.047L1426.4 897.767L1426.88 901.447L1427.28 903.127L1428.16 906.567C1430.84 917.714 1439.25 929.255 1448.72 935.687L1460.08 943.607" stroke="black" stroke-width="8.47998" stroke-miterlimit="10" stroke-linejoin="round"/>
<path d="M1534.32 1312.17L1536.4 1318.81L1543.04 1340.41L1579.84 1459.85" stroke="black" stroke-width="8.47998" stroke-miterlimit="10" stroke-linejoin="round"/>
<path d="M1222.4 783.687L1212.64 788.647L1188.24 800.647" stroke="black" stroke-width="8.47998" stroke-miterlimit="10" stroke-linejoin="round"/>
<path d="M1375.2 419.127L1427.52 494.647" stroke="black" stroke-width="8.47998" stroke-miterlimit="10" stroke-linejoin="round"/>
<path d="M1589.36 665.927L1595.2 667.367L1600.4 670.327L1605.76 676.087L1609.28 682.007" stroke="black" stroke-width="8.47998" stroke-miterlimit="10" stroke-linejoin="round"/>
<path d="M1578.48 665.927H1589.36" stroke="black" stroke-width="8.47998" stroke-miterlimit="10" stroke-linejoin="round"/>
<path d="M1539.92 656.327L1542.08 658.887L1546.64 662.407L1551.92 664.727L1556.4 665.767L1578.48 665.927" stroke="black" stroke-width="8.47998" stroke-miterlimit="10" stroke-linejoin="round"/>
<path d="M1609.28 682.007L1611.04 687.847L1611.76 691.607L1610.8 729.047L1610.96 742.807L1613.76 750.327L1628.08 770.887C1638.16 785.207 1654.56 793.767 1672.08 793.607H1671.68C1682.88 793.447 1693.76 797.447 1702.08 804.887L1707.6 809.847L1710.8 812.647L1715.36 815.767L1719.2 817.527L1738 825.447L1746.56 830.327L1757.52 836.807L1763.6 837.607L1770.56 836.487L1776.32 833.847L1779.68 831.207" stroke="black" stroke-width="8.47998" stroke-miterlimit="10" stroke-linejoin="round"/>
<path d="M1460.08 943.607L1474.72 953.767L1525.84 989.607" stroke="black" stroke-width="8.47998" stroke-miterlimit="10" stroke-linejoin="round"/>
<path d="M1527.6 1052.41L1542 1034.73L1546.16 1024.49" stroke="black" stroke-width="8.47998" stroke-miterlimit="10" stroke-linejoin="round"/>
<path d="M1525.84 989.607L1535.28 996.247L1538.8 999.447L1541.44 1003.05L1542.72 1004.97L1546.4 1015.85L1546.16 1024.49" stroke="black" stroke-width="8.47998" stroke-miterlimit="10" stroke-linejoin="round"/>
<path d="M1852.56 833.687L1834 833.367L1825.68 831.127L1817.6 827.127L1804.48 814.887L1799.92 812.967L1795.44 812.807L1792.48 813.287L1788.08 815.847L1785.28 819.127L1783.68 824.007L1781.52 828.247L1779.68 831.207" stroke="black" stroke-width="8.47998" stroke-miterlimit="10" stroke-linejoin="round"/>
<path d="M1866.16 827.687L1858.08 832.407L1852.56 833.687" stroke="black" stroke-width="8.47998" stroke-miterlimit="10" stroke-linejoin="round"/>
<path d="M1927.92 788.087L1866.16 827.687" stroke="black" stroke-width="8.47998" stroke-miterlimit="10" stroke-linejoin="round"/>
<path d="M1981.6 753.687L1927.92 788.087" stroke="black" stroke-width="8.47998" stroke-miterlimit="10" stroke-linejoin="round"/>
<path d="M1067.6 1356.49L1059.28 1360.97" stroke="black" stroke-width="8.47998" stroke-miterlimit="10" stroke-linejoin="round"/>
<path d="M1361.52 1171.85L1351.84 1176.17L1341.2 1180.97L1330.56 1185.05L1324.08 1187.85L1317.2 1192.33L1311.04 1197.53L1304.48 1204.65L1240.4 1280.73L1233.44 1288.33L1227.52 1292.89L1221.2 1296.73L1215.36 1299.13L1210.32 1300.65L1201.52 1302.01L1151.52 1308.33L1145.28 1309.21L1139.2 1310.73L1133.92 1312.81C1121.26 1318.33 1117.01 1326.68 1107.04 1334.81L1101.52 1338.17L1078.88 1350.41" stroke="black" stroke-width="8.47998" stroke-miterlimit="10" stroke-linejoin="round"/>
<path d="M1436.08 1130.25L1420.64 1144.81L1413.84 1149.85" stroke="black" stroke-width="8.47998" stroke-miterlimit="10" stroke-linejoin="round"/>
<path d="M1145.28 1487.77L1134.56 1485.45L1133.28 1484.97L1128.64 1482.81L1125.12 1479.85L1122.48 1476.17C1111.83 1457.87 1111.65 1450.46 1125.76 1434.57L1128.16 1430.89L1129.68 1426.41L1130.72 1421.77L1130.88 1417.29L1129.6 1407.69L1125.6 1378.41" stroke="black" stroke-width="8.47998" stroke-miterlimit="10" stroke-linejoin="round"/>
<path d="M1511.44 1290.17L1502.4 1274.25L1464.16 1212.49L1458.08 1202.81L1452.4 1193.69" stroke="black" stroke-width="8.47998" stroke-miterlimit="10" stroke-linejoin="round"/>
<path d="M1435.84 1152.49L1431.92 1149.13L1426.8 1147.53L1418.8 1148.25L1413.84 1149.85" stroke="black" stroke-width="8.47998" stroke-miterlimit="10" stroke-linejoin="round"/>
<path d="M1452.4 1193.69L1449.28 1188.73L1447.52 1185.05L1445.52 1180.09L1438.08 1156.25L1435.84 1152.49" stroke="black" stroke-width="8.47998" stroke-miterlimit="10" stroke-linejoin="round"/>
<path d="M1381.52 1163.61L1372.72 1166.97L1365.52 1170.09L1361.52 1171.85" stroke="black" stroke-width="8.47998" stroke-miterlimit="10" stroke-linejoin="round"/>
<path d="M640 1296.17L641.12 1294.09L643.36 1289.29L644.48 1285.29L645.04 1281.85V1274.57L644.72 1268.41L644.16 1265.21L643.2 1262.33L641.68 1257.93L639.84 1254.25L626.72 1236.01C622.448 1229.89 618.449 1224.24 612.16 1220.09L600.4 1212.09" stroke="black" stroke-width="12.32" stroke-miterlimit="10" stroke-linejoin="round"/>
<path d="M558.8 1135.37L559.44 1137.61L561.28 1142.73L565.04 1151.29L581.2 1186.33L583.52 1191.21L585.92 1195.69L588.24 1198.89L591.44 1202.97L600.4 1212.09" stroke="black" stroke-width="12.32" stroke-miterlimit="10" stroke-linejoin="round"/>
<path d="M558.4 1099.29L560.88 1093.37L562.96 1089.29L566.56 1084.25L582.16 1068.41L583.92 1066.41" stroke="black" stroke-width="12.32" stroke-miterlimit="10" stroke-linejoin="round"/>
<path d="M1615.44 1632.57L1607.6 1621.85L1601.6 1612.09L1590.72 1593.29L1574.72 1565.45L1572.48 1559.93L1571.44 1555.21L1571.04 1550.81L1570.96 1546.17L1571.52 1542.25L1572.16 1539.29" stroke="black" stroke-width="12.32" stroke-miterlimit="10" stroke-linejoin="round"/>
<path d="M636.4 1303.05L640 1296.17" stroke="black" stroke-width="12.32" stroke-miterlimit="10" stroke-linejoin="round"/>
<path d="M1275.68 324.167L1263.76 329.687L1261.12 330.967L1258.24 333.047L1255.68 335.687L1253.84 338.567L1236.96 372.967L1234.24 378.487L1232.56 382.247L1225.28 401.367" stroke="black" stroke-width="12.32" stroke-miterlimit="10" stroke-linejoin="round"/>
<path d="M1179.84 804.887L1188.24 800.647" stroke="black" stroke-width="12.32" stroke-miterlimit="10" stroke-linejoin="round"/>
<path d="M1179.84 804.887L1177.52 806.087L1174.96 808.247L1172.88 811.607L1171.76 816.647L1171.44 825.767L1171.76 828.727L1172.72 832.727L1174.08 836.087L1176.48 839.847L1189.2 859.127" stroke="black" stroke-width="12.32" stroke-miterlimit="10" stroke-linejoin="round"/>
<path d="M1572.16 1539.29L1572.8 1535.93L1575.52 1523.29" stroke="black" stroke-width="12.32" stroke-miterlimit="10" stroke-linejoin="round"/>
<path d="M1527.6 1052.41L1508.48 1064.81L1501.76 1069.29L1496.24 1073.45L1491.04 1078.01L1437.6 1128.81L1436.08 1130.25" stroke="black" stroke-width="12.32" stroke-miterlimit="10" stroke-linejoin="round"/>
<path d="M1078.88 1350.41L1067.6 1356.49" stroke="black" stroke-width="12.32" stroke-miterlimit="10" stroke-linejoin="round"/>
<path d="M1413.84 1149.85L1405.84 1154.33L1395.92 1158.09L1381.52 1163.61" stroke="black" stroke-width="12.32" stroke-miterlimit="10" stroke-linejoin="round"/>
<path d="M1732.8 1694.09L1713.84 1705.45L1711.84 1706.25L1708.88 1706.49L1705.12 1706.25L1702.4 1705.69L1685.92 1701.13L1682.72 1699.93L1679.12 1698.25L1676.72 1696.89L1674.64 1695.13L1670.48 1690.81L1655.2 1675.45L1636 1656.17L1633.2 1653.13L1629.36 1648.73L1615.44 1632.57" stroke="black" stroke-width="15.6" stroke-miterlimit="10" stroke-linejoin="round"/>
<path d="M864.717 1501.05L870.717 1499.05L877.437 1498.17L882.157 1498.49L887.357 1499.77L891.677 1501.45L897.277 1504.57L901.277 1506.49L904.797 1507.69L911.917 1509.13L919.197 1509.21L1042.88 1502.17L1056.16 1502.65L1063.76 1504.25L1072.64 1507.93L1081.76 1513.13L1087.2 1515.05L1097.04 1516.57L1106.88 1516.81L1111.44 1516.49L1118.72 1514.33L1133.28 1508.97L1146.48 1504.25L1152.8 1502.33L1157.92 1501.05L1162.4 1500.41L1167.28 1500.25L1173.92 1500.33M1592.47 1529.21L1603.99 1529.77L1613.83 1530.17L1618.55 1530.09L1621.59 1529.93L1626.87 1529.29L1656.23 1525.13L1665.03 1523.85L1670.95 1523.29L1679.91 1522.41L1686.15 1521.69L1689.75 1521.29L1697.51 1520.33L1713.91 1517.93L1726.15 1515.13L1731.91 1514.41L1757.75 1510.73L1767.59 1509.29L1773.03 1507.13L1778.95 1501.29L1779.99 1492.33L1786.07 1511.77L1785.75 1507.37L1787.27 1501.29L1788.95 1497.45L1791.59 1494.25L1791.91 1493.93M1542.88 1449.85L1543.52 1447.13L1544.88 1443.53L1546.64 1440.09L1562.96 1407.77L1568.64 1396.57L1569.84 1392.17V1387.69L1568.88 1384.41L1559.91 1352.41L1558.08 1345.93L1555.84 1340.97M1765.75 1402.01L1765.03 1396.33L1763.67 1391.85L1761.59 1387.05L1758.55 1382.41L1753.75 1377.53L1671.51 1309.37L1668.31 1306.33L1665.75 1303.13L1664.07 1299.77L1661.75 1294.97L1652.63 1268.57" stroke="black" stroke-width="4.71999" stroke-miterlimit="10" stroke-linejoin="round" stroke-dasharray="15.84 5.28"/>
<path d="M1589.35 665.934L1608.47 666.974L1614.87 666.494L1618.95 664.974L1622.47 662.414L1625.75 658.414L1627.67 654.254L1628.39 652.014L1628.95 649.534L1629.35 647.534L1629.83 645.774L1630.95 643.294L1632.39 640.334L1634.23 638.174L1635.91 636.414L1637.99 634.974L1639.91 634.014L1642.71 632.894L1668.47 625.614L1671.75 624.574L1674.71 623.294L1676.71 622.254L1679.43 620.414L1683.99 616.734L1709.59 597.534L1715.11 594.894L1719.03 594.174L1720.95 594.094L1722.87 594.014L1725.27 594.174L1728.15 594.574L1730.95 595.374L1733.83 596.734L1753.19 606.654M1788.23 1128.49L1800.15 1116.65L1801.67 1115.29L1803.51 1113.85L1805.27 1112.89L1807.51 1112.09L1810.63 1111.45L1844.79 1105.93L1850.07 1105.21L1853.27 1104.49L1856.07 1103.13L1858.39 1101.37L1859.91 1100.09L1861.43 1098.17L1862.39 1096.49L1869.27 1079.37L1870.15 1077.05L1871.43 1074.25L1872.39 1072.25L1873.75 1070.17L1876.95 1066.17L1879.51 1062.73L1880.47 1060.73L1883.99 1049.69M1700.47 1183.93L1682.55 1197.53L1678.23 1201.53L1675.03 1207.05L1671.11 1215.77M1663.91 1829.93L1674.15 1828.17L1678.31 1828.41L1683.59 1830.41L1715.91 1850.33M1555.83 1340.97L1553.03 1336.25L1549.83 1332.97L1536.31 1322.25L1531.99 1318.97L1528.31 1315.77L1523.36 1309.93L1518.08 1301.69L1511.43 1290.17M1388 1208.57L1428.32 1197.61" stroke="black" stroke-width="4.71999" stroke-miterlimit="10" stroke-linejoin="round" stroke-dasharray="1.36 4"/>
</svg>
