<svg width="2515" height="2520" viewBox="0 0 2515 2520" fill="none" xmlns="http://www.w3.org/2000/svg">
<path fill-rule="evenodd" clip-rule="evenodd" d="M2037.92 1812.33C2037.92 1809.93 2036.96 1807.61 2035.28 1805.93C2033.6 1804.25 2031.28 1803.29 2028.88 1803.29C2026.48 1803.29 2024.16 1804.25 2022.48 1805.93C2020.72 1807.61 2019.76 1809.93 2019.76 1812.33C2019.76 1814.73 2020.72 1817.05 2022.48 1818.73C2024.16 1820.49 2026.48 1821.45 2028.88 1821.45C2031.28 1821.45 2033.6 1820.49 2035.28 1818.73C2036.96 1817.05 2037.92 1814.73 2037.92 1812.33Z" fill="#009A4C"/>
<path fill-rule="evenodd" clip-rule="evenodd" d="M1964.16 1827.05C1964.16 1824.65 1963.2 1822.33 1961.44 1820.65C1959.76 1818.97 1957.44 1818.01 1955.04 1818.01C1952.64 1818.01 1950.32 1818.97 1948.64 1820.65C1946.96 1822.33 1946 1824.65 1946 1827.05C1946 1829.45 1946.96 1831.77 1948.64 1833.45C1950.32 1835.21 1952.64 1836.09 1955.04 1836.09C1957.44 1836.09 1959.76 1835.21 1961.44 1833.45C1963.2 1831.77 1964.16 1829.45 1964.16 1827.05Z" fill="#CC0000"/>
<path fill-rule="evenodd" clip-rule="evenodd" d="M1808.72 1485.53C1808.72 1483.13 1807.76 1480.81 1806.08 1479.13C1804.32 1477.37 1802 1476.41 1799.6 1476.41C1797.2 1476.41 1794.88 1477.37 1793.2 1479.13C1791.52 1480.81 1790.56 1483.13 1790.56 1485.53C1790.56 1487.93 1791.52 1490.25 1793.2 1491.93C1794.88 1493.61 1797.2 1494.57 1799.6 1494.57C1802 1494.57 1804.32 1493.61 1806.08 1491.93C1807.76 1490.25 1808.72 1487.93 1808.72 1485.53Z" fill="#CC0000"/>
<path fill-rule="evenodd" clip-rule="evenodd" d="M1813.76 1557.29C1813.76 1554.89 1812.8 1552.57 1811.12 1550.89C1809.44 1549.21 1807.12 1548.25 1804.72 1548.25C1802.32 1548.25 1800 1549.21 1798.32 1550.89C1796.56 1552.57 1795.6 1554.89 1795.6 1557.29C1795.6 1559.69 1796.56 1562.01 1798.32 1563.69C1800 1565.45 1802.32 1566.33 1804.72 1566.33C1807.12 1566.33 1809.44 1565.45 1811.12 1563.69C1812.8 1562.01 1813.76 1559.69 1813.76 1557.29Z" fill="black"/>
<path fill-rule="evenodd" clip-rule="evenodd" d="M1800.72 1527.05C1800.72 1524.65 1799.76 1522.33 1798.08 1520.65C1796.4 1518.97 1794.08 1518.01 1791.68 1518.01C1789.28 1518.01 1786.96 1518.97 1785.28 1520.65C1783.52 1522.33 1782.56 1524.65 1782.56 1527.05C1782.56 1529.45 1783.52 1531.77 1785.28 1533.45C1786.96 1535.21 1789.28 1536.17 1791.68 1536.17C1794.08 1536.17 1796.4 1535.21 1798.08 1533.45C1799.76 1531.77 1800.72 1529.45 1800.72 1527.05Z" fill="black"/>
<path fill-rule="evenodd" clip-rule="evenodd" d="M1984.32 1638.81C1984.32 1636.41 1983.36 1634.09 1981.68 1632.41C1979.92 1630.65 1977.6 1629.69 1975.2 1629.69C1972.8 1629.69 1970.56 1630.65 1968.8 1632.41C1967.12 1634.09 1966.16 1636.41 1966.16 1638.81C1966.16 1641.21 1967.12 1643.53 1968.8 1645.21C1970.56 1646.89 1972.8 1647.85 1975.2 1647.85C1977.6 1647.85 1979.92 1646.89 1981.68 1645.21C1983.36 1643.53 1984.32 1641.21 1984.32 1638.81Z" fill="#009A4C"/>
<path fill-rule="evenodd" clip-rule="evenodd" d="M2355.84 1893.85C2355.84 1891.45 2354.88 1889.13 2353.2 1887.45C2351.44 1885.77 2349.2 1884.81 2346.8 1884.81C2344.4 1884.81 2342.08 1885.77 2340.32 1887.45C2338.64 1889.21 2337.68 1891.45 2337.68 1893.85C2337.68 1896.25 2338.64 1898.57 2340.32 1900.33C2342.08 1902.01 2344.4 1902.97 2346.8 1902.97C2349.2 1902.97 2351.52 1902.01 2353.2 1900.33C2354.88 1898.57 2355.84 1896.25 2355.84 1893.85Z" fill="#009A4C"/>
<path fill-rule="evenodd" clip-rule="evenodd" d="M1816.64 1805.53C1816.64 1803.13 1815.68 1800.81 1814 1799.13C1812.32 1797.37 1810 1796.41 1807.6 1796.41C1805.2 1796.41 1802.88 1797.37 1801.2 1799.13C1799.44 1800.81 1798.48 1803.13 1798.48 1805.53C1798.48 1807.93 1799.44 1810.25 1801.2 1811.93C1802.88 1813.61 1805.2 1814.57 1807.6 1814.57C1810 1814.57 1812.32 1813.61 1814 1811.93C1815.68 1810.25 1816.64 1807.93 1816.64 1805.53Z" fill="#009A4C"/>
<path fill-rule="evenodd" clip-rule="evenodd" d="M847.28 1515.69C847.28 1513.29 846.32 1510.97 844.64 1509.21C842.96 1507.53 840.64 1506.57 838.24 1506.57C835.84 1506.57 833.52 1507.53 831.84 1509.21C830.08 1510.97 829.12 1513.29 829.12 1515.69C829.12 1518.09 830.08 1520.41 831.84 1522.09C833.52 1523.77 835.84 1524.73 838.24 1524.73C840.64 1524.73 842.96 1523.77 844.64 1522.09C846.32 1520.41 847.28 1518.09 847.28 1515.69Z" fill="#009A4C"/>
<path fill-rule="evenodd" clip-rule="evenodd" d="M1756.56 603.687C1756.56 601.287 1755.6 599.047 1753.92 597.287C1752.16 595.607 1749.92 594.647 1747.44 594.647C1745.04 594.647 1742.8 595.607 1741.04 597.287C1739.36 599.047 1738.4 601.287 1738.4 603.687C1738.4 606.167 1739.36 608.407 1741.04 610.167C1742.8 611.847 1745.04 612.807 1747.44 612.807C1749.92 612.807 1752.16 611.847 1753.92 610.167C1755.6 608.407 1756.56 606.167 1756.56 603.687Z" fill="#009A4C"/>
<path fill-rule="evenodd" clip-rule="evenodd" d="M1721.04 1886.09C1721.04 1883.69 1720.08 1881.37 1718.32 1879.69C1716.64 1878.01 1714.32 1877.05 1711.92 1877.05C1709.52 1877.05 1707.2 1878.01 1705.52 1879.69C1703.84 1881.37 1702.88 1883.69 1702.88 1886.09C1702.88 1888.49 1703.84 1890.81 1705.52 1892.49C1707.2 1894.25 1709.52 1895.21 1711.92 1895.21C1714.32 1895.21 1716.64 1894.25 1718.32 1892.49C1720.08 1890.81 1721.04 1888.49 1721.04 1886.09Z" fill="#009A4C"/>
<path fill-rule="evenodd" clip-rule="evenodd" d="M2179.6 1816.73C2179.6 1814.33 2178.64 1812.01 2176.96 1810.33C2175.2 1808.65 2172.88 1807.69 2170.48 1807.69C2168.08 1807.69 2165.76 1808.65 2164.08 1810.33C2162.4 1812.01 2161.44 1814.33 2161.44 1816.73C2161.44 1819.13 2162.4 1821.45 2164.08 1823.13C2165.76 1824.81 2168.08 1825.77 2170.48 1825.77C2172.88 1825.77 2175.2 1824.81 2176.96 1823.13C2178.64 1821.45 2179.6 1819.13 2179.6 1816.73Z" fill="#009A4C"/>
<path fill-rule="evenodd" clip-rule="evenodd" d="M2021.52 2205.61C2021.52 2203.21 2020.56 2200.89 2018.88 2199.21C2017.12 2197.53 2014.88 2196.57 2012.48 2196.57C2010 2196.57 2007.76 2197.53 2006 2199.21C2004.32 2200.89 2003.36 2203.21 2003.36 2205.61C2003.36 2208.01 2004.32 2210.33 2006 2212.01C2007.76 2213.69 2010 2214.65 2012.48 2214.65C2014.88 2214.65 2017.12 2213.69 2018.88 2212.01C2020.56 2210.33 2021.52 2208.01 2021.52 2205.61Z" fill="#009A4C"/>
<path fill-rule="evenodd" clip-rule="evenodd" d="M1598.48 1002.81C1598.48 1000.41 1597.52 998.087 1595.84 996.407C1594.08 994.727 1591.84 993.767 1589.44 993.767C1586.96 993.767 1584.72 994.727 1582.96 996.407C1581.28 998.087 1580.32 1000.41 1580.32 1002.81C1580.32 1005.21 1581.28 1007.53 1582.96 1009.21C1584.72 1010.97 1586.96 1011.85 1589.44 1011.85C1591.84 1011.85 1594.08 1010.97 1595.84 1009.21C1597.52 1007.53 1598.48 1005.21 1598.48 1002.81Z" fill="#009A4C"/>
<path fill-rule="evenodd" clip-rule="evenodd" d="M581.84 1570.17C581.84 1567.77 580.88 1565.45 579.2 1563.77C577.44 1562.01 575.2 1561.05 572.72 1561.05C570.32 1561.05 568.08 1562.01 566.32 1563.77C564.64 1565.45 563.68 1567.77 563.68 1570.17C563.68 1572.57 564.64 1574.89 566.32 1576.57C568.08 1578.25 570.32 1579.21 572.72 1579.21C575.2 1579.21 577.44 1578.25 579.2 1576.57C580.88 1574.89 581.84 1572.57 581.84 1570.17Z" fill="#009A4C"/>
<path fill-rule="evenodd" clip-rule="evenodd" d="M595.6 1544.81C595.6 1542.41 594.64 1540.09 592.96 1538.41C591.28 1536.73 588.96 1535.77 586.56 1535.77C584.16 1535.77 581.84 1536.73 580.16 1538.41C578.4 1540.09 577.44 1542.41 577.44 1544.81C577.44 1547.21 578.4 1549.53 580.16 1551.21C581.84 1552.97 584.16 1553.85 586.56 1553.85C588.96 1553.85 591.28 1552.97 592.96 1551.21C594.64 1549.53 595.6 1547.21 595.6 1544.81Z" fill="#009A4C"/>
<path fill-rule="evenodd" clip-rule="evenodd" d="M1784.56 1477.13C1784.56 1474.73 1783.6 1472.41 1781.92 1470.73C1780.24 1469.05 1777.92 1468.09 1775.52 1468.09C1773.12 1468.09 1770.8 1469.05 1769.04 1470.73C1767.36 1472.41 1766.4 1474.73 1766.4 1477.13C1766.4 1479.53 1767.36 1481.85 1769.04 1483.53C1770.8 1485.29 1773.12 1486.25 1775.52 1486.25C1777.92 1486.25 1780.24 1485.29 1781.92 1483.53C1783.6 1481.85 1784.56 1479.53 1784.56 1477.13Z" fill="black"/>
<path fill-rule="evenodd" clip-rule="evenodd" d="M1706.64 1186.17C1706.64 1183.77 1705.68 1181.45 1704 1179.77C1702.24 1178.01 1699.92 1177.05 1697.52 1177.05C1695.12 1177.05 1692.8 1178.01 1691.12 1179.77C1689.44 1181.45 1688.48 1183.77 1688.48 1186.17C1688.48 1188.57 1689.44 1190.89 1691.12 1192.57C1692.88 1194.25 1695.12 1195.21 1697.52 1195.21C1699.92 1195.21 1702.24 1194.25 1704 1192.57C1705.68 1190.89 1706.64 1188.57 1706.64 1186.17Z" fill="#CC0000"/>
<path fill-rule="evenodd" clip-rule="evenodd" d="M1679.6 1217.13C1679.6 1214.73 1678.64 1212.41 1676.88 1210.73C1675.2 1208.97 1672.88 1208.09 1670.48 1208.09C1668.08 1208.09 1665.76 1208.97 1664.08 1210.73C1662.4 1212.41 1661.44 1214.73 1661.44 1217.13C1661.44 1219.53 1662.4 1221.85 1664.08 1223.53C1665.76 1225.21 1668.08 1226.17 1670.48 1226.17C1672.88 1226.17 1675.2 1225.21 1676.88 1223.53C1678.64 1221.85 1679.6 1219.53 1679.6 1217.13Z" fill="#4C719A"/>
<path fill-rule="evenodd" clip-rule="evenodd" d="M568.72 1387.29C568.72 1384.89 567.76 1382.57 566.08 1380.89C564.4 1379.13 562.08 1378.25 559.68 1378.25C557.28 1378.25 554.96 1379.13 553.28 1380.89C551.52 1382.57 550.56 1384.89 550.56 1387.29C550.56 1389.69 551.52 1392.01 553.28 1393.69C554.96 1395.37 557.28 1396.33 559.68 1396.33C562.08 1396.33 564.4 1395.37 566.08 1393.69C567.76 1392.01 568.72 1389.69 568.72 1387.29Z" fill="#CC0000"/>
<path fill-rule="evenodd" clip-rule="evenodd" d="M1972.56 1600.73C1972.56 1598.33 1971.6 1596.01 1969.92 1594.33C1968.24 1592.65 1965.92 1591.69 1963.52 1591.69C1961.12 1591.69 1958.8 1592.65 1957.12 1594.33C1955.36 1596.01 1954.4 1598.33 1954.4 1600.73C1954.4 1603.13 1955.36 1605.45 1957.12 1607.13C1958.8 1608.89 1961.12 1609.85 1963.52 1609.85C1965.92 1609.85 1968.24 1608.89 1969.92 1607.13C1971.6 1605.45 1972.56 1603.13 1972.56 1600.73Z" fill="#CC0000"/>
<path fill-rule="evenodd" clip-rule="evenodd" d="M1869.12 1738.81C1869.12 1736.41 1868.16 1734.17 1866.48 1732.41C1864.8 1730.73 1862.48 1729.77 1860.08 1729.77C1857.68 1729.77 1855.36 1730.73 1853.68 1732.41C1851.92 1734.17 1851.04 1736.41 1851.04 1738.81C1851.04 1741.29 1851.92 1743.53 1853.68 1745.29C1855.36 1746.97 1857.68 1747.93 1860.08 1747.93C1862.48 1747.93 1864.8 1746.97 1866.48 1745.29C1868.16 1743.53 1869.12 1741.29 1869.12 1738.81Z" fill="#CC0000"/>
<path fill-rule="evenodd" clip-rule="evenodd" d="M1714.16 1752.17C1714.16 1749.77 1713.2 1747.45 1711.44 1745.77C1709.76 1744.09 1707.44 1743.13 1705.04 1743.13C1702.64 1743.13 1700.32 1744.09 1698.64 1745.77C1696.96 1747.45 1696 1749.77 1696 1752.17C1696 1754.57 1696.96 1756.89 1698.64 1758.57C1700.32 1760.25 1702.64 1761.21 1705.04 1761.21C1707.44 1761.21 1709.76 1760.25 1711.44 1758.57C1713.2 1756.89 1714.16 1754.57 1714.16 1752.17Z" fill="#CC0000"/>
<path fill-rule="evenodd" clip-rule="evenodd" d="M613.28 1214.73C613.28 1212.33 612.32 1210.01 610.64 1208.25C608.88 1206.57 606.56 1205.61 604.16 1205.61C601.76 1205.61 599.44 1206.57 597.76 1208.25C596.08 1210.01 595.12 1212.33 595.12 1214.73C595.12 1217.13 596.08 1219.37 597.76 1221.13C599.52 1222.81 601.76 1223.77 604.16 1223.77C606.56 1223.77 608.88 1222.81 610.64 1221.13C612.32 1219.37 613.28 1217.13 613.28 1214.73Z" fill="#CC0000"/>
<path fill-rule="evenodd" clip-rule="evenodd" d="M872.48 575.607C872.48 573.207 871.6 570.887 869.84 569.127C868.16 567.447 865.84 566.487 863.44 566.487C861.04 566.487 858.72 567.447 857.04 569.127C855.36 570.887 854.4 573.207 854.4 575.607C854.4 578.007 855.36 580.247 857.04 582.007C858.72 583.687 861.04 584.647 863.44 584.647C865.84 584.647 868.16 583.687 869.84 582.007C871.6 580.247 872.48 578.007 872.48 575.607Z" fill="#CC0000"/>
<path fill-rule="evenodd" clip-rule="evenodd" d="M1297.36 1658.25C1297.36 1655.85 1296.4 1653.53 1294.72 1651.85C1293.04 1650.17 1290.72 1649.21 1288.32 1649.21C1285.92 1649.21 1283.6 1650.17 1281.92 1651.85C1280.16 1653.53 1279.2 1655.85 1279.2 1658.25C1279.2 1660.65 1280.16 1662.97 1281.92 1664.65C1283.6 1666.41 1285.92 1667.37 1288.32 1667.37C1290.72 1667.37 1293.04 1666.41 1294.72 1664.65C1296.4 1662.97 1297.36 1660.65 1297.36 1658.25Z" fill="#CC0000"/>
<path fill-rule="evenodd" clip-rule="evenodd" d="M1908.16 806.567C1908.16 804.167 1907.2 801.847 1905.52 800.167C1903.76 798.487 1901.52 797.527 1899.04 797.527C1896.64 797.527 1894.4 798.487 1892.64 800.167C1890.96 801.847 1890 804.167 1890 806.567C1890 808.967 1890.96 811.287 1892.64 812.967C1894.4 814.727 1896.64 815.687 1899.04 815.687C1901.52 815.687 1903.76 814.727 1905.52 812.967C1907.2 811.287 1908.16 808.967 1908.16 806.567Z" fill="#CC0000"/>
<path fill-rule="evenodd" clip-rule="evenodd" d="M1360.48 1805.93C1360.48 1803.53 1359.52 1801.21 1357.84 1799.53C1356.08 1797.77 1353.76 1796.89 1351.36 1796.89C1348.96 1796.89 1346.64 1797.77 1344.96 1799.53C1343.28 1801.21 1342.32 1803.53 1342.32 1805.93C1342.32 1808.33 1343.28 1810.65 1344.96 1812.33C1346.64 1814.01 1348.96 1814.97 1351.36 1814.97C1353.76 1814.97 1356.08 1814.01 1357.84 1812.33C1359.52 1810.65 1360.48 1808.33 1360.48 1805.93Z" fill="#CC0000"/>
<path fill-rule="evenodd" clip-rule="evenodd" d="M565.2 233.767C565.2 231.367 564.24 229.127 562.56 227.367C560.88 225.687 558.56 224.727 556.16 224.727C553.76 224.727 551.44 225.687 549.76 227.367C548.08 229.127 547.12 231.367 547.12 233.767C547.12 236.247 548.08 238.487 549.76 240.247C551.44 241.927 553.76 242.887 556.16 242.887C558.56 242.887 560.88 241.927 562.56 240.247C564.24 238.487 565.2 236.247 565.2 233.767Z" fill="#CC0000"/>
<path fill-rule="evenodd" clip-rule="evenodd" d="M1882.08 1495.85C1882.08 1493.45 1881.12 1491.13 1879.36 1489.45C1877.68 1487.77 1875.36 1486.81 1872.96 1486.81C1870.56 1486.81 1868.24 1487.77 1866.56 1489.45C1864.88 1491.13 1863.92 1493.45 1863.92 1495.85C1863.92 1498.25 1864.88 1500.57 1866.56 1502.25C1868.24 1504.01 1870.56 1504.97 1872.96 1504.97C1875.36 1504.97 1877.68 1504.01 1879.36 1502.25C1881.12 1500.57 1882.08 1498.25 1882.08 1495.85Z" fill="#CC0000"/>
<path fill-rule="evenodd" clip-rule="evenodd" d="M1437.04 1668.01C1437.04 1665.61 1436.08 1663.29 1434.4 1661.53C1432.64 1659.85 1430.32 1658.89 1427.92 1658.89C1425.52 1658.89 1423.2 1659.85 1421.52 1661.53C1419.84 1663.29 1418.88 1665.61 1418.88 1668.01C1418.88 1670.41 1419.84 1672.73 1421.52 1674.41C1423.2 1676.09 1425.52 1677.05 1427.92 1677.05C1430.32 1677.05 1432.64 1676.09 1434.4 1674.41C1436.08 1672.73 1437.04 1670.41 1437.04 1668.01Z" fill="#CC0000"/>
<path fill-rule="evenodd" clip-rule="evenodd" d="M943.92 1629.29C943.92 1626.89 942.96 1624.57 941.28 1622.89C939.6 1621.13 937.28 1620.17 934.88 1620.17C932.48 1620.17 930.16 1621.13 928.48 1622.89C926.72 1624.57 925.76 1626.89 925.76 1629.29C925.76 1631.69 926.72 1634.01 928.48 1635.69C930.16 1637.37 932.48 1638.33 934.88 1638.33C937.28 1638.33 939.6 1637.37 941.28 1635.69C942.96 1634.01 943.92 1631.69 943.92 1629.29Z" fill="#CCB265"/>
<path fill-rule="evenodd" clip-rule="evenodd" d="M1802 1123.85C1802 1121.45 1801.04 1119.13 1799.36 1117.45C1797.6 1115.69 1795.36 1114.81 1792.88 1114.81C1790.48 1114.81 1788.24 1115.69 1786.48 1117.45C1784.8 1119.13 1783.84 1121.45 1783.84 1123.85C1783.84 1126.25 1784.8 1128.57 1786.48 1130.25C1788.24 1131.93 1790.48 1132.89 1792.88 1132.89C1795.36 1132.89 1797.6 1131.93 1799.36 1130.25C1801.04 1128.57 1802 1126.25 1802 1123.85Z" fill="#CC0000"/>
<path fill-rule="evenodd" clip-rule="evenodd" d="M1851.28 1523.61C1851.28 1521.21 1850.32 1518.89 1848.64 1517.13C1846.96 1515.45 1844.64 1514.49 1842.24 1514.49C1839.84 1514.49 1837.52 1515.45 1835.84 1517.13C1834.08 1518.89 1833.12 1521.21 1833.12 1523.61C1833.12 1526.01 1834.08 1528.33 1835.84 1530.01C1837.52 1531.69 1839.84 1532.65 1842.24 1532.65C1844.64 1532.65 1846.96 1531.69 1848.64 1530.01C1850.32 1528.33 1851.28 1526.01 1851.28 1523.61Z" fill="#CC0000"/>
<path fill-rule="evenodd" clip-rule="evenodd" d="M1737.2 1893.13C1737.2 1890.73 1736.24 1888.41 1734.56 1886.73C1732.88 1884.97 1730.56 1884.01 1728.16 1884.01C1725.76 1884.01 1723.44 1884.97 1721.76 1886.73C1720 1888.41 1719.04 1890.73 1719.04 1893.13C1719.04 1895.53 1720 1897.85 1721.76 1899.53C1723.44 1901.21 1725.76 1902.17 1728.16 1902.17C1730.56 1902.17 1732.88 1901.21 1734.56 1899.53C1736.24 1897.85 1737.2 1895.53 1737.2 1893.13Z" fill="#CC0000"/>
<path fill-rule="evenodd" clip-rule="evenodd" d="M1405.6 1206.25C1405.6 1203.85 1404.64 1201.53 1402.96 1199.85C1401.28 1198.17 1398.96 1197.21 1396.56 1197.21C1394.16 1197.21 1391.84 1198.17 1390.08 1199.85C1388.4 1201.53 1387.44 1203.85 1387.44 1206.25C1387.44 1208.65 1388.4 1210.97 1390.08 1212.65C1391.84 1214.41 1394.16 1215.37 1396.56 1215.37C1398.96 1215.37 1401.28 1214.41 1402.96 1212.65C1404.64 1210.97 1405.6 1208.65 1405.6 1206.25Z" fill="#CC0000"/>
<path fill-rule="evenodd" clip-rule="evenodd" d="M883.68 1330.73C883.68 1328.33 882.72 1326.01 881.04 1324.33C879.36 1322.65 877.04 1321.69 874.64 1321.69C872.24 1321.69 869.92 1322.65 868.24 1324.33C866.56 1326.01 865.6 1328.33 865.6 1330.73C865.6 1333.13 866.56 1335.45 868.24 1337.13C869.92 1338.89 872.24 1339.85 874.64 1339.85C877.04 1339.85 879.36 1338.89 881.04 1337.13C882.72 1335.45 883.68 1333.13 883.68 1330.73Z" fill="#CC0000"/>
<path fill-rule="evenodd" clip-rule="evenodd" d="M904.8 1320.49C904.8 1318.09 903.84 1315.77 902.16 1314.09C900.4 1312.33 898.16 1311.37 895.76 1311.37C893.36 1311.37 891.04 1312.33 889.28 1314.09C887.6 1315.77 886.64 1318.09 886.64 1320.49C886.64 1322.89 887.6 1325.21 889.28 1326.89C891.04 1328.57 893.28 1329.53 895.76 1329.53C898.16 1329.53 900.4 1328.57 902.16 1326.89C903.84 1325.21 904.8 1322.89 904.8 1320.49Z" fill="#CC0000"/>
<path fill-rule="evenodd" clip-rule="evenodd" d="M1186.08 636.807C1186.08 634.407 1185.12 632.087 1183.44 630.407C1181.76 628.727 1179.44 627.767 1177.04 627.767C1174.64 627.767 1172.32 628.727 1170.56 630.407C1168.88 632.087 1167.92 634.407 1167.92 636.807C1167.92 639.207 1168.88 641.527 1170.56 643.207C1172.32 644.967 1174.64 645.927 1177.04 645.927C1179.44 645.927 1181.68 644.967 1183.44 643.207C1185.12 641.527 1186.08 639.207 1186.08 636.807Z" fill="#CC0000"/>
<path fill-rule="evenodd" clip-rule="evenodd" d="M1121.04 618.487C1121.04 616.087 1120.08 613.767 1118.4 612.007C1116.64 610.327 1114.32 609.367 1111.92 609.367C1109.52 609.367 1107.2 610.327 1105.52 612.007C1103.84 613.767 1102.88 616.007 1102.88 618.487C1102.88 620.887 1103.84 623.127 1105.52 624.887C1107.28 626.567 1109.52 627.527 1111.92 627.527C1114.32 627.527 1116.64 626.567 1118.4 624.887C1120.08 623.127 1121.04 620.887 1121.04 618.487Z" fill="#CC0000"/>
<path fill-rule="evenodd" clip-rule="evenodd" d="M1858.24 1670.09C1858.24 1667.69 1857.28 1665.37 1855.6 1663.61C1853.84 1661.93 1851.6 1660.97 1849.2 1660.97C1846.8 1660.97 1844.48 1661.93 1842.72 1663.61C1841.04 1665.37 1840.08 1667.69 1840.08 1670.09C1840.08 1672.49 1841.04 1674.81 1842.72 1676.49C1844.48 1678.17 1846.8 1679.13 1849.2 1679.13C1851.6 1679.13 1853.84 1678.17 1855.6 1676.49C1857.28 1674.81 1858.24 1672.49 1858.24 1670.09Z" fill="#CC0000"/>
<path fill-rule="evenodd" clip-rule="evenodd" d="M211.76 883.047C211.76 880.567 210.8 878.327 209.12 876.567C207.44 874.887 205.12 873.927 202.72 873.927C200.32 873.927 198 874.887 196.32 876.567C194.56 878.327 193.6 880.567 193.6 883.047C193.6 885.447 194.56 887.687 196.32 889.447C198 891.127 200.32 892.087 202.72 892.087C205.12 892.087 207.44 891.127 209.12 889.447C210.8 887.687 211.76 885.447 211.76 883.047Z" fill="#CC0000"/>
<path fill-rule="evenodd" clip-rule="evenodd" d="M1134.72 1378.57C1134.72 1376.17 1133.76 1373.85 1132.08 1372.17C1130.32 1370.49 1128 1369.53 1125.6 1369.53C1123.2 1369.53 1120.96 1370.49 1119.2 1372.17C1117.52 1373.85 1116.56 1376.17 1116.56 1378.57C1116.56 1380.97 1117.52 1383.29 1119.2 1384.97C1120.96 1386.73 1123.2 1387.69 1125.6 1387.69C1128.08 1387.69 1130.32 1386.73 1132.08 1384.97C1133.76 1383.29 1134.72 1380.97 1134.72 1378.57Z" fill="#CC0000"/>
<path fill-rule="evenodd" clip-rule="evenodd" d="M581.92 533.767C581.92 531.367 581.04 529.047 579.28 527.367C577.6 525.607 575.28 524.647 572.88 524.647C570.48 524.647 568.16 525.607 566.48 527.367C564.8 529.047 563.84 531.367 563.84 533.767C563.84 536.167 564.8 538.487 566.48 540.167C568.16 541.847 570.48 542.807 572.88 542.807C575.28 542.807 577.6 541.847 579.28 540.167C581.04 538.487 581.92 536.167 581.92 533.767Z" fill="#CC0000"/>
<path fill-rule="evenodd" clip-rule="evenodd" d="M1601.52 1529.21C1601.52 1526.81 1600.56 1524.57 1598.88 1522.81C1597.12 1521.13 1594.8 1520.17 1592.4 1520.17C1590 1520.17 1587.68 1521.13 1586 1522.81C1584.32 1524.57 1583.36 1526.81 1583.36 1529.21C1583.36 1531.69 1584.32 1533.93 1586 1535.69C1587.68 1537.37 1590 1538.33 1592.4 1538.33C1594.8 1538.33 1597.12 1537.37 1598.88 1535.69C1600.56 1533.93 1601.52 1531.69 1601.52 1529.21Z" fill="#CC0000"/>
<path fill-rule="evenodd" clip-rule="evenodd" d="M556.8 1585.93C556.8 1583.53 555.92 1581.21 554.16 1579.45C552.48 1577.77 550.16 1576.81 547.76 1576.81C545.36 1576.81 543.04 1577.77 541.36 1579.45C539.68 1581.21 538.72 1583.53 538.72 1585.93C538.72 1588.33 539.68 1590.65 541.36 1592.33C543.04 1594.01 545.36 1594.97 547.76 1594.97C550.16 1594.97 552.48 1594.01 554.16 1592.33C555.92 1590.65 556.8 1588.33 556.8 1585.93Z" fill="#CCB265"/>
<path fill-rule="evenodd" clip-rule="evenodd" d="M1850.4 1849.85C1850.4 1847.45 1849.44 1845.13 1847.68 1843.45C1846 1841.77 1843.68 1840.81 1841.28 1840.81C1838.88 1840.81 1836.56 1841.77 1834.88 1843.45C1833.2 1845.13 1832.24 1847.45 1832.24 1849.85C1832.24 1852.25 1833.2 1854.57 1834.88 1856.25C1836.56 1858.01 1838.88 1858.89 1841.28 1858.89C1843.68 1858.89 1846 1858.01 1847.68 1856.25C1849.44 1854.57 1850.4 1852.25 1850.4 1849.85Z" fill="#CC0000"/>
<path fill-rule="evenodd" clip-rule="evenodd" d="M2364.56 1924.17C2364.56 1921.77 2363.6 1919.45 2361.92 1917.77C2360.16 1916.09 2357.84 1915.13 2355.44 1915.13C2353.04 1915.13 2350.72 1916.09 2349.04 1917.77C2347.36 1919.45 2346.4 1921.77 2346.4 1924.17C2346.4 1926.57 2347.36 1928.89 2349.04 1930.57C2350.72 1932.33 2353.04 1933.29 2355.44 1933.29C2357.84 1933.29 2360.16 1932.33 2361.92 1930.57C2363.6 1928.89 2364.56 1926.57 2364.56 1924.17Z" fill="#CC0000"/>
<path fill-rule="evenodd" clip-rule="evenodd" d="M1571.44 1361.13C1571.44 1358.73 1570.48 1356.41 1568.8 1354.73C1567.12 1353.05 1564.8 1352.09 1562.4 1352.09C1560 1352.09 1557.68 1353.05 1556 1354.73C1554.24 1356.41 1553.28 1358.73 1553.28 1361.13C1553.28 1363.53 1554.24 1365.85 1556 1367.53C1557.68 1369.21 1560 1370.17 1562.4 1370.17C1564.8 1370.17 1567.12 1369.21 1568.8 1367.53C1570.48 1365.85 1571.44 1363.53 1571.44 1361.13Z" fill="#CC0000"/>
<path fill-rule="evenodd" clip-rule="evenodd" d="M1194.96 991.687C1194.96 989.287 1194 986.967 1192.24 985.287C1190.56 983.607 1188.24 982.647 1185.84 982.647C1183.44 982.647 1181.12 983.607 1179.44 985.287C1177.76 986.967 1176.8 989.287 1176.8 991.687C1176.8 994.087 1177.76 996.407 1179.44 998.167C1181.12 999.847 1183.44 1000.81 1185.84 1000.81C1188.24 1000.81 1190.56 999.847 1192.24 998.167C1194 996.407 1194.96 994.087 1194.96 991.687Z" fill="#CC0000"/>
<path fill-rule="evenodd" clip-rule="evenodd" d="M358 1061.45C358 1059.05 357.04 1056.73 355.36 1055.05C353.6 1053.37 351.36 1052.41 348.96 1052.41C346.56 1052.41 344.24 1053.37 342.48 1055.05C340.8 1056.73 339.84 1059.05 339.84 1061.45C339.84 1063.85 340.8 1066.17 342.48 1067.93C344.24 1069.61 346.56 1070.57 348.96 1070.57C351.36 1070.57 353.6 1069.61 355.36 1067.93C357.04 1066.17 358 1063.85 358 1061.45Z" fill="#CC0000"/>
<path fill-rule="evenodd" clip-rule="evenodd" d="M1773.68 1784.41C1773.68 1782.01 1772.72 1779.77 1771.04 1778.01C1769.36 1776.33 1767.04 1775.37 1764.64 1775.37C1762.24 1775.37 1759.92 1776.33 1758.24 1778.01C1756.48 1779.77 1755.52 1782.01 1755.52 1784.41C1755.52 1786.89 1756.48 1789.13 1758.24 1790.89C1759.92 1792.57 1762.24 1793.53 1764.64 1793.53C1767.04 1793.53 1769.36 1792.57 1771.04 1790.89C1772.72 1789.13 1773.68 1786.89 1773.68 1784.41Z" fill="#CC0000"/>
<path fill-rule="evenodd" clip-rule="evenodd" d="M300.72 1858.09C300.72 1855.69 299.76 1853.37 298.08 1851.69C296.32 1850.01 294.08 1849.05 291.68 1849.05C289.2 1849.05 286.96 1850.01 285.2 1851.69C283.52 1853.37 282.56 1855.69 282.56 1858.09C282.56 1860.49 283.52 1862.81 285.2 1864.49C286.96 1866.25 289.2 1867.13 291.68 1867.13C294.08 1867.13 296.32 1866.25 298.08 1864.49C299.76 1862.81 300.72 1860.49 300.72 1858.09Z" fill="#CC0000"/>
<path fill-rule="evenodd" clip-rule="evenodd" d="M160.8 2094.25C160.8 2091.85 159.84 2089.53 158.16 2087.85C156.48 2086.17 154.16 2085.21 151.76 2085.21C149.36 2085.21 147.04 2086.17 145.36 2087.85C143.68 2089.53 142.72 2091.85 142.72 2094.25C142.72 2096.65 143.68 2098.97 145.36 2100.65C147.04 2102.41 149.36 2103.37 151.76 2103.37C154.16 2103.37 156.48 2102.41 158.16 2100.65C159.84 2098.97 160.8 2096.65 160.8 2094.25Z" fill="#CC0000"/>
<path fill-rule="evenodd" clip-rule="evenodd" d="M954.88 927.127C954.88 924.727 953.92 922.407 952.24 920.727C950.56 919.047 948.24 918.087 945.84 918.087C943.44 918.087 941.12 919.047 939.44 920.727C937.68 922.407 936.72 924.727 936.72 927.127C936.72 929.527 937.68 931.847 939.44 933.527C941.12 935.287 943.44 936.247 945.84 936.247C948.24 936.247 950.56 935.287 952.24 933.527C953.92 931.847 954.88 929.527 954.88 927.127Z" fill="#CC0000"/>
<path fill-rule="evenodd" clip-rule="evenodd" d="M789.36 1008.09C789.36 1005.69 788.4 1003.37 786.72 1001.69C784.96 1000.01 782.72 999.047 780.32 999.047C777.92 999.047 775.6 1000.01 773.84 1001.69C772.16 1003.37 771.2 1005.69 771.2 1008.09C771.2 1010.49 772.16 1012.81 773.84 1014.49C775.6 1016.25 777.84 1017.13 780.32 1017.13C782.72 1017.13 784.96 1016.25 786.72 1014.49C788.4 1012.81 789.36 1010.49 789.36 1008.09Z" fill="#CC0000"/>
<path fill-rule="evenodd" clip-rule="evenodd" d="M585.12 1074.57C585.12 1072.17 584.16 1069.93 582.48 1068.17C580.8 1066.49 578.48 1065.53 576.08 1065.53C573.68 1065.53 571.36 1066.49 569.68 1068.17C567.92 1069.93 566.96 1072.17 566.96 1074.57C566.96 1077.05 567.92 1079.29 569.68 1081.05C571.36 1082.73 573.68 1083.69 576.08 1083.69C578.48 1083.69 580.8 1082.73 582.48 1081.05C584.16 1079.29 585.12 1077.05 585.12 1074.57Z" fill="#CCB265"/>
<path fill-rule="evenodd" clip-rule="evenodd" d="M1754.64 1697.93C1754.64 1695.53 1753.68 1693.21 1752 1691.53C1750.32 1689.77 1748 1688.81 1745.6 1688.81C1743.2 1688.81 1740.88 1689.77 1739.2 1691.53C1737.44 1693.21 1736.48 1695.53 1736.48 1697.93C1736.48 1700.33 1737.44 1702.65 1739.2 1704.33C1740.88 1706.01 1743.2 1706.97 1745.6 1706.97C1748 1706.97 1750.32 1706.01 1752 1704.33C1753.68 1702.65 1754.64 1700.33 1754.64 1697.93Z" fill="#CCB265"/>
<path fill-rule="evenodd" clip-rule="evenodd" d="M1734.48 1698.49C1734.48 1696.09 1733.52 1693.77 1731.84 1692.09C1730.16 1690.41 1727.84 1689.45 1725.44 1689.45C1723.04 1689.45 1720.72 1690.41 1719.04 1692.09C1717.28 1693.77 1716.32 1696.09 1716.32 1698.49C1716.32 1700.89 1717.28 1703.21 1719.04 1704.89C1720.72 1706.65 1723.04 1707.61 1725.44 1707.61C1727.84 1707.61 1730.16 1706.65 1731.84 1704.89C1733.52 1703.21 1734.48 1700.89 1734.48 1698.49Z" fill="#4C719A"/>
<path fill-rule="evenodd" clip-rule="evenodd" d="M1442.72 1484.09C1442.72 1481.69 1441.76 1479.37 1440.08 1477.69C1438.32 1475.93 1436.08 1474.97 1433.68 1474.97C1431.2 1474.97 1428.96 1475.93 1427.2 1477.69C1425.52 1479.37 1424.56 1481.69 1424.56 1484.09C1424.56 1486.49 1425.52 1488.81 1427.2 1490.49C1428.96 1492.17 1431.2 1493.13 1433.68 1493.13C1436.08 1493.13 1438.32 1492.17 1440.08 1490.49C1441.76 1488.81 1442.72 1486.49 1442.72 1484.09Z" fill="#4C719A"/>
<path fill-rule="evenodd" clip-rule="evenodd" d="M834.24 562.007C834.24 559.607 833.28 557.287 831.6 555.607C829.92 553.847 827.6 552.887 825.2 552.887C822.8 552.887 820.48 553.847 818.8 555.607C817.12 557.287 816.16 559.607 816.16 562.007C816.16 564.407 817.12 566.727 818.8 568.407C820.48 570.087 822.8 571.047 825.2 571.047C827.6 571.047 829.92 570.087 831.6 568.407C833.28 566.727 834.24 564.407 834.24 562.007Z" fill="#4C719A"/>
<path fill-rule="evenodd" clip-rule="evenodd" d="M2140.88 1773.93C2140.88 1771.53 2139.92 1769.29 2138.16 1767.53C2136.48 1765.85 2134.16 1764.89 2131.76 1764.89C2129.36 1764.89 2127.04 1765.85 2125.36 1767.53C2123.68 1769.29 2122.72 1771.53 2122.72 1773.93C2122.72 1776.41 2123.68 1778.65 2125.36 1780.41C2127.04 1782.09 2129.36 1783.05 2131.76 1783.05C2134.16 1783.05 2136.48 1782.09 2138.16 1780.41C2139.92 1778.65 2140.88 1776.41 2140.88 1773.93Z" fill="#4C719A"/>
<path fill-rule="evenodd" clip-rule="evenodd" d="M1235.92 1516.25C1235.92 1513.85 1234.96 1511.53 1233.28 1509.85C1231.52 1508.17 1229.28 1507.21 1226.88 1507.21C1224.4 1507.21 1222.16 1508.17 1220.4 1509.85C1218.72 1511.53 1217.76 1513.85 1217.76 1516.25C1217.76 1518.65 1218.72 1520.97 1220.4 1522.73C1222.16 1524.41 1224.4 1525.37 1226.88 1525.37C1229.28 1525.37 1231.52 1524.41 1233.28 1522.73C1234.96 1520.97 1235.92 1518.65 1235.92 1516.25Z" fill="#4C719A"/>
<path fill-rule="evenodd" clip-rule="evenodd" d="M1080.48 388.887C1080.48 386.487 1079.52 384.167 1077.76 382.487C1076.08 380.727 1073.76 379.767 1071.36 379.767C1068.96 379.767 1066.64 380.727 1064.96 382.487C1063.28 384.167 1062.32 386.487 1062.32 388.887C1062.32 391.287 1063.28 393.607 1064.96 395.287C1066.64 396.967 1068.96 397.927 1071.36 397.927C1073.76 397.927 1076.08 396.967 1077.76 395.287C1079.52 393.607 1080.48 391.287 1080.48 388.887Z" fill="#4C719A"/>
<path fill-rule="evenodd" clip-rule="evenodd" d="M645.68 1302.65C645.68 1300.25 644.72 1297.93 643.04 1296.25C641.36 1294.57 639.04 1293.61 636.64 1293.61C634.24 1293.61 631.92 1294.57 630.16 1296.25C628.48 1297.93 627.52 1300.25 627.52 1302.65C627.52 1305.05 628.48 1307.37 630.16 1309.05C631.92 1310.81 634.24 1311.77 636.64 1311.77C639.04 1311.77 641.36 1310.81 643.04 1309.05C644.72 1307.37 645.68 1305.05 645.68 1302.65Z" fill="#4C719A"/>
<path fill-rule="evenodd" clip-rule="evenodd" d="M1894.48 2009.13C1894.48 2006.73 1893.52 2004.41 1891.76 2002.73C1890.08 2001.05 1887.76 2000.09 1885.36 2000.09C1882.96 2000.09 1880.64 2001.05 1878.96 2002.73C1877.28 2004.41 1876.32 2006.73 1876.32 2009.13C1876.32 2011.53 1877.28 2013.85 1878.96 2015.53C1880.64 2017.21 1882.96 2018.17 1885.36 2018.17C1887.76 2018.17 1890.08 2017.21 1891.76 2015.53C1893.52 2013.85 1894.48 2011.53 1894.48 2009.13Z" fill="#4C719A"/>
<path fill-rule="evenodd" clip-rule="evenodd" d="M568 1806.41C568 1804.01 567.04 1801.69 565.36 1800.01C563.68 1798.25 561.36 1797.29 558.96 1797.29C556.56 1797.29 554.24 1798.25 552.56 1800.01C550.8 1801.69 549.84 1804.01 549.84 1806.41C549.84 1808.81 550.8 1811.13 552.56 1812.81C554.24 1814.49 556.56 1815.45 558.96 1815.45C561.36 1815.45 563.68 1814.49 565.36 1812.81C567.04 1811.13 568 1808.81 568 1806.41Z" fill="#4C719A"/>
<path fill-rule="evenodd" clip-rule="evenodd" d="M927.84 1562.49C927.84 1560.09 926.88 1557.77 925.12 1556.09C923.44 1554.41 921.12 1553.45 918.72 1553.45C916.32 1553.45 914 1554.41 912.32 1556.09C910.64 1557.77 909.68 1560.09 909.68 1562.49C909.68 1564.89 910.64 1567.21 912.32 1568.89C914 1570.57 916.32 1571.53 918.72 1571.53C921.12 1571.53 923.44 1570.57 925.12 1568.89C926.88 1567.21 927.84 1564.89 927.84 1562.49Z" fill="#4C719A"/>
<path fill-rule="evenodd" clip-rule="evenodd" d="M955.28 315.527C955.28 313.127 954.32 310.807 952.64 309.127C950.96 307.447 948.64 306.487 946.24 306.487C943.84 306.487 941.52 307.447 939.84 309.127C938.08 310.807 937.12 313.127 937.12 315.527C937.12 317.927 938.08 320.247 939.84 321.927C941.52 323.687 943.84 324.647 946.24 324.647C948.64 324.647 950.96 323.687 952.64 321.927C954.32 320.247 955.28 317.927 955.28 315.527Z" fill="#4C719A"/>
<path fill-rule="evenodd" clip-rule="evenodd" d="M1437.6 795.047C1437.6 792.647 1436.64 790.327 1434.96 788.647C1433.28 786.887 1430.96 786.007 1428.56 785.927C1426.16 786.007 1423.84 786.887 1422.08 788.647C1420.4 790.327 1419.44 792.647 1419.44 795.047C1419.44 797.447 1420.4 799.767 1422.08 801.447C1423.84 803.127 1426.16 804.087 1428.56 804.087C1430.96 804.087 1433.2 803.127 1434.96 801.447C1436.64 799.767 1437.6 797.447 1437.6 795.047Z" fill="#4C719A"/>
<path fill-rule="evenodd" clip-rule="evenodd" d="M1073.12 1788.09C1073.12 1785.69 1072.16 1783.37 1070.4 1781.69C1068.72 1780.01 1066.4 1779.05 1064 1779.05C1061.6 1779.05 1059.28 1780.01 1057.6 1781.69C1055.92 1783.37 1054.96 1785.69 1054.96 1788.09C1054.96 1790.49 1055.92 1792.81 1057.6 1794.49C1059.28 1796.17 1061.6 1797.13 1064 1797.13C1066.4 1797.13 1068.72 1796.17 1070.4 1794.49C1072.16 1792.81 1073.12 1790.49 1073.12 1788.09Z" fill="#4C719A"/>
<path fill-rule="evenodd" clip-rule="evenodd" d="M1390.64 1163.61C1390.64 1161.21 1389.68 1158.89 1388 1157.21C1386.24 1155.45 1384 1154.49 1381.6 1154.49C1379.12 1154.49 1376.88 1155.45 1375.12 1157.21C1373.44 1158.89 1372.48 1161.21 1372.48 1163.61C1372.48 1166.01 1373.44 1168.33 1375.12 1170.01C1376.88 1171.69 1379.12 1172.65 1381.6 1172.65C1384 1172.65 1386.24 1171.69 1388 1170.01C1389.68 1168.33 1390.64 1166.01 1390.64 1163.61Z" fill="#4C719A"/>
<path fill-rule="evenodd" clip-rule="evenodd" d="M1846.64 1787.53C1846.64 1785.13 1845.68 1782.89 1844 1781.13C1842.32 1779.45 1840 1778.49 1837.6 1778.49C1835.2 1778.49 1832.88 1779.45 1831.2 1781.13C1829.44 1782.89 1828.56 1785.13 1828.56 1787.53C1828.56 1790.01 1829.44 1792.25 1831.2 1794.01C1832.88 1795.69 1835.2 1796.65 1837.6 1796.65C1840 1796.65 1842.32 1795.69 1844 1794.01C1845.68 1792.25 1846.64 1790.01 1846.64 1787.53Z" fill="#4C719A"/>
<path fill-rule="evenodd" clip-rule="evenodd" d="M1076.8 1356.41C1076.8 1354.01 1075.84 1351.69 1074.16 1350.01C1072.4 1348.25 1070.08 1347.29 1067.68 1347.29C1065.28 1347.29 1062.96 1348.25 1061.28 1350.01C1059.6 1351.69 1058.64 1354.01 1058.64 1356.41C1058.64 1358.81 1059.6 1361.13 1061.28 1362.81C1062.96 1364.49 1065.28 1365.45 1067.68 1365.45C1070.08 1365.45 1072.4 1364.49 1074.16 1362.81C1075.84 1361.13 1076.8 1358.81 1076.8 1356.41Z" fill="#4C719A"/>
<path fill-rule="evenodd" clip-rule="evenodd" d="M578.08 850.167C578.08 847.767 577.12 845.447 575.44 843.767C573.68 842.007 571.36 841.127 568.96 841.127C566.56 841.127 564.24 842.007 562.56 843.767C560.88 845.447 559.92 847.767 559.92 850.167C559.92 852.567 560.88 854.887 562.56 856.567C564.24 858.247 566.56 859.207 568.96 859.207C571.36 859.207 573.68 858.247 575.44 856.567C577.12 854.887 578.08 852.567 578.08 850.167Z" fill="#4C719A"/>
<path fill-rule="evenodd" clip-rule="evenodd" d="M1793.28 1763.21C1793.28 1760.81 1792.32 1758.49 1790.64 1756.81C1788.96 1755.05 1786.64 1754.17 1784.24 1754.17C1781.84 1754.17 1779.52 1755.05 1777.76 1756.81C1776.08 1758.49 1775.12 1760.81 1775.12 1763.21C1775.12 1765.61 1776.08 1767.93 1777.76 1769.61C1779.52 1771.29 1781.84 1772.25 1784.24 1772.25C1786.64 1772.25 1788.88 1771.29 1790.64 1769.61C1792.32 1767.93 1793.28 1765.61 1793.28 1763.21Z" fill="#4C719A"/>
<path fill-rule="evenodd" clip-rule="evenodd" d="M1555.44 1351.05C1555.44 1348.57 1554.48 1346.33 1552.72 1344.57C1551.04 1342.89 1548.72 1341.93 1546.32 1341.93C1543.92 1341.93 1541.6 1342.89 1539.92 1344.57C1538.24 1346.33 1537.28 1348.57 1537.28 1351.05C1537.28 1353.45 1538.24 1355.69 1539.92 1357.45C1541.6 1359.13 1543.92 1360.09 1546.32 1360.09C1548.72 1360.09 1551.04 1359.13 1552.72 1357.45C1554.48 1355.69 1555.44 1353.45 1555.44 1351.05Z" fill="#4C719A"/>
<path fill-rule="evenodd" clip-rule="evenodd" d="M810.88 985.287C810.88 982.887 809.92 980.567 808.16 978.807C806.48 977.127 804.16 976.167 801.76 976.167C799.36 976.167 797.04 977.127 795.36 978.807C793.68 980.567 792.72 982.807 792.72 985.287C792.72 987.687 793.68 989.927 795.36 991.687C797.04 993.367 799.36 994.327 801.76 994.327C804.16 994.327 806.48 993.367 808.16 991.687C809.92 989.927 810.88 987.687 810.88 985.287Z" fill="#4C719A"/>
<path fill-rule="evenodd" clip-rule="evenodd" d="M1836.16 1758.57C1836.16 1756.17 1835.2 1753.85 1833.52 1752.17C1831.84 1750.41 1829.52 1749.45 1827.12 1749.45C1824.72 1749.45 1822.4 1750.41 1820.72 1752.17C1818.96 1753.85 1818 1756.17 1818 1758.57C1818 1760.97 1818.96 1763.29 1820.72 1764.97C1822.4 1766.65 1824.72 1767.61 1827.12 1767.61C1829.52 1767.61 1831.84 1766.65 1833.52 1764.97C1835.2 1763.29 1836.16 1760.97 1836.16 1758.57Z" fill="#CC0000"/>
<path fill-rule="evenodd" clip-rule="evenodd" d="M1793.12 1706.33C1793.12 1703.93 1792.16 1701.69 1790.48 1699.93C1788.8 1698.25 1786.48 1697.29 1784.08 1697.29C1781.68 1697.29 1779.36 1698.25 1777.6 1699.93C1775.92 1701.69 1774.96 1703.93 1774.96 1706.33C1774.96 1708.81 1775.92 1711.05 1777.6 1712.81C1779.36 1714.49 1781.68 1715.45 1784.08 1715.45C1786.48 1715.45 1788.8 1714.49 1790.48 1712.81C1792.16 1711.05 1793.12 1708.81 1793.12 1706.33Z" fill="black"/>
<path fill-rule="evenodd" clip-rule="evenodd" d="M1517.04 343.287C1517.04 340.887 1516.08 338.567 1514.4 336.887C1512.72 335.127 1510.4 334.167 1508 334.167C1505.6 334.167 1503.28 335.127 1501.6 336.887C1499.84 338.567 1498.88 340.887 1498.96 343.287C1498.88 345.687 1499.84 348.007 1501.6 349.687C1503.28 351.367 1505.6 352.327 1508 352.327C1510.4 352.327 1512.72 351.367 1514.4 349.687C1516.08 348.007 1517.04 345.687 1517.04 343.287Z" fill="#CC0000"/>
<path fill-rule="evenodd" clip-rule="evenodd" d="M1414.24 1928.01C1414.24 1925.61 1413.28 1923.29 1411.52 1921.61C1409.84 1919.85 1407.52 1918.89 1405.12 1918.89C1402.72 1918.89 1400.4 1919.85 1398.72 1921.61C1397.04 1923.29 1396.08 1925.61 1396.08 1928.01C1396.08 1930.41 1397.04 1932.73 1398.72 1934.41C1400.4 1936.09 1402.72 1937.05 1405.12 1937.05C1407.52 1937.05 1409.84 1936.09 1411.52 1934.41C1413.28 1932.73 1414.24 1930.41 1414.24 1928.01Z" fill="#CC0000"/>
<path fill-rule="evenodd" clip-rule="evenodd" d="M1852.48 833.527C1852.48 831.127 1851.52 828.807 1849.84 827.127C1848.16 825.367 1845.84 824.487 1843.44 824.487C1841.04 824.487 1838.72 825.367 1836.96 827.127C1835.28 828.807 1834.32 831.127 1834.32 833.527C1834.32 835.927 1835.28 838.247 1836.96 839.927C1838.72 841.607 1841.04 842.567 1843.44 842.567C1845.84 842.567 1848.16 841.607 1849.84 839.927C1851.52 838.247 1852.48 835.927 1852.48 833.527Z" fill="black"/>
<path fill-rule="evenodd" clip-rule="evenodd" d="M1891.92 1038.81C1891.92 1036.41 1890.96 1034.09 1889.28 1032.41C1887.6 1030.73 1885.28 1029.77 1882.88 1029.77C1880.48 1029.77 1878.16 1030.73 1876.48 1032.41C1874.72 1034.09 1873.76 1036.41 1873.76 1038.81C1873.76 1041.21 1874.72 1043.53 1876.48 1045.21C1878.16 1046.97 1880.48 1047.85 1882.88 1047.85C1885.28 1047.85 1887.6 1046.97 1889.28 1045.21C1890.96 1043.53 1891.92 1041.21 1891.92 1038.81Z" fill="black"/>
<path fill-rule="evenodd" clip-rule="evenodd" d="M1237.68 392.727C1237.68 390.327 1236.72 388.007 1235.04 386.327C1233.28 384.567 1230.96 383.607 1228.56 383.607C1226.16 383.607 1223.84 384.567 1222.16 386.327C1220.48 388.007 1219.52 390.327 1219.52 392.727C1219.52 395.127 1220.48 397.447 1222.16 399.127C1223.84 400.807 1226.16 401.767 1228.56 401.767C1230.96 401.767 1233.28 400.807 1235.04 399.127C1236.72 397.447 1237.68 395.127 1237.68 392.727Z" fill="#CC0000"/>
<path fill-rule="evenodd" clip-rule="evenodd" d="M1402.16 822.007C1402.16 819.607 1401.2 817.287 1399.52 815.607C1397.76 813.927 1395.52 812.967 1393.12 812.967C1390.64 812.967 1388.4 813.927 1386.64 815.607C1384.96 817.287 1384 819.607 1384 822.007C1384 824.407 1384.96 826.727 1386.64 828.407C1388.4 830.167 1390.64 831.127 1393.12 831.127C1395.52 831.127 1397.76 830.167 1399.52 828.407C1401.2 826.727 1402.16 824.407 1402.16 822.007Z" fill="#CC0000"/>
<path fill-rule="evenodd" clip-rule="evenodd" d="M687.84 1950.89C687.84 1948.49 686.88 1946.17 685.12 1944.49C683.44 1942.73 681.12 1941.77 678.72 1941.77C676.32 1941.77 674 1942.73 672.32 1944.49C670.64 1946.17 669.68 1948.49 669.68 1950.89C669.68 1953.29 670.64 1955.61 672.32 1957.29C674 1958.97 676.32 1959.93 678.72 1959.93C681.12 1959.93 683.44 1958.97 685.12 1957.29C686.88 1955.61 687.84 1953.29 687.84 1950.89Z" fill="#CC0000"/>
<path fill-rule="evenodd" clip-rule="evenodd" d="M1601.36 1595.93C1601.36 1593.53 1600.4 1591.21 1598.72 1589.53C1596.96 1587.77 1594.72 1586.81 1592.24 1586.81C1589.84 1586.81 1587.6 1587.77 1585.84 1589.53C1584.16 1591.21 1583.2 1593.53 1583.2 1595.93C1583.2 1598.33 1584.16 1600.65 1585.84 1602.33C1587.6 1604.01 1589.84 1604.97 1592.24 1604.97C1594.72 1604.97 1596.96 1604.01 1598.72 1602.33C1600.4 1600.65 1601.36 1598.33 1601.36 1595.93Z" fill="#CC0000"/>
<path fill-rule="evenodd" clip-rule="evenodd" d="M1535.28 989.847C1535.28 987.447 1534.32 985.127 1532.56 983.447C1530.88 981.687 1528.56 980.727 1526.16 980.727C1523.76 980.727 1521.44 981.687 1519.76 983.447C1518.08 985.127 1517.12 987.447 1517.12 989.847C1517.12 992.247 1518.08 994.567 1519.76 996.247C1521.44 997.927 1523.76 998.887 1526.16 998.887C1528.56 998.887 1530.88 997.927 1532.56 996.247C1534.32 994.567 1535.28 992.247 1535.28 989.847Z" fill="#CC0000"/>
<path fill-rule="evenodd" clip-rule="evenodd" d="M1983.28 758.407C1983.28 756.007 1982.32 753.687 1980.64 752.007C1978.88 750.247 1976.64 749.287 1974.16 749.287C1971.76 749.287 1969.52 750.247 1967.76 752.007C1966.08 753.687 1965.12 756.007 1965.12 758.407C1965.12 760.807 1966.08 763.127 1967.76 764.807C1969.52 766.487 1971.76 767.447 1974.16 767.447C1976.64 767.447 1978.88 766.487 1980.64 764.807C1982.32 763.127 1983.28 760.807 1983.28 758.407Z" fill="black"/>
<path fill-rule="evenodd" clip-rule="evenodd" d="M1115.76 399.847C1115.76 397.447 1114.8 395.127 1113.12 393.447C1111.36 391.767 1109.12 390.807 1106.64 390.807C1104.24 390.807 1102 391.767 1100.24 393.447C1098.56 395.127 1097.6 397.447 1097.6 399.847C1097.6 402.247 1098.56 404.567 1100.24 406.247C1102 407.927 1104.24 408.887 1106.64 408.887C1109.12 408.887 1111.36 407.927 1113.12 406.247C1114.8 404.567 1115.76 402.247 1115.76 399.847Z" fill="#CCB265"/>
<path fill-rule="evenodd" clip-rule="evenodd" d="M1115.92 1965.53C1115.92 1963.13 1114.96 1960.81 1113.28 1959.13C1111.6 1957.37 1109.28 1956.41 1106.88 1956.41C1104.48 1956.41 1102.16 1957.37 1100.48 1959.13C1098.72 1960.81 1097.76 1963.13 1097.76 1965.53C1097.76 1967.93 1098.72 1970.25 1100.48 1971.93C1102.16 1973.61 1104.48 1974.57 1106.88 1974.57C1109.28 1974.57 1111.6 1973.61 1113.28 1971.93C1114.96 1970.25 1115.92 1967.93 1115.92 1965.53Z" fill="#CCB265"/>
<path fill-rule="evenodd" clip-rule="evenodd" d="M1431.12 1902.25C1431.12 1899.85 1430.16 1897.53 1428.48 1895.85C1426.72 1894.17 1424.4 1893.21 1422 1893.21C1419.6 1893.21 1417.28 1894.17 1415.6 1895.85C1413.92 1897.53 1412.96 1899.85 1412.96 1902.25C1412.96 1904.65 1413.92 1906.97 1415.6 1908.65C1417.28 1910.41 1419.6 1911.37 1422 1911.37C1424.4 1911.37 1426.72 1910.41 1428.48 1908.65C1430.16 1906.97 1431.12 1904.65 1431.12 1902.25Z" fill="#CCB265"/>
<path fill-rule="evenodd" clip-rule="evenodd" d="M2241.84 1114.09C2241.84 1111.69 2240.88 1109.37 2239.2 1107.69C2237.52 1106.01 2235.2 1105.05 2232.8 1105.05C2230.4 1105.05 2228.08 1106.01 2226.4 1107.69C2224.64 1109.37 2223.68 1111.69 2223.68 1114.09C2223.68 1116.49 2224.64 1118.81 2226.4 1120.49C2228.08 1122.17 2230.4 1123.13 2232.8 1123.13C2235.2 1123.13 2237.52 1122.17 2239.2 1120.49C2240.88 1118.81 2241.84 1116.49 2241.84 1114.09Z" fill="#CCB265"/>
<path fill-rule="evenodd" clip-rule="evenodd" d="M1447.76 1704.81C1447.76 1702.41 1446.88 1700.09 1445.12 1698.41C1443.44 1696.73 1441.12 1695.77 1438.72 1695.77C1436.32 1695.77 1434 1696.73 1432.32 1698.41C1430.64 1700.09 1429.68 1702.41 1429.68 1704.81C1429.68 1707.21 1430.64 1709.53 1432.32 1711.21C1434 1712.89 1436.32 1713.85 1438.72 1713.85C1441.12 1713.85 1443.44 1712.89 1445.12 1711.21C1446.88 1709.53 1447.76 1707.21 1447.76 1704.81Z" fill="#CCB265"/>
<path fill-rule="evenodd" clip-rule="evenodd" d="M1852.64 2243.77C1852.64 2241.37 1851.68 2239.05 1850 2237.37C1848.32 2235.69 1846 2234.73 1843.6 2234.73C1841.2 2234.73 1838.88 2235.69 1837.2 2237.37C1835.52 2239.05 1834.56 2241.37 1834.56 2243.77C1834.56 2246.17 1835.52 2248.49 1837.2 2250.17C1838.88 2251.85 1841.2 2252.81 1843.6 2252.81C1846 2252.81 1848.32 2251.85 1850 2250.17C1851.68 2248.49 1852.64 2246.17 1852.64 2243.77Z" fill="#CCB265"/>
<path fill-rule="evenodd" clip-rule="evenodd" d="M1436.72 494.887C1436.72 492.487 1435.76 490.167 1434.08 488.487C1432.4 486.807 1430.08 485.847 1427.68 485.847C1425.28 485.847 1422.96 486.807 1421.28 488.487C1419.6 490.167 1418.64 492.487 1418.64 494.887C1418.64 497.287 1419.6 499.607 1421.28 501.287C1422.96 503.047 1425.28 504.007 1427.68 504.007C1430.08 504.007 1432.4 503.047 1434.08 501.287C1435.76 499.607 1436.72 497.287 1436.72 494.887Z" fill="#CCB265"/>
<path fill-rule="evenodd" clip-rule="evenodd" d="M1153.28 660.487C1153.28 658.087 1152.32 655.767 1150.64 654.087C1148.88 652.407 1146.56 651.447 1144.16 651.447C1141.76 651.447 1139.44 652.407 1137.76 654.087C1136.08 655.767 1135.12 658.087 1135.12 660.487C1135.12 662.887 1136.08 665.207 1137.76 666.967C1139.44 668.647 1141.76 669.607 1144.16 669.607C1146.56 669.607 1148.88 668.647 1150.64 666.967C1152.32 665.207 1153.28 662.887 1153.28 660.487Z" fill="#CCB265"/>
<path fill-rule="evenodd" clip-rule="evenodd" d="M1656.8 1668.01C1656.8 1665.61 1655.84 1663.29 1654.16 1661.61C1652.48 1659.85 1650.16 1658.89 1647.76 1658.89C1645.36 1658.89 1643.04 1659.85 1641.36 1661.61C1639.6 1663.29 1638.64 1665.61 1638.64 1668.01C1638.64 1670.41 1639.6 1672.73 1641.36 1674.41C1643.04 1676.09 1645.36 1677.05 1647.76 1677.05C1650.16 1677.05 1652.48 1676.09 1654.16 1674.41C1655.84 1672.73 1656.8 1670.41 1656.8 1668.01Z" fill="#CCB265"/>
<path fill-rule="evenodd" clip-rule="evenodd" d="M1351.2 371.367C1351.2 368.967 1350.24 366.647 1348.56 364.967C1346.8 363.207 1344.56 362.247 1342.16 362.247C1339.76 362.247 1337.44 363.207 1335.68 364.967C1334 366.647 1333.04 368.967 1333.04 371.367C1333.04 373.767 1334 376.087 1335.68 377.767C1337.44 379.447 1339.68 380.407 1342.16 380.407C1344.56 380.407 1346.8 379.447 1348.56 377.767C1350.24 376.087 1351.2 373.767 1351.2 371.367Z" fill="#CCB265"/>
<path fill-rule="evenodd" clip-rule="evenodd" d="M616.72 563.687C616.72 561.207 615.76 558.967 614.08 557.207C612.4 555.527 610.08 554.567 607.68 554.567C605.28 554.567 602.96 555.527 601.2 557.207C599.52 558.967 598.56 561.207 598.56 563.687C598.56 566.087 599.52 568.327 601.2 570.087C602.96 571.767 605.28 572.727 607.68 572.727C610.08 572.727 612.4 571.767 614.08 570.087C615.76 568.327 616.72 566.087 616.72 563.687Z" fill="#CCB265"/>
<path fill-rule="evenodd" clip-rule="evenodd" d="M1903.76 1817.05C1903.76 1814.65 1902.8 1812.33 1901.12 1810.65C1899.36 1808.97 1897.04 1808.01 1894.64 1808.01C1892.24 1808.01 1889.92 1808.97 1888.24 1810.65C1886.56 1812.33 1885.6 1814.65 1885.6 1817.05C1885.6 1819.45 1886.56 1821.77 1888.24 1823.45C1889.92 1825.21 1892.24 1826.17 1894.64 1826.17C1897.04 1826.17 1899.36 1825.21 1901.12 1823.45C1902.8 1821.77 1903.76 1819.45 1903.76 1817.05Z" fill="#CCB265"/>
<path fill-rule="evenodd" clip-rule="evenodd" d="M1286.32 724.567C1286.32 722.167 1285.36 719.847 1283.68 718.167C1282 716.407 1279.68 715.447 1277.28 715.447C1274.88 715.447 1272.56 716.407 1270.88 718.167C1269.2 719.847 1268.24 722.167 1268.24 724.567C1268.24 726.967 1269.2 729.287 1270.88 730.967C1272.56 732.647 1274.88 733.607 1277.28 733.607C1279.68 733.607 1282 732.647 1283.68 730.967C1285.36 729.287 1286.32 726.967 1286.32 724.567Z" fill="#CCB265"/>
<path fill-rule="evenodd" clip-rule="evenodd" d="M1193.44 851.847C1193.44 849.447 1192.48 847.127 1190.8 845.367C1189.04 843.687 1186.8 842.727 1184.32 842.727C1181.92 842.727 1179.68 843.687 1177.92 845.367C1176.24 847.127 1175.28 849.447 1175.28 851.847C1175.28 854.247 1176.24 856.567 1177.92 858.247C1179.68 859.927 1181.92 860.887 1184.32 860.887C1186.8 860.887 1189.04 859.927 1190.8 858.247C1192.48 856.567 1193.44 854.247 1193.44 851.847Z" fill="#CCB265"/>
<path fill-rule="evenodd" clip-rule="evenodd" d="M326.8 1249.53C326.8 1247.13 325.84 1244.81 324.16 1243.13C322.48 1241.45 320.16 1240.49 317.76 1240.49C315.36 1240.49 313.04 1241.45 311.36 1243.13C309.6 1244.81 308.64 1247.13 308.64 1249.53C308.64 1251.93 309.6 1254.25 311.36 1255.93C313.04 1257.69 315.36 1258.65 317.76 1258.65C320.16 1258.65 322.48 1257.69 324.16 1255.93C325.84 1254.25 326.8 1251.93 326.8 1249.53Z" fill="#CCB265"/>
<path fill-rule="evenodd" clip-rule="evenodd" d="M1284.64 324.247C1284.64 321.847 1283.68 319.527 1282 317.847C1280.24 316.167 1277.92 315.207 1275.52 315.207C1273.12 315.207 1270.8 316.167 1269.12 317.847C1267.44 319.527 1266.48 321.847 1266.48 324.247C1266.48 326.647 1267.44 328.967 1269.12 330.647C1270.8 332.407 1273.12 333.367 1275.52 333.367C1277.92 333.367 1280.24 332.407 1282 330.647C1283.68 328.967 1284.64 326.647 1284.64 324.247Z" fill="#CCB265"/>
<path fill-rule="evenodd" clip-rule="evenodd" d="M1620.24 713.607C1620.24 711.207 1619.28 708.887 1617.6 707.207C1615.92 705.447 1613.6 704.487 1611.2 704.487C1608.8 704.487 1606.48 705.447 1604.8 707.207C1603.04 708.887 1602.08 711.207 1602.08 713.607C1602.08 716.007 1603.04 718.327 1604.8 720.007C1606.48 721.687 1608.8 722.647 1611.2 722.647C1613.6 722.647 1615.92 721.687 1617.6 720.007C1619.28 718.327 1620.24 716.007 1620.24 713.607Z" fill="#CCB265"/>
<path fill-rule="evenodd" clip-rule="evenodd" d="M1587.92 665.927C1587.92 663.527 1586.96 661.207 1585.2 659.447C1583.52 657.767 1581.2 656.807 1578.8 656.807C1576.4 656.807 1574.08 657.767 1572.4 659.447C1570.72 661.207 1569.76 663.527 1569.76 665.927C1569.76 668.327 1570.72 670.647 1572.4 672.327C1574.08 674.007 1576.4 674.967 1578.8 674.967C1581.2 674.967 1583.52 674.007 1585.2 672.327C1586.96 670.647 1587.92 668.327 1587.92 665.927Z" fill="#CCB265"/>
</svg>
