<svg width="2515" height="2520" viewBox="0 0 2515 2520" fill="none" xmlns="http://www.w3.org/2000/svg">
<path d="M469.758 1113.21L469.838 1116.65L470.398 1118.57L471.278 1119.85L472.478 1121.13L473.838 1122.09L475.438 1123.05L478.638 1123.53M1541.91 1168.97L1513.2 1143.13M1418.08 1496.25L1412.88 1490.01L1410.72 1487.77L1408.48 1486.65L1406.08 1485.93L1403.76 1485.85M1511.43 1290.17L1514.24 1293.69L1530.47 1307.53L1532.31 1309.29L1533.36 1310.65L1534.31 1312.17M1579.83 1459.85L1581.27 1463.53L1583.03 1466.17L1585.91 1469.69L1594.47 1478.73L1604.71 1489.69L1608.23 1493.13M1195.52 1517.93L1194.24 1510.57L1192.96 1506.81L1191.6 1504.81L1190.4 1503.61L1189.2 1502.89M1571.51 1570.65L1572.39 1574.41L1573.35 1576.41L1574.79 1578.17L1576.63 1579.45L1578.95 1580.25L1580.47 1580.57M2151.03 1774.81L2138.87 1767.13L2134.87 1765.45L2132.39 1764.97L2128.07 1765.05M985.996 409.935L986.636 411.135L987.836 412.975L989.676 414.734L991.516 415.855L993.836 416.734L995.756 416.975L997.756 417.054L1001.12 416.734M1141.28 655.054L1158.48 687.294L1160.72 692.334L1166.4 706.334L1169.6 714.894L1170.64 717.214L1171.84 719.134L1173.44 721.214L1175.2 722.414L1177.6 723.774L1180.8 724.494L1183.2 725.054L1185.36 726.414L1187.44 728.094L1188.88 729.694L1190.64 732.894L1198.96 747.054L1200.56 750.174L1201.44 752.414L1201.92 754.254L1202.16 756.654L1201.92 759.694L1200.64 769.214L1198.96 783.934L1198.32 786.974L1197.36 790.334L1195.68 793.454L1194.24 795.454L1192.72 797.054L1188.24 800.654M862.717 558.574L861.597 557.054L861.037 554.894L860.957 552.974L861.277 550.734L861.917 549.454L863.277 547.774L866.397 544.574M392.958 1153.61L393.678 1155.37L394.798 1156.97L396.558 1158.89L398.318 1160.09L399.998 1160.73L401.518 1161.13H403.678M1845.03 965.133L1837.51 959.133L1835.51 957.853L1833.03 956.813L1831.11 956.413L1828.71 956.173L1826.15 956.333L1824.23 956.813L1821.83 957.853L1820.07 958.893L1818.39 960.413L1814.71 963.933M1507.91 1479.45L1511.75 1478.01L1514.32 1476.41L1537.91 1458.33L1539.83 1456.33L1541.19 1454.33L1542.47 1451.61L1542.88 1449.85M565.517 1629.05L577.437 1622.97L583.517 1621.45L589.037 1621.61L597.037 1622.57M687.677 1951.61L670.317 1950.25L664.157 1949.29L658.237 1945.85L652.797 1940.65L648.397 1934.57L648.157 1934.17L652.797 1937.69L655.117 1938.89L657.677 1939.85L677.597 1941.61M1430.64 1900.81L1433.76 1899.69L1436.56 1898.09L1439.76 1896.33L1442.8 1894.49L1444.4 1893.37M1932.23 1857.77L1939.27 1864.57L1943.75 1867.21L1948.79 1868.65L1959.67 1871.05M1794.71 1777.69L1801.35 1784.81L1804.63 1788.41L1805.75 1789.85L1806.47 1791.29L1806.87 1792.49M1107.52 1805.45L1110.8 1812.01L1111.92 1817.61V1822.97L1110.32 1829.69M951.436 1678.65L951.996 1683.05L950.636 1687.29L948.237 1689.77L945.036 1691.13L941.756 1691.77M913.597 1541.29L911.357 1537.53L908.077 1534.25L903.757 1531.45L899.837 1530.41L894.317 1530.33L882.957 1530.81H877.837L874.237 1530.25L870.317 1528.81L867.277 1527.05L863.997 1524.33L857.357 1516.09L853.997 1512.49L851.037 1511.13L847.517 1511.21L830.477 1519.37M1182.32 986.573L1201.52 1014.65L1206 1020.25L1210.64 1023.21L1217.6 1025.93L1267.92 1041.13L1272.8 1043.53L1276.48 1047.45L1279.36 1053.05L1280.72 1059.77L1288.08 1105.77L1290.24 1113.13L1292.56 1117.29L1295.2 1120.25L1299.04 1123.13L1336.72 1150.65L1340.48 1154.17L1342.32 1158.97L1343.6 1164.01L1346.4 1168.25L1350 1171.05L1355.44 1172.73L1361.52 1171.85M1428.32 1197.61L1433.52 1196.17L1439.76 1195.37L1446 1196.09L1451.84 1198.41L1456.24 1201.45L1458.08 1202.81M1471.84 1123.29L1472.88 1116.57L1471.28 1111.29L1466.48 1106.49L1461.2 1104.73M1555.83 1340.97V1339.45L1555.99 1337.93L1556.55 1335.21L1557.67 1333.45L1559.19 1332.01L1562.39 1329.93L1576.71 1320.73L1579.91 1317.77L1582.71 1313.69L1610.31 1269.45L1614.71 1262.89L1617.59 1259.93L1621.03 1257.69L1624.39 1256.17L1629.35 1254.25L1649.19 1246.41L1652.95 1244.49L1655.83 1242.41L1658.47 1239.85L1660.95 1236.33L1664.15 1231.13" stroke="black" stroke-width="4.71999" stroke-miterlimit="10" stroke-linejoin="round" stroke-dasharray="1.36 4"/>
<path d="M1585.27 1528.89L1579.75 1529.69L1576 1532.41L1573.75 1535.61L1572.16 1539.29L1571.52 1542.25L1570.95 1546.17L1571.04 1550.81L1571.43 1555.21L1572.48 1559.93L1574.72 1565.45L1590.72 1593.29L1601.59 1612.09L1607.59 1621.85L1615.43 1632.57M1551.68 1486.97L1549.2 1483.53L1544.96 1480.25L1540.88 1478.81L1534.24 1477.77M1655.27 1831.37L1643.75 1833.13H1639.43L1637.19 1832.81M1637.19 1832.81L1622.47 1826.73L1617.59 1824.73L1613.99 1822.49L1610.87 1819.61L1601.19 1808.01L1598.24 1805.93L1594.88 1804.49L1591.2 1804.09L1587.59 1804.49L1584.08 1805.53L1562.56 1814.57L1555.44 1818.09L1552.32 1821.21L1551.12 1824.25L1553.68 1833.61L1555.84 1836.81L1559.75 1837.85L1578.63 1837.69M1637.19 1832.81L1642.79 1835.13L1646.31 1836.81L1648.71 1838.33L1650.87 1840.09L1684.63 1874.09L1688.23 1877.45L1691.27 1879.69L1694.95 1881.69L1699.11 1883.37L1712.31 1886.17L1721.67 1888.17L1725.83 1888.89H1728.63L1730.87 1888.49L1740.31 1883.77L1746.87 1881.29L1752.39 1879.53L1757.03 1878.41M1460.08 943.613L1466.96 954.493L1475.28 963.933L1478.24 966.253L1481.76 966.813L1484.4 966.093L1486 964.653L1487.84 960.813L1487.52 957.613L1485.92 954.893L1484.56 952.973M1614.87 666.494L1610.31 669.054L1607.99 673.774L1608.15 676.814L1609.27 682.014M1862.55 840.254L1861.67 834.733L1862.87 830.733L1866.15 827.693M1791.91 1493.93L1786.23 1496.73L1782.79 1495.45L1779.99 1492.33M1801.35 1840.89L1797.75 1842.33L1794.47 1844.33L1791.43 1846.17M1801.35 1840.89L1813.67 1839.05L1815.59 1838.81L1818.79 1838.33L1822.23 1838.57L1825.03 1839.85L1847.75 1853.85M1801.35 1840.89L1794.07 1842.01L1735.11 1850.97L1726.55 1852.17L1718.47 1851.05L1715.91 1850.33M1791.43 1846.17L1772.87 1866.57L1769.35 1870.41L1767.27 1872.25L1764.87 1874.09L1762.15 1875.77L1757.03 1878.41M1791.43 1846.17L1800.31 1836.49L1803.91 1832.01L1805.99 1827.85L1807.11 1824.17L1807.91 1819.61L1808.07 1814.73M157.039 2099.13L143.599 2086.73L141.919 2084.65L140.479 2082.17L139.679 2079.77L139.759 2077.05V2073.85L140.319 2071.29L141.119 2068.57L147.039 2046.57L150.239 2034.25L151.759 2028.65L153.199 2023.29L154.079 2019.77L154.959 2016.57L155.919 2013.85L157.199 2011.29L161.759 2003.13L169.999 1988.81L175.758 1978.49L177.438 1975.69L178.478 1973.45L179.518 1970.65L180.238 1967.69L180.398 1964.89L180.238 1962.09L179.838 1958.73L179.198 1956.41L178.078 1953.93L175.358 1948.25L174.478 1946.25L173.679 1944.09L173.198 1942.17L172.799 1939.85L172.719 1937.77L172.799 1935.45L173.038 1933.85L175.758 1904.17L176.078 1901.53L176.478 1899.29L177.198 1897.05L178.158 1894.97L179.198 1893.13L180.238 1891.45L181.918 1889.29L195.038 1874.89L197.358 1872.33L199.198 1870.65L201.038 1869.37L202.638 1868.33L204.238 1867.61L206.558 1866.65L214.078 1863.93L216.558 1862.97L219.998 1862.01L222.798 1861.85L226.078 1862.01L228.638 1862.33L230.878 1862.89L233.678 1864.25L235.918 1865.53L237.838 1866.57L239.838 1867.37L241.518 1867.93L243.518 1868.49L245.998 1868.73L257.998 1870.17L260.478 1870.25L263.598 1870.09L265.678 1869.61L267.678 1869.13L269.918 1868.17L271.438 1867.53L298.238 1855.05M574.797 1818.65L572.637 1817.69L569.438 1816.97L566.078 1815.53L562.797 1812.65L559.038 1807.21L559.598 1814.57L559.758 1817.37L559.918 1819.61L560.078 1820.89L560.478 1823.05L560.558 1823.53L561.118 1825.93L563.438 1830.65L565.118 1834.17L566.957 1836.57L569.358 1839.37L571.998 1841.69L577.118 1845.93L581.997 1849.93L583.677 1851.29L588.797 1855.69L590.877 1857.37L592.797 1859.05L595.197 1861.29L597.197 1863.53L598.717 1865.29L600.557 1867.69L612.477 1884.25L625.997 1902.89L648.157 1934.17M560.558 1756.65L558.718 1759.21L555.198 1763.13L553.038 1765.53L550.958 1767.85L549.438 1770.01L548.158 1772.73L546.638 1777.13L544.638 1785.05L543.998 1786.97L543.038 1789.37L542.078 1791.05L540.718 1793.21L539.678 1795.37L536.558 1807.85L535.518 1812.09M503.198 1553.85L510.078 1570.89L510.958 1573.13L512.318 1575.93L513.438 1578.73L534.238 1630.57L536.718 1636.81L537.758 1639.13L538.798 1640.65L539.678 1641.77L540.878 1642.73L542.478 1643.77L543.678 1644.49L544.558 1644.97L545.278 1645.61L545.678 1646.01L546.798 1647.29L548.158 1649.21L548.958 1650.65L549.598 1652.17L549.838 1653.37L549.998 1655.85M549.358 1605.29L551.198 1608.73L551.918 1609.53L553.038 1610.57L554.318 1611.53L555.838 1612.33L557.758 1612.97L561.118 1613.85L570.637 1616.33L592.957 1621.85L597.037 1622.57L600.557 1622.89H605.677L609.517 1622.65L613.757 1622.01L645.037 1617.21M564.478 1569.61L606.797 1572.41L654.317 1575.69L683.757 1577.69L688.637 1577.93H691.677L694.637 1577.69L697.597 1577.21L699.517 1576.89L701.357 1576.41L703.357 1575.85L707.517 1574.17L714.717 1570.89L748.157 1555.61L812.877 1525.37L864.717 1501.05M543.918 1508.33L545.758 1506.97L546.798 1506.09L547.998 1505.37L549.518 1504.81L550.958 1504.49L552.478 1504.33H553.918L555.598 1504.49L557.918 1504.97M653.917 1292.33L652.157 1290.73L650.397 1289.05L649.277 1287.61L647.837 1285.77L646.557 1283.45L645.917 1281.37L645.037 1277.05M645.037 1277.05V1281.85L644.477 1285.29L643.357 1289.29L641.117 1294.09L639.997 1296.17M645.037 1277.05V1274.57L644.717 1268.41L644.157 1265.21L643.197 1262.33L641.677 1257.93L639.837 1254.25L626.717 1236.01L622.717 1230.41L620.157 1227.37L617.677 1224.49L615.197 1222.41L612.157 1220.09L600.397 1212.09M600.397 1212.09L596.637 1209.53L594.397 1208.17L591.517 1206.97L588.637 1205.93L585.437 1205.61L581.118 1204.89L576.557 1204.17L573.678 1203.69L571.598 1203.21L568.477 1202.41L564.478 1200.97L535.998 1190.49L530.718 1188.81L526.638 1187.77L522.318 1186.97L517.678 1186.33L474.798 1182.97L471.118 1182.89L466.958 1183.13L461.598 1184.17L457.198 1185.21L453.198 1186.57L448.558 1188.73L406.718 1211.61L402.478 1213.69L398.718 1215.05L394.798 1216.25L390.638 1217.05L386.958 1217.77L376.798 1219.45L372.318 1220.25L368.238 1221.21L365.438 1222.25L359.118 1225.21L353.118 1228.49L342.958 1233.69L332.638 1239.29L325.918 1243.93M600.397 1212.09L591.437 1202.97L588.237 1198.89L585.917 1195.69L583.517 1191.21L581.198 1186.33L565.038 1151.29L561.278 1142.73L559.438 1137.61L558.798 1135.37M325.918 1243.93L317.758 1249.53M325.918 1243.93L328.398 1241.85L330.238 1240.01L332.558 1236.49L333.598 1233.77L334.798 1229.05L337.358 1217.37L338.318 1213.13L339.198 1211.13L340.798 1208.73L342.478 1206.81L345.438 1203.53L356.398 1191.85L359.918 1188.73L362.238 1186.81L366.238 1183.77L382.238 1173.61M382.238 1173.61L397.438 1164.01L400.718 1162.25L403.678 1161.13L408.078 1159.77L410.398 1159.45L412.718 1159.37L429.118 1160.41L432.398 1160.49L435.438 1160.09L438.238 1159.37L440.158 1158.57L442.638 1157.37L444.238 1156.49L446.718 1154.57M382.238 1173.61L384.798 1171.05L387.438 1167.85L389.278 1165.05L390.478 1163.05L391.518 1160.57L392.318 1157.69L392.958 1154.81V1153.61V1151.93L392.798 1148.09L392.318 1145.69L391.518 1142.81L389.918 1139.29L387.838 1135.93L385.998 1133.85L379.198 1126.49L377.278 1124.33L375.518 1121.53L374.158 1119.05L372.718 1116.17L370.078 1110.17L362.878 1094.17L361.438 1090.01L359.278 1085.29M558.798 1135.37L557.678 1131.53L556.798 1127.29L556.318 1122.97L555.918 1118.41L555.758 1112.73L556.318 1106.57L558.398 1099.29M558.798 1135.37L557.198 1131.77L555.918 1129.77L554.718 1128.17L552.638 1126.01L550.478 1124.33L548.238 1122.89L545.678 1121.61L542.798 1120.65L539.758 1120.09L535.998 1119.93M552.638 981.773L549.198 980.173L546.718 978.013L544.638 975.773L542.638 973.373L514.238 931.373L494.078 900.893L492.398 898.413L490.958 896.013L490.078 893.213L489.278 890.413L488.398 885.773L482.638 857.373M433.838 1084.89L425.278 1083.85L423.198 1083.69L420.238 1083.85L417.118 1084.41L413.518 1085.53L394.798 1090.33L392.558 1090.97L387.758 1092.33L384.718 1093.29L381.838 1093.85L377.598 1094.01L374.238 1093.77L370.718 1092.89L365.358 1090.41L361.838 1088.01L359.278 1085.29M359.278 1085.29L356.398 1078.81L352.398 1069.69L345.358 1052.97L344.318 1050.57L342.878 1048.25L340.718 1045.93L337.518 1044.25L333.118 1042.09L267.918 1014.49L265.438 1013.37L262.238 1011.69L259.278 1009.61L257.598 1007.53L256.078 1005.37L253.598 1000.49L246.078 982.413L216.638 914.973M251.278 931.133L281.678 942.893L286.238 944.333L290.398 945.053L294.558 945.293L299.118 945.373L303.518 945.053L307.918 944.333L310.158 943.773L314.158 942.653L346.878 932.093L350.878 930.973L354.398 930.813L358.398 931.213L361.758 932.013L365.198 933.613L400.958 960.573L404.478 962.653L408.078 964.653L411.518 965.773L414.878 966.093H420.318L423.678 965.773L427.278 965.053L430.238 963.853L433.758 962.013L467.038 941.453L469.598 940.173L474.398 938.493L477.918 937.693L550.878 923.133L553.998 922.493L555.838 921.853L557.438 920.733L559.358 919.293L561.198 917.453L562.718 915.053L563.598 913.053L564.238 911.213L564.558 908.973M583.917 1066.41L585.597 1063.53L586.797 1059.85L587.118 1055.61L586.877 1052.73L585.997 1050.17L584.797 1047.37L568.397 1010.81L566.717 1007.05L565.038 1002.97L563.918 1000.09L562.957 997.133L562.398 994.253L561.998 991.773L561.678 988.253V986.653L564.717 903.053L564.877 897.293L565.438 892.093L566.557 885.613L567.678 881.133M532.078 311.535L524.158 292.815L522.238 288.255L521.038 284.415L519.998 278.975L519.758 274.815L519.838 271.135L520.478 267.055L521.278 264.015L522.398 260.735L523.198 258.895L523.918 257.135L526.158 253.535L528.478 250.255L530.878 247.295L535.038 243.295L537.838 241.295L541.438 239.135L544.158 237.775L546.078 237.055L563.198 231.535M565.518 584.494L566.318 581.694L567.358 579.854L568.557 578.414L569.998 577.294L571.918 576.254L574.557 575.374L579.038 573.774L581.597 572.894L585.437 571.454L590.717 569.614M590.717 569.614L620.797 559.054L623.437 557.854L625.917 556.574L628.397 554.974L630.477 553.294L631.037 552.894L632.717 551.134L632.797 551.054L637.197 546.814L643.197 541.534L645.197 539.854L647.597 538.174L650.237 536.574L651.117 536.174L655.037 534.574L655.197 534.494L658.317 533.694L661.837 533.054L665.997 532.894L668.557 533.054L672.397 533.454L685.117 534.974L688.477 535.374L691.357 536.014L694.157 536.814L696.477 537.534L698.717 538.494L701.597 539.854L702.877 540.414L704.877 541.374L705.357 541.614L710.797 544.254L728.317 553.054L760.157 568.974L769.597 572.654L778.557 574.174L780.557 573.934L783.517 573.214L787.277 572.014L793.277 569.854L798.077 568.654L814.797 564.414L832.397 560.334L845.197 557.054M590.717 569.614L588.317 570.174L584.717 570.334L581.917 570.094L579.518 569.454L577.278 568.494L575.198 566.894L573.278 564.894L571.678 562.254L570.797 560.254L570.397 557.614L570.477 553.694M845.197 557.054L851.597 554.734L857.357 551.534L862.317 547.774L866.317 544.574M845.197 557.054L852.717 555.374L856.637 555.454L860.237 556.814L862.717 558.574M978.077 439.215L984.476 422.575L985.037 421.054L985.436 420.094L986.476 415.615V413.454L985.996 409.935L984.956 407.054M978.077 439.215L975.677 445.374L973.756 450.255L970.477 455.214L966.237 461.214L962.077 465.854L938.877 486.814L935.997 489.294L932.317 492.174L892.717 523.614M978.077 439.215L981.037 433.454L982.397 431.615L984.636 429.215L987.436 426.655L995.116 421.054L1001.12 416.734L1017.68 404.655L1021.36 402.255L1026 400.255L1031.36 398.734L1062.08 390.975L1081.92 386.495H1088L1093.28 388.495L1098.8 392.014L1102.72 395.935L1115.12 408.255L1118.4 410.975L1137.04 418.655L1142.72 420.175L1148.64 420.655L1175.92 419.454L1196.08 418.895L1200.32 418.335L1204.08 417.374L1209.68 415.295L1213.6 413.454L1216.88 411.615L1219.36 409.374L1222 406.094L1225.28 401.374M1377.04 314.495L1377.36 315.935L1378 317.455L1378.72 318.895L1379.6 319.855L1380.56 320.815L1382 321.855L1383.28 322.415L1384.72 322.895L1386.4 323.135H1388L1431.12 322.495L1432.16 322.335L1433.92 321.935L1435.04 321.295L1436 320.415L1437.04 319.295L1437.76 318.095L1438.16 317.375L1438.4 316.415L1438.56 314.735V313.215M1438.56 313.215L1431.52 290.415M1438.56 313.215L1439.12 315.215L1440 317.935L1440.56 319.535L1441.04 321.615L1441.12 323.215L1440.88 325.215L1440.48 326.575L1439.76 327.695L1438.8 328.815L1433.36 332.495L1414.8 338.975L1409.2 340.895L1406.4 341.695L1404.24 342.255L1401.76 342.415L1399.6 342.495L1396.88 342.255L1383.28 340.095L1348.72 334.255M1356.88 334.015L1350.08 333.535L1347.52 332.975L1344.56 331.455L1342.16 329.535L1341.44 328.655L1327.84 309.935L1325.68 307.455L1323.12 305.295L1322.72 305.135L1320.16 303.615L1317.76 302.735L1315.12 302.175L1312.48 302.255L1311.36 302.335L1308.64 303.215L1281.52 315.695M1088.24 883.533L1095.52 872.333L1098.64 868.413L1102 864.093L1104.32 861.533L1106.88 859.773L1123.52 853.133L1126.32 851.213L1128.56 848.493L1129.2 844.254L1129.76 840.574L1130.32 837.053L1131.44 834.493L1133.52 832.173L1136.16 828.413L1137.2 826.413L1137.92 824.654M1474.96 1568.01L1497.2 1565.85L1500.08 1565.13L1503.52 1563.53L1506.72 1561.61L1509.68 1559.29L1513.6 1555.05L1543.04 1517.77L1546.88 1514.57L1551.6 1511.13L1556.56 1508.17L1575.75 1497.69L1587.2 1491.45L1589.36 1490.57L1591.43 1490.25L1593.59 1490.33L1595.59 1490.81L1597.27 1491.69L1621.19 1509.21L1639.43 1522.49M1639.43 1522.49L1640.63 1523.61L1641.59 1524.73L1643.59 1529.21L1643.83 1531.37V1533.37L1643.59 1535.21L1643.11 1536.97M1639.43 1522.49L1642.39 1524.65L1648.79 1529.29L1651.19 1530.89L1654.23 1532.49L1658.47 1534.49M1075.44 1813.85L1097.84 1830.73L1100.72 1834.49L1102.08 1838.97L1102.56 1846.09M1836.55 1703.21L1829.99 1686.73L1829.59 1684.41L1829.67 1682.49L1830.23 1680.57L1831.19 1679.21L1832.07 1678.41M1832.07 1678.41L1825.11 1682.41M1832.07 1678.41L1840.95 1673.29L1855.75 1667.45L1858.63 1665.93L1860.71 1664.25L1862.87 1661.93L1864.39 1659.85L1865.67 1656.81L1866.55 1653.85L1874.47 1625.77L1875.27 1622.89L1876.39 1620.81L1878.39 1618.41L1880.63 1616.65L1883.51 1615.37L1887.19 1614.73L1889.99 1615.21L1893.27 1616.57L1933.03 1642.25L1936.23 1643.45H1939.35L1946.23 1642.49M1846.47 1725.77L1840.47 1743.29L1840.15 1744.41L1839.27 1749.05L1838.95 1752.25L1838.87 1755.69V1757.93L1839.19 1759.21L1840.07 1760.97L1841.35 1762.33L1843.03 1763.29L1847.91 1765.13L1849.75 1765.93L1851.35 1766.81L1852.95 1767.77L1854.95 1769.77M2060.87 1807.29L2062.71 1803.05L2063.03 1799.77L2059.91 1767.05M1949.59 1950.25L1953.35 1950.17L1958.47 1949.93L1963.03 1949.45L1968.15 1949.05L1973.83 1948.81L1976.55 1948.57L1978.23 1948.33L1979.43 1947.93L1981.51 1947.05L1983.03 1945.93L1983.99 1944.81L1984.55 1943.45L1992.79 1917.93M1730.07 1964.09L1737.91 1952.65L1739.19 1949.45L1739.27 1945.93L1739.11 1939.21L1739.43 1936.73L1740.55 1930.41L1745.83 1898.01L1746.47 1895.85L1747.91 1893.13L1750.07 1890.25L1752.63 1887.61L1755.99 1885.21L1759.99 1883.37L1764.39 1882.65L1770.87 1882.17M1647.99 1824.01L1646.55 1825.53L1645.51 1827.45L1645.11 1829.29L1645.43 1831.93L1646.63 1834.25L1648.71 1835.77L1651.91 1836.41L1654.79 1835.85L1657.75 1834.01L1660.39 1831.85L1663.91 1829.93M845.117 1460.97L868.237 1429.69L873.517 1422.65L876.557 1416.33L877.277 1410.49L875.997 1398.25M1075.28 1903.85L1072.32 1912.41L1071.52 1918.89L1072.24 1925.37L1074.56 1932.41L1077.92 1938.49L1082.4 1944.57L1091.44 1954.33L1113.92 1970.65M1279.36 1659.29L1265.84 1658.33L1262.56 1657.53L1258.16 1656.17L1254.8 1654.25L1233.12 1637.69L1229.6 1634.49L1227.36 1631.37L1226.24 1628.57L1224.16 1623.29L1221.84 1618.97L1219.68 1616.49L1216 1613.13L1214.08 1609.77L1212.64 1605.45L1211.76 1600.97L1197.76 1530.17M1197.76 1530.17L1197.52 1529.21L1195.52 1517.93L1195.92 1513.45L1197.28 1510.65L1199.84 1509.05L1202.88 1508.25L1207.92 1509.45M1197.76 1530.17L1196.96 1528.57L1196 1525.61L1193.6 1517.77L1191.04 1512.57L1181.44 1498.81L1180.32 1497.37L1178.4 1495.45L1176.4 1494.17L1173.68 1492.97L1169.92 1492.09L1164.96 1491.53L1158.48 1490.57L1145.28 1487.77M1374.16 1705.13L1376.48 1701.77L1379.6 1699.21L1383.36 1697.45L1386.96 1696.41L1392.8 1696.01L1396 1696.33M1434.72 1890.65L1435.52 1893.45L1435.04 1896.89L1432.88 1899.61L1430.64 1900.81L1415.52 1903.37L1412.4 1904.25L1408.08 1906.33L1405.44 1911.13L1404.48 1915.61L1404.32 1919.45L1405.92 1936.57M1757.03 1878.41L1723.99 1895.21M1741.67 1691.29L1750.71 1706.57L1784.15 1763.13L1786.71 1767.45L1787.67 1769.13L1789.03 1771.61L1791.43 1774.57L1794.71 1777.69L1797.51 1779.69L1800.31 1781.05L1803.59 1782.25L1806.47 1782.81L1821.83 1784.41L1826.71 1785.05L1829.91 1785.61L1833.11 1786.33L1843.83 1789.29L1850.47 1791.37L1855.75 1793.61L1860.71 1796.49L1864.55 1798.89L1861.35 1797.61L1856.15 1796.17L1850.31 1795.37L1846.87 1795.13L1842.23 1794.97L1829.27 1795.21H1807.83L1802.79 1794.09M1830.79 1755.29L1841.43 1746.09L1842.71 1745.21L1843.83 1744.57L1845.51 1743.93L1863.83 1737.53M2352.39 1930.65L2360.79 1913.05L2361.43 1910.81L2361.35 1908.01L2360.71 1905.61L2359.27 1903.69L2357.19 1901.85L2346.79 1893.85L2335.99 1885.69L2331.91 1882.57L2329.99 1880.57L2328.31 1878.33L2319.35 1865.29L2315.91 1860.33L2313.35 1857.21L2309.51 1854.49L2305.75 1852.65L2302.07 1852.17L2298.71 1852.25L2293.03 1853.69L2232.71 1873.93L2229.43 1875.13L2226.31 1875.85L2222.71 1876.17L2216.95 1875.93L2213.03 1875.05L2209.43 1873.29L2205.75 1870.97L2191.83 1857.29L2186.55 1851.85L2184.07 1848.97L2181.75 1845.61L2180.23 1842.01L2170.47 1816.57L2165.83 1804.57L2156.31 1780.89L2153.99 1777.53L2151.03 1774.81L2147.35 1773.05L2142.87 1772.49L2137.51 1772.89L2131.19 1774.09L2126.15 1775.05L2123.51 1774.97L2121.83 1774.57L2119.43 1773.21L2117.59 1772.33L2115.91 1771.93L2113.03 1772.01L2109.11 1772.49L2101.19 1775.13L2095.51 1777.45L2092.55 1779.45L2089.75 1781.69L2087.19 1784.57L2081.03 1793.37L2075.59 1801.13L2073.91 1803.13L2071.75 1804.49L2069.91 1805.53L2068.47 1806.17L2067.11 1806.49L2065.11 1806.65L2050.63 1806.81H2047.83L2045.19 1807.05L2042.07 1807.69L2038.95 1808.65L1996.63 1824.01L1992.71 1825.29L1974.39 1828.73L1971.59 1829.37L1968.79 1829.77H1965.67L1963.03 1829.53L1960.71 1829.05L1950.63 1825.53L1948.47 1824.97L1946.47 1824.81L1943.75 1824.89L1941.19 1825.53L1931.83 1829.93L1926.95 1830.81L1920.63 1831.05L1915.27 1829.61L1912.71 1828.09M1868.47 2097.21L1863.67 2143.13L1855.27 2222.41L1854.23 2233.29L1853.75 2235.61L1852.71 2237.61L1851.35 2239.69L1848.63 2241.77L1839.27 2245.45M1946.23 1642.49L1949.67 1642.09L1983.19 1637.77M1946.23 1642.49L1943.27 1642.33L1940.95 1641.53L1937.83 1639.37L1935.19 1635.45L1934.55 1632.57L1934.71 1629.05L1935.59 1626.57L1937.11 1624.33L1939.03 1622.49L1968.87 1595.93L1971.19 1593.45L1972.15 1591.69L1972.95 1589.93L1973.27 1588.01L1973.43 1585.61L1973.27 1583.37L1972.79 1581.37L1971.99 1579.69L1971.11 1577.85L1969.91 1575.93L1968.39 1573.61L1957.59 1556.89L1955.43 1553.61L1954.39 1550.97L1953.83 1547.85L1953.67 1544.65L1953.51 1541.53L1953.03 1538.41L1952.31 1531.77L1951.59 1528.89L1950.63 1526.89L1949.19 1524.89L1947.27 1523.05L1945.35 1521.61L1941.27 1519.21L1924.15 1510.57L1921.19 1508.81L1919.51 1507.69L1917.67 1506.25L1916.39 1505.05L1914.55 1503.21L1913.03 1501.05L1911.91 1499.13L1910.79 1497.13L1909.99 1495.93L1908.79 1494.41L1906.63 1492.33L1903.99 1490.25L1900.55 1488.49L1896.95 1487.29L1893.59 1486.73H1891.35L1889.35 1486.81L1886.87 1487.29L1885.03 1487.85L1882.71 1488.73L1880.79 1489.77L1878.95 1490.97L1866.39 1501.21L1864.71 1503.05L1863.27 1505.13L1862.07 1507.05L1860.63 1510.25L1859.75 1512.41L1858.23 1514.81L1856.79 1516.57L1854.55 1518.57L1852.31 1520.09L1849.91 1521.21L1817.59 1531.05L1814.79 1531.45H1811.35L1807.75 1530.65L1805.19 1529.69L1788.47 1519.69L1838.31 1635.37L1839.91 1639.29L1840.95 1644.01L1841.59 1648.33L1841.35 1653.61L1840.55 1658.65L1839.03 1664.09L1836.71 1669.21L1834.23 1673.13L1831.27 1676.81L1828.47 1679.53L1825.11 1682.41M1732.79 1694.09L1713.83 1705.45L1711.83 1706.25L1708.87 1706.49L1705.11 1706.25L1702.39 1705.69L1685.91 1701.13L1682.71 1699.93L1679.11 1698.25L1676.71 1696.89L1674.63 1695.13L1670.47 1690.81L1655.19 1675.45M1431.36 1484.17L1422.72 1486.65L1420.4 1488.41L1418.64 1490.65L1418 1494.01L1418.08 1496.25L1420.32 1498.97L1423.2 1502.81L1423.84 1506.89L1423.52 1512.97L1418.08 1561.29L1417.76 1566.01L1418.24 1570.25L1419.12 1573.77L1420.96 1577.37L1430.32 1589.85L1432.8 1593.37L1434.24 1596.57L1435.36 1599.85L1435.76 1603.37L1435.52 1607.37L1434.8 1610.89L1433.68 1614.25L1427.92 1626.57L1426.64 1629.85L1425.76 1633.29L1425.44 1636.81L1428.32 1672.09M1825.11 1682.41L1776.63 1710.73M1753.19 606.654L1733.83 596.734L1730.95 595.374L1728.15 594.574L1725.27 594.174L1722.87 594.014L1720.95 594.094M1788.23 1128.49L1800.15 1116.65L1801.67 1115.29L1803.51 1113.85L1805.27 1112.89L1807.51 1112.09L1810.63 1111.45L1844.79 1105.93L1850.07 1105.21L1853.27 1104.49L1856.07 1103.13L1858.39 1101.37L1859.91 1100.09L1861.43 1098.17L1862.39 1096.49L1869.27 1079.37L1870.15 1077.05L1871.43 1074.25L1872.39 1072.25L1873.75 1070.17L1876.95 1066.17L1879.51 1062.73L1880.47 1060.73L1883.99 1049.69M1700.47 1183.93L1682.55 1197.53L1678.23 1201.53L1675.03 1207.05L1671.11 1215.77L1664.15 1231.13L1657.67 1245.45L1654.23 1253.05L1652.95 1257.93L1652.39 1263.05L1652.63 1268.57M2240.55 1116.57L2208.71 1106.33L2204.47 1104.97L2199.67 1104.33H2194.95L2188.71 1104.17L2183.75 1103.21L2178.71 1101.45L2174.07 1099.21L2169.19 1096.09L2164.15 1093.05L2159.43 1090.57L2154.87 1088.89L2150.39 1087.77L2144.47 1087.21H2137.99L2088.15 1091.13H2083.19L2077.75 1090.73L2072.71 1090.09L2067.67 1089.05L2062.55 1087.61L2058.55 1086.25L2034.71 1077.61L2030.15 1076.33L2025.19 1075.29L2020.23 1074.81L2015.43 1074.97L2010.87 1075.37L2005.83 1076.49L2001.03 1078.09L1995.59 1080.49L1989.43 1084.09L1987.03 1085.85L1985.27 1087.13L1981.59 1089.21L1975.03 1092.09L1969.83 1093.93L1964.39 1095.05L1957.91 1095.69L1952.87 1095.85L1947.03 1095.37L1941.43 1094.49L1934.31 1092.09L1928.55 1089.61L1924.95 1087.77L1922.79 1086.49L1919.43 1083.93M1686.15 1521.69L1660.95 1519.69L1655.51 1519.13L1649.91 1518.01L1644.39 1516.33L1639.43 1514.17L1634.79 1511.61L1629.75 1508.25L1623.83 1504.09L1617.35 1499.53L1609.35 1493.93L1608.24 1493.13L1604.47 1490.49L1600.79 1488.01L1597.35 1486.01L1593.59 1484.01L1590.4 1482.49L1588.79 1481.85L1581.59 1478.73L1579.11 1477.77L1576.72 1477.05L1573.91 1476.33L1571.36 1476.01L1568.4 1475.85L1564.88 1475.93L1558.8 1476.25L1554.88 1476.49M1312.4 328.415L1324.16 345.455" stroke="black" stroke-width="4.71999" stroke-miterlimit="10" stroke-linejoin="round" stroke-dasharray="1.36 4"/>
<path d="M1436.32 507.374L1537.68 653.774L1539.91 656.334M984.956 407.055L974.397 381.855L943.037 308.095M1398.48 827.294L1400.72 828.814L1403.04 829.774L1405.6 830.414L1408.16 830.494L1410.08 830.334L1414.16 829.053L1416.24 827.614L1417.92 826.254L1419.84 824.254L1422.16 821.534L1428.08 812.174M1398.48 827.294L1414.72 842.974L1418.56 846.494L1420.24 848.334L1422 850.574L1423.36 852.894L1424.56 854.974L1425.36 856.974L1426.08 860.574M1398.48 827.294L1397.92 826.654L1388 817.134L1386.24 815.534L1384.8 814.574L1383.12 813.694L1381.6 813.534L1378.32 813.614L1376.88 813.934L1373.44 815.454L1368.72 817.774L1366 818.894L1361.52 819.534H1357.68L1347.68 817.854L1329.2 815.214L1324 813.934L1320.64 813.054L1317.2 811.454L1314.48 809.614L1310.56 805.774L1302.08 797.214L1299.6 795.134L1297.12 793.614L1294.64 792.414L1291.76 791.374L1289.04 790.814L1285.92 790.414L1281.68 790.334L1273.28 789.694L1269.92 788.814L1266.16 787.214L1261.76 784.734L1259.2 783.374L1257.04 782.414L1254 781.294L1250.64 780.414L1247.2 779.934H1245.12L1236.96 780.654L1232.88 781.374L1222.4 783.694M1575.51 1523.29L1582.24 1491.77L1583.03 1487.05L1583.43 1484.09L1583.59 1480.41L1583.35 1475.77L1582.87 1471.93L1582.4 1469.69L1581.27 1465.13L1579.83 1459.85L1543.04 1340.41L1536.4 1318.81L1534.32 1312.17M1575.51 1523.29L1576.08 1519.05L1576.56 1513.13L1577.11 1505.77V1502.65L1576.63 1498.33L1575.83 1495.29L1574.4 1491.45L1573.11 1488.89L1571.59 1486.65L1570.08 1484.73L1567.67 1482.25L1565.2 1480.33L1562.72 1478.89L1559.43 1477.53L1554.88 1476.49L1551.52 1476.65L1534.24 1477.77L1507.92 1479.45M1575.51 1523.29L1572.79 1535.93L1572.15 1539.29M1171.76 816.654L1172.88 811.614L1174.96 808.254L1177.52 806.094L1179.84 804.894M1171.76 816.654L1171.44 825.774L1171.76 828.734L1172.72 832.734L1174.08 836.094L1176.48 839.854L1189.2 859.133M1171.76 816.654L1171.12 813.614L1169.28 810.734L1167.6 808.494L1164.88 806.814L1162.08 805.774M1589.35 665.934L1595.19 667.374L1600.39 670.334L1605.75 676.094L1609.27 682.014L1611.03 687.854L1611.75 691.614L1610.79 729.054L1610.95 742.814L1613.75 750.334L1628.07 770.894C1638.15 785.214 1654.55 793.774 1672.07 793.614H1671.67C1682.87 793.454 1693.75 797.454 1702.07 804.894L1707.59 809.854L1710.79 812.654L1715.35 815.774L1719.19 817.534L1737.99 825.454L1746.55 830.334L1757.51 836.814L1763.59 837.614L1770.55 836.494L1776.31 833.854L1779.67 831.214L1781.51 828.254L1783.67 824.013L1785.27 819.134L1788.07 815.854L1792.47 813.294L1795.43 812.814L1799.91 812.974L1804.47 814.894L1817.59 827.134L1825.67 831.134L1833.99 833.373L1852.55 833.693L1858.07 832.414L1866.15 827.693L1927.91 788.094M1546.16 1024.49L1543.84 1035.77L1500.24 1183.61L1499.36 1189.45V1194.65L1499.92 1199.77L1500.72 1204.25L1501.84 1208.09M1581.27 1010.25L1560.31 1029.37L1552.95 1035.61L1548.48 1038.97L1527.6 1052.41M1927.91 788.094L1981.59 753.694M1927.91 788.094L1914.39 799.774L1907.75 807.054L1902.55 815.454L1900.15 822.174L1894.07 851.773L1891.27 860.814L1888.47 866.014L1871.59 888.414L1851.51 915.053L1832.71 940.093L1814.71 963.933L1801.91 981.053L1800.47 982.973L1797.59 986.813L1794.63 990.333L1791.43 993.373L1787.99 996.013L1784.15 998.653L1779.27 1001.13L1773.91 1003.21L1761.35 1006.25L1733.91 1012.49L1728.23 1013.61L1720.79 1013.85L1715.43 1013.77L1710.07 1013.05L1703.11 1011.21L1698.23 1009.21L1692.95 1006.25L1680.63 998.653L1674.23 995.453L1668.55 993.533L1662.71 992.333L1634.71 987.773L1624.31 986.173L1620.31 986.333M1531.04 1135.05L1530.56 1137.69V1140.17L1532.08 1148.25L1534.08 1156.17L1536.08 1160.65L1538.32 1164.73L1541.91 1168.97M1919.43 1083.93L1921.59 1086.17L1923.83 1088.97L1926.07 1091.69L1936.71 1107.13L1939.43 1111.05L1941.11 1113.77L1942.39 1116.89L1943.67 1120.33L1944.31 1122.49L1945.19 1126.25L1945.75 1130.17L1945.83 1134.65L1945.51 1139.21L1944.95 1142.65L1944.15 1146.01L1942.63 1150.09L1940.23 1154.49L1938.15 1157.69L1935.83 1160.57L1932.63 1164.01L1786.39 1320.25C1771.83 1335.77 1763.99 1356.49 1764.47 1377.77L1765.75 1402.01" stroke="black" stroke-width="4.71999" stroke-miterlimit="10" stroke-linejoin="round" stroke-dasharray="1.36 4"/>
<path d="M1919.43 1083.93L1917.35 1081.61L1914.15 1079.13L1895.99 1066.09L1889.83 1060.17L1886.71 1056.33L1884.95 1052.81L1884.07 1050.25L1883.99 1049.69L1883.75 1048.01L1882.71 1037.05L1881.59 1026.09L1881.11 1023.61L1879.83 1020.17L1877.51 1015.77L1874.95 1011.77L1865.83 997.773L1850.07 974.413C1848.07 971.533 1846.39 968.413 1845.03 965.133C1838.23 948.493 1840.71 929.453 1851.51 915.053M1059.28 1360.97L998.397 1393.77L992.796 1397.05L988.636 1399.85L984.636 1402.97L892.397 1482.89L884.237 1489.93L878.797 1493.85L873.277 1497.05L864.717 1501.05L870.717 1499.05L877.437 1498.17L882.157 1498.49L887.357 1499.77L891.677 1501.45L897.277 1504.57L901.277 1506.49L904.797 1507.69L911.917 1509.13L919.197 1509.21L1042.88 1502.17L1056.16 1502.65L1063.76 1504.25L1072.64 1507.93L1081.76 1513.13L1087.2 1515.05L1097.04 1516.57L1106.88 1516.81L1111.44 1516.49L1118.72 1514.33L1133.28 1508.97L1146.48 1504.25L1152.8 1502.33L1157.92 1501.05L1162.4 1500.41L1167.28 1500.25L1173.92 1500.33M1078.88 1350.41L1101.52 1338.17L1107.04 1334.81L1111.28 1331.13L1116.24 1326.09L1120.48 1321.77L1124.64 1318.33L1129.12 1315.29L1133.92 1312.81L1139.2 1310.73L1145.28 1309.21L1151.52 1308.33L1201.52 1302.01L1210.32 1300.65L1215.36 1299.13L1221.2 1296.73L1227.52 1292.89L1233.44 1288.33L1240.4 1280.73L1304.48 1204.65L1311.04 1197.53L1317.2 1192.33L1324.08 1187.85L1330.56 1185.05L1341.2 1180.97L1351.84 1176.17L1361.52 1171.85L1365.52 1170.09L1372.72 1166.97L1381.52 1163.61L1395.92 1158.09L1405.84 1154.33L1413.84 1149.85M1436.08 1130.25L1420.64 1144.81L1413.84 1149.85M1413.84 1149.85L1418.8 1148.25L1426.8 1147.53L1431.92 1149.13L1435.84 1152.49M1507.92 1479.45L1465.52 1482.17L1431.36 1484.17L1403.76 1485.85M1779.99 1492.33L1778.95 1501.29L1773.03 1507.13L1767.59 1509.29L1757.75 1510.73L1731.91 1514.41L1726.15 1515.13L1713.91 1517.93L1697.51 1520.33L1689.75 1521.29L1686.15 1521.69L1679.91 1522.41L1670.95 1523.29L1665.03 1523.85L1656.23 1525.13L1626.87 1529.29L1621.59 1529.93L1618.55 1530.09L1613.83 1530.17L1603.99 1529.77L1592.47 1529.21L1585.27 1528.89L1578.4 1528.65L1573.68 1528.17L1571.2 1526.97L1568.4 1524.81L1566.16 1521.53L1564.48 1517.93L1563.36 1514.97L1561.11 1511.05M1779.99 1492.33L1769.11 1455.93L1768.55 1452.01L1767.75 1447.05L1767.35 1443.45L1766.23 1414.41L1765.75 1402.01M1779.99 1492.33L1786.07 1511.77M1803.75 1481.05L1791.91 1493.93L1791.59 1494.25L1788.95 1497.45L1787.27 1501.29L1785.75 1507.37L1786.07 1511.77M1786.07 1511.77L1788.47 1519.69M1510.16 1140.41L1514.32 1141.77L1518.96 1142.09L1524 1140.49L1528.24 1137.53L1531.04 1135.05M1534.32 1312.17L1501.84 1208.09L1501.36 1200.17L1501.92 1192.97L1504.4 1184.09L1509.28 1173.61L1516.32 1160.17L1517.84 1153.61L1516.48 1148.01L1513.2 1143.13M1453.52 1171.61L1449.44 1178.25L1437.44 1190.89L1432.88 1195.29L1428.32 1197.61L1388 1208.57M1453.52 1171.61L1471.84 1123.29L1474.88 1120.41L1479.36 1119.29L1485.04 1120.25L1490.24 1122.49M1453.52 1171.61L1450.08 1181.85L1449.76 1186.73L1452.4 1193.69M798.077 568.654L795.517 569.934L793.837 571.214L792.557 573.054L791.997 574.414L791.517 576.814L794.797 606.174L799.597 658.814L803.517 709.774L804.077 718.654L803.677 724.734L802.717 730.894L801.437 736.334L799.277 742.654L796.797 747.934L794.157 752.334L791.757 756.174L789.677 758.894L787.037 761.774L784.477 764.654L781.197 767.374L778.877 769.294L776.797 770.814L773.997 772.574L771.197 774.414L767.997 777.053L764.317 780.574L760.077 785.134L757.197 788.733L753.517 793.934L729.197 836.974M481.358 1086.01L471.598 1104.25L470.398 1107.85M211.358 902.813L199.438 875.453M862.717 558.574L864.317 560.574L865.597 562.654L866.237 564.334L866.717 567.054L866.797 569.854L865.997 572.414L865.117 573.694L858.957 580.814L857.997 582.014L856.637 584.094L854.797 587.694L853.597 591.694L852.957 594.814L852.717 598.734L852.797 603.454L853.517 610.494L853.997 615.054L854.077 620.254L853.997 623.374L853.597 626.254L852.877 628.974L851.437 631.774L849.517 634.494L839.677 645.774L837.677 648.094L835.597 650.974L834.157 653.534L832.557 656.894L831.997 659.694L831.917 662.814L831.597 677.774L831.517 681.774L831.117 685.534L829.757 689.614L793.037 758.494L791.437 761.534L789.757 764.094L787.277 766.734L784.797 768.734L782.557 770.094L779.677 772.013L776.477 773.534L774.237 774.814L771.517 776.894L769.277 779.294L765.517 783.934L760.957 789.774L759.197 792.494L757.677 795.454L756.877 798.733L756.317 801.934L754.797 830.894L754.397 836.093L754.477 838.093L754.877 840.254L755.597 842.894L757.117 845.693L759.357 848.093L761.757 849.853L765.037 851.453L767.917 851.933L771.037 852.173L774.637 852.573L777.997 852.973L780.637 853.453L782.877 854.093L784.957 854.973L797.037 860.973M952.237 564.414L947.357 536.414L944.797 532.334L940.637 529.854L909.197 520.814L900.637 520.174L892.717 523.614L866.317 544.574M1439.04 390.734L1458.8 400.414L1460.72 401.215L1463.04 401.935L1465.76 402.255L1468.24 402.175L1470.24 401.774L1472.64 401.135L1483.52 397.295L1487.52 395.615L1489.04 394.255L1490.32 392.734L1491.52 390.495L1499.04 374.895M1111.92 618.494L1109.36 613.214L1108.16 609.214L1107.6 606.174L1108.72 602.734L1110.88 600.334L1114.24 598.174L1117.68 596.974L1120.96 596.094L1124.96 596.014L1128.64 596.254L1131.68 596.974L1134.56 598.334L1137.12 599.694L1140 601.934L1151.44 612.734" stroke="black" stroke-width="4.71999" stroke-miterlimit="10" stroke-linejoin="round" stroke-dasharray="1.36 4"/>
<path d="M1779.67 831.214L1778.07 832.974L1775.67 835.214L1769.99 839.693L1761.35 846.414L1742.31 861.054L1734.71 867.053M1871.59 888.413L1873.83 883.214L1875.11 876.653L1874.95 869.933L1867.59 852.414M1862.55 840.254L1858.15 836.094L1852.55 833.693M1765.75 1402.01L1765.03 1396.33L1763.67 1391.85L1761.59 1387.05L1758.55 1382.41L1753.75 1377.53L1745.19 1370.41M1979.27 2165.69L1990.79 2175.21L1999.91 2182.57L2002.31 2184.57L2003.99 2186.41L2005.03 2188.49L2005.99 2191.29L2007.19 2196.49L2007.99 2199.45L2009.35 2201.85L2010.63 2203.53L2012.47 2205.61M1818.63 1834.01L1819.91 1835.37L1821.83 1837.53L1825.03 1839.85L1822.15 1836.17L1819.83 1831.69L1818.07 1827.37M1789.19 1790.09L1787.99 1789.61L1785.11 1788.33L1781.99 1787.61L1778.07 1787.53L1773.75 1787.21L1770.39 1786.41L1754.87 1781.13L1751.27 1779.85L1748.71 1779.29H1746.15L1743.11 1780.41L1737.27 1782.01L1730.63 1784.09L1727.67 1784.49L1722.79 1784.41L1719.51 1783.77L1716.47 1782.49L1713.51 1780.89L1710.87 1778.81L1708.07 1775.77L1706.15 1772.89L1704.71 1769.85L1703.75 1766.57L1703.43 1764.17L1703.51 1758.57L1703.99 1756.17L1708.31 1739.53M1573.67 1528.17L1571.27 1527.85L1568.95 1528.09L1566.79 1529.21L1565.11 1530.89L1563.83 1532.89L1563.27 1534.89M1353.36 1488.81L1403.76 1485.85" stroke="black" stroke-width="4.71999" stroke-miterlimit="10" stroke-linejoin="round" stroke-dasharray="1.36 4"/>
<path d="M458.958 1088.09L464.318 1088.41L467.998 1088.57L470.878 1088.09L473.278 1087.21L475.598 1085.53L477.118 1083.93L479.918 1079.53L484.238 1072.49L485.758 1070.49L489.278 1066.65L491.358 1065.13L493.278 1063.93M421.518 1202.49L419.998 1201.69L418.558 1200.73L417.358 1199.53L416.398 1197.93L415.918 1196.57L415.598 1194.65M415.198 1206.41L416.798 1204.49L417.838 1203.77L418.958 1203.21L419.998 1202.73L421.278 1202.49M1145.28 1487.77L1151.28 1489.77L1157.92 1492.01L1161.52 1493.45L1164.8 1495.45L1167.44 1497.61L1171.12 1499.61L1173.92 1500.33M1286.56 700.894L1294.72 679.614M601.197 1778.65L636.077 1805.69L638.637 1807.61M638.637 1807.61L637.437 1806.57L636.477 1805.21L635.197 1802.41L623.197 1773.77M638.637 1807.61L639.677 1808.33L641.197 1808.89L642.717 1809.05H645.037L658.237 1809.13M547.277 1577.69L548.477 1597.13L548.637 1601.29L548.957 1604.01L549.357 1605.29L550.797 1609.05L555.277 1619.61L555.837 1621.21L556.157 1623.29L556.317 1625.21L556.077 1627.45L555.517 1629.77L551.757 1641.93M1924.79 1864.73L1931.83 1867.29L1935.59 1870.01L1937.27 1872.41L1937.83 1875.21L1937.99 1880.65M572.717 1735.69L572.797 1732.81L572.877 1732.33L572.717 1729.61L572.557 1726.33L571.597 1722.17L569.917 1718.09L567.437 1714.09L564.877 1710.81L555.437 1697.45L553.357 1694.41L552.077 1691.85L550.717 1688.57L549.357 1683.77L549.037 1680.41L548.957 1675.21L549.997 1655.85L550.397 1649.45L550.717 1645.77L551.757 1641.93M572.717 1735.69L572.157 1746.89L570.957 1783.21L570.877 1786.25L570.637 1794.97L570.797 1797.53L570.477 1809.29V1812.01L571.117 1814.01L572.637 1816.49L574.797 1818.65L597.597 1831.21L599.837 1832.09L601.997 1831.93L603.917 1830.89L606.877 1828.49L608.957 1827.29L636.237 1816.17L647.517 1811.53L651.677 1809.85L654.317 1809.37L658.237 1809.13M572.717 1735.69L572.477 1737.45L571.357 1741.13L569.837 1744.33L568.317 1746.49L564.557 1750.97L562.317 1753.85L560.557 1756.65L558.637 1760.33L557.597 1763.37L556.877 1766.41L556.317 1770.25V1773.85L556.637 1777.53L557.197 1784.17L557.437 1787.37L559.037 1807.21M658.237 1809.13H705.357M551.757 1641.93L553.597 1638.25L555.837 1635.45L558.557 1632.97L562.077 1630.81L565.517 1629.05L570.877 1626.17L573.357 1624.73L575.197 1622.89L576.797 1620.41L577.517 1618.89L578.077 1617.37L578.557 1615.45L583.917 1595.45L584.477 1593.37L585.677 1588.49L586.077 1584.33L586.157 1573.61M586.157 1573.61L587.997 1578.57L589.917 1581.37L591.597 1583.05L594.077 1585.13L609.757 1598.49L625.277 1611.77L627.437 1613.53L629.917 1614.97L633.997 1616.73L636.637 1617.29L640.557 1617.45L645.037 1617.21M586.157 1573.61L586.637 1534.97L586.157 1525.93L584.717 1519.77L582.957 1516.25L580.237 1513.61L578.317 1512.65L576.157 1511.77L575.117 1511.37L559.757 1505.77L557.917 1504.97L556.637 1504.41L553.597 1502.81L551.277 1500.97L549.037 1498.65L547.357 1496.49L545.917 1494.09L544.717 1491.53L545.677 1495.13L546.317 1497.77L546.797 1500.09L546.717 1502.33L545.997 1504.73L545.277 1506.41L543.917 1508.33L542.557 1509.61L535.037 1516.17L519.917 1529.13L515.437 1532.97L513.118 1534.41L509.997 1536.09L507.598 1537.05L490.638 1542.97M639.997 1296.17L641.517 1294.33L641.837 1293.85L643.277 1292.33L645.517 1290.97L647.917 1290.41L650.077 1290.81L653.917 1292.33L677.677 1312.49L680.317 1314.57L682.797 1316.01L685.037 1317.21L687.517 1318.09L689.837 1319.05L691.597 1320.41L693.837 1322.49L695.917 1326.17L696.797 1329.69L697.997 1343.61L699.277 1347.85L701.757 1351.53L704.157 1353.77L707.037 1355.45L711.677 1356.49L760.877 1364.33L787.357 1368.49L790.797 1369.05L796.397 1369.29L802.797 1367.69L808.397 1364.17L812.717 1359.13L815.757 1353.21L816.397 1347.29L816.637 1331.85L818.237 1324.73L821.997 1317.61L827.917 1310.81L834.237 1306.81L841.277 1304.25L849.677 1303.45L857.517 1304.89L935.356 1336.65L941.916 1338.57L950.876 1340.25L986.156 1346.89L990.316 1348.65L994.396 1351.45L1000.4 1355.93L1004.32 1358.01L1008.56 1359.13L1013.6 1359.37L1018.56 1358.65L1023.84 1356.49L1033.2 1352.97L1037.6 1352.81L1041.2 1353.85L1048.4 1358.25L1053.2 1360.81L1057.2 1361.37L1059.28 1360.97" stroke="black" stroke-width="4.71999" stroke-miterlimit="10" stroke-linejoin="round" stroke-dasharray="15.84 5.28"/>
<path d="M478.638 1123.53L501.118 1122.17L511.598 1121.45L520.238 1120.97L532.878 1120.17L535.998 1119.93L538.558 1119.53L544.158 1117.37L548.238 1115.29L553.438 1109.93L555.918 1105.29L558.398 1099.29L560.878 1093.37L562.957 1089.29L566.558 1084.25L582.157 1068.41L583.917 1066.41M458.958 1088.09L462.158 1089.05L466.238 1091.45L468.558 1093.85L470.398 1097.21L470.718 1102.01L470.638 1105.21L470.398 1107.85M1376 305.695L1374.96 296.735L1375.04 293.055L1375.52 290.975L1375.68 289.455L1375.76 287.855L1370.88 247.855L1370.64 247.055L1369.84 245.775L1368.64 244.095L1367.12 243.215L1365.12 242.575L1362.64 242.415L1359.36 242.175L1356.8 241.455L1355.2 239.855L1354.24 238.575L1353.52 236.495V234.015L1357.04 216.655M1181.52 920.093L1149.52 912.253L1146.8 911.453L1144.88 910.413L1142.8 908.493L1141.2 906.173L1140.32 903.613L1137.68 889.853L1136.8 886.493L1135.28 883.613L1132.96 880.893L1131.2 879.533L1128.8 878.493L1126.8 877.693L1124.08 877.453L1104.08 876.973L1101.68 876.813H1098.72L1095.68 877.533L1092.88 878.893L1090.32 880.733L1088.24 883.533L1059.2 930.413L1057.04 933.293L1055.52 935.373L1053.76 937.293L1052.24 938.733L1032.4 956.573L1030.24 958.413L1028.24 959.933L1026.32 961.293L1023.36 962.813L1020.24 963.933L991.756 970.973L986.077 972.173L981.916 972.333L973.357 972.013L929.197 970.093M848.637 987.693L881.757 976.493L890.077 973.533L896.317 969.693L899.837 966.893L902.957 964.173L912.317 955.773M1793.51 1411.13L1783.43 1396.25L1781.91 1394.41L1780.07 1392.89L1777.75 1391.61L1775.27 1390.41L1771.27 1388.73L1768.15 1387.21L1765.19 1385.45L1761.51 1382.57L1757.59 1379.21L1751.43 1374.41L1745.19 1370.41M1472.16 1869.69L1474.48 1868.65L1477.36 1868.73L1480.08 1869.85L1482 1871.93L1482.48 1874.89M1482.48 1874.89L1482.72 1873.53L1483.6 1867.93L1484.72 1865.13L1486.56 1862.81L1489.6 1860.41L1493.04 1858.01M1482.48 1874.89L1477.52 1906.97M1957.75 2022.57L1972.63 2000.25L1973.91 1997.53L1974.47 1994.57L1974.23 1992.01L1973.35 1989.53L1972.07 1987.29L1969.43 1982.57L1968.87 1980.17L1969.11 1977.77L1969.99 1976.01L1971.03 1974.33L1971.83 1972.09L1971.99 1969.93L1971.83 1966.89L1970.87 1964.41L1969.51 1962.33L1964.07 1956.57L1962.31 1954.73L1960.55 1953.21L1958.39 1951.85L1955.59 1950.89L1953.51 1950.57L1949.59 1950.25L1945.91 1950.09L1942.47 1950.41L1938.63 1950.89L1935.67 1951.05H1933.67L1931.67 1950.81L1929.75 1950.33L1927.51 1949.29L1925.59 1948.65L1923.19 1948.33L1921.19 1948.25L1919.27 1948.49L1912.47 1951.53M1959.91 2262.65L1949.19 2248.65L1948.47 2247.77L1947.83 2246.09L1947.11 2243.21L1947.43 2240.89L1948.15 2238.57L1949.43 2236.65L1961.91 2223.21L1979.67 2204.17L1981.27 2202.41L1982.47 2200.65L1983.35 2198.73L1983.67 2197.13L1983.91 2195.21L1983.99 2192.09L1984.23 2178.17L1984.07 2174.65L1983.75 2172.57L1982.95 2170.41L1981.83 2168.65L1980.71 2167.05L1979.27 2165.69M987.756 1701.93L955.837 1692.81L950.877 1691.77L946.877 1691.53L941.756 1691.77L935.997 1693.37L855.517 1714.73L847.757 1716.57L842.077 1716.81L835.837 1716.41L823.597 1713.85L814.957 1712.01L807.997 1709.37L802.717 1705.69L705.517 1621.37L700.237 1617.05L695.277 1614.49L689.357 1612.49L684.797 1611.93H680.157L676.317 1612.41L662.877 1614.41L645.037 1617.21M1655.27 1831.37L1663.91 1829.93M1808.07 1814.73L1807.27 1799.77L1806.87 1792.49L1806.79 1791.69V1786.65L1807.59 1781.69L1808.95 1778.09L1810.63 1774.57L1812.63 1771.69L1815.27 1768.81L1823.75 1761.45L1830.79 1755.29L1834.23 1754.01H1836.63L1838.31 1754.65L1840.15 1755.61L1841.67 1756.97L1852.55 1767.13L1854.95 1769.77L1856.55 1772.65L1857.51 1775.61L1857.91 1778.65L1858.31 1784.17L1859.03 1790.33L1859.75 1793.29L1861.27 1795.93L1864.55 1798.89L1870.63 1802.41L1894.47 1816.97L1910.23 1826.49L1912.71 1828.09L1915.35 1830.25L1917.11 1832.57L1918.87 1835.61L1932.23 1857.77L1934.31 1861.29L1937.27 1866.65L1938.15 1868.57L1938.87 1870.25L1939.51 1873.45L1938.87 1877.85L1937.99 1880.65M1802.79 1794.09L1797.67 1793.05L1791.43 1790.97L1789.19 1790.09L1782.23 1783.13L1762.87 1762.81L1760.31 1759.69L1758.47 1756.73L1740.39 1727.45L1738.07 1724.25L1735.11 1721.69L1731.75 1719.61L1727.75 1718.17L1717.83 1715.29L1690.07 1707.53M1868.47 2097.21L1874.87 2035.85L1875.43 2032.17L1876.15 2029.45L1877.19 2026.57L1878.55 2023.61L1881.67 2017.05L1885.35 2009.13M639.997 1296.17L636.397 1303.05L632.317 1310.89L624.717 1326.97L623.757 1328.81L621.677 1333.13L620.077 1336.09L617.357 1339.77L614.877 1342.33L612.717 1344.25L610.237 1345.93L604.157 1349.61L588.077 1359.13L582.957 1362.41L578.957 1365.61L576.077 1368.09L573.358 1370.73L569.278 1375.61L565.438 1380.25L541.038 1409.93L536.078 1415.85L532.558 1420.89L530.398 1425.13L528.878 1428.17L528.558 1429.29L528.238 1430.73L527.998 1432.41L527.918 1434.17L527.838 1436.17L527.998 1438.33L528.238 1439.93L528.638 1441.61L529.198 1443.77L529.758 1445.53L530.638 1447.53L531.838 1449.69L534.958 1455.13L535.998 1457.13L537.198 1459.69L538.238 1462.25L538.958 1464.25L539.758 1466.73L542.398 1482.17" stroke="black" stroke-width="4.71999" stroke-miterlimit="10" stroke-linejoin="round" stroke-dasharray="15.84 5.28"/>
<path d="M1663.91 1829.93L1674.15 1828.17L1678.31 1828.41L1683.59 1830.41L1715.91 1850.33L1745.11 1868.25L1757.99 1876.65L1759.67 1877.77L1765.11 1880.33L1770.87 1882.17L1777.59 1883.21L1808.87 1886.81L1811.75 1886.89L1815.83 1886.73L1820.55 1886.09L1876.39 1873.77L1894.71 1869.61L1915.67 1865.13L1918.63 1864.57H1921.75L1924.79 1864.73M1304.4 577.854L1305.44 578.894L1308.72 582.974L1312.16 589.054L1315.28 594.894L1317.92 602.334L1318.88 608.254L1319.04 614.254L1318.56 617.694L1317.2 622.014L1315.28 627.694L1294.72 679.614M939.517 936.333L939.197 936.733L935.916 940.333L932.957 942.973L927.917 946.733L922.797 949.773L912.317 955.773L906.877 958.893L903.037 960.653L899.597 962.013L889.917 964.413L840.637 975.933L810.397 983.213L802.157 985.133L768.157 993.293L752.077 997.933M1531.04 1135.05L1532.96 1132.49L1580.88 1083.05L1583.67 1079.69L1585.27 1075.69L1585.43 1070.81L1584.4 1067.13L1582.4 1064.09L1577.19 1057.29L1574.95 1052.89L1573.68 1048.17L1573.35 1043.53L1574.31 1039.05L1574.79 1035.13L1574.64 1031.29L1573.99 1028.33L1574.16 1024.33L1575.35 1020.49L1577.52 1015.93L1581.27 1010.25L1589.43 1002.81L1601.03 992.253L1604.88 990.173L1620.31 986.333L1629.99 983.933L1632.79 982.893L1628.47 983.293L1615.67 984.493L1567.68 974.573L1557.99 972.253L1549.99 971.773L1536.24 975.293L1522.32 978.173L1513.6 975.853L1494 961.853L1484.56 952.973L1476 948.013L1469.28 942.973L1460.88 936.733L1442.8 923.213L1432.8 912.013L1427.28 903.133M1059.28 1360.97L1067.6 1356.49L1078.88 1350.41L1093.68 1347.77L1099.2 1347.93L1105.6 1348.97L1111.04 1350.65L1115.44 1353.21L1119.36 1356.89L1121.92 1360.89L1123.68 1365.37L1124.48 1370.09L1125.6 1378.41L1129.6 1407.69L1130.88 1417.29L1130.72 1421.77L1129.68 1426.41L1128.16 1430.89L1125.76 1434.57L1122.16 1438.97L1118.48 1444.01L1116.64 1447.29L1115.28 1451.61L1114.88 1456.17L1115.28 1460.17L1116.4 1464.01L1120 1471.61L1122.48 1476.17L1125.12 1479.85L1128.64 1482.81L1133.28 1484.97L1134.56 1485.45L1145.28 1487.77M1173.92 1500.33H1177.52L1181.12 1500.57L1184.16 1501.37L1189.2 1502.89L1191.68 1503.61L1199.04 1506.25L1207.92 1509.45L1217.12 1512.73L1248.8 1524.41L1252.24 1525.45L1256.16 1526.01L1260.32 1526.09L1263.68 1525.93L1269.36 1524.97L1273.68 1523.53L1277.6 1521.29L1314.24 1497.61L1320.08 1494.09L1325.2 1491.93L1329.52 1490.65L1333.52 1489.93L1353.36 1488.81M1541.92 1168.97L1572.16 1196.17L1590.23 1212.25L1592.47 1214.17L1595.19 1216.25L1598.07 1218.09L1600.79 1219.53L1603.27 1220.57L1606.15 1221.45L1608.31 1222.09L1611.03 1222.57L1613.83 1222.89L1616.95 1223.21L1619.35 1223.61L1622.47 1224.41L1625.43 1225.29L1628.23 1226.57L1631.43 1228.65L1633.75 1230.25L1635.59 1231.77L1638.55 1234.65L1640.07 1236.65L1641.27 1238.33L1642.31 1240.49L1643.43 1242.57L1652.63 1268.57L1661.75 1294.97L1664.07 1299.77L1665.75 1303.13L1668.31 1306.33L1671.51 1309.37L1745.19 1370.41M1412.64 1052.49L1436.96 1091.77L1442.4 1097.85L1449.28 1102.25L1457.2 1104.01L1461.2 1104.73L1465.2 1105.37L1470.32 1106.97L1475.04 1109.45L1478.48 1111.93L1480.4 1113.69L1490.24 1122.49L1499.28 1130.65L1510.16 1140.41L1513.2 1143.13M522.798 1024.89L518.158 1009.37L517.998 1006.81L518.318 1003.45L519.438 1001.21L521.838 998.493L538.798 984.973L541.438 982.893L543.758 982.013L546.318 981.533L549.198 981.373L552.637 981.773M493.278 1063.93L491.918 1066.09L481.358 1086.01M478.638 1123.53L475.678 1123.93L472.718 1124.97L470.558 1126.49L468.638 1128.49L466.158 1131.45M583.917 1066.41L585.357 1065.37L587.917 1063.93L590.237 1062.81L596.317 1060.25L607.437 1056.33L614.397 1053.77L651.117 1040.65L661.917 1036.65M1327.84 434.494L1359.52 417.054L1361.28 416.014L1365.52 415.134L1369.92 415.935L1374 418.174L1375.2 419.134M1734.71 867.053L1714.07 883.053L1710.87 886.413L1708.15 890.813L1706.07 895.533L1705.43 898.093L1705.11 901.213L1704.47 905.053L1704.07 907.693L1703.35 910.093L1701.59 914.333L1697.67 918.893L1692.31 921.693L1682.71 924.413L1675.51 929.613L1669.03 937.293L1659.03 954.653M1867.59 852.413L1862.55 840.254M1868.47 2097.21L1868.79 2099.61L1869.27 2101.13L1869.83 2102.81L1870.63 2104.57L1871.75 2106.09L1873.11 2107.69L1874.31 2108.89L1875.67 2109.93L1877.03 2110.73L1878.79 2111.53L1880.71 2112.33L1882.31 2112.97L1927.75 2130.25L1937.75 2134.09L1941.27 2135.53L1944.23 2137.37L1946.95 2139.29L1950.31 2142.01L1979.27 2165.69M1885.35 2009.13L1907.75 1961.53M1835.11 1836.09L1832.95 1836.73L1829.99 1836.97L1824.15 1836.17L1818.63 1834.01L1816.07 1832.49L1813.19 1830.09L1810.39 1826.41L1809.11 1823.29L1808.47 1820.33L1808.23 1817.77L1808.07 1814.73M1835.11 1836.09L1837.43 1835.13L1839.19 1834.09L1853.43 1823.21M1835.11 1836.09L1832.95 1836.57L1830.23 1836.25L1827.11 1835.37L1824.55 1834.25L1822.63 1833.21L1819.83 1830.33L1818.07 1827.37L1816.71 1824.17L1811.83 1803.85L1810.71 1800.25L1808.55 1796.81L1802.79 1794.09M542.398 1482.17L541.758 1479.77L540.878 1477.77L539.598 1475.85L537.518 1474.01L534.158 1472.33L525.998 1468.33L523.118 1466.89L521.678 1465.77L520.638 1464.73L497.438 1439.45M1637.99 1824.89L1643.75 1829.53L1647.19 1831.45L1650.39 1831.69L1655.27 1831.37" stroke="black" stroke-width="4.71999" stroke-miterlimit="10" stroke-linejoin="round" stroke-dasharray="15.84 5.28"/>
<path d="M1179.84 804.887L1176.48 805.927L1173.44 806.567L1169.84 806.727L1166.8 806.647L1162.08 805.767" stroke="black" stroke-width="4.71999" stroke-miterlimit="10" stroke-linejoin="round"/>
<path d="M279.76 949.287L262.8 941.527L260.96 940.247L259.36 938.487L257.84 936.087L256.4 934.087L254.4 932.647L251.28 931.127L222.16 919.927L219.28 918.247L217.84 916.807L216.64 914.967" stroke="black" stroke-width="4.71999" stroke-miterlimit="10" stroke-linejoin="round"/>
<path d="M394.88 1201.13L421.52 1202.49" stroke="black" stroke-width="4.71999" stroke-miterlimit="10" stroke-linejoin="round"/>
<path d="M1294.72 679.607L1292.96 681.847L1291.2 683.287L1288.88 684.967L1286.16 686.007L1283.2 686.327L1277.92 685.927L1282.24 688.887C1285.17 691.498 1286.34 693.83 1286.72 697.607L1286.56 700.887" stroke="black" stroke-width="4.71999" stroke-miterlimit="10" stroke-linejoin="round"/>
<path d="M473.2 277.847L494.16 301.687L497.36 305.367L498.72 306.487L500.08 307.287L501.92 308.007L503.44 308.167L505.52 308.087L522.8 306.647C525.43 306.643 526.353 306.616 528.64 308.087L532.08 311.527" stroke="black" stroke-width="4.71999" stroke-miterlimit="10" stroke-linejoin="round"/>
<path d="M752.08 997.927L754.64 996.647C758.409 993.254 758.288 992.398 758 987.607L757.04 982.247" stroke="black" stroke-width="4.71999" stroke-miterlimit="10" stroke-linejoin="round"/>
<path d="M1405.52 333.047L1433.36 332.487" stroke="black" stroke-width="4.71999" stroke-miterlimit="10" stroke-linejoin="round"/>
<path d="M1337.44 332.647L1331.04 334.087L1329.36 334.647L1327.76 335.687L1326.08 337.287L1324.72 339.527L1324.32 341.367L1324.16 345.447" stroke="black" stroke-width="4.71999" stroke-miterlimit="10" stroke-linejoin="round"/>
<path d="M544.72 1491.53L542.4 1482.17" stroke="black" stroke-width="4.71999" stroke-miterlimit="10" stroke-linejoin="round"/>
<path d="M415.2 1206.41L415.28 1204.33L415.6 1197.29V1194.65V1194.17L416.4 1191.93L417.28 1190.65L421.52 1185.13L426.64 1178.89L434.72 1168.89L446.72 1154.57" stroke="black" stroke-width="4.71999" stroke-miterlimit="10" stroke-linejoin="round"/>
<path d="M415.2 1206.41L415.12 1208.41L415.04 1209.69L414.56 1211.69L412.8 1214.09L410.4 1216.17L407.28 1217.85L389.2 1224.97L385.44 1226.65L383.28 1228.41C378.061 1233.78 378.052 1243.63 372.24 1248.97L366.72 1253.85L339.36 1276.89" stroke="black" stroke-width="4.71999" stroke-miterlimit="10" stroke-linejoin="round"/>
<path d="M466.16 1131.45L467.68 1128.65L468.16 1126.89L468.56 1123.69L469.76 1113.21L470.16 1109.93L470.4 1107.85" stroke="black" stroke-width="4.71999" stroke-miterlimit="10" stroke-linejoin="round"/>
<path d="M552.64 981.767L562.64 985.687L576.4 990.967" stroke="black" stroke-width="4.71999" stroke-miterlimit="10" stroke-linejoin="round"/>
<path d="M565.52 584.487L566.08 581.847L567.04 576.807L568.16 571.367L569.04 566.247L569.68 562.007L570.48 553.687" stroke="black" stroke-width="4.71999" stroke-miterlimit="10" stroke-linejoin="round"/>
<path d="M565.52 584.488L564.48 588.808L562.32 595.928L560.08 601.768L556.8 609.208L552.88 618.088L551.44 621.208L549.76 624.568L547.12 628.888L544.88 633.208L543.44 636.488L542.4 640.408C541.208 645.94 540.719 651.658 541.44 657.288L541.92 661.848L542.96 668.168L564.32 788.327L564.96 792.167C566.361 800.323 567.632 805.913 568.08 814.407L568.32 818.887L568.56 823.527C568.657 838.196 569.103 852.859 569.36 867.527L569.28 872.727L568.72 876.647L567.68 881.127L567.04 888.487L566.8 894.247L567.36 897.927L568.4 901.047L570.72 904.647L573.2 907.127L576.48 909.047L580.16 910.407L599.52 915.847L642.08 928.247L658 932.807L661.6 933.607L666.56 933.927L671.68 933.847L698.48 931.527H702.32L705.44 931.767L708 932.407L710.48 933.367L712.56 934.407L714.48 935.767L717.44 938.407" stroke="black" stroke-width="4.71999" stroke-miterlimit="10" stroke-linejoin="round"/>
<path d="M572.96 533.367L573.76 526.887C574.379 519.074 574.248 511.219 572.64 503.527L570.8 497.767L568.4 493.447L565.2 489.527L552.88 477.367L548.8 473.367L548.24 472.727L546.8 471.287L545.36 469.687L542.8 465.927L541.12 462.487C538.773 456.563 538.051 449.934 539.44 443.687L540.32 440.487L541.76 436.807L543.68 433.527L545.92 430.647L556.4 417.927L558.56 415.127L560.4 412.167L562.16 408.087L563.6 403.287L564.08 400.007C564.569 394.534 564.185 388.901 562.08 383.767L560 378.247L556.16 368.887L532.08 311.528" stroke="black" stroke-width="4.71999" stroke-miterlimit="10" stroke-linejoin="round"/>
<path d="M570.48 553.687L572.16 539.847L572.96 533.367" stroke="black" stroke-width="4.71999" stroke-miterlimit="10" stroke-linejoin="round"/>
<path d="M1395.92 459.847L1382.72 444.727L1381.36 441.927L1381.92 438.887L1383.2 436.007L1386.72 427.847L1386.96 424.407L1385.76 421.127L1383.28 417.607L1370.64 398.327L1369.84 396.727L1369.2 395.367L1368.72 393.767L1368.4 392.087L1368.32 389.927L1368.56 387.687L1372.48 368.407L1374.08 360.887L1375.12 356.167C1376.87 345.823 1377.77 333.537 1377.52 323.047L1377.44 321.047L1377.04 314.487" stroke="black" stroke-width="4.71999" stroke-miterlimit="10" stroke-linejoin="round"/>
<path d="M1658.48 1534.49L1654.96 1533.21C1650.38 1532.07 1648.15 1532.1 1644.4 1535.37L1643.12 1536.97L1641.92 1539.85L1640.8 1541.69L1630.16 1551.85L1604.88 1575.93L1601.44 1578.25L1599.28 1579.29L1596.16 1580.01L1581.92 1580.49L1565.44 1580.97" stroke="black" stroke-width="4.71999" stroke-miterlimit="10" stroke-linejoin="round"/>
<path d="M1665.2 1537.61L1684.64 1546.73" stroke="black" stroke-width="4.71999" stroke-miterlimit="10" stroke-linejoin="round"/>
<path d="M2253.04 1695.21L2231.68 1683.69L2225.6 1681.61L2220.16 1681.69L2213.6 1684.41L2208.24 1689.29L2205.44 1695.85L2187.2 1735.61L2182.72 1742.41L2176.48 1747.53L2168.96 1750.65L2125.44 1765.93" stroke="black" stroke-width="4.71999" stroke-miterlimit="10" stroke-linejoin="round"/>
<path d="M1912.48 1951.53L1913.52 1949.29L1917.6 1940.81L1919.36 1937.13L1920.24 1934.41V1930.73L1919.92 1926.49L1920.24 1922.65L1921.36 1919.45L1923.44 1916.09L1928.48 1909.37L1930.4 1905.77L1933.84 1894.41L1938 1880.65" stroke="black" stroke-width="4.71999" stroke-miterlimit="10" stroke-linejoin="round"/>
<path d="M1907.76 1961.53L1912.48 1951.53" stroke="black" stroke-width="4.71999" stroke-miterlimit="10" stroke-linejoin="round"/>
<path d="M1536.56 1601.85L1524 1614.25L1512.4 1626.33" stroke="black" stroke-width="4.71999" stroke-miterlimit="10" stroke-linejoin="round"/>
<path d="M1507.6 341.047L1506.4 333.767L1506.08 332.487C1504.69 329.472 1502.16 326.95 1499.04 325.767L1496.72 325.207L1495.28 325.047L1493.76 324.887L1470.88 323.047L1467.52 322.807L1463.76 322.887L1460.48 323.527L1457.36 324.327L1439.68 330.247L1433.36 332.487" stroke="black" stroke-width="4.71999" stroke-miterlimit="10" stroke-linejoin="round"/>
<path d="M1324.16 345.447L1342.16 371.367L1363.28 401.847L1375.2 419.127" stroke="black" stroke-width="4.71999" stroke-miterlimit="10" stroke-linejoin="round"/>
<path d="M1427.52 494.647L1436.32 507.367" stroke="black" stroke-width="4.71999" stroke-miterlimit="10" stroke-linejoin="round"/>
<path d="M1179.84 804.887L1188.24 800.647" stroke="black" stroke-width="4.71999" stroke-miterlimit="10" stroke-linejoin="round"/>
<path d="M1142.96 817.847L1148.48 810.407C1150.69 806.716 1155.2 804.959 1159.36 805.207L1162.08 805.767" stroke="black" stroke-width="4.71999" stroke-miterlimit="10" stroke-linejoin="round"/>
<path d="M1436.32 507.367L1442.8 520.727L1445.44 528.327L1446.4 532.887L1446.72 537.847L1446.88 542.807V548.887L1446.4 552.407L1445.68 555.687L1444.56 560.887L1443.44 564.807L1432.72 594.567L1431.28 598.807L1429.92 604.247L1429.04 611.447L1428.96 623.847L1428.64 645.527L1427.68 718.086L1427.6 725.366L1427.84 732.006L1428.56 738.486L1428.88 744.726L1429.04 750.246L1429.12 756.806" stroke="black" stroke-width="4.71999" stroke-miterlimit="10" stroke-linejoin="round"/>
<path d="M1222.4 783.687L1212.64 788.647L1188.24 800.647" stroke="black" stroke-width="4.71999" stroke-miterlimit="10" stroke-linejoin="round"/>
<path d="M1286.56 700.887L1265.12 755.607L1264.56 757.047L1263.44 759.207L1262.4 761.207L1261.28 762.647L1260 764.327L1257.6 766.487L1255.2 768.487L1252.8 770.007L1242.48 774.807L1235.28 778.407L1231.2 780.167L1226.24 782.087L1222.4 783.687" stroke="black" stroke-width="4.71999" stroke-miterlimit="10" stroke-linejoin="round"/>
<path d="M945.84 927.047L950.88 919.527L952.88 916.247L954.64 913.127L957.84 906.167L962.4 896.487L964.48 892.327L966.8 888.327L969.68 885.047L972.72 882.167L977.6 878.807L981.2 876.887L985.68 875.207L996.48 872.087L1012.08 867.527L1110.56 836.967L1125.44 832.327L1130.32 830.647L1133.28 828.887L1135.84 826.807L1137.92 824.647" stroke="black" stroke-width="4.71999" stroke-miterlimit="10" stroke-linejoin="round"/>
<path d="M939.52 936.327L940.88 934.647L945.84 927.047" stroke="black" stroke-width="4.71999" stroke-miterlimit="10" stroke-linejoin="round"/>
<path d="M1375.2 419.127L1427.52 494.647" stroke="black" stroke-width="4.71999" stroke-miterlimit="10" stroke-linejoin="round"/>
<path d="M493.28 1063.93L494 1062.81L496 1060.49L498.72 1058.33L502 1056.89L504.56 1056.25L519.6 1051.61L521.92 1050.41L523.92 1048.57L525.36 1047.05L526.72 1043.93L527.2 1041.29L526.88 1038.57L522.8 1024.89" stroke="black" stroke-width="4.71999" stroke-miterlimit="10" stroke-linejoin="round"/>
<path d="M458.96 1088.09L433.84 1084.89" stroke="black" stroke-width="4.71999" stroke-miterlimit="10" stroke-linejoin="round"/>
<path d="M216.64 914.967L216.48 914.487L211.36 902.807" stroke="black" stroke-width="4.71999" stroke-miterlimit="10" stroke-linejoin="round"/>
<path d="M466.16 1131.45L446.72 1154.57" stroke="black" stroke-width="4.71999" stroke-miterlimit="10" stroke-linejoin="round"/>
<path d="M661.92 1036.65L682.4 1029.05L685.28 1027.77L687.92 1026.49L711.44 1012.49L717.44 1008.97L719.36 1007.85L721.12 1007.13L723.52 1006.17L726.8 1005.05L752.08 997.927" stroke="black" stroke-width="4.71999" stroke-miterlimit="10" stroke-linejoin="round"/>
<path d="M797.04 860.967L831.36 878.007L834.88 879.447L838.16 880.247L843.52 880.647L861.36 880.247L870.48 880.007L874.72 880.487L878.8 882.087L888.24 887.367L909.6 899.687L912.32 901.527L914 903.367L916 906.007L917.36 908.647L926 934.167L927.2 935.687L927.92 936.087L930.08 937.207L932.16 937.687L936.4 937.447L939.52 936.327" stroke="black" stroke-width="4.71999" stroke-miterlimit="10" stroke-linejoin="round"/>
<path d="M1499.04 374.887L1505.68 361.207C1508.63 355.283 1509.8 354.278 1508.8 348.327L1507.6 341.047" stroke="black" stroke-width="4.71999" stroke-miterlimit="10" stroke-linejoin="round"/>
<path d="M1377.04 314.487L1376 305.687" stroke="black" stroke-width="4.71999" stroke-miterlimit="10" stroke-linejoin="round"/>
<path d="M1137.92 824.647L1142.96 817.847" stroke="black" stroke-width="4.71999" stroke-miterlimit="10" stroke-linejoin="round"/>
<path d="M1659.04 954.647L1651.84 967.127L1645.52 975.527L1638.24 980.727L1632.8 982.887" stroke="black" stroke-width="4.71999" stroke-miterlimit="10" stroke-linejoin="round"/>
<path d="M2029.84 1837.29L2062.48 1805.77L2079.68 1789.21L2085.92 1782.97L2091.2 1778.73L2097.2 1775.85L2125.44 1765.93" stroke="black" stroke-width="4.71999" stroke-miterlimit="10" stroke-linejoin="round"/>
<path d="M1959.68 1871.05H1960.48L1963.36 1870.81L1966.16 1870.33L1968.8 1869.77L1971.04 1869.05L1974.24 1867.77L1979.36 1865.53L1987.28 1861.77L2011.12 1851.61L2015.52 1849.37L2018.48 1847.61L2021.84 1844.97L2029.84 1837.29" stroke="black" stroke-width="4.71999" stroke-miterlimit="10" stroke-linejoin="round"/>
<path d="M1924.8 1864.73L1927.84 1865.29L1949.6 1870.09L1952.24 1870.57L1954.72 1870.89L1957.6 1871.05H1959.68" stroke="black" stroke-width="4.71999" stroke-miterlimit="10" stroke-linejoin="round"/>
<path d="M1658.48 1534.49L1665.2 1537.61" stroke="black" stroke-width="4.71999" stroke-miterlimit="10" stroke-linejoin="round"/>
<path d="M469.44 1344.17L476.48 1337.85L487.92 1328.25L492.08 1323.61L494.64 1319.61L497.52 1314.33L506.32 1298.25L507.76 1293.77L508 1289.61L507.36 1284.65L507.52 1279.37L508.8 1275.05L510.96 1270.65L513.68 1266.97L529.2 1242.89L531.44 1238.25L532.16 1234.73L532.56 1229.45L531.52 1218.01L530.64 1206.09L529.12 1201.37L526.88 1198.49L523.36 1195.61L507.28 1188.25L503.36 1187.13L489.28 1186.09L485.28 1186.25L481.52 1187.69L478.24 1190.41L471.52 1197.69L469.12 1200.09L466.48 1201.69L462.64 1202.49L459.36 1202.33L456.24 1201.21L452.8 1200.01L450 1199.69L446.48 1200.25L440.32 1202.09L435.92 1203.05H431.44L421.52 1202.49" stroke="black" stroke-width="4.71999" stroke-miterlimit="10" stroke-linejoin="round"/>
<path d="M1472.16 1869.69L1475.6 1866.73L1479.52 1864.41L1493.04 1858.01" stroke="black" stroke-width="4.71999" stroke-miterlimit="10" stroke-linejoin="round"/>
<path d="M1543.6 1616.25L1539.6 1614.89L1537.76 1613.37C1535.27 1611.13 1534.22 1607.06 1535.6 1603.93L1536.56 1601.85" stroke="black" stroke-width="8.47998" stroke-miterlimit="10" stroke-linejoin="round"/>
<path d="M1434.72 1890.65L1435.92 1892.33L1437.84 1893.77L1440.08 1894.49L1442.4 1894.41L1444.4 1893.37" stroke="black" stroke-width="8.47998" stroke-miterlimit="10" stroke-linejoin="round"/>
<path d="M1373.36 1687.61L1378.32 1691.45L1384.08 1693.77L1388.48 1695.13L1396 1696.33" stroke="black" stroke-width="8.47998" stroke-miterlimit="10" stroke-linejoin="round"/>
<path d="M1312.96 612.407L1304.4 577.847" stroke="black" stroke-width="8.47998" stroke-miterlimit="10" stroke-linejoin="round"/>
<path d="M1110.32 1829.69L1114.64 1823.37L1119.28 1819.13L1123.76 1816.73L1126.56 1815.77" stroke="black" stroke-width="8.47998" stroke-miterlimit="10" stroke-linejoin="round"/>
<path d="M1435.84 1152.49L1433.76 1148.01L1432.4 1143.69L1432.56 1137.77L1434.16 1133.37L1436.08 1130.25" stroke="black" stroke-width="8.47998" stroke-miterlimit="10" stroke-linejoin="round"/>
<path d="M1561.12 1511.05L1562.4 1517.13L1563.28 1534.89" stroke="black" stroke-width="8.47998" stroke-miterlimit="10" stroke-linejoin="round"/>
<path d="M1753.52 561.527L1726.08 590.807L1724.16 592.327L1720.96 594.087" stroke="black" stroke-width="8.47998" stroke-miterlimit="10" stroke-linejoin="round"/>
<path d="M1026.88 1953.05L1052.4 1938.57L1058.64 1933.45L1062.8 1926.57L1075.28 1903.85" stroke="black" stroke-width="8.47998" stroke-miterlimit="10" stroke-linejoin="round"/>
<path d="M1648 1824.01L1643.6 1826.17H1640.88L1638 1824.89" stroke="black" stroke-width="8.47998" stroke-miterlimit="10" stroke-linejoin="round"/>
<path d="M1373.36 1687.61L1374.8 1691.77L1374.4 1696.89L1374.16 1705.13" stroke="black" stroke-width="8.47998" stroke-miterlimit="10" stroke-linejoin="round"/>
<path d="M1107.52 1805.45L1111.2 1809.61L1115.92 1813.05L1121.04 1815.13L1126.56 1815.77" stroke="black" stroke-width="8.47998" stroke-miterlimit="10" stroke-linejoin="round"/>
<path d="M951.44 1678.65L957.68 1684.57L962.64 1688.33L987.76 1701.93" stroke="black" stroke-width="8.47998" stroke-miterlimit="10" stroke-linejoin="round"/>
<path d="M913.6 1541.29L940.8 1653.77L943.2 1663.69L946.56 1671.53L951.44 1678.65" stroke="black" stroke-width="8.47998" stroke-miterlimit="10" stroke-linejoin="round"/>
<path d="M757.04 982.327L780.32 1008.17" stroke="black" stroke-width="8.47998" stroke-miterlimit="10" stroke-linejoin="round"/>
<path d="M780.32 1008.17L786.24 1014.65L788.4 1017.13L790.4 1019.61L792.64 1023.05L794.96 1027.13L797.12 1031.53L799.2 1036.41L800.48 1039.93L801.36 1043.85L802.08 1047.45L802.64 1051.21L803.52 1060.33L804.16 1067.05L804.96 1075.69L805.6 1081.93L806.16 1086.17C808.976 1107.93 828.826 1123.54 834.96 1145.13L835.92 1148.01L874.64 1330.73" stroke="black" stroke-width="8.47998" stroke-miterlimit="10" stroke-linejoin="round"/>
<path d="M1064 1788.09L1095.04 1796.73L1098.56 1798.09L1101.6 1799.77L1104.56 1802.09L1107.52 1805.45" stroke="black" stroke-width="8.47998" stroke-miterlimit="10" stroke-linejoin="round"/>
<path d="M987.76 1701.93L1004.16 1710.81L1010.16 1715.13L1015.04 1720.65L1017.68 1726.09L1019.68 1732.89L1026 1760.57L1027.76 1765.77L1029.84 1769.85L1032.8 1774.17L1036.16 1777.29L1039.84 1780.01L1043.52 1781.85L1050.16 1784.17L1064 1788.09" stroke="black" stroke-width="8.47998" stroke-miterlimit="10" stroke-linejoin="round"/>
<path d="M1102.56 1846.09L1075.28 1903.85" stroke="black" stroke-width="8.47998" stroke-miterlimit="10" stroke-linejoin="round"/>
<path d="M1110.32 1829.69L1102.56 1846.09" stroke="black" stroke-width="8.47998" stroke-miterlimit="10" stroke-linejoin="round"/>
<path d="M1434.72 1890.65L1433.12 1888.17L1430.8 1886.25L1400.88 1872.57L1397.44 1870.49L1394.56 1867.77L1392.24 1864.49L1390.48 1860.41L1386.08 1847.93L1384 1844.33L1381.04 1841.45L1377.52 1839.29L1360.8 1829.21L1357.6 1826.97L1355.12 1824.01L1353.6 1820.41L1352.56 1814.57L1348.4 1783.85L1348.16 1780.17L1348.32 1776.49L1349.36 1772.97L1367.36 1724.33L1374.16 1705.13" stroke="black" stroke-width="8.47998" stroke-miterlimit="10" stroke-linejoin="round"/>
<path d="M1512.4 1626.33L1520.4 1620.65L1525.36 1617.93L1532.64 1615.85L1540.24 1616.01L1543.6 1616.25" stroke="black" stroke-width="8.47998" stroke-miterlimit="10" stroke-linejoin="round"/>
<path d="M1571.52 1570.65L1571.84 1573.05L1571.6 1575.21L1570.72 1577.21L1569.04 1579.21L1567.36 1580.41L1565.44 1580.97" stroke="black" stroke-width="8.47998" stroke-miterlimit="10" stroke-linejoin="round"/>
<path d="M1438.88 1704.81L1396 1696.33" stroke="black" stroke-width="8.47998" stroke-miterlimit="10" stroke-linejoin="round"/>
<path d="M1512.4 1626.33L1494.64 1642.73L1491.04 1647.13L1488.8 1651.29L1487.28 1655.69L1486.64 1658.65L1485.92 1668.57L1485.2 1678.41L1484.24 1682.97L1482.48 1687.85L1479.76 1692.33L1476.8 1696.01L1473.36 1699.13L1468 1702.73L1461.36 1705.61L1456.8 1706.57L1451.76 1706.97L1448.24 1706.73L1438.88 1704.81" stroke="black" stroke-width="8.47998" stroke-miterlimit="10" stroke-linejoin="round"/>
<path d="M1177.04 636.807L1183.2 642.647L1201.68 661.927L1203.76 664.087L1205.76 665.527L1208.72 667.127L1210.96 668.327L1212.96 669.127L1216.4 670.167L1277.92 685.927" stroke="black" stroke-width="8.47998" stroke-miterlimit="10" stroke-linejoin="round"/>
<path d="M1614.88 666.487L1608.48 666.967L1589.36 665.927" stroke="black" stroke-width="8.47998" stroke-miterlimit="10" stroke-linejoin="round"/>
<path d="M1720.96 594.087L1719.04 594.167L1715.12 594.887L1709.6 597.527L1684 616.727L1679.44 620.407C1667.87 628.59 1652.51 628.087 1639.92 634.007L1638 634.967L1635.92 636.407C1631.13 640.615 1629.48 645.982 1628.4 652.007L1627.68 654.247L1625.76 658.407L1622.48 662.407L1618.96 664.967L1614.88 666.487" stroke="black" stroke-width="8.47998" stroke-miterlimit="10" stroke-linejoin="round"/>
<path d="M1337.44 332.647L1336.24 332.567C1328.9 332.298 1324.42 336.047 1316.72 331.287L1312.4 328.407" stroke="black" stroke-width="8.47998" stroke-miterlimit="10" stroke-linejoin="round"/>
<path d="M1275.68 324.167L1263.76 329.687L1261.12 330.967L1258.24 333.047L1255.68 335.687L1253.84 338.567L1236.96 372.967L1234.24 378.487L1232.56 382.247L1225.28 401.367" stroke="black" stroke-width="8.47998" stroke-miterlimit="10" stroke-linejoin="round"/>
<path d="M1312.4 328.407L1310.24 325.207L1305.68 320.967C1300.44 317.607 1294.39 316.26 1288.4 318.327L1275.68 324.167" stroke="black" stroke-width="8.47998" stroke-miterlimit="10" stroke-linejoin="round"/>
<path d="M1429.12 756.807L1427.76 748.967L1428 743.527L1428.72 740.887L1429.92 738.487L1431.76 735.927L1434.56 733.207L1436.56 731.447L1439.52 730.007L1444.48 727.207L1447.28 725.527L1449.36 723.847L1451.12 722.007L1452.72 720.087L1454.72 717.047L1462.8 704.807L1486.08 669.047L1488.88 665.687L1492.16 662.647L1496.16 659.607L1510.48 649.687L1517.44 644.807L1519.52 643.687L1521.84 642.887L1524 642.567L1527.04 642.647L1529.68 643.207L1531.84 644.087L1533.36 645.127L1535.52 646.807L1537.84 650.487L1538.8 653.047L1539.92 656.327" stroke="black" stroke-width="8.47998" stroke-miterlimit="10" stroke-linejoin="round"/>
<path d="M1428.08 812.167L1427.36 822.807L1426.48 836.007L1426.24 840.567L1426.08 846.087V893.047L1426.4 897.767L1426.88 901.447L1427.28 903.127L1428.16 906.567C1430.84 917.713 1439.25 929.255 1448.72 935.687L1460.08 943.607" stroke="black" stroke-width="8.47998" stroke-miterlimit="10" stroke-linejoin="round"/>
<path d="M1578.48 665.927H1589.36" stroke="black" stroke-width="8.47998" stroke-miterlimit="10" stroke-linejoin="round"/>
<path d="M1539.92 656.327L1542.08 658.887L1546.64 662.407L1551.92 664.727L1556.4 665.767L1578.48 665.927" stroke="black" stroke-width="8.47998" stroke-miterlimit="10" stroke-linejoin="round"/>
<path d="M1428.56 792.487L1428.4 802.327L1428.16 811.447L1428.08 812.167" stroke="black" stroke-width="8.47998" stroke-miterlimit="10" stroke-linejoin="round"/>
<path d="M1429.12 756.807V757.047L1428.64 783.927L1428.56 792.487" stroke="black" stroke-width="8.47998" stroke-miterlimit="10" stroke-linejoin="round"/>
<path d="M1460.08 943.607L1474.72 953.767L1525.84 989.607" stroke="black" stroke-width="8.47998" stroke-miterlimit="10" stroke-linejoin="round"/>
<path d="M1527.6 1052.41L1542 1034.73L1546.16 1024.49" stroke="black" stroke-width="8.47998" stroke-miterlimit="10" stroke-linejoin="round"/>
<path d="M1525.84 989.607L1535.28 996.247L1538.8 999.447L1541.44 1003.05L1542.72 1004.97L1546.4 1015.85L1546.16 1024.49" stroke="black" stroke-width="8.47998" stroke-miterlimit="10" stroke-linejoin="round"/>
<path d="M1527.6 1052.41L1508.48 1064.81L1501.76 1069.29L1496.24 1073.45L1491.04 1078.01L1437.6 1128.81L1436.08 1130.25" stroke="black" stroke-width="8.47998" stroke-miterlimit="10" stroke-linejoin="round"/>
<path d="M1561.12 1511.05L1558.88 1506.01L1551.68 1486.97L1544.4 1464.81L1543.36 1461.69L1542.72 1458.81L1542.48 1455.85L1542.56 1453.13L1542.88 1449.85L1543.52 1447.13L1544.88 1443.53L1546.64 1440.09L1562.96 1407.77L1568.64 1396.57L1569.84 1392.17V1387.69L1568.88 1384.41L1559.92 1352.41L1558.08 1345.93L1555.84 1340.97" stroke="black" stroke-width="8.47998" stroke-miterlimit="10" stroke-linejoin="round"/>
<path d="M1555.84 1340.97L1553.04 1336.25L1549.84 1332.97L1536.32 1322.25L1532 1318.97L1528.32 1315.77L1523.36 1309.93L1518.08 1301.69L1511.44 1290.17" stroke="black" stroke-width="8.47998" stroke-miterlimit="10" stroke-linejoin="round"/>
<path d="M1511.44 1290.17L1502.4 1274.25L1464.16 1212.49L1458.08 1202.81L1452.4 1193.69L1449.28 1188.73L1447.52 1185.05L1445.52 1180.09L1438.08 1156.25L1435.84 1152.49" stroke="black" stroke-width="8.47998" stroke-miterlimit="10" stroke-linejoin="round"/>
<path d="M1225.28 401.367L1225.12 402.087L1225.04 402.887C1223.81 416.639 1235.53 415.243 1243.84 421.207L1245.36 422.407L1247.68 424.567L1272 446.007L1273.92 447.847L1276 450.167L1277.6 452.567L1279.04 455.687L1280.32 460.007L1280.64 463.767L1280.4 467.367L1279.68 472.487L1278.64 480.247L1276.4 498.007L1273.28 522.487L1273.2 530.807L1273.84 536.647L1275.28 542.967L1277.44 549.047L1280.4 553.927L1285.2 560.327L1294.48 568.487L1300.88 574.647L1304.4 577.847" stroke="black" stroke-width="8.47998" stroke-miterlimit="10" stroke-linejoin="round"/>
<path d="M729.2 836.967L705.28 879.127C695.437 894.871 699.211 915.835 710 930.087L717.44 938.407" stroke="black" stroke-width="8.47998" stroke-miterlimit="10" stroke-linejoin="round"/>
<path d="M1151.44 612.727L1177.04 636.807" stroke="black" stroke-width="8.47998" stroke-miterlimit="10" stroke-linejoin="round"/>
<path d="M1669.92 1787.05L1667.84 1800.65L1666.72 1805.93L1665.28 1809.93L1662.48 1812.97L1648 1824.01" stroke="black" stroke-width="8.47998" stroke-miterlimit="10" stroke-linejoin="round"/>
<path d="M1563.28 1534.89L1563.44 1537.05L1563.84 1538.57L1571.52 1570.65" stroke="black" stroke-width="8.47998" stroke-miterlimit="10" stroke-linejoin="round"/>
<path d="M876 1398.25L880 1408.09L882.56 1414.33L884.56 1420.81L913.6 1541.29" stroke="black" stroke-width="8.47998" stroke-miterlimit="10" stroke-linejoin="round"/>
<path d="M874.64 1330.73L877.28 1343.37L878 1349.77L877.52 1356.25L876.64 1363.45L874.64 1380.33V1389.29L876 1398.25" stroke="black" stroke-width="8.47998" stroke-miterlimit="10" stroke-linejoin="round"/>
<path d="M497.44 1439.45L486.48 1427.45L481.52 1419.85L478.88 1411.61L474.8 1392.01L473.52 1387.53L470.88 1383.85L466.32 1379.21L461.12 1373.77L457.84 1368.33L457.12 1362.01L458 1357.45L461.28 1351.53L469.44 1344.17" stroke="black" stroke-width="8.47998" stroke-miterlimit="10" stroke-linejoin="round"/>
<path d="M1444.4 1893.37L1472.16 1869.69" stroke="black" stroke-width="8.47998" stroke-miterlimit="10" stroke-linejoin="round"/>
<path d="M1493.04 1858.01L1521.84 1844.33L1526 1842.33L1531.44 1838.49L1542.96 1828.09L1555.44 1818.09L1563.92 1814.73L1569.2 1813.85L1605.84 1812.25L1611.84 1812.01L1617.84 1812.65L1623.6 1814.49L1628.8 1817.53L1638 1824.89" stroke="black" stroke-width="8.47998" stroke-miterlimit="10" stroke-linejoin="round"/>
<path d="M1288.48 1658.25L1309.04 1655.85L1318.08 1654.57L1328 1653.85L1335.76 1654.17L1342.16 1655.77L1349.52 1659.61L1355.2 1664.89L1369.12 1681.93L1373.36 1687.61" stroke="black" stroke-width="12.32" stroke-miterlimit="10" stroke-linejoin="round"/>
<path d="M1126.56 1815.77L1132.96 1814.81L1137.04 1813.29L1142.08 1809.53L1146.88 1805.45L1150.88 1802.97L1178.16 1782.25L1182.08 1779.21L1184.64 1776.89L1187.04 1774.33L1188.8 1771.77L1201.28 1752.01L1204.08 1747.45L1205.92 1743.53L1207.04 1740.25L1207.76 1737.05L1209.12 1729.21L1212.88 1711.93L1216.24 1704.33L1220.16 1697.69L1226.32 1690.17L1244.32 1670.97L1248.72 1668.33L1256.16 1665.21L1267.36 1661.29L1274.88 1659.85L1279.36 1659.29" stroke="black" stroke-width="12.32" stroke-miterlimit="10" stroke-linejoin="round"/>
<path d="M717.44 938.407L721.04 942.327L757.04 982.327" stroke="black" stroke-width="12.32" stroke-miterlimit="10" stroke-linejoin="round"/>
<path d="M1279.36 1659.29L1288.48 1658.25" stroke="black" stroke-width="12.32" stroke-miterlimit="10" stroke-linejoin="round"/>
<path d="M1690.08 1707.53L1683.84 1705.77L1677.92 1704.17L1674.32 1702.65L1670.88 1700.01L1667.84 1696.33L1655.2 1675.45L1636 1656.17L1633.2 1653.13L1629.36 1648.73L1615.44 1632.57" stroke="black" stroke-width="12.32" stroke-miterlimit="10" stroke-linejoin="round"/>
<path d="M1543.6 1616.25L1591.28 1619.37L1597.28 1620.49L1602.24 1622.89L1615.44 1632.57" stroke="black" stroke-width="12.32" stroke-miterlimit="10" stroke-linejoin="round"/>
<path d="M1565.44 1580.97L1563.36 1581.29C1557.14 1582.11 1551.99 1586.27 1547.76 1590.65L1536.56 1601.85" stroke="black" stroke-width="12.32" stroke-miterlimit="10" stroke-linejoin="round"/>
<path d="M1348.72 334.247L1344.72 333.767L1341.36 333.207L1338.64 332.727L1337.44 332.647" stroke="black" stroke-width="12.32" stroke-miterlimit="10" stroke-linejoin="round"/>
<path d="M1348.72 334.247L1356.88 334.007L1405.52 333.047" stroke="black" stroke-width="12.32" stroke-miterlimit="10" stroke-linejoin="round"/>
<path d="M1669.92 1787.05V1786.89L1671.92 1770.73L1672.88 1767.53L1674.48 1764.25L1677.76 1761.77L1693.04 1751.85L1702 1745.93L1704.88 1743.69L1706.8 1741.93L1708.32 1739.53V1739.37L1709.28 1735.77L1709.04 1732.89L1708.24 1729.85L1706.8 1726.73L1702.56 1717.61L1699.28 1713.85L1690.08 1707.53" stroke="black" stroke-width="12.32" stroke-miterlimit="10" stroke-linejoin="round"/>
</svg>
