<svg width="2515" height="2520" viewBox="0 0 2515 2520" fill="none" xmlns="http://www.w3.org/2000/svg">
<path fill-rule="evenodd" clip-rule="evenodd" d="M1302.4 311.207C1302.4 308.807 1301.44 306.487 1299.76 304.807C1298.08 303.127 1295.76 302.167 1293.36 302.167C1290.96 302.167 1288.64 303.127 1286.96 304.807C1285.28 306.487 1284.32 308.807 1284.32 311.207C1284.32 313.607 1285.28 315.927 1286.96 317.607C1288.64 319.367 1290.96 320.327 1293.36 320.327C1295.76 320.327 1298.08 319.367 1299.76 317.607C1301.44 315.927 1302.4 313.607 1302.4 311.207Z" fill="#CC0000"/>
<path fill-rule="evenodd" clip-rule="evenodd" d="M1412.48 334.967C1412.48 332.567 1411.52 330.247 1409.84 328.487C1408.16 326.807 1405.84 325.847 1403.44 325.847C1401.04 325.847 1398.72 326.807 1397.04 328.487C1395.28 330.247 1394.32 332.567 1394.32 334.967C1394.32 337.367 1395.28 339.607 1397.04 341.367C1398.72 343.047 1401.04 344.007 1403.44 344.007C1405.84 344.007 1408.16 343.047 1409.84 341.367C1411.52 339.607 1412.48 337.367 1412.48 334.967Z" fill="#009A4C"/>
<path fill-rule="evenodd" clip-rule="evenodd" d="M1384.56 305.047C1384.56 302.647 1383.6 300.327 1381.92 298.647C1380.24 296.887 1377.92 295.927 1375.52 295.927C1373.12 295.927 1370.8 296.887 1369.12 298.647C1367.36 300.327 1366.4 302.647 1366.4 305.047C1366.4 307.447 1367.36 309.767 1369.12 311.447C1370.8 313.127 1373.12 314.087 1375.52 314.087C1377.92 314.087 1380.24 313.127 1381.92 311.447C1383.6 309.767 1384.56 307.447 1384.56 305.047Z" fill="#009A4C"/>
<path fill-rule="evenodd" clip-rule="evenodd" d="M1382.16 379.367C1382.16 376.967 1381.2 374.647 1379.52 372.967C1377.84 371.287 1375.52 370.327 1373.12 370.327C1370.72 370.327 1368.4 371.287 1366.72 372.967C1364.96 374.647 1364 376.967 1364 379.367C1364 381.767 1364.96 384.087 1366.72 385.767C1368.4 387.447 1370.72 388.407 1373.12 388.407C1375.52 388.407 1377.84 387.447 1379.52 385.767C1381.2 384.087 1382.16 381.767 1382.16 379.367Z" fill="#CCB265"/>
<path fill-rule="evenodd" clip-rule="evenodd" d="M1446 305.767C1446 303.367 1445.04 301.047 1443.36 299.367C1441.68 297.687 1439.36 296.727 1436.96 296.727C1434.56 296.727 1432.24 297.687 1430.56 299.367C1428.8 301.047 1427.84 303.367 1427.84 305.767C1427.84 308.167 1428.8 310.487 1430.56 312.167C1432.24 313.847 1434.56 314.807 1436.96 314.807C1439.36 314.807 1441.68 313.847 1443.36 312.167C1445.04 310.487 1446 308.167 1446 305.767Z" fill="#CCB265"/>
<path fill-rule="evenodd" clip-rule="evenodd" d="M1508.24 372.727C1508.24 370.327 1507.28 368.007 1505.6 366.327C1503.92 364.647 1501.6 363.687 1499.2 363.687C1496.8 363.687 1494.48 364.647 1492.8 366.327C1491.04 368.007 1490.16 370.327 1490.16 372.727C1490.16 375.127 1491.04 377.447 1492.8 379.127C1494.48 380.887 1496.8 381.847 1499.2 381.847C1501.6 381.847 1503.92 380.887 1505.6 379.127C1507.28 377.447 1508.24 375.127 1508.24 372.727Z" fill="#009A4C"/>
<path fill-rule="evenodd" clip-rule="evenodd" d="M1459.84 396.567C1459.84 394.167 1458.88 391.847 1457.2 390.167C1455.44 388.407 1453.2 387.447 1450.72 387.447C1448.32 387.447 1446.08 388.407 1444.32 390.167C1442.64 391.847 1441.68 394.167 1441.68 396.567C1441.68 398.967 1442.64 401.287 1444.32 402.967C1446.08 404.647 1448.32 405.607 1450.72 405.607C1453.2 405.607 1455.44 404.647 1457.2 402.967C1458.88 401.287 1459.84 398.967 1459.84 396.567Z" fill="#009A4C"/>
<path fill-rule="evenodd" clip-rule="evenodd" d="M1365.92 223.287C1365.92 220.887 1364.96 218.567 1363.28 216.887C1361.6 215.207 1359.28 214.247 1356.88 214.247C1354.48 214.247 1352.16 215.207 1350.48 216.887C1348.72 218.567 1347.76 220.887 1347.76 223.287C1347.76 225.687 1348.72 228.007 1350.48 229.687C1352.16 231.447 1354.48 232.407 1356.88 232.407C1359.28 232.407 1361.6 231.447 1363.28 229.687C1364.96 228.007 1365.92 225.687 1365.92 223.287Z" fill="#CCB265"/>
<path fill-rule="evenodd" clip-rule="evenodd" d="M1345.2 430.167C1345.2 427.767 1344.24 425.447 1342.56 423.767C1340.88 422.007 1338.56 421.047 1336.16 421.047C1333.76 421.047 1331.44 422.007 1329.76 423.767C1328.08 425.447 1327.12 427.767 1327.12 430.167C1327.12 432.567 1328.08 434.887 1329.76 436.567C1331.44 438.247 1333.76 439.207 1336.16 439.207C1338.56 439.207 1340.88 438.247 1342.56 436.567C1344.24 434.887 1345.2 432.567 1345.2 430.167Z" fill="#009A4C"/>
<path fill-rule="evenodd" clip-rule="evenodd" d="M1398.16 452.807C1398.16 450.407 1397.2 448.087 1395.52 446.407C1393.84 444.647 1391.52 443.687 1389.12 443.687C1386.72 443.687 1384.4 444.647 1382.72 446.407C1380.96 448.087 1380 450.407 1380 452.807C1380 455.207 1380.96 457.527 1382.72 459.207C1384.4 460.887 1386.72 461.847 1389.12 461.847C1391.52 461.847 1393.84 460.887 1395.52 459.207C1397.2 457.527 1398.16 455.207 1398.16 452.807Z" fill="#009A4C"/>
<path fill-rule="evenodd" clip-rule="evenodd" d="M1317.12 595.847C1317.12 593.447 1316.16 591.127 1314.48 589.447C1312.8 587.687 1310.48 586.807 1308.08 586.807C1305.68 586.807 1303.36 587.687 1301.6 589.447C1299.92 591.127 1298.96 593.447 1298.96 595.847C1298.96 598.247 1299.92 600.567 1301.6 602.247C1303.36 603.927 1305.68 604.887 1308.08 604.887C1310.48 604.887 1312.8 603.927 1314.48 602.247C1316.16 600.567 1317.12 598.247 1317.12 595.847Z" fill="#4C719A"/>
<path fill-rule="evenodd" clip-rule="evenodd" d="M1756.56 567.927C1756.56 565.447 1755.6 563.207 1753.92 561.447C1752.16 559.767 1749.84 558.807 1747.44 558.807C1745.04 558.807 1742.72 559.767 1741.04 561.447C1739.36 563.207 1738.4 565.447 1738.4 567.927C1738.4 570.327 1739.36 572.567 1741.04 574.327C1742.72 576.007 1745.04 576.967 1747.44 576.967C1749.84 576.967 1752.16 576.007 1753.92 574.327C1755.6 572.567 1756.56 570.327 1756.56 567.927Z" fill="#009A4C"/>
<path fill-rule="evenodd" clip-rule="evenodd" d="M1742.08 866.407C1742.08 864.007 1741.12 861.687 1739.44 860.007C1737.76 858.247 1735.44 857.367 1733.04 857.367C1730.64 857.367 1728.32 858.247 1726.64 860.007C1724.88 861.687 1723.92 864.007 1723.92 866.407C1723.92 868.807 1724.88 871.127 1726.64 872.807C1728.32 874.487 1730.64 875.447 1733.04 875.447C1735.44 875.447 1737.76 874.487 1739.44 872.807C1741.12 871.127 1742.08 868.807 1742.08 866.407Z" fill="#009A4C"/>
<path fill-rule="evenodd" clip-rule="evenodd" d="M1875.2 847.927C1875.2 845.527 1874.24 843.207 1872.56 841.527C1870.8 839.847 1868.56 838.887 1866.08 838.887C1863.68 838.887 1861.44 839.847 1859.68 841.527C1858 843.207 1857.04 845.527 1857.04 847.927C1857.04 850.327 1858 852.647 1859.68 854.327C1861.44 856.087 1863.68 857.047 1866.08 857.047C1868.56 857.047 1870.8 856.087 1872.56 854.327C1874.24 852.647 1875.2 850.327 1875.2 847.927Z" fill="#CCB265"/>
<path fill-rule="evenodd" clip-rule="evenodd" d="M1985.12 759.607C1985.12 757.207 1984.16 754.967 1982.48 753.207C1980.72 751.527 1978.48 750.567 1976.08 750.567C1973.6 750.567 1971.36 751.527 1969.6 753.207C1967.92 754.967 1966.96 757.207 1966.96 759.607C1966.96 762.087 1967.92 764.327 1969.6 766.087C1971.36 767.767 1973.6 768.727 1976.08 768.727C1978.48 768.727 1980.72 767.767 1982.48 766.087C1984.16 764.327 1985.12 762.007 1985.12 759.607Z" fill="#CCB265"/>
<path fill-rule="evenodd" clip-rule="evenodd" d="M1707.12 905.607C1707.12 903.207 1706.16 900.887 1704.48 899.207C1702.8 897.527 1700.48 896.567 1698.08 896.567C1695.68 896.567 1693.36 897.527 1691.6 899.207C1689.92 900.887 1688.96 903.207 1688.96 905.607C1688.96 908.007 1689.92 910.327 1691.6 912.007C1693.36 913.687 1695.68 914.647 1698.08 914.647C1700.48 914.647 1702.72 913.687 1704.48 912.007C1706.16 910.327 1707.12 908.007 1707.12 905.607Z" fill="#009A4C"/>
<path fill-rule="evenodd" clip-rule="evenodd" d="M1666.8 953.607C1666.8 951.207 1665.84 948.887 1664.16 947.207C1662.48 945.527 1660.16 944.567 1657.76 944.567C1655.36 944.567 1653.04 945.527 1651.36 947.207C1649.6 948.887 1648.64 951.207 1648.64 953.607C1648.64 956.007 1649.6 958.327 1651.36 960.087C1653.04 961.767 1655.36 962.727 1657.76 962.727C1660.16 962.727 1662.48 961.767 1664.16 960.087C1665.84 958.327 1666.8 956.007 1666.8 953.607Z" fill="#CCB265"/>
<path fill-rule="evenodd" clip-rule="evenodd" d="M1588.56 977.847C1588.56 975.447 1587.6 973.127 1585.92 971.447C1584.24 969.687 1581.92 968.727 1579.52 968.727C1577.12 968.727 1574.8 969.687 1573.12 971.447C1571.36 973.127 1570.4 975.447 1570.4 977.847C1570.4 980.247 1571.36 982.567 1573.12 984.247C1574.8 985.927 1577.12 986.887 1579.52 986.887C1581.92 986.887 1584.24 985.927 1585.92 984.247C1587.6 982.567 1588.56 980.247 1588.56 977.847Z" fill="#CC0000"/>
<path fill-rule="evenodd" clip-rule="evenodd" d="M1598.96 1004.17C1598.96 1001.77 1598 999.447 1596.32 997.767C1594.56 996.007 1592.24 995.047 1589.84 995.047C1587.44 995.047 1585.12 996.007 1583.44 997.767C1581.76 999.447 1580.8 1001.77 1580.8 1004.17C1580.8 1006.57 1581.76 1008.89 1583.44 1010.57C1585.12 1012.25 1587.44 1013.21 1589.84 1013.21C1592.24 1013.21 1594.56 1012.25 1596.32 1010.57C1598 1008.89 1598.96 1006.57 1598.96 1004.17Z" fill="#CCB265"/>
<path fill-rule="evenodd" clip-rule="evenodd" d="M1479.28 941.687C1479.28 939.287 1478.32 936.967 1476.64 935.287C1474.88 933.607 1472.56 932.647 1470.16 932.647C1467.76 932.647 1465.44 933.607 1463.76 935.287C1462.08 936.967 1461.12 939.287 1461.12 941.687C1461.12 944.087 1462.08 946.407 1463.76 948.167C1465.44 949.847 1467.76 950.807 1470.16 950.807C1472.56 950.807 1474.88 949.847 1476.64 948.167C1478.32 946.407 1479.28 944.087 1479.28 941.687Z" fill="#009A4C"/>
<path fill-rule="evenodd" clip-rule="evenodd" d="M1274.32 683.687C1274.32 681.287 1273.36 678.967 1271.68 677.207C1269.92 675.527 1267.68 674.567 1265.2 674.567C1262.8 674.567 1260.56 675.527 1258.8 677.207C1257.12 678.967 1256.16 681.287 1256.16 683.687C1256.16 686.087 1257.12 688.407 1258.8 690.087C1260.56 691.767 1262.8 692.727 1265.2 692.727C1267.68 692.727 1269.92 691.767 1271.68 690.087C1273.36 688.407 1274.32 686.087 1274.32 683.687Z" fill="#009A4C"/>
<path fill-rule="evenodd" clip-rule="evenodd" d="M1164.8 611.207C1164.8 608.807 1163.84 606.487 1162.08 604.807C1160.4 603.127 1158.08 602.167 1155.68 602.167C1153.28 602.167 1150.96 603.127 1149.28 604.807C1147.6 606.487 1146.64 608.807 1146.64 611.207C1146.64 613.607 1147.6 615.927 1149.28 617.607C1150.96 619.367 1153.28 620.247 1155.68 620.247C1158.08 620.247 1160.4 619.367 1162.08 617.607C1163.84 615.927 1164.8 613.607 1164.8 611.207Z" fill="#009A4C"/>
<path fill-rule="evenodd" clip-rule="evenodd" d="M961.36 551.447C961.36 549.047 960.4 546.727 958.72 545.047C957.04 543.367 954.72 542.407 952.32 542.407C949.92 542.407 947.6 543.367 945.92 545.047C944.24 546.727 943.28 549.047 943.28 551.447C943.28 553.847 944.24 556.167 945.92 557.847C947.6 559.607 949.92 560.567 952.32 560.567C954.72 560.567 957.04 559.607 958.72 557.847C960.4 556.167 961.36 553.847 961.36 551.447Z" fill="#CCB265"/>
<path fill-rule="evenodd" clip-rule="evenodd" d="M834.32 561.287C834.32 558.887 833.36 556.567 831.6 554.887C829.92 553.207 827.6 552.247 825.2 552.247C822.8 552.247 820.48 553.207 818.8 554.887C817.12 556.567 816.16 558.887 816.16 561.287C816.16 563.687 817.12 566.007 818.8 567.687C820.48 569.447 822.8 570.407 825.2 570.407C827.6 570.407 829.92 569.447 831.6 567.687C833.36 566.007 834.32 563.687 834.32 561.287Z" fill="#CCB265"/>
<path fill-rule="evenodd" clip-rule="evenodd" d="M804.08 583.367C804.08 580.967 803.12 578.647 801.36 576.967C799.68 575.287 797.36 574.327 794.96 574.327C792.56 574.327 790.24 575.287 788.56 576.967C786.88 578.647 785.92 580.967 785.92 583.367C785.92 585.767 786.88 588.087 788.56 589.847C790.24 591.527 792.56 592.487 794.96 592.487C797.36 592.487 799.68 591.527 801.36 589.847C803.12 588.087 804.08 585.767 804.08 583.367Z" fill="#CCB265"/>
<path fill-rule="evenodd" clip-rule="evenodd" d="M489.68 288.487C489.68 286.087 488.72 283.767 487.04 282.007C485.28 280.327 483.04 279.367 480.56 279.367C478.16 279.367 475.92 280.327 474.16 282.007C472.48 283.767 471.52 286.087 471.52 288.487C471.52 290.887 472.48 293.207 474.16 294.887C475.92 296.567 478.16 297.527 480.56 297.527C483.04 297.527 485.28 296.567 487.04 294.887C488.72 293.207 489.68 290.887 489.68 288.487Z" fill="#CCB265"/>
<path fill-rule="evenodd" clip-rule="evenodd" d="M736 836.567C736 834.167 735.04 831.847 733.28 830.167C731.6 828.487 729.28 827.527 726.88 827.527C724.48 827.527 722.16 828.487 720.48 830.167C718.8 831.847 717.84 834.167 717.84 836.567C717.84 838.967 718.8 841.287 720.48 842.967C722.16 844.727 724.48 845.687 726.88 845.687C729.28 845.687 731.6 844.727 733.28 842.967C735.04 841.287 736 838.967 736 836.567Z" fill="#009A4C"/>
<path fill-rule="evenodd" clip-rule="evenodd" d="M806 862.167C806 859.687 805.04 857.447 803.36 855.687C801.68 854.007 799.36 853.047 796.96 853.047C794.56 853.047 792.24 854.007 790.56 855.687C788.8 857.447 787.92 859.687 787.92 862.167C787.92 864.567 788.8 866.807 790.56 868.567C792.24 870.247 794.56 871.207 796.96 871.207C799.36 871.207 801.68 870.247 803.36 868.567C805.04 866.807 806 864.567 806 862.167Z" fill="#4C719A"/>
<path fill-rule="evenodd" clip-rule="evenodd" d="M493.12 863.127C493.12 860.727 492.16 858.407 490.48 856.727C488.8 855.047 486.48 854.087 484.08 854.087C481.68 854.087 479.36 855.047 477.68 856.727C475.92 858.407 475.04 860.727 475.04 863.127C475.04 865.527 475.92 867.847 477.68 869.527C479.36 871.287 481.68 872.167 484.08 872.167C486.48 872.167 488.8 871.287 490.48 869.527C492.16 867.847 493.12 865.527 493.12 863.127Z" fill="#CCB265"/>
<path fill-rule="evenodd" clip-rule="evenodd" d="M579.44 988.487C579.44 986.087 578.48 983.767 576.8 982.087C575.12 980.407 572.8 979.447 570.4 979.447C568 979.447 565.68 980.407 564 982.087C562.32 983.767 561.36 986.087 561.36 988.487C561.36 990.887 562.32 993.207 564 994.887C565.68 996.647 568 997.607 570.4 997.607C572.8 997.607 575.12 996.647 576.8 994.887C578.48 993.207 579.44 990.887 579.44 988.487Z" fill="#009A4C"/>
<path fill-rule="evenodd" clip-rule="evenodd" d="M516 918.967C516 916.567 515.04 914.247 513.28 912.567C511.6 910.887 509.28 909.927 506.88 909.927C504.48 909.927 502.16 910.887 500.48 912.567C498.8 914.247 497.84 916.567 497.84 918.967C497.84 921.367 498.8 923.687 500.48 925.367C502.16 927.127 504.48 928.087 506.88 928.087C509.28 928.087 511.6 927.127 513.28 925.367C515.04 923.687 516 921.367 516 918.967Z" fill="#009A4C"/>
<path fill-rule="evenodd" clip-rule="evenodd" d="M532.8 1025.85C532.8 1023.45 531.84 1021.13 530.16 1019.45C528.48 1017.77 526.16 1016.81 523.76 1016.81C521.36 1016.81 519.04 1017.77 517.36 1019.45C515.6 1021.13 514.64 1023.45 514.64 1025.85C514.64 1028.25 515.6 1030.57 517.36 1032.25C519.04 1034.01 521.36 1034.97 523.76 1034.97C526.16 1034.97 528.48 1034.01 530.16 1032.25C531.84 1030.57 532.8 1028.25 532.8 1025.85Z" fill="#CCB265"/>
<path fill-rule="evenodd" clip-rule="evenodd" d="M667.6 1036.17C667.6 1033.77 666.64 1031.45 664.96 1029.77C663.28 1028.09 660.96 1027.13 658.56 1027.13C656.16 1027.13 653.84 1028.09 652.16 1029.77C650.48 1031.45 649.52 1033.77 649.52 1036.17C649.52 1038.57 650.48 1040.89 652.16 1042.57C653.84 1044.33 656.16 1045.29 658.56 1045.29C660.96 1045.29 663.28 1044.33 664.96 1042.57C666.64 1040.89 667.6 1038.57 667.6 1036.17Z" fill="#CCB265"/>
<path fill-rule="evenodd" clip-rule="evenodd" d="M808.48 985.447C808.48 983.047 807.52 980.727 805.84 979.047C804.16 977.287 801.84 976.327 799.44 976.327C797.04 976.327 794.72 977.287 793.04 979.047C791.36 980.727 790.4 983.047 790.4 985.447C790.4 987.847 791.36 990.167 793.04 991.847C794.72 993.527 797.04 994.487 799.44 994.487C801.84 994.487 804.16 993.527 805.84 991.847C807.52 990.167 808.48 987.847 808.48 985.447Z" fill="#CC0000"/>
<path fill-rule="evenodd" clip-rule="evenodd" d="M954.08 926.647C954.08 924.247 953.12 921.927 951.44 920.247C949.76 918.567 947.44 917.607 945.04 917.607C942.64 917.607 940.32 918.567 938.64 920.247C936.88 921.927 936 924.247 936 926.647C936 929.047 936.88 931.367 938.64 933.047C940.32 934.807 942.64 935.767 945.04 935.767C947.44 935.767 949.76 934.807 951.44 933.047C953.12 931.367 954.08 929.047 954.08 926.647Z" fill="#009A4C"/>
<path fill-rule="evenodd" clip-rule="evenodd" d="M859.92 987.447C859.92 985.047 858.96 982.727 857.28 981.047C855.52 979.367 853.28 978.407 850.8 978.407C848.4 978.407 846.16 979.367 844.4 981.047C842.72 982.727 841.76 985.047 841.76 987.447C841.76 989.847 842.72 992.167 844.4 993.847C846.16 995.527 848.4 996.487 850.8 996.487C853.28 996.487 855.52 995.527 857.28 993.847C858.96 992.167 859.92 989.847 859.92 987.447Z" fill="#009A4C"/>
<path fill-rule="evenodd" clip-rule="evenodd" d="M957.68 972.167C957.68 969.767 956.72 967.447 955.04 965.767C953.28 964.007 950.96 963.047 948.56 963.047C946.16 963.047 943.84 964.007 942.16 965.767C940.48 967.447 939.52 969.767 939.52 972.167C939.52 974.567 940.48 976.887 942.16 978.567C943.84 980.247 946.16 981.207 948.56 981.207C950.96 981.207 953.28 980.247 955.04 978.567C956.72 976.887 957.68 974.567 957.68 972.167Z" fill="#009A4C"/>
<path fill-rule="evenodd" clip-rule="evenodd" d="M1123.44 875.687C1123.44 873.287 1122.56 870.967 1120.8 869.207C1119.12 867.527 1116.8 866.567 1114.4 866.567C1112 866.567 1109.68 867.527 1108 869.207C1106.32 870.967 1105.36 873.287 1105.36 875.687C1105.36 878.087 1106.32 880.407 1108 882.087C1109.68 883.767 1112 884.727 1114.4 884.727C1116.8 884.727 1119.12 883.767 1120.8 882.087C1122.56 880.407 1123.44 878.087 1123.44 875.687Z" fill="#009A4C"/>
<path fill-rule="evenodd" clip-rule="evenodd" d="M1152.88 818.087C1152.88 815.687 1151.92 813.367 1150.24 811.687C1148.56 810.007 1146.24 809.047 1143.84 809.047C1141.44 809.047 1139.12 810.007 1137.44 811.687C1135.76 813.367 1134.8 815.687 1134.8 818.087C1134.8 820.487 1135.76 822.807 1137.44 824.487C1139.12 826.167 1141.44 827.127 1143.84 827.127C1146.24 827.127 1148.56 826.167 1150.24 824.487C1151.92 822.807 1152.88 820.487 1152.88 818.087Z" fill="#CCB265"/>
<path fill-rule="evenodd" clip-rule="evenodd" d="M1182.08 916.647C1182.08 914.247 1181.12 911.927 1179.36 910.167C1177.68 908.487 1175.36 907.527 1172.96 907.527C1170.56 907.527 1168.24 908.487 1166.56 910.167C1164.88 911.927 1163.92 914.247 1163.92 916.647C1163.92 919.047 1164.88 921.367 1166.56 923.047C1168.24 924.727 1170.56 925.687 1172.96 925.687C1175.36 925.687 1177.68 924.727 1179.36 923.047C1181.12 921.367 1182.08 919.047 1182.08 916.647Z" fill="#CCB265"/>
<path fill-rule="evenodd" clip-rule="evenodd" d="M1045.6 950.487C1045.6 948.087 1044.64 945.767 1042.88 944.087C1041.2 942.407 1038.88 941.447 1036.48 941.447C1034.08 941.447 1031.76 942.407 1030.08 944.087C1028.4 945.767 1027.44 948.087 1027.44 950.487C1027.44 952.887 1028.4 955.207 1030.08 956.967C1031.76 958.647 1034.08 959.607 1036.48 959.607C1038.88 959.607 1041.2 958.647 1042.88 956.967C1044.64 955.207 1045.6 952.887 1045.6 950.487Z" fill="#009A4C"/>
<path fill-rule="evenodd" clip-rule="evenodd" d="M490.16 1086.41C490.16 1084.01 489.28 1081.69 487.52 1080.01C485.84 1078.33 483.52 1077.37 481.12 1077.37C478.72 1077.37 476.4 1078.33 474.72 1080.01C473.04 1081.69 472.08 1084.01 472.08 1086.41C472.08 1088.81 473.04 1091.13 474.72 1092.81C476.4 1094.57 478.72 1095.45 481.12 1095.45C483.52 1095.45 485.84 1094.57 487.52 1092.81C489.28 1091.13 490.16 1088.81 490.16 1086.41Z" fill="#CCB265"/>
<path fill-rule="evenodd" clip-rule="evenodd" d="M443.84 1084.25C443.84 1081.85 442.88 1079.53 441.12 1077.85C439.44 1076.17 437.12 1075.21 434.72 1075.21C432.32 1075.21 430 1076.17 428.32 1077.85C426.64 1079.53 425.68 1081.85 425.68 1084.25C425.68 1086.65 426.64 1088.97 428.32 1090.65C430 1092.41 432.32 1093.37 434.72 1093.37C437.12 1093.37 439.44 1092.41 441.12 1090.65C442.88 1088.97 443.84 1086.65 443.84 1084.25Z" fill="#009A4C"/>
<path fill-rule="evenodd" clip-rule="evenodd" d="M356.56 1060.09C356.56 1057.69 355.6 1055.37 353.84 1053.69C352.16 1051.93 349.84 1050.97 347.44 1050.97C345.04 1050.97 342.72 1051.93 341.04 1053.69C339.36 1055.37 338.4 1057.69 338.4 1060.09C338.4 1062.49 339.36 1064.81 341.04 1066.49C342.72 1068.17 345.04 1069.13 347.44 1069.13C349.84 1069.13 352.16 1068.17 353.84 1066.49C355.6 1064.81 356.56 1062.49 356.56 1060.09Z" fill="#CCB265"/>
<path fill-rule="evenodd" clip-rule="evenodd" d="M279.84 945.367C279.84 942.967 278.88 940.647 277.2 938.967C275.52 937.207 273.2 936.247 270.8 936.247C268.4 936.247 266.08 937.207 264.4 938.967C262.72 940.647 261.76 942.967 261.76 945.367C261.76 947.767 262.72 950.087 264.4 951.767C266.08 953.447 268.4 954.407 270.8 954.407C273.2 954.407 275.52 953.447 277.2 951.767C278.88 950.087 279.84 947.767 279.84 945.367Z" fill="#009A4C"/>
<path fill-rule="evenodd" clip-rule="evenodd" d="M220 903.927C220 901.527 219.04 899.207 217.36 897.527C215.68 895.767 213.36 894.807 210.96 894.807C208.56 894.807 206.24 895.767 204.56 897.527C202.88 899.207 201.92 901.527 201.92 903.927C201.92 906.327 202.88 908.647 204.56 910.327C206.24 912.007 208.56 912.967 210.96 912.967C213.36 912.967 215.68 912.007 217.36 910.327C219.04 908.647 220 906.327 220 903.927Z" fill="#009A4C"/>
<path fill-rule="evenodd" clip-rule="evenodd" d="M210.24 882.007C210.24 879.607 209.28 877.287 207.52 875.607C205.84 873.927 203.52 872.967 201.12 872.967C198.72 872.967 196.4 873.927 194.72 875.607C193.04 877.287 192.08 879.607 192.08 882.007C192.08 884.407 193.04 886.727 194.72 888.407C196.4 890.167 198.72 891.127 201.12 891.127C203.52 891.127 205.84 890.167 207.52 888.407C209.28 886.727 210.24 884.407 210.24 882.007Z" fill="#CCB265"/>
<path fill-rule="evenodd" clip-rule="evenodd" d="M355.04 1270.65C355.04 1268.25 354.08 1266.01 352.32 1264.25C350.64 1262.57 348.32 1261.61 345.92 1261.61C343.52 1261.61 341.2 1262.57 339.52 1264.25C337.84 1266.01 336.88 1268.25 336.88 1270.65C336.88 1273.13 337.84 1275.37 339.52 1277.13C341.2 1278.81 343.52 1279.77 345.92 1279.77C348.32 1279.77 350.64 1278.81 352.32 1277.13C354.08 1275.37 355.04 1273.13 355.04 1270.65Z" fill="#CCB265"/>
<path fill-rule="evenodd" clip-rule="evenodd" d="M413.36 1199.37C413.36 1196.97 412.4 1194.65 410.72 1192.97C408.96 1191.29 406.64 1190.33 404.24 1190.33C401.84 1190.33 399.52 1191.29 397.84 1192.97C396.16 1194.65 395.2 1196.97 395.2 1199.37C395.2 1201.77 396.16 1204.09 397.84 1205.77C399.52 1207.53 401.84 1208.41 404.24 1208.41C406.64 1208.41 408.96 1207.53 410.72 1205.77C412.4 1204.09 413.36 1201.77 413.36 1199.37Z" fill="#009A4C"/>
<path fill-rule="evenodd" clip-rule="evenodd" d="M477.2 1343.69C477.2 1341.29 476.24 1338.97 474.48 1337.29C472.8 1335.61 470.48 1334.65 468.08 1334.65C465.68 1334.65 463.36 1335.61 461.68 1337.29C460 1338.97 459.04 1341.29 459.04 1343.69C459.04 1346.09 460 1348.41 461.68 1350.09C463.36 1351.77 465.68 1352.73 468.08 1352.73C470.48 1352.73 472.8 1351.77 474.48 1350.09C476.24 1348.41 477.2 1346.09 477.2 1343.69Z" fill="#009A4C"/>
<path fill-rule="evenodd" clip-rule="evenodd" d="M506.32 1438.97C506.32 1436.57 505.36 1434.25 503.6 1432.57C501.92 1430.89 499.6 1429.93 497.2 1429.93C494.8 1429.93 492.48 1430.89 490.8 1432.57C489.12 1434.25 488.16 1436.57 488.16 1438.97C488.16 1441.37 489.12 1443.69 490.8 1445.37C492.48 1447.05 494.8 1448.01 497.2 1448.01C499.6 1448.01 501.92 1447.05 503.6 1445.37C505.36 1443.69 506.32 1441.37 506.32 1438.97Z" fill="#009A4C"/>
<path fill-rule="evenodd" clip-rule="evenodd" d="M507.68 1540.65C507.68 1538.25 506.72 1535.93 505.04 1534.25C503.36 1532.49 501.04 1531.53 498.64 1531.53C496.24 1531.53 493.92 1532.49 492.24 1534.25C490.56 1535.93 489.6 1538.25 489.6 1540.65C489.6 1543.05 490.56 1545.37 492.24 1547.05C493.92 1548.73 496.24 1549.69 498.64 1549.69C501.04 1549.69 503.36 1548.73 505.04 1547.05C506.72 1545.37 507.68 1543.05 507.68 1540.65Z" fill="#CCB265"/>
<path fill-rule="evenodd" clip-rule="evenodd" d="M514.4 1558.33C514.4 1555.93 513.44 1553.69 511.68 1551.93C510 1550.25 507.68 1549.29 505.28 1549.29C502.88 1549.29 500.56 1550.25 498.88 1551.93C497.2 1553.69 496.24 1555.93 496.24 1558.33C496.24 1560.81 497.2 1563.05 498.88 1564.81C500.56 1566.49 502.88 1567.45 505.28 1567.45C507.68 1567.45 510 1566.49 511.68 1564.81C513.44 1563.05 514.4 1560.81 514.4 1558.33Z" fill="#CCB265"/>
<path fill-rule="evenodd" clip-rule="evenodd" d="M555.84 1580.49C555.84 1578.01 554.88 1575.77 553.12 1574.01C551.44 1572.33 549.12 1571.37 546.72 1571.37C544.32 1571.37 542 1572.33 540.32 1574.01C538.64 1575.77 537.68 1578.01 537.68 1580.49C537.68 1582.89 538.64 1585.13 540.32 1586.89C542 1588.57 544.32 1589.53 546.72 1589.53C549.12 1589.53 551.44 1588.57 553.12 1586.89C554.88 1585.13 555.84 1582.89 555.84 1580.49Z" fill="#CCB265"/>
<path fill-rule="evenodd" clip-rule="evenodd" d="M595.6 1543.85C595.6 1541.45 594.64 1539.21 592.96 1537.45C591.2 1535.77 588.96 1534.81 586.48 1534.81C584.08 1534.81 581.84 1535.77 580.08 1537.45C578.4 1539.21 577.44 1541.45 577.44 1543.85C577.44 1546.25 578.4 1548.57 580.08 1550.33C581.84 1552.01 584.08 1552.97 586.48 1552.97C588.96 1552.97 591.2 1552.01 592.96 1550.33C594.64 1548.57 595.6 1546.25 595.6 1543.85Z" fill="#CCB265"/>
<path fill-rule="evenodd" clip-rule="evenodd" d="M592.48 1604.09C592.48 1601.69 591.6 1599.37 589.84 1597.69C588.16 1595.93 585.84 1594.97 583.44 1594.97C581.04 1594.97 578.72 1595.93 577.04 1597.69C575.36 1599.37 574.4 1601.69 574.4 1604.09C574.4 1606.49 575.36 1608.81 577.04 1610.49C578.72 1612.17 581.04 1613.13 583.44 1613.13C585.84 1613.13 588.16 1612.17 589.84 1610.49C591.6 1608.81 592.48 1606.49 592.48 1604.09Z" fill="#CC0000"/>
<path fill-rule="evenodd" clip-rule="evenodd" d="M556.4 1665.13C556.4 1662.73 555.44 1660.41 553.76 1658.73C552 1657.05 549.76 1656.09 547.36 1656.09C544.88 1656.09 542.64 1657.05 540.88 1658.73C539.2 1660.41 538.24 1662.73 538.24 1665.13C538.24 1667.53 539.2 1669.85 540.88 1671.61C542.64 1673.29 544.88 1674.25 547.36 1674.25C549.76 1674.25 552 1673.29 553.76 1671.61C555.44 1669.85 556.4 1667.53 556.4 1665.13Z" fill="#CC0000"/>
<path fill-rule="evenodd" clip-rule="evenodd" d="M567.76 1806.73C567.76 1804.33 566.8 1802.01 565.12 1800.33C563.44 1798.65 561.12 1797.69 558.72 1797.69C556.32 1797.69 554 1798.65 552.32 1800.33C550.56 1802.01 549.6 1804.33 549.6 1806.73C549.6 1809.13 550.56 1811.45 552.32 1813.21C554 1814.89 556.32 1815.85 558.72 1815.85C561.12 1815.85 563.44 1814.89 565.12 1813.21C566.8 1811.45 567.76 1809.13 567.76 1806.73Z" fill="#CCB265"/>
<path fill-rule="evenodd" clip-rule="evenodd" d="M638.8 1784.89C638.8 1782.49 637.84 1780.17 636.16 1778.49C634.4 1776.73 632.16 1775.77 629.76 1775.77C627.28 1775.77 625.04 1776.73 623.28 1778.49C621.6 1780.17 620.64 1782.49 620.64 1784.89C620.64 1787.29 621.6 1789.61 623.28 1791.29C625.04 1792.97 627.28 1793.93 629.76 1793.93C632.16 1793.93 634.4 1792.97 636.16 1791.29C637.84 1789.61 638.8 1787.29 638.8 1784.89Z" fill="#CC0000"/>
<path fill-rule="evenodd" clip-rule="evenodd" d="M619.76 1784.65C619.76 1782.25 618.8 1779.93 617.12 1778.25C615.36 1776.57 613.12 1775.61 610.64 1775.61C608.24 1775.61 606 1776.57 604.24 1778.25C602.56 1779.93 601.6 1782.25 601.6 1784.65C601.6 1787.05 602.56 1789.37 604.24 1791.05C606 1792.81 608.24 1793.77 610.64 1793.77C613.12 1793.77 615.36 1792.81 617.12 1791.05C618.8 1789.37 619.76 1787.05 619.76 1784.65Z" fill="#009A4C"/>
<path fill-rule="evenodd" clip-rule="evenodd" d="M686.48 1809.93C686.48 1807.53 685.52 1805.21 683.76 1803.53C682.08 1801.85 679.76 1800.89 677.36 1800.89C674.96 1800.89 672.64 1801.85 670.96 1803.53C669.28 1805.21 668.32 1807.53 668.32 1809.93C668.32 1812.33 669.28 1814.65 670.96 1816.33C672.64 1818.01 674.96 1818.97 677.36 1818.97C679.76 1818.97 682.08 1818.01 683.76 1816.33C685.52 1814.65 686.48 1812.33 686.48 1809.93Z" fill="#009A4C"/>
<path fill-rule="evenodd" clip-rule="evenodd" d="M592.64 1826.41C592.64 1824.01 591.68 1821.69 590 1820.01C588.32 1818.33 586 1817.37 583.6 1817.37C581.2 1817.37 578.88 1818.33 577.12 1820.01C575.44 1821.69 574.48 1824.01 574.48 1826.41C574.48 1828.81 575.44 1831.13 577.12 1832.81C578.88 1834.57 581.2 1835.53 583.6 1835.53C586 1835.53 588.32 1834.57 590 1832.81C591.68 1831.13 592.64 1828.81 592.64 1826.41Z" fill="#CCB265"/>
<path fill-rule="evenodd" clip-rule="evenodd" d="M682.72 1940.81C682.72 1938.41 681.76 1936.09 680.08 1934.41C678.32 1932.65 676.08 1931.69 673.68 1931.69C671.2 1931.69 668.96 1932.65 667.2 1934.41C665.52 1936.09 664.56 1938.41 664.56 1940.81C664.56 1943.21 665.52 1945.53 667.2 1947.21C668.96 1948.89 671.2 1949.85 673.68 1949.85C676.08 1949.85 678.32 1948.89 680.08 1947.21C681.76 1945.53 682.72 1943.21 682.72 1940.81Z" fill="#CC0000"/>
<path fill-rule="evenodd" clip-rule="evenodd" d="M1051.28 1941.85C1051.28 1939.45 1050.32 1937.13 1048.64 1935.37C1046.96 1933.69 1044.64 1932.73 1042.24 1932.73C1039.84 1932.73 1037.52 1933.69 1035.84 1935.37C1034.08 1937.13 1033.12 1939.45 1033.12 1941.85C1033.12 1944.25 1034.08 1946.57 1035.84 1948.25C1037.52 1949.93 1039.84 1950.89 1042.24 1950.89C1044.64 1950.89 1046.96 1949.93 1048.64 1948.25C1050.32 1946.57 1051.28 1944.25 1051.28 1941.85Z" fill="#4C719A"/>
<path fill-rule="evenodd" clip-rule="evenodd" d="M1096.4 1819.45C1096.4 1817.05 1095.44 1814.73 1093.76 1813.05C1092.08 1811.29 1089.76 1810.33 1087.36 1810.33C1084.96 1810.33 1082.64 1811.29 1080.96 1813.05C1079.28 1814.73 1078.32 1817.05 1078.32 1819.45C1078.32 1821.85 1079.28 1824.17 1080.96 1825.85C1082.64 1827.53 1084.96 1828.49 1087.36 1828.49C1089.76 1828.49 1092.08 1827.53 1093.76 1825.85C1095.44 1824.17 1096.4 1821.85 1096.4 1819.45Z" fill="#CC0000"/>
<path fill-rule="evenodd" clip-rule="evenodd" d="M861.36 1451.85C861.36 1449.45 860.4 1447.13 858.64 1445.45C856.96 1443.69 854.64 1442.73 852.24 1442.73C849.84 1442.73 847.52 1443.69 845.84 1445.45C844.16 1447.13 843.2 1449.45 843.2 1451.85C843.2 1454.25 844.16 1456.57 845.84 1458.25C847.52 1459.93 849.84 1460.89 852.24 1460.89C854.64 1460.89 856.96 1459.93 858.64 1458.25C860.4 1456.57 861.36 1454.25 861.36 1451.85Z" fill="#CCB265"/>
<path fill-rule="evenodd" clip-rule="evenodd" d="M868 1254.09C868 1251.69 867.04 1249.37 865.28 1247.69C863.6 1245.93 861.28 1244.97 858.88 1244.97C856.48 1244.97 854.16 1245.93 852.48 1247.69C850.8 1249.37 849.84 1251.69 849.84 1254.09C849.84 1256.49 850.8 1258.81 852.48 1260.49C854.16 1262.17 856.48 1263.13 858.88 1263.13C861.28 1263.13 863.6 1262.17 865.28 1260.49C867.04 1258.81 868 1256.49 868 1254.09Z" fill="#CC0000"/>
<path fill-rule="evenodd" clip-rule="evenodd" d="M1239.76 1685.13C1239.76 1682.73 1238.8 1680.41 1237.12 1678.73C1235.44 1676.97 1233.12 1676.01 1230.72 1676.01C1228.32 1676.01 1226 1676.97 1224.32 1678.73C1222.56 1680.41 1221.6 1682.73 1221.6 1685.13C1221.6 1687.53 1222.56 1689.85 1224.32 1691.53C1226 1693.21 1228.32 1694.17 1230.72 1694.17C1233.12 1694.17 1235.44 1693.21 1237.12 1691.53C1238.8 1689.85 1239.76 1687.53 1239.76 1685.13Z" fill="#CCB265"/>
<path fill-rule="evenodd" clip-rule="evenodd" d="M1487.84 1894.73C1487.84 1892.25 1486.88 1890.01 1485.2 1888.25C1483.52 1886.57 1481.2 1885.61 1478.8 1885.61C1476.4 1885.61 1474.08 1886.57 1472.4 1888.25C1470.64 1890.01 1469.68 1892.25 1469.68 1894.73C1469.68 1897.13 1470.64 1899.37 1472.4 1901.13C1474.08 1902.81 1476.4 1903.77 1478.8 1903.77C1481.2 1903.77 1483.52 1902.81 1485.2 1901.13C1486.88 1899.37 1487.84 1897.13 1487.84 1894.73Z" fill="#CCB265"/>
<path fill-rule="evenodd" clip-rule="evenodd" d="M1516.8 1851.05C1516.8 1848.65 1515.84 1846.33 1514.16 1844.65C1512.48 1842.97 1510.16 1842.01 1507.76 1842.01C1505.36 1842.01 1503.04 1842.97 1501.36 1844.65C1499.6 1846.33 1498.64 1848.65 1498.64 1851.05C1498.64 1853.45 1499.6 1855.77 1501.36 1857.45C1503.04 1859.21 1505.36 1860.17 1507.76 1860.17C1510.16 1860.17 1512.48 1859.21 1514.16 1857.45C1515.84 1855.77 1516.8 1853.45 1516.8 1851.05Z" fill="#CC0000"/>
<path fill-rule="evenodd" clip-rule="evenodd" d="M1579.84 1837.69C1579.84 1835.29 1578.88 1832.97 1577.2 1831.29C1575.44 1829.53 1573.2 1828.57 1570.8 1828.57C1568.4 1828.57 1566.08 1829.53 1564.32 1831.29C1562.64 1832.97 1561.68 1835.29 1561.68 1837.69C1561.68 1840.09 1562.64 1842.41 1564.32 1844.09C1566.08 1845.77 1568.32 1846.73 1570.8 1846.73C1573.2 1846.73 1575.44 1845.77 1577.2 1844.09C1578.88 1842.41 1579.84 1840.09 1579.84 1837.69Z" fill="#CC0000"/>
<path fill-rule="evenodd" clip-rule="evenodd" d="M1740.48 1958.73C1740.48 1956.33 1739.52 1954.01 1737.84 1952.33C1736.08 1950.65 1733.76 1949.69 1731.36 1949.69C1728.96 1949.69 1726.64 1950.65 1724.96 1952.33C1723.28 1954.01 1722.32 1956.33 1722.32 1958.73C1722.32 1961.13 1723.28 1963.45 1724.96 1965.13C1726.64 1966.81 1728.96 1967.77 1731.36 1967.77C1733.76 1967.77 1736.08 1966.81 1737.84 1965.13C1739.52 1963.45 1740.48 1961.13 1740.48 1958.73Z" fill="#CCB265"/>
<path fill-rule="evenodd" clip-rule="evenodd" d="M1708 1841.61C1708 1839.21 1707.04 1836.89 1705.28 1835.13C1703.6 1833.45 1701.28 1832.49 1698.88 1832.49C1696.48 1832.49 1694.16 1833.45 1692.48 1835.13C1690.8 1836.89 1689.84 1839.21 1689.84 1841.61C1689.84 1844.01 1690.8 1846.33 1692.48 1848.01C1694.16 1849.69 1696.48 1850.65 1698.88 1850.65C1701.28 1850.65 1703.6 1849.69 1705.28 1848.01C1707.04 1846.33 1708 1844.01 1708 1841.61Z" fill="#009A4C"/>
<path fill-rule="evenodd" clip-rule="evenodd" d="M1835.6 1885.77C1835.6 1883.37 1834.64 1881.05 1832.96 1879.37C1831.28 1877.69 1828.96 1876.73 1826.56 1876.73C1824.16 1876.73 1821.84 1877.69 1820.16 1879.37C1818.4 1881.05 1817.44 1883.37 1817.44 1885.77C1817.44 1888.17 1818.4 1890.49 1820.16 1892.25C1821.84 1893.93 1824.16 1894.89 1826.56 1894.89C1828.96 1894.89 1831.28 1893.93 1832.96 1892.25C1834.64 1890.49 1835.6 1888.17 1835.6 1885.77Z" fill="#4C719A"/>
<path fill-rule="evenodd" clip-rule="evenodd" d="M1916.24 1961.05C1916.24 1958.65 1915.28 1956.33 1913.6 1954.65C1911.84 1952.97 1909.6 1952.01 1907.12 1952.01C1904.72 1952.01 1902.48 1952.97 1900.72 1954.65C1899.04 1956.41 1898.08 1958.65 1898.08 1961.05C1898.08 1963.45 1899.04 1965.77 1900.72 1967.53C1902.48 1969.21 1904.72 1970.17 1907.12 1970.17C1909.6 1970.17 1911.84 1969.21 1913.6 1967.53C1915.28 1965.77 1916.24 1963.45 1916.24 1961.05Z" fill="#009A4C"/>
<path fill-rule="evenodd" clip-rule="evenodd" d="M1999.52 1927.85C1999.52 1925.45 1998.56 1923.13 1996.88 1921.45C1995.2 1919.77 1992.88 1918.81 1990.48 1918.81C1988.08 1918.81 1985.76 1919.77 1984.08 1921.45C1982.4 1923.13 1981.44 1925.45 1981.44 1927.85C1981.44 1930.25 1982.4 1932.57 1984.08 1934.25C1985.76 1936.01 1988.08 1936.89 1990.48 1936.89C1992.88 1936.89 1995.2 1936.01 1996.88 1934.25C1998.56 1932.57 1999.52 1930.25 1999.52 1927.85Z" fill="#009A4C"/>
<path fill-rule="evenodd" clip-rule="evenodd" d="M1971.52 2012.49C1971.52 2010.09 1970.56 2007.77 1968.88 2006.09C1967.2 2004.41 1964.88 2003.45 1962.48 2003.45C1960.08 2003.45 1957.76 2004.41 1956.08 2006.09C1954.32 2007.77 1953.36 2010.09 1953.36 2012.49C1953.36 2014.89 1954.32 2017.21 1956.08 2018.89C1957.76 2020.65 1960.08 2021.61 1962.48 2021.61C1964.88 2021.61 1967.2 2020.65 1968.88 2018.89C1970.56 2017.21 1971.52 2014.89 1971.52 2012.49Z" fill="#CCB265"/>
<path fill-rule="evenodd" clip-rule="evenodd" d="M1962.88 2254.81C1962.88 2252.41 1961.92 2250.09 1960.16 2248.41C1958.48 2246.73 1956.16 2245.77 1953.76 2245.77C1951.36 2245.77 1949.04 2246.73 1947.36 2248.41C1945.68 2250.09 1944.72 2252.41 1944.72 2254.81C1944.72 2257.21 1945.68 2259.53 1947.36 2261.21C1949.04 2262.89 1951.36 2263.85 1953.76 2263.85C1956.16 2263.85 1958.48 2262.89 1960.16 2261.21C1961.92 2259.53 1962.88 2257.21 1962.88 2254.81Z" fill="#CCB265"/>
<path fill-rule="evenodd" clip-rule="evenodd" d="M2251.52 1688.97C2251.52 1686.57 2250.56 1684.25 2248.88 1682.57C2247.2 1680.89 2244.88 1679.93 2242.48 1679.93C2240.08 1679.93 2237.76 1680.89 2236.08 1682.57C2234.32 1684.25 2233.36 1686.57 2233.36 1688.97C2233.36 1691.37 2234.32 1693.69 2236.08 1695.45C2237.76 1697.13 2240.08 1698.09 2242.48 1698.09C2244.88 1698.09 2247.2 1697.13 2248.88 1695.45C2250.56 1693.69 2251.52 1691.37 2251.52 1688.97Z" fill="#CCB265"/>
<path fill-rule="evenodd" clip-rule="evenodd" d="M2069.44 1769.13C2069.44 1766.73 2068.56 1764.41 2066.8 1762.73C2065.12 1761.05 2062.8 1760.09 2060.4 1760.09C2058 1760.09 2055.68 1761.05 2054 1762.73C2052.32 1764.41 2051.36 1766.73 2051.36 1769.13C2051.36 1771.53 2052.32 1773.85 2054 1775.53C2055.68 1777.29 2058 1778.25 2060.4 1778.25C2062.8 1778.25 2065.12 1777.29 2066.8 1775.53C2068.56 1773.85 2069.44 1771.53 2069.44 1769.13Z" fill="#CC0000"/>
<path fill-rule="evenodd" clip-rule="evenodd" d="M2037.68 1837.69C2037.68 1835.29 2036.8 1832.97 2035.04 1831.29C2033.36 1829.61 2031.04 1828.65 2028.64 1828.65C2026.24 1828.65 2023.92 1829.61 2022.24 1831.29C2020.56 1832.97 2019.6 1835.29 2019.6 1837.69C2019.6 1840.09 2020.56 1842.41 2022.24 1844.09C2023.92 1845.85 2026.24 1846.81 2028.64 1846.81C2031.04 1846.81 2033.36 1845.85 2035.04 1844.09C2036.8 1842.41 2037.68 1840.09 2037.68 1837.69Z" fill="#CCB265"/>
<path fill-rule="evenodd" clip-rule="evenodd" d="M1933.12 1844.41C1933.12 1842.01 1932.16 1839.69 1930.4 1838.01C1928.72 1836.33 1926.4 1835.37 1924 1835.37C1921.6 1835.37 1919.28 1836.33 1917.6 1838.01C1915.92 1839.69 1914.96 1842.01 1914.96 1844.41C1914.96 1846.81 1915.92 1849.13 1917.6 1850.81C1919.28 1852.57 1921.6 1853.53 1924 1853.53C1926.4 1853.53 1928.72 1852.57 1930.4 1850.81C1932.16 1849.13 1933.12 1846.81 1933.12 1844.41Z" fill="#CC0000"/>
<path fill-rule="evenodd" clip-rule="evenodd" d="M1857.68 1827.13C1857.68 1824.73 1856.72 1822.41 1855.04 1820.73C1853.36 1818.97 1851.04 1818.01 1848.64 1818.01C1846.24 1818.01 1843.92 1818.97 1842.16 1820.73C1840.48 1822.41 1839.52 1824.73 1839.52 1827.13C1839.52 1829.53 1840.48 1831.85 1842.16 1833.53C1843.92 1835.21 1846.24 1836.17 1848.64 1836.17C1851.04 1836.17 1853.36 1835.21 1855.04 1833.53C1856.72 1831.85 1857.68 1829.53 1857.68 1827.13Z" fill="#CCB265"/>
<path fill-rule="evenodd" clip-rule="evenodd" d="M1830.32 1796.01C1830.32 1793.61 1829.36 1791.29 1827.68 1789.61C1826 1787.93 1823.68 1786.97 1821.28 1786.97C1818.88 1786.97 1816.56 1787.93 1814.88 1789.61C1813.2 1791.29 1812.24 1793.61 1812.24 1796.01C1812.24 1798.41 1813.2 1800.73 1814.88 1802.41C1816.56 1804.17 1818.88 1805.13 1821.28 1805.13C1823.68 1805.13 1826 1804.17 1827.68 1802.41C1829.36 1800.73 1830.32 1798.41 1830.32 1796.01Z" fill="#CC0000"/>
<path fill-rule="evenodd" clip-rule="evenodd" d="M1854.24 1732.97C1854.24 1730.57 1853.28 1728.25 1851.52 1726.57C1849.84 1724.81 1847.52 1723.85 1845.12 1723.85C1842.72 1723.85 1840.4 1724.81 1838.72 1726.57C1837.04 1728.25 1836.08 1730.57 1836.08 1732.97C1836.08 1735.37 1837.04 1737.69 1838.72 1739.37C1840.4 1741.05 1842.72 1742.01 1845.12 1742.01C1847.52 1742.01 1849.84 1741.05 1851.52 1739.37C1853.28 1737.69 1854.24 1735.37 1854.24 1732.97Z" fill="#CC0000"/>
<path fill-rule="evenodd" clip-rule="evenodd" d="M1759.76 1745.53C1759.76 1743.13 1758.88 1740.81 1757.12 1739.13C1755.44 1737.45 1753.12 1736.49 1750.72 1736.49C1748.32 1736.49 1746 1737.45 1744.32 1739.13C1742.64 1740.81 1741.68 1743.13 1741.68 1745.53C1741.68 1747.93 1742.64 1750.25 1744.32 1751.93C1746 1753.69 1748.32 1754.65 1750.72 1754.65C1753.12 1754.65 1755.44 1753.69 1757.12 1751.93C1758.88 1750.25 1759.76 1747.93 1759.76 1745.53Z" fill="#CC0000"/>
<path fill-rule="evenodd" clip-rule="evenodd" d="M1678.96 1779.69C1678.96 1777.29 1678 1774.97 1676.32 1773.29C1674.64 1771.53 1672.32 1770.57 1669.92 1770.57C1667.52 1770.57 1665.2 1771.53 1663.52 1773.29C1661.84 1774.97 1660.88 1777.29 1660.88 1779.69C1660.88 1782.09 1661.84 1784.41 1663.52 1786.09C1665.2 1787.77 1667.52 1788.73 1669.92 1788.73C1672.32 1788.73 1674.64 1787.77 1676.32 1786.09C1678 1784.41 1678.96 1782.09 1678.96 1779.69Z" fill="#CCB265"/>
<path fill-rule="evenodd" clip-rule="evenodd" d="M1637.6 1555.37C1637.6 1552.97 1636.64 1550.65 1634.96 1548.97C1633.2 1547.21 1630.96 1546.25 1628.56 1546.25C1626.08 1546.25 1623.84 1547.21 1622.08 1548.97C1620.4 1550.65 1619.44 1552.97 1619.44 1555.37C1619.44 1557.77 1620.4 1560.09 1622.08 1561.77C1623.84 1563.45 1626.08 1564.41 1628.56 1564.41C1630.96 1564.41 1633.2 1563.45 1634.96 1561.77C1636.64 1560.09 1637.6 1557.77 1637.6 1555.37Z" fill="#CC0000"/>
<path fill-rule="evenodd" clip-rule="evenodd" d="M1675.92 1537.85C1675.92 1535.45 1674.96 1533.13 1673.28 1531.45C1671.6 1529.77 1669.28 1528.81 1666.88 1528.81C1664.48 1528.81 1662.16 1529.77 1660.48 1531.45C1658.72 1533.13 1657.76 1535.45 1657.76 1537.85C1657.76 1540.25 1658.72 1542.57 1660.48 1544.25C1662.16 1546.01 1664.48 1546.97 1666.88 1546.97C1669.28 1546.97 1671.6 1546.01 1673.28 1544.25C1674.96 1542.57 1675.92 1540.25 1675.92 1537.85Z" fill="#CCB265"/>
<path fill-rule="evenodd" clip-rule="evenodd" d="M1610.88 1497.05C1610.88 1494.65 1609.92 1492.33 1608.24 1490.65C1606.48 1488.97 1604.16 1488.01 1601.76 1488.01C1599.36 1488.01 1597.04 1488.97 1595.36 1490.65C1593.68 1492.33 1592.72 1494.65 1592.72 1497.05C1592.72 1499.45 1593.68 1501.77 1595.36 1503.45C1597.04 1505.21 1599.36 1506.09 1601.76 1506.09C1604.16 1506.09 1606.48 1505.21 1608.24 1503.45C1609.92 1501.77 1610.88 1499.45 1610.88 1497.05Z" fill="#CC0000"/>
<path fill-rule="evenodd" clip-rule="evenodd" d="M1492.8 1568.57C1492.8 1566.17 1491.84 1563.85 1490.08 1562.17C1488.4 1560.41 1486.08 1559.45 1483.68 1559.45C1481.28 1559.45 1478.96 1560.41 1477.28 1562.17C1475.6 1563.85 1474.64 1566.17 1474.64 1568.57C1474.64 1570.97 1475.6 1573.29 1477.28 1574.97C1478.96 1576.65 1481.28 1577.61 1483.68 1577.61C1486.08 1577.61 1488.4 1576.65 1490.08 1574.97C1491.84 1573.29 1492.8 1570.97 1492.8 1568.57Z" fill="#CC0000"/>
<path fill-rule="evenodd" clip-rule="evenodd" d="M1362.48 1489.93C1362.48 1487.53 1361.52 1485.21 1359.84 1483.53C1358.16 1481.85 1355.84 1480.89 1353.44 1480.89C1351.04 1480.89 1348.72 1481.85 1347.04 1483.53C1345.28 1485.21 1344.32 1487.53 1344.32 1489.93C1344.32 1492.33 1345.28 1494.65 1347.04 1496.33C1348.72 1498.09 1351.04 1499.05 1353.44 1499.05C1355.84 1499.05 1358.16 1498.09 1359.84 1496.33C1361.52 1494.65 1362.48 1492.33 1362.48 1489.93Z" fill="#CCB265"/>
<path fill-rule="evenodd" clip-rule="evenodd" d="M1573.76 1360.49C1573.76 1358.09 1572.8 1355.77 1571.12 1354.09C1569.36 1352.33 1567.12 1351.37 1564.72 1351.37C1562.24 1351.37 1560 1352.33 1558.24 1354.09C1556.56 1355.77 1555.6 1358.09 1555.6 1360.49C1555.6 1362.89 1556.56 1365.21 1558.24 1366.89C1560 1368.57 1562.24 1369.53 1564.72 1369.53C1567.12 1369.53 1569.36 1368.57 1571.12 1366.89C1572.8 1365.21 1573.76 1362.89 1573.76 1360.49Z" fill="#CC0000"/>
<path fill-rule="evenodd" clip-rule="evenodd" d="M1799.28 1403.93C1799.28 1401.53 1798.32 1399.21 1796.64 1397.53C1794.88 1395.85 1792.64 1394.89 1790.16 1394.89C1787.76 1394.89 1785.52 1395.85 1783.76 1397.53C1782.08 1399.21 1781.12 1401.53 1781.12 1403.93C1781.12 1406.33 1782.08 1408.65 1783.76 1410.33C1785.52 1412.09 1787.76 1413.05 1790.16 1413.05C1792.64 1413.05 1794.88 1412.09 1796.64 1410.33C1798.32 1408.65 1799.28 1406.33 1799.28 1403.93Z" fill="#CCB265"/>
<path fill-rule="evenodd" clip-rule="evenodd" d="M1839.92 1106.89C1839.92 1104.49 1838.96 1102.17 1837.28 1100.49C1835.6 1098.81 1833.28 1097.85 1830.88 1097.85C1828.48 1097.85 1826.16 1098.81 1824.48 1100.49C1822.72 1102.17 1821.76 1104.49 1821.76 1106.89C1821.76 1109.29 1822.72 1111.61 1824.48 1113.29C1826.16 1114.97 1828.48 1115.93 1830.88 1115.93C1833.28 1115.93 1835.6 1114.97 1837.28 1113.29C1838.96 1111.61 1839.92 1109.29 1839.92 1106.89Z" fill="#CC0000"/>
<path fill-rule="evenodd" clip-rule="evenodd" d="M1432.88 1070.41C1432.88 1068.01 1431.92 1065.69 1430.16 1064.01C1428.48 1062.33 1426.16 1061.37 1423.76 1061.37C1421.36 1061.37 1419.04 1062.33 1417.36 1064.01C1415.68 1065.69 1414.72 1068.01 1414.72 1070.41C1414.72 1072.81 1415.68 1075.13 1417.36 1076.81C1419.04 1078.57 1421.36 1079.45 1423.76 1079.45C1426.16 1079.45 1428.48 1078.57 1430.16 1076.81C1431.92 1075.13 1432.88 1072.81 1432.88 1070.41Z" fill="#CCB265"/>
<path fill-rule="evenodd" clip-rule="evenodd" d="M1330.96 1141.21C1330.96 1138.73 1330 1136.49 1328.32 1134.73C1326.56 1133.05 1324.24 1132.09 1321.84 1132.09C1319.44 1132.09 1317.12 1133.05 1315.44 1134.73C1313.76 1136.49 1312.8 1138.73 1312.8 1141.21C1312.8 1143.61 1313.76 1145.85 1315.44 1147.61C1317.12 1149.29 1319.44 1150.25 1321.84 1150.25C1324.24 1150.25 1326.56 1149.29 1328.32 1147.61C1330 1145.85 1330.96 1143.61 1330.96 1141.21Z" fill="#CC0000"/>
<path fill-rule="evenodd" clip-rule="evenodd" d="M1406.4 1207.53C1406.4 1205.13 1405.44 1202.81 1403.76 1201.13C1402.08 1199.45 1399.76 1198.49 1397.36 1198.49C1394.96 1198.49 1392.64 1199.45 1390.96 1201.13C1389.28 1202.81 1388.32 1205.13 1388.32 1207.53C1388.32 1209.93 1389.28 1212.25 1390.96 1213.93C1392.64 1215.61 1394.96 1216.57 1397.36 1216.57C1399.76 1216.57 1402.08 1215.69 1403.76 1213.93C1405.44 1212.25 1406.4 1209.93 1406.4 1207.53Z" fill="#CC0000"/>
</svg>
