<svg width="2515" height="2520" viewBox="0 0 2515 2520" fill="none" xmlns="http://www.w3.org/2000/svg">
<path d="M1179.84 804.887L1176.48 805.927L1173.44 806.567L1169.84 806.727L1166.8 806.647L1162.08 805.767" stroke="#C8C8C8" stroke-width="1.92" stroke-miterlimit="10" stroke-linejoin="round"/>
<path d="M458.96 1088.09L464.32 1088.41L468 1088.57L470.88 1088.09L473.28 1087.21L475.6 1085.53L477.12 1083.93L479.92 1079.53L484.24 1072.49L485.76 1070.49L489.28 1066.65L491.36 1065.13L493.28 1063.93" stroke="#C8C8C8" stroke-width="1.92" stroke-miterlimit="10" stroke-linejoin="round"/>
<path d="M394.88 1201.13L421.52 1202.49L420 1201.69L418.56 1200.73L417.36 1199.53L416.4 1197.93L415.92 1196.57L415.6 1194.65" stroke="#C8C8C8" stroke-width="1.92" stroke-miterlimit="10" stroke-linejoin="round"/>
<path d="M415.2 1206.41L416.8 1204.49L417.84 1203.77L418.96 1203.21L420 1202.73L421.28 1202.49" stroke="#C8C8C8" stroke-width="1.92" stroke-miterlimit="10" stroke-linejoin="round"/>
<path d="M1543.6 1616.25L1539.6 1614.89L1537.76 1613.37C1535.27 1611.13 1534.22 1607.06 1535.6 1603.93L1536.56 1601.85" stroke="#C8C8C8" stroke-width="1.92" stroke-miterlimit="10" stroke-linejoin="round"/>
<path d="M1571.52 1570.65L1572.4 1574.41L1573.36 1576.41L1574.8 1578.17L1576.64 1579.45L1578.96 1580.25L1580.48 1580.57" stroke="#C8C8C8" stroke-width="1.92" stroke-miterlimit="10" stroke-linejoin="round"/>
<path d="M1373.36 1687.61L1378.32 1691.45L1384.08 1693.77L1388.48 1695.13L1396 1696.33" stroke="#C8C8C8" stroke-width="1.92" stroke-miterlimit="10" stroke-linejoin="round"/>
<path d="M473.2 277.847L494.16 301.687L497.36 305.367L498.72 306.487L500.08 307.287L501.92 308.007L503.44 308.167L505.52 308.087L522.8 306.647C525.43 306.643 526.353 306.616 528.64 308.087L532.08 311.527" stroke="#C8C8C8" stroke-width="1.92" stroke-miterlimit="10" stroke-linejoin="round"/>
<path d="M752.08 997.927L754.64 996.647C758.409 993.254 758.288 992.398 758 987.607L757.04 982.247" stroke="#C8C8C8" stroke-width="1.92" stroke-miterlimit="10" stroke-linejoin="round"/>
<path d="M1924.8 1864.73L1931.84 1867.29L1935.6 1870.01L1937.28 1872.41L1937.84 1875.21L1938 1880.65" stroke="#C8C8C8" stroke-width="1.92" stroke-miterlimit="10" stroke-linejoin="round"/>
<path d="M1107.52 1805.45L1110.8 1812.01L1111.92 1817.61V1822.97L1110.32 1829.69L1114.64 1823.37L1119.28 1819.13L1123.76 1816.73L1126.56 1815.77" stroke="#C8C8C8" stroke-width="1.92" stroke-miterlimit="10" stroke-linejoin="round"/>
<path d="M1561.12 1511.05L1562.4 1517.13L1563.28 1534.89" stroke="#C8C8C8" stroke-width="1.92" stroke-miterlimit="10" stroke-linejoin="round"/>
<path d="M1753.52 561.527L1726.08 590.807L1724.16 592.327L1720.96 594.087" stroke="#C8C8C8" stroke-width="1.92" stroke-miterlimit="10" stroke-linejoin="round"/>
<path d="M1405.52 333.047L1433.36 332.487" stroke="#C8C8C8" stroke-width="1.92" stroke-miterlimit="10" stroke-linejoin="round"/>
<path d="M1337.44 332.647L1331.04 334.087L1329.36 334.647L1327.76 335.687L1326.08 337.287L1324.72 339.527L1324.32 341.367L1324.16 345.447" stroke="#C8C8C8" stroke-width="1.92" stroke-miterlimit="10" stroke-linejoin="round"/>
<path d="M572.72 1735.69L572.8 1732.81L572.88 1732.33C572.696 1724.65 572.027 1720.68 567.44 1714.09L564.88 1710.81L555.44 1697.45C552.22 1693.58 548.932 1685.31 549.04 1680.41L548.96 1675.21L550 1655.85" stroke="#C8C8C8" stroke-width="1.92" stroke-miterlimit="10" stroke-linejoin="round"/>
<path d="M559.04 1807.21L562.8 1812.65L566.08 1815.53L569.44 1816.97L572.64 1817.69L574.8 1818.65" stroke="#C8C8C8" stroke-width="1.92" stroke-miterlimit="10" stroke-linejoin="round"/>
<path d="M572.72 1735.69L572.48 1737.45C570.627 1745.63 567.017 1747.4 562.32 1753.85L560.56 1756.65L558.64 1760.33C554.592 1770.66 556.929 1776.63 557.44 1787.37L559.04 1807.21" stroke="#C8C8C8" stroke-width="1.92" stroke-miterlimit="10" stroke-linejoin="round"/>
<path d="M551.76 1641.93L553.6 1638.25L555.84 1635.45L558.56 1632.97L562.08 1630.81L565.52 1629.05" stroke="#C8C8C8" stroke-width="1.92" stroke-miterlimit="10" stroke-linejoin="round"/>
<path d="M550 1655.85L550.4 1649.45L550.72 1645.77L551.76 1641.93" stroke="#C8C8C8" stroke-width="1.92" stroke-miterlimit="10" stroke-linejoin="round"/>
<path d="M565.52 1629.05L570.88 1626.17L573.36 1624.73L575.2 1622.89L576.8 1620.41L577.52 1618.89L578.08 1617.37L578.56 1615.45L583.92 1595.45L584.48 1593.37L585.68 1588.49L586.08 1584.33L586.16 1573.61L588 1578.57L589.92 1581.37L591.6 1583.05L594.08 1585.13L609.76 1598.49L625.28 1611.77L627.44 1613.53L629.92 1614.97L634 1616.73L636.64 1617.29L640.56 1617.45L645.04 1617.21" stroke="#C8C8C8" stroke-width="1.92" stroke-miterlimit="10" stroke-linejoin="round"/>
<path d="M490.64 1542.97L507.6 1537.05L510 1536.09L513.12 1534.41L515.44 1532.97L535.04 1516.17L542.56 1509.61L543.92 1508.33L545.76 1506.97C548.213 1504.44 552.283 1504 555.6 1504.49L557.92 1504.97" stroke="#C8C8C8" stroke-width="1.92" stroke-miterlimit="10" stroke-linejoin="round"/>
<path d="M543.92 1508.33L545.28 1506.41C547.684 1501.13 546.915 1500.45 545.68 1495.13L544.72 1491.53L545.92 1494.09C548.017 1498.15 552.292 1502.79 556.64 1504.41L557.92 1504.97L559.76 1505.77L575.12 1511.37L576.16 1511.77L578.32 1512.65L580.24 1513.61L582.96 1516.25L584.72 1519.77L586.16 1525.93L586.64 1534.97L586.16 1573.61" stroke="#C8C8C8" stroke-width="1.92" stroke-miterlimit="10" stroke-linejoin="round"/>
<path d="M544.72 1491.53L542.4 1482.17" stroke="#C8C8C8" stroke-width="1.92" stroke-miterlimit="10" stroke-linejoin="round"/>
<path d="M415.2 1206.41L415.28 1204.33L415.6 1197.29V1194.65V1194.17L416.4 1191.93L417.28 1190.65L421.52 1185.13L426.64 1178.89L434.72 1168.89L446.72 1154.57" stroke="#C8C8C8" stroke-width="1.92" stroke-miterlimit="10" stroke-linejoin="round"/>
<path d="M415.2 1206.41L415.12 1208.41L415.04 1209.69L414.56 1211.69L412.8 1214.09L410.4 1216.17L407.28 1217.85L389.2 1224.97L385.44 1226.65L383.28 1228.41C378.061 1233.78 378.052 1243.63 372.24 1248.97L366.72 1253.85L339.36 1276.89" stroke="#C8C8C8" stroke-width="1.92" stroke-miterlimit="10" stroke-linejoin="round"/>
<path d="M558.4 1099.29L555.92 1105.29L553.44 1109.93L548.24 1115.29L544.16 1117.37L538.56 1119.53L536 1119.93L532.88 1120.17L520.24 1120.97L511.6 1121.45L501.12 1122.17L478.64 1123.53" stroke="#C8C8C8" stroke-width="1.92" stroke-miterlimit="10" stroke-linejoin="round"/>
<path d="M466.16 1131.45L467.68 1128.65L468.16 1126.89L468.56 1123.69L469.76 1113.21L470.16 1109.93L470.4 1107.85" stroke="#C8C8C8" stroke-width="1.92" stroke-miterlimit="10" stroke-linejoin="round"/>
<path d="M458.96 1088.09L462.16 1089.05L466.24 1091.45L468.56 1093.85L470.4 1097.21L470.72 1102.01L470.64 1105.21L470.4 1107.85" stroke="#C8C8C8" stroke-width="1.92" stroke-miterlimit="10" stroke-linejoin="round"/>
<path d="M552.64 981.767L562.64 985.687L576.4 990.967" stroke="#C8C8C8" stroke-width="1.92" stroke-miterlimit="10" stroke-linejoin="round"/>
<path d="M558.4 1099.29L560.88 1093.37L562.96 1089.29L566.56 1084.25L582.16 1068.41L583.92 1066.41L585.6 1063.53L586.8 1059.85L587.12 1055.61L586.88 1052.73L586 1050.17L584.8 1047.37L568.4 1010.81L566.72 1007.05L565.04 1002.97L563.92 1000.09L562.96 997.127L562.4 994.247L562 991.767L561.68 988.247V986.647L564.72 903.047L564.88 897.287L565.44 892.088L566.56 885.608L567.68 881.128" stroke="#C8C8C8" stroke-width="1.92" stroke-miterlimit="10" stroke-linejoin="round"/>
<path d="M565.52 584.487L566.08 581.847L567.04 576.807L568.16 571.367L569.04 566.247L569.68 562.007L570.48 553.687" stroke="#C8C8C8" stroke-width="1.92" stroke-miterlimit="10" stroke-linejoin="round"/>
<path d="M567.68 881.127L568.72 876.647L569.28 872.727L569.36 867.527C569.103 852.859 568.657 838.196 568.56 823.527L568.32 818.887L568.08 814.407C567.632 805.913 566.361 800.323 564.96 792.167L564.32 788.327L542.96 668.168L541.92 661.848L541.44 657.288C540.719 651.658 541.208 645.94 542.4 640.408L543.44 636.488L544.88 633.208L547.12 628.888L549.76 624.568L551.44 621.208L552.88 618.088L556.8 609.208L560.08 601.768L562.32 595.928L564.48 588.808L565.52 584.488" stroke="#C8C8C8" stroke-width="1.92" stroke-miterlimit="10" stroke-linejoin="round"/>
<path d="M572.96 533.367L573.76 526.887C574.379 519.074 574.248 511.219 572.64 503.527L570.8 497.767L568.4 493.447L565.2 489.527L552.88 477.367L548.8 473.367L548.24 472.727L546.8 471.287L545.36 469.687L542.8 465.927L541.12 462.487C538.773 456.563 538.051 449.934 539.44 443.687L540.32 440.487L541.76 436.807L543.68 433.527L545.92 430.647L556.4 417.927L558.56 415.127L560.4 412.167L562.16 408.087L563.6 403.287L564.08 400.007C564.569 394.534 564.185 388.901 562.08 383.767L560 378.247L556.16 368.887L532.08 311.528" stroke="#C8C8C8" stroke-width="1.92" stroke-miterlimit="10" stroke-linejoin="round"/>
<path d="M570.48 553.687L572.16 539.847L572.96 533.367" stroke="#C8C8C8" stroke-width="1.92" stroke-miterlimit="10" stroke-linejoin="round"/>
<path d="M1088.24 883.527L1095.52 872.327L1098.64 868.407L1102 864.087L1104.32 861.527L1106.88 859.767L1123.52 853.127L1126.32 851.207L1128.56 848.487L1129.2 844.247C1130.91 830.031 1131.49 837.487 1137.2 826.407L1137.92 824.647" stroke="#C8C8C8" stroke-width="1.92" stroke-miterlimit="10" stroke-linejoin="round"/>
<path d="M1088.24 883.527L1090.32 880.727L1092.88 878.887L1095.68 877.527L1098.72 876.807H1101.68L1104.08 876.967L1124.08 877.447L1126.8 877.687L1128.8 878.487L1131.2 879.527L1132.96 880.887L1135.28 883.607L1136.8 886.487L1137.68 889.847L1140.32 903.607L1141.2 906.167L1142.8 908.487L1144.88 910.407L1146.8 911.447L1149.52 912.247L1181.52 920.087" stroke="#C8C8C8" stroke-width="1.92" stroke-miterlimit="10" stroke-linejoin="round"/>
<path d="M929.2 970.087L973.36 972.007L981.92 972.327L986.08 972.167L991.76 970.967L1020.24 963.927L1023.36 962.807L1026.32 961.287L1028.24 959.927L1030.24 958.407L1032.4 956.567L1052.24 938.727L1053.76 937.287L1055.52 935.367L1057.04 933.287L1059.2 930.407L1088.24 883.527" stroke="#C8C8C8" stroke-width="1.92" stroke-miterlimit="10" stroke-linejoin="round"/>
<path d="M1658.48 1534.49L1654.96 1533.21C1650.38 1532.07 1648.15 1532.1 1644.4 1535.37L1643.12 1536.97L1641.92 1539.85L1640.8 1541.69L1630.16 1551.85L1604.88 1575.93L1601.44 1578.25L1599.28 1579.29L1596.16 1580.01L1581.92 1580.49L1565.44 1580.97" stroke="#C8C8C8" stroke-width="1.92" stroke-miterlimit="10" stroke-linejoin="round"/>
<path d="M1665.2 1537.61L1684.64 1546.73" stroke="#C8C8C8" stroke-width="1.92" stroke-miterlimit="10" stroke-linejoin="round"/>
<path d="M1482.48 1874.89L1482.72 1873.53L1483.6 1867.93L1484.72 1865.13L1486.56 1862.81L1489.6 1860.41L1493.04 1858.01" stroke="#C8C8C8" stroke-width="1.92" stroke-miterlimit="10" stroke-linejoin="round"/>
<path d="M1477.52 1906.97L1482.48 1874.89" stroke="#C8C8C8" stroke-width="1.92" stroke-miterlimit="10" stroke-linejoin="round"/>
<path d="M1026.88 1953.05L1052.4 1938.57L1058.64 1933.45L1062.8 1926.57L1075.28 1903.85" stroke="#C8C8C8" stroke-width="1.92" stroke-miterlimit="10" stroke-linejoin="round"/>
<path d="M2253.04 1695.21L2231.68 1683.69L2225.6 1681.61L2220.16 1681.69L2213.6 1684.41L2208.24 1689.29L2205.44 1695.85L2187.2 1735.61L2182.72 1742.41L2176.48 1747.53L2168.96 1750.65L2125.44 1765.93" stroke="#C8C8C8" stroke-width="1.92" stroke-miterlimit="10" stroke-linejoin="round"/>
<path d="M1959.92 2262.65L1949.2 2248.65L1948.48 2247.77L1947.84 2246.09L1947.12 2243.21L1947.44 2240.89L1948.16 2238.57L1949.44 2236.65L1961.92 2223.21L1979.68 2204.17L1981.28 2202.41L1982.48 2200.65L1983.36 2198.73L1983.68 2197.13L1983.92 2195.21L1984 2192.09L1984.24 2178.17L1984.08 2174.65L1983.76 2172.57L1982.96 2170.41L1981.84 2168.65L1980.72 2167.05L1979.28 2165.69" stroke="#C8C8C8" stroke-width="1.92" stroke-miterlimit="10" stroke-linejoin="round"/>
<path d="M1663.92 1829.93L1660.4 1831.85L1657.76 1834.01L1654.8 1835.85L1651.92 1836.41L1648.72 1835.77L1646.64 1834.25L1645.44 1831.93L1645.12 1829.29L1645.52 1827.45L1646.56 1825.53L1648 1824.01L1643.6 1826.17H1640.88L1638 1824.89" stroke="#C8C8C8" stroke-width="1.92" stroke-miterlimit="10" stroke-linejoin="round"/>
<path d="M1288.48 1658.25L1309.04 1655.85L1318.08 1654.57L1328 1653.85L1335.76 1654.17L1342.16 1655.77L1349.52 1659.61L1355.2 1664.89L1369.12 1681.93L1373.36 1687.61" stroke="#C8C8C8" stroke-width="1.92" stroke-miterlimit="10" stroke-linejoin="round"/>
<path d="M1126.56 1815.77L1132.96 1814.81L1137.04 1813.29L1142.08 1809.53L1146.88 1805.45L1150.88 1802.97L1178.16 1782.25L1182.08 1779.21L1184.64 1776.89L1187.04 1774.33L1188.8 1771.77L1201.28 1752.01L1204.08 1747.45L1205.92 1743.53L1207.04 1740.25L1207.76 1737.05L1209.12 1729.21L1212.88 1711.93L1216.24 1704.33L1220.16 1697.69L1226.32 1690.17L1244.32 1670.97L1248.72 1668.33L1256.16 1665.21L1267.36 1661.29L1274.88 1659.85L1279.36 1659.29" stroke="#C8C8C8" stroke-width="1.92" stroke-miterlimit="10" stroke-linejoin="round"/>
<path d="M1107.52 1805.45L1111.2 1809.61L1115.92 1813.05L1121.04 1815.13L1126.56 1815.77" stroke="#C8C8C8" stroke-width="1.92" stroke-miterlimit="10" stroke-linejoin="round"/>
<path d="M717.44 938.407L721.04 942.327L757.04 982.327" stroke="#C8C8C8" stroke-width="1.92" stroke-miterlimit="10" stroke-linejoin="round"/>
<path d="M941.76 1691.77L946.88 1691.53L950.88 1691.77L955.84 1692.81L987.76 1701.93" stroke="#C8C8C8" stroke-width="1.92" stroke-miterlimit="10" stroke-linejoin="round"/>
<path d="M645.04 1617.21L662.88 1614.41L676.32 1612.41L680.16 1611.93H684.8L689.36 1612.49L695.28 1614.49L700.24 1617.05L705.52 1621.37L802.72 1705.69L808 1709.37L814.96 1712.01L823.6 1713.85L835.84 1716.41L842.08 1716.81L847.76 1716.57L855.52 1714.73L935.999 1693.37L941.759 1691.77" stroke="#C8C8C8" stroke-width="1.92" stroke-miterlimit="10" stroke-linejoin="round"/>
<path d="M1064 1788.09L1095.04 1796.73L1098.56 1798.09L1101.6 1799.77L1104.56 1802.09L1107.52 1805.45" stroke="#C8C8C8" stroke-width="1.92" stroke-miterlimit="10" stroke-linejoin="round"/>
<path d="M987.76 1701.93L1004.16 1710.81L1010.16 1715.13L1015.04 1720.65L1017.68 1726.09L1019.68 1732.89L1026 1760.57L1027.76 1765.77L1029.84 1769.85L1032.8 1774.17L1036.16 1777.29L1039.84 1780.01L1043.52 1781.85L1050.16 1784.17L1064 1788.09" stroke="#C8C8C8" stroke-width="1.92" stroke-miterlimit="10" stroke-linejoin="round"/>
<path d="M1102.56 1846.09L1075.28 1903.85" stroke="#C8C8C8" stroke-width="1.92" stroke-miterlimit="10" stroke-linejoin="round"/>
<path d="M1110.32 1829.69L1102.56 1846.09" stroke="#C8C8C8" stroke-width="1.92" stroke-miterlimit="10" stroke-linejoin="round"/>
<path d="M1279.36 1659.29L1288.48 1658.25" stroke="#C8C8C8" stroke-width="1.92" stroke-miterlimit="10" stroke-linejoin="round"/>
<path d="M1655.28 1831.37L1663.92 1829.93" stroke="#C8C8C8" stroke-width="1.92" stroke-miterlimit="10" stroke-linejoin="round"/>
<path d="M1912.48 1951.53L1913.52 1949.29L1917.6 1940.81L1919.36 1937.13L1920.24 1934.41V1930.73L1919.92 1926.49L1920.24 1922.65L1921.36 1919.45L1923.44 1916.09L1928.48 1909.37L1930.4 1905.77L1933.84 1894.41L1938 1880.65" stroke="#C8C8C8" stroke-width="1.92" stroke-miterlimit="10" stroke-linejoin="round"/>
<path d="M1907.76 1961.53L1912.48 1951.53" stroke="#C8C8C8" stroke-width="1.92" stroke-miterlimit="10" stroke-linejoin="round"/>
<path d="M1868.48 2097.21L1874.88 2035.85C1875.48 2028.52 1878.71 2023.64 1881.68 2017.05L1885.36 2009.13" stroke="#C8C8C8" stroke-width="1.92" stroke-miterlimit="10" stroke-linejoin="round"/>
<path d="M1690.08 1707.53L1683.84 1705.77L1677.92 1704.17L1674.32 1702.65L1670.88 1700.01L1667.84 1696.33L1655.2 1675.45L1636 1656.17L1633.2 1653.13L1629.36 1648.73L1615.44 1632.57" stroke="#C8C8C8" stroke-width="1.92" stroke-miterlimit="10" stroke-linejoin="round"/>
<path d="M1543.6 1616.25L1591.28 1619.37L1597.28 1620.49L1602.24 1622.89L1615.44 1632.57" stroke="#C8C8C8" stroke-width="1.92" stroke-miterlimit="10" stroke-linejoin="round"/>
<path d="M1512.4 1626.33L1520.4 1620.65L1525.36 1617.93L1532.64 1615.85L1540.24 1616.01L1543.6 1616.25" stroke="#C8C8C8" stroke-width="1.92" stroke-miterlimit="10" stroke-linejoin="round"/>
<path d="M1565.44 1580.97L1563.36 1581.29C1557.14 1582.11 1551.99 1586.27 1547.76 1590.65L1536.56 1601.85" stroke="#C8C8C8" stroke-width="1.92" stroke-miterlimit="10" stroke-linejoin="round"/>
<path d="M1571.52 1570.65L1571.84 1573.05L1571.6 1575.21L1570.72 1577.21L1569.04 1579.21L1567.36 1580.41L1565.44 1580.97" stroke="#C8C8C8" stroke-width="1.92" stroke-miterlimit="10" stroke-linejoin="round"/>
<path d="M1536.56 1601.85L1524 1614.25L1512.4 1626.33" stroke="#C8C8C8" stroke-width="1.92" stroke-miterlimit="10" stroke-linejoin="round"/>
<path d="M1438.88 1704.81L1396 1696.33" stroke="#C8C8C8" stroke-width="1.92" stroke-miterlimit="10" stroke-linejoin="round"/>
<path d="M1512.4 1626.33L1494.64 1642.73L1491.04 1647.13L1488.8 1651.29L1487.28 1655.69L1486.64 1658.65L1485.92 1668.57L1485.2 1678.41L1484.24 1682.97L1482.48 1687.85L1479.76 1692.33L1476.8 1696.01L1473.36 1699.13L1468 1702.73L1461.36 1705.61L1456.8 1706.57L1451.76 1706.97L1448.24 1706.73L1438.88 1704.81" stroke="#C8C8C8" stroke-width="1.92" stroke-miterlimit="10" stroke-linejoin="round"/>
<path d="M1614.88 666.487L1608.48 666.967L1589.36 665.927" stroke="#C8C8C8" stroke-width="1.92" stroke-miterlimit="10" stroke-linejoin="round"/>
<path d="M1720.96 594.087L1719.04 594.167L1715.12 594.887L1709.6 597.527L1684 616.727L1679.44 620.407C1667.87 628.59 1652.51 628.087 1639.92 634.007L1638 634.967L1635.92 636.407C1631.13 640.615 1629.48 645.982 1628.4 652.007L1627.68 654.247L1625.76 658.407L1622.48 662.407L1618.96 664.967L1614.88 666.487" stroke="#C8C8C8" stroke-width="1.92" stroke-miterlimit="10" stroke-linejoin="round"/>
<path d="M1663.92 1829.93L1674.16 1828.17L1678.32 1828.41L1683.6 1830.41L1715.92 1850.33" stroke="#C8C8C8" stroke-width="1.92" stroke-miterlimit="10" stroke-linejoin="round"/>
<path d="M1507.6 341.047L1506.4 333.767L1506.08 332.487C1504.69 329.472 1502.16 326.95 1499.04 325.767L1496.72 325.207L1495.28 325.047L1493.76 324.887L1470.88 323.047L1467.52 322.807L1463.76 322.887L1460.48 323.527L1457.36 324.327L1439.68 330.247L1433.36 332.487" stroke="#C8C8C8" stroke-width="1.92" stroke-miterlimit="10" stroke-linejoin="round"/>
<path d="M1348.72 334.247L1344.72 333.767L1341.36 333.207L1338.64 332.727L1337.44 332.647" stroke="#C8C8C8" stroke-width="1.92" stroke-miterlimit="10" stroke-linejoin="round"/>
<path d="M1356.88 334.007L1348.72 334.247" stroke="#C8C8C8" stroke-width="1.92" stroke-miterlimit="10" stroke-linejoin="round"/>
<path d="M1324.16 345.447L1342.16 371.367L1363.28 401.847L1375.2 419.127" stroke="#C8C8C8" stroke-width="1.92" stroke-miterlimit="10" stroke-linejoin="round"/>
<path d="M1427.52 494.647L1436.32 507.367" stroke="#C8C8C8" stroke-width="1.92" stroke-miterlimit="10" stroke-linejoin="round"/>
<path d="M1398.48 827.287L1400.72 828.807C1410.1 833.103 1416.43 829.016 1422.16 821.527L1428.08 812.167" stroke="#C8C8C8" stroke-width="1.92" stroke-miterlimit="10" stroke-linejoin="round"/>
<path d="M1429.12 756.807L1427.76 748.967L1428 743.527L1428.72 740.887L1429.92 738.487L1431.76 735.927L1434.56 733.207L1436.56 731.447L1439.52 730.007L1444.48 727.207L1447.28 725.527L1449.36 723.847L1451.12 722.007L1452.72 720.087L1454.72 717.047L1462.8 704.807L1486.08 669.047L1488.88 665.687L1492.16 662.647L1496.16 659.607L1510.48 649.687L1517.44 644.807L1519.52 643.687L1521.84 642.887L1524 642.567L1527.04 642.647L1529.68 643.207L1531.84 644.087L1533.36 645.127L1535.52 646.807L1537.84 650.487L1538.8 653.047L1539.92 656.327" stroke="#C8C8C8" stroke-width="1.92" stroke-miterlimit="10" stroke-linejoin="round"/>
<path d="M1179.84 804.887L1188.24 800.647" stroke="#C8C8C8" stroke-width="1.92" stroke-miterlimit="10" stroke-linejoin="round"/>
<path d="M1142.96 817.847L1148.48 810.407C1150.69 806.716 1155.2 804.959 1159.36 805.207L1162.08 805.767" stroke="#C8C8C8" stroke-width="1.92" stroke-miterlimit="10" stroke-linejoin="round"/>
<path d="M912.32 955.767L922.8 949.767L927.92 946.727L932.96 942.967L935.92 940.327L939.2 936.727L939.52 936.327" stroke="#C8C8C8" stroke-width="1.92" stroke-miterlimit="10" stroke-linejoin="round"/>
<path d="M1398.48 827.287L1414.72 842.967C1419.42 846.782 1423.2 851.278 1425.36 856.967L1426.08 860.567" stroke="#C8C8C8" stroke-width="1.92" stroke-miterlimit="10" stroke-linejoin="round"/>
<path d="M1222.4 783.687L1232.88 781.367L1236.96 780.647L1245.12 779.927C1250.54 779.623 1257.09 782.024 1261.76 784.727L1266.16 787.207L1269.92 788.807C1278.74 791.752 1288.87 788.435 1297.12 793.607L1299.6 795.127L1302.08 797.207L1310.56 805.767L1314.48 809.607L1317.2 811.447L1320.64 813.047L1324 813.927L1329.2 815.207L1347.68 817.847L1357.68 819.527H1361.52L1366 818.887L1368.72 817.767C1373.95 815.11 1380.8 810.754 1386.24 815.527L1388 817.127L1397.92 826.647L1398.48 827.287" stroke="#C8C8C8" stroke-width="1.92" stroke-miterlimit="10" stroke-linejoin="round"/>
<path d="M1436.32 507.367L1442.8 520.727L1445.44 528.327L1446.4 532.887L1446.72 537.847L1446.88 542.807V548.887L1446.4 552.407L1445.68 555.687L1444.56 560.887L1443.44 564.807L1432.72 594.567L1431.28 598.807L1429.92 604.247L1429.04 611.447L1428.96 623.847L1428.64 645.527L1427.68 718.086L1427.6 725.366L1427.84 732.006L1428.56 738.486L1428.88 744.726L1429.04 750.246L1429.12 756.806" stroke="#C8C8C8" stroke-width="1.92" stroke-miterlimit="10" stroke-linejoin="round"/>
<path d="M1428.08 812.167L1427.36 822.807L1426.48 836.007L1426.24 840.567L1426.08 846.087V893.047L1426.4 897.767L1426.88 901.447L1427.28 903.127L1428.16 906.567C1430.84 917.713 1439.25 929.255 1448.72 935.687L1460.08 943.607" stroke="#C8C8C8" stroke-width="1.92" stroke-miterlimit="10" stroke-linejoin="round"/>
<path d="M1222.4 783.687L1212.64 788.647L1188.24 800.647" stroke="#C8C8C8" stroke-width="1.92" stroke-miterlimit="10" stroke-linejoin="round"/>
<path d="M945.84 927.047L950.88 919.527L952.88 916.247L954.64 913.127L957.84 906.167L962.4 896.487L964.48 892.327L966.8 888.327L969.68 885.047L972.72 882.167L977.6 878.807L981.2 876.887L985.68 875.207L996.48 872.087L1012.08 867.527L1110.56 836.967L1125.44 832.327L1130.32 830.647L1133.28 828.887L1135.84 826.807L1137.92 824.647" stroke="#C8C8C8" stroke-width="1.92" stroke-miterlimit="10" stroke-linejoin="round"/>
<path d="M939.52 936.327L940.88 934.647L945.84 927.047" stroke="#C8C8C8" stroke-width="1.92" stroke-miterlimit="10" stroke-linejoin="round"/>
<path d="M802.16 985.127L810.4 983.207L840.64 975.927L889.92 964.407L899.6 962.007L903.04 960.647L906.88 958.887L912.32 955.767" stroke="#C8C8C8" stroke-width="1.92" stroke-miterlimit="10" stroke-linejoin="round"/>
<path d="M752.08 997.927L768.16 993.287L802.16 985.127" stroke="#C8C8C8" stroke-width="1.92" stroke-miterlimit="10" stroke-linejoin="round"/>
<path d="M1375.2 419.127L1427.52 494.647" stroke="#C8C8C8" stroke-width="1.92" stroke-miterlimit="10" stroke-linejoin="round"/>
<path d="M1578.48 665.927H1589.36" stroke="#C8C8C8" stroke-width="1.92" stroke-miterlimit="10" stroke-linejoin="round"/>
<path d="M1539.92 656.327L1542.08 658.887L1546.64 662.407L1551.92 664.727L1556.4 665.767L1578.48 665.927" stroke="#C8C8C8" stroke-width="1.92" stroke-miterlimit="10" stroke-linejoin="round"/>
<path d="M1428.56 792.487L1428.4 802.327L1428.16 811.447L1428.08 812.167" stroke="#C8C8C8" stroke-width="1.92" stroke-miterlimit="10" stroke-linejoin="round"/>
<path d="M1429.12 756.807V757.047L1428.64 783.927L1428.56 792.487" stroke="#C8C8C8" stroke-width="1.92" stroke-miterlimit="10" stroke-linejoin="round"/>
<path d="M1460.08 943.607L1474.72 953.767L1525.84 989.607" stroke="#C8C8C8" stroke-width="1.92" stroke-miterlimit="10" stroke-linejoin="round"/>
<path d="M1546.16 1024.49L1543.84 1035.77L1500.24 1183.61L1499.36 1189.45V1194.65L1499.92 1199.77L1500.72 1204.25L1501.84 1208.09" stroke="#C8C8C8" stroke-width="1.92" stroke-miterlimit="10" stroke-linejoin="round"/>
<path d="M1525.84 989.607L1535.28 996.247L1538.8 999.447L1541.44 1003.05L1542.72 1004.97L1546.4 1015.85L1546.16 1024.49" stroke="#C8C8C8" stroke-width="1.92" stroke-miterlimit="10" stroke-linejoin="round"/>
<path d="M1589.44 1002.81L1581.28 1010.25" stroke="#C8C8C8" stroke-width="1.92" stroke-miterlimit="10" stroke-linejoin="round"/>
<path d="M1620.32 986.327L1604.88 990.167L1601.04 992.247L1589.44 1002.81" stroke="#C8C8C8" stroke-width="1.92" stroke-miterlimit="10" stroke-linejoin="round"/>
<path d="M1632.8 982.887L1630 983.927L1620.32 986.327" stroke="#C8C8C8" stroke-width="1.92" stroke-miterlimit="10" stroke-linejoin="round"/>
<path d="M1561.12 1511.05L1558.88 1506.01L1551.68 1486.97L1544.4 1464.81L1543.36 1461.69L1542.72 1458.81L1542.48 1455.85L1542.56 1453.13L1542.88 1449.85L1543.52 1447.13L1544.88 1443.53L1546.64 1440.09L1562.96 1407.77L1568.64 1396.57L1569.84 1392.17V1387.69L1568.88 1384.41L1559.92 1352.41L1558.08 1345.93L1555.84 1340.97" stroke="#C8C8C8" stroke-width="1.92" stroke-miterlimit="10" stroke-linejoin="round"/>
<path d="M1501.84 1208.09L1534.32 1312.17" stroke="#C8C8C8" stroke-width="1.92" stroke-miterlimit="10" stroke-linejoin="round"/>
<path d="M729.2 836.967L705.28 879.127C695.437 894.871 699.211 915.835 710 930.087L717.44 938.407" stroke="#C8C8C8" stroke-width="1.92" stroke-miterlimit="10" stroke-linejoin="round"/>
<path d="M522.8 1024.89L518.16 1009.37L518 1006.81L518.32 1003.45L519.44 1001.21L521.84 998.487L538.8 984.967L541.44 982.887L543.76 982.007L546.32 981.527L549.2 981.367L552.64 981.767" stroke="#C8C8C8" stroke-width="1.92" stroke-miterlimit="10" stroke-linejoin="round"/>
<path d="M493.28 1063.93L494 1062.81L496 1060.49L498.72 1058.33L502 1056.89L504.56 1056.25L519.6 1051.61L521.92 1050.41L523.92 1048.57L525.36 1047.05L526.72 1043.93L527.2 1041.29L526.88 1038.57L522.8 1024.89" stroke="#C8C8C8" stroke-width="1.92" stroke-miterlimit="10" stroke-linejoin="round"/>
<path d="M481.36 1086.01L471.6 1104.25L470.4 1107.85" stroke="#C8C8C8" stroke-width="1.92" stroke-miterlimit="10" stroke-linejoin="round"/>
<path d="M493.28 1063.93L491.92 1066.09L481.36 1086.01" stroke="#C8C8C8" stroke-width="1.92" stroke-miterlimit="10" stroke-linejoin="round"/>
<path d="M458.96 1088.09L433.84 1084.89" stroke="#C8C8C8" stroke-width="1.92" stroke-miterlimit="10" stroke-linejoin="round"/>
<path d="M466.16 1131.45L446.72 1154.57" stroke="#C8C8C8" stroke-width="1.92" stroke-miterlimit="10" stroke-linejoin="round"/>
<path d="M478.64 1123.53L475.68 1123.93L472.72 1124.97L470.56 1126.49L468.64 1128.49L466.16 1131.45" stroke="#C8C8C8" stroke-width="1.92" stroke-miterlimit="10" stroke-linejoin="round"/>
<path d="M661.92 1036.65L682.4 1029.05L685.28 1027.77L687.92 1026.49L711.44 1012.49L717.44 1008.97L719.36 1007.85L721.12 1007.13L723.52 1006.17L726.8 1005.05L752.08 997.927" stroke="#C8C8C8" stroke-width="1.92" stroke-miterlimit="10" stroke-linejoin="round"/>
<path d="M583.92 1066.41L585.36 1065.37L587.92 1063.93L590.24 1062.81L596.32 1060.25L607.44 1056.33L614.4 1053.77L651.12 1040.65L661.92 1036.65" stroke="#C8C8C8" stroke-width="1.92" stroke-miterlimit="10" stroke-linejoin="round"/>
<path d="M797.04 860.967L831.36 878.007L834.88 879.447L838.16 880.247L843.52 880.647L861.36 880.247L870.48 880.007L874.72 880.487L878.8 882.087L888.24 887.367L909.6 899.687L912.32 901.527L914 903.367L916 906.007L917.36 908.647L926 934.167L927.2 935.687L927.92 936.087L930.08 937.207L932.16 937.687L936.4 937.447L939.52 936.327" stroke="#C8C8C8" stroke-width="1.92" stroke-miterlimit="10" stroke-linejoin="round"/>
<path d="M1499.04 374.887L1505.68 361.207C1508.63 355.283 1509.8 354.278 1508.8 348.327L1507.6 341.047" stroke="#C8C8C8" stroke-width="1.92" stroke-miterlimit="10" stroke-linejoin="round"/>
<path d="M1439.04 390.727L1458.8 400.407L1460.72 401.207L1463.04 401.927L1465.76 402.247L1468.24 402.167L1470.24 401.767L1472.64 401.127L1483.52 397.287L1487.52 395.607L1489.04 394.247L1490.32 392.727L1491.52 390.487L1499.04 374.887" stroke="#C8C8C8" stroke-width="1.92" stroke-miterlimit="10" stroke-linejoin="round"/>
<path d="M1356.88 334.007L1405.52 333.047" stroke="#C8C8C8" stroke-width="1.92" stroke-miterlimit="10" stroke-linejoin="round"/>
<path d="M1327.84 434.487L1359.52 417.047L1361.28 416.007L1365.52 415.127L1369.92 415.927L1374 418.167L1375.2 419.127" stroke="#C8C8C8" stroke-width="1.92" stroke-miterlimit="10" stroke-linejoin="round"/>
<path d="M1137.92 824.647L1142.96 817.847" stroke="#C8C8C8" stroke-width="1.92" stroke-miterlimit="10" stroke-linejoin="round"/>
<path d="M1469.28 942.967L1476 948.007L1484.56 952.967L1494 961.847L1513.6 975.847L1522.32 978.167L1536.24 975.287L1550 971.767L1558 972.247L1567.68 974.567L1615.68 984.487L1628.48 983.287L1632.8 982.887" stroke="#C8C8C8" stroke-width="1.92" stroke-miterlimit="10" stroke-linejoin="round"/>
<path d="M1427.28 903.127L1432.8 912.007L1442.8 923.207L1460.88 936.727L1469.28 942.967" stroke="#C8C8C8" stroke-width="1.92" stroke-miterlimit="10" stroke-linejoin="round"/>
<path d="M1659.04 954.647L1651.84 967.127L1645.52 975.527L1638.24 980.727L1632.8 982.887" stroke="#C8C8C8" stroke-width="1.92" stroke-miterlimit="10" stroke-linejoin="round"/>
<path d="M1734.72 867.047L1714.08 883.047L1710.88 886.407C1703.34 897.143 1706.49 899.351 1703.36 910.087L1701.6 914.327L1697.68 918.887L1692.32 921.687L1682.72 924.407L1675.52 929.607L1669.04 937.287L1659.04 954.647" stroke="#C8C8C8" stroke-width="1.92" stroke-miterlimit="10" stroke-linejoin="round"/>
<path d="M2029.84 1837.29L2062.48 1805.77L2079.68 1789.21L2085.92 1782.97L2091.2 1778.73L2097.2 1775.85L2125.44 1765.93" stroke="#C8C8C8" stroke-width="1.92" stroke-miterlimit="10" stroke-linejoin="round"/>
<path d="M1868.48 2097.21L1868.8 2099.61L1869.28 2101.13C1870.15 2104.75 1872.74 2107.76 1875.68 2109.93L1877.04 2110.73L1878.8 2111.53L1880.72 2112.33L1882.32 2112.97L1927.76 2130.25L1937.76 2134.09L1941.28 2135.53L1944.24 2137.37L1946.96 2139.29L1950.32 2142.01L1979.28 2165.69" stroke="#C8C8C8" stroke-width="1.92" stroke-miterlimit="10" stroke-linejoin="round"/>
<path d="M1885.36 2009.13L1907.76 1961.53" stroke="#C8C8C8" stroke-width="1.92" stroke-miterlimit="10" stroke-linejoin="round"/>
<path d="M1959.68 1871.05H1960.48L1963.36 1870.81L1966.16 1870.33L1968.8 1869.77L1971.04 1869.05L1974.24 1867.77L1979.36 1865.53L1987.28 1861.77L2011.12 1851.61L2015.52 1849.37L2018.48 1847.61L2021.84 1844.97L2029.84 1837.29" stroke="#C8C8C8" stroke-width="1.92" stroke-miterlimit="10" stroke-linejoin="round"/>
<path d="M1924.8 1864.73L1927.84 1865.29L1949.6 1870.09L1952.24 1870.57L1954.72 1870.89L1957.6 1871.05H1959.68" stroke="#C8C8C8" stroke-width="1.92" stroke-miterlimit="10" stroke-linejoin="round"/>
<path d="M1669.92 1787.05L1667.84 1800.65L1666.72 1805.93L1665.28 1809.93L1662.48 1812.97L1648 1824.01" stroke="#C8C8C8" stroke-width="1.92" stroke-miterlimit="10" stroke-linejoin="round"/>
<path d="M1669.92 1787.05V1786.89L1671.92 1770.73L1672.88 1767.53L1674.48 1764.25L1677.76 1761.77L1693.04 1751.85L1702 1745.93L1704.88 1743.69L1706.8 1741.93L1708.32 1739.53V1739.37L1709.28 1735.77L1709.04 1732.89L1708.24 1729.85L1706.8 1726.73L1702.56 1717.61L1699.28 1713.85L1690.08 1707.53" stroke="#C8C8C8" stroke-width="1.92" stroke-miterlimit="10" stroke-linejoin="round"/>
<path d="M1658.48 1534.49L1665.2 1537.61" stroke="#C8C8C8" stroke-width="1.92" stroke-miterlimit="10" stroke-linejoin="round"/>
<path d="M1563.28 1534.89L1563.44 1537.05L1563.84 1538.57L1571.52 1570.65" stroke="#C8C8C8" stroke-width="1.92" stroke-miterlimit="10" stroke-linejoin="round"/>
<path d="M469.44 1344.17L476.48 1337.85L487.92 1328.25L492.08 1323.61L494.64 1319.61L497.52 1314.33L506.32 1298.25L507.76 1293.77L508 1289.61L507.36 1284.65L507.52 1279.37L508.8 1275.05L510.96 1270.65L513.68 1266.97L529.2 1242.89L531.44 1238.25L532.16 1234.73L532.56 1229.45L531.52 1218.01L530.64 1206.09L529.12 1201.37L526.88 1198.49L523.36 1195.61L507.28 1188.25L503.36 1187.13L489.28 1186.09L485.28 1186.25L481.52 1187.69L478.24 1190.41L471.52 1197.69L469.12 1200.09L466.48 1201.69L462.64 1202.49L459.36 1202.33L456.24 1201.21L452.8 1200.01L450 1199.69L446.48 1200.25L440.32 1202.09L435.92 1203.05H431.44L421.52 1202.49" stroke="#C8C8C8" stroke-width="1.92" stroke-miterlimit="10" stroke-linejoin="round"/>
<path d="M497.44 1439.45L486.48 1427.45L481.52 1419.85L478.88 1411.61L474.8 1392.01L473.52 1387.53L470.88 1383.85L466.32 1379.21L461.12 1373.77L457.84 1368.33L457.12 1362.01L458 1357.45L461.28 1351.53L469.44 1344.17" stroke="#C8C8C8" stroke-width="1.92" stroke-miterlimit="10" stroke-linejoin="round"/>
<path d="M542.4 1482.17L541.76 1479.77L540.88 1477.77L539.6 1475.85L537.52 1474.01L534.16 1472.33L526 1468.33L523.12 1466.89L521.68 1465.77L520.64 1464.73L497.44 1439.45" stroke="#C8C8C8" stroke-width="1.92" stroke-miterlimit="10" stroke-linejoin="round"/>
<path d="M1493.04 1858.01L1521.84 1844.33L1526 1842.33L1531.44 1838.49L1542.96 1828.09L1555.44 1818.09" stroke="#C8C8C8" stroke-width="1.92" stroke-miterlimit="10" stroke-linejoin="round"/>
<path d="M1638 1824.89L1643.76 1829.53L1647.2 1831.45L1650.4 1831.69L1655.28 1831.37" stroke="#C8C8C8" stroke-width="1.92" stroke-miterlimit="10" stroke-linejoin="round"/>
<path d="M1555.44 1818.09L1563.92 1814.73L1569.2 1813.85L1605.84 1812.25L1611.84 1812.01L1617.84 1812.65L1623.6 1814.49L1628.8 1817.53L1638 1824.89" stroke="#C8C8C8" stroke-width="1.92" stroke-miterlimit="10" stroke-linejoin="round"/>
<path d="M1770.88 1882.17L1777.6 1883.21L1808.88 1886.81L1811.76 1886.89L1815.84 1886.73L1820.56 1886.09L1876.4 1873.77L1894.72 1869.61L1915.68 1865.13L1918.64 1864.57H1921.76L1924.8 1864.73" stroke="#C8C8C8" stroke-width="1.92" stroke-miterlimit="10" stroke-linejoin="round"/>
<path d="M1715.92 1850.33L1745.12 1868.25L1758 1876.65L1759.68 1877.77L1765.12 1880.33L1770.88 1882.17" stroke="#C8C8C8" stroke-width="1.92" stroke-miterlimit="10" stroke-linejoin="round"/>
<path d="M574.8 1818.65L597.6 1831.21" stroke="#C8C8C8" stroke-width="1.92" stroke-miterlimit="10" stroke-linejoin="round"/>
<path d="M1581.28 1010.25L1560.32 1029.37L1552.96 1035.61" stroke="#C8C8C8" stroke-width="1.92" stroke-miterlimit="10" stroke-linejoin="round"/>
<path d="M597.6 1831.21L599.84 1832.09L602 1831.93L603.92 1830.89L606.88 1828.49L608.96 1827.29L636.24 1816.17L647.52 1811.53L651.68 1809.85L654.32 1809.37L658.24 1809.13" stroke="#C8C8C8" stroke-width="1.92" stroke-miterlimit="10" stroke-linejoin="round"/>
<path d="M705.36 1809.13H658.24" stroke="#C8C8C8" stroke-width="1.92" stroke-miterlimit="10" stroke-linejoin="round"/>
<path d="M848.64 987.687L881.76 976.487L890.08 973.527L896.32 969.687L899.84 966.887L902.96 964.167L912.32 955.767" stroke="#C8C8C8" stroke-width="1.92" stroke-miterlimit="10" stroke-linejoin="round"/>
</svg>
