<svg width="2515" height="2520" viewBox="0 0 2515 2520" fill="none" xmlns="http://www.w3.org/2000/svg">
<path d="M279.76 949.287L262.8 941.527L260.96 940.247L259.36 938.487L257.84 936.087L256.4 934.087L254.4 932.647L251.28 931.127L222.16 919.927L219.28 918.247L217.84 916.807L216.64 914.967" stroke="#CC0000" stroke-width="4.71999" stroke-miterlimit="10" stroke-linejoin="round"/>
<path d="M1541.92 1168.97L1513.2 1143.13" stroke="#CC0000" stroke-width="4.71999" stroke-miterlimit="10" stroke-linejoin="round"/>
<path d="M1418.08 1496.25L1412.88 1490.01L1410.72 1487.77L1408.48 1486.65L1406.08 1485.93L1403.76 1485.85" stroke="#CC0000" stroke-width="4.71999" stroke-miterlimit="10" stroke-linejoin="round"/>
<path d="M1579.84 1459.85L1581.28 1463.53L1583.04 1466.17L1585.92 1469.69L1594.48 1478.73L1604.72 1489.69L1608.24 1493.13" stroke="#CC0000" stroke-width="4.71999" stroke-miterlimit="10" stroke-linejoin="round"/>
<path d="M1145.28 1487.77L1151.28 1489.77L1157.92 1492.01L1161.52 1493.45L1164.8 1495.45L1167.44 1497.61L1171.12 1499.61L1173.92 1500.33" stroke="#CC0000" stroke-width="4.71999" stroke-miterlimit="10" stroke-linejoin="round"/>
<path d="M1195.52 1517.93L1194.24 1510.57L1192.96 1506.81L1191.6 1504.81L1190.4 1503.61L1189.2 1502.89" stroke="#CC0000" stroke-width="4.71999" stroke-miterlimit="10" stroke-linejoin="round"/>
<path d="M2151.04 1774.81L2138.88 1767.13L2134.88 1765.45L2132.4 1764.97L2128.08 1765.05" stroke="#CC0000" stroke-width="4.71999" stroke-miterlimit="10" stroke-linejoin="round"/>
<path d="M1434.72 1890.65L1435.92 1892.33L1437.84 1893.77L1440.08 1894.49L1442.4 1894.41L1444.4 1893.37" stroke="#CC0000" stroke-width="4.71999" stroke-miterlimit="10" stroke-linejoin="round"/>
<path d="M1141.28 655.047L1158.48 687.287L1160.72 692.327L1166.4 706.327L1169.6 714.887L1170.64 717.207L1171.84 719.127L1173.44 721.207L1175.2 722.407L1177.6 723.767L1180.8 724.487L1183.2 725.047L1185.36 726.407L1187.44 728.087L1188.88 729.687L1190.64 732.887L1198.96 747.047L1200.56 750.167L1201.44 752.407L1201.92 754.247L1202.16 756.647L1201.92 759.687L1200.64 769.207L1198.96 783.927L1198.32 786.967L1197.36 790.327L1195.68 793.447L1194.24 795.447L1192.72 797.047L1188.24 800.647" stroke="#CC0000" stroke-width="4.71999" stroke-miterlimit="10" stroke-linejoin="round"/>
<path d="M862.72 558.567L861.6 557.047C860.499 553.806 860.539 550.214 863.28 547.767L866.4 544.567" stroke="#CC0000" stroke-width="4.71999" stroke-miterlimit="10" stroke-linejoin="round"/>
<path d="M392.96 1153.61L393.68 1155.37C395.961 1158.8 397.484 1160.27 401.52 1161.13H403.68" stroke="#CC0000" stroke-width="4.71999" stroke-miterlimit="10" stroke-linejoin="round"/>
<path d="M1845.04 965.127L1837.52 959.127C1831.98 954.811 1823.25 955.202 1818.4 960.407L1814.72 963.927" stroke="#CC0000" stroke-width="4.71999" stroke-miterlimit="10" stroke-linejoin="round"/>
<path d="M1507.92 1479.45L1511.76 1478.01L1514.32 1476.41L1537.92 1458.33L1539.84 1456.33L1541.2 1454.33L1542.48 1451.61L1542.88 1449.85" stroke="#CC0000" stroke-width="4.71999" stroke-miterlimit="10" stroke-linejoin="round"/>
<path d="M601.2 1778.65L636.08 1805.69L638.64 1807.61" stroke="#CC0000" stroke-width="4.71999" stroke-miterlimit="10" stroke-linejoin="round"/>
<path d="M547.28 1577.69L548.48 1597.13L548.64 1601.29L548.96 1604.01L549.36 1605.29" stroke="#CC0000" stroke-width="4.71999" stroke-miterlimit="10" stroke-linejoin="round"/>
<path d="M565.52 1629.05L577.44 1622.97L583.52 1621.45L589.04 1621.61L597.04 1622.57" stroke="#CC0000" stroke-width="4.71999" stroke-miterlimit="10" stroke-linejoin="round"/>
<path d="M677.6 1941.61L657.68 1939.85L655.12 1938.89L652.8 1937.69L648.16 1934.17" stroke="#CC0000" stroke-width="4.71999" stroke-miterlimit="10" stroke-linejoin="round"/>
<path d="M1312.96 612.407L1304.4 577.847" stroke="#CC0000" stroke-width="4.71999" stroke-miterlimit="10" stroke-linejoin="round"/>
<path d="M951.44 1678.65L952 1683.05L950.64 1687.29L948.24 1689.77L945.04 1691.13L941.76 1691.77" stroke="#CC0000" stroke-width="4.71999" stroke-miterlimit="10" stroke-linejoin="round"/>
<path d="M1182.32 986.567L1201.52 1014.65L1206 1020.25L1210.64 1023.21L1217.6 1025.93L1267.92 1041.13L1272.8 1043.53L1276.48 1047.45L1279.36 1053.05L1280.72 1059.77L1288.08 1105.77L1290.24 1113.13L1292.56 1117.29L1295.2 1120.25L1299.04 1123.13L1336.72 1150.65L1340.48 1154.17L1342.32 1158.97L1343.6 1164.01L1346.4 1168.25L1350 1171.05L1355.44 1172.73L1361.52 1171.85" stroke="#CC0000" stroke-width="4.71999" stroke-miterlimit="10" stroke-linejoin="round"/>
<path d="M1428.32 1197.61L1433.52 1196.17L1439.76 1195.37L1446 1196.09L1451.84 1198.41L1456.24 1201.45L1458.08 1202.81" stroke="#CC0000" stroke-width="4.71999" stroke-miterlimit="10" stroke-linejoin="round"/>
<path d="M1471.84 1123.29L1472.88 1116.57L1471.28 1111.29L1466.48 1106.49L1461.2 1104.73" stroke="#CC0000" stroke-width="4.71999" stroke-miterlimit="10" stroke-linejoin="round"/>
<path d="M1555.84 1340.97V1339.45C1556.17 1333.76 1557.66 1332.88 1562.4 1329.93L1576.72 1320.73L1579.92 1317.77L1582.72 1313.69L1610.32 1269.45L1614.72 1262.89L1617.6 1259.93L1621.04 1257.69L1624.4 1256.17L1629.36 1254.25L1649.2 1246.41L1652.96 1244.49L1655.84 1242.41L1658.48 1239.85L1660.96 1236.33L1664.16 1231.13" stroke="#CC0000" stroke-width="4.71999" stroke-miterlimit="10" stroke-linejoin="round"/>
<path d="M1585.28 1528.89L1579.76 1529.69L1576 1532.41L1573.76 1535.61L1572.16 1539.29" stroke="#CC0000" stroke-width="4.71999" stroke-miterlimit="10" stroke-linejoin="round"/>
<path d="M1655.28 1831.37L1643.76 1833.13H1639.44L1637.2 1832.81" stroke="#CC0000" stroke-width="4.71999" stroke-miterlimit="10" stroke-linejoin="round"/>
<path d="M1460.08 943.607L1466.96 954.487L1475.28 963.927L1478.24 966.247L1481.76 966.807L1484.4 966.087L1486 964.647L1487.84 960.807L1487.52 957.607L1485.92 954.887L1484.56 952.967" stroke="#CC0000" stroke-width="4.71999" stroke-miterlimit="10" stroke-linejoin="round"/>
<path d="M1791.92 1493.93L1786.24 1496.73L1782.8 1495.45L1780 1492.33" stroke="#CC0000" stroke-width="4.71999" stroke-miterlimit="10" stroke-linejoin="round"/>
<path d="M1791.44 1846.17L1794.48 1844.33L1797.76 1842.33L1801.36 1840.89L1813.68 1839.05L1815.6 1838.81L1818.8 1838.33L1822.24 1838.57L1825.04 1839.85" stroke="#CC0000" stroke-width="4.71999" stroke-miterlimit="10" stroke-linejoin="round"/>
<path d="M157.04 2099.13L143.6 2086.73L141.92 2084.65L140.48 2082.17L139.68 2079.77L139.76 2077.05V2073.85L140.32 2071.29L141.12 2068.57L147.04 2046.57L150.24 2034.25L151.76 2028.65C153.565 2023.21 154.265 2016.27 157.2 2011.29L161.76 2003.13L170 1988.81L175.76 1978.49L177.44 1975.69C179.783 1970.85 180.865 1967.52 180.24 1962.09L179.84 1958.73L179.2 1956.41C176.911 1950.89 173.42 1945.87 172.8 1939.85L172.72 1937.77L172.8 1935.45L173.04 1933.85L175.76 1904.17L176.08 1901.53L176.48 1899.29C177.26 1896.02 179.723 1891.82 181.92 1889.29L195.04 1874.89L197.36 1872.33C202.312 1867.3 207.551 1866.51 214.08 1863.93L216.56 1862.97L220 1862.01L222.8 1861.85L226.08 1862.01C231.592 1862.31 233.246 1864.21 237.84 1866.57L239.84 1867.37L241.52 1867.93L243.52 1868.49L246 1868.73L258 1870.17L260.48 1870.25L263.6 1870.09L265.68 1869.61L267.68 1869.13L269.92 1868.17L271.44 1867.53L298.24 1855.05" stroke="#CC0000" stroke-width="4.71999" stroke-miterlimit="10" stroke-linejoin="round"/>
<path d="M572.72 1735.69L572.16 1746.89L570.96 1783.21L570.88 1786.25L570.64 1794.97L570.8 1797.53L570.48 1809.29V1812.01L571.12 1814.01L572.64 1816.49L574.8 1818.65" stroke="#CC0000" stroke-width="4.71999" stroke-miterlimit="10" stroke-linejoin="round"/>
<path d="M638.64 1807.61L637.44 1806.57L636.48 1805.21L635.2 1802.41L623.2 1773.77" stroke="#CC0000" stroke-width="4.71999" stroke-miterlimit="10" stroke-linejoin="round"/>
<path d="M658.24 1809.13L645.04 1809.05H642.72L641.2 1808.89L639.68 1808.33L638.64 1807.61" stroke="#CC0000" stroke-width="4.71999" stroke-miterlimit="10" stroke-linejoin="round"/>
<path d="M560.56 1756.65L558.72 1759.21L555.2 1763.13L553.04 1765.53L550.96 1767.85L549.44 1770.01L548.16 1772.73L546.64 1777.13L544.64 1785.05C543.248 1790.24 541.643 1790.99 539.68 1795.37L536.56 1807.85L535.52 1812.09" stroke="#CC0000" stroke-width="4.71999" stroke-miterlimit="10" stroke-linejoin="round"/>
<path d="M503.2 1553.85L510.08 1570.89L510.96 1573.13L512.32 1575.93L513.44 1578.73L534.24 1630.57L536.72 1636.81L537.76 1639.13L538.8 1640.65L539.68 1641.77L540.88 1642.73L542.48 1643.77C545.928 1645.36 548.247 1648.71 549.6 1652.17L549.84 1653.37L550 1655.85" stroke="#CC0000" stroke-width="4.71999" stroke-miterlimit="10" stroke-linejoin="round"/>
<path d="M551.76 1641.93L555.52 1629.77C558.121 1621.52 553.635 1617.06 550.8 1609.05L549.36 1605.29L551.2 1608.73L551.92 1609.53L553.04 1610.57L554.32 1611.53L555.84 1612.33L557.76 1612.97L561.12 1613.85L570.64 1616.33L592.96 1621.85L597.04 1622.57L600.56 1622.89H605.68L609.52 1622.65L613.76 1622.01L645.04 1617.21" stroke="#CC0000" stroke-width="4.71999" stroke-miterlimit="10" stroke-linejoin="round"/>
<path d="M653.92 1292.33L652.16 1290.73C649.881 1288.76 646.3 1284.37 645.92 1281.37L645.04 1277.05" stroke="#CC0000" stroke-width="4.71999" stroke-miterlimit="10" stroke-linejoin="round"/>
<path d="M640 1296.17L641.52 1294.33L641.84 1293.85L643.28 1292.33L645.52 1290.97L647.92 1290.41L650.08 1290.81L653.92 1292.33" stroke="#CC0000" stroke-width="4.71999" stroke-miterlimit="10" stroke-linejoin="round"/>
<path d="M653.92 1292.33L677.68 1312.49L680.32 1314.57L682.8 1316.01L685.04 1317.21L687.52 1318.09L689.84 1319.05L691.6 1320.41L693.84 1322.49L695.92 1326.17L696.8 1329.69L698 1343.61L699.28 1347.85L701.76 1351.53L704.16 1353.77L707.04 1355.45L711.68 1356.49L760.88 1364.33L787.36 1368.49L790.8 1369.05L796.4 1369.29L802.8 1367.69L808.4 1364.17L812.72 1359.13L815.76 1353.21L816.4 1347.29L816.64 1331.85L818.24 1324.73L822 1317.61L827.919 1310.81L834.239 1306.81L841.279 1304.25L849.679 1303.45L857.519 1304.89L935.359 1336.65L941.919 1338.57L950.879 1340.25L986.159 1346.89L990.319 1348.65C999.322 1354.28 1001.94 1359.81 1013.6 1359.37L1018.56 1358.65L1023.84 1356.49L1033.2 1352.97L1037.6 1352.81L1041.2 1353.85L1048.4 1358.25L1053.2 1360.81L1057.2 1361.37L1059.28 1360.97" stroke="#CC0000" stroke-width="4.71999" stroke-miterlimit="10" stroke-linejoin="round"/>
<path d="M325.92 1243.93L332.64 1239.29L342.96 1233.69L353.12 1228.49C367.364 1220.06 370.942 1220.43 386.96 1217.77L390.64 1217.05L394.8 1216.25C416.238 1210.17 435.978 1192.26 457.2 1185.21L461.6 1184.17L466.96 1183.13L471.12 1182.89L474.8 1182.97L517.679 1186.33L522.319 1186.97L526.639 1187.77L530.719 1188.81L535.999 1190.49L564.479 1200.97L568.479 1202.41L571.599 1203.21L573.679 1203.69L576.559 1204.17L581.119 1204.89L585.439 1205.61L588.639 1205.93L591.519 1206.97L594.399 1208.17L596.639 1209.53L600.399 1212.09" stroke="#CC0000" stroke-width="4.71999" stroke-miterlimit="10" stroke-linejoin="round"/>
<path d="M552.64 981.767L549.2 980.167L546.72 978.007L544.64 975.767L542.64 973.367L514.24 931.367L494.08 900.887L492.4 898.407L490.96 896.007L490.08 893.207L489.28 890.407L488.4 885.767L482.64 857.367" stroke="#CC0000" stroke-width="4.71999" stroke-miterlimit="10" stroke-linejoin="round"/>
<path d="M433.84 1084.89L425.28 1083.85L423.2 1083.69L420.24 1083.85L417.12 1084.41L413.52 1085.53L394.8 1090.33L392.56 1090.97L387.76 1092.33L384.72 1093.29C378.268 1094.87 371.032 1094.05 365.36 1090.41L361.84 1088.01L359.28 1085.29" stroke="#CC0000" stroke-width="4.71999" stroke-miterlimit="10" stroke-linejoin="round"/>
<path d="M382.24 1173.61L384.8 1171.05C389.408 1165.79 391.809 1161.74 392.96 1154.81V1151.93L392.8 1148.09C392.032 1142.89 389.741 1137.59 386 1133.85L379.2 1126.49L377.28 1124.33L375.52 1121.53L374.16 1119.05L372.72 1116.17L370.08 1110.17L362.88 1094.17L361.44 1090.01L359.28 1085.29L356.4 1078.81L352.4 1069.69L345.36 1052.97L344.32 1050.57L342.88 1048.25L340.72 1045.93L337.52 1044.25L333.12 1042.09L267.92 1014.49L265.44 1013.37L262.24 1011.69L259.28 1009.61L257.6 1007.53L256.08 1005.37L253.6 1000.49L246.08 982.408L216.64 914.968" stroke="#CC0000" stroke-width="4.71999" stroke-miterlimit="10" stroke-linejoin="round"/>
<path d="M251.28 931.127L281.68 942.887L286.24 944.327L290.4 945.047L294.56 945.287L299.12 945.367L303.52 945.047L307.92 944.327L310.16 943.767L314.16 942.647L346.88 932.087L350.88 930.967L354.4 930.807L358.4 931.207L361.76 932.007L365.2 933.607L400.96 960.567L404.48 962.647L408.08 964.647L411.52 965.767L414.88 966.087H420.32L423.68 965.767L427.28 965.047L430.24 963.847L433.76 962.007L467.04 941.447L469.599 940.167L474.399 938.487L477.919 937.687L550.879 923.127L553.999 922.487L555.839 921.847L557.439 920.727L559.359 919.287L561.199 917.447L562.719 915.047L563.599 913.047L564.239 911.207L564.559 908.967" stroke="#CC0000" stroke-width="4.71999" stroke-miterlimit="10" stroke-linejoin="round"/>
<path d="M532.08 311.527L524.16 292.807C512.961 271.546 524.095 245.402 546.08 237.047L563.2 231.527" stroke="#CC0000" stroke-width="4.71999" stroke-miterlimit="10" stroke-linejoin="round"/>
<path d="M567.68 881.127L567.04 888.487L566.8 894.247L567.36 897.927L568.4 901.047L570.72 904.647L573.2 907.127L576.48 909.047L580.16 910.407L599.52 915.847L642.08 928.247L658 932.807L661.6 933.607L666.56 933.927L671.68 933.847L698.48 931.527H702.32L705.44 931.767L708 932.407L710.48 933.367L712.56 934.407L714.48 935.767L717.44 938.407" stroke="#CC0000" stroke-width="4.71999" stroke-miterlimit="10" stroke-linejoin="round"/>
<path d="M570.48 553.687L570.4 557.607C571.336 566.772 579.593 571.608 588.32 570.167L590.72 569.607" stroke="#CC0000" stroke-width="4.71999" stroke-miterlimit="10" stroke-linejoin="round"/>
<path d="M1376 305.687L1374.96 296.727L1375.04 293.047L1375.52 290.967L1375.68 289.447L1375.76 287.847L1370.88 247.847L1370.64 247.047L1369.84 245.767L1368.64 244.087L1367.12 243.207L1365.12 242.567L1362.64 242.407L1359.36 242.167L1356.8 241.447L1355.2 239.847L1354.24 238.567L1353.52 236.487V234.007L1357.04 216.647" stroke="#CC0000" stroke-width="4.71999" stroke-miterlimit="10" stroke-linejoin="round"/>
<path d="M1395.92 459.847L1382.72 444.727L1381.36 441.927L1381.92 438.887L1383.2 436.007L1386.72 427.847L1386.96 424.407L1385.76 421.127L1383.28 417.607L1370.64 398.327L1369.84 396.727L1369.2 395.367L1368.72 393.767L1368.4 392.087L1368.32 389.927L1368.56 387.687L1372.48 368.407L1374.08 360.887L1375.12 356.167C1376.87 345.823 1377.77 333.537 1377.52 323.047L1377.44 321.047L1377.04 314.487L1377.36 315.927L1378 317.447C1379.3 320.654 1382.97 322.983 1386.4 323.127H1388L1431.12 322.487C1434.71 322.465 1437.58 319.67 1438.4 316.407L1438.56 314.727V313.207L1431.52 290.407" stroke="#CC0000" stroke-width="4.71999" stroke-miterlimit="10" stroke-linejoin="round"/>
<path d="M1433.36 332.487L1438.8 328.807C1442.94 324.738 1440.64 319.81 1439.12 315.207L1438.56 313.207" stroke="#CC0000" stroke-width="4.71999" stroke-miterlimit="10" stroke-linejoin="round"/>
<path d="M1356.88 334.007L1350.08 333.527L1347.52 332.967L1344.56 331.447L1342.16 329.527L1341.44 328.647L1327.84 309.927L1325.68 307.447L1323.12 305.287L1322.72 305.127C1319.08 302.642 1315.74 301.735 1311.36 302.327L1308.64 303.207L1281.52 315.687" stroke="#CC0000" stroke-width="4.71999" stroke-miterlimit="10" stroke-linejoin="round"/>
<path d="M1793.52 1411.13L1783.44 1396.25L1781.92 1394.41L1780.08 1392.89L1777.76 1391.61L1775.28 1390.41L1771.28 1388.73L1768.16 1387.21L1765.2 1385.45L1761.52 1382.57L1757.6 1379.21L1751.44 1374.41L1745.2 1370.41" stroke="#CC0000" stroke-width="4.71999" stroke-miterlimit="10" stroke-linejoin="round"/>
<path d="M1474.96 1568.01L1497.2 1565.85C1502.82 1565.03 1510.44 1559.64 1513.6 1555.05L1543.04 1517.77L1546.88 1514.57L1551.6 1511.13L1556.56 1508.17L1587.2 1491.45L1589.36 1490.57L1591.44 1490.25L1593.6 1490.33L1595.6 1490.81L1597.28 1491.69L1621.2 1509.21L1639.44 1522.49L1640.64 1523.61L1641.6 1524.73L1643.6 1529.21L1643.84 1531.37V1533.37L1643.6 1535.21L1643.12 1536.97" stroke="#CC0000" stroke-width="4.71999" stroke-miterlimit="10" stroke-linejoin="round"/>
<path d="M1639.44 1522.49L1642.4 1524.65L1648.8 1529.29L1651.2 1530.89L1654.24 1532.49L1658.48 1534.49" stroke="#CC0000" stroke-width="4.71999" stroke-miterlimit="10" stroke-linejoin="round"/>
<path d="M1555.44 1818.09L1552.32 1821.21L1551.12 1824.25L1553.68 1833.61L1555.84 1836.81L1559.76 1837.85L1578.64 1837.69" stroke="#CC0000" stroke-width="4.71999" stroke-miterlimit="10" stroke-linejoin="round"/>
<path d="M1472.16 1869.69L1474.48 1868.65L1477.36 1868.73L1480.08 1869.85L1482 1871.93L1482.48 1874.89" stroke="#CC0000" stroke-width="4.71999" stroke-miterlimit="10" stroke-linejoin="round"/>
<path d="M1075.44 1813.85L1097.84 1830.73L1100.72 1834.49L1102.08 1838.97L1102.56 1846.09" stroke="#CC0000" stroke-width="4.71999" stroke-miterlimit="10" stroke-linejoin="round"/>
<path d="M1836.56 1703.21L1830 1686.73L1829.6 1684.41L1829.68 1682.49L1830.24 1680.57L1831.2 1679.21L1832.08 1678.41" stroke="#CC0000" stroke-width="4.71999" stroke-miterlimit="10" stroke-linejoin="round"/>
<path d="M1846.48 1725.77L1840.48 1743.29L1840.16 1744.41L1839.28 1749.05L1838.96 1752.25L1838.88 1755.69V1757.93L1839.2 1759.21L1840.08 1760.97C1842.79 1764.51 1847.85 1764.35 1851.36 1766.81L1852.96 1767.77L1854.96 1769.77" stroke="#CC0000" stroke-width="4.71999" stroke-miterlimit="10" stroke-linejoin="round"/>
<path d="M2060.88 1807.29L2062.72 1803.05L2063.04 1799.77L2059.92 1767.05" stroke="#CC0000" stroke-width="4.71999" stroke-miterlimit="10" stroke-linejoin="round"/>
<path d="M1730.08 1964.09L1737.92 1952.65L1739.2 1949.45L1739.28 1945.93L1739.12 1939.21L1739.44 1936.73L1740.56 1930.41L1745.84 1898.01L1746.48 1895.85L1747.92 1893.13L1750.08 1890.25L1752.64 1887.61L1756 1885.21L1760 1883.37L1764.4 1882.65L1770.88 1882.17" stroke="#CC0000" stroke-width="4.71999" stroke-miterlimit="10" stroke-linejoin="round"/>
<path d="M862.72 558.567L860.24 556.807L856.64 555.447L852.72 555.367L845.2 557.047" stroke="#CC0000" stroke-width="4.71999" stroke-miterlimit="10" stroke-linejoin="round"/>
<path d="M1373.36 1687.61L1374.8 1691.77L1374.4 1696.89L1374.16 1705.13" stroke="#CC0000" stroke-width="4.71999" stroke-miterlimit="10" stroke-linejoin="round"/>
<path d="M757.04 982.327L780.32 1008.17" stroke="#CC0000" stroke-width="4.71999" stroke-miterlimit="10" stroke-linejoin="round"/>
<path d="M780.32 1008.17L786.24 1014.65L788.4 1017.13L790.4 1019.61L792.64 1023.05L794.96 1027.13L797.12 1031.53L799.2 1036.41L800.48 1039.93L801.36 1043.85L802.08 1047.45L802.64 1051.21L803.52 1060.33L804.16 1067.05L804.96 1075.69L805.6 1081.93L806.16 1086.17C808.976 1107.93 828.827 1123.54 834.96 1145.13L835.92 1148.01L874.64 1330.73" stroke="#CC0000" stroke-width="4.71999" stroke-miterlimit="10" stroke-linejoin="round"/>
<path d="M845.12 1460.97L868.24 1429.69L873.52 1422.65L876.56 1416.33L877.28 1410.49L876 1398.25" stroke="#CC0000" stroke-width="4.71999" stroke-miterlimit="10" stroke-linejoin="round"/>
<path d="M1279.36 1659.29L1265.84 1658.33L1262.56 1657.53L1258.16 1656.17L1254.8 1654.25L1233.12 1637.69L1229.6 1634.49L1227.36 1631.37L1226.24 1628.57L1224.16 1623.29L1221.84 1618.97L1219.68 1616.49L1216 1613.13L1214.08 1609.77L1212.64 1605.45L1211.76 1600.97L1197.76 1530.17" stroke="#CC0000" stroke-width="4.71999" stroke-miterlimit="10" stroke-linejoin="round"/>
<path d="M1195.52 1517.93L1195.92 1513.45L1197.28 1510.65L1199.84 1509.05L1202.88 1508.25L1207.92 1509.45" stroke="#CC0000" stroke-width="4.71999" stroke-miterlimit="10" stroke-linejoin="round"/>
<path d="M1197.76 1530.17L1197.52 1529.21L1195.52 1517.93" stroke="#CC0000" stroke-width="4.71999" stroke-miterlimit="10" stroke-linejoin="round"/>
<path d="M1145.28 1487.77L1158.48 1490.57C1166.5 1492.29 1176.37 1490.81 1181.44 1498.81L1191.04 1512.57L1193.6 1517.77L1196 1525.61L1196.96 1528.57L1197.76 1530.17" stroke="#CC0000" stroke-width="4.71999" stroke-miterlimit="10" stroke-linejoin="round"/>
<path d="M1374.16 1705.13L1376.48 1701.77L1379.6 1699.21L1383.36 1697.45L1386.96 1696.41L1392.8 1696.01L1396 1696.33" stroke="#CC0000" stroke-width="4.71999" stroke-miterlimit="10" stroke-linejoin="round"/>
<path d="M1434.72 1890.65L1433.12 1888.17L1430.8 1886.25L1400.88 1872.57L1397.44 1870.49L1394.56 1867.77L1392.24 1864.49L1390.48 1860.41L1386.08 1847.93L1384 1844.33L1381.04 1841.45L1377.52 1839.29L1360.8 1829.21L1357.6 1826.97L1355.12 1824.01L1353.6 1820.41L1352.56 1814.57L1348.4 1783.85L1348.16 1780.17L1348.32 1776.49L1349.36 1772.97L1367.36 1724.33L1374.16 1705.13" stroke="#CC0000" stroke-width="4.71999" stroke-miterlimit="10" stroke-linejoin="round"/>
<path d="M1430.64 1900.81L1432.88 1899.61L1435.04 1896.89L1435.52 1893.45L1434.72 1890.65" stroke="#CC0000" stroke-width="4.71999" stroke-miterlimit="10" stroke-linejoin="round"/>
<path d="M1405.92 1936.57L1404.32 1919.45L1404.48 1915.61L1405.44 1911.13L1408.08 1906.33L1412.4 1904.25L1415.52 1903.37" stroke="#CC0000" stroke-width="4.71999" stroke-miterlimit="10" stroke-linejoin="round"/>
<path d="M1757.04 1878.41L1724 1895.21" stroke="#CC0000" stroke-width="4.71999" stroke-miterlimit="10" stroke-linejoin="round"/>
<path d="M1715.92 1850.33L1718.48 1851.05L1726.56 1852.17L1735.12 1850.97L1794.08 1842.01L1801.36 1840.89" stroke="#CC0000" stroke-width="4.71999" stroke-miterlimit="10" stroke-linejoin="round"/>
<path d="M1830.8 1755.29L1841.44 1746.09L1842.72 1745.21L1843.84 1744.57L1845.52 1743.93L1863.84 1737.53" stroke="#CC0000" stroke-width="4.71999" stroke-miterlimit="10" stroke-linejoin="round"/>
<path d="M1802.8 1794.09L1797.68 1793.05L1791.44 1790.97L1789.2 1790.09" stroke="#CC0000" stroke-width="4.71999" stroke-miterlimit="10" stroke-linejoin="round"/>
<path d="M1864.56 1798.89L1861.36 1797.61C1851.48 1794.14 1839.44 1795.05 1829.28 1795.21H1807.84L1802.8 1794.09" stroke="#CC0000" stroke-width="4.71999" stroke-miterlimit="10" stroke-linejoin="round"/>
<path d="M2346.8 1893.85L2357.2 1901.85C2361.19 1904.54 2362.49 1908.58 2360.8 1913.05L2352.4 1930.65" stroke="#CC0000" stroke-width="4.71999" stroke-miterlimit="10" stroke-linejoin="round"/>
<path d="M2170.48 1816.57L2180.24 1842.01L2181.76 1845.61L2184.08 1848.97L2186.56 1851.85L2191.84 1857.29L2205.76 1870.97L2209.44 1873.29L2213.04 1875.05L2216.96 1875.93L2222.72 1876.17L2226.32 1875.85L2229.44 1875.13L2232.72 1873.93L2293.04 1853.69L2298.72 1852.25L2302.08 1852.17L2305.76 1852.65L2309.52 1854.49L2313.36 1857.21L2315.92 1860.33L2319.36 1865.29L2328.32 1878.33L2330 1880.57L2331.92 1882.57L2336 1885.69L2346.8 1893.85" stroke="#CC0000" stroke-width="4.71999" stroke-miterlimit="10" stroke-linejoin="round"/>
<path d="M1847.76 1853.85L1825.04 1839.85" stroke="#CC0000" stroke-width="4.71999" stroke-miterlimit="10" stroke-linejoin="round"/>
<path d="M1868.48 2097.21L1863.68 2143.13L1855.28 2222.41L1854.24 2233.29L1853.76 2235.61L1852.72 2237.61L1851.36 2239.69L1848.64 2241.77L1839.28 2245.45" stroke="#CC0000" stroke-width="4.71999" stroke-miterlimit="10" stroke-linejoin="round"/>
<path d="M1789.2 1790.09L1782.24 1783.13L1762.88 1762.81L1760.32 1759.69L1758.48 1756.73L1740.4 1727.45L1738.08 1724.25L1735.12 1721.69L1731.76 1719.61L1727.76 1718.17L1717.84 1715.29L1690.08 1707.53" stroke="#CC0000" stroke-width="4.71999" stroke-miterlimit="10" stroke-linejoin="round"/>
<path d="M1418.08 1496.25L1418 1494.01L1418.64 1490.65L1420.4 1488.41L1422.72 1486.65L1431.36 1484.17" stroke="#CC0000" stroke-width="4.71999" stroke-miterlimit="10" stroke-linejoin="round"/>
<path d="M1428.32 1672.09L1425.44 1636.81L1425.76 1633.29L1426.64 1629.85L1427.92 1626.57L1433.68 1614.25L1434.8 1610.89L1435.52 1607.37L1435.76 1603.37L1435.36 1599.85L1434.24 1596.57L1432.8 1593.37L1430.32 1589.85L1420.96 1577.37L1419.12 1573.77L1418.24 1570.25L1417.76 1566.01L1418.08 1561.29L1423.52 1512.97L1423.84 1506.89L1423.2 1502.81L1420.32 1498.97L1418.08 1496.25" stroke="#CC0000" stroke-width="4.71999" stroke-miterlimit="10" stroke-linejoin="round"/>
<path d="M1788.24 1128.49L1800.16 1116.65L1801.68 1115.29L1803.52 1113.85L1805.28 1112.89L1807.52 1112.09L1810.64 1111.45L1844.8 1105.93L1850.08 1105.21L1853.28 1104.49L1856.08 1103.13L1858.4 1101.37L1859.92 1100.09L1861.44 1098.17L1862.4 1096.49L1869.28 1079.37L1870.16 1077.05L1871.44 1074.25L1872.4 1072.25L1873.76 1070.17L1876.96 1066.17L1879.52 1062.73L1880.48 1060.73L1884 1049.69" stroke="#CC0000" stroke-width="4.71999" stroke-miterlimit="10" stroke-linejoin="round"/>
<path d="M1700.48 1183.93L1682.56 1197.53L1678.24 1201.53L1675.04 1207.05L1671.12 1215.77" stroke="#CC0000" stroke-width="4.71999" stroke-miterlimit="10" stroke-linejoin="round"/>
<path d="M1686.16 1521.69L1660.96 1519.69C1638.95 1518.85 1626.79 1505.2 1609.36 1493.93L1608.24 1493.13L1604.48 1490.49L1600.8 1488.01L1597.36 1486.01L1593.6 1484.01L1590.4 1482.49L1588.8 1481.85L1581.6 1478.73L1579.12 1477.77C1573.91 1475.99 1570.38 1475.65 1564.88 1475.93L1558.8 1476.25L1554.88 1476.49" stroke="#CC0000" stroke-width="4.71999" stroke-miterlimit="10" stroke-linejoin="round"/>
<path d="M1433.36 332.487L1414.8 338.967C1401.1 344.3 1398.88 342.595 1383.28 340.087L1348.72 334.247" stroke="#CC0000" stroke-width="4.71999" stroke-miterlimit="10" stroke-linejoin="round"/>
<path d="M1620.32 986.327L1624.32 986.167L1634.72 987.767L1662.72 992.327C1686.63 995.695 1693.57 1014.88 1720.8 1013.85L1728.24 1013.61L1733.92 1012.49L1761.36 1006.25L1773.92 1003.21L1779.28 1001.13L1784.16 998.647L1788 996.007L1791.44 993.367L1794.64 990.327L1797.6 986.807L1801.92 981.047L1814.72 963.927" stroke="#CC0000" stroke-width="4.71999" stroke-miterlimit="10" stroke-linejoin="round"/>
<path d="M1871.6 888.407L1888.48 866.007L1891.28 860.807L1894.08 851.767L1900.16 822.167L1902.56 815.447L1907.76 807.047L1914.4 799.767L1927.92 788.087" stroke="#CC0000" stroke-width="4.71999" stroke-miterlimit="10" stroke-linejoin="round"/>
<path d="M1814.72 963.927L1832.72 940.087L1851.52 915.047" stroke="#CC0000" stroke-width="4.71999" stroke-miterlimit="10" stroke-linejoin="round"/>
<path d="M1531.04 1135.05L1530.56 1137.69V1140.17L1532.08 1148.25L1534.08 1156.17L1536.08 1160.65L1538.32 1164.73L1541.92 1168.97" stroke="#CC0000" stroke-width="4.71999" stroke-miterlimit="10" stroke-linejoin="round"/>
<path d="M1581.28 1010.25L1577.52 1015.93C1570.31 1029.56 1576.53 1027.32 1574.32 1039.05L1573.36 1043.53L1573.68 1048.17L1574.96 1052.89L1577.2 1057.29L1582.4 1064.09L1584.4 1067.13L1585.44 1070.81L1585.28 1075.69L1583.68 1079.69L1580.88 1083.05L1532.96 1132.49L1531.04 1135.05" stroke="#CC0000" stroke-width="4.71999" stroke-miterlimit="10" stroke-linejoin="round"/>
<path d="M1125.6 1378.41L1124.48 1370.09L1123.68 1365.37L1121.92 1360.89L1119.36 1356.89L1115.44 1353.21L1111.04 1350.65L1105.6 1348.97L1099.2 1347.93L1093.68 1347.77L1078.88 1350.41" stroke="#CC0000" stroke-width="4.71999" stroke-miterlimit="10" stroke-linejoin="round"/>
<path d="M1145.28 1487.77L1134.56 1485.45L1133.28 1484.97L1128.64 1482.81L1125.12 1479.85L1122.48 1476.17C1111.83 1457.87 1111.65 1450.46 1125.76 1434.57L1128.16 1430.89L1129.68 1426.41L1130.72 1421.77L1130.88 1417.29L1129.6 1407.69L1125.6 1378.41" stroke="#CC0000" stroke-width="4.71999" stroke-miterlimit="10" stroke-linejoin="round"/>
<path d="M1686.16 1521.69L1689.76 1521.29L1697.52 1520.33L1713.92 1517.93L1726.16 1515.13L1731.92 1514.41L1757.76 1510.73L1767.6 1509.29L1773.04 1507.13L1778.96 1501.29L1780 1492.33" stroke="#CC0000" stroke-width="4.71999" stroke-miterlimit="10" stroke-linejoin="round"/>
<path d="M1592.48 1529.21L1604 1529.77L1613.84 1530.17L1618.56 1530.09L1621.6 1529.93L1626.88 1529.29L1656.24 1525.13L1665.04 1523.85L1670.96 1523.29L1679.92 1522.41L1686.16 1521.69" stroke="#CC0000" stroke-width="4.71999" stroke-miterlimit="10" stroke-linejoin="round"/>
<path d="M1585.28 1528.89L1592.48 1529.21" stroke="#CC0000" stroke-width="4.71999" stroke-miterlimit="10" stroke-linejoin="round"/>
<path d="M1585.28 1528.89L1578.4 1528.65L1573.68 1528.17L1571.2 1526.97L1568.4 1524.81L1566.16 1521.53L1564.48 1517.93L1563.36 1514.97L1561.12 1511.05" stroke="#CC0000" stroke-width="4.71999" stroke-miterlimit="10" stroke-linejoin="round"/>
<path d="M1791.92 1493.93L1803.76 1481.05" stroke="#CC0000" stroke-width="4.71999" stroke-miterlimit="10" stroke-linejoin="round"/>
<path d="M1786.08 1511.77L1785.76 1507.37L1787.28 1501.29L1788.96 1497.45L1791.6 1494.25L1791.92 1493.93" stroke="#CC0000" stroke-width="4.71999" stroke-miterlimit="10" stroke-linejoin="round"/>
<path d="M1652.64 1268.57L1643.44 1242.57L1642.32 1240.49C1639.89 1233.92 1629.18 1225.65 1622.48 1224.41L1619.36 1223.61L1616.96 1223.21C1605.94 1222.47 1598.55 1219.8 1590.24 1212.25L1572.16 1196.17L1541.92 1168.97" stroke="#CC0000" stroke-width="4.71999" stroke-miterlimit="10" stroke-linejoin="round"/>
<path d="M1510.16 1140.41L1514.32 1141.77L1518.96 1142.09L1524 1140.49L1528.24 1137.53L1531.04 1135.05" stroke="#CC0000" stroke-width="4.71999" stroke-miterlimit="10" stroke-linejoin="round"/>
<path d="M1501.84 1208.09L1501.36 1200.17L1501.92 1192.97L1504.4 1184.09L1509.28 1173.61L1516.32 1160.17L1517.84 1153.61L1516.48 1148.01L1513.2 1143.13" stroke="#CC0000" stroke-width="4.71999" stroke-miterlimit="10" stroke-linejoin="round"/>
<path d="M1461.2 1104.73L1457.2 1104.01L1449.28 1102.25L1442.4 1097.85L1436.96 1091.77L1412.64 1052.49" stroke="#CC0000" stroke-width="4.71999" stroke-miterlimit="10" stroke-linejoin="round"/>
<path d="M1490.24 1122.49L1480.4 1113.69L1478.48 1111.93L1475.04 1109.45L1470.32 1106.97L1465.2 1105.37L1461.2 1104.73" stroke="#CC0000" stroke-width="4.71999" stroke-miterlimit="10" stroke-linejoin="round"/>
<path d="M1510.16 1140.41L1499.28 1130.65L1490.24 1122.49" stroke="#CC0000" stroke-width="4.71999" stroke-miterlimit="10" stroke-linejoin="round"/>
<path d="M1428.32 1197.61L1432.88 1195.29L1437.44 1190.89L1449.44 1178.25L1453.52 1171.61" stroke="#CC0000" stroke-width="4.71999" stroke-miterlimit="10" stroke-linejoin="round"/>
<path d="M1471.84 1123.29L1474.88 1120.41L1479.36 1119.29L1485.04 1120.25L1490.24 1122.49" stroke="#CC0000" stroke-width="4.71999" stroke-miterlimit="10" stroke-linejoin="round"/>
<path d="M1453.52 1171.61L1471.84 1123.29" stroke="#CC0000" stroke-width="4.71999" stroke-miterlimit="10" stroke-linejoin="round"/>
<path d="M1452.4 1193.69L1449.76 1186.73L1450.08 1181.85L1453.52 1171.61" stroke="#CC0000" stroke-width="4.71999" stroke-miterlimit="10" stroke-linejoin="round"/>
<path d="M1388 1208.57L1428.32 1197.61" stroke="#CC0000" stroke-width="4.71999" stroke-miterlimit="10" stroke-linejoin="round"/>
<path d="M798.08 568.647L795.52 569.927L793.84 571.207L792.56 573.047L792 574.407L791.52 576.807L794.8 606.167L799.6 658.807L803.52 709.767L804.08 718.647L803.68 724.727L802.72 730.887L801.44 736.327L799.28 742.647L796.8 747.927L794.16 752.327L791.76 756.167L789.68 758.886L787.04 761.766L784.48 764.646L781.2 767.366L778.88 769.286L776.8 770.806L774 772.566L771.2 774.406L768 777.046L764.32 780.566L760.08 785.126L757.2 788.726L753.52 793.926L729.2 836.966" stroke="#CC0000" stroke-width="4.71999" stroke-miterlimit="10" stroke-linejoin="round"/>
<path d="M211.36 902.807L199.44 875.447" stroke="#CC0000" stroke-width="4.71999" stroke-miterlimit="10" stroke-linejoin="round"/>
<path d="M216.64 914.967L216.48 914.487L211.36 902.807" stroke="#CC0000" stroke-width="4.71999" stroke-miterlimit="10" stroke-linejoin="round"/>
<path d="M862.72 558.567L864.32 560.567L865.6 562.647L866.24 564.327C868.443 573.34 864.444 573.526 858.96 580.807L858 582.007L856.64 584.087C853.043 589.862 852.364 596.808 852.8 603.447L853.52 610.487L854 615.047L854.08 620.247L854 623.367C853.739 633.18 844.925 638.472 839.68 645.767L837.68 648.087L835.6 650.967L834.16 653.527L832.56 656.887L832 659.687L831.92 662.807L831.6 677.767L831.52 681.767L831.12 685.527L829.76 689.607L793.04 758.487L791.44 761.527L789.76 764.087C787.42 767.451 780.223 771.965 776.48 773.527L774.24 774.807L771.52 776.887C767.048 781.899 760.364 789.417 757.68 795.446L756.88 798.726L756.32 801.926L754.8 830.886L754.4 836.086C754.44 840.488 755.755 845.237 759.36 848.086L761.76 849.846L765.04 851.446C770.03 852.384 775.562 852.317 780.64 853.446L782.88 854.086L784.96 854.966L797.04 860.966" stroke="#CC0000" stroke-width="4.71999" stroke-miterlimit="10" stroke-linejoin="round"/>
<path d="M892.72 523.607L900.64 520.167L909.2 520.807L940.64 529.847L944.8 532.327L947.36 536.407L952.24 564.407" stroke="#CC0000" stroke-width="4.71999" stroke-miterlimit="10" stroke-linejoin="round"/>
<path d="M1377.04 314.487L1376 305.687" stroke="#CC0000" stroke-width="4.71999" stroke-miterlimit="10" stroke-linejoin="round"/>
<path d="M1111.92 618.487L1109.36 613.207L1108.16 609.207L1107.6 606.167L1108.72 602.727L1110.88 600.327C1119.49 593.823 1132.08 594.604 1140 601.927L1151.44 612.727" stroke="#CC0000" stroke-width="4.71999" stroke-miterlimit="10" stroke-linejoin="round"/>
<path d="M1835.12 1836.09L1832.96 1836.73L1830 1836.97L1824.16 1836.17L1818.64 1834.01L1816.08 1832.49C1810.63 1828.63 1808.58 1824.24 1808.24 1817.77L1808.08 1814.73" stroke="#CC0000" stroke-width="4.71999" stroke-miterlimit="10" stroke-linejoin="round"/>
<path d="M1825.04 1839.85L1821.84 1837.53L1819.92 1835.37L1818.64 1834.01" stroke="#CC0000" stroke-width="4.71999" stroke-miterlimit="10" stroke-linejoin="round"/>
<path d="M1835.12 1836.09L1837.44 1835.13L1839.2 1834.09L1853.44 1823.21" stroke="#CC0000" stroke-width="4.71999" stroke-miterlimit="10" stroke-linejoin="round"/>
<path d="M1835.12 1836.09L1832.96 1836.57L1830.24 1836.25L1827.12 1835.37L1824.56 1834.25L1822.64 1833.21L1819.84 1830.33L1818.08 1827.37L1819.84 1831.69L1822.16 1836.17L1825.04 1839.85" stroke="#CC0000" stroke-width="4.71999" stroke-miterlimit="10" stroke-linejoin="round"/>
<path d="M1802.8 1794.09L1808.56 1796.81L1810.72 1800.25L1811.84 1803.85L1816.72 1824.17L1818.08 1827.37" stroke="#CC0000" stroke-width="4.71999" stroke-miterlimit="10" stroke-linejoin="round"/>
<path d="M1789.2 1790.09L1788 1789.61L1785.12 1788.33L1782 1787.61L1778.08 1787.53L1773.76 1787.21L1770.4 1786.41L1754.88 1781.13L1751.28 1779.85L1748.72 1779.29H1746.16L1743.12 1780.41L1737.28 1782.01L1730.64 1784.09L1727.68 1784.49C1713.38 1785.89 1701.38 1772.77 1703.52 1758.57L1704 1756.17L1708.32 1739.53" stroke="#CC0000" stroke-width="4.71999" stroke-miterlimit="10" stroke-linejoin="round"/>
<path d="M1573.68 1528.17L1571.28 1527.85L1568.96 1528.09L1566.8 1529.21L1565.12 1530.89L1563.84 1532.89L1563.28 1534.89" stroke="#CC0000" stroke-width="4.71999" stroke-miterlimit="10" stroke-linejoin="round"/>
<path d="M876 1398.25L880 1408.09L882.56 1414.33L884.56 1420.81L913.6 1541.29" stroke="#CC0000" stroke-width="4.71999" stroke-miterlimit="10" stroke-linejoin="round"/>
<path d="M874.64 1330.73L877.28 1343.37L878 1349.77L877.52 1356.25L876.64 1363.45L874.64 1380.33V1389.29L876 1398.25" stroke="#CC0000" stroke-width="4.71999" stroke-miterlimit="10" stroke-linejoin="round"/>
<path d="M1513.2 1143.13L1510.16 1140.41" stroke="#CC0000" stroke-width="4.71999" stroke-miterlimit="10" stroke-linejoin="round"/>
<path d="M1511.44 1290.17L1514.24 1293.69L1530.48 1307.53L1532.32 1309.29L1533.36 1310.65L1534.32 1312.17M687.677 1951.61L670.317 1950.25L664.157 1949.29L658.237 1945.85L652.797 1940.65L648.397 1934.57L648.157 1934.17L625.997 1902.89L612.477 1884.25L600.557 1867.69L598.717 1865.29L597.198 1863.53L595.198 1861.29L592.797 1859.05L590.877 1857.37L588.797 1855.69L583.678 1851.29L581.998 1849.93L577.118 1845.93L571.998 1841.69L569.358 1839.37L566.958 1836.57L565.118 1834.17L563.438 1830.65L561.118 1825.93L560.558 1823.53L560.478 1823.05L560.078 1820.89L559.918 1819.61L559.758 1817.37L559.598 1814.57L559.038 1807.21M913.597 1541.29L911.357 1537.53L908.077 1534.25L903.757 1531.45L899.837 1530.41L894.317 1530.33L882.957 1530.81H877.837L874.237 1530.25L870.317 1528.81L867.277 1527.05L863.997 1524.33L857.357 1516.09L853.997 1512.49L851.037 1511.13L847.517 1511.21L830.477 1519.37M586.157 1573.61L587.998 1578.57L589.918 1581.37L591.598 1583.05L594.077 1585.13L609.757 1598.49L625.277 1611.77L627.437 1613.53L629.917 1614.97L633.997 1616.73L636.637 1617.29L640.557 1617.45L645.037 1617.21L662.877 1614.41L676.317 1612.41L680.157 1611.93H684.797L689.357 1612.49L695.277 1614.49L700.237 1617.05L705.517 1621.37L802.717 1705.69L807.997 1709.37L814.957 1712.01L823.597 1713.85L835.837 1716.41L842.077 1716.81L847.757 1716.57L855.517 1714.73L935.997 1693.37L941.757 1691.77L946.877 1691.53L950.877 1691.77L955.837 1692.81L987.756 1701.93M565.518 584.494L566.078 581.854L567.038 576.814L568.158 571.374L569.038 566.254L569.678 562.014L570.478 553.694L572.158 539.854L572.957 533.374L573.758 526.894L573.998 523.374L574.078 519.934L573.998 514.734L573.918 512.494L573.678 510.334L573.358 507.694L572.638 503.534L570.798 497.774L568.398 493.454L565.198 489.534L552.878 477.374L548.798 473.374L548.238 472.734L546.798 471.295L545.358 469.694L542.798 465.935L541.118 462.494L540.158 459.694L539.198 455.774L538.798 451.774V448.014L539.438 443.694L540.318 440.495L541.758 436.814L543.678 433.535L545.918 430.655L556.398 417.935L558.558 415.135L560.398 412.175L562.158 408.095L563.598 403.295L564.078 400.014L564.238 396.655V393.775L563.918 390.735L563.278 387.455L562.078 383.775L559.998 378.255L556.158 368.895L532.078 311.535M717.437 938.413L721.037 942.333L757.037 982.333M1690.07 1707.53L1683.83 1705.77L1677.91 1704.17L1674.31 1702.65L1670.87 1700.01L1667.83 1696.33L1655.19 1675.45M1590.72 1593.29L1574.72 1565.45L1572.48 1559.93L1571.44 1555.21L1571.04 1550.81L1570.96 1546.17L1571.52 1542.25L1572.16 1539.29L1572.8 1535.93L1575.52 1523.29L1576.08 1519.05L1576.56 1513.13L1577.12 1505.77V1502.65L1576.64 1498.33L1575.84 1495.29L1574.4 1491.45L1573.12 1488.89L1571.6 1486.65L1570.08 1484.73L1567.68 1482.25L1565.2 1480.33L1562.72 1478.89L1559.44 1477.53L1554.88 1476.49L1551.52 1476.65L1534.24 1477.77L1507.92 1479.45L1465.52 1482.17L1431.36 1484.17L1403.76 1485.85M1436.32 507.374L1442.8 520.734L1445.44 528.334L1446.4 532.894L1446.72 537.854L1446.88 542.814V548.894L1446.4 552.414L1445.68 555.694L1444.56 560.894L1443.44 564.814L1432.72 594.574L1431.28 598.814L1429.92 604.254L1429.04 611.454L1428.96 623.854L1428.64 645.534L1427.68 718.094L1427.6 725.374L1427.84 732.014L1428.56 738.494L1428.88 744.734L1429.04 750.254L1429.12 756.814M1207.92 1509.45L1199.04 1506.25L1191.68 1503.61L1189.2 1502.89L1184.16 1501.37L1181.12 1500.57L1177.52 1500.33H1173.92L1167.28 1500.25L1162.4 1500.41L1157.92 1501.05L1152.8 1502.33L1146.48 1504.25L1133.28 1508.97L1118.72 1514.33L1111.44 1516.49L1106.88 1516.81L1097.04 1516.57L1087.2 1515.05L1081.76 1513.13L1072.64 1507.93L1063.76 1504.25L1056.16 1502.65L1042.88 1502.17L919.197 1509.21L911.917 1509.13L904.797 1507.69L901.277 1506.49L897.277 1504.57L891.677 1501.45L887.357 1499.77L882.157 1498.49L877.437 1498.17L870.717 1499.05L864.717 1501.05M1542.88 1449.85L1543.52 1447.13L1544.88 1443.53L1546.64 1440.09L1562.96 1407.77L1568.64 1396.57L1569.84 1392.17V1387.69L1568.88 1384.41L1559.92 1352.41L1558.08 1345.93L1555.84 1340.97" stroke="#CC0000" stroke-width="2.79999" stroke-miterlimit="10" stroke-linejoin="round" stroke-dasharray="15.84 5.28"/>
<path d="M1555.84 1340.97L1553.04 1336.25L1549.84 1332.97L1536.32 1322.25L1532 1318.97L1528.32 1315.77L1523.36 1309.93L1518.08 1301.69L1511.44 1290.17L1502.4 1274.25L1464.16 1212.49L1458.08 1202.81M729.197 836.974L705.277 879.133L702.397 884.653L700.557 890.333L699.997 894.813L699.677 901.373L699.997 906.253L700.877 910.893L701.597 913.613L702.717 916.973L704.237 920.253L705.917 923.693L707.757 926.733L709.997 930.093L717.437 938.413M1708.31 1739.53V1739.37L1709.27 1735.77L1709.03 1732.89L1708.23 1729.85L1706.79 1726.73L1702.55 1717.61L1699.27 1713.85L1690.07 1707.53M1403.76 1485.85L1353.36 1488.81L1333.52 1489.93L1329.52 1490.65L1325.2 1491.93L1320.08 1494.09L1314.24 1497.61L1277.6 1521.29L1273.68 1523.53L1269.36 1524.97L1263.68 1525.93L1260.32 1526.09L1256.16 1526.01L1252.24 1525.45L1248.8 1524.41L1217.12 1512.73L1207.92 1509.45" stroke="#CC0000" stroke-width="2.79999" stroke-miterlimit="10" stroke-linejoin="round" stroke-dasharray="15.84 5.28"/>
</svg>
