<svg width="2515" height="2520" viewBox="0 0 2515 2520" fill="none" xmlns="http://www.w3.org/2000/svg">
<path d="M1511.44 1290.17L1514.24 1293.69L1530.48 1307.53L1532.32 1309.29L1533.36 1310.65L1534.32 1312.17" stroke="#C8C8C8" stroke-width="1.92" stroke-miterlimit="10" stroke-linejoin="round"/>
<path d="M648.16 1934.17L648.4 1934.57L652.8 1940.65L658.24 1945.85L664.16 1949.29L670.32 1950.25L687.68 1951.61" stroke="#C8C8C8" stroke-width="1.92" stroke-miterlimit="10" stroke-linejoin="round"/>
<path d="M913.6 1541.29L911.36 1537.53L908.08 1534.25L903.76 1531.45L899.84 1530.41L894.32 1530.33C885.052 1530.15 875.395 1533.07 867.28 1527.05L864 1524.33L857.36 1516.09L854 1512.49L851.04 1511.13L847.52 1511.21L830.48 1519.37" stroke="#C8C8C8" stroke-width="1.92" stroke-miterlimit="10" stroke-linejoin="round"/>
<path d="M559.04 1807.21L559.6 1814.57L559.76 1817.37L559.92 1819.61L560.08 1820.89L560.48 1823.05L560.56 1823.53L561.12 1825.93L563.44 1830.65L565.12 1834.17L566.96 1836.57L569.36 1839.37L572 1841.69L577.12 1845.93L582 1849.93L583.68 1851.29L588.8 1855.69L590.88 1857.37L592.8 1859.05L595.2 1861.29L597.2 1863.53L598.72 1865.29L600.56 1867.69L612.48 1884.25L626 1902.89L648.16 1934.17" stroke="#C8C8C8" stroke-width="1.92" stroke-miterlimit="10" stroke-linejoin="round"/>
<path d="M586.16 1573.61L588 1578.57L589.92 1581.37L591.6 1583.05L594.08 1585.13L609.76 1598.49L625.28 1611.77L627.44 1613.53L629.92 1614.97L634 1616.73L636.64 1617.29L640.56 1617.45L645.04 1617.21" stroke="#C8C8C8" stroke-width="1.92" stroke-miterlimit="10" stroke-linejoin="round"/>
<path d="M565.52 584.487L566.08 581.847L567.04 576.807L568.16 571.367L569.04 566.247L569.68 562.007L570.48 553.687" stroke="#C8C8C8" stroke-width="1.92" stroke-miterlimit="10" stroke-linejoin="round"/>
<path d="M572.96 533.367L573.76 526.887C574.379 519.073 574.248 511.219 572.64 503.527L570.8 497.767L568.4 493.447L565.2 489.527L552.88 477.367L548.8 473.367L548.24 472.727L546.8 471.287L545.36 469.687L542.8 465.927L541.12 462.487C538.773 456.563 538.051 449.933 539.44 443.687L540.32 440.487L541.76 436.807L543.68 433.527L545.92 430.647L556.4 417.927L558.56 415.127L560.4 412.167L562.16 408.087L563.6 403.287L564.08 400.007C564.569 394.533 564.185 388.9 562.08 383.767L560 378.247L556.16 368.887L532.08 311.527" stroke="#C8C8C8" stroke-width="1.92" stroke-miterlimit="10" stroke-linejoin="round"/>
<path d="M570.48 553.687L572.16 539.847L572.96 533.367" stroke="#C8C8C8" stroke-width="1.92" stroke-miterlimit="10" stroke-linejoin="round"/>
<path d="M717.44 938.407L721.04 942.327L757.04 982.327" stroke="#C8C8C8" stroke-width="1.92" stroke-miterlimit="10" stroke-linejoin="round"/>
<path d="M941.76 1691.77L946.88 1691.53L950.88 1691.77L955.84 1692.81L987.76 1701.93" stroke="#C8C8C8" stroke-width="1.92" stroke-miterlimit="10" stroke-linejoin="round"/>
<path d="M645.04 1617.21L662.88 1614.41L676.32 1612.41L680.16 1611.93H684.8L689.36 1612.49L695.28 1614.49L700.24 1617.05L705.52 1621.37L802.72 1705.69L808 1709.37L814.96 1712.01L823.6 1713.85L835.84 1716.41L842.08 1716.81L847.76 1716.57L855.52 1714.73L936 1693.37L941.76 1691.77" stroke="#C8C8C8" stroke-width="1.92" stroke-miterlimit="10" stroke-linejoin="round"/>
<path d="M1690.08 1707.53L1683.84 1705.77L1677.92 1704.17L1674.32 1702.65L1670.88 1700.01L1667.84 1696.33L1655.2 1675.45" stroke="#C8C8C8" stroke-width="1.92" stroke-miterlimit="10" stroke-linejoin="round"/>
<path d="M1590.72 1593.29L1574.72 1565.45L1572.48 1559.93L1571.44 1555.21L1571.04 1550.81L1570.96 1546.17L1571.52 1542.25L1572.16 1539.29" stroke="#C8C8C8" stroke-width="1.92" stroke-miterlimit="10" stroke-linejoin="round"/>
<path d="M1436.32 507.367L1442.8 520.727L1445.44 528.327L1446.4 532.887L1446.72 537.847L1446.88 542.807V548.887L1446.4 552.407L1445.68 555.687L1444.56 560.887L1443.44 564.807L1432.72 594.567L1431.28 598.807L1429.92 604.247L1429.04 611.447L1428.96 623.847L1428.64 645.527L1427.68 718.087L1427.6 725.367L1427.84 732.007L1428.56 738.487L1428.88 744.727L1429.04 750.247L1429.12 756.807" stroke="#C8C8C8" stroke-width="1.92" stroke-miterlimit="10" stroke-linejoin="round"/>
<path d="M1575.52 1523.29L1576.08 1519.05L1576.56 1513.13L1577.12 1505.77V1502.65L1576.64 1498.33L1575.84 1495.29L1574.4 1491.45L1573.12 1488.89C1570.44 1484.67 1567.28 1481.14 1562.72 1478.89L1559.44 1477.53L1554.88 1476.49" stroke="#C8C8C8" stroke-width="1.92" stroke-miterlimit="10" stroke-linejoin="round"/>
<path d="M1572.16 1539.29L1572.8 1535.93L1575.52 1523.29" stroke="#C8C8C8" stroke-width="1.92" stroke-miterlimit="10" stroke-linejoin="round"/>
<path d="M1554.88 1476.49L1551.52 1476.65L1534.24 1477.77L1507.92 1479.45" stroke="#C8C8C8" stroke-width="1.92" stroke-miterlimit="10" stroke-linejoin="round"/>
<path d="M1431.36 1484.17L1465.52 1482.17L1507.92 1479.45" stroke="#C8C8C8" stroke-width="1.92" stroke-miterlimit="10" stroke-linejoin="round"/>
<path d="M1403.76 1485.85L1431.36 1484.17" stroke="#C8C8C8" stroke-width="1.92" stroke-miterlimit="10" stroke-linejoin="round"/>
<path d="M1189.2 1502.89L1191.68 1503.61L1199.04 1506.25L1207.92 1509.45" stroke="#C8C8C8" stroke-width="1.92" stroke-miterlimit="10" stroke-linejoin="round"/>
<path d="M1173.92 1500.33H1177.52L1181.12 1500.57L1184.16 1501.37L1189.2 1502.89" stroke="#C8C8C8" stroke-width="1.92" stroke-miterlimit="10" stroke-linejoin="round"/>
<path d="M864.72 1501.05L870.72 1499.05L877.44 1498.17L882.16 1498.49C891.995 1499.84 896.111 1505.28 904.8 1507.69L911.92 1509.13L919.2 1509.21L1042.88 1502.17L1056.16 1502.65L1063.76 1504.25L1072.64 1507.93L1081.76 1513.13L1087.2 1515.05L1097.04 1516.57L1106.88 1516.81L1111.44 1516.49L1118.72 1514.33L1133.28 1508.97L1146.48 1504.25L1152.8 1502.33L1157.92 1501.05L1162.4 1500.41L1167.28 1500.25L1173.92 1500.33" stroke="#C8C8C8" stroke-width="1.92" stroke-miterlimit="10" stroke-linejoin="round"/>
<path d="M1542.88 1449.85L1543.52 1447.13L1544.88 1443.53L1546.64 1440.09L1562.96 1407.77L1568.64 1396.57L1569.84 1392.17V1387.69L1568.88 1384.41L1559.92 1352.41L1558.08 1345.93L1555.84 1340.97" stroke="#C8C8C8" stroke-width="1.92" stroke-miterlimit="10" stroke-linejoin="round"/>
<path d="M1555.84 1340.97L1553.04 1336.25L1549.84 1332.97L1536.32 1322.25L1532 1318.97L1528.32 1315.77L1523.36 1309.93L1518.08 1301.69L1511.44 1290.17" stroke="#C8C8C8" stroke-width="1.92" stroke-miterlimit="10" stroke-linejoin="round"/>
<path d="M1511.44 1290.17L1502.4 1274.25L1464.16 1212.49L1458.08 1202.81" stroke="#C8C8C8" stroke-width="1.92" stroke-miterlimit="10" stroke-linejoin="round"/>
<path d="M729.2 836.967L705.28 879.127C695.437 894.871 699.211 915.835 710 930.087L717.44 938.407" stroke="#C8C8C8" stroke-width="1.92" stroke-miterlimit="10" stroke-linejoin="round"/>
<path d="M1708.32 1739.53V1739.37L1709.28 1735.77L1709.04 1732.89L1708.24 1729.85L1706.8 1726.73L1702.56 1717.61L1699.28 1713.85L1690.08 1707.53" stroke="#C8C8C8" stroke-width="1.92" stroke-miterlimit="10" stroke-linejoin="round"/>
<path d="M1353.36 1488.81L1403.76 1485.85" stroke="#C8C8C8" stroke-width="1.92" stroke-miterlimit="10" stroke-linejoin="round"/>
<path d="M1207.92 1509.45L1217.12 1512.73L1248.8 1524.41L1252.24 1525.45L1256.16 1526.01L1260.32 1526.09L1263.68 1525.93L1269.36 1524.97L1273.68 1523.53L1277.6 1521.29L1314.24 1497.61L1320.08 1494.09L1325.2 1491.93L1329.52 1490.65L1333.52 1489.93L1353.36 1488.81" stroke="#C8C8C8" stroke-width="1.92" stroke-miterlimit="10" stroke-linejoin="round"/>
<path d="M1179.84 804.887L1176.48 805.927L1173.44 806.567L1169.84 806.727L1166.8 806.647L1162.08 805.767" stroke="#C8C8C8" stroke-width="1.92" stroke-miterlimit="10" stroke-linejoin="round"/>
<path d="M458.96 1088.09L464.32 1088.41L468 1088.57L470.88 1088.09L473.28 1087.21L475.6 1085.53L477.12 1083.93L479.92 1079.53L484.24 1072.49L485.76 1070.49L489.28 1066.65L491.36 1065.13L493.28 1063.93" stroke="#C8C8C8" stroke-width="1.92" stroke-miterlimit="10" stroke-linejoin="round"/>
<path d="M469.76 1113.21L469.84 1116.65C470.196 1119.72 472.93 1121.7 475.44 1123.05L478.64 1123.53" stroke="#C8C8C8" stroke-width="1.92" stroke-miterlimit="10" stroke-linejoin="round"/>
<path d="M394.88 1201.13L421.52 1202.49L420 1201.69L418.56 1200.73L417.36 1199.53L416.4 1197.93L415.92 1196.57L415.6 1194.65" stroke="#C8C8C8" stroke-width="1.92" stroke-miterlimit="10" stroke-linejoin="round"/>
<path d="M415.2 1206.41L416.8 1204.49L417.84 1203.77L418.96 1203.21L420 1202.73L421.28 1202.49" stroke="#C8C8C8" stroke-width="1.92" stroke-miterlimit="10" stroke-linejoin="round"/>
<path d="M1543.6 1616.25L1539.6 1614.89L1537.76 1613.37C1535.27 1611.13 1534.22 1607.06 1535.6 1603.93L1536.56 1601.85" stroke="#C8C8C8" stroke-width="1.92" stroke-miterlimit="10" stroke-linejoin="round"/>
<path d="M1571.52 1570.65L1572.4 1574.41L1573.36 1576.41L1574.8 1578.17L1576.64 1579.45L1578.96 1580.25L1580.48 1580.57" stroke="#C8C8C8" stroke-width="1.92" stroke-miterlimit="10" stroke-linejoin="round"/>
<path d="M986 409.927L986.64 411.127C988.839 415.325 993.151 417.272 997.76 417.047L1001.12 416.727" stroke="#C8C8C8" stroke-width="1.92" stroke-miterlimit="10" stroke-linejoin="round"/>
<path d="M1277.92 685.927L1283.2 686.327L1286.16 686.007L1288.88 684.967L1291.2 683.287L1292.96 681.847L1294.72 679.607" stroke="#C8C8C8" stroke-width="1.92" stroke-miterlimit="10" stroke-linejoin="round"/>
<path d="M1277.92 685.927L1282.24 688.887C1285.17 691.498 1286.34 693.83 1286.72 697.607L1286.56 700.887L1294.72 679.607" stroke="#C8C8C8" stroke-width="1.92" stroke-miterlimit="10" stroke-linejoin="round"/>
<path d="M1430.64 1900.81L1433.76 1899.69L1436.56 1898.09L1439.76 1896.33L1442.8 1894.49L1444.4 1893.37" stroke="#C8C8C8" stroke-width="1.92" stroke-miterlimit="10" stroke-linejoin="round"/>
<path d="M1373.36 1687.61L1378.32 1691.45L1384.08 1693.77L1388.48 1695.13L1396 1696.33" stroke="#C8C8C8" stroke-width="1.92" stroke-miterlimit="10" stroke-linejoin="round"/>
<path d="M473.2 277.847L494.16 301.687L497.36 305.367L498.72 306.487L500.08 307.287L501.92 308.007L503.44 308.167L505.52 308.087L522.8 306.647C525.431 306.643 526.354 306.616 528.64 308.087L532.08 311.527" stroke="#C8C8C8" stroke-width="1.92" stroke-miterlimit="10" stroke-linejoin="round"/>
<path d="M752.08 997.927L754.64 996.647C758.41 993.254 758.288 992.398 758 987.607L757.04 982.247" stroke="#C8C8C8" stroke-width="1.92" stroke-miterlimit="10" stroke-linejoin="round"/>
<path d="M1924.8 1864.73L1931.84 1867.29L1935.6 1870.01L1937.28 1872.41L1937.84 1875.21L1938 1880.65" stroke="#C8C8C8" stroke-width="1.92" stroke-miterlimit="10" stroke-linejoin="round"/>
<path d="M1932.24 1857.77L1939.28 1864.57L1943.76 1867.21L1948.8 1868.65L1959.68 1871.05" stroke="#C8C8C8" stroke-width="1.92" stroke-miterlimit="10" stroke-linejoin="round"/>
<path d="M1794.72 1777.69L1801.36 1784.81L1804.64 1788.41L1805.76 1789.85L1806.48 1791.29L1806.88 1792.49" stroke="#C8C8C8" stroke-width="1.92" stroke-miterlimit="10" stroke-linejoin="round"/>
<path d="M1107.52 1805.45L1110.8 1812.01L1111.92 1817.61V1822.97L1110.32 1829.69L1114.64 1823.37L1119.28 1819.13L1123.76 1816.73L1126.56 1815.77" stroke="#C8C8C8" stroke-width="1.92" stroke-miterlimit="10" stroke-linejoin="round"/>
<path d="M1435.84 1152.49L1433.76 1148.01L1432.4 1143.69L1432.56 1137.77L1434.16 1133.37L1436.08 1130.25" stroke="#C8C8C8" stroke-width="1.92" stroke-miterlimit="10" stroke-linejoin="round"/>
<path d="M1561.12 1511.05L1562.4 1517.13L1563.28 1534.89" stroke="#C8C8C8" stroke-width="1.92" stroke-miterlimit="10" stroke-linejoin="round"/>
<path d="M1551.68 1486.97L1549.2 1483.53L1544.96 1480.25L1540.88 1478.81L1534.24 1477.77" stroke="#C8C8C8" stroke-width="1.92" stroke-miterlimit="10" stroke-linejoin="round"/>
<path d="M1753.52 561.527L1726.08 590.807L1724.16 592.327L1720.96 594.087" stroke="#C8C8C8" stroke-width="1.92" stroke-miterlimit="10" stroke-linejoin="round"/>
<path d="M1614.88 666.487L1610.32 669.047L1608 673.767L1608.16 676.807L1609.28 682.007" stroke="#C8C8C8" stroke-width="1.92" stroke-miterlimit="10" stroke-linejoin="round"/>
<path d="M1862.56 840.247L1861.68 834.727L1862.88 830.727L1866.16 827.687" stroke="#C8C8C8" stroke-width="1.92" stroke-miterlimit="10" stroke-linejoin="round"/>
<path d="M1405.52 333.047L1433.36 332.487" stroke="#C8C8C8" stroke-width="1.92" stroke-miterlimit="10" stroke-linejoin="round"/>
<path d="M1337.44 332.647L1331.04 334.087L1329.36 334.647L1327.76 335.687L1326.08 337.287L1324.72 339.527L1324.32 341.367L1324.16 345.447" stroke="#C8C8C8" stroke-width="1.92" stroke-miterlimit="10" stroke-linejoin="round"/>
<path d="M572.72 1735.69L572.8 1732.81L572.88 1732.33C572.696 1724.65 572.027 1720.68 567.44 1714.09L564.88 1710.81L555.44 1697.45C552.22 1693.58 548.932 1685.31 549.04 1680.41L548.96 1675.21L550 1655.85" stroke="#C8C8C8" stroke-width="1.92" stroke-miterlimit="10" stroke-linejoin="round"/>
<path d="M559.04 1807.21L562.8 1812.65L566.08 1815.53L569.44 1816.97L572.64 1817.69L574.8 1818.65" stroke="#C8C8C8" stroke-width="1.92" stroke-miterlimit="10" stroke-linejoin="round"/>
<path d="M705.36 1809.13H658.24" stroke="#C8C8C8" stroke-width="1.92" stroke-miterlimit="10" stroke-linejoin="round"/>
<path d="M560.56 1756.65L562.32 1753.85C567.017 1747.4 570.626 1745.64 572.48 1737.45L572.72 1735.69" stroke="#C8C8C8" stroke-width="1.92" stroke-miterlimit="10" stroke-linejoin="round"/>
<path d="M560.56 1756.65L558.64 1760.33C554.592 1770.66 556.929 1776.63 557.44 1787.37L559.04 1807.21" stroke="#C8C8C8" stroke-width="1.92" stroke-miterlimit="10" stroke-linejoin="round"/>
<path d="M551.76 1641.93L553.6 1638.25L555.84 1635.45L558.56 1632.97L562.08 1630.81L565.52 1629.05" stroke="#C8C8C8" stroke-width="1.92" stroke-miterlimit="10" stroke-linejoin="round"/>
<path d="M550 1655.85L550.4 1649.45L550.72 1645.77L551.76 1641.93" stroke="#C8C8C8" stroke-width="1.92" stroke-miterlimit="10" stroke-linejoin="round"/>
<path d="M565.52 1629.05L570.88 1626.17L573.36 1624.73L575.2 1622.89L576.8 1620.41L577.52 1618.89L578.08 1617.37L578.56 1615.45L583.92 1595.45L584.48 1593.37L585.68 1588.49L586.08 1584.33L586.16 1573.61" stroke="#C8C8C8" stroke-width="1.92" stroke-miterlimit="10" stroke-linejoin="round"/>
<path d="M564.48 1569.61L606.8 1572.41L654.32 1575.69L683.76 1577.69L688.64 1577.93H691.68L694.64 1577.69L697.6 1577.21L699.52 1576.89L701.36 1576.41L703.36 1575.85L707.52 1574.17L714.72 1570.89L748.16 1555.61L812.88 1525.37L864.72 1501.05" stroke="#C8C8C8" stroke-width="1.92" stroke-miterlimit="10" stroke-linejoin="round"/>
<path d="M490.64 1542.97L507.6 1537.05L510 1536.09L513.12 1534.41L515.44 1532.97L535.04 1516.17L542.56 1509.61L543.92 1508.33L545.76 1506.97C548.213 1504.44 552.283 1504 555.6 1504.49L557.92 1504.97" stroke="#C8C8C8" stroke-width="1.92" stroke-miterlimit="10" stroke-linejoin="round"/>
<path d="M543.92 1508.33L545.28 1506.41C547.684 1501.13 546.915 1500.45 545.68 1495.13L544.72 1491.53L545.92 1494.09C548.017 1498.15 552.292 1502.79 556.64 1504.41L557.92 1504.97L559.76 1505.77L575.12 1511.37L576.16 1511.77L578.32 1512.65L580.24 1513.61L582.96 1516.25L584.72 1519.77L586.16 1525.93L586.64 1534.97L586.16 1573.61" stroke="#C8C8C8" stroke-width="1.92" stroke-miterlimit="10" stroke-linejoin="round"/>
<path d="M544.72 1491.53L542.4 1482.17" stroke="#C8C8C8" stroke-width="1.92" stroke-miterlimit="10" stroke-linejoin="round"/>
<path d="M640 1296.17L641.12 1294.09L643.36 1289.29L644.48 1285.29L645.04 1281.85V1277.05V1274.57L644.72 1268.41L644.16 1265.21L643.2 1262.33L641.68 1257.93L639.84 1254.25L626.72 1236.01C622.448 1229.89 618.449 1224.24 612.16 1220.09L600.4 1212.09" stroke="#C8C8C8" stroke-width="1.92" stroke-miterlimit="10" stroke-linejoin="round"/>
<path d="M317.76 1249.53L325.92 1243.93L328.4 1241.85L330.24 1240.01L332.56 1236.49L333.6 1233.77L334.8 1229.05L337.36 1217.37L338.32 1213.13L339.2 1211.13L340.8 1208.73L342.48 1206.81L345.44 1203.53L356.4 1191.85L359.92 1188.73L362.24 1186.81L366.24 1183.77L382.24 1173.61L397.44 1164.01L400.72 1162.25L403.68 1161.13L408.08 1159.77C421.398 1157.71 432.289 1164.4 444.24 1156.49L446.72 1154.57" stroke="#C8C8C8" stroke-width="1.92" stroke-miterlimit="10" stroke-linejoin="round"/>
<path d="M415.6 1194.65V1197.29L415.28 1204.33L415.2 1206.41" stroke="#C8C8C8" stroke-width="1.92" stroke-miterlimit="10" stroke-linejoin="round"/>
<path d="M415.6 1194.65V1194.17L416.4 1191.93L417.28 1190.65L421.52 1185.13L426.64 1178.89L434.72 1168.89L446.72 1154.57" stroke="#C8C8C8" stroke-width="1.92" stroke-miterlimit="10" stroke-linejoin="round"/>
<path d="M415.2 1206.41L415.12 1208.41L415.04 1209.69L414.56 1211.69L412.8 1214.09L410.4 1216.17L407.28 1217.85L389.2 1224.97L385.44 1226.65L383.28 1228.41C378.061 1233.78 378.052 1243.63 372.24 1248.97L366.72 1253.85L339.36 1276.89" stroke="#C8C8C8" stroke-width="1.92" stroke-miterlimit="10" stroke-linejoin="round"/>
<path d="M558.8 1135.37L559.44 1137.61L561.28 1142.73L565.04 1151.29L581.2 1186.33L583.52 1191.21L585.92 1195.69L588.24 1198.89L591.44 1202.97L600.4 1212.09" stroke="#C8C8C8" stroke-width="1.92" stroke-miterlimit="10" stroke-linejoin="round"/>
<path d="M558.4 1099.29L556.32 1106.57L555.76 1112.73L555.92 1118.41L556.32 1122.97L556.8 1127.29L557.68 1131.53L558.8 1135.37" stroke="#C8C8C8" stroke-width="1.92" stroke-miterlimit="10" stroke-linejoin="round"/>
<path d="M536 1119.93L539.76 1120.09C546.903 1120.88 553.732 1125.48 557.2 1131.77L558.8 1135.37" stroke="#C8C8C8" stroke-width="1.92" stroke-miterlimit="10" stroke-linejoin="round"/>
<path d="M558.4 1099.29L555.92 1105.29L553.44 1109.93L548.24 1115.29L544.16 1117.37L538.56 1119.53L536 1119.93L532.88 1120.17L520.24 1120.97L511.6 1121.45L501.12 1122.17L478.64 1123.53" stroke="#C8C8C8" stroke-width="1.92" stroke-miterlimit="10" stroke-linejoin="round"/>
<path d="M466.16 1131.45L467.68 1128.65L468.16 1126.89L468.56 1123.69L469.76 1113.21L470.16 1109.93L470.4 1107.85" stroke="#C8C8C8" stroke-width="1.92" stroke-miterlimit="10" stroke-linejoin="round"/>
<path d="M458.96 1088.09L462.16 1089.05L466.24 1091.45L468.56 1093.85L470.4 1097.21L470.72 1102.01L470.64 1105.21L470.4 1107.85" stroke="#C8C8C8" stroke-width="1.92" stroke-miterlimit="10" stroke-linejoin="round"/>
<path d="M552.64 981.768L562.64 985.688L576.4 990.968" stroke="#C8C8C8" stroke-width="1.92" stroke-miterlimit="10" stroke-linejoin="round"/>
<path d="M558.4 1099.29L560.88 1093.37L562.96 1089.29L566.56 1084.25L582.16 1068.41L583.92 1066.41L585.6 1063.53L586.8 1059.85L587.12 1055.61L586.88 1052.73L586 1050.17L584.8 1047.37L568.4 1010.81L566.72 1007.05L565.04 1002.97L563.92 1000.09L562.96 997.128L562.4 994.248L562 991.768L561.68 988.248V986.648L564.72 903.048L564.88 897.288L565.44 892.088L566.56 885.608L567.68 881.128L568.72 876.648L569.28 872.728L569.36 867.528C569.103 852.86 568.657 838.197 568.56 823.528L568.32 818.888L568.08 814.408C567.632 805.913 566.361 800.324 564.96 792.168L564.32 788.328L542.96 668.168L541.92 661.848L541.44 657.288C540.719 651.658 541.208 645.94 542.4 640.408L543.44 636.488L544.88 633.208L547.12 628.888L549.76 624.568L551.44 621.208L552.88 618.088L556.8 609.208L560.08 601.768L562.32 595.928L564.48 588.808L565.52 584.488L566.32 581.688L567.36 579.848L568.56 578.408L570 577.288L571.92 576.248L574.56 575.368L579.04 573.768L581.6 572.888L585.44 571.448L590.72 569.608L620.8 559.048L623.44 557.848L625.92 556.568C628.24 555.218 631.029 553.133 632.8 551.048L637.2 546.808L643.2 541.528C646.633 538.458 650.637 535.984 655.04 534.568L655.2 534.488L658.32 533.688L661.84 533.048L666 532.888C674.164 533.54 683.423 534.374 691.36 536.008L694.16 536.808L696.48 537.528C699.429 538.764 702.459 540.224 705.36 541.608L710.8 544.248L728.32 553.048L760.16 568.968L769.6 572.648L778.56 574.168L780.56 573.928L783.52 573.208L787.28 572.008L793.28 569.848L798.08 568.648L814.8 564.408L832.4 560.328L845.2 557.048L851.6 554.728L857.36 551.528L862.32 547.768L866.32 544.568" stroke="#C8C8C8" stroke-width="1.92" stroke-miterlimit="10" stroke-linejoin="round"/>
<path d="M978.08 439.208L984.48 422.568C986.187 418.59 987.212 414.216 986 409.928L984.96 407.048" stroke="#C8C8C8" stroke-width="1.92" stroke-miterlimit="10" stroke-linejoin="round"/>
<path d="M892.72 523.608L932.32 492.168L936 489.288L938.88 486.808L962.08 465.848L966.24 461.208L970.48 455.208L973.76 450.248L975.68 445.368L978.08 439.208" stroke="#C8C8C8" stroke-width="1.92" stroke-miterlimit="10" stroke-linejoin="round"/>
<path d="M1088.24 883.528L1095.52 872.328L1098.64 868.408L1102 864.088L1104.32 861.528L1106.88 859.768L1123.52 853.128L1126.32 851.208L1128.56 848.488L1129.2 844.248C1130.91 830.032 1131.49 837.488 1137.2 826.408L1137.92 824.648" stroke="#C8C8C8" stroke-width="1.92" stroke-miterlimit="10" stroke-linejoin="round"/>
<path d="M1088.24 883.527L1090.32 880.727L1092.88 878.887L1095.68 877.527L1098.72 876.807H1101.68L1104.08 876.967L1124.08 877.447L1126.8 877.687L1128.8 878.487L1131.2 879.527L1132.96 880.887L1135.28 883.607L1136.8 886.487L1137.68 889.847L1140.32 903.607L1141.2 906.167L1142.8 908.487L1144.88 910.407L1146.8 911.447L1149.52 912.247L1181.52 920.087" stroke="#C8C8C8" stroke-width="1.92" stroke-miterlimit="10" stroke-linejoin="round"/>
<path d="M929.2 970.087L973.36 972.007L981.92 972.327L986.08 972.167L991.76 970.967L1020.24 963.927L1023.36 962.807L1026.32 961.287L1028.24 959.927L1030.24 958.407L1032.4 956.567L1052.24 938.727L1053.76 937.287L1055.52 935.367L1057.04 933.287L1059.2 930.407L1088.24 883.527" stroke="#C8C8C8" stroke-width="1.92" stroke-miterlimit="10" stroke-linejoin="round"/>
<path d="M848.64 987.687L881.76 976.487L890.08 973.527L896.32 969.687L899.84 966.887L902.96 964.167L912.32 955.767" stroke="#C8C8C8" stroke-width="1.92" stroke-miterlimit="10" stroke-linejoin="round"/>
<path d="M1643.12 1536.97L1644.4 1535.37C1648.15 1532.1 1650.38 1532.07 1654.96 1533.21L1658.48 1534.49" stroke="#C8C8C8" stroke-width="1.92" stroke-miterlimit="10" stroke-linejoin="round"/>
<path d="M1643.12 1536.97L1641.92 1539.85L1640.8 1541.69L1630.16 1551.85L1604.88 1575.93L1601.44 1578.25L1599.28 1579.29L1596.16 1580.01L1581.92 1580.49L1565.44 1580.97" stroke="#C8C8C8" stroke-width="1.92" stroke-miterlimit="10" stroke-linejoin="round"/>
<path d="M1665.2 1537.61L1684.64 1546.73" stroke="#C8C8C8" stroke-width="1.92" stroke-miterlimit="10" stroke-linejoin="round"/>
<path d="M1482.48 1874.89L1482.72 1873.53L1483.6 1867.93L1484.72 1865.13L1486.56 1862.81L1489.6 1860.41L1493.04 1858.01" stroke="#C8C8C8" stroke-width="1.92" stroke-miterlimit="10" stroke-linejoin="round"/>
<path d="M1477.52 1906.97L1482.48 1874.89" stroke="#C8C8C8" stroke-width="1.92" stroke-miterlimit="10" stroke-linejoin="round"/>
<path d="M1026.88 1953.05L1052.4 1938.57L1058.64 1933.45L1062.8 1926.57L1075.28 1903.85" stroke="#C8C8C8" stroke-width="1.92" stroke-miterlimit="10" stroke-linejoin="round"/>
<path d="M2253.04 1695.21L2231.68 1683.69L2225.6 1681.61L2220.16 1681.69L2213.6 1684.41L2208.24 1689.29L2205.44 1695.85L2187.2 1735.61L2182.72 1742.41L2176.48 1747.53L2168.96 1750.65L2125.44 1765.93" stroke="#C8C8C8" stroke-width="1.92" stroke-miterlimit="10" stroke-linejoin="round"/>
<path d="M1957.76 2022.57L1972.64 2000.25L1973.92 1997.53C1977.25 1988.11 1965.15 1983.72 1970 1976.01L1971.04 1974.33L1971.84 1972.09L1972 1969.93L1971.84 1966.89L1970.88 1964.41L1969.52 1962.33L1964.08 1956.57L1962.32 1954.73L1960.56 1953.21L1958.4 1951.85L1955.6 1950.89L1953.52 1950.57L1949.6 1950.25L1953.36 1950.17L1958.48 1949.93L1963.04 1949.45L1968.16 1949.05L1973.84 1948.81L1976.56 1948.57L1978.24 1948.33L1979.44 1947.93L1981.52 1947.05L1983.04 1945.93L1984 1944.81L1984.56 1943.45L1992.8 1917.93" stroke="#C8C8C8" stroke-width="1.92" stroke-miterlimit="10" stroke-linejoin="round"/>
<path d="M1912.48 1951.53L1919.28 1948.49L1921.2 1948.25L1923.2 1948.33L1925.6 1948.65L1927.52 1949.29L1929.76 1950.33L1931.68 1950.81L1933.68 1951.05H1935.68L1938.64 1950.89L1942.48 1950.41L1945.92 1950.09L1949.6 1950.25" stroke="#C8C8C8" stroke-width="1.92" stroke-miterlimit="10" stroke-linejoin="round"/>
<path d="M1959.92 2262.65L1949.2 2248.65L1948.48 2247.77L1947.84 2246.09L1947.12 2243.21L1947.44 2240.89L1948.16 2238.57L1949.44 2236.65L1961.92 2223.21L1979.68 2204.17L1981.28 2202.41L1982.48 2200.65L1983.36 2198.73L1983.68 2197.13L1983.92 2195.21L1984 2192.09L1984.24 2178.17L1984.08 2174.65L1983.76 2172.57L1982.96 2170.41L1981.84 2168.65L1980.72 2167.05L1979.28 2165.69" stroke="#C8C8C8" stroke-width="1.92" stroke-miterlimit="10" stroke-linejoin="round"/>
<path d="M1648 1824.01L1646.56 1825.53L1645.52 1827.45L1645.12 1829.29L1645.44 1831.93L1646.64 1834.25L1648.72 1835.77L1651.92 1836.41L1654.8 1835.85L1657.76 1834.01L1660.4 1831.85L1663.92 1829.93" stroke="#C8C8C8" stroke-width="1.92" stroke-miterlimit="10" stroke-linejoin="round"/>
<path d="M1648 1824.01L1643.6 1826.17H1640.88L1638 1824.89" stroke="#C8C8C8" stroke-width="1.92" stroke-miterlimit="10" stroke-linejoin="round"/>
<path d="M1288.48 1658.25L1309.04 1655.85L1318.08 1654.57L1328 1653.85L1335.76 1654.17L1342.16 1655.77L1349.52 1659.61L1355.2 1664.89L1369.12 1681.93L1373.36 1687.61" stroke="#C8C8C8" stroke-width="1.92" stroke-miterlimit="10" stroke-linejoin="round"/>
<path d="M1126.56 1815.77L1132.96 1814.81L1137.04 1813.29L1142.08 1809.53L1146.88 1805.45L1150.88 1802.97L1178.16 1782.25L1182.08 1779.21L1184.64 1776.89L1187.04 1774.33L1188.8 1771.77L1201.28 1752.01L1204.08 1747.45L1205.92 1743.53L1207.04 1740.25L1207.76 1737.05L1209.12 1729.21L1212.88 1711.93L1216.24 1704.33L1220.16 1697.69L1226.32 1690.17L1244.32 1670.97L1248.72 1668.33L1256.16 1665.21L1267.36 1661.29L1274.88 1659.85L1279.36 1659.29" stroke="#C8C8C8" stroke-width="1.92" stroke-miterlimit="10" stroke-linejoin="round"/>
<path d="M1107.52 1805.45L1111.2 1809.61L1115.92 1813.05L1121.04 1815.13L1126.56 1815.77" stroke="#C8C8C8" stroke-width="1.92" stroke-miterlimit="10" stroke-linejoin="round"/>
<path d="M951.44 1678.65L957.68 1684.57L962.64 1688.33L987.76 1701.93" stroke="#C8C8C8" stroke-width="1.92" stroke-miterlimit="10" stroke-linejoin="round"/>
<path d="M913.6 1541.29L940.8 1653.77L943.2 1663.69L946.56 1671.53L951.44 1678.65" stroke="#C8C8C8" stroke-width="1.92" stroke-miterlimit="10" stroke-linejoin="round"/>
<path d="M1064 1788.09L1095.04 1796.73L1098.56 1798.09L1101.6 1799.77L1104.56 1802.09L1107.52 1805.45" stroke="#C8C8C8" stroke-width="1.92" stroke-miterlimit="10" stroke-linejoin="round"/>
<path d="M987.76 1701.93L1004.16 1710.81L1010.16 1715.13L1015.04 1720.65L1017.68 1726.09L1019.68 1732.89L1026 1760.57L1027.76 1765.77L1029.84 1769.85L1032.8 1774.17L1036.16 1777.29L1039.84 1780.01L1043.52 1781.85L1050.16 1784.17L1064 1788.09" stroke="#C8C8C8" stroke-width="1.92" stroke-miterlimit="10" stroke-linejoin="round"/>
<path d="M1075.28 1903.85L1072.32 1912.41L1071.52 1918.89L1072.24 1925.37L1074.56 1932.41L1077.92 1938.49L1082.4 1944.57L1091.44 1954.33L1113.92 1970.65" stroke="#C8C8C8" stroke-width="1.92" stroke-miterlimit="10" stroke-linejoin="round"/>
<path d="M1102.56 1846.09L1075.28 1903.85" stroke="#C8C8C8" stroke-width="1.92" stroke-miterlimit="10" stroke-linejoin="round"/>
<path d="M1110.32 1829.69L1102.56 1846.09" stroke="#C8C8C8" stroke-width="1.92" stroke-miterlimit="10" stroke-linejoin="round"/>
<path d="M1279.36 1659.29L1288.48 1658.25" stroke="#C8C8C8" stroke-width="1.92" stroke-miterlimit="10" stroke-linejoin="round"/>
<path d="M1415.52 1903.37L1430.64 1900.81" stroke="#C8C8C8" stroke-width="1.92" stroke-miterlimit="10" stroke-linejoin="round"/>
<path d="M1555.44 1818.09L1562.56 1814.57L1584.08 1805.53L1587.6 1804.49L1591.2 1804.09L1594.88 1804.49L1598.24 1805.93L1601.2 1808.01L1610.88 1819.61L1614 1822.49L1617.6 1824.73L1622.48 1826.73L1637.2 1832.81" stroke="#C8C8C8" stroke-width="1.92" stroke-miterlimit="10" stroke-linejoin="round"/>
<path d="M1655.28 1831.37L1663.92 1829.93" stroke="#C8C8C8" stroke-width="1.92" stroke-miterlimit="10" stroke-linejoin="round"/>
<path d="M1712.32 1886.17L1721.68 1888.17L1725.84 1888.89H1728.64L1730.88 1888.49L1740.32 1883.77L1746.88 1881.29L1752.4 1879.53L1757.04 1878.41" stroke="#C8C8C8" stroke-width="1.92" stroke-miterlimit="10" stroke-linejoin="round"/>
<path d="M1637.2 1832.81L1642.8 1835.13L1646.32 1836.81L1648.72 1838.33L1650.88 1840.09L1684.64 1874.09L1688.24 1877.45L1691.28 1879.69L1694.96 1881.69L1699.12 1883.37L1712.32 1886.17" stroke="#C8C8C8" stroke-width="1.92" stroke-miterlimit="10" stroke-linejoin="round"/>
<path d="M1784.16 1763.13L1750.72 1706.57L1741.68 1691.29" stroke="#C8C8C8" stroke-width="1.92" stroke-miterlimit="10" stroke-linejoin="round"/>
<path d="M1794.72 1777.69L1791.44 1774.57L1789.04 1771.61L1787.68 1769.13L1786.72 1767.45L1784.16 1763.13" stroke="#C8C8C8" stroke-width="1.92" stroke-miterlimit="10" stroke-linejoin="round"/>
<path d="M1794.72 1777.69L1797.52 1779.69L1800.32 1781.05L1803.6 1782.25L1806.48 1782.81L1821.84 1784.41L1826.72 1785.05L1829.92 1785.61L1833.12 1786.33L1843.84 1789.29L1850.48 1791.37L1855.76 1793.61L1860.72 1796.49L1864.56 1798.89" stroke="#C8C8C8" stroke-width="1.92" stroke-miterlimit="10" stroke-linejoin="round"/>
<path d="M1830.8 1755.29L1834.24 1754.01H1836.64L1838.32 1754.65L1840.16 1755.61L1841.68 1756.97L1852.56 1767.13L1854.96 1769.77" stroke="#C8C8C8" stroke-width="1.92" stroke-miterlimit="10" stroke-linejoin="round"/>
<path d="M1806.88 1792.49L1806.8 1791.69V1786.65L1807.6 1781.69L1808.96 1778.09L1810.64 1774.57L1812.64 1771.69L1815.28 1768.81L1823.76 1761.45L1830.8 1755.29" stroke="#C8C8C8" stroke-width="1.92" stroke-miterlimit="10" stroke-linejoin="round"/>
<path d="M1808.08 1814.73L1807.28 1799.77L1806.88 1792.49" stroke="#C8C8C8" stroke-width="1.92" stroke-miterlimit="10" stroke-linejoin="round"/>
<path d="M1854.96 1769.77L1856.56 1772.65C1859.07 1778.71 1857.5 1786.46 1859.76 1793.29L1861.28 1795.93L1864.56 1798.89" stroke="#C8C8C8" stroke-width="1.92" stroke-miterlimit="10" stroke-linejoin="round"/>
<path d="M1894.48 1816.97L1910.24 1826.49L1912.72 1828.09" stroke="#C8C8C8" stroke-width="1.92" stroke-miterlimit="10" stroke-linejoin="round"/>
<path d="M1864.56 1798.89L1870.64 1802.41L1894.48 1816.97" stroke="#C8C8C8" stroke-width="1.92" stroke-miterlimit="10" stroke-linejoin="round"/>
<path d="M2151.04 1774.81L2154 1777.53L2156.32 1780.89L2165.84 1804.57L2170.48 1816.57" stroke="#C8C8C8" stroke-width="1.92" stroke-miterlimit="10" stroke-linejoin="round"/>
<path d="M2131.2 1774.09L2137.52 1772.89L2142.88 1772.49L2147.36 1773.05L2151.04 1774.81" stroke="#C8C8C8" stroke-width="1.92" stroke-miterlimit="10" stroke-linejoin="round"/>
<path d="M1912.72 1828.09L1915.28 1829.61L1920.64 1831.05L1926.96 1830.81L1931.84 1829.93L1941.2 1825.53L1943.76 1824.89L1946.48 1824.81L1948.48 1824.97L1950.64 1825.53L1960.72 1829.05L1963.04 1829.53L1965.68 1829.77H1968.8L1971.6 1829.37L1974.4 1828.73L1992.72 1825.29L1996.64 1824.01L2038.96 1808.65L2042.08 1807.69L2045.2 1807.05L2047.84 1806.81H2050.64L2065.12 1806.65L2067.12 1806.49L2068.48 1806.17L2069.92 1805.53L2071.76 1804.49L2073.92 1803.13L2075.6 1801.13L2081.04 1793.37L2087.2 1784.57L2089.76 1781.69L2092.56 1779.45L2095.52 1777.45L2101.2 1775.13L2109.12 1772.49L2113.04 1772.01C2119.73 1770.96 2119.73 1775.72 2126.16 1775.05L2131.2 1774.09" stroke="#C8C8C8" stroke-width="1.92" stroke-miterlimit="10" stroke-linejoin="round"/>
<path d="M1932.24 1857.77L1918.88 1835.61L1917.12 1832.57L1915.36 1830.25L1912.72 1828.09" stroke="#C8C8C8" stroke-width="1.92" stroke-miterlimit="10" stroke-linejoin="round"/>
<path d="M1932.24 1857.77L1934.32 1861.29L1937.28 1866.65L1938.16 1868.57L1938.88 1870.25L1939.52 1873.45L1938.88 1877.85L1938 1880.65" stroke="#C8C8C8" stroke-width="1.92" stroke-miterlimit="10" stroke-linejoin="round"/>
<path d="M1912.48 1951.53L1913.52 1949.29L1917.6 1940.81L1919.36 1937.13L1920.24 1934.41V1930.73L1919.92 1926.49L1920.24 1922.65L1921.36 1919.45L1923.44 1916.09L1928.48 1909.37L1930.4 1905.77L1933.84 1894.41L1938 1880.65" stroke="#C8C8C8" stroke-width="1.92" stroke-miterlimit="10" stroke-linejoin="round"/>
<path d="M1907.76 1961.53L1912.48 1951.53" stroke="#C8C8C8" stroke-width="1.92" stroke-miterlimit="10" stroke-linejoin="round"/>
<path d="M1868.48 2097.21L1874.88 2035.85C1875.48 2028.52 1878.71 2023.64 1881.68 2017.05L1885.36 2009.13" stroke="#C8C8C8" stroke-width="1.92" stroke-miterlimit="10" stroke-linejoin="round"/>
<path d="M1946.24 1642.49L1949.68 1642.09L1983.2 1637.77" stroke="#C8C8C8" stroke-width="1.92" stroke-miterlimit="10" stroke-linejoin="round"/>
<path d="M1791.44 1846.17L1772.88 1866.57L1769.36 1870.41L1767.28 1872.25L1764.88 1874.09L1762.16 1875.77L1757.04 1878.41" stroke="#C8C8C8" stroke-width="1.92" stroke-miterlimit="10" stroke-linejoin="round"/>
<path d="M1808.08 1814.73L1807.92 1819.61L1807.12 1824.17L1806 1827.85L1803.92 1832.01L1800.32 1836.49L1791.44 1846.17" stroke="#C8C8C8" stroke-width="1.92" stroke-miterlimit="10" stroke-linejoin="round"/>
<path d="M1732.8 1694.09L1713.84 1705.45L1711.84 1706.25L1708.88 1706.49L1705.12 1706.25L1702.4 1705.69L1685.92 1701.13L1682.72 1699.93L1679.12 1698.25L1676.72 1696.89L1674.64 1695.13L1670.48 1690.81L1655.2 1675.45L1636 1656.17L1633.2 1653.13L1629.36 1648.73L1615.44 1632.57L1607.6 1621.85L1601.6 1612.09L1590.72 1593.29" stroke="#C8C8C8" stroke-width="1.92" stroke-miterlimit="10" stroke-linejoin="round"/>
<path d="M1543.6 1616.25L1591.28 1619.37L1597.28 1620.49L1602.24 1622.89L1615.44 1632.57" stroke="#C8C8C8" stroke-width="1.92" stroke-miterlimit="10" stroke-linejoin="round"/>
<path d="M1512.4 1626.33L1520.4 1620.65L1525.36 1617.93L1532.64 1615.85L1540.24 1616.01L1543.6 1616.25" stroke="#C8C8C8" stroke-width="1.92" stroke-miterlimit="10" stroke-linejoin="round"/>
<path d="M1565.44 1580.97L1563.36 1581.29C1557.14 1582.11 1551.99 1586.27 1547.76 1590.65L1536.56 1601.85" stroke="#C8C8C8" stroke-width="1.92" stroke-miterlimit="10" stroke-linejoin="round"/>
<path d="M1571.52 1570.65L1571.84 1573.05L1571.6 1575.21L1570.72 1577.21L1569.04 1579.21L1567.36 1580.41L1565.44 1580.97" stroke="#C8C8C8" stroke-width="1.92" stroke-miterlimit="10" stroke-linejoin="round"/>
<path d="M1536.56 1601.85L1524 1614.25L1512.4 1626.33" stroke="#C8C8C8" stroke-width="1.92" stroke-miterlimit="10" stroke-linejoin="round"/>
<path d="M1438.88 1704.81L1396 1696.33" stroke="#C8C8C8" stroke-width="1.92" stroke-miterlimit="10" stroke-linejoin="round"/>
<path d="M1512.4 1626.33L1494.64 1642.73L1491.04 1647.13L1488.8 1651.29L1487.28 1655.69L1486.64 1658.65L1485.92 1668.57L1485.2 1678.41L1484.24 1682.97L1482.48 1687.85L1479.76 1692.33L1476.8 1696.01L1473.36 1699.13L1468 1702.73L1461.36 1705.61L1456.8 1706.57L1451.76 1706.97L1448.24 1706.73L1438.88 1704.81" stroke="#C8C8C8" stroke-width="1.92" stroke-miterlimit="10" stroke-linejoin="round"/>
<path d="M1946.24 1642.49L1943.28 1642.33L1940.96 1641.53L1937.84 1639.37L1935.2 1635.45L1934.56 1632.57L1934.72 1629.05L1935.6 1626.57L1937.12 1624.33L1939.04 1622.49L1968.88 1595.93L1971.2 1593.45L1972.16 1591.69L1972.96 1589.93L1973.28 1588.01L1973.44 1585.61C1973.64 1582.13 1971.73 1578.77 1969.92 1575.93L1968.4 1573.61L1957.6 1556.89L1955.44 1553.61L1954.4 1550.97C1953.33 1544.62 1953.46 1538.13 1952.32 1531.77L1951.6 1528.89L1950.64 1526.89L1949.2 1524.89L1947.28 1523.05L1945.36 1521.61L1941.28 1519.21L1924.16 1510.57L1921.2 1508.81L1919.52 1507.69L1917.68 1506.25L1916.4 1505.05L1914.56 1503.21L1913.04 1501.05C1910.99 1497.57 1909.93 1494.98 1906.64 1492.33L1904 1490.25L1900.56 1488.49C1896.29 1486.62 1891.4 1486.17 1886.88 1487.29L1885.04 1487.85L1882.72 1488.73L1880.8 1489.77L1878.96 1490.97L1866.4 1501.21L1864.72 1503.05L1863.28 1505.13L1862.08 1507.05L1860.64 1510.25L1859.76 1512.41L1858.24 1514.81L1856.8 1516.57L1854.56 1518.57L1852.32 1520.09L1849.92 1521.21L1817.6 1531.05L1814.8 1531.45H1811.36L1807.76 1530.65L1805.2 1529.69L1788.48 1519.69" stroke="#C8C8C8" stroke-width="1.92" stroke-miterlimit="10" stroke-linejoin="round"/>
<path d="M1832.08 1678.41L1825.12 1682.41" stroke="#C8C8C8" stroke-width="1.92" stroke-miterlimit="10" stroke-linejoin="round"/>
<path d="M1946.24 1642.49L1939.36 1643.45H1936.24L1933.04 1642.25L1893.28 1616.57L1890 1615.21L1887.2 1614.73L1883.52 1615.37L1880.64 1616.65L1878.4 1618.41L1876.4 1620.81L1875.28 1622.89L1874.48 1625.77L1866.56 1653.85L1865.68 1656.81L1864.4 1659.85L1862.88 1661.93L1860.72 1664.25L1858.64 1665.93L1855.76 1667.45L1840.96 1673.29L1832.08 1678.41" stroke="#C8C8C8" stroke-width="1.92" stroke-miterlimit="10" stroke-linejoin="round"/>
<path d="M1776.64 1710.73L1825.12 1682.41L1828.48 1679.53C1840.55 1669.16 1845.27 1649.83 1838.32 1635.37L1788.48 1519.69" stroke="#C8C8C8" stroke-width="1.92" stroke-miterlimit="10" stroke-linejoin="round"/>
<path d="M1177.04 636.807L1183.2 642.647L1201.68 661.927L1203.76 664.087L1205.76 665.527L1208.72 667.127L1210.96 668.327L1212.96 669.127L1216.4 670.167L1277.92 685.927" stroke="#C8C8C8" stroke-width="1.92" stroke-miterlimit="10" stroke-linejoin="round"/>
<path d="M1614.88 666.487L1608.48 666.967L1589.36 665.927" stroke="#C8C8C8" stroke-width="1.92" stroke-miterlimit="10" stroke-linejoin="round"/>
<path d="M1720.96 594.087L1719.04 594.167L1715.12 594.887L1709.6 597.527L1684 616.727L1679.44 620.407C1667.87 628.589 1652.51 628.087 1639.92 634.007L1638 634.967L1635.92 636.407C1631.13 640.615 1629.48 645.981 1628.4 652.007L1627.68 654.247L1625.76 658.407L1622.48 662.407L1618.96 664.967L1614.88 666.487" stroke="#C8C8C8" stroke-width="1.92" stroke-miterlimit="10" stroke-linejoin="round"/>
<path d="M1753.2 606.647L1733.84 596.727L1730.96 595.367L1728.16 594.567L1725.28 594.167L1722.88 594.007L1720.96 594.087" stroke="#C8C8C8" stroke-width="1.92" stroke-miterlimit="10" stroke-linejoin="round"/>
<path d="M1671.12 1215.77L1664.16 1231.13L1657.68 1245.45L1654.24 1253.05L1652.96 1257.93L1652.4 1263.05L1652.64 1268.57" stroke="#C8C8C8" stroke-width="1.92" stroke-miterlimit="10" stroke-linejoin="round"/>
<path d="M2240.56 1116.57L2208.72 1106.33L2204.48 1104.97L2199.68 1104.33C2181.98 1104.98 2178.59 1101.98 2164.16 1093.05L2159.44 1090.57L2154.88 1088.89L2150.4 1087.77L2144.48 1087.21H2138L2088.16 1091.13H2083.2L2077.76 1090.73L2072.72 1090.09L2067.68 1089.05L2062.56 1087.61L2058.56 1086.25L2034.72 1077.61C2023.86 1073.85 2011.76 1073.79 2001.04 1078.09L1995.6 1080.49L1989.44 1084.09C1981.17 1090.79 1968.55 1095.51 1957.92 1095.69L1952.88 1095.85L1947.04 1095.37L1941.44 1094.49L1934.32 1092.09L1928.56 1089.61L1924.96 1087.77L1922.8 1086.49L1919.44 1083.93" stroke="#C8C8C8" stroke-width="1.92" stroke-miterlimit="10" stroke-linejoin="round"/>
<path d="M636.4 1303.05L640 1296.17" stroke="#C8C8C8" stroke-width="1.92" stroke-miterlimit="10" stroke-linejoin="round"/>
<path d="M542.4 1482.17L539.76 1466.73L538.96 1464.25L538.24 1462.25C536.121 1456.08 532.219 1451.25 529.76 1445.53L529.2 1443.77L528.64 1441.61C527.561 1438.02 527.643 1432.91 528.56 1429.29L528.88 1428.17L530.4 1425.13L532.56 1420.89L536.08 1415.85L541.04 1409.93L565.44 1380.25L569.28 1375.61L573.36 1370.73L576.08 1368.09L578.96 1365.61L582.96 1362.41L588.08 1359.13L604.16 1349.61C614.399 1344.03 619.123 1339.69 623.76 1328.81L624.72 1326.97L632.32 1310.89L636.4 1303.05" stroke="#C8C8C8" stroke-width="1.92" stroke-miterlimit="10" stroke-linejoin="round"/>
<path d="M1663.92 1829.93L1674.16 1828.17L1678.32 1828.41L1683.6 1830.41L1715.92 1850.33" stroke="#C8C8C8" stroke-width="1.92" stroke-miterlimit="10" stroke-linejoin="round"/>
<path d="M1507.6 341.047L1506.4 333.767L1506.08 332.487C1504.69 329.472 1502.16 326.949 1499.04 325.767L1496.72 325.207L1495.28 325.047L1493.76 324.887L1470.88 323.047L1467.52 322.807L1463.76 322.887L1460.48 323.527L1457.36 324.327L1439.68 330.247L1433.36 332.487" stroke="#C8C8C8" stroke-width="1.92" stroke-miterlimit="10" stroke-linejoin="round"/>
<path d="M1337.44 332.646L1336.24 332.566C1328.9 332.297 1324.42 336.046 1316.72 331.286L1312.4 328.406" stroke="#C8C8C8" stroke-width="1.92" stroke-miterlimit="10" stroke-linejoin="round"/>
<path d="M1348.72 334.246L1344.72 333.766L1341.36 333.206L1338.64 332.726L1337.44 332.646" stroke="#C8C8C8" stroke-width="1.92" stroke-miterlimit="10" stroke-linejoin="round"/>
<path d="M1356.88 334.006L1348.72 334.246" stroke="#C8C8C8" stroke-width="1.92" stroke-miterlimit="10" stroke-linejoin="round"/>
<path d="M1324.16 345.447L1342.16 371.367" stroke="#C8C8C8" stroke-width="1.92" stroke-miterlimit="10" stroke-linejoin="round"/>
<path d="M1312.4 328.407L1324.16 345.447" stroke="#C8C8C8" stroke-width="1.92" stroke-miterlimit="10" stroke-linejoin="round"/>
<path d="M1001.12 416.727L995.12 421.047L987.44 426.647L984.64 429.207L982.4 431.607L981.04 433.447L978.08 439.207" stroke="#C8C8C8" stroke-width="1.92" stroke-miterlimit="10" stroke-linejoin="round"/>
<path d="M1225.28 401.366L1222 406.086L1219.36 409.366L1216.88 411.606L1213.6 413.446L1209.68 415.286L1204.08 417.366L1200.32 418.326L1196.08 418.886L1175.92 419.446L1148.64 420.646L1142.72 420.166L1137.04 418.646L1118.4 410.966L1115.12 408.246L1102.72 395.926L1098.8 392.006L1093.28 388.486L1088 386.486H1081.92L1062.08 390.966L1031.36 398.726L1026 400.246L1021.36 402.246L1017.68 404.646L1001.12 416.726" stroke="#C8C8C8" stroke-width="1.92" stroke-miterlimit="10" stroke-linejoin="round"/>
<path d="M1342.16 371.367L1363.28 401.847L1375.2 419.127" stroke="#C8C8C8" stroke-width="1.92" stroke-miterlimit="10" stroke-linejoin="round"/>
<path d="M1427.52 494.647L1436.32 507.367L1537.68 653.767L1539.92 656.327" stroke="#C8C8C8" stroke-width="1.92" stroke-miterlimit="10" stroke-linejoin="round"/>
<path d="M1275.68 324.166L1263.76 329.686L1261.12 330.966L1258.24 333.046L1255.68 335.686L1253.84 338.566L1236.96 372.966L1234.24 378.486L1232.56 382.246L1225.28 401.366" stroke="#C8C8C8" stroke-width="1.92" stroke-miterlimit="10" stroke-linejoin="round"/>
<path d="M1312.4 328.406L1310.24 325.206L1305.68 320.966C1300.44 317.606 1294.39 316.26 1288.4 318.326L1275.68 324.166" stroke="#C8C8C8" stroke-width="1.92" stroke-miterlimit="10" stroke-linejoin="round"/>
<path d="M1304.4 577.847L1305.44 578.887L1308.72 582.967L1312.16 589.047L1315.28 594.887L1317.92 602.327L1318.88 608.247L1319.04 614.247L1318.56 617.687L1317.2 622.007L1315.28 627.687L1294.72 679.607" stroke="#C8C8C8" stroke-width="1.92" stroke-miterlimit="10" stroke-linejoin="round"/>
<path d="M984.96 407.046L974.4 381.846L943.04 308.086" stroke="#C8C8C8" stroke-width="1.92" stroke-miterlimit="10" stroke-linejoin="round"/>
<path d="M1398.48 827.286L1400.72 828.806C1410.1 833.102 1416.43 829.016 1422.16 821.526L1428.08 812.166" stroke="#C8C8C8" stroke-width="1.92" stroke-miterlimit="10" stroke-linejoin="round"/>
<path d="M1429.12 756.806L1427.76 748.966L1428 743.526L1428.72 740.886L1429.92 738.486L1431.76 735.926L1434.56 733.206L1436.56 731.446L1439.52 730.006L1444.48 727.206L1447.28 725.526L1449.36 723.846L1451.12 722.006L1452.72 720.086L1454.72 717.046L1462.8 704.806L1486.08 669.046L1488.88 665.686L1492.16 662.646L1496.16 659.606L1510.48 649.686L1517.44 644.806L1519.52 643.686L1521.84 642.886L1524 642.566L1527.04 642.646L1529.68 643.206L1531.84 644.086L1533.36 645.126L1535.52 646.806L1537.84 650.486L1538.8 653.046L1539.92 656.326" stroke="#C8C8C8" stroke-width="1.92" stroke-miterlimit="10" stroke-linejoin="round"/>
<path d="M1575.52 1523.29L1582.24 1491.77C1584.31 1482.11 1583.98 1474.6 1581.28 1465.13L1579.84 1459.85" stroke="#C8C8C8" stroke-width="1.92" stroke-miterlimit="10" stroke-linejoin="round"/>
<path d="M1179.84 804.886L1188.24 800.646" stroke="#C8C8C8" stroke-width="1.92" stroke-miterlimit="10" stroke-linejoin="round"/>
<path d="M1171.76 816.646L1172.88 811.606L1174.96 808.246L1177.52 806.086L1179.84 804.886" stroke="#C8C8C8" stroke-width="1.92" stroke-miterlimit="10" stroke-linejoin="round"/>
<path d="M1171.76 816.646L1171.44 825.766L1171.76 828.726L1172.72 832.726L1174.08 836.086L1176.48 839.846L1189.2 859.126" stroke="#C8C8C8" stroke-width="1.92" stroke-miterlimit="10" stroke-linejoin="round"/>
<path d="M1162.08 805.766L1164.88 806.806L1167.6 808.486L1169.28 810.726L1171.12 813.606L1171.76 816.646" stroke="#C8C8C8" stroke-width="1.92" stroke-miterlimit="10" stroke-linejoin="round"/>
<path d="M1142.96 817.847L1148.48 810.407C1150.69 806.716 1155.2 804.959 1159.36 805.207L1162.08 805.767" stroke="#C8C8C8" stroke-width="1.92" stroke-miterlimit="10" stroke-linejoin="round"/>
<path d="M912.32 955.767L922.8 949.767L927.92 946.727L932.96 942.967L935.92 940.327L939.2 936.727L939.52 936.327" stroke="#C8C8C8" stroke-width="1.92" stroke-miterlimit="10" stroke-linejoin="round"/>
<path d="M1398.48 827.286L1414.72 842.966C1419.42 846.781 1423.2 851.277 1425.36 856.966L1426.08 860.566" stroke="#C8C8C8" stroke-width="1.92" stroke-miterlimit="10" stroke-linejoin="round"/>
<path d="M1222.4 783.686L1232.88 781.366L1236.96 780.646L1245.12 779.926C1250.54 779.622 1257.09 782.024 1261.76 784.726L1266.16 787.206L1269.92 788.806C1278.74 791.752 1288.87 788.434 1297.12 793.606L1299.6 795.126L1302.08 797.206L1310.56 805.766L1314.48 809.606L1317.2 811.446L1320.64 813.046L1324 813.926L1329.2 815.206L1347.68 817.846L1357.68 819.526H1361.52L1366 818.886L1368.72 817.766C1373.95 815.109 1380.8 810.753 1386.24 815.526L1388 817.126L1397.92 826.646L1398.48 827.286" stroke="#C8C8C8" stroke-width="1.92" stroke-miterlimit="10" stroke-linejoin="round"/>
<path d="M1428.08 812.167L1427.36 822.807L1426.48 836.007L1426.24 840.567L1426.08 846.087V860.567V893.047L1426.4 897.767L1426.88 901.447L1427.28 903.127L1428.16 906.567C1430.84 917.713 1439.25 929.255 1448.72 935.687L1460.08 943.607" stroke="#C8C8C8" stroke-width="1.92" stroke-miterlimit="10" stroke-linejoin="round"/>
<path d="M1534.32 1312.17L1536.4 1318.81L1543.04 1340.41L1579.84 1459.85" stroke="#C8C8C8" stroke-width="1.92" stroke-miterlimit="10" stroke-linejoin="round"/>
<path d="M1222.4 783.687L1212.64 788.647L1188.24 800.647" stroke="#C8C8C8" stroke-width="1.92" stroke-miterlimit="10" stroke-linejoin="round"/>
<path d="M1286.56 700.887L1265.12 755.607L1264.56 757.047L1263.44 759.207L1262.4 761.207L1261.28 762.647L1260 764.327L1257.6 766.487L1255.2 768.487L1252.8 770.007L1242.48 774.807L1235.28 778.407L1231.2 780.167L1226.24 782.087L1222.4 783.687" stroke="#C8C8C8" stroke-width="1.92" stroke-miterlimit="10" stroke-linejoin="round"/>
<path d="M945.84 927.047L950.88 919.527L952.88 916.247L954.64 913.127L957.84 906.167L962.4 896.487L964.48 892.327L966.8 888.327L969.68 885.047L972.72 882.167L977.6 878.807L981.2 876.887L985.68 875.207L996.48 872.087L1012.08 867.527L1110.56 836.967L1125.44 832.327L1130.32 830.647L1133.28 828.887L1135.84 826.807L1137.92 824.647" stroke="#C8C8C8" stroke-width="1.92" stroke-miterlimit="10" stroke-linejoin="round"/>
<path d="M939.52 936.327L940.88 934.647L945.84 927.047" stroke="#C8C8C8" stroke-width="1.92" stroke-miterlimit="10" stroke-linejoin="round"/>
<path d="M802.16 985.127L810.4 983.207L840.64 975.927L889.92 964.407L899.6 962.007L903.04 960.647L906.88 958.887L912.32 955.767" stroke="#C8C8C8" stroke-width="1.92" stroke-miterlimit="10" stroke-linejoin="round"/>
<path d="M752.08 997.927L768.16 993.287L802.16 985.127" stroke="#C8C8C8" stroke-width="1.92" stroke-miterlimit="10" stroke-linejoin="round"/>
<path d="M1375.2 419.127L1427.52 494.647" stroke="#C8C8C8" stroke-width="1.92" stroke-miterlimit="10" stroke-linejoin="round"/>
<path d="M1589.36 665.927L1595.2 667.367L1600.4 670.327L1605.76 676.087L1609.28 682.007" stroke="#C8C8C8" stroke-width="1.92" stroke-miterlimit="10" stroke-linejoin="round"/>
<path d="M1578.48 665.927H1589.36" stroke="#C8C8C8" stroke-width="1.92" stroke-miterlimit="10" stroke-linejoin="round"/>
<path d="M1539.92 656.327L1542.08 658.887L1546.64 662.407L1551.92 664.727L1556.4 665.767L1578.48 665.927" stroke="#C8C8C8" stroke-width="1.92" stroke-miterlimit="10" stroke-linejoin="round"/>
<path d="M1609.28 682.007L1611.04 687.847L1611.76 691.607L1610.8 729.047L1610.96 742.807L1613.76 750.327L1628.08 770.887C1638.16 785.207 1654.56 793.767 1672.08 793.607H1671.68C1682.88 793.447 1693.76 797.447 1702.08 804.887L1707.6 809.847L1710.8 812.647L1715.36 815.767L1719.2 817.527L1738 825.447L1746.56 830.327L1757.52 836.807L1763.6 837.607L1770.56 836.487L1776.32 833.847L1779.68 831.207" stroke="#C8C8C8" stroke-width="1.92" stroke-miterlimit="10" stroke-linejoin="round"/>
<path d="M1428.56 792.487L1428.4 802.327L1428.16 811.447L1428.08 812.167" stroke="#C8C8C8" stroke-width="1.92" stroke-miterlimit="10" stroke-linejoin="round"/>
<path d="M1429.12 756.807V757.047L1428.64 783.927L1428.56 792.487" stroke="#C8C8C8" stroke-width="1.92" stroke-miterlimit="10" stroke-linejoin="round"/>
<path d="M1460.08 943.607L1474.72 953.767L1525.84 989.607" stroke="#C8C8C8" stroke-width="1.92" stroke-miterlimit="10" stroke-linejoin="round"/>
<path d="M1527.6 1052.41L1542 1034.73L1546.16 1024.49L1543.84 1035.77L1500.24 1183.61L1499.36 1189.45V1194.65L1499.92 1199.77L1500.72 1204.25L1501.84 1208.09" stroke="#C8C8C8" stroke-width="1.92" stroke-miterlimit="10" stroke-linejoin="round"/>
<path d="M1525.84 989.607L1535.28 996.247L1538.8 999.447L1541.44 1003.05L1542.72 1004.97L1546.4 1015.85L1546.16 1024.49" stroke="#C8C8C8" stroke-width="1.92" stroke-miterlimit="10" stroke-linejoin="round"/>
<path d="M1581.28 1010.25L1560.32 1029.37L1552.96 1035.61L1548.48 1038.97L1527.6 1052.41" stroke="#C8C8C8" stroke-width="1.92" stroke-miterlimit="10" stroke-linejoin="round"/>
<path d="M1852.56 833.687L1834 833.367L1825.68 831.127L1817.6 827.127L1804.48 814.887L1799.92 812.967L1795.44 812.807L1792.48 813.287L1788.08 815.847L1785.28 819.127L1783.68 824.007L1781.52 828.247L1779.68 831.207" stroke="#C8C8C8" stroke-width="1.92" stroke-miterlimit="10" stroke-linejoin="round"/>
<path d="M1866.16 827.687L1858.08 832.407L1852.56 833.687" stroke="#C8C8C8" stroke-width="1.92" stroke-miterlimit="10" stroke-linejoin="round"/>
<path d="M1927.92 788.087L1866.16 827.687" stroke="#C8C8C8" stroke-width="1.92" stroke-miterlimit="10" stroke-linejoin="round"/>
<path d="M1981.6 753.687L1927.92 788.087" stroke="#C8C8C8" stroke-width="1.92" stroke-miterlimit="10" stroke-linejoin="round"/>
<path d="M1589.44 1002.81L1581.28 1010.25" stroke="#C8C8C8" stroke-width="1.92" stroke-miterlimit="10" stroke-linejoin="round"/>
<path d="M1620.32 986.327L1604.88 990.167L1601.04 992.247L1589.44 1002.81" stroke="#C8C8C8" stroke-width="1.92" stroke-miterlimit="10" stroke-linejoin="round"/>
<path d="M1632.8 982.887L1630 983.927L1620.32 986.327" stroke="#C8C8C8" stroke-width="1.92" stroke-miterlimit="10" stroke-linejoin="round"/>
<path d="M1851.52 915.047L1871.6 888.407" stroke="#C8C8C8" stroke-width="1.92" stroke-miterlimit="10" stroke-linejoin="round"/>
<path d="M1919.44 1083.93L1921.6 1086.17L1923.84 1088.97L1926.08 1091.69L1936.72 1107.13L1939.44 1111.05L1941.12 1113.77L1942.4 1116.89L1943.68 1120.33L1944.32 1122.49L1945.2 1126.25L1945.76 1130.17C1946.34 1142.34 1943.83 1151.16 1935.84 1160.57L1932.64 1164.01L1786.4 1320.25C1771.84 1335.77 1764 1356.49 1764.48 1377.77L1765.76 1402.01" stroke="#C8C8C8" stroke-width="1.92" stroke-miterlimit="10" stroke-linejoin="round"/>
<path d="M1884 1049.69L1884.08 1050.25L1884.96 1052.81L1886.72 1056.33L1889.84 1060.17L1896 1066.09L1914.16 1079.13L1917.36 1081.61L1919.44 1083.93" stroke="#C8C8C8" stroke-width="1.92" stroke-miterlimit="10" stroke-linejoin="round"/>
<path d="M1851.52 915.047C1840.72 929.447 1838.24 948.487 1845.04 965.127" stroke="#C8C8C8" stroke-width="1.92" stroke-miterlimit="10" stroke-linejoin="round"/>
<path d="M1882.72 1037.05L1883.76 1048.01L1884 1049.69" stroke="#C8C8C8" stroke-width="1.92" stroke-miterlimit="10" stroke-linejoin="round"/>
<path d="M1845.04 965.127C1846.4 968.407 1848.08 971.527 1850.08 974.407L1865.84 997.767L1874.96 1011.77L1877.52 1015.77L1879.84 1020.17L1881.12 1023.61L1881.6 1026.09L1882.72 1037.05" stroke="#C8C8C8" stroke-width="1.92" stroke-miterlimit="10" stroke-linejoin="round"/>
<path d="M1059.28 1360.97L998.4 1393.77L992.8 1397.05L988.64 1399.85L984.64 1402.97L892.4 1482.89L884.24 1489.93L878.8 1493.85L873.28 1497.05L864.72 1501.05" stroke="#C8C8C8" stroke-width="1.92" stroke-miterlimit="10" stroke-linejoin="round"/>
<path d="M1067.6 1356.49L1059.28 1360.97" stroke="#C8C8C8" stroke-width="1.92" stroke-miterlimit="10" stroke-linejoin="round"/>
<path d="M1361.52 1171.85L1351.84 1176.17L1341.2 1180.97L1330.56 1185.05L1324.08 1187.85L1317.2 1192.33L1311.04 1197.53L1304.48 1204.65L1240.4 1280.73L1233.44 1288.33L1227.52 1292.89L1221.2 1296.73L1215.36 1299.13L1210.32 1300.65L1201.52 1302.01L1151.52 1308.33L1145.28 1309.21L1139.2 1310.73L1133.92 1312.81C1121.25 1318.33 1117.01 1326.68 1107.04 1334.81L1101.52 1338.17L1078.88 1350.41" stroke="#C8C8C8" stroke-width="1.92" stroke-miterlimit="10" stroke-linejoin="round"/>
<path d="M1436.08 1130.25L1420.64 1144.81L1413.84 1149.85" stroke="#C8C8C8" stroke-width="1.92" stroke-miterlimit="10" stroke-linejoin="round"/>
<path d="M1527.6 1052.41L1508.48 1064.81L1501.76 1069.29L1496.24 1073.45L1491.04 1078.01L1437.6 1128.81L1436.08 1130.25" stroke="#C8C8C8" stroke-width="1.92" stroke-miterlimit="10" stroke-linejoin="round"/>
<path d="M1078.88 1350.41L1067.6 1356.49" stroke="#C8C8C8" stroke-width="1.92" stroke-miterlimit="10" stroke-linejoin="round"/>
<path d="M1561.12 1511.05L1558.88 1506.01L1551.68 1486.97L1544.4 1464.81L1543.36 1461.69L1542.72 1458.81L1542.48 1455.85L1542.56 1453.13L1542.88 1449.85" stroke="#C8C8C8" stroke-width="1.92" stroke-miterlimit="10" stroke-linejoin="round"/>
<path d="M1458.08 1202.81L1452.4 1193.69" stroke="#C8C8C8" stroke-width="1.92" stroke-miterlimit="10" stroke-linejoin="round"/>
<path d="M1435.84 1152.49L1431.92 1149.13L1426.8 1147.53L1418.8 1148.25L1413.84 1149.85" stroke="#C8C8C8" stroke-width="1.92" stroke-miterlimit="10" stroke-linejoin="round"/>
<path d="M1452.4 1193.69L1449.28 1188.73L1447.52 1185.05L1445.52 1180.09L1438.08 1156.25L1435.84 1152.49" stroke="#C8C8C8" stroke-width="1.92" stroke-miterlimit="10" stroke-linejoin="round"/>
<path d="M1780 1492.33L1769.12 1455.93L1768.56 1452.01L1767.76 1447.05L1767.36 1443.45L1766.24 1414.41L1765.76 1402.01" stroke="#C8C8C8" stroke-width="1.92" stroke-miterlimit="10" stroke-linejoin="round"/>
<path d="M1786.08 1511.77L1780 1492.33" stroke="#C8C8C8" stroke-width="1.92" stroke-miterlimit="10" stroke-linejoin="round"/>
<path d="M1788.48 1519.69L1786.08 1511.77" stroke="#C8C8C8" stroke-width="1.92" stroke-miterlimit="10" stroke-linejoin="round"/>
<path d="M1501.84 1208.09L1534.32 1312.17" stroke="#C8C8C8" stroke-width="1.92" stroke-miterlimit="10" stroke-linejoin="round"/>
<path d="M1381.52 1163.61L1372.72 1166.97L1365.52 1170.09L1361.52 1171.85" stroke="#C8C8C8" stroke-width="1.92" stroke-miterlimit="10" stroke-linejoin="round"/>
<path d="M1413.84 1149.85L1405.84 1154.33L1395.92 1158.09L1381.52 1163.61" stroke="#C8C8C8" stroke-width="1.92" stroke-miterlimit="10" stroke-linejoin="round"/>
<path d="M1225.28 401.367L1225.12 402.087L1225.04 402.887C1223.81 416.639 1235.53 415.243 1243.84 421.207L1245.36 422.407L1247.68 424.567L1272 446.007L1273.92 447.847L1276 450.167L1277.6 452.567L1279.04 455.687L1280.32 460.007L1280.64 463.767L1280.4 467.367L1279.68 472.487L1278.64 480.247L1276.4 498.007L1273.28 522.487L1273.2 530.807L1273.84 536.647L1275.28 542.967L1277.44 549.047L1280.4 553.927L1285.2 560.327L1294.48 568.487L1300.88 574.647L1304.4 577.847" stroke="#C8C8C8" stroke-width="1.92" stroke-miterlimit="10" stroke-linejoin="round"/>
<path d="M522.8 1024.89L518.16 1009.37L518 1006.81L518.32 1003.45L519.44 1001.21L521.84 998.487L538.8 984.967L541.44 982.887L543.76 982.007L546.32 981.527L549.2 981.367L552.64 981.767" stroke="#C8C8C8" stroke-width="1.92" stroke-miterlimit="10" stroke-linejoin="round"/>
<path d="M493.28 1063.93L494 1062.81L496 1060.49L498.72 1058.33L502 1056.89L504.56 1056.25L519.6 1051.61L521.92 1050.41L523.92 1048.57L525.36 1047.05L526.72 1043.93L527.2 1041.29L526.88 1038.57L522.8 1024.89" stroke="#C8C8C8" stroke-width="1.92" stroke-miterlimit="10" stroke-linejoin="round"/>
<path d="M481.36 1086.01L471.6 1104.25L470.4 1107.85" stroke="#C8C8C8" stroke-width="1.92" stroke-miterlimit="10" stroke-linejoin="round"/>
<path d="M493.28 1063.93L491.92 1066.09L481.36 1086.01" stroke="#C8C8C8" stroke-width="1.92" stroke-miterlimit="10" stroke-linejoin="round"/>
<path d="M458.96 1088.09L433.84 1084.89" stroke="#C8C8C8" stroke-width="1.92" stroke-miterlimit="10" stroke-linejoin="round"/>
<path d="M466.16 1131.45L446.72 1154.57" stroke="#C8C8C8" stroke-width="1.92" stroke-miterlimit="10" stroke-linejoin="round"/>
<path d="M478.64 1123.53L475.68 1123.93L472.72 1124.97L470.56 1126.49L468.64 1128.49L466.16 1131.45" stroke="#C8C8C8" stroke-width="1.92" stroke-miterlimit="10" stroke-linejoin="round"/>
<path d="M661.92 1036.65L682.4 1029.05L685.28 1027.77L687.92 1026.49L711.44 1012.49L717.44 1008.97L719.36 1007.85L721.12 1007.13L723.52 1006.17L726.8 1005.05L752.08 997.927" stroke="#C8C8C8" stroke-width="1.92" stroke-miterlimit="10" stroke-linejoin="round"/>
<path d="M583.92 1066.41L585.36 1065.37L587.92 1063.93L590.24 1062.81L596.32 1060.25L607.44 1056.33L614.4 1053.77L651.12 1040.65L661.92 1036.65" stroke="#C8C8C8" stroke-width="1.92" stroke-miterlimit="10" stroke-linejoin="round"/>
<path d="M797.04 860.967L831.36 878.007L834.88 879.447L838.16 880.247L843.52 880.647L861.36 880.247L870.48 880.007L874.72 880.487L878.8 882.087L888.24 887.367L909.6 899.687L912.32 901.527L914 903.367L916 906.007L917.36 908.647L926 934.167L927.2 935.687L927.92 936.087L930.08 937.207L932.16 937.687L936.4 937.447L939.52 936.327" stroke="#C8C8C8" stroke-width="1.92" stroke-miterlimit="10" stroke-linejoin="round"/>
<path d="M866.32 544.567L892.72 523.607" stroke="#C8C8C8" stroke-width="1.92" stroke-miterlimit="10" stroke-linejoin="round"/>
<path d="M1499.04 374.887L1505.68 361.207C1508.63 355.283 1509.8 354.278 1508.8 348.327L1507.6 341.047" stroke="#C8C8C8" stroke-width="1.92" stroke-miterlimit="10" stroke-linejoin="round"/>
<path d="M1439.04 390.727L1458.8 400.407L1460.72 401.207L1463.04 401.927L1465.76 402.247L1468.24 402.167L1470.24 401.767L1472.64 401.127L1483.52 397.287L1487.52 395.607L1489.04 394.247L1490.32 392.727L1491.52 390.487L1499.04 374.887" stroke="#C8C8C8" stroke-width="1.92" stroke-miterlimit="10" stroke-linejoin="round"/>
<path d="M1356.88 334.007L1405.52 333.047" stroke="#C8C8C8" stroke-width="1.92" stroke-miterlimit="10" stroke-linejoin="round"/>
<path d="M1327.84 434.487L1359.52 417.047L1361.28 416.007L1365.52 415.127L1369.92 415.927L1374 418.167L1375.2 419.127" stroke="#C8C8C8" stroke-width="1.92" stroke-miterlimit="10" stroke-linejoin="round"/>
<path d="M1137.92 824.647L1142.96 817.847" stroke="#C8C8C8" stroke-width="1.92" stroke-miterlimit="10" stroke-linejoin="round"/>
<path d="M1151.44 612.727L1177.04 636.807" stroke="#C8C8C8" stroke-width="1.92" stroke-miterlimit="10" stroke-linejoin="round"/>
<path d="M1469.28 942.967L1476 948.007L1484.56 952.967L1494 961.847L1513.6 975.847L1522.32 978.167L1536.24 975.287L1550 971.767L1558 972.247L1567.68 974.567L1615.68 984.487L1628.48 983.287L1632.8 982.887" stroke="#C8C8C8" stroke-width="1.92" stroke-miterlimit="10" stroke-linejoin="round"/>
<path d="M1427.28 903.127L1432.8 912.007L1442.8 923.207L1460.88 936.727L1469.28 942.967" stroke="#C8C8C8" stroke-width="1.92" stroke-miterlimit="10" stroke-linejoin="round"/>
<path d="M1659.04 954.647L1651.84 967.127L1645.52 975.527L1638.24 980.727L1632.8 982.887" stroke="#C8C8C8" stroke-width="1.92" stroke-miterlimit="10" stroke-linejoin="round"/>
<path d="M1734.72 867.047L1714.08 883.047L1710.88 886.407C1703.34 897.143 1706.49 899.351 1703.36 910.087L1701.6 914.327L1697.68 918.887L1692.32 921.687L1682.72 924.407L1675.52 929.607L1669.04 937.287L1659.04 954.647" stroke="#C8C8C8" stroke-width="1.92" stroke-miterlimit="10" stroke-linejoin="round"/>
<path d="M1779.68 831.207L1778.08 832.967L1775.68 835.207L1770 839.687L1761.36 846.407L1742.32 861.047L1734.72 867.047" stroke="#C8C8C8" stroke-width="1.92" stroke-miterlimit="10" stroke-linejoin="round"/>
<path d="M1871.6 888.407L1873.84 883.207L1875.12 876.647L1874.96 869.927L1867.6 852.407" stroke="#C8C8C8" stroke-width="1.92" stroke-miterlimit="10" stroke-linejoin="round"/>
<path d="M1862.56 840.247L1858.16 836.087L1852.56 833.687" stroke="#C8C8C8" stroke-width="1.92" stroke-miterlimit="10" stroke-linejoin="round"/>
<path d="M1867.6 852.407L1862.56 840.247" stroke="#C8C8C8" stroke-width="1.92" stroke-miterlimit="10" stroke-linejoin="round"/>
<path d="M1745.2 1370.41L1671.52 1309.37L1668.32 1306.33L1665.76 1303.13L1664.08 1299.77L1661.76 1294.97L1652.64 1268.57" stroke="#C8C8C8" stroke-width="1.92" stroke-miterlimit="10" stroke-linejoin="round"/>
<path d="M1765.76 1402.01L1765.04 1396.33L1763.68 1391.85L1761.6 1387.05L1758.56 1382.41L1753.76 1377.53L1745.2 1370.41" stroke="#C8C8C8" stroke-width="1.92" stroke-miterlimit="10" stroke-linejoin="round"/>
<path d="M2029.84 1837.29L2062.48 1805.77L2079.68 1789.21L2085.92 1782.97L2091.2 1778.73L2097.2 1775.85L2125.44 1765.93" stroke="#C8C8C8" stroke-width="1.92" stroke-miterlimit="10" stroke-linejoin="round"/>
<path d="M1979.28 2165.69L1990.8 2175.21L1999.92 2182.57L2002.32 2184.57L2004 2186.41L2005.04 2188.49L2006 2191.29L2007.2 2196.49L2008 2199.45L2009.36 2201.85L2010.64 2203.53L2012.48 2205.61" stroke="#C8C8C8" stroke-width="1.92" stroke-miterlimit="10" stroke-linejoin="round"/>
<path d="M1868.48 2097.21L1868.8 2099.61L1869.28 2101.13C1870.15 2104.75 1872.74 2107.76 1875.68 2109.93L1877.04 2110.73L1878.8 2111.53L1880.72 2112.33L1882.32 2112.97L1927.76 2130.25L1937.76 2134.09L1941.28 2135.53L1944.24 2137.37L1946.96 2139.29L1950.32 2142.01L1979.28 2165.69" stroke="#C8C8C8" stroke-width="1.92" stroke-miterlimit="10" stroke-linejoin="round"/>
<path d="M1885.36 2009.13L1907.76 1961.53" stroke="#C8C8C8" stroke-width="1.92" stroke-miterlimit="10" stroke-linejoin="round"/>
<path d="M1959.68 1871.05H1960.48L1963.36 1870.81L1966.16 1870.33L1968.8 1869.77L1971.04 1869.05L1974.24 1867.77L1979.36 1865.53L1987.28 1861.77L2011.12 1851.61L2015.52 1849.37L2018.48 1847.61L2021.84 1844.97L2029.84 1837.29" stroke="#C8C8C8" stroke-width="1.92" stroke-miterlimit="10" stroke-linejoin="round"/>
<path d="M1924.8 1864.73L1927.84 1865.29L1949.6 1870.09L1952.24 1870.57L1954.72 1870.89L1957.6 1871.05H1959.68" stroke="#C8C8C8" stroke-width="1.92" stroke-miterlimit="10" stroke-linejoin="round"/>
<path d="M1669.92 1787.05L1667.84 1800.65L1666.72 1805.93L1665.28 1809.93L1662.48 1812.97L1648 1824.01" stroke="#C8C8C8" stroke-width="1.92" stroke-miterlimit="10" stroke-linejoin="round"/>
<path d="M1708.32 1739.53L1706.8 1741.93L1704.88 1743.69L1702 1745.93L1693.04 1751.85L1677.76 1761.77L1674.48 1764.25L1672.88 1767.53L1671.92 1770.73L1669.92 1786.89V1787.05" stroke="#C8C8C8" stroke-width="1.92" stroke-miterlimit="10" stroke-linejoin="round"/>
<path d="M1658.48 1534.49L1665.2 1537.61" stroke="#C8C8C8" stroke-width="1.92" stroke-miterlimit="10" stroke-linejoin="round"/>
<path d="M1563.28 1534.89L1563.44 1537.05L1563.84 1538.57L1571.52 1570.65" stroke="#C8C8C8" stroke-width="1.92" stroke-miterlimit="10" stroke-linejoin="round"/>
<path d="M469.44 1344.17L476.48 1337.85L487.92 1328.25L492.08 1323.61L494.64 1319.61L497.52 1314.33L506.32 1298.25L507.76 1293.77L508 1289.61L507.36 1284.65L507.52 1279.37L508.8 1275.05L510.96 1270.65L513.68 1266.97L529.2 1242.89L531.44 1238.25L532.16 1234.73L532.56 1229.45L531.52 1218.01L530.64 1206.09L529.12 1201.37L526.88 1198.49L523.36 1195.61L507.28 1188.25L503.36 1187.13L489.28 1186.09L485.28 1186.25L481.52 1187.69L478.24 1190.41L471.52 1197.69L469.12 1200.09L466.48 1201.69L462.64 1202.49L459.36 1202.33L456.24 1201.21L452.8 1200.01L450 1199.69L446.48 1200.25L440.32 1202.09L435.92 1203.05H431.44L421.52 1202.49" stroke="#C8C8C8" stroke-width="1.92" stroke-miterlimit="10" stroke-linejoin="round"/>
<path d="M497.44 1439.45L486.48 1427.45L481.52 1419.85L478.88 1411.61L474.8 1392.01L473.52 1387.53L470.88 1383.85L466.32 1379.21L461.12 1373.77L457.84 1368.33L457.12 1362.01L458 1357.45L461.28 1351.53L469.44 1344.17" stroke="#C8C8C8" stroke-width="1.92" stroke-miterlimit="10" stroke-linejoin="round"/>
<path d="M542.4 1482.17L541.76 1479.77L540.88 1477.77L539.6 1475.85L537.52 1474.01L534.16 1472.33L526 1468.33L523.12 1466.89L521.68 1465.77L520.64 1464.73L497.44 1439.45" stroke="#C8C8C8" stroke-width="1.92" stroke-miterlimit="10" stroke-linejoin="round"/>
<path d="M1444.4 1893.37L1472.16 1869.69" stroke="#C8C8C8" stroke-width="1.92" stroke-miterlimit="10" stroke-linejoin="round"/>
<path d="M1493.04 1858.01L1521.84 1844.33L1526 1842.33L1531.44 1838.49L1542.96 1828.09L1555.44 1818.09" stroke="#C8C8C8" stroke-width="1.92" stroke-miterlimit="10" stroke-linejoin="round"/>
<path d="M1472.16 1869.69L1475.6 1866.73L1479.52 1864.41L1493.04 1858.01" stroke="#C8C8C8" stroke-width="1.92" stroke-miterlimit="10" stroke-linejoin="round"/>
<path d="M1638 1824.89L1643.76 1829.53L1647.2 1831.45L1650.4 1831.69L1655.28 1831.37" stroke="#C8C8C8" stroke-width="1.92" stroke-miterlimit="10" stroke-linejoin="round"/>
<path d="M1555.44 1818.09L1563.92 1814.73L1569.2 1813.85L1605.84 1812.25L1611.84 1812.01L1617.84 1812.65L1623.6 1814.49L1628.8 1817.53L1638 1824.89" stroke="#C8C8C8" stroke-width="1.92" stroke-miterlimit="10" stroke-linejoin="round"/>
<path d="M1770.88 1882.17L1777.6 1883.21L1808.88 1886.81L1811.76 1886.89L1815.84 1886.73L1820.56 1886.09L1876.4 1873.77L1894.72 1869.61L1915.68 1865.13L1918.64 1864.57H1921.76L1924.8 1864.73" stroke="#C8C8C8" stroke-width="1.92" stroke-miterlimit="10" stroke-linejoin="round"/>
<path d="M1715.92 1850.33L1745.12 1868.25L1758 1876.65L1759.68 1877.77L1765.12 1880.33L1770.88 1882.17" stroke="#C8C8C8" stroke-width="1.92" stroke-miterlimit="10" stroke-linejoin="round"/>
<path d="M597.6 1831.21L599.84 1832.09L602 1831.93L603.92 1830.89L606.88 1828.49L608.96 1827.29L636.24 1816.17L647.52 1811.53L651.68 1809.85L654.32 1809.37L658.24 1809.13" stroke="#C8C8C8" stroke-width="1.92" stroke-miterlimit="10" stroke-linejoin="round"/>
<path d="M574.8 1818.65L597.6 1831.21" stroke="#C8C8C8" stroke-width="1.92" stroke-miterlimit="10" stroke-linejoin="round"/>
</svg>
