<svg width="2515" height="2520" viewBox="0 0 2515 2520" fill="none" xmlns="http://www.w3.org/2000/svg">
<path d="M986 409.927L986.64 411.127C988.839 415.325 993.151 417.272 997.76 417.047L1001.12 416.727" stroke="#CCB265" stroke-width="6.64" stroke-miterlimit="10" stroke-linejoin="round"/>
<path d="M1430.64 1900.81L1433.76 1899.69L1436.56 1898.09L1439.76 1896.33L1442.8 1894.49L1444.4 1893.37" stroke="#CCB265" stroke-width="6.64" stroke-miterlimit="10" stroke-linejoin="round"/>
<path d="M1794.72 1777.69L1801.36 1784.81L1804.64 1788.41L1805.76 1789.85L1806.48 1791.29L1806.88 1792.49" stroke="#CCB265" stroke-width="6.64" stroke-miterlimit="10" stroke-linejoin="round"/>
<path d="M1107.52 1805.45L1110.8 1812.01L1111.92 1817.61V1822.97L1110.32 1829.69" stroke="#CCB265" stroke-width="6.64" stroke-miterlimit="10" stroke-linejoin="round"/>
<path d="M913.6 1541.29L911.36 1537.53L908.08 1534.25L903.76 1531.45L899.84 1530.41L894.32 1530.33C885.052 1530.15 875.395 1533.07 867.28 1527.05L864 1524.33L857.36 1516.09L854 1512.49L851.04 1511.13L847.52 1511.21L830.48 1519.37" stroke="#CCB265" stroke-width="6.64" stroke-miterlimit="10" stroke-linejoin="round"/>
<path d="M1862.56 840.247L1861.68 834.727L1862.88 830.727L1866.16 827.687" stroke="#CCB265" stroke-width="6.64" stroke-miterlimit="10" stroke-linejoin="round" stroke-dasharray="6.64 4"/>
<path d="M1405.52 333.047L1433.36 332.487" stroke="#CCB265" stroke-width="6.64" stroke-miterlimit="10" stroke-linejoin="round"/>
<path d="M1337.44 332.647L1331.04 334.087L1329.36 334.647L1327.76 335.687L1326.08 337.287L1324.72 339.527L1324.32 341.367L1324.16 345.447" stroke="#CCB265" stroke-width="6.64" stroke-miterlimit="10" stroke-linejoin="round"/>
<path d="M951.44 1678.65L957.68 1684.57L962.64 1688.33L987.76 1701.93" stroke="#CCB265" stroke-width="6.64" stroke-miterlimit="10" stroke-linejoin="round"/>
<path d="M913.6 1541.29L940.8 1653.77L943.2 1663.69L946.56 1671.53L951.44 1678.65" stroke="#CCB265" stroke-width="6.64" stroke-miterlimit="10" stroke-linejoin="round"/>
<path d="M1064 1788.09L1095.04 1796.73L1098.56 1798.09L1101.6 1799.77L1104.56 1802.09L1107.52 1805.45" stroke="#CCB265" stroke-width="6.64" stroke-miterlimit="10" stroke-linejoin="round"/>
<path d="M987.76 1701.93L1004.16 1710.81L1010.16 1715.13L1015.04 1720.65L1017.68 1726.09L1019.68 1732.89L1026 1760.57L1027.76 1765.77L1029.84 1769.85L1032.8 1774.17L1036.16 1777.29L1039.84 1780.01L1043.52 1781.85L1050.16 1784.17L1064 1788.09" stroke="#CCB265" stroke-width="6.64" stroke-miterlimit="10" stroke-linejoin="round"/>
<path d="M1075.28 1903.85L1072.32 1912.41L1071.52 1918.89L1072.24 1925.37L1074.56 1932.41L1077.92 1938.49L1082.4 1944.57L1091.44 1954.33L1113.92 1970.65" stroke="#CCB265" stroke-width="6.64" stroke-miterlimit="10" stroke-linejoin="round"/>
<path d="M1102.56 1846.09L1075.28 1903.85" stroke="#CCB265" stroke-width="6.64" stroke-miterlimit="10" stroke-linejoin="round"/>
<path d="M1110.32 1829.69L1102.56 1846.09" stroke="#CCB265" stroke-width="6.64" stroke-miterlimit="10" stroke-linejoin="round"/>
<path d="M1415.52 1903.37L1430.64 1900.81" stroke="#CCB265" stroke-width="6.64" stroke-miterlimit="10" stroke-linejoin="round"/>
<path d="M1555.44 1818.09L1562.56 1814.57L1584.08 1805.53L1587.6 1804.49L1591.2 1804.09L1594.88 1804.49L1598.24 1805.93L1601.2 1808.01L1610.88 1819.61L1614 1822.49L1617.6 1824.73L1622.48 1826.73L1637.2 1832.81" stroke="#CCB265" stroke-width="6.64" stroke-miterlimit="10" stroke-linejoin="round"/>
<path d="M1712.32 1886.17L1721.68 1888.17L1725.84 1888.89H1728.64L1730.88 1888.49L1740.32 1883.77L1746.88 1881.29L1752.4 1879.53L1757.04 1878.41" stroke="#CCB265" stroke-width="6.64" stroke-miterlimit="10" stroke-linejoin="round"/>
<path d="M1637.2 1832.81L1642.8 1835.13L1646.32 1836.81L1648.72 1838.33L1650.88 1840.09L1684.64 1874.09L1688.24 1877.45L1691.28 1879.69L1694.96 1881.69L1699.12 1883.37L1712.32 1886.17" stroke="#CCB265" stroke-width="6.64" stroke-miterlimit="10" stroke-linejoin="round"/>
<path d="M1784.16 1763.13L1750.72 1706.57L1741.68 1691.29" stroke="#CCB265" stroke-width="6.64" stroke-miterlimit="10" stroke-linejoin="round"/>
<path d="M1794.72 1777.69L1791.44 1774.57L1789.04 1771.61L1787.68 1769.13L1786.72 1767.45L1784.16 1763.13" stroke="#CCB265" stroke-width="6.64" stroke-miterlimit="10" stroke-linejoin="round"/>
<path d="M1794.72 1777.69L1797.52 1779.69L1800.32 1781.05L1803.6 1782.25L1806.48 1782.81L1821.84 1784.41L1826.72 1785.05L1829.92 1785.61L1833.12 1786.33L1843.84 1789.29L1850.48 1791.37L1855.76 1793.61L1860.72 1796.49L1864.56 1798.89" stroke="#CCB265" stroke-width="6.64" stroke-miterlimit="10" stroke-linejoin="round"/>
<path d="M1830.8 1755.29L1841.44 1746.09L1842.72 1745.21L1843.84 1744.57L1845.52 1743.93L1863.84 1737.53" stroke="#CCB265" stroke-width="6.64" stroke-miterlimit="10" stroke-linejoin="round"/>
<path d="M1830.8 1755.29L1834.24 1754.01H1836.64L1838.32 1754.65L1840.16 1755.61L1841.68 1756.97L1852.56 1767.13L1854.96 1769.77" stroke="#CCB265" stroke-width="6.64" stroke-miterlimit="10" stroke-linejoin="round"/>
<path d="M1806.88 1792.49L1806.8 1791.69V1786.65L1807.6 1781.69L1808.96 1778.09L1810.64 1774.57L1812.64 1771.69L1815.28 1768.81L1823.76 1761.45L1830.8 1755.29" stroke="#CCB265" stroke-width="6.64" stroke-miterlimit="10" stroke-linejoin="round"/>
<path d="M1808.08 1814.73L1807.28 1799.77L1806.88 1792.49" stroke="#CCB265" stroke-width="6.64" stroke-miterlimit="10" stroke-linejoin="round"/>
<path d="M1854.96 1769.77L1856.56 1772.65C1859.07 1778.71 1857.5 1786.46 1859.76 1793.29L1861.28 1795.93L1864.56 1798.89" stroke="#CCB265" stroke-width="6.64" stroke-miterlimit="10" stroke-linejoin="round"/>
<path d="M1802.8 1794.09L1797.68 1793.05L1791.44 1790.97L1789.2 1790.09" stroke="#CCB265" stroke-width="6.64" stroke-miterlimit="10" stroke-linejoin="round"/>
<path d="M1894.48 1816.97L1910.24 1826.49L1912.72 1828.09" stroke="#CCB265" stroke-width="6.64" stroke-miterlimit="10" stroke-linejoin="round"/>
<path d="M1864.56 1798.89L1870.64 1802.41L1894.48 1816.97" stroke="#CCB265" stroke-width="6.64" stroke-miterlimit="10" stroke-linejoin="round"/>
<path d="M2151.04 1774.81L2154 1777.53L2156.32 1780.89L2165.84 1804.57L2170.48 1816.57L2180.24 1842.01L2181.76 1845.61L2184.08 1848.97L2186.56 1851.85L2191.84 1857.29L2205.76 1870.97L2209.44 1873.29L2213.04 1875.05L2216.96 1875.93L2222.72 1876.17L2226.32 1875.85L2229.44 1875.13L2232.72 1873.93L2293.04 1853.69L2298.72 1852.25L2302.08 1852.17L2305.76 1852.65L2309.52 1854.49L2313.36 1857.21L2315.92 1860.33L2319.36 1865.29L2328.32 1878.33L2330 1880.57L2331.92 1882.57L2336 1885.69L2346.8 1893.85" stroke="#CCB265" stroke-width="6.64" stroke-miterlimit="10" stroke-linejoin="round"/>
<path d="M2131.2 1774.09L2137.52 1772.89L2142.88 1772.49L2147.36 1773.05L2151.04 1774.81" stroke="#CCB265" stroke-width="6.64" stroke-miterlimit="10" stroke-linejoin="round"/>
<path d="M1912.72 1828.09L1915.28 1829.61L1920.64 1831.05L1926.96 1830.81L1931.84 1829.93L1941.2 1825.53L1943.76 1824.89L1946.48 1824.81L1948.48 1824.97L1950.64 1825.53L1960.72 1829.05L1963.04 1829.53L1965.68 1829.77H1968.8L1971.6 1829.37L1974.4 1828.73L1992.72 1825.29L1996.64 1824.01L2038.96 1808.65L2042.08 1807.69L2045.2 1807.05L2047.84 1806.81H2050.64L2065.12 1806.65L2067.12 1806.49L2068.48 1806.17L2069.92 1805.53L2071.76 1804.49L2073.92 1803.13L2075.6 1801.13L2081.04 1793.37L2087.2 1784.57L2089.76 1781.69L2092.56 1779.45L2095.52 1777.45L2101.2 1775.13L2109.12 1772.49L2113.04 1772.01C2119.73 1770.96 2119.73 1775.72 2126.16 1775.05L2131.2 1774.09" stroke="#CCB265" stroke-width="6.64" stroke-miterlimit="10" stroke-linejoin="round"/>
<path d="M1847.76 1853.85L1825.04 1839.85" stroke="#CCB265" stroke-width="6.64" stroke-miterlimit="10" stroke-linejoin="round"/>
<path d="M1932.24 1857.77L1918.88 1835.61L1917.12 1832.57L1915.36 1830.25L1912.72 1828.09" stroke="#CCB265" stroke-width="6.64" stroke-miterlimit="10" stroke-linejoin="round"/>
<path d="M1932.24 1857.77L1934.32 1861.29L1937.28 1866.65L1938.16 1868.57L1938.88 1870.25L1939.52 1873.45L1938.88 1877.85L1938 1880.65" stroke="#CCB265" stroke-width="6.64" stroke-miterlimit="10" stroke-linejoin="round"/>
<path d="M1912.48 1951.53L1913.52 1949.29L1917.6 1940.81L1919.36 1937.13L1920.24 1934.41V1930.73L1919.92 1926.49L1920.24 1922.65L1921.36 1919.45L1923.44 1916.09L1928.48 1909.37L1930.4 1905.77L1933.84 1894.41L1938 1880.65" stroke="#CCB265" stroke-width="6.64" stroke-miterlimit="10" stroke-linejoin="round"/>
<path d="M1868.48 2097.21L1863.68 2143.13L1855.28 2222.41L1854.24 2233.29L1853.76 2235.61L1852.72 2237.61L1851.36 2239.69L1848.64 2241.77L1839.28 2245.45" stroke="#CCB265" stroke-width="6.64" stroke-miterlimit="10" stroke-linejoin="round"/>
<path d="M1907.76 1961.53L1912.48 1951.53" stroke="#CCB265" stroke-width="6.64" stroke-miterlimit="10" stroke-linejoin="round"/>
<path d="M1868.48 2097.21L1874.88 2035.85C1875.48 2028.52 1878.71 2023.64 1881.68 2017.05L1885.36 2009.13" stroke="#CCB265" stroke-width="6.64" stroke-miterlimit="10" stroke-linejoin="round"/>
<path d="M1946.24 1642.49L1949.68 1642.09L1983.2 1637.77" stroke="#CCB265" stroke-width="6.64" stroke-miterlimit="10" stroke-linejoin="round" stroke-dasharray="6.64 4"/>
<path d="M1791.44 1846.17L1772.88 1866.57L1769.36 1870.41L1767.28 1872.25L1764.88 1874.09L1762.16 1875.77L1757.04 1878.41" stroke="#CCB265" stroke-width="6.64" stroke-miterlimit="10" stroke-linejoin="round"/>
<path d="M1808.08 1814.73L1807.92 1819.61L1807.12 1824.17L1806 1827.85L1803.92 1832.01L1800.32 1836.49L1791.44 1846.17" stroke="#CCB265" stroke-width="6.64" stroke-miterlimit="10" stroke-linejoin="round"/>
<path d="M1690.08 1707.53L1683.84 1705.77L1677.92 1704.17L1674.32 1702.65L1670.88 1700.01L1667.84 1696.33L1655.2 1675.45" stroke="#CCB265" stroke-width="6.64" stroke-miterlimit="10" stroke-linejoin="round"/>
<path d="M1946.24 1642.49L1943.28 1642.33L1940.96 1641.53L1937.84 1639.37L1935.2 1635.45L1934.56 1632.57L1934.72 1629.05L1935.6 1626.57L1937.12 1624.33L1939.04 1622.49L1968.88 1595.93L1971.2 1593.45L1972.16 1591.69L1972.96 1589.93L1973.28 1588.01L1973.44 1585.61L1973.28 1583.37L1972.8 1581.37L1972 1579.69L1971.12 1577.85L1969.92 1575.93L1968.4 1573.61L1957.6 1556.89L1955.44 1553.61L1954.4 1550.97L1953.84 1547.85L1953.68 1544.65L1953.52 1541.53L1953.04 1538.41L1952.32 1531.77L1951.6 1528.89L1950.64 1526.89L1949.2 1524.89L1947.28 1523.05L1945.36 1521.61L1941.28 1519.21L1924.16 1510.57L1921.2 1508.81L1919.52 1507.69L1917.68 1506.25L1916.4 1505.05L1914.56 1503.21L1913.04 1501.05L1911.92 1499.13L1910.8 1497.13L1910 1495.93L1908.8 1494.41L1906.64 1492.33L1904 1490.25L1900.56 1488.49L1896.96 1487.29L1893.6 1486.73H1891.36L1889.36 1486.81L1886.88 1487.29L1885.04 1487.85L1882.72 1488.73L1880.8 1489.77L1878.96 1490.97L1866.4 1501.21L1864.72 1503.05L1863.28 1505.13L1862.08 1507.05L1860.64 1510.25L1859.76 1512.41L1858.24 1514.81L1856.8 1516.57L1854.56 1518.57L1852.32 1520.09L1849.92 1521.21L1817.6 1531.05L1814.8 1531.45H1811.36L1807.76 1530.65L1805.2 1529.69L1788.48 1519.69" stroke="#CCB265" stroke-width="6.64" stroke-miterlimit="10" stroke-linejoin="round" stroke-dasharray="6.64 4"/>
<path d="M1832.08 1678.41L1825.12 1682.41" stroke="#CCB265" stroke-width="6.64" stroke-miterlimit="10" stroke-linejoin="round"/>
<path d="M1946.24 1642.49L1939.36 1643.45H1936.24L1933.04 1642.25L1893.28 1616.57L1890 1615.21L1887.2 1614.73L1883.52 1615.37L1880.64 1616.65L1878.4 1618.41L1876.4 1620.81L1875.28 1622.89L1874.48 1625.77L1866.56 1653.85L1865.68 1656.81L1864.4 1659.85L1862.88 1661.93L1860.72 1664.25L1858.64 1665.93L1855.76 1667.45L1840.96 1673.29L1832.08 1678.41M1776.64 1710.73L1825.12 1682.41L1828.48 1679.53L1831.28 1676.81L1834.24 1673.13L1836.72 1669.21L1839.04 1664.09L1840.56 1658.65L1841.36 1653.61L1841.6 1648.33L1840.96 1644.01L1839.92 1639.29L1838.32 1635.37L1788.48 1519.69" stroke="#CCB265" stroke-width="6.64" stroke-miterlimit="10" stroke-linejoin="round" stroke-dasharray="6.64 4"/>
<path d="M1507.6 341.047L1506.4 333.767L1506.08 332.487C1504.69 329.472 1502.16 326.949 1499.04 325.767L1496.72 325.207L1495.28 325.047L1493.76 324.887L1470.88 323.047L1467.52 322.807L1463.76 322.887L1460.48 323.527L1457.36 324.327L1439.68 330.247L1433.36 332.487" stroke="#CCB265" stroke-width="6.64" stroke-miterlimit="10" stroke-linejoin="round"/>
<path d="M1337.44 332.647L1336.24 332.567C1328.9 332.297 1324.42 336.047 1316.72 331.287L1312.4 328.407" stroke="#CCB265" stroke-width="6.64" stroke-miterlimit="10" stroke-linejoin="round"/>
<path d="M1348.72 334.247L1344.72 333.767L1341.36 333.207L1338.64 332.727L1337.44 332.647" stroke="#CCB265" stroke-width="6.64" stroke-miterlimit="10" stroke-linejoin="round"/>
<path d="M1356.88 334.007L1348.72 334.247" stroke="#CCB265" stroke-width="6.64" stroke-miterlimit="10" stroke-linejoin="round"/>
<path d="M1324.16 345.447L1342.16 371.367" stroke="#CCB265" stroke-width="6.64" stroke-miterlimit="10" stroke-linejoin="round"/>
<path d="M1312.4 328.407L1324.16 345.447" stroke="#CCB265" stroke-width="6.64" stroke-miterlimit="10" stroke-linejoin="round"/>
<path d="M1225.28 401.366L1222 406.086L1219.36 409.366L1216.88 411.606L1213.6 413.446L1209.68 415.286L1204.08 417.366L1200.32 418.326L1196.08 418.886L1175.92 419.446L1148.64 420.646L1142.72 420.166L1137.04 418.646L1118.4 410.966L1115.12 408.246L1102.72 395.926L1098.8 392.006L1093.28 388.486L1088 386.486H1081.92L1062.08 390.966L1031.36 398.726L1026 400.246L1021.36 402.246L1017.68 404.646L1001.12 416.726" stroke="#CCB265" stroke-width="6.64" stroke-miterlimit="10" stroke-linejoin="round"/>
<path d="M1342.16 371.367L1363.28 401.847L1375.2 419.127" stroke="#CCB265" stroke-width="6.64" stroke-miterlimit="10" stroke-linejoin="round"/>
<path d="M1427.52 494.647L1436.32 507.367L1537.68 653.767L1539.92 656.327" stroke="#CCB265" stroke-width="6.64" stroke-miterlimit="10" stroke-linejoin="round"/>
<path d="M1275.68 324.166L1263.76 329.686L1261.12 330.966L1258.24 333.046L1255.68 335.686L1253.84 338.566L1236.96 372.966L1234.24 378.486L1232.56 382.246L1225.28 401.366" stroke="#CCB265" stroke-width="6.64" stroke-miterlimit="10" stroke-linejoin="round"/>
<path d="M1312.4 328.406L1310.24 325.206L1305.68 320.966C1300.44 317.606 1294.39 316.26 1288.4 318.326L1275.68 324.166" stroke="#CCB265" stroke-width="6.64" stroke-miterlimit="10" stroke-linejoin="round"/>
<path d="M984.96 407.046L974.4 381.846L943.04 308.086" stroke="#CCB265" stroke-width="6.64" stroke-miterlimit="10" stroke-linejoin="round"/>
<path d="M1375.2 419.126L1427.52 494.646" stroke="#CCB265" stroke-width="6.64" stroke-miterlimit="10" stroke-linejoin="round"/>
<path d="M1589.36 665.927L1595.2 667.367L1600.4 670.327L1605.76 676.087L1609.28 682.007" stroke="#CCB265" stroke-width="6.64" stroke-miterlimit="10" stroke-linejoin="round"/>
<path d="M1578.48 665.926H1589.36" stroke="#CCB265" stroke-width="6.64" stroke-miterlimit="10" stroke-linejoin="round"/>
<path d="M1539.92 656.326L1542.08 658.886L1546.64 662.406L1551.92 664.726L1556.4 665.766L1578.48 665.926" stroke="#CCB265" stroke-width="6.64" stroke-miterlimit="10" stroke-linejoin="round"/>
<path d="M1609.28 682.006L1611.04 687.846L1611.76 691.606L1610.8 729.046L1610.96 742.806L1613.76 750.326L1628.08 770.886C1638.16 785.206 1654.56 793.766 1672.08 793.606H1671.68C1682.88 793.446 1693.76 797.446 1702.08 804.886L1707.6 809.846L1710.8 812.646L1715.36 815.766L1719.2 817.526L1738 825.446L1746.56 830.326L1757.52 836.806L1763.6 837.606L1770.56 836.486L1776.32 833.846L1779.68 831.206" stroke="#CCB265" stroke-width="6.64" stroke-miterlimit="10" stroke-linejoin="round"/>
<path d="M1852.56 833.687L1834 833.367L1825.68 831.127L1817.6 827.127L1804.48 814.887L1799.92 812.967L1795.44 812.807L1792.48 813.287L1788.08 815.847L1785.28 819.127L1783.68 824.007L1781.52 828.247L1779.68 831.207" stroke="#CCB265" stroke-width="6.64" stroke-miterlimit="10" stroke-linejoin="round"/>
<path d="M1866.16 827.687L1858.08 832.407L1852.56 833.687" stroke="#CCB265" stroke-width="6.64" stroke-miterlimit="10" stroke-linejoin="round"/>
<path d="M1927.92 788.087L1866.16 827.687" stroke="#CCB265" stroke-width="6.64" stroke-miterlimit="10" stroke-linejoin="round"/>
<path d="M1981.6 753.687L1927.92 788.087" stroke="#CCB265" stroke-width="6.64" stroke-miterlimit="10" stroke-linejoin="round"/>
<path d="M1851.52 915.047L1871.6 888.407" stroke="#CCB265" stroke-width="6.64" stroke-miterlimit="10" stroke-linejoin="round" stroke-dasharray="6.64 4"/>
<path d="M1919.44 1083.93L1921.6 1086.17L1923.84 1088.97L1926.08 1091.69L1936.72 1107.13L1939.44 1111.05L1941.12 1113.77L1942.4 1116.89L1943.68 1120.33L1944.32 1122.49L1945.2 1126.25L1945.76 1130.17L1945.84 1134.65L1945.52 1139.21L1944.96 1142.65L1944.16 1146.01L1942.64 1150.09L1940.24 1154.49L1938.16 1157.69L1935.84 1160.57L1932.64 1164.01L1786.4 1320.25C1771.84 1335.77 1764 1356.49 1764.48 1377.77L1765.76 1402.01" stroke="#CCB265" stroke-width="6.64" stroke-miterlimit="10" stroke-linejoin="round" stroke-dasharray="6.64 4"/>
<path d="M1919.44 1083.93L1917.36 1081.61L1914.16 1079.13L1896 1066.09L1889.84 1060.17L1886.72 1056.33L1884.96 1052.81L1884.08 1050.25L1884 1049.69L1883.76 1048.01L1882.72 1037.05L1881.6 1026.09L1881.12 1023.61L1879.84 1020.17L1877.52 1015.77L1874.96 1011.77L1865.84 997.767L1850.08 974.407C1848.08 971.527 1846.4 968.407 1845.04 965.127C1838.24 948.487 1840.72 929.447 1851.52 915.047M1765.76 1402.01L1766.24 1414.41L1767.36 1443.45L1767.76 1447.05L1768.56 1452.01L1769.12 1455.93L1780 1492.33L1786.08 1511.77L1788.48 1519.69" stroke="#CCB265" stroke-width="6.64" stroke-miterlimit="10" stroke-linejoin="round" stroke-dasharray="6.64 4"/>
<path d="M1356.88 334.007L1405.52 333.047" stroke="#CCB265" stroke-width="6.64" stroke-miterlimit="10" stroke-linejoin="round"/>
<path d="M1871.6 888.407L1873.84 883.207L1875.12 876.647L1874.96 869.927L1867.6 852.407L1862.56 840.247L1858.16 836.087L1852.56 833.687" stroke="#CCB265" stroke-width="6.64" stroke-miterlimit="10" stroke-linejoin="round" stroke-dasharray="6.64 4"/>
<path d="M1979.28 2165.69L1990.8 2175.21L1999.92 2182.57L2002.32 2184.57L2004 2186.41L2005.04 2188.49L2006 2191.29L2007.2 2196.49L2008 2199.45L2009.36 2201.85L2010.64 2203.53L2012.48 2205.61" stroke="#CCB265" stroke-width="6.64" stroke-miterlimit="10" stroke-linejoin="round"/>
<path d="M1868.48 2097.21L1868.8 2099.61L1869.28 2101.13C1870.15 2104.75 1872.74 2107.76 1875.68 2109.93L1877.04 2110.73L1878.8 2111.53L1880.72 2112.33L1882.32 2112.97L1927.76 2130.25L1937.76 2134.09L1941.28 2135.53L1944.24 2137.37L1946.96 2139.29L1950.32 2142.01L1979.28 2165.69" stroke="#CCB265" stroke-width="6.64" stroke-miterlimit="10" stroke-linejoin="round"/>
<path d="M1885.36 2009.13L1907.76 1961.53" stroke="#CCB265" stroke-width="6.64" stroke-miterlimit="10" stroke-linejoin="round"/>
<path d="M1818.64 1834.01L1816.08 1832.49C1810.63 1828.63 1808.58 1824.24 1808.24 1817.77L1808.08 1814.73" stroke="#CCB265" stroke-width="6.64" stroke-miterlimit="10" stroke-linejoin="round"/>
<path d="M1825.04 1839.85L1821.84 1837.53L1819.92 1835.37L1818.64 1834.01" stroke="#CCB265" stroke-width="6.64" stroke-miterlimit="10" stroke-linejoin="round"/>
<path d="M1818.08 1827.37L1819.84 1831.69L1822.16 1836.17L1825.04 1839.85" stroke="#CCB265" stroke-width="6.64" stroke-miterlimit="10" stroke-linejoin="round"/>
<path d="M1802.8 1794.09L1808.56 1796.81L1810.72 1800.25L1811.84 1803.85L1816.72 1824.17L1818.08 1827.37" stroke="#CCB265" stroke-width="6.64" stroke-miterlimit="10" stroke-linejoin="round"/>
<path d="M1708.32 1739.53V1739.37L1709.28 1735.77L1709.04 1732.89L1708.24 1729.85L1706.8 1726.73L1702.56 1717.61L1699.28 1713.85L1690.08 1707.53" stroke="#CCB265" stroke-width="6.64" stroke-miterlimit="10" stroke-linejoin="round"/>
<path d="M1789.2 1790.09L1788 1789.61L1785.12 1788.33L1782 1787.61L1778.08 1787.53L1773.76 1787.21L1770.4 1786.41L1754.88 1781.13L1751.28 1779.85L1748.72 1779.29H1746.16L1743.12 1780.41L1737.28 1782.01L1730.64 1784.09L1727.68 1784.49C1713.38 1785.89 1701.38 1772.77 1703.52 1758.57L1704 1756.17L1708.32 1739.53" stroke="#CCB265" stroke-width="6.64" stroke-miterlimit="10" stroke-linejoin="round"/>
<path d="M1444.4 1893.37L1472.16 1869.69" stroke="#CCB265" stroke-width="6.64" stroke-miterlimit="10" stroke-linejoin="round"/>
<path d="M1493.04 1858.01L1521.84 1844.33L1526 1842.33L1531.44 1838.49L1542.96 1828.09L1555.44 1818.09" stroke="#CCB265" stroke-width="6.64" stroke-miterlimit="10" stroke-linejoin="round"/>
<path d="M1472.16 1869.69L1475.6 1866.73L1479.52 1864.41L1493.04 1858.01" stroke="#CCB265" stroke-width="6.64" stroke-miterlimit="10" stroke-linejoin="round"/>
<path d="M564.48 1569.61L606.8 1572.41L654.32 1575.69L683.76 1577.69L688.64 1577.93H691.68L694.64 1577.69L697.6 1577.21L699.52 1576.89L701.36 1576.41L703.36 1575.85L707.52 1574.17L714.72 1570.89L748.16 1555.61L812.88 1525.37L864.72 1501.05L873.28 1497.05L878.8 1493.85L884.24 1489.93L892.4 1482.89L984.64 1402.97L988.64 1399.85L992.8 1397.05L998.4 1393.77L1059.28 1360.97L1067.6 1356.49L1078.88 1350.41" stroke="#CCB265" stroke-width="6.64" stroke-miterlimit="10" stroke-linejoin="round" stroke-dasharray="1.36 4"/>
<path d="M1361.52 1171.85L1351.84 1176.17L1341.2 1180.97L1330.56 1185.05L1324.08 1187.85L1317.2 1192.33L1311.04 1197.53L1304.48 1204.65L1240.4 1280.73L1233.44 1288.33L1227.52 1292.89L1221.2 1296.73L1215.36 1299.13L1210.32 1300.65L1201.52 1302.01L1151.52 1308.33L1145.28 1309.21L1139.2 1310.73L1133.92 1312.81L1129.12 1315.29L1124.64 1318.33L1120.48 1321.77L1116.24 1326.09L1111.28 1331.13L1107.04 1334.81L1101.52 1338.17L1078.88 1350.41" stroke="#CCB265" stroke-width="6.64" stroke-miterlimit="10" stroke-linejoin="round" stroke-dasharray="1.36 4"/>
<path d="M1361.52 1171.85L1365.52 1170.09L1372.72 1166.97L1381.52 1163.61L1395.92 1158.09L1405.84 1154.33L1413.84 1149.85M1413.84 1149.85L1418.8 1148.25L1426.8 1147.53L1431.92 1149.13L1435.84 1152.49M1413.84 1149.85L1420.64 1144.81L1436.08 1130.25M1435.84 1152.49L1433.76 1148.01L1432.4 1143.69L1432.56 1137.77L1434.16 1133.37L1436.08 1130.25M1435.84 1152.49L1438.08 1156.25L1445.52 1180.09L1447.52 1185.05L1449.28 1188.73L1452.4 1193.69L1458.08 1202.81L1464.16 1212.49L1502.4 1274.25L1511.44 1290.17M1436.08 1130.25L1437.6 1128.81L1491.04 1078.01L1496.24 1073.45L1501.76 1069.29L1508.48 1064.81L1527.6 1052.41M1527.6 1052.41L1548.48 1038.97L1552.96 1035.61L1560.32 1029.37L1581.28 1010.25L1589.44 1002.81L1601.04 992.247L1604.88 990.167L1620.32 986.327L1630 983.927L1632.8 982.887L1638.24 980.727L1645.52 975.527L1651.84 967.127L1659.04 954.647L1669.04 937.287L1675.52 929.607L1682.72 924.407L1692.32 921.687L1697.68 918.887L1701.6 914.327L1703.36 910.087L1704.08 907.687L1704.48 905.047L1705.12 901.207L1705.44 898.087L1706.08 895.527L1708.16 890.807L1710.88 886.407L1714.08 883.047L1734.72 867.047L1742.32 861.047L1761.36 846.407L1770 839.687L1775.68 835.207L1778.08 832.967L1779.68 831.207M1527.6 1052.41L1542 1034.73L1546.16 1024.49L1546.4 1015.85L1542.72 1004.97L1541.44 1003.05L1538.8 999.447L1535.28 996.247L1525.84 989.607L1474.72 953.767L1460.08 943.607L1448.72 935.687L1443.92 931.927L1440.64 928.647L1437.04 924.567L1434.16 920.167L1431.04 914.727L1429.28 910.327L1428.16 906.567L1427.28 903.127L1426.88 901.447L1426.4 897.767L1426.08 893.047V860.567L1425.36 856.967L1424.56 854.967L1423.36 852.887L1422 850.567L1420.24 848.327L1418.56 846.487L1414.72 842.967L1398.48 827.287L1397.92 826.647L1388 817.127L1386.24 815.527L1384.8 814.567L1383.12 813.687L1381.6 813.527L1378.32 813.607L1376.88 813.927L1373.44 815.447L1368.72 817.767L1366 818.887L1361.52 819.527H1357.68L1347.68 817.847L1329.2 815.207L1324 813.927L1320.64 813.047L1317.2 811.447L1314.48 809.607L1310.56 805.767L1302.08 797.207L1299.6 795.127L1297.12 793.607L1294.64 792.407L1291.76 791.367L1289.04 790.807L1285.92 790.407L1281.68 790.327L1273.28 789.687L1269.92 788.807L1266.16 787.207L1261.76 784.727L1259.2 783.367L1257.04 782.407L1254 781.287L1250.64 780.407L1247.2 779.927H1245.12L1236.96 780.647L1232.88 781.367L1222.4 783.687M1222.4 783.687L1226.24 782.087L1231.2 780.167L1235.28 778.407L1242.48 774.807L1252.8 770.007L1255.2 768.487L1257.6 766.487L1260 764.327L1261.28 762.647L1262.4 761.207L1263.44 759.207L1264.56 757.047L1265.12 755.607L1286.56 700.887L1294.72 679.607L1315.28 627.687L1317.2 622.007L1318.56 617.687L1319.04 614.247L1318.88 608.247L1317.92 602.327L1315.28 594.887L1312.16 589.047L1308.72 582.967L1305.44 578.887L1304.4 577.847L1300.88 574.647L1294.48 568.487L1285.2 560.327L1280.4 553.927L1277.44 549.047L1275.28 542.967L1273.84 536.647L1273.2 530.807L1273.28 522.487L1276.4 498.007L1278.64 480.247L1279.68 472.487L1280.4 467.367L1280.64 463.767L1280.32 460.007L1279.04 455.687L1277.6 452.567L1276 450.167L1273.92 447.847L1272 446.007L1247.68 424.567L1245.36 422.407L1243.84 421.207L1241.92 420.007L1239.52 418.727L1232.88 415.927L1230.4 414.807L1229.04 413.767L1227.28 412.087L1226 410.087L1225.2 407.847L1225.04 402.887L1225.12 402.087L1225.28 401.367M1222.4 783.687L1212.64 788.647L1188.24 800.647L1179.84 804.887L1177.52 806.087L1174.96 808.247L1172.88 811.607L1171.76 816.647L1171.44 825.767L1171.76 828.727L1172.72 832.727L1174.08 836.087L1176.48 839.847L1189.2 859.127" stroke="#CCB265" stroke-width="6.64" stroke-miterlimit="10" stroke-linejoin="round" stroke-dasharray="1.36 4"/>
<path d="M1511.44 1290.17L1514.24 1293.69L1530.48 1307.53L1532.32 1309.29L1533.36 1310.65L1534.32 1312.17" stroke="#CCB265" stroke-width="6.64" stroke-miterlimit="10" stroke-linejoin="round" stroke-dasharray="1.36 4"/>
<path d="M1534.32 1312.17L1536.4 1318.81L1543.04 1340.41L1579.84 1459.85L1581.28 1465.13L1582.4 1469.69L1582.88 1471.93L1583.36 1475.77L1583.6 1480.41L1583.44 1484.09L1583.04 1487.05L1582.24 1491.77L1575.52 1523.29M1575.52 1523.29L1572.8 1535.93L1572.16 1539.29L1571.52 1542.25L1570.96 1546.17L1571.04 1550.81L1571.44 1555.21L1572.48 1559.93L1574.72 1565.45L1590.72 1593.29M1575.52 1523.29L1576.08 1519.05L1576.56 1513.13L1577.12 1505.77V1502.65L1576.64 1498.33L1575.84 1495.29L1574.4 1491.45L1573.12 1488.89L1571.6 1486.65L1570.08 1484.73L1567.68 1482.25L1565.2 1480.33L1562.72 1478.89L1559.44 1477.53L1554.88 1476.49L1551.52 1476.65L1534.24 1477.77L1507.92 1479.45L1465.52 1482.17L1431.36 1484.17L1403.76 1485.85L1353.36 1488.81L1333.52 1489.93L1329.52 1490.65L1325.2 1491.93L1320.08 1494.09L1314.24 1497.61L1277.6 1521.29L1273.68 1523.53L1269.36 1524.97L1263.68 1525.93L1260.32 1526.09L1256.16 1526.01L1252.24 1525.45L1248.8 1524.41L1217.12 1512.73L1207.92 1509.45L1199.04 1506.25L1191.68 1503.61L1189.2 1502.89L1184.16 1501.37L1181.12 1500.57L1177.52 1500.33H1173.92" stroke="#CCB265" stroke-width="6.64" stroke-miterlimit="10" stroke-linejoin="round" stroke-dasharray="1.36 4"/>
<path d="M864.72 1501.05L870.72 1499.05L877.44 1498.17L882.16 1498.49L887.36 1499.77L891.68 1501.45L897.28 1504.57L901.28 1506.49L904.8 1507.69L911.92 1509.13L919.2 1509.21L1042.88 1502.17L1056.16 1502.65L1063.76 1504.25L1072.64 1507.93L1081.76 1513.13L1087.2 1515.05L1097.04 1516.57L1106.88 1516.81L1111.44 1516.49L1118.72 1514.33L1133.28 1508.97L1146.48 1504.25L1152.8 1502.33L1157.92 1501.05L1162.4 1500.41L1167.28 1500.25L1173.92 1500.33" stroke="#CCB265" stroke-width="6.64" stroke-miterlimit="10" stroke-linejoin="round" stroke-dasharray="1.36 4"/>
<path d="M1590.72 1593.29L1601.6 1612.09L1607.6 1621.85L1615.44 1632.57L1629.36 1648.73L1633.2 1653.13L1636 1656.17L1655.2 1675.45L1670.48 1690.81L1674.64 1695.13L1676.72 1696.89L1679.12 1698.25L1682.72 1699.93L1685.92 1701.13L1702.4 1705.69L1705.12 1706.25L1708.88 1706.49L1711.84 1706.25L1713.84 1705.45L1732.8 1694.09M1671.12 1215.77L1664.16 1231.13L1657.68 1245.45L1654.24 1253.05L1652.96 1257.93L1652.4 1263.05L1652.64 1268.57" stroke="#CCB265" stroke-width="6.64" stroke-miterlimit="10" stroke-linejoin="round" stroke-dasharray="1.36 4"/>
<path d="M1745.2 1370.41L1671.52 1309.37L1668.32 1306.33L1665.76 1303.13L1664.08 1299.77L1661.76 1294.97L1652.64 1268.57" stroke="#CCB265" stroke-width="6.64" stroke-miterlimit="10" stroke-linejoin="round" stroke-dasharray="1.36 4"/>
<path d="M1765.76 1402.01L1765.04 1396.33L1763.68 1391.85L1761.6 1387.05L1758.56 1382.41L1753.76 1377.53L1745.2 1370.41M2240.56 1116.57L2208.72 1106.33L2204.48 1104.97L2199.68 1104.33H2194.96L2188.72 1104.17L2183.76 1103.21L2178.72 1101.45L2174.08 1099.21L2169.2 1096.09L2164.16 1093.05L2159.44 1090.57L2154.88 1088.89L2150.4 1087.77L2144.48 1087.21H2138L2088.16 1091.13H2083.2L2077.76 1090.73L2072.72 1090.09L2067.68 1089.05L2062.56 1087.61L2058.56 1086.25L2034.72 1077.61L2030.16 1076.33L2025.2 1075.29L2020.24 1074.81L2015.44 1074.97L2010.88 1075.37L2005.84 1076.49L2001.04 1078.09L1995.6 1080.49L1989.44 1084.09L1987.04 1085.85L1985.28 1087.13L1981.6 1089.21L1975.04 1092.09L1969.84 1093.93L1964.4 1095.05L1957.92 1095.69L1952.88 1095.85L1947.04 1095.37L1941.44 1094.49L1934.32 1092.09L1928.56 1089.61L1924.96 1087.77L1922.8 1086.49L1919.44 1083.93M1614.88 666.487L1618.96 664.967L1622.48 662.407L1625.76 658.407L1627.68 654.247L1628.4 652.007L1628.96 649.527L1629.36 647.527L1629.84 645.767L1630.96 643.287L1632.4 640.327L1634.24 638.167L1635.92 636.407L1638 634.967L1639.92 634.007L1642.72 632.887L1668.48 625.607L1671.76 624.567L1674.72 623.287L1676.72 622.247L1679.44 620.407L1684 616.727L1709.6 597.527L1715.12 594.887L1719.04 594.167L1720.96 594.087L1722.88 594.007L1725.28 594.167L1728.16 594.567L1730.96 595.367L1733.84 596.727L1753.2 606.647M1614.88 666.487L1608.48 666.967L1589.36 665.927M1614.88 666.487L1610.32 669.047L1608 673.767L1608.16 676.807L1609.28 682.007M1177.04 636.807L1183.2 642.647L1201.68 661.927L1203.76 664.087L1205.76 665.527L1208.72 667.127L1210.96 668.327L1212.96 669.127L1216.4 670.167L1277.92 685.927M1277.92 685.927L1283.2 686.327L1286.16 686.007L1288.88 684.967L1291.2 683.287L1292.96 681.847L1294.72 679.607M1277.92 685.927L1282.24 688.887L1284.08 690.727L1285.28 692.647L1286.32 694.807L1286.48 696.567L1286.72 697.607L1286.56 700.887" stroke="#CCB265" stroke-width="6.64" stroke-miterlimit="10" stroke-linejoin="round" stroke-dasharray="1.36 4"/>
<path d="M661.92 1036.65L674.64 1031.93L682.4 1029.05L685.28 1027.77L687.92 1026.49L711.44 1012.49L717.44 1008.97L719.36 1007.85L721.12 1007.13L723.52 1006.17L726.8 1005.05L752.08 997.927L754.64 996.647L756.08 995.287L757.44 993.527L758.08 991.607V989.207L758 987.607L757.04 982.247M757.04 982.327L721.04 942.327L717.44 938.407L710 930.087L707.76 926.727L705.92 923.687L704.24 920.247L702.72 916.967L701.6 913.607L700.88 910.887L700 906.247L699.68 901.367L700 894.807L700.56 890.327L702.4 884.647L705.28 879.127L729.2 836.967" stroke="#CCB265" stroke-width="6.64" stroke-miterlimit="10" stroke-linejoin="round" stroke-dasharray="15.84 5.28"/>
</svg>
