<svg width="2515" height="2520" viewBox="0 0 2515 2520" fill="none" xmlns="http://www.w3.org/2000/svg">
<path fill-rule="evenodd" clip-rule="evenodd" d="M1716.64 1672.25C1717.92 1672.25 1718.8 1671.85 1719.36 1671.13C1719.76 1670.49 1720 1669.77 1720 1668.97C1720 1668.25 1719.84 1667.61 1719.44 1667.13C1719.12 1666.65 1718.64 1666.25 1718.08 1666.17C1718.24 1666.01 1718.4 1666.01 1718.4 1665.93C1718.48 1665.93 1718.64 1665.77 1718.8 1665.61C1719.2 1665.21 1719.44 1664.49 1719.44 1663.61C1719.44 1662.81 1719.28 1662.17 1718.8 1661.53C1718.64 1661.21 1718.24 1660.97 1717.76 1660.73C1717.36 1660.57 1716.8 1660.49 1716.16 1660.49H1712.48V1672.25H1716.64ZM1714.08 1665.37V1662.33H1716.08C1716.72 1662.33 1717.12 1662.41 1717.44 1662.65C1717.68 1662.97 1717.84 1663.37 1717.84 1663.93C1717.84 1664.89 1717.28 1665.37 1716.08 1665.37H1714.08ZM1714.08 1670.41V1667.21H1716.4C1717.04 1667.21 1717.52 1667.29 1717.84 1667.61C1718.24 1667.85 1718.4 1668.25 1718.4 1668.73C1718.4 1669.37 1718.24 1669.85 1717.92 1670.09C1717.6 1670.25 1717.12 1670.41 1716.56 1670.41H1714.08Z" fill="black"/>
<path fill-rule="evenodd" clip-rule="evenodd" d="M1729.44 1664.33C1729.44 1662.97 1729.12 1662.01 1728.56 1661.37C1727.92 1660.81 1726.88 1660.49 1725.44 1660.49H1722V1672.25H1723.52V1668.25H1725.6L1727.84 1672.25H1729.84L1727.44 1667.93C1728.8 1667.45 1729.44 1666.25 1729.44 1664.33ZM1725.52 1666.49H1723.52V1662.25H1725.6C1726.4 1662.25 1726.96 1662.41 1727.36 1662.73C1727.68 1662.97 1727.84 1663.53 1727.84 1664.25C1727.84 1665.05 1727.68 1665.61 1727.36 1665.93C1727.04 1666.33 1726.4 1666.49 1725.52 1666.49Z" fill="black"/>
<path fill-rule="evenodd" clip-rule="evenodd" d="M1733.04 1669.53H1737.76L1738.64 1672.25H1740.32L1736.24 1660.49H1734.56L1730.4 1672.25H1732.08L1733.04 1669.53ZM1737.12 1667.69H1733.68L1735.36 1662.89L1737.12 1667.69Z" fill="black"/>
<path fill-rule="evenodd" clip-rule="evenodd" d="M1744.88 1660.49H1741.68V1672.25H1744.8C1746.56 1672.25 1747.92 1671.69 1748.8 1670.65C1749.68 1669.53 1750.08 1668.09 1750.08 1666.33C1750.08 1664.49 1749.68 1663.05 1748.72 1662.01C1747.84 1660.97 1746.56 1660.49 1744.88 1660.49ZM1748.48 1666.33C1748.48 1667.69 1748.24 1668.65 1747.6 1669.37C1746.96 1670.01 1746.16 1670.33 1744.96 1670.33H1743.28V1662.33H1744.8C1746.08 1662.33 1746.96 1662.65 1747.6 1663.29C1748.16 1664.01 1748.48 1664.97 1748.48 1666.33Z" fill="black"/>
<path fill-rule="evenodd" clip-rule="evenodd" d="M1754.96 1662.01C1755.44 1662.01 1755.92 1662.17 1756.4 1662.33C1756.88 1662.57 1757.2 1662.81 1757.52 1663.13L1758.32 1661.61C1757.92 1661.13 1757.44 1660.81 1756.8 1660.57C1756.24 1660.33 1755.6 1660.17 1755.04 1660.17C1754.08 1660.17 1753.36 1660.49 1752.72 1661.05C1752.08 1661.69 1751.76 1662.49 1751.76 1663.61C1751.76 1664.65 1752 1665.45 1752.56 1666.01C1752.88 1666.33 1753.2 1666.49 1753.52 1666.73C1753.92 1666.89 1754.4 1667.05 1755.12 1667.29C1755.76 1667.45 1756.24 1667.69 1756.56 1667.93C1756.8 1668.17 1756.96 1668.57 1756.96 1669.05C1756.96 1669.45 1756.8 1669.85 1756.56 1670.09C1756.24 1670.41 1755.84 1670.49 1755.28 1670.49C1754.32 1670.49 1753.28 1670.01 1752.4 1668.97L1751.36 1670.49C1751.92 1671.13 1752.56 1671.61 1753.2 1671.93C1753.84 1672.17 1754.56 1672.33 1755.28 1672.33C1756.24 1672.33 1757.12 1672.01 1757.68 1671.37C1758.32 1670.73 1758.64 1669.93 1758.64 1668.89C1758.64 1667.85 1758.4 1667.13 1757.92 1666.57C1757.44 1666.09 1756.72 1665.61 1755.76 1665.37C1754.8 1665.05 1754.16 1664.81 1753.84 1664.57C1753.52 1664.25 1753.36 1663.93 1753.36 1663.45C1753.36 1662.97 1753.52 1662.65 1753.84 1662.41C1754.16 1662.17 1754.48 1662.01 1754.96 1662.01Z" fill="black"/>
<path fill-rule="evenodd" clip-rule="evenodd" d="M1760.56 1672.25H1762.16V1667.45H1766.8V1672.25H1768.4V1660.49H1766.8V1665.61H1762.16V1660.49H1760.56" fill="black"/>
<path fill-rule="evenodd" clip-rule="evenodd" d="M1772.32 1669.53H1776.96L1777.92 1672.25H1779.6L1775.52 1660.49H1773.84L1769.68 1672.25H1771.36L1772.32 1669.53ZM1776.32 1667.69H1772.96L1774.64 1662.89L1776.32 1667.69Z" fill="black"/>
<path fill-rule="evenodd" clip-rule="evenodd" d="M1783.84 1668.97L1781.52 1660.49H1779.76L1783.04 1672.25H1784.64L1786.56 1664.17H1786.72L1788.64 1672.25H1790.24L1793.52 1660.49H1791.76L1789.44 1668.97L1787.36 1660.49H1785.92" fill="black"/>
<path fill-rule="evenodd" clip-rule="evenodd" d="M1696.88 1482.25H1701.52L1702.48 1484.89H1704.16L1700.08 1473.21H1698.4L1694.24 1484.89H1695.92L1696.88 1482.25ZM1700.88 1480.41H1697.52L1699.2 1475.61L1700.88 1480.41Z" fill="black"/>
<path fill-rule="evenodd" clip-rule="evenodd" d="M1712.48 1473.21V1481.93L1707.04 1473.21H1705.52V1484.89H1707.04V1476.33L1712.4 1484.89H1714.08V1473.21" fill="black"/>
<path fill-rule="evenodd" clip-rule="evenodd" d="M1718 1482.25H1722.72L1723.6 1484.89H1725.36L1721.2 1473.21H1719.52L1715.36 1484.89H1717.04L1718 1482.25ZM1722.08 1480.41H1718.64L1720.32 1475.61L1722.08 1480.41Z" fill="black"/>
<path fill-rule="evenodd" clip-rule="evenodd" d="M1729.84 1473.21H1726.64V1484.89H1728.24V1481.45H1729.84C1731.28 1481.45 1732.24 1481.13 1732.96 1480.49C1733.6 1479.85 1733.92 1478.81 1733.92 1477.37C1733.92 1475.93 1733.6 1474.89 1732.96 1474.17C1732.32 1473.53 1731.28 1473.21 1729.84 1473.21ZM1730.08 1479.69H1728.24V1474.97H1729.84C1730.64 1474.97 1731.28 1475.13 1731.68 1475.45C1732.08 1475.77 1732.32 1476.41 1732.32 1477.21C1732.32 1478.01 1732.16 1478.65 1731.84 1479.05C1731.52 1479.45 1730.88 1479.69 1730.08 1479.69Z" fill="black"/>
<path fill-rule="evenodd" clip-rule="evenodd" d="M1743.6 1483.29C1744.56 1482.17 1745.04 1480.73 1745.04 1478.97C1745.04 1477.21 1744.56 1475.77 1743.6 1474.65C1742.64 1473.45 1741.52 1472.89 1740.08 1472.89C1738.72 1472.89 1737.52 1473.45 1736.64 1474.65C1735.68 1475.77 1735.2 1477.21 1735.2 1478.97C1735.2 1480.73 1735.68 1482.17 1736.64 1483.29C1737.52 1484.49 1738.72 1485.05 1740.08 1485.05C1741.52 1485.05 1742.64 1484.49 1743.6 1483.29ZM1742.48 1475.93C1743.12 1476.81 1743.44 1477.77 1743.44 1478.97C1743.44 1480.17 1743.12 1481.13 1742.48 1482.01C1741.84 1482.81 1741.04 1483.21 1740.08 1483.21C1739.2 1483.21 1738.4 1482.81 1737.76 1482.01C1737.12 1481.13 1736.8 1480.17 1736.8 1478.97C1736.8 1477.77 1737.12 1476.81 1737.76 1475.93C1738.4 1475.13 1739.2 1474.73 1740.08 1474.73C1741.04 1474.73 1741.84 1475.13 1742.48 1475.93Z" fill="black"/>
<path fill-rule="evenodd" clip-rule="evenodd" d="M1747.04 1484.89H1752.88V1483.05H1748.64V1473.21H1747.04" fill="black"/>
<path d="M1754.64 1484.89H1756.16V1473.21H1754.64V1484.89Z" fill="black"/>
<path fill-rule="evenodd" clip-rule="evenodd" d="M1761.6 1474.73C1762.08 1474.73 1762.56 1474.81 1763.04 1475.05C1763.52 1475.21 1763.84 1475.45 1764.16 1475.77L1764.96 1474.33C1764.56 1473.85 1764.08 1473.53 1763.44 1473.29C1762.88 1472.97 1762.32 1472.89 1761.68 1472.89C1760.8 1472.89 1760 1473.21 1759.36 1473.77C1758.72 1474.33 1758.4 1475.21 1758.4 1476.25C1758.4 1477.37 1758.72 1478.17 1759.2 1478.73C1759.52 1478.97 1759.84 1479.21 1760.16 1479.37C1760.56 1479.53 1761.04 1479.77 1761.76 1479.93C1762.48 1480.17 1762.96 1480.41 1763.2 1480.65C1763.52 1480.89 1763.6 1481.21 1763.6 1481.69C1763.6 1482.17 1763.52 1482.49 1763.2 1482.81C1762.88 1483.05 1762.48 1483.21 1762 1483.21C1760.96 1483.21 1760 1482.65 1759.04 1481.69L1758 1483.13C1758.64 1483.77 1759.2 1484.25 1759.84 1484.57C1760.48 1484.89 1761.2 1485.05 1761.92 1485.05C1762.96 1485.05 1763.76 1484.73 1764.32 1484.09C1764.96 1483.45 1765.28 1482.65 1765.28 1481.61C1765.28 1480.57 1765.04 1479.77 1764.56 1479.29C1764.08 1478.73 1763.36 1478.33 1762.4 1478.01C1761.44 1477.77 1760.8 1477.45 1760.48 1477.21C1760.24 1476.97 1760.08 1476.65 1760.08 1476.17C1760.08 1475.69 1760.24 1475.29 1760.48 1475.05C1760.8 1474.81 1761.2 1474.73 1761.6 1474.73Z" fill="black"/>
<path fill-rule="evenodd" clip-rule="evenodd" d="M1800.8 862.487H1803.68V860.727H1796.4V862.487H1799.28V872.407H1800.8" fill="black"/>
<path fill-rule="evenodd" clip-rule="evenodd" d="M1805.36 872.407H1806.96V867.607H1811.6V872.407H1813.2V860.727H1811.6V865.767H1806.96V860.727H1805.36" fill="black"/>
<path fill-rule="evenodd" clip-rule="evenodd" d="M1817.12 869.767H1821.84L1822.72 872.407H1824.4L1820.32 860.727H1818.64L1814.48 872.407H1816.16L1817.12 869.767ZM1821.2 867.927H1817.76L1819.44 863.127L1821.2 867.927Z" fill="black"/>
<path fill-rule="evenodd" clip-rule="evenodd" d="M1828.96 860.727H1825.76V872.407H1827.28V868.967H1828.96C1830.32 868.967 1831.36 868.647 1832 868.007C1832.72 867.367 1833.04 866.327 1833.04 864.887C1833.04 863.447 1832.72 862.407 1832.08 861.687C1831.44 861.047 1830.4 860.727 1828.96 860.727ZM1829.12 867.207H1827.28V862.487H1828.96C1829.76 862.487 1830.4 862.647 1830.8 862.967C1831.2 863.367 1831.44 863.927 1831.44 864.727C1831.44 865.527 1831.28 866.167 1830.96 866.567C1830.64 866.967 1830 867.207 1829.12 867.207Z" fill="black"/>
<path fill-rule="evenodd" clip-rule="evenodd" d="M1837.76 862.247C1838.16 862.247 1838.64 862.327 1839.12 862.567C1839.6 862.727 1840 862.967 1840.24 863.287L1841.12 861.847C1840.64 861.367 1840.16 861.047 1839.6 860.807C1838.96 860.567 1838.4 860.407 1837.76 860.407C1836.88 860.407 1836.08 860.727 1835.44 861.287C1834.8 861.847 1834.48 862.727 1834.48 863.767C1834.48 864.887 1834.8 865.687 1835.36 866.247C1835.6 866.487 1835.92 866.727 1836.32 866.887C1836.64 867.047 1837.2 867.287 1837.84 867.447C1838.56 867.687 1839.04 867.927 1839.28 868.167C1839.6 868.407 1839.76 868.807 1839.76 869.207C1839.76 869.687 1839.6 870.007 1839.28 870.327C1838.96 870.567 1838.56 870.727 1838.08 870.727C1837.04 870.727 1836.08 870.247 1835.12 869.207L1834.16 870.647C1834.72 871.287 1835.28 871.767 1835.92 872.087C1836.64 872.407 1837.28 872.567 1838 872.567C1839.04 872.567 1839.84 872.247 1840.48 871.607C1841.04 870.967 1841.36 870.167 1841.36 869.127C1841.36 868.087 1841.12 867.287 1840.64 866.807C1840.16 866.247 1839.44 865.847 1838.48 865.607C1837.52 865.287 1836.88 864.967 1836.56 864.727C1836.32 864.487 1836.16 864.167 1836.16 863.687C1836.16 863.207 1836.32 862.807 1836.56 862.567C1836.88 862.327 1837.28 862.247 1837.76 862.247Z" fill="black"/>
<path fill-rule="evenodd" clip-rule="evenodd" d="M1846.88 862.487H1849.68V860.727H1842.48V862.487H1845.28V872.407H1846.88" fill="black"/>
<path fill-rule="evenodd" clip-rule="evenodd" d="M1858 860.727H1851.44V872.407H1858.16V870.567H1853.04V867.447H1857.52V865.687H1853.04V862.567H1858" fill="black"/>
<path fill-rule="evenodd" clip-rule="evenodd" d="M1252.88 406.647L1256.64 394.887H1254.88L1252 403.687L1249.12 394.887H1247.36L1251.12 406.647" fill="black"/>
<path fill-rule="evenodd" clip-rule="evenodd" d="M1265.76 405.047C1266.72 403.847 1267.2 402.407 1267.2 400.727C1267.2 398.967 1266.72 397.527 1265.76 396.407C1264.88 395.207 1263.68 394.647 1262.32 394.647C1260.88 394.647 1259.76 395.207 1258.8 396.407C1257.84 397.527 1257.36 398.967 1257.36 400.727C1257.36 402.407 1257.84 403.847 1258.8 405.047C1259.76 406.167 1260.88 406.807 1262.32 406.807C1263.68 406.807 1264.88 406.167 1265.76 405.047ZM1264.64 397.687C1265.28 398.487 1265.6 399.527 1265.6 400.727C1265.6 401.927 1265.28 402.887 1264.64 403.687C1264 404.567 1263.2 404.967 1262.32 404.967C1261.36 404.967 1260.56 404.567 1259.92 403.687C1259.28 402.887 1258.96 401.927 1258.96 400.727C1258.96 399.527 1259.28 398.487 1259.92 397.687C1260.56 396.887 1261.36 396.487 1262.32 396.487C1263.2 396.487 1264 396.887 1264.64 397.687Z" fill="black"/>
<path fill-rule="evenodd" clip-rule="evenodd" d="M1276.72 398.726C1276.72 397.366 1276.4 396.406 1275.76 395.846C1275.12 395.206 1274.16 394.886 1272.72 394.886H1269.2V406.646H1270.8V402.726H1272.88L1275.12 406.646H1277.12L1274.64 402.406C1276 401.926 1276.72 400.646 1276.72 398.726ZM1272.8 400.886H1270.8V396.726H1272.8C1273.68 396.726 1274.24 396.886 1274.56 397.126C1274.88 397.446 1275.04 397.926 1275.04 398.726C1275.04 399.526 1274.88 400.086 1274.56 400.406C1274.24 400.726 1273.68 400.886 1272.8 400.886Z" fill="black"/>
<path d="M1278.96 406.647H1280.56V394.887H1278.96V406.647Z" fill="black"/>
<path fill-rule="evenodd" clip-rule="evenodd" d="M1290.96 405.047C1291.92 403.847 1292.4 402.407 1292.4 400.727C1292.4 398.967 1291.92 397.527 1290.96 396.407C1290 395.207 1288.88 394.647 1287.44 394.647C1286.08 394.647 1284.88 395.207 1283.92 396.407C1283.04 397.527 1282.56 398.967 1282.56 400.727C1282.56 402.407 1283.04 403.847 1283.92 405.047C1284.88 406.167 1286.08 406.807 1287.44 406.807C1288.88 406.807 1290 406.167 1290.96 405.047ZM1289.84 397.687C1290.48 398.487 1290.8 399.527 1290.8 400.727C1290.8 401.927 1290.48 402.887 1289.84 403.687C1289.2 404.567 1288.4 404.967 1287.44 404.967C1286.56 404.967 1285.76 404.567 1285.12 403.687C1284.48 402.887 1284.16 401.927 1284.16 400.727C1284.16 399.527 1284.48 398.487 1285.12 397.687C1285.76 396.887 1286.56 396.487 1287.44 396.487C1288.4 396.487 1289.2 396.887 1289.84 397.687Z" fill="black"/>
<path fill-rule="evenodd" clip-rule="evenodd" d="M1297.2 396.487C1297.68 396.487 1298.16 396.567 1298.64 396.807C1299.12 396.967 1299.44 397.207 1299.76 397.527L1300.56 396.007C1300.16 395.607 1299.68 395.287 1299.04 394.967C1298.48 394.727 1297.84 394.647 1297.28 394.647C1296.32 394.647 1295.6 394.967 1294.96 395.527C1294.32 396.087 1294 396.967 1294 398.007C1294 399.127 1294.24 399.927 1294.8 400.487C1295.12 400.727 1295.44 400.967 1295.76 401.127C1296.16 401.287 1296.64 401.527 1297.36 401.687C1298 401.927 1298.56 402.167 1298.8 402.407C1299.12 402.647 1299.2 402.967 1299.2 403.447C1299.2 403.927 1299.04 404.247 1298.8 404.567C1298.48 404.807 1298.08 404.967 1297.6 404.967C1296.56 404.967 1295.6 404.407 1294.64 403.447L1293.6 404.887C1294.16 405.527 1294.8 406.007 1295.44 406.327C1296.08 406.647 1296.8 406.807 1297.52 406.807C1298.56 406.807 1299.36 406.487 1299.92 405.847C1300.56 405.207 1300.88 404.407 1300.88 403.367C1300.88 402.327 1300.64 401.527 1300.16 401.047C1299.68 400.487 1298.96 400.087 1298 399.767C1297.04 399.527 1296.4 399.207 1296.08 398.967C1295.76 398.727 1295.68 398.327 1295.68 397.847C1295.68 397.447 1295.76 397.047 1296.08 396.807C1296.4 396.567 1296.8 396.487 1297.2 396.487Z" fill="black"/>
<path fill-rule="evenodd" clip-rule="evenodd" d="M1302.8 406.647H1308.64V404.807H1304.4V394.887H1302.8" fill="black"/>
<path d="M1310.4 406.647H1312V394.887H1310.4V406.647Z" fill="black"/>
<path fill-rule="evenodd" clip-rule="evenodd" d="M1316.16 406.647V397.527L1319.44 405.607H1320.32L1323.6 397.527V406.647H1325.12V394.887H1322.72L1319.84 402.327L1317.04 394.887H1314.56V406.647" fill="black"/>
<path d="M1327.76 406.647H1329.36V394.887H1327.76V406.647Z" fill="black"/>
<path fill-rule="evenodd" clip-rule="evenodd" d="M1338.96 394.887V403.687L1333.52 394.887H1331.92V406.647H1333.52V398.087L1338.8 406.647H1340.56V394.887" fill="black"/>
<path fill-rule="evenodd" clip-rule="evenodd" d="M593.28 595.447C593.28 594.087 592.96 593.127 592.32 592.487C591.68 591.927 590.64 591.607 589.28 591.607H585.76V603.367H587.36V599.447H589.44L591.68 603.367H593.68L591.2 599.127C592.56 598.567 593.28 597.367 593.28 595.447ZM589.28 597.607H587.36V593.447H589.36C590.24 593.447 590.8 593.527 591.12 593.847C591.44 594.087 591.6 594.647 591.6 595.447C591.6 596.167 591.44 596.727 591.12 597.127C590.8 597.447 590.24 597.607 589.28 597.607Z" fill="black"/>
<path fill-rule="evenodd" clip-rule="evenodd" d="M596.88 600.727H601.52L602.48 603.367H604.16L600 591.607H598.32L594.24 603.367H595.92L596.88 600.727ZM600.88 598.887H597.52L599.2 594.007L600.88 598.887Z" fill="black"/>
<path fill-rule="evenodd" clip-rule="evenodd" d="M609.12 603.367V598.727L612.64 591.607H610.88L608.32 596.967L605.76 591.607H604.08L607.52 598.727V603.367" fill="black"/>
<path fill-rule="evenodd" clip-rule="evenodd" d="M613.84 603.367H619.68V601.447H615.36V591.607H613.84" fill="black"/>
<path fill-rule="evenodd" clip-rule="evenodd" d="M628 591.607H621.36V603.367H628.16V601.527H622.96V598.327H627.44V596.567H622.96V593.447H628" fill="black"/>
<path d="M630.16 603.367H631.76V591.607H630.16V603.367Z" fill="black"/>
<path fill-rule="evenodd" clip-rule="evenodd" d="M640.8 597.607V600.887C640.24 601.367 639.44 601.607 638.56 601.607C637.68 601.607 636.96 601.207 636.32 600.487C635.68 599.687 635.36 598.727 635.36 597.447C635.36 596.167 635.68 595.207 636.32 594.407C636.96 593.687 637.76 593.287 638.72 593.287C639.2 593.287 639.68 593.367 640 593.527C640.4 593.687 640.72 593.927 641.12 594.327L642 592.807C641.04 591.847 639.92 591.287 638.64 591.287C637.28 591.287 636.08 591.927 635.12 593.047C634.24 594.247 633.76 595.687 633.76 597.447C633.76 599.207 634.16 600.647 635.12 601.767C636.08 602.887 637.2 603.527 638.64 603.527C640.24 603.527 641.52 602.887 642.4 601.687V597.607H640.8Z" fill="black"/>
<path fill-rule="evenodd" clip-rule="evenodd" d="M644.48 603.367H646.08V598.567H650.72V603.367H652.32V591.607H650.72V596.727H646.08V591.607H644.48" fill="black"/>
<path fill-rule="evenodd" clip-rule="evenodd" d="M614.4 1540.25V1543.45C613.76 1543.93 613.04 1544.17 612.16 1544.17C611.28 1544.17 610.48 1543.77 609.92 1543.05C609.28 1542.25 608.96 1541.29 608.96 1540.01C608.96 1538.81 609.28 1537.77 609.92 1536.97C610.56 1536.25 611.36 1535.85 612.32 1535.85C612.8 1535.85 613.2 1535.93 613.6 1536.09C614 1536.25 614.32 1536.49 614.72 1536.89L615.52 1535.37C614.64 1534.41 613.52 1533.93 612.16 1533.93C610.8 1533.93 609.68 1534.49 608.72 1535.69C607.76 1536.81 607.28 1538.25 607.28 1540.01C607.28 1541.77 607.76 1543.21 608.72 1544.33C609.68 1545.53 610.8 1546.09 612.16 1546.09C613.84 1546.09 615.12 1545.45 616 1544.25V1540.25H614.4Z" fill="black"/>
<path fill-rule="evenodd" clip-rule="evenodd" d="M619.36 1543.29H624.08L625.04 1545.93H626.72L622.56 1534.17H620.88L616.72 1545.93H618.48L619.36 1543.29ZM623.44 1541.45H620L621.76 1536.57L623.44 1541.45Z" fill="black"/>
<path fill-rule="evenodd" clip-rule="evenodd" d="M629.6 1545.93V1536.73L632.8 1544.89H633.68L636.96 1536.73V1545.93H638.56V1534.17H636.08L633.28 1541.53L630.48 1534.17H628V1545.93" fill="black"/>
<path fill-rule="evenodd" clip-rule="evenodd" d="M644.4 1534.17H641.2V1545.93H642.72V1542.49H644.4C645.76 1542.49 646.8 1542.17 647.44 1541.53C648.16 1540.81 648.48 1539.77 648.48 1538.41C648.48 1536.97 648.16 1535.93 647.52 1535.21C646.8 1534.57 645.76 1534.17 644.4 1534.17ZM644.56 1540.73H642.72V1536.01H644.32C645.2 1536.01 645.84 1536.17 646.24 1536.49C646.64 1536.81 646.88 1537.37 646.88 1538.25C646.88 1539.05 646.72 1539.61 646.4 1540.09C646.08 1540.49 645.44 1540.73 644.56 1540.73Z" fill="black"/>
<path fill-rule="evenodd" clip-rule="evenodd" d="M658.16 1544.33C659.12 1543.13 659.6 1541.69 659.6 1540.01C659.6 1538.25 659.12 1536.81 658.16 1535.61C657.2 1534.49 656.08 1533.93 654.64 1533.93C653.28 1533.93 652.08 1534.49 651.12 1535.61C650.16 1536.81 649.76 1538.25 649.76 1540.01C649.76 1541.69 650.16 1543.13 651.12 1544.33C652.08 1545.45 653.28 1546.09 654.64 1546.09C656.08 1546.09 657.2 1545.45 658.16 1544.33ZM657.04 1536.97C657.6 1537.77 657.92 1538.81 657.92 1540.01C657.92 1541.13 657.6 1542.17 657.04 1542.97C656.4 1543.85 655.6 1544.25 654.64 1544.25C653.76 1544.25 652.96 1543.85 652.32 1542.97C651.68 1542.17 651.36 1541.13 651.36 1540.01C651.36 1538.81 651.68 1537.77 652.32 1536.97C652.96 1536.17 653.76 1535.69 654.64 1535.69C655.6 1535.69 656.4 1536.17 657.04 1536.97Z" fill="black"/>
<path fill-rule="evenodd" clip-rule="evenodd" d="M664.4 1535.77C664.88 1535.77 665.36 1535.85 665.84 1536.01C666.24 1536.25 666.64 1536.49 666.96 1536.81L667.76 1535.29C667.36 1534.89 666.8 1534.49 666.24 1534.25C665.68 1534.01 665.04 1533.93 664.48 1533.93C663.52 1533.93 662.72 1534.17 662.16 1534.81C661.52 1535.37 661.2 1536.25 661.2 1537.29C661.2 1538.41 661.44 1539.21 662 1539.69C662.32 1540.01 662.64 1540.25 662.96 1540.41C663.36 1540.57 663.84 1540.73 664.56 1540.97C665.2 1541.21 665.68 1541.37 666 1541.69C666.24 1541.93 666.4 1542.25 666.4 1542.73C666.4 1543.21 666.24 1543.53 666 1543.85C665.68 1544.09 665.28 1544.25 664.72 1544.25C663.76 1544.25 662.72 1543.69 661.84 1542.65L660.8 1544.17C661.36 1544.81 662 1545.29 662.64 1545.61C663.28 1545.93 664 1546.09 664.72 1546.09C665.68 1546.09 666.48 1545.77 667.12 1545.13C667.76 1544.49 668.08 1543.61 668.08 1542.65C668.08 1541.61 667.84 1540.81 667.36 1540.33C666.8 1539.77 666.08 1539.37 665.12 1539.05C664.16 1538.81 663.6 1538.49 663.28 1538.25C662.96 1538.01 662.8 1537.61 662.8 1537.13C662.8 1536.65 662.96 1536.33 663.28 1536.09C663.6 1535.85 663.92 1535.77 664.4 1535.77Z" fill="black"/>
<path fill-rule="evenodd" clip-rule="evenodd" d="M243.04 1261.29H245.84V1259.53H238.56V1261.29H241.44V1271.29H243.04" fill="black"/>
<path fill-rule="evenodd" clip-rule="evenodd" d="M247.52 1271.29H249.12V1266.41H253.76V1271.29H255.36V1259.53H253.76V1264.57H249.12V1259.53H247.52" fill="black"/>
<path fill-rule="evenodd" clip-rule="evenodd" d="M264.56 1259.53H258V1271.29H264.72V1269.37H259.52V1266.25H264V1264.49H259.52V1261.37H264.56" fill="black"/>
<path fill-rule="evenodd" clip-rule="evenodd" d="M269.52 1261.05C270 1261.05 270.48 1261.13 270.96 1261.37C271.44 1261.53 271.84 1261.85 272.08 1262.09L272.96 1260.65C272.48 1260.17 272 1259.85 271.36 1259.61C270.8 1259.37 270.24 1259.21 269.6 1259.21C268.72 1259.21 267.92 1259.53 267.28 1260.09C266.64 1260.65 266.32 1261.53 266.32 1262.65C266.32 1263.69 266.64 1264.49 267.2 1265.05C267.44 1265.29 267.76 1265.53 268.08 1265.69C268.48 1265.85 268.96 1266.09 269.68 1266.25C270.4 1266.49 270.88 1266.73 271.12 1266.97C271.44 1267.21 271.52 1267.61 271.52 1268.01C271.52 1268.49 271.44 1268.89 271.12 1269.13C270.8 1269.37 270.4 1269.53 269.92 1269.53C268.88 1269.53 267.92 1269.05 266.96 1268.01L265.92 1269.45C266.56 1270.09 267.12 1270.57 267.76 1270.89C268.4 1271.21 269.12 1271.37 269.84 1271.37C270.88 1271.37 271.68 1271.05 272.32 1270.41C272.88 1269.77 273.2 1268.97 273.2 1267.93C273.2 1266.89 272.96 1266.17 272.48 1265.61C272 1265.05 271.28 1264.65 270.32 1264.41C269.36 1264.09 268.72 1263.85 268.4 1263.53C268.16 1263.29 268 1262.97 268 1262.49C268 1262.01 268.16 1261.61 268.4 1261.37C268.72 1261.13 269.12 1261.05 269.52 1261.05Z" fill="black"/>
<path fill-rule="evenodd" clip-rule="evenodd" d="M278 1261.05C278.48 1261.05 278.88 1261.13 279.36 1261.37C279.84 1261.53 280.24 1261.85 280.48 1262.09L281.36 1260.65C280.96 1260.17 280.4 1259.85 279.84 1259.61C279.28 1259.37 278.64 1259.21 278.08 1259.21C277.12 1259.21 276.32 1259.53 275.68 1260.09C275.12 1260.65 274.8 1261.53 274.8 1262.65C274.8 1263.69 275.04 1264.49 275.6 1265.05C275.84 1265.29 276.16 1265.53 276.56 1265.69C276.88 1265.85 277.44 1266.09 278.08 1266.25C278.8 1266.49 279.28 1266.73 279.6 1266.97C279.84 1267.21 280 1267.61 280 1268.01C280 1268.49 279.84 1268.89 279.52 1269.13C279.28 1269.37 278.88 1269.53 278.32 1269.53C277.28 1269.53 276.32 1269.05 275.36 1268.01L274.4 1269.45C274.96 1270.09 275.6 1270.57 276.24 1270.89C276.88 1271.21 277.52 1271.37 278.32 1271.37C279.28 1271.37 280.08 1271.05 280.72 1270.41C281.36 1269.77 281.6 1268.97 281.6 1267.93C281.6 1266.89 281.36 1266.17 280.88 1265.61C280.4 1265.05 279.68 1264.65 278.72 1264.41C277.76 1264.09 277.12 1263.85 276.88 1263.53C276.56 1263.29 276.4 1262.97 276.4 1262.49C276.4 1262.01 276.56 1261.61 276.88 1261.37C277.12 1261.13 277.52 1261.05 278 1261.05Z" fill="black"/>
<path fill-rule="evenodd" clip-rule="evenodd" d="M284.88 1268.57H289.6L290.56 1271.29H292.24L288.08 1259.53H286.4L282.32 1271.29H284L284.88 1268.57ZM288.96 1266.73H285.6L287.28 1261.93L288.96 1266.73Z" fill="black"/>
<path fill-rule="evenodd" clip-rule="evenodd" d="M293.52 1271.29H299.36V1269.37H295.12V1259.53H293.52" fill="black"/>
<path fill-rule="evenodd" clip-rule="evenodd" d="M308.96 1269.61C309.92 1268.49 310.4 1267.05 310.4 1265.29C310.4 1263.53 309.92 1262.09 308.96 1260.97C308 1259.77 306.8 1259.21 305.44 1259.21C304.08 1259.21 302.88 1259.77 301.92 1260.97C300.96 1262.09 300.48 1263.53 300.48 1265.29C300.48 1267.05 300.96 1268.49 301.92 1269.61C302.88 1270.81 304.08 1271.37 305.44 1271.37C306.8 1271.37 308 1270.81 308.96 1269.61ZM307.76 1262.25C308.4 1263.13 308.72 1264.09 308.72 1265.29C308.72 1266.49 308.4 1267.45 307.76 1268.33C307.12 1269.13 306.4 1269.53 305.44 1269.53C304.48 1269.53 303.76 1269.13 303.12 1268.33C302.48 1267.45 302.16 1266.49 302.16 1265.29C302.16 1264.09 302.48 1263.13 303.12 1262.25C303.76 1261.45 304.48 1261.05 305.44 1261.05C306.4 1261.05 307.12 1261.45 307.76 1262.25Z" fill="black"/>
<path fill-rule="evenodd" clip-rule="evenodd" d="M315.2 1261.05C315.68 1261.05 316.16 1261.13 316.56 1261.37C317.04 1261.53 317.44 1261.85 317.76 1262.09L318.56 1260.65C318.16 1260.17 317.6 1259.85 317.04 1259.61C316.48 1259.37 315.84 1259.21 315.28 1259.21C314.32 1259.21 313.52 1259.53 312.88 1260.09C312.32 1260.65 312 1261.53 312 1262.65C312 1263.69 312.24 1264.49 312.8 1265.05C313.12 1265.29 313.36 1265.53 313.76 1265.69C314.08 1265.85 314.64 1266.09 315.36 1266.25C316 1266.49 316.48 1266.73 316.8 1266.97C317.04 1267.21 317.2 1267.61 317.2 1268.01C317.2 1268.49 317.04 1268.89 316.72 1269.13C316.48 1269.37 316.08 1269.53 315.52 1269.53C314.48 1269.53 313.52 1269.05 312.56 1268.01L311.6 1269.45C312.16 1270.09 312.8 1270.57 313.44 1270.89C314.08 1271.21 314.8 1271.37 315.52 1271.37C316.48 1271.37 317.28 1271.05 317.92 1270.41C318.56 1269.77 318.88 1268.97 318.88 1267.93C318.88 1266.89 318.64 1266.17 318.08 1265.61C317.6 1265.05 316.88 1264.65 315.92 1264.41C314.96 1264.09 314.32 1263.85 314.08 1263.53C313.76 1263.29 313.6 1262.97 313.6 1262.49C313.6 1262.01 313.76 1261.61 314.08 1261.37C314.32 1261.13 314.72 1261.05 315.2 1261.05Z" fill="black"/>
<path fill-rule="evenodd" clip-rule="evenodd" d="M166 863.047C166.96 861.927 167.44 860.407 167.44 858.727C167.44 856.967 166.96 855.527 166 854.407C165.12 853.207 163.92 852.647 162.56 852.647C161.12 852.647 159.92 853.207 159.04 854.407C158.08 855.527 157.6 856.967 157.6 858.727C157.6 860.407 158.08 861.927 159.04 863.047C159.92 864.247 161.12 864.807 162.56 864.807C163.92 864.807 165.12 864.247 166 863.047ZM164.88 855.687C165.52 856.567 165.84 857.527 165.84 858.727C165.84 859.927 165.52 860.887 164.88 861.767C164.24 862.567 163.44 862.967 162.56 862.967C161.6 862.967 160.8 862.567 160.16 861.767C159.52 860.887 159.2 859.927 159.2 858.727C159.2 857.527 159.52 856.567 160.16 855.687C160.8 854.887 161.6 854.487 162.56 854.487C163.44 854.487 164.24 854.887 164.88 855.687Z" fill="black"/>
<path fill-rule="evenodd" clip-rule="evenodd" d="M176.88 856.727C176.88 855.447 176.64 854.407 176 853.847C175.36 853.207 174.32 852.887 172.96 852.887H169.44V864.647H171.04V860.727H173.12L175.36 864.647H177.36L174.88 860.407C176.24 859.927 176.88 858.647 176.88 856.727ZM172.96 858.887H171.04V854.727H173.04C173.92 854.727 174.48 854.887 174.8 855.127C175.12 855.447 175.28 855.927 175.28 856.727C175.28 857.527 175.12 858.087 174.8 858.407C174.48 858.727 173.92 858.887 172.96 858.887Z" fill="black"/>
<path fill-rule="evenodd" clip-rule="evenodd" d="M182.4 852.887H179.2V864.647H180.8V861.207H182.4C183.84 861.207 184.8 860.887 185.52 860.247C186.16 859.607 186.48 858.567 186.48 857.127C186.48 855.687 186.16 854.647 185.52 853.927C184.88 853.287 183.84 852.887 182.4 852.887ZM182.64 859.447H180.8V854.727H182.4C183.2 854.727 183.84 854.887 184.24 855.207C184.64 855.527 184.88 856.167 184.88 856.967C184.88 857.767 184.72 858.407 184.4 858.807C184.08 859.207 183.52 859.447 182.64 859.447Z" fill="black"/>
<path d="M188.32 864.647H189.92V852.887H188.32V864.647Z" fill="black"/>
<path fill-rule="evenodd" clip-rule="evenodd" d="M199.52 852.887V861.687L194.08 852.887H192.56V864.647H194.08V856.087L199.44 864.647H201.12V852.887" fill="black"/>
<path fill-rule="evenodd" clip-rule="evenodd" d="M211.6 863.047C212.48 861.927 212.96 860.407 212.96 858.727C212.96 856.967 212.48 855.527 211.6 854.407C210.64 853.207 209.44 852.647 208.08 852.647C206.64 852.647 205.52 853.207 204.56 854.407C203.6 855.527 203.12 856.967 203.12 858.727C203.12 860.407 203.6 861.927 204.56 863.047C205.52 864.247 206.64 864.807 208.08 864.807C209.44 864.807 210.64 864.247 211.6 863.047ZM210.4 855.687C211.04 856.567 211.36 857.527 211.36 858.727C211.36 859.927 211.04 860.887 210.4 861.767C209.76 862.567 208.96 862.967 208.08 862.967C207.12 862.967 206.32 862.567 205.68 861.767C205.04 860.887 204.72 859.927 204.72 858.727C204.72 857.527 205.04 856.567 205.68 855.687C206.32 854.887 207.12 854.487 208.08 854.487C208.96 854.487 209.76 854.887 210.4 855.687Z" fill="black"/>
<path fill-rule="evenodd" clip-rule="evenodd" d="M217.84 854.487C218.24 854.487 218.72 854.567 219.2 854.807C219.68 854.967 220.08 855.207 220.32 855.527L221.2 854.087C220.72 853.607 220.24 853.287 219.68 853.047C219.04 852.727 218.48 852.647 217.84 852.647C216.96 852.647 216.16 852.967 215.52 853.527C214.88 854.087 214.56 854.967 214.56 856.007C214.56 857.127 214.88 857.927 215.44 858.487C215.68 858.727 216 858.967 216.4 859.127C216.72 859.287 217.28 859.527 217.92 859.687C218.64 859.927 219.12 860.167 219.36 860.407C219.68 860.647 219.84 860.967 219.84 861.447C219.84 861.927 219.68 862.247 219.36 862.567C219.04 862.807 218.64 862.967 218.16 862.967C217.12 862.967 216.16 862.407 215.2 861.447L214.24 862.887C214.8 863.527 215.36 864.007 216.08 864.327C216.72 864.647 217.36 864.807 218.08 864.807C219.12 864.807 219.92 864.487 220.56 863.847C221.12 863.207 221.44 862.407 221.44 861.367C221.44 860.327 221.2 859.527 220.72 859.047C220.24 858.487 219.52 858.087 218.56 857.767C217.6 857.527 216.96 857.207 216.72 856.967C216.4 856.727 216.24 856.407 216.24 855.927C216.24 855.447 216.4 855.047 216.72 854.807C216.96 854.567 217.36 854.487 217.84 854.487Z" fill="black"/>
<path fill-rule="evenodd" clip-rule="evenodd" d="M569.68 246.167H574.32V244.327H568.08V256.087H569.68V251.207H573.84V249.367H569.68" fill="black"/>
<path fill-rule="evenodd" clip-rule="evenodd" d="M583.68 248.087C583.68 246.807 583.36 245.847 582.72 245.207C582.08 244.567 581.12 244.327 579.68 244.327H576.16V256.087H577.76V252.087H579.84L582.08 256.087H584.08L581.6 251.767C582.96 251.287 583.68 250.087 583.68 248.087ZM579.76 250.327H577.76V246.087H579.76C580.64 246.087 581.2 246.247 581.52 246.567C581.84 246.807 582 247.367 582 248.087C582 248.887 581.84 249.447 581.52 249.767C581.2 250.167 580.64 250.327 579.76 250.327Z" fill="black"/>
<path fill-rule="evenodd" clip-rule="evenodd" d="M593.76 254.407C594.72 253.287 595.2 251.847 595.2 250.087C595.2 248.327 594.72 246.887 593.76 245.767C592.8 244.567 591.68 244.007 590.24 244.007C588.88 244.007 587.68 244.567 586.72 245.767C585.84 246.887 585.36 248.327 585.36 250.087C585.36 251.847 585.84 253.287 586.72 254.407C587.68 255.607 588.88 256.167 590.24 256.167C591.68 256.167 592.8 255.607 593.76 254.407ZM592.64 247.047C593.28 247.927 593.6 248.887 593.6 250.087C593.6 251.287 593.28 252.247 592.64 253.127C592 253.927 591.2 254.327 590.24 254.327C589.36 254.327 588.56 253.927 587.92 253.127C587.28 252.247 586.96 251.287 586.96 250.087C586.96 248.887 587.28 247.927 587.92 247.047C588.56 246.247 589.36 245.847 590.24 245.847C591.2 245.847 592 246.247 592.64 247.047Z" fill="black"/>
<path fill-rule="evenodd" clip-rule="evenodd" d="M598.8 256.087V246.887L602 255.047H602.88L606.16 246.887V256.087H607.76V244.327H605.28L602.48 251.687L599.68 244.327H597.2V256.087" fill="black"/>
<path fill-rule="evenodd" clip-rule="evenodd" d="M616.96 244.327H610.32V256.087H617.12V254.167H611.92V251.047H616.4V249.287H611.92V246.167H616.96" fill="black"/>
<path fill-rule="evenodd" clip-rule="evenodd" d="M871.36 295.607H872.96V290.807H877.6V295.607H879.2V283.847H877.6V288.967H872.96V283.847H871.36" fill="black"/>
<path fill-rule="evenodd" clip-rule="evenodd" d="M888.32 283.847H881.76V295.607H888.48V293.767H883.36V290.567H887.84V288.807H883.36V285.687H888.32" fill="black"/>
<path fill-rule="evenodd" clip-rule="evenodd" d="M896.08 295.607H898.08L894.88 289.527L897.84 283.847H895.84L893.76 287.847H893.68L891.6 283.847H889.68L892.64 289.527L889.44 295.607H891.44L893.68 291.207H893.76" fill="black"/>
<path fill-rule="evenodd" clip-rule="evenodd" d="M899.52 295.607H901.12V290.807H905.76V295.607H907.36V283.847H905.76V288.967H901.12V283.847H899.52" fill="black"/>
<path fill-rule="evenodd" clip-rule="evenodd" d="M911.28 292.887H916L916.88 295.607H918.64L914.48 283.847H912.8L908.64 295.607H910.32L911.28 292.887ZM915.36 291.127H911.92L913.6 286.247L915.36 291.127Z" fill="black"/>
<path fill-rule="evenodd" clip-rule="evenodd" d="M921.52 295.607V286.407L924.72 294.567H925.6L928.88 286.407V295.607H930.48V283.847H928L925.2 291.207L922.4 283.847H919.92V295.607" fill="black"/>
<path fill-rule="evenodd" clip-rule="evenodd" d="M1167.12 879.687C1167.6 879.687 1168.08 879.767 1168.56 880.007C1168.96 880.167 1169.36 880.487 1169.68 880.727L1170.48 879.287C1170.08 878.807 1169.52 878.487 1168.96 878.247C1168.4 878.007 1167.76 877.847 1167.2 877.847C1166.24 877.847 1165.44 878.167 1164.88 878.727C1164.24 879.287 1163.92 880.167 1163.92 881.287C1163.92 882.327 1164.16 883.127 1164.72 883.687C1165.04 883.927 1165.36 884.167 1165.68 884.327C1166.08 884.487 1166.56 884.727 1167.28 884.887C1167.92 885.127 1168.4 885.367 1168.72 885.607C1168.96 885.847 1169.12 886.247 1169.12 886.647C1169.12 887.127 1168.96 887.527 1168.64 887.767C1168.4 888.007 1168 888.167 1167.44 888.167C1166.48 888.167 1165.44 887.687 1164.48 886.647L1163.52 888.087C1164.08 888.727 1164.72 889.207 1165.36 889.527C1166 889.847 1166.72 890.007 1167.44 890.007C1168.4 890.007 1169.2 889.687 1169.84 889.047C1170.48 888.407 1170.8 887.607 1170.8 886.567C1170.8 885.527 1170.56 884.807 1170.08 884.247C1169.52 883.687 1168.8 883.287 1167.84 883.047C1166.88 882.727 1166.32 882.487 1166 882.167C1165.68 881.927 1165.52 881.607 1165.52 881.127C1165.52 880.647 1165.68 880.247 1166 880.007C1166.32 879.767 1166.64 879.687 1167.12 879.687Z" fill="black"/>
<path fill-rule="evenodd" clip-rule="evenodd" d="M1176.24 879.927H1179.12V878.167H1171.84V879.927H1174.64V889.927H1176.24" fill="black"/>
<path fill-rule="evenodd" clip-rule="evenodd" d="M1188.32 881.927C1188.32 880.647 1188 879.687 1187.36 879.047C1186.72 878.407 1185.76 878.167 1184.32 878.167H1180.8V889.927H1182.4V885.927H1184.48L1186.72 889.927H1188.72L1186.24 885.607C1187.6 885.127 1188.32 883.927 1188.32 881.927ZM1184.4 884.167H1182.4V879.927H1184.4C1185.28 879.927 1185.84 880.087 1186.16 880.407C1186.48 880.647 1186.64 881.207 1186.64 881.927C1186.64 882.727 1186.48 883.287 1186.16 883.607C1185.84 883.927 1185.28 884.167 1184.4 884.167Z" fill="black"/>
<path fill-rule="evenodd" clip-rule="evenodd" d="M1191.92 887.207H1196.56L1197.52 889.927H1199.2L1195.04 878.167H1193.36L1189.28 889.927H1190.96L1191.92 887.207ZM1195.92 885.367H1192.56L1194.24 880.567L1195.92 885.367Z" fill="black"/>
<path fill-rule="evenodd" clip-rule="evenodd" d="M1204.08 879.927H1206.88V878.167H1199.6V879.927H1202.48V889.927H1204.08" fill="black"/>
<path fill-rule="evenodd" clip-rule="evenodd" d="M1210.16 880.007H1214.8L1214.88 878.167H1208.56V889.927H1210.16V885.047H1214.32V883.207H1210.16" fill="black"/>
<path fill-rule="evenodd" clip-rule="evenodd" d="M1224.56 888.247C1225.44 887.127 1225.92 885.687 1225.92 883.927C1225.92 882.167 1225.44 880.727 1224.56 879.607C1223.6 878.407 1222.4 877.847 1221.04 877.847C1219.6 877.847 1218.48 878.407 1217.52 879.607C1216.56 880.727 1216.08 882.167 1216.08 883.927C1216.08 885.687 1216.56 887.127 1217.52 888.247C1218.48 889.447 1219.6 890.007 1221.04 890.007C1222.4 890.007 1223.6 889.447 1224.56 888.247ZM1223.36 880.887C1224 881.767 1224.32 882.727 1224.32 883.927C1224.32 885.127 1224 886.087 1223.36 886.967C1222.72 887.767 1221.92 888.167 1221.04 888.167C1220.08 888.167 1219.28 887.767 1218.64 886.967C1218 886.087 1217.68 885.127 1217.68 883.927C1217.68 882.727 1218 881.767 1218.64 880.887C1219.28 880.087 1220.08 879.687 1221.04 879.687C1221.92 879.687 1222.72 880.087 1223.36 880.887Z" fill="black"/>
<path fill-rule="evenodd" clip-rule="evenodd" d="M1235.44 881.927C1235.44 880.647 1235.12 879.687 1234.48 879.047C1233.84 878.407 1232.88 878.167 1231.44 878.167H1227.92V889.927H1229.52V885.927H1231.6L1233.84 889.927H1235.84L1233.36 885.607C1234.72 885.127 1235.44 883.927 1235.44 881.927ZM1231.52 884.167H1229.52V879.927H1231.52C1232.4 879.927 1232.96 880.087 1233.28 880.407C1233.6 880.647 1233.76 881.207 1233.76 881.927C1233.76 882.727 1233.6 883.287 1233.28 883.607C1232.96 883.927 1232.4 884.167 1231.52 884.167Z" fill="black"/>
<path fill-rule="evenodd" clip-rule="evenodd" d="M1240.88 878.167H1237.68V889.927H1240.8C1242.64 889.927 1243.92 889.367 1244.8 888.327C1245.68 887.207 1246.16 885.767 1246.16 883.927C1246.16 882.167 1245.68 880.727 1244.8 879.687C1243.84 878.647 1242.56 878.167 1240.88 878.167ZM1244.56 884.007C1244.56 885.367 1244.24 886.327 1243.6 886.967C1243.04 887.687 1242.16 888.007 1241.04 888.007H1239.28V880.007H1240.88C1242.08 880.007 1242.96 880.327 1243.6 880.967C1244.24 881.687 1244.56 882.647 1244.56 884.007Z" fill="black"/>
<path fill-rule="evenodd" clip-rule="evenodd" d="M1346.72 1129.29V1120.17L1350 1128.25H1350.88L1354.16 1120.17V1129.29H1355.68V1117.53H1353.28L1350.4 1124.97L1347.6 1117.53H1345.12V1129.29" fill="black"/>
<path fill-rule="evenodd" clip-rule="evenodd" d="M1359.68 1126.65H1364.32L1365.28 1129.29H1366.96L1362.8 1117.53H1361.12L1357.04 1129.29H1358.72L1359.68 1126.65ZM1363.68 1124.81H1360.32L1362 1119.93L1363.68 1124.81Z" fill="black"/>
<path fill-rule="evenodd" clip-rule="evenodd" d="M1374.72 1123.61V1126.81C1374.16 1127.29 1373.44 1127.53 1372.48 1127.53C1371.6 1127.53 1370.88 1127.21 1370.24 1126.41C1369.6 1125.69 1369.28 1124.65 1369.28 1123.37C1369.28 1122.17 1369.6 1121.13 1370.24 1120.41C1370.88 1119.61 1371.68 1119.21 1372.64 1119.21C1373.12 1119.21 1373.6 1119.29 1373.92 1119.45C1374.32 1119.61 1374.72 1119.85 1375.04 1120.25L1375.92 1118.73C1375.04 1117.77 1373.92 1117.29 1372.56 1117.29C1371.2 1117.29 1370 1117.85 1369.12 1119.05C1368.16 1120.17 1367.68 1121.61 1367.68 1123.37C1367.68 1125.13 1368.16 1126.57 1369.04 1127.77C1370 1128.89 1371.12 1129.45 1372.56 1129.45C1374.16 1129.45 1375.44 1128.81 1376.32 1127.61V1123.61H1374.72Z" fill="black"/>
<path fill-rule="evenodd" clip-rule="evenodd" d="M1378.4 1129.29H1380V1124.49H1384.64V1129.29H1386.24V1117.53H1384.64V1122.65H1380V1117.53H1378.4" fill="black"/>
<path fill-rule="evenodd" clip-rule="evenodd" d="M1390.88 1126.65C1390.48 1126.01 1390.24 1125.13 1390.24 1124.09V1117.53H1388.72V1124.17C1388.72 1125.85 1389.04 1127.13 1389.76 1128.09C1390.56 1128.97 1391.52 1129.45 1392.64 1129.45C1393.84 1129.45 1394.72 1128.97 1395.52 1128.09C1396.24 1127.13 1396.64 1125.85 1396.64 1124.17V1117.53H1395.04V1124.09C1395.04 1125.13 1394.8 1126.01 1394.4 1126.65C1394 1127.29 1393.36 1127.53 1392.64 1127.53C1391.92 1127.53 1391.36 1127.29 1390.88 1126.65Z" fill="black"/>
<path fill-rule="evenodd" clip-rule="evenodd" d="M1399.12 1129.29H1404.96V1127.45H1400.64V1117.53H1399.12" fill="black"/>
<path fill-rule="evenodd" clip-rule="evenodd" d="M1406.64 1129.29H1412.56V1127.45H1408.24V1117.53H1406.64" fill="black"/>
<path fill-rule="evenodd" clip-rule="evenodd" d="M1016.96 1316.73H1013.76V1328.49H1015.36V1325.05H1017.04C1018.4 1325.05 1019.44 1324.73 1020.08 1324.01C1020.72 1323.37 1021.12 1322.33 1021.12 1320.89C1021.12 1319.45 1020.72 1318.41 1020.08 1317.77C1019.44 1317.05 1018.4 1316.73 1016.96 1316.73ZM1017.2 1323.21H1015.36V1318.49H1016.96C1017.84 1318.49 1018.48 1318.65 1018.88 1319.05C1019.28 1319.37 1019.44 1319.93 1019.44 1320.73C1019.44 1321.53 1019.28 1322.17 1018.96 1322.57C1018.64 1323.05 1018.08 1323.21 1017.2 1323.21Z" fill="black"/>
<path fill-rule="evenodd" clip-rule="evenodd" d="M1024.24 1325.77H1028.96L1029.92 1328.49H1031.6L1027.44 1316.73H1025.76L1021.68 1328.49H1023.36L1024.24 1325.77ZM1028.32 1323.93H1024.88L1026.64 1319.13L1028.32 1323.93Z" fill="black"/>
<path d="M1032.88 1328.49H1034.48V1316.73H1032.88V1328.49Z" fill="black"/>
<path fill-rule="evenodd" clip-rule="evenodd" d="M1043.52 1322.73V1326.01C1042.96 1326.49 1042.24 1326.73 1041.28 1326.73C1040.4 1326.73 1039.68 1326.33 1039.04 1325.61C1038.4 1324.81 1038.08 1323.85 1038.08 1322.57C1038.08 1321.29 1038.4 1320.33 1039.04 1319.53C1039.68 1318.81 1040.48 1318.41 1041.44 1318.41C1041.92 1318.41 1042.4 1318.49 1042.72 1318.65C1043.12 1318.73 1043.52 1319.05 1043.84 1319.45L1044.72 1317.93C1043.84 1316.97 1042.72 1316.41 1041.36 1316.41C1040 1316.41 1038.8 1317.05 1037.92 1318.17C1036.96 1319.37 1036.48 1320.81 1036.48 1322.57C1036.48 1324.33 1036.96 1325.77 1037.84 1326.89C1038.8 1328.01 1039.92 1328.57 1041.36 1328.57C1042.96 1328.57 1044.24 1328.01 1045.12 1326.81V1322.73H1043.52Z" fill="black"/>
<path fill-rule="evenodd" clip-rule="evenodd" d="M1054.24 1316.73V1325.53L1048.8 1316.73H1047.2V1328.49H1048.8V1319.93L1054.08 1328.49H1055.84V1316.73" fill="black"/>
<path fill-rule="evenodd" clip-rule="evenodd" d="M1061.92 1318.57H1064.8V1316.73H1057.52V1318.57H1060.32V1328.49H1061.92" fill="black"/>
<path fill-rule="evenodd" clip-rule="evenodd" d="M1074.32 1326.81C1075.28 1325.69 1075.76 1324.25 1075.76 1322.49C1075.76 1320.81 1075.28 1319.37 1074.32 1318.17C1073.36 1317.05 1072.24 1316.41 1070.8 1316.41C1069.44 1316.41 1068.24 1317.05 1067.28 1318.17C1066.4 1319.37 1065.92 1320.81 1065.92 1322.49C1065.92 1324.25 1066.4 1325.69 1067.28 1326.81C1068.24 1328.01 1069.44 1328.57 1070.8 1328.57C1072.24 1328.57 1073.36 1328.01 1074.32 1326.81ZM1073.2 1319.53C1073.84 1320.33 1074.16 1321.37 1074.16 1322.49C1074.16 1323.69 1073.84 1324.73 1073.2 1325.53C1072.56 1326.33 1071.76 1326.81 1070.8 1326.81C1069.92 1326.81 1069.12 1326.33 1068.48 1325.53C1067.84 1324.73 1067.52 1323.69 1067.52 1322.49C1067.52 1321.37 1067.84 1320.33 1068.48 1319.53C1069.12 1318.65 1069.92 1318.25 1070.8 1318.25C1071.76 1318.25 1072.56 1318.65 1073.2 1319.53Z" fill="black"/>
<path fill-rule="evenodd" clip-rule="evenodd" d="M1084.8 1316.73V1325.53L1079.36 1316.73H1077.76V1328.49H1079.36V1319.93L1084.64 1328.49H1086.32V1316.73" fill="black"/>
<path fill-rule="evenodd" clip-rule="evenodd" d="M644.16 1967.29V1979.05H645.76V1975.77L647.12 1973.85L650.24 1979.05H652.08L648.24 1972.41L652 1967.29H650L645.76 1972.97V1967.29" fill="black"/>
<path fill-rule="evenodd" clip-rule="evenodd" d="M654.88 1976.33H659.6L660.56 1979.05H662.24L658.08 1967.29H656.4L652.32 1979.05H654L654.88 1976.33ZM658.96 1974.49H655.52L657.28 1969.69L658.96 1974.49Z" fill="black"/>
<path fill-rule="evenodd" clip-rule="evenodd" d="M667.04 1969.13H669.92V1967.29H662.64V1969.13H665.44V1979.05H667.04" fill="black"/>
<path fill-rule="evenodd" clip-rule="evenodd" d="M672.96 1976.33H677.6L678.56 1979.05H680.24L676.16 1967.29H674.4L670.32 1979.05H672L672.96 1976.33ZM676.96 1974.49H673.6L675.28 1969.69L676.96 1974.49Z" fill="black"/>
<path fill-rule="evenodd" clip-rule="evenodd" d="M684.8 1967.29H681.52V1979.05H683.12V1975.61H684.8C686.16 1975.61 687.2 1975.21 687.84 1974.57C688.56 1973.93 688.88 1972.89 688.88 1971.45C688.88 1970.01 688.56 1968.97 687.84 1968.33C687.2 1967.61 686.16 1967.29 684.8 1967.29ZM684.96 1973.77H683.12V1969.05H684.72C685.6 1969.05 686.24 1969.21 686.64 1969.61C687.04 1969.93 687.2 1970.49 687.2 1971.29C687.2 1972.09 687.04 1972.73 686.72 1973.13C686.48 1973.61 685.84 1973.77 684.96 1973.77Z" fill="black"/>
<path fill-rule="evenodd" clip-rule="evenodd" d="M698.56 1977.37C699.52 1976.25 700 1974.81 700 1973.05C700 1971.37 699.52 1969.93 698.56 1968.73C697.6 1967.61 696.4 1966.97 695.04 1966.97C693.68 1966.97 692.48 1967.61 691.52 1968.73C690.56 1969.93 690.08 1971.37 690.08 1973.05C690.08 1974.81 690.56 1976.25 691.52 1977.37C692.48 1978.57 693.68 1979.13 695.04 1979.13C696.4 1979.13 697.6 1978.57 698.56 1977.37ZM697.36 1970.09C698 1970.89 698.32 1971.85 698.32 1973.05C698.32 1974.25 698 1975.29 697.36 1976.09C696.72 1976.89 696 1977.29 695.04 1977.29C694.08 1977.29 693.36 1976.89 692.72 1976.09C692.08 1975.29 691.76 1974.25 691.76 1973.05C691.76 1971.85 692.08 1970.89 692.72 1970.09C693.36 1969.21 694.08 1968.81 695.04 1968.81C696 1968.81 696.72 1969.21 697.36 1970.09Z" fill="black"/>
<path fill-rule="evenodd" clip-rule="evenodd" d="M704.8 1968.81C705.28 1968.81 705.76 1968.89 706.16 1969.13C706.64 1969.29 707.04 1969.61 707.36 1969.93L708.16 1968.41C707.76 1967.93 707.2 1967.61 706.64 1967.37C706.08 1967.13 705.44 1966.97 704.88 1966.97C703.92 1966.97 703.12 1967.29 702.48 1967.85C701.92 1968.49 701.6 1969.29 701.6 1970.41C701.6 1971.45 701.84 1972.25 702.4 1972.81C702.72 1973.05 702.96 1973.29 703.36 1973.45C703.68 1973.69 704.24 1973.85 704.96 1974.09C705.6 1974.25 706.08 1974.49 706.4 1974.73C706.64 1974.97 706.8 1975.37 706.8 1975.77C706.8 1976.25 706.64 1976.65 706.32 1976.89C706.08 1977.21 705.68 1977.29 705.12 1977.29C704.08 1977.29 703.12 1976.81 702.16 1975.77L701.2 1977.29C701.76 1977.93 702.4 1978.33 703.04 1978.65C703.68 1978.97 704.4 1979.13 705.12 1979.13C706.08 1979.13 706.88 1978.81 707.52 1978.17C708.16 1977.53 708.48 1976.73 708.48 1975.69C708.48 1974.65 708.24 1973.93 707.68 1973.37C707.2 1972.89 706.48 1972.41 705.52 1972.17C704.56 1971.85 703.92 1971.61 703.68 1971.37C703.36 1971.05 703.2 1970.73 703.2 1970.25C703.2 1969.77 703.36 1969.45 703.68 1969.21C703.92 1968.97 704.32 1968.81 704.8 1968.81Z" fill="black"/>
<path fill-rule="evenodd" clip-rule="evenodd" d="M1088.64 1893.05H1085.44V1904.81H1088.56C1090.32 1904.81 1091.68 1904.33 1092.56 1903.21C1093.44 1902.17 1093.84 1900.73 1093.84 1898.89C1093.84 1897.05 1093.44 1895.61 1092.48 1894.65C1091.6 1893.61 1090.32 1893.05 1088.64 1893.05ZM1092.24 1898.97C1092.24 1900.25 1091.92 1901.29 1091.36 1901.93C1090.72 1902.65 1089.92 1902.97 1088.72 1902.97H1086.96V1894.89H1088.56C1089.84 1894.89 1090.72 1895.29 1091.36 1895.93C1091.92 1896.57 1092.24 1897.61 1092.24 1898.97Z" fill="black"/>
<path fill-rule="evenodd" clip-rule="evenodd" d="M1103.36 1896.89C1103.36 1895.53 1103.04 1894.57 1102.4 1894.01C1101.84 1893.37 1100.8 1893.05 1099.36 1893.05H1095.92V1904.81H1097.44V1900.89H1099.52L1101.76 1904.81H1103.76L1101.36 1900.57C1102.72 1900.09 1103.36 1898.81 1103.36 1896.89ZM1099.44 1899.05H1097.44V1894.89H1099.52C1100.32 1894.89 1100.88 1895.05 1101.28 1895.29C1101.6 1895.61 1101.76 1896.09 1101.76 1896.89C1101.76 1897.69 1101.6 1898.25 1101.28 1898.57C1100.96 1898.89 1100.32 1899.05 1099.44 1899.05Z" fill="black"/>
<path fill-rule="evenodd" clip-rule="evenodd" d="M1113.44 1903.21C1114.4 1902.09 1114.88 1900.57 1114.88 1898.89C1114.88 1897.13 1114.4 1895.69 1113.44 1894.57C1112.56 1893.37 1111.36 1892.81 1110 1892.81C1108.56 1892.81 1107.44 1893.37 1106.48 1894.57C1105.52 1895.69 1105.04 1897.13 1105.04 1898.89C1105.04 1900.57 1105.52 1902.09 1106.48 1903.21C1107.44 1904.41 1108.56 1904.97 1110 1904.97C1111.36 1904.97 1112.56 1904.41 1113.44 1903.21ZM1112.32 1895.85C1112.96 1896.65 1113.28 1897.69 1113.28 1898.89C1113.28 1900.09 1112.96 1901.05 1112.32 1901.93C1111.68 1902.73 1110.88 1903.13 1110 1903.13C1109.04 1903.13 1108.24 1902.73 1107.6 1901.93C1106.96 1901.05 1106.64 1900.09 1106.64 1898.89C1106.64 1897.69 1106.96 1896.65 1107.6 1895.85C1108.24 1895.05 1109.04 1894.65 1110 1894.65C1110.88 1894.65 1111.68 1895.05 1112.32 1895.85Z" fill="black"/>
<path d="M1116.88 1904.81H1118.48V1893.05H1116.88V1904.81Z" fill="black"/>
<path fill-rule="evenodd" clip-rule="evenodd" d="M1124.64 1894.89H1127.44V1893.05H1120.16V1894.89H1123.04V1904.81H1124.64" fill="black"/>
<path fill-rule="evenodd" clip-rule="evenodd" d="M1132.08 1901.53L1129.76 1893.05H1128L1131.28 1904.81H1132.88L1134.8 1896.81H1134.96L1136.88 1904.81H1138.48L1141.76 1893.05H1140L1137.68 1901.53L1135.6 1893.05H1134.16" fill="black"/>
<path d="M1143.2 1904.81H1144.8V1893.05H1143.2V1904.81Z" fill="black"/>
<path fill-rule="evenodd" clip-rule="evenodd" d="M1151.68 1903.05C1150.8 1903.05 1150 1902.65 1149.36 1901.85C1148.72 1901.05 1148.4 1900.01 1148.4 1898.81C1148.4 1897.61 1148.72 1896.65 1149.36 1895.93C1150 1895.13 1150.8 1894.73 1151.76 1894.73C1152.32 1894.73 1152.8 1894.89 1153.2 1895.05C1153.6 1895.29 1154 1895.69 1154.4 1896.17L1155.44 1894.81C1154.96 1894.17 1154.4 1893.61 1153.76 1893.29C1153.2 1892.97 1152.56 1892.81 1151.84 1892.81C1150.32 1892.81 1149.12 1893.37 1148.16 1894.57C1147.28 1895.69 1146.8 1897.13 1146.8 1898.89C1146.8 1900.65 1147.2 1902.09 1148.16 1903.29C1149.12 1904.41 1150.24 1904.97 1151.68 1904.97C1153.12 1904.97 1154.32 1904.25 1155.28 1902.89L1154.32 1901.61C1153.84 1902.09 1153.44 1902.49 1153.04 1902.65C1152.64 1902.89 1152.16 1903.05 1151.68 1903.05Z" fill="black"/>
<path fill-rule="evenodd" clip-rule="evenodd" d="M1157.2 1904.81H1158.8V1900.01H1163.44V1904.81H1165.04V1893.05H1163.44V1898.17H1158.8V1893.05H1157.2" fill="black"/>
<path fill-rule="evenodd" clip-rule="evenodd" d="M1431.04 1918.81H1424.48V1930.49H1431.2V1928.65H1426V1925.53H1430.48V1923.77H1426V1920.65H1431.04" fill="black"/>
<path fill-rule="evenodd" clip-rule="evenodd" d="M1433.2 1930.49H1439.04V1928.65H1434.8V1918.81H1433.2" fill="black"/>
<path fill-rule="evenodd" clip-rule="evenodd" d="M1444.48 1930.49V1925.85L1447.92 1918.81H1446.24L1443.68 1924.09L1441.12 1918.81H1439.36L1442.88 1925.85V1930.49" fill="black"/>
<path fill-rule="evenodd" clip-rule="evenodd" d="M1984.72 2229.29V2220.17L1988 2228.33H1988.88L1992.16 2220.17V2229.29H1993.68V2217.61H1991.28L1988.4 2224.97L1985.6 2217.61H1983.12V2229.29" fill="black"/>
<path fill-rule="evenodd" clip-rule="evenodd" d="M1997.6 2226.65H2002.32L2003.28 2229.29H2004.96L2000.8 2217.61H1999.12L1995.04 2229.29H1996.72L1997.6 2226.65ZM2001.68 2224.81H1998.24L2000 2220.01L2001.68 2224.81Z" fill="black"/>
<path fill-rule="evenodd" clip-rule="evenodd" d="M2009.92 2229.29V2224.65L2013.44 2217.61H2011.68L2009.12 2222.89L2006.56 2217.61H2004.88L2008.32 2224.65V2229.29" fill="black"/>
<path fill-rule="evenodd" clip-rule="evenodd" d="M2018.72 2229.29C2020 2229.29 2020.88 2228.97 2021.44 2228.25C2021.84 2227.61 2022.08 2226.89 2022.08 2226.09C2022.08 2225.29 2021.92 2224.73 2021.6 2224.25C2021.2 2223.69 2020.72 2223.37 2020.16 2223.21C2020.32 2223.13 2020.48 2223.05 2020.48 2223.05C2020.56 2222.97 2020.72 2222.89 2020.88 2222.73C2021.36 2222.33 2021.52 2221.61 2021.52 2220.65C2021.52 2219.93 2021.36 2219.21 2020.88 2218.65C2020.72 2218.33 2020.32 2218.09 2019.92 2217.85C2019.44 2217.69 2018.88 2217.61 2018.24 2217.61H2014.64V2229.29H2018.72ZM2016.16 2222.49V2219.45H2018.24C2018.8 2219.45 2019.2 2219.53 2019.52 2219.77C2019.76 2220.01 2019.92 2220.41 2019.92 2220.97C2019.92 2221.93 2019.36 2222.49 2018.16 2222.49H2016.16ZM2016.16 2227.53V2224.25H2018.48C2019.12 2224.25 2019.6 2224.41 2019.92 2224.65C2020.32 2224.97 2020.48 2225.29 2020.48 2225.85C2020.48 2226.49 2020.32 2226.89 2020 2227.13C2019.68 2227.37 2019.28 2227.53 2018.64 2227.53H2016.16Z" fill="black"/>
<path fill-rule="evenodd" clip-rule="evenodd" d="M2026.16 2226.65C2025.76 2226.01 2025.52 2225.13 2025.52 2224.09V2217.61H2023.92V2224.17C2023.92 2225.85 2024.32 2227.13 2025.04 2228.09C2025.76 2228.97 2026.72 2229.45 2027.92 2229.45C2029.04 2229.45 2030 2228.97 2030.72 2228.09C2031.52 2227.13 2031.84 2225.85 2031.84 2224.17V2217.61H2030.32V2224.09C2030.32 2225.13 2030.08 2226.01 2029.68 2226.65C2029.2 2227.29 2028.64 2227.61 2027.92 2227.61C2027.2 2227.61 2026.56 2227.29 2026.16 2226.65Z" fill="black"/>
<path fill-rule="evenodd" clip-rule="evenodd" d="M2041.84 2221.37C2041.84 2220.09 2041.52 2219.13 2040.88 2218.49C2040.24 2217.85 2039.28 2217.61 2037.84 2217.61H2034.32V2229.29H2035.92V2225.37H2038L2040.24 2229.29H2042.24L2039.76 2225.05C2041.12 2224.57 2041.84 2223.37 2041.84 2221.37ZM2037.92 2223.61H2035.92V2219.37H2037.92C2038.8 2219.37 2039.36 2219.53 2039.68 2219.77C2040 2220.09 2040.16 2220.65 2040.16 2221.37C2040.16 2222.17 2040 2222.73 2039.68 2223.05C2039.36 2223.37 2038.8 2223.61 2037.92 2223.61Z" fill="black"/>
<path fill-rule="evenodd" clip-rule="evenodd" d="M2050.56 2223.61V2226.81C2050 2227.29 2049.2 2227.53 2048.32 2227.53C2047.44 2227.53 2046.72 2227.21 2046.08 2226.41C2045.44 2225.69 2045.12 2224.65 2045.12 2223.45C2045.12 2222.17 2045.44 2221.13 2046.08 2220.41C2046.72 2219.61 2047.52 2219.21 2048.48 2219.21C2048.96 2219.21 2049.44 2219.29 2049.76 2219.45C2050.16 2219.61 2050.48 2219.93 2050.88 2220.25L2051.76 2218.81C2050.8 2217.77 2049.68 2217.29 2048.4 2217.29C2047.04 2217.29 2045.84 2217.85 2044.88 2219.05C2044 2220.17 2043.52 2221.69 2043.52 2223.45C2043.52 2225.13 2043.92 2226.57 2044.88 2227.77C2045.84 2228.89 2046.96 2229.45 2048.4 2229.45C2050 2229.45 2051.28 2228.89 2052.16 2227.61V2223.61H2050.56Z" fill="black"/>
<path fill-rule="evenodd" clip-rule="evenodd" d="M2054.24 2229.29H2055.84V2224.49H2060.48V2229.29H2062.08V2217.61H2060.48V2222.65H2055.84V2217.61H2054.24" fill="black"/>
<path fill-rule="evenodd" clip-rule="evenodd" d="M2295.84 1943.61H2289.28V1955.29H2296V1953.45H2290.8V1950.33H2295.36V1948.57H2290.8V1945.45H2295.84" fill="black"/>
<path fill-rule="evenodd" clip-rule="evenodd" d="M2298 1955.29H2303.84V1953.45H2299.6V1943.61H2298" fill="black"/>
<path fill-rule="evenodd" clip-rule="evenodd" d="M2305.6 1955.29H2311.44V1953.45H2307.2V1943.61H2305.6" fill="black"/>
<path fill-rule="evenodd" clip-rule="evenodd" d="M2319.76 1943.61H2313.2V1955.29H2319.92V1953.45H2314.8V1950.33H2319.28V1948.57H2314.8V1945.45H2319.76" fill="black"/>
<path fill-rule="evenodd" clip-rule="evenodd" d="M2324.8 1945.13C2325.2 1945.13 2325.68 1945.21 2326.16 1945.45C2326.64 1945.61 2327.04 1945.85 2327.28 1946.17L2328.16 1944.73C2327.68 1944.25 2327.2 1943.93 2326.64 1943.69C2326 1943.45 2325.44 1943.29 2324.8 1943.29C2323.92 1943.29 2323.12 1943.61 2322.48 1944.17C2321.84 1944.73 2321.52 1945.61 2321.52 1946.65C2321.52 1947.77 2321.84 1948.57 2322.4 1949.13C2322.64 1949.37 2322.96 1949.61 2323.36 1949.77C2323.68 1949.93 2324.24 1950.17 2324.88 1950.33C2325.6 1950.57 2326.08 1950.81 2326.32 1951.05C2326.64 1951.29 2326.8 1951.69 2326.8 1952.09C2326.8 1952.57 2326.64 1952.89 2326.32 1953.21C2326 1953.45 2325.6 1953.61 2325.12 1953.61C2324.08 1953.61 2323.12 1953.13 2322.16 1952.09L2321.2 1953.53C2321.76 1954.17 2322.32 1954.65 2323.04 1954.97C2323.68 1955.29 2324.32 1955.45 2325.04 1955.45C2326.08 1955.45 2326.88 1955.13 2327.52 1954.49C2328.08 1953.85 2328.4 1953.05 2328.4 1952.01C2328.4 1950.97 2328.16 1950.17 2327.68 1949.69C2327.2 1949.13 2326.48 1948.73 2325.52 1948.49C2324.56 1948.17 2323.92 1947.93 2323.68 1947.61C2323.36 1947.37 2323.2 1947.05 2323.2 1946.57C2323.2 1946.09 2323.36 1945.69 2323.68 1945.45C2323.92 1945.21 2324.32 1945.13 2324.8 1945.13Z" fill="black"/>
<path fill-rule="evenodd" clip-rule="evenodd" d="M2331.92 1955.29V1946.17L2335.2 1954.33H2336.08L2339.36 1946.17V1955.29H2340.96V1943.61H2338.48L2335.68 1950.97L2332.88 1943.61H2330.4V1955.29" fill="black"/>
<path fill-rule="evenodd" clip-rule="evenodd" d="M2350.16 1943.61H2343.52V1955.29H2350.32V1953.45H2345.12V1950.33H2349.6V1948.57H2345.12V1945.45H2350.16" fill="black"/>
<path fill-rule="evenodd" clip-rule="evenodd" d="M2359.76 1947.37C2359.76 1946.09 2359.44 1945.13 2358.88 1944.49C2358.24 1943.85 2357.2 1943.61 2355.76 1943.61H2352.32V1955.29H2353.92V1951.37H2356L2358.24 1955.29H2360.24L2357.76 1951.05C2359.12 1950.57 2359.76 1949.37 2359.76 1947.37ZM2355.84 1949.61H2353.92V1945.37H2355.92C2356.72 1945.37 2357.36 1945.53 2357.68 1945.77C2358 1946.09 2358.16 1946.65 2358.16 1947.37C2358.16 1948.17 2358 1948.73 2357.68 1949.05C2357.36 1949.37 2356.72 1949.61 2355.84 1949.61Z" fill="black"/>
<path fill-rule="evenodd" clip-rule="evenodd" d="M2368.64 1943.61H2362.08V1955.29H2368.8V1953.45H2363.6V1950.33H2368.16V1948.57H2363.6V1945.45H2368.64" fill="black"/>
<path fill-rule="evenodd" clip-rule="evenodd" d="M1711.04 636.967H1712.64V632.167H1717.28V636.967H1718.88V625.207H1717.28V630.327H1712.64V625.207H1711.04" fill="black"/>
<path fill-rule="evenodd" clip-rule="evenodd" d="M1722.8 634.327H1727.44L1728.4 636.967H1730.08L1726 625.207H1724.32L1720.16 636.967H1721.84L1722.8 634.327ZM1726.8 632.487H1723.44L1725.12 627.607L1726.8 632.487Z" fill="black"/>
<path fill-rule="evenodd" clip-rule="evenodd" d="M1738.88 629.047C1738.88 627.687 1738.56 626.727 1737.92 626.167C1737.36 625.527 1736.32 625.207 1734.88 625.207H1731.44V636.967H1732.96V633.047H1735.04L1737.28 636.967H1739.28L1736.88 632.727C1738.24 632.247 1738.88 630.967 1738.88 629.047ZM1734.96 631.207H1732.96V627.047H1734.96C1735.84 627.047 1736.4 627.207 1736.72 627.447C1737.12 627.767 1737.28 628.247 1737.28 629.047C1737.28 629.847 1737.12 630.407 1736.8 630.727C1736.48 631.047 1735.84 631.207 1734.96 631.207Z" fill="black"/>
<path fill-rule="evenodd" clip-rule="evenodd" d="M1744.72 627.047H1747.52V625.207H1740.24V627.047H1743.12V636.967H1744.72" fill="black"/>
<path fill-rule="evenodd" clip-rule="evenodd" d="M1749.28 636.967H1755.12V635.127H1750.8V625.207H1749.28" fill="black"/>
<path fill-rule="evenodd" clip-rule="evenodd" d="M1763.44 625.207H1756.8V636.967H1763.6V635.127H1758.4V632.007H1762.88V630.247H1758.4V627.127H1763.44" fill="black"/>
<path fill-rule="evenodd" clip-rule="evenodd" d="M1768.8 625.207H1765.6V636.967H1767.2V633.527H1768.8C1770.24 633.527 1771.2 633.207 1771.92 632.567C1772.56 631.927 1772.88 630.807 1772.88 629.447C1772.88 628.007 1772.56 626.967 1771.92 626.247C1771.28 625.607 1770.24 625.207 1768.8 625.207ZM1769.04 631.767H1767.2V627.047H1768.8C1769.6 627.047 1770.24 627.207 1770.64 627.527C1771.04 627.847 1771.28 628.487 1771.28 629.287C1771.28 630.087 1771.12 630.727 1770.8 631.127C1770.48 631.527 1769.84 631.767 1769.04 631.767Z" fill="black"/>
<path fill-rule="evenodd" clip-rule="evenodd" d="M1782.56 635.367C1783.52 634.167 1784 632.727 1784 631.047C1784 629.287 1783.52 627.847 1782.56 626.727C1781.6 625.527 1780.48 624.967 1779.04 624.967C1777.68 624.967 1776.48 625.527 1775.6 626.727C1774.64 627.847 1774.16 629.287 1774.16 631.047C1774.16 632.727 1774.64 634.167 1775.6 635.367C1776.48 636.487 1777.68 637.127 1779.04 637.127C1780.48 637.127 1781.6 636.487 1782.56 635.367ZM1781.44 628.007C1782.08 628.807 1782.4 629.847 1782.4 631.047C1782.4 632.247 1782.08 633.207 1781.44 634.007C1780.8 634.887 1780 635.287 1779.04 635.287C1778.16 635.287 1777.36 634.887 1776.72 634.007C1776.08 633.207 1775.76 632.247 1775.76 631.047C1775.76 629.847 1776.08 628.807 1776.72 628.007C1777.36 627.207 1778.16 626.807 1779.04 626.807C1780 626.807 1780.8 627.207 1781.44 628.007Z" fill="black"/>
<path fill-rule="evenodd" clip-rule="evenodd" d="M1793.84 635.367C1794.8 634.167 1795.28 632.727 1795.28 631.047C1795.28 629.287 1794.8 627.847 1793.84 626.727C1792.88 625.527 1791.68 624.967 1790.32 624.967C1788.96 624.967 1787.76 625.527 1786.8 626.727C1785.84 627.847 1785.36 629.287 1785.36 631.047C1785.36 632.727 1785.84 634.167 1786.8 635.367C1787.76 636.487 1788.96 637.127 1790.32 637.127C1791.68 637.127 1792.88 636.487 1793.84 635.367ZM1792.64 628.007C1793.28 628.807 1793.6 629.847 1793.6 631.047C1793.6 632.247 1793.28 633.207 1792.64 634.007C1792 634.887 1791.28 635.287 1790.32 635.287C1789.36 635.287 1788.64 634.887 1788 634.007C1787.36 633.207 1787.04 632.247 1787.04 631.047C1787.04 629.847 1787.36 628.807 1788 628.007C1788.64 627.207 1789.36 626.807 1790.32 626.807C1791.28 626.807 1792 627.207 1792.64 628.007Z" fill="black"/>
<path fill-rule="evenodd" clip-rule="evenodd" d="M1797.28 636.967H1803.12V635.127H1798.8V625.207H1797.28" fill="black"/>
</svg>
